<svg xmlns="http://www.w3.org/2000/svg" width="40" height="40" viewBox="0 0 40 40">
  <defs>
    <style>
      .cls-1 {
        fill: #2c8389;
      }

      .cls-2 {
        fill: #e8e9e9;
      }
    </style>
  </defs>
  <g id="组_66121" data-name="组 66121" transform="translate(-877 -401)">
    <g id="组_66097" data-name="组 66097" transform="translate(696 -135)">
      <g id="组_57147" data-name="组 57147" transform="translate(181 536)">
        <g id="组_57143" data-name="组 57143" transform="translate(0 0)">
          <rect id="矩形_21457" data-name="矩形 21457" class="cls-1" width="40" height="40" rx="12" transform="translate(0 0)"/>
        </g>
      </g>
    </g>
    <g id="组_66118" data-name="组 66118" transform="translate(786.5 286.25)">
      <path id="路径_52533" data-name="路径 52533" class="cls-2" d="M113.234,130.27h-6.159a1.223,1.223,0,0,1-1.223-1.223v-5.074a1.223,1.223,0,0,1,1.223-1.223h6.159a1.223,1.223,0,0,1,1.223,1.223v5.074A1.223,1.223,0,0,1,113.234,130.27ZM103.8,146.546H98.723a1.223,1.223,0,0,1-1.223-1.223V140.25a1.223,1.223,0,0,1,1.223-1.223H103.8a1.223,1.223,0,0,1,1.223,1.223v5.074A1.223,1.223,0,0,1,103.8,146.546Zm8.91,0h-5.074a1.223,1.223,0,0,1-1.223-1.223V140.25a1.223,1.223,0,0,1,1.223-1.223h5.074a1.223,1.223,0,0,1,1.223,1.223v5.074A1.223,1.223,0,0,1,112.707,146.546Zm8.91,0h-5.074a1.223,1.223,0,0,1-1.223-1.223V140.25a1.223,1.223,0,0,1,1.223-1.223h5.074a1.223,1.223,0,0,1,1.223,1.223v5.074A1.223,1.223,0,0,1,121.617,146.546Z"/>
      <path id="路径_52534" data-name="路径 52534" class="cls-2" d="M199.351,366.95H197.4v3.1h-6.969a1.926,1.926,0,0,0-1.926,1.926v4.677h1.956v-4.035a.611.611,0,0,1,.611-.611H197.4v4.646h1.956V372h6.358a.611.611,0,0,1,.611.611v4.035h1.956v-4.677a1.926,1.926,0,0,0-1.926-1.926h-7Z" transform="translate(-88.218 -236.736)"/>
    </g>
  </g>
</svg>
