<svg xmlns="http://www.w3.org/2000/svg" width="138" height="32.389" viewBox="0 0 138 32.389">
  <defs>
    <style>
      .cls-1 {
        fill: #e7eaeb;
        font-size: 25px;
        font-family: OriyaMN-Bold, Oriya MN;
        font-weight: 700;
      }

      .cls-2 {
        fill: #25bcab;
      }

      .cls-3 {
        fill: #fece00;
      }
    </style>
  </defs>
  <g id="组_66048" data-name="组 66048" transform="translate(-183 -107)">
    <text id="AcSwap" class="cls-1" transform="translate(222 131)"><tspan x="0" y="0">AcSwap</tspan></text>
    <g id="组_65897" data-name="组 65897" transform="translate(180.529 106.999)">
      <path id="路径_32896" data-name="路径 32896" class="cls-2" d="M192.4,85.168l.816-.164,1.082-.193.777-.119.606-.078.5-.071.834-.07.843-.062.717-.041h1.232l.571.041.619.062.433.07.353.065.32.066.291.079.249.064.221.077.169.077.125.058.1.074.1.074.052.063.047.071.04.062.036.074.032.075.033.093.026.1.007.073,0,.056V85.9l0,.063-.006.063-.011.075-.014.092-.021.084-.025.083-.055.17-.048.132-.053.14-.059.139-.074.151-.133.242-.1.184-.118.166-.071.116-.1.144-.147.206-.2.285-.225.308-.261.3-.21.239-.208.23-.192.211-.183.195-.2.208-.208.2-.257.265-.218.217-.2.183-.269.257-.277.238-.323.262-.346.26-.4.254-.168.1.66-.378.729-.411.662-.4.587-.357.5-.344.473-.329.684-.536.281-.237.286-.265.435-.412.4-.422.376-.472.3-.422.208-.38.169-.391.1-.268.069-.319.042-.344.009-.313-.035-.247-.05-.247-.055-.208-.092-.233-.122-.244-.11-.174-.157-.2-.175-.175-.078-.08-.171-.136-.287-.186-.281-.167-.3-.151-.354-.144-.377-.11-.363-.1-.327-.072-.416-.074L201,82.346l-.535-.052-.655-.038-.509-.028-.446-.027h-1.781l-.61.027-1.478.112-1.206.138-1.1.154-1.166.18Z" transform="translate(-170.353 -74.108)"/>
      <path id="路径_51722" data-name="路径 51722" class="cls-2" d="M18.707,13.939V9.087L30.06,2.873a3.225,3.225,0,0,1,2.514,0L43.547,5.853,32.535.32a2.559,2.559,0,0,0-2.475,0L16.573,7.64l.427,6.3h1.707Z" transform="translate(-12.714 0)"/>
      <path id="路径_51723" data-name="路径 51723" class="cls-2" d="M67.352,184.819v5.022L56,196.055a3.273,3.273,0,0,1-2.475,0l-11.011-2.979,11.011,5.618a2.559,2.559,0,0,0,2.475,0l13.487-7.406-.427-6.469H67.352Z" transform="translate(-36.099 -166.624)"/>
      <path id="路径_51722-2" data-name="路径 51722" class="cls-3" d="M87.52,93.531,93.3,78.821h4.09l5.63,14.71H99.165l-1.258-3.795-3.446.041.787-2.659,1.777-.054-1.719-4.839L91.4,93.533Z" transform="translate(-76.639 -71.061)"/>
      <path id="路径_51724" data-name="路径 51724" class="cls-2" d="M21.231,142.152l-.457.166-.948.328-1.891.581-1.346.364-.97.243-.76.174-.632.152-1.053.2-1.067.2-.908.157-.955.1-.642.064-.723.033-.767.041H6.62l-.361-.022-.361-.02-.275-.033-.231-.032-.166-.035-.152-.04-.136-.056-.079-.052-.074-.061-.062-.053-.06-.065-.055-.067-.06-.085-.053-.095-.023-.069-.013-.054-.009-.051-.007-.061,0-.061v-.165l.011-.084.017-.084.037-.173.036-.135.041-.144.049-.144.066-.158.124-.255.1-.194.12-.179.068-.124.1-.155.149-.223.2-.307.229-.333.278-.329.222-.265.222-.256.2-.235.2-.218.211-.233.227-.23.278-.3.237-.245.22-.209.295-.292.308-.275.364-.306.391-.307.467-.312.2-.122-.772.473-.854.516-.771.49-.682.441-.573.414-.542.4-.772.629-.313.274-.315.3-.477.469-.429.472-.389.517-.3.456-.193.4-.141.4-.074.275-.028.319.012.339.049.3.092.232.111.23.11.191.163.21.2.216.174.149.239.17.257.14.116.065.244.1.4.133.391.115.411.1.48.081.5.045.483.037.433.016.546,0,.6-.021.663-.045.874-.062.674-.076.585-.072.648-.053.9-.115.7-.079.775-.126,1.868-.351,1.515-.331,1.383-.33.814-.2.908-.256.558-.163.606-.187.078-.021Z" transform="translate(0 -123.479)"/>
    </g>
  </g>
</svg>
