<svg xmlns="http://www.w3.org/2000/svg" width="38" height="38" viewBox="0 0 38 38">
  <defs>
    <style>
      .cls-1 {
        fill: #2c8389;
      }

      .cls-2 {
        fill: #e8e9e9;
      }
    </style>
  </defs>
  <g id="组_57152" data-name="组 57152" transform="translate(-181 -654)">
    <g id="组_57150" data-name="组 57150" transform="translate(0 118)">
      <g id="组_57147" data-name="组 57147" transform="translate(0 72)">
        <g id="组_57143" data-name="组 57143" transform="translate(-118 274)">
          <rect id="矩形_21457" data-name="矩形 21457" class="cls-1" width="38" height="38" rx="10" transform="translate(299 190)"/>
        </g>
      </g>
    </g>
    <path id="路径_32878" data-name="路径 32878" class="cls-2" d="M21.44,92.493a6.537,6.537,0,0,1,.728.044c-.654-3.046-3.911-5.31-7.629-5.31-4.157,0-7.561,2.833-7.561,6.43A6.2,6.2,0,0,0,10,98.762l-.756,2.274,2.643-1.325a12.951,12.951,0,0,0,2.649.38c.237,0,.472-.012.706-.03a5.631,5.631,0,0,1-.233-1.584A6.193,6.193,0,0,1,21.44,92.493Zm-4.119-2.2a1.169,1.169,0,1,1-1.169,1.169A1.169,1.169,0,0,1,17.321,90.29Zm-5.29,2.362A1.169,1.169,0,1,1,13.2,91.482,1.169,1.169,0,0,1,12.03,92.651ZM28.287,98.41c0-3.023-3.025-5.487-6.422-5.487-3.6,0-6.431,2.464-6.431,5.487s2.833,5.487,6.431,5.487a9.5,9.5,0,0,0,2.269-.38l2.074,1.136-.569-1.89A5.729,5.729,0,0,0,28.287,98.41Zm-8.4-.847a.832.832,0,1,1,.832-.832A.832.832,0,0,1,19.889,97.563Zm4.157.047a.832.832,0,1,1,.832-.832A.832.832,0,0,1,24.046,97.61Z" transform="translate(182.023 576.772)"/>
  </g>
</svg>
