<svg xmlns="http://www.w3.org/2000/svg" width="38" height="38" viewBox="0 0 38 38">
  <defs>
    <style>
      .cls-1 {
        fill: #2c8389;
      }

      .cls-2 {
        fill: #e8e9e9;
      }
    </style>
  </defs>
  <g id="组_57554" data-name="组 57554" transform="translate(-181 -236)">
    <g id="组_56888" data-name="组 56888" transform="translate(57 46)">
      <rect id="矩形_21458" data-name="矩形 21458" class="cls-1" width="38" height="38" rx="10" transform="translate(124 190)"/>
    </g>
    <g id="组_57552" data-name="组 57552" transform="translate(113.582 99.382)">
      <path id="路径_32910" data-name="路径 32910" class="cls-2" d="M95.633,400.17H77.3a.882.882,0,0,1-.879-.879v-2.814a.859.859,0,0,1,.308-.66l5.98-5.013a.86.86,0,0,1,1.055-.044l4.133,2.9,7.167-5.188a.981.981,0,0,1,.923-.088.831.831,0,0,1,.484.791v10.157a.808.808,0,0,1-.835.835Zm-17.456-1.759H94.754v-7.563l-6.288,4.529a.858.858,0,0,1-1.011,0l-4.133-2.858-5.145,4.353Z" transform="translate(0 -236.129)"/>
      <path id="路径_32911" data-name="路径 32911" class="cls-2" d="M93.851,178.151a.63.63,0,0,1-.484-.22.682.682,0,0,1,.088-.923l6.068-5.1a.726.726,0,0,1,.835-.044l4.045,2.99,6.332-4.925a.66.66,0,0,1,.791,1.055l-6.771,5.232a.66.66,0,0,1-.791,0l-4-2.99-5.716,4.793A.614.614,0,0,1,93.851,178.151Z" transform="translate(-16.422 -22.64)"/>
      <path id="路径_32912" data-name="路径 32912" class="cls-2" d="M753.329,150.586H753.2a.723.723,0,0,1-.528-.791l.352-1.715-1.671.264a.665.665,0,1,1-.176-1.319l2.638-.4a.573.573,0,0,1,.572.22.693.693,0,0,1,.176.572l-.572,2.638a.663.663,0,0,1-.659.528Z" transform="translate(-658.663)"/>
    </g>
  </g>
</svg>
