<svg xmlns="http://www.w3.org/2000/svg" width="55" height="55" viewBox="0 0 55 55">
  <defs>
    <style>
      .cls-1 {
        fill: #2c8389;
      }

      .cls-2 {
        fill: #e8e9e9;
      }
    </style>
  </defs>
  <g id="组_66270" data-name="组 66270" transform="translate(-653 -174.81)">
    <g id="组_66167" data-name="组 66167" transform="translate(653 175)">
      <g id="组_66141" data-name="组 66141">
        <g id="组_57150" data-name="组 57150">
          <g id="组_57147" data-name="组 57147">
            <g id="组_57143" data-name="组 57143">
              <rect id="矩形_21457" data-name="矩形 21457" class="cls-1" width="55" height="55" rx="12" transform="translate(0 -0.19)"/>
            </g>
          </g>
        </g>
      </g>
    </g>
    <g id="组_66268" data-name="组 66268" transform="translate(661.222 183.221)">
      <path id="路径_52962" data-name="路径 52962" class="cls-2" d="M91.215,65.1a.683.683,0,0,1,.68.68v3.534h4.5a3.441,3.441,0,0,1,3.436,3.436v4.512h3.483a.68.68,0,1,1,0,1.361H99.83v4.849h3.484a.68.68,0,1,1,0,1.361H99.83v4.853h3.484a.68.68,0,1,1,0,1.361H99.83v4.436a3.437,3.437,0,0,1-3.435,3.436h-4.5v3.531a.68.68,0,0,1-1.361,0V98.92H85.685v3.531a.68.68,0,1,1-1.36,0V98.92H79.471v3.531a.68.68,0,1,1-1.36,0V98.92h-4.45a3.441,3.441,0,0,1-3.437-3.436V91.049H66.653a.68.68,0,1,1,0-1.361h3.572V84.835H66.653a.68.68,0,1,1,0-1.361h3.572V78.625H66.653a.68.68,0,1,1,0-1.36h3.572V72.752a3.441,3.441,0,0,1,3.437-3.436h4.448V65.781a.681.681,0,0,1,1.362,0v3.534h4.852V65.781a.681.681,0,0,1,1.362,0v3.534h4.847V65.781a.683.683,0,0,1,.682-.68ZM73.661,70.672a2.079,2.079,0,0,0-2.076,2.075V95.481a2.079,2.079,0,0,0,2.076,2.075H96.395A2.079,2.079,0,0,0,98.47,95.48l0-4.87a.675.675,0,0,1,0-.483V84.4a.675.675,0,0,1,0-.485V78.187a.675.675,0,0,1,0-.483l0-4.952a2.079,2.079,0,0,0-2.075-2.075H73.661Z" transform="translate(-65.971 -65.101)"/>
      <path id="路径_52963" data-name="路径 52963" class="cls-2" d="M356.5,344.3a2.056,2.056,0,0,1,2.05,2.049V356.6a2.057,2.057,0,0,1-2.05,2.05H346.242a2.057,2.057,0,0,1-2.05-2.05V346.345a2.057,2.057,0,0,1,2.05-2.05H356.5Zm-8.931,1.663a1.7,1.7,0,1,0,1.659,1.7A1.7,1.7,0,0,0,347.569,345.958Z" transform="translate(-332.359 -332.42)"/>
    </g>
  </g>
</svg>
