<svg xmlns="http://www.w3.org/2000/svg" width="32" height="32" viewBox="0 0 32 32">
  <defs>
    <style>
      .cls-1 {
        fill: #f7f7f7;
      }

      .cls-2 {
        fill: #25bcab;
      }

      .cls-3 {
        fill: #fece00;
      }
    </style>
  </defs>
  <g id="组_66047" data-name="组 66047" transform="translate(-89 -115)">
    <g id="组_66045" data-name="组 66045" transform="translate(89 115)">
      <g id="组_56117" data-name="组 56117" transform="translate(0)">
        <path id="路径_31758" data-name="路径 31758" class="cls-1" d="M262,196a16,16,0,1,0-16-16A16,16,0,0,0,262,196Z" transform="translate(-246 -164)"/>
      </g>
    </g>
    <g id="组_66046" data-name="组 66046" transform="translate(93.764 119.764)">
      <path id="路径_32896" data-name="路径 32896" class="cls-2" d="M192.132,84.277l.571-.115.757-.135.543-.084.424-.054.353-.05.584-.049.59-.043.5-.029h.862l.4.029.433.043.3.049.247.045.224.046.2.055.174.045.154.054.118.054.087.04.071.052.066.052.037.044.033.05.028.043.025.052.022.052.023.065.018.072.005.051,0,.039v.037l0,.044,0,.044-.008.052-.01.064-.015.059-.018.058-.038.119-.033.092-.037.1-.041.1-.052.106-.093.169-.071.128-.083.116-.049.081-.069.1-.1.144-.139.2-.158.215-.183.207-.147.167-.146.161-.134.147-.128.136-.137.145-.146.142-.18.185-.152.152-.14.128-.188.18-.193.166-.226.183-.242.182-.283.178-.118.069.462-.264.51-.288.463-.277.411-.25.35-.241.331-.23.479-.375.2-.166.2-.186.3-.288.279-.3.263-.33.209-.3.145-.266.118-.273.069-.188.048-.223.03-.241.006-.219-.025-.173-.035-.173L201,83.917l-.065-.163-.086-.171-.077-.122-.11-.142-.122-.122-.055-.056-.119-.1-.2-.13-.2-.117-.209-.106-.247-.1-.264-.077-.254-.07-.229-.051-.291-.052-.323-.04-.374-.037-.458-.027-.356-.019-.312-.019H195.4l-.427.019-1.034.079-.844.1-.773.108-.816.126Z" transform="translate(-178.437 -76.54)"/>
      <path id="路径_51722" data-name="路径 51722" class="cls-2" d="M18.066,9.752V6.357L26.008,2.01a2.256,2.256,0,0,1,1.759,0l7.676,2.084L27.74.224a1.79,1.79,0,0,0-1.732,0L16.573,5.345l.3,4.407h1.194Z" transform="translate(-15.602 -0.001)"/>
      <path id="路径_51723" data-name="路径 51723" class="cls-2" d="M59.889,184.819v3.513l-7.942,4.347a2.29,2.29,0,0,1-1.732,0l-7.7-2.084,7.7,3.93a1.79,1.79,0,0,0,1.732,0l9.435-5.181-.3-4.526H59.889Z" transform="translate(-39.754 -172.091)"/>
      <path id="路径_51722-2" data-name="路径 51722" class="cls-3" d="M87.52,89.112l4.041-10.291h2.861l3.939,10.291H95.667l-.88-2.655-2.411.029.551-1.86,1.243-.038-1.2-3.385-2.729,7.91Z" transform="translate(-81.636 -73.393)"/>
      <path id="路径_51724" data-name="路径 51724" class="cls-2" d="M15.595,140.593l-.32.116-.663.23-1.323.407-.942.255-.679.17-.531.122L10.7,142l-.737.143-.746.138-.635.11-.668.073-.449.045-.506.023-.536.029H5.374l-.253-.015-.253-.014-.192-.023-.162-.022-.116-.024-.106-.028-.095-.039-.055-.036-.052-.043-.044-.037L4,142.23l-.038-.047-.042-.059-.037-.066-.016-.048-.009-.038-.007-.036,0-.043,0-.043v-.115l.008-.059.012-.059.026-.121.025-.094.029-.1.034-.1.046-.11.087-.178.067-.136.084-.125.048-.086.069-.108.1-.156.14-.215.16-.233.194-.23.155-.185.156-.179.143-.164.138-.152.147-.163.159-.161.195-.209.166-.171.154-.146.206-.2.216-.192.254-.214.274-.215.327-.218.137-.086-.54.331-.6.361L6.129,138l-.477.308-.4.29-.379.276-.54.44-.219.192-.221.212-.334.328-.3.33-.272.362-.21.319-.135.28-.1.283-.052.192-.019.224.008.237.034.212.064.163.078.161.077.134.114.147.142.151.122.1.167.119.18.1.081.045.171.072.281.093.274.081.287.068.336.057.352.031.338.026.3.011.382,0,.421-.015L7.147,144l.612-.043.471-.053.409-.051.454-.037.631-.081.489-.055.542-.088,1.307-.245,1.06-.232.967-.231.57-.143.635-.179.39-.114.424-.131.055-.015Z" transform="translate(-2.471 -127.531)"/>
    </g>
  </g>
</svg>
