<svg xmlns="http://www.w3.org/2000/svg" width="67.306" height="67.306" viewBox="0 0 67.306 67.306">
  <defs>
    <style>
      .cls-1 {
        fill: #25bcab;
      }

      .cls-2 {
        fill: #fece00;
      }
    </style>
  </defs>
  <g id="组_65897" data-name="组 65897" transform="translate(-2.471 -0.001)">
    <path id="路径_32896" data-name="路径 32896" class="cls-1" d="M193.36,88.367l1.7-.342,2.249-.4,1.614-.248,1.259-.161,1.049-.148,1.733-.146,1.753-.128,1.489-.085h2.56l1.186.086,1.286.128.9.146.734.135.665.138.6.164.518.133.458.159.351.159.259.12.209.154.2.154.109.131.1.148.082.128.075.154.065.155.069.194.055.213.015.151,0,.116v.11l-.008.131-.013.13-.023.156-.029.19-.044.174-.053.172-.114.353-.1.274-.111.291-.122.289-.154.314-.277.5-.212.382-.246.344-.147.241-.206.3-.306.427-.413.592-.468.64-.543.615-.436.5-.433.479-.4.438-.381.4-.407.432-.433.422-.534.551-.453.451-.414.379-.559.534-.575.494-.672.544-.719.54-.839.529-.349.2,1.371-.785,1.516-.854,1.376-.822,1.219-.742,1.039-.715.983-.685,1.422-1.113.584-.492.6-.552.9-.856.829-.877.78-.981.62-.877.431-.789.35-.812.2-.557.143-.663.088-.716.018-.65-.073-.513-.1-.513-.114-.432-.192-.485-.254-.507-.229-.362-.326-.421-.364-.363-.163-.167-.355-.283-.6-.387-.584-.348-.621-.314-.735-.3-.784-.23-.755-.207-.68-.15-.865-.154-.96-.118-1.111-.109-1.361-.08-1.057-.058-.927-.056h-3.7l-1.269.056-3.072.233-2.506.288-2.3.32-2.424.374Z" transform="translate(-150.208 -65.384)"/>
    <path id="路径_51722" data-name="路径 51722" class="cls-1" d="M21.008,28.966V18.883L44.6,5.97c1.6-.884,3.336-.526,5.224,0l22.8,6.191L49.744.664a5.319,5.319,0,0,0-5.144,0L16.573,15.876l.887,13.09h3.548Z" transform="translate(-11.217)"/>
    <path id="路径_51723" data-name="路径 51723" class="cls-1" d="M94.131,184.819v10.437L70.539,208.169c-1.6.884-3.41.462-5.144,0l-22.883-6.191,22.883,11.675a5.318,5.318,0,0,0,5.144,0l28.027-15.389-.887-13.444H94.131Z" transform="translate(-31.849 -147.008)"/>
    <path id="路径_51722-2" data-name="路径 51722" class="cls-2" d="M87.52,109.39,99.525,78.821h8.5l11.7,30.569H111.72l-2.614-7.886-7.162.086,1.636-5.525,3.692-.112L103.7,85.9l-8.106,23.5Z" transform="translate(-67.572 -62.695)"/>
    <path id="路径_51724" data-name="路径 51724" class="cls-1" d="M41.456,147.746l-.95.344-1.971.682-3.929,1.208-2.8.756-2.016.5-1.579.362-1.313.315-2.188.424-2.217.411-1.887.327-1.984.218-1.334.133-1.5.069-1.594.085h-3.1l-.751-.045-.751-.041-.571-.069-.481-.067-.346-.072-.315-.083-.282-.116-.164-.108-.154-.127-.129-.11-.126-.135-.113-.14-.125-.176-.11-.2-.048-.144-.028-.112-.02-.106-.015-.127-.009-.127v-.342l.023-.175.035-.175.078-.359.074-.281.086-.3.1-.3.137-.328.258-.529.2-.4.249-.373.142-.257.206-.322.309-.463.415-.638.476-.693.578-.683.462-.55.462-.533.426-.487.409-.453.438-.484.473-.478.578-.62.493-.509.457-.435.613-.606.64-.571.756-.635.813-.639.97-.648.408-.254-1.6.982-1.774,1.073-1.6,1.018-1.417.916-1.191.86-1.125.821L8,143.941l-.651.569-.655.63-.991.974-.892.982L4,148.17l-.624.948-.4.833-.293.84-.154.571-.057.664.025.7.1.631.191.483.231.478.228.4.339.436.422.448.362.31.5.353.534.291.24.135.507.214.835.276.813.24.853.2,1,.169,1.046.093,1,.076.9.033,1.135.007,1.25-.044,1.379-.095,1.817-.129,1.4-.158,1.215-.151,1.347-.111,1.875-.239,1.453-.164,1.611-.261,3.882-.729,3.149-.688,2.874-.685,1.692-.423,1.887-.531,1.159-.338,1.259-.388.162-.043Z" transform="translate(0 -108.943)"/>
  </g>
</svg>
