<svg xmlns="http://www.w3.org/2000/svg" width="27.035" height="35.987" viewBox="0 0 27.035 35.987">
  <defs>
    <style>
      .cls-1 {
        fill: #22b0a3;
      }
    </style>
  </defs>
  <g id="组_66176" data-name="组 66176" transform="translate(236.2 158.406) rotate(180)">
    <path id="路径_52592" data-name="路径 52592" class="cls-1" d="M457.825,228.6h-2.591a1.293,1.293,0,0,1-1.3-1.293V195.891h5.181v31.416a1.293,1.293,0,0,1-1.3,1.293Z" transform="translate(-233.852 -70.194)"/>
    <path id="路径_52593" data-name="路径 52593" class="cls-1" d="M232.16,139.229l-9.481-9.479-9.481,9.479a1.3,1.3,0,0,1-1.828,0l-1.828-1.828a1.3,1.3,0,0,1,0-1.828l13.136-13.155,13.146,13.146a1.3,1.3,0,0,1,0,1.828L234,139.22a1.3,1.3,0,0,1-1.837.009Z" transform="translate(0)"/>
  </g>
</svg>
