<svg xmlns="http://www.w3.org/2000/svg" width="40" height="40" viewBox="0 0 40 40">
  <defs>
    <style>
      .cls-1 {
        fill: #2c8389;
      }

      .cls-2 {
        fill: #e8e9e9;
      }
    </style>
  </defs>
  <g id="组_66167" data-name="组 66167" transform="translate(-648 -410)">
    <g id="组_66141" data-name="组 66141" transform="translate(467 -244)">
      <g id="组_57150" data-name="组 57150" transform="translate(181 654)">
        <g id="组_57147" data-name="组 57147">
          <g id="组_57143" data-name="组 57143" transform="translate(0 0)">
            <rect id="矩形_21457" data-name="矩形 21457" class="cls-1" width="40" height="40" rx="12" transform="translate(0 0)"/>
          </g>
        </g>
      </g>
    </g>
    <path id="路径_52570" data-name="路径 52570" class="cls-2" d="M4.8,18.484a2.037,2.037,0,0,1,2.032,1.88l.005.146v3.059a.818.818,0,0,1-.208.546,1.936,1.936,0,0,1,1.661.424l.1.095,2.47,2.458.017.012a1.878,1.878,0,0,1,.213.2l.052.057a4.581,4.581,0,0,1,.6.856,7.157,7.157,0,0,1,.815,2.916h.063a1.132,1.132,0,0,1,1.131,1.126v1.764a1.132,1.132,0,0,1-1.132,1.126H6.257a1.132,1.132,0,0,1-1.131-1.125V32.264a1.131,1.131,0,0,1,1.094-1.125,3.925,3.925,0,0,0-.86-.774l-.155-.109-.029-.02-.113-.079c-2.3-1.6-2.994-3.627-2.3-9.733a2.29,2.29,0,0,1,.643-1.366A1.96,1.96,0,0,1,4.8,18.484Zm19.138-.008a1.947,1.947,0,0,1,1.394.575,2.284,2.284,0,0,1,.641,1.364c.7,6.114.007,8.133-2.305,9.738l-.106.074a4.477,4.477,0,0,0-1.051.912h-.036a1.11,1.11,0,0,1,.72.261c.027.022.027.022.049.041l.03.029a1.121,1.121,0,0,1,.332.8v1.764a1.114,1.114,0,0,1-.124.513l.038.037-.493.49-.039-.038a1.128,1.128,0,0,1-.513.124H16.114a1.132,1.132,0,0,1-1.132-1.126V32.263a1.133,1.133,0,0,1,1.132-1.126h.063a7.168,7.168,0,0,1,.814-2.916,4.651,4.651,0,0,1,.6-.856,2.829,2.829,0,0,1,.246-.248l2.5-2.493a1.94,1.94,0,0,1,1.772-.516.809.809,0,0,1-.2-.455l0-.084V20.5a2.017,2.017,0,0,1,.6-1.434,2.051,2.051,0,0,1,1.438-.592Zm-.832,15.687-.493.491.169.168.246-.246.246-.246ZM12.588,31.831v.127a.789.789,0,0,1-.01.131h.214V34.2H6.084V32.087h.582l-.009-.034q-.032-.112-.071-.223h-.33a.42.42,0,0,0-.306.127.428.428,0,0,0-.128.3v1.764a.436.436,0,0,0,.434.432h6.362a.435.435,0,0,0,.306-.128.428.428,0,0,0,.128-.3V32.263a.435.435,0,0,0-.434-.432h-.032Zm9.889,0h-.328q-.044.127-.08.256h.581V34.2H15.941V32.087h.214a.781.781,0,0,1-.011-.13v-.126h-.032a.42.42,0,0,0-.306.127.428.428,0,0,0-.128.3v1.764a.436.436,0,0,0,.434.432h6.362a.43.43,0,0,0,.253-.083l.052-.045a.419.419,0,0,0,.128-.3V32.263a.431.431,0,0,0-.128-.3l-.012-.011-.011-.009a.429.429,0,0,0-.282-.106Zm-2.047,0H17.8v.128a.789.789,0,0,1-.011.131h2.645A.811.811,0,0,1,20.429,31.831Zm-9.492,0H8.3l0,.013a.838.838,0,0,1,0,.243h2.641a.822.822,0,0,1-.01-.129v-.127ZM8.1,14.883a8.829,8.829,0,0,1,3.692.822,3.3,3.3,0,0,1,2,3.526.828.828,0,0,1,1.162,0,3.305,3.305,0,0,1,2-3.526,8.751,8.751,0,0,1,3.693-.822.806.806,0,0,1,.843.741.457.457,0,0,1,.007.136v.007a8.682,8.682,0,0,1-.826,3.634h0a3.415,3.415,0,0,1-4.372,1.817l-1.1,1.088V27.9a.826.826,0,0,1-.743.82l-.085,0a.827.827,0,0,1-.824-.74l0-.084V22.252l-.9-1.087a3.447,3.447,0,0,1-4.559-1.759,8.574,8.574,0,0,1-.824-3.614.824.824,0,0,1,.844-.908Z" transform="translate(653.631 404.982)"/>
  </g>
</svg>
