<svg xmlns="http://www.w3.org/2000/svg" width="38" height="38" viewBox="0 0 38 38">
  <defs>
    <style>
      .cls-1 {
        fill: #2a424c;
      }

      .cls-2 {
        fill: #e8e9e9;
      }
    </style>
  </defs>
  <g id="组_57565" data-name="组 57565" transform="translate(-181 -707)">
    <g id="组_57179" data-name="组 57179">
      <g id="组_57151" data-name="组 57151" transform="translate(0 171)">
        <g id="组_57147" data-name="组 57147" transform="translate(0 72)">
          <g id="组_57143" data-name="组 57143" transform="translate(-118 274)">
            <rect id="矩形_21457" data-name="矩形 21457" class="cls-1" width="38" height="38" rx="10" transform="translate(299 190)"/>
          </g>
        </g>
      </g>
    </g>
    <path id="路径_32897" data-name="路径 32897" class="cls-2" d="M75.488,43.661a1.957,1.957,0,0,1-1.964-1.943l-.008-1.391c-3.86.839-4.674-1.637-4.674-1.637A3.672,3.672,0,0,0,67.3,36.661c-1.259-.862.1-.844.1-.844a2.914,2.914,0,0,1,2.125,1.43A2.954,2.954,0,0,0,73.559,38.4a2.958,2.958,0,0,1,.881-1.856c-3.081-.35-6.32-1.541-6.32-6.855a5.366,5.366,0,0,1,1.43-3.723,4.987,4.987,0,0,1,.134-3.671s1.165-.373,3.816,1.422a13.154,13.154,0,0,1,6.947,0c2.649-1.795,3.812-1.422,3.812-1.422a4.98,4.98,0,0,1,.136,3.671,5.359,5.359,0,0,1,1.428,3.723c0,5.328-3.246,6.5-6.334,6.845a3.318,3.318,0,0,1,.941,2.569c0,1.857-.007,2.615-.007,2.615a1.958,1.958,0,0,1-1.962,1.944H75.488Z" transform="translate(123.234 692.738)"/>
  </g>
</svg>
