<svg xmlns="http://www.w3.org/2000/svg" width="38" height="38" viewBox="0 0 38 38">
  <defs>
    <style>
      .cls-1 {
        fill: #2c8389;
      }

      .cls-2 {
        fill: #e8e9e9;
      }
    </style>
  </defs>
  <g id="组_57154" data-name="组 57154" transform="translate(-181 -707)">
    <g id="组_57151" data-name="组 57151" transform="translate(0 171)">
      <g id="组_57147" data-name="组 57147" transform="translate(0 72)">
        <g id="组_57143" data-name="组 57143" transform="translate(-118 274)">
          <rect id="矩形_21457" data-name="矩形 21457" class="cls-1" width="38" height="38" rx="10" transform="translate(299 190)"/>
        </g>
      </g>
    </g>
    <path id="路径_32879" data-name="路径 32879" class="cls-2" d="M20.533,1.736,17.675,18.889a.71.71,0,0,1-.358.5.718.718,0,0,1-.346.09.75.75,0,0,1-.268-.057l-4.63-1.893a.626.626,0,0,0-.72.182L8.943,20.655a.659.659,0,0,1-.547.256.64.64,0,0,1-.248-.045.721.721,0,0,1-.471-.671V16.746a1.256,1.256,0,0,1,.282-.792L17.325,4.472,5.533,14.678a.314.314,0,0,1-.323.053L.977,13a.649.649,0,0,1-.446-.616.664.664,0,0,1,.358-.661L19.471,1a.674.674,0,0,1,.358-.1.7.7,0,0,1,.4.125.687.687,0,0,1,.3.712Z" transform="translate(189.47 715.101)"/>
  </g>
</svg>
