<svg xmlns="http://www.w3.org/2000/svg" width="40" height="40" viewBox="0 0 40 40">
  <defs>
    <style>
      .cls-1 {
        fill: #2c8389;
      }

      .cls-2 {
        fill: #e8e9e9;
      }
    </style>
  </defs>
  <g id="组_66122" data-name="组 66122" transform="translate(-664 -401)">
    <g id="组_66098" data-name="组 66098" transform="translate(365 219)">
      <rect id="矩形_21457" data-name="矩形 21457" class="cls-1" width="40" height="40" rx="12" transform="translate(299 182)"/>
    </g>
    <path id="路径_52532" data-name="路径 52532" class="cls-2" d="M111.146,85.052a5.736,5.736,0,0,1-7.321,3.418c-6.941-2.8-1.567-9.384-1.567-9.384-.415,2.6,1.709,2.4,1.709,2.4-.322-5.088,2.44-6.1,2.44-6.1-.822,3.057,2.8,4.834,2.8,4.834A4.644,4.644,0,0,1,111.146,85.052ZM107.71,83.69s-2.012-.811-1.55-2.2c0,0-1.534.461-1.357,2.782a.855.855,0,0,1-.947-1.1c.087-.281-2.986,3,.871,4.277,0,0,2.847.843,4.064-1.556A1.9,1.9,0,0,0,107.71,83.69ZM92.981,69.283h12.2v2.44h-12.2Zm0,4.881H100.3V76.6H92.981Zm15.865,0a1.221,1.221,0,0,1-1.22-1.22v-6.1H90.54V86.365h7.321a1.22,1.22,0,1,1,0,2.44H90.54a2.439,2.439,0,0,1-2.44-2.44V66.84a2.439,2.439,0,0,1,2.44-2.44h17.085a2.439,2.439,0,0,1,2.44,2.44v6.1a1.226,1.226,0,0,1-1.22,1.223Zm0,0" transform="translate(583.9 344.6)"/>
  </g>
</svg>
