<svg xmlns="http://www.w3.org/2000/svg" width="55" height="55" viewBox="0 0 55 55">
  <defs>
    <style>
      .cls-1 {
        fill: #2c8389;
      }

      .cls-2 {
        fill: #e8e9e9;
      }
    </style>
  </defs>
  <g id="组_66271" data-name="组 66271" transform="translate(-1001 -175)">
    <g id="组_66269" data-name="组 66269" transform="translate(1001 175)">
      <g id="组_66166" data-name="组 66166" transform="translate(0)">
        <g id="组_66134" data-name="组 66134">
          <g id="组_57150" data-name="组 57150">
            <g id="组_57147" data-name="组 57147">
              <g id="组_57143" data-name="组 57143">
                <rect id="矩形_21457" data-name="矩形 21457" class="cls-1" width="55" height="55" rx="12"/>
              </g>
            </g>
          </g>
        </g>
      </g>
      <g id="组_66267" data-name="组 66267" transform="translate(9.938 9.939)">
        <g id="组_66261" data-name="组 66261">
          <path id="路径_52961" data-name="路径 52961" class="cls-2" d="M1369.134-558.631a17.356,17.356,0,0,1-17.335-17.335,17.356,17.356,0,0,1,17.335-17.335,17.356,17.356,0,0,1,17.335,17.335A17.356,17.356,0,0,1,1369.134-558.631Zm0-33.766a16.45,16.45,0,0,0-16.431,16.431,16.45,16.45,0,0,0,16.431,16.431,16.45,16.45,0,0,0,16.431-16.431A16.45,16.45,0,0,0,1369.134-592.4Z" transform="translate(-1351.8 593.3)"/>
        </g>
        <path id="路径_51722_1_" class="cls-2" d="M1421.6-512.492l7.508-19.008h5.311l7.311,19.008h-5.008l-1.631-4.9-4.475.057,1.025-3.433,2.311-.073-2.238-6.255-5.066,14.613Z" transform="translate(-1414.331 539.328)"/>
      </g>
    </g>
  </g>
</svg>
