<svg xmlns="http://www.w3.org/2000/svg" width="38" height="38" viewBox="0 0 38 38">
  <defs>
    <style>
      .cls-1 {
        fill: #2a424c;
      }

      .cls-2 {
        fill: #e8e9e9;
      }
    </style>
  </defs>
  <g id="组_57153" data-name="组 57153" transform="translate(-181 -606)">
    <g id="组_57149" data-name="组 57149" transform="translate(0 70)">
      <g id="组_57147" data-name="组 57147" transform="translate(0 72)">
        <g id="组_57143" data-name="组 57143" transform="translate(-118 274)">
          <rect id="矩形_21457" data-name="矩形 21457" class="cls-1" width="38" height="38" rx="10" transform="translate(299 190)"/>
        </g>
      </g>
    </g>
    <path id="路径_32877" data-name="路径 32877" class="cls-2" d="M117.357,176.071a8.819,8.819,0,0,1-2.532.681,4.387,4.387,0,0,0,1.934-2.424,8.681,8.681,0,0,1-2.79,1.062,4.4,4.4,0,0,0-7.61,3.009,5.05,5.05,0,0,0,.108,1.008,12.5,12.5,0,0,1-9.067-4.6,4.41,4.41,0,0,0,1.362,5.885,4.435,4.435,0,0,1-1.988-.56v.054A4.4,4.4,0,0,0,100.3,184.5a4.657,4.657,0,0,1-1.158.15,5.849,5.849,0,0,1-.83-.067,4.405,4.405,0,0,0,4.11,3.051,8.813,8.813,0,0,1-5.459,1.88,8.99,8.99,0,0,1-1.062-.054,12.52,12.52,0,0,0,19.265-10.542c0-.191,0-.382-.013-.572A9.471,9.471,0,0,0,117.357,176.071Z" transform="translate(93.1 442)"/>
  </g>
</svg>
