<svg xmlns="http://www.w3.org/2000/svg" xmlns:xlink="http://www.w3.org/1999/xlink" width="80.546" height="69.416" viewBox="0 0 80.546 69.416">
  <defs>
    <style>
      .cls-1 {
        opacity: 0.805;
      }

      .cls-2 {
        fill: #37bfda;
      }

      .cls-3, .cls-7 {
        fill: none;
      }

      .cls-3, .cls-5 {
        stroke: #37bfda;
        stroke-width: 1.6px;
      }

      .cls-3, .cls-4 {
        fill-rule: evenodd;
      }

      .cls-4 {
        fill: url(#linear-gradient);
      }

      .cls-5 {
        fill: url(#linear-gradient-7);
      }

      .cls-6 {
        stroke: none;
      }
    </style>
    <linearGradient id="linear-gradient" x1="-0.235" y1="3.891" x2="0.837" y2="3.636" gradientUnits="objectBoundingBox">
      <stop offset="0" stop-color="#5ee5da"/>
      <stop offset="1" stop-color="#129cd9"/>
    </linearGradient>
    <linearGradient id="linear-gradient-7" x1="0.5" x2="0.5" y2="1" gradientUnits="objectBoundingBox">
      <stop offset="0" stop-color="#e8f1f2"/>
      <stop offset="1" stop-color="#9be4ea"/>
    </linearGradient>
  </defs>
  <g id="策略运行日志" class="cls-1" transform="translate(-14.232 -9.167)">
    <g id="空白页" transform="translate(14.232 9.168)">
      <g id="暂无相关搜索" transform="translate(0 0)">
        <g id="分组">
          <g id="背景_线" data-name="背景/线">
            <g id="_-" data-name="-">
              <g id="编组">
                <path id="Path-2" class="cls-2" d="M.7,62.926a.689.689,0,0,1,0-1.377H60.967a.689.689,0,0,1,0,1.377Zm63.712,0a.689.689,0,1,1,0-1.377h2.152a.689.689,0,0,1,0,1.377Zm7.749,0a.689.689,0,1,1,0-1.377H79.91a.689.689,0,0,1,0,1.377ZM20.5,69.383a.689.689,0,1,1,0-1.377h6.027a.689.689,0,1,1,0,1.377Zm9.9,0a.689.689,0,1,1,0-1.377h26.26a.689.689,0,0,1,0,1.377ZM68.89,45.448a.689.689,0,1,1,1.377,0v2.583a.689.689,0,0,1-.689.689H67a.689.689,0,1,1,0-1.377H68.89Zm1.377,5.166a.689.689,0,1,1-1.377,0V48.031a.689.689,0,0,1,.689-.689h2.584a.689.689,0,1,1,0,1.377H70.268ZM3.453,24.785a.689.689,0,1,1,1.377,0v2.583a.689.689,0,0,1-.689.689H1.561a.689.689,0,1,1,0-1.377H3.453ZM67.254,3h2.325a.689.689,0,1,1,0,1.377H67.254V6.7a.689.689,0,1,1-1.377,0V4.379H63.551a.689.689,0,1,1,0-1.377h2.325V.678a.689.689,0,1,1,1.377,0ZM4.833,29.951a.689.689,0,1,1-1.377,0V27.368a.689.689,0,0,1,.689-.688H6.727a.689.689,0,1,1,0,1.377H4.833Z" transform="translate(-0.032 0.032)"/>
                <path id="Path复制" class="cls-2" d="M13.775,53.854a.431.431,0,1,1,.609.609l-.913.913a.431.431,0,0,1-.609,0l-.913-.913a.431.431,0,1,1,.609-.609l.608.609ZM12.557,56.29a.431.431,0,1,1-.609-.609l.913-.913a.431.431,0,0,1,.609,0l.913.913a.431.431,0,1,1-.609.609l-.609-.609Zm8.819-47.5a.431.431,0,0,1,.609.609l-.913.913a.431.431,0,0,1-.609,0L19.549,9.4a.431.431,0,0,1,.609-.609l.609.609Zm-1.218,2.435a.431.431,0,0,1-.609-.609l.913-.913a.431.431,0,0,1,.609,0l.913.913a.431.431,0,0,1-.609.609l-.609-.609Z" transform="translate(-1.662 -1.191)"/>
              </g>
            </g>
          </g>
          <g id="Group-6" transform="translate(20.14 18.452)">
            <g id="分组-2" data-name="分组">
              <path id="矩形" class="cls-3" d="M2.448,0H37.169a2.448,2.448,0,0,1,2.446,2.448V34.264a2.448,2.448,0,0,1-2.448,2.448H2.448A2.448,2.448,0,0,1,0,34.264V2.448A2.448,2.448,0,0,1,2.448,0Z"/>
              <path id="路径复制-7" class="cls-4" d="M6,16.632v-.816c0-.451.171-.816.383-.816H9.86c.211,0,.383.366.383.816v.816c0,.451-.171.816-.383.816H6.383C6.171,17.448,6,17.083,6,16.632Z" transform="translate(-0.255 -3.527)"/>
              <path id="路径复制-7-2" data-name="路径复制-7" class="cls-4" d="M6,16.632v-.816c0-.451.171-.816.383-.816H9.86c.211,0,.383.366.383.816v.816c0,.451-.171.816-.383.816H6.383C6.171,17.448,6,17.083,6,16.632Z" transform="translate(-0.255 3.857)"/>
              <path id="路径复制-7-3" data-name="路径复制-7" class="cls-4" d="M6,16.632v-.816c0-.451.171-.816.383-.816H9.86c.211,0,.383.366.383.816v.816c0,.451-.171.816-.383.816H6.383C6.171,17.448,6,17.083,6,16.632Z" transform="translate(-0.255 11.241)"/>
              <path id="路径复制-7-4" data-name="路径复制-7" class="cls-4" d="M9,16.632v-.816c0-.451.171-.816.383-.816H30.09c.211,0,.383.366.383.816v.816c0,.451-.171.816-.383.816H9.383C9.171,17.448,9,17.083,9,16.632Z" transform="translate(3.398 -3.527)"/>
              <path id="路径复制-7-5" data-name="路径复制-7" class="cls-4" d="M9,16.632v-.816c0-.451.171-.816.383-.816H30.09c.211,0,.383.366.383.816v.816c0,.451-.171.816-.383.816H9.383C9.171,17.448,9,17.083,9,16.632Z" transform="translate(3.398 3.857)"/>
              <path id="路径复制-7-6" data-name="路径复制-7" class="cls-4" d="M9,16.632v-.816c0-.451.171-.816.383-.816H30.09c.211,0,.383.366.383.816v.816c0,.451-.171.816-.383.816H9.383C9.171,17.448,9,17.083,9,16.632Z" transform="translate(3.398 11.241)"/>
            </g>
          </g>
          <g id="组_7087" data-name="组 7087" transform="translate(28.583 13.659)">
            <g id="矩形_3783" data-name="矩形 3783" class="cls-5" transform="translate(0 0)">
              <rect class="cls-6" width="5.195" height="9.741" rx="2"/>
              <rect class="cls-7" x="0.8" y="0.8" width="3.595" height="8.141" rx="1.2"/>
            </g>
            <g id="矩形_3784" data-name="矩形 3784" class="cls-5" transform="translate(17.535 0)">
              <rect class="cls-6" width="5.195" height="9.741" rx="2"/>
              <rect class="cls-7" x="0.8" y="0.8" width="3.595" height="8.141" rx="1.2"/>
            </g>
          </g>
        </g>
      </g>
    </g>
  </g>
</svg>
