<svg xmlns="http://www.w3.org/2000/svg" width="38" height="38" viewBox="0 0 38 38">
  <defs>
    <style>
      .cls-1 {
        fill: #2a424c;
      }

      .cls-2 {
        fill: #e8e9e9;
      }
    </style>
  </defs>
  <g id="组_66240" data-name="组 66240" transform="translate(-181 -236)">
    <g id="组_57554" data-name="组 57554">
      <g id="组_56888" data-name="组 56888" transform="translate(57 46)">
        <rect id="矩形_21458" data-name="矩形 21458" class="cls-1" width="38" height="38" rx="10" transform="translate(124 190)"/>
      </g>
    </g>
    <g id="组_66239" data-name="组 66239" transform="translate(70.106 139.143)">
      <path id="路径_52798" data-name="路径 52798" class="cls-2" d="M127.982,634.436c-4.612,0-8.089-1.895-8.089-4.409,0-1.324.953-2.505,2.685-3.328a.932.932,0,0,1,.8,1.685c-1.016.482-1.622,1.1-1.622,1.643,0,1.063,2.368,2.545,6.224,2.545s6.224-1.482,6.224-2.545c0-.583-.7-1.249-1.832-1.738a.932.932,0,1,1,.741-1.71c1.878.813,2.955,2.072,2.955,3.449C136.071,632.542,132.594,634.436,127.982,634.436Z" transform="translate(0 -505.438)"/>
      <path id="路径_52799" data-name="路径 52799" class="cls-2" d="M391.042,110.626a.931.931,0,0,0-.634-.627l-10.734-3.09a.931.931,0,0,0-1.181.79l-.35,3.034-.545,4.728-.168,1.454-.818,7.112a.932.932,0,0,0,.82,1.032.857.857,0,0,0,.107.007.933.933,0,0,0,.925-.825l.7-6.085,8.9,1.964a.993.993,0,0,0,.2.021.933.933,0,0,0,.9-1.174l-1.121-4.167,2.813-3.3A.928.928,0,0,0,391.042,110.626Zm-4.735,3.335a.931.931,0,0,0-.191.848l.848,3.158-7.588-1.673.839-7.287,8.287,2.384Z" transform="translate(-269.768 143.234) rotate(-21)"/>
      <path id="路径_52800" data-name="路径 52800" class="cls-2" d="M524.885,244.83l.562-4.873,5.225,1.5-1.736,2.034.636,2.37Z" transform="translate(-450.48 73.774) rotate(-21)"/>
    </g>
  </g>
</svg>
