<svg xmlns="http://www.w3.org/2000/svg" width="38" height="38" viewBox="0 0 38 38">
  <defs>
    <style>
      .cls-1 {
        fill: #2c8389;
      }

      .cls-2 {
        fill: #e8e9e9;
      }
    </style>
  </defs>
  <g id="组_56881" data-name="组 56881" transform="translate(-241 -190)">
    <rect id="矩形_21455" data-name="矩形 21455" class="cls-1" width="38" height="38" rx="10" transform="translate(241 190)"/>
    <g id="组_56855" data-name="组 56855" transform="translate(-3)">
      <g id="组_56857" data-name="组 56857">
        <path id="路径_32814" data-name="路径 32814" class="cls-2" d="M400.575,426.785h0a.852.852,0,1,0,.853.853A.852.852,0,0,0,400.573,426.785Z" transform="translate(-141.132 -219.592)"/>
        <path id="路径_32815" data-name="路径 32815" class="cls-2" d="M84.9,73.163H83.5a.252.252,0,0,0,0-.048L82.019,64.46a.84.84,0,0,0-.588-.66L75.516,62.07a.831.831,0,0,0-.894.3L72.2,65.55l-.809-.711a.832.832,0,0,0-.547-.205H67.888a.838.838,0,0,0-.777.538L64.148,72.96v0a.928.928,0,0,0-.045.2h-1.4a.835.835,0,1,0,0,1.669h1.122l1.743,3.885c.015.32.375.567.832.567h.009a2.239,2.239,0,0,0-.1.65,2.313,2.313,0,1,0,4.625,0,2.232,2.232,0,0,0-.1-.65H76.77a2.267,2.267,0,0,0-.1.65,2.313,2.313,0,1,0,4.626,0,2.241,2.241,0,0,0-.1-.65H81.2c.449,0,.816-.253.832-.567l1.743-3.885H84.9a.827.827,0,0,0,.589-.245.836.836,0,0,0-.589-1.424Zm-5.268,6.77a.648.648,0,1,1-.648-.65.648.648,0,0,1,.648.65Zm-10.36,0a.648.648,0,1,1-.648-.65.648.648,0,0,1,.648.65Zm-3.421-6.77L68.458,66.3H70.53l1.242,1.093a.856.856,0,0,0,.631.2.825.825,0,0,0,.579-.326L75.6,63.831l4.871,1.424,1.358,7.909Zm16.1,1.669-1.25,2.783H66.9l-1.249-2.783Z" transform="translate(189.13 136.963)"/>
        <path id="路径_32816" data-name="路径 32816" class="cls-2" d="M618.806,332.419a.819.819,0,0,0-1.13,0l-1.416,1.366a.758.758,0,0,0,0,1.1.819.819,0,0,0,1.13,0l.852-.82.853.822a.819.819,0,0,0,1.129,0,.758.758,0,0,0,0-1.1Z" transform="translate(-352.577 -127.124)"/>
      </g>
    </g>
  </g>
</svg>
