<svg xmlns="http://www.w3.org/2000/svg" width="40" height="40" viewBox="0 0 40 40">
  <defs>
    <style>
      .cls-1 {
        fill: #2c8389;
      }

      .cls-2 {
        fill: #e8e9e9;
      }
    </style>
  </defs>
  <g id="组_66165" data-name="组 66165" transform="translate(-1116 -416)">
    <g id="组_66133" data-name="组 66133" transform="translate(935 -238)">
      <g id="组_57150" data-name="组 57150" transform="translate(181 654)">
        <g id="组_57147" data-name="组 57147">
          <g id="组_57143" data-name="组 57143" transform="translate(0 0)">
            <rect id="矩形_21457" data-name="矩形 21457" class="cls-1" width="40" height="40" rx="12" transform="translate(0 0)"/>
          </g>
        </g>
      </g>
    </g>
    <g id="组_66164" data-name="组 66164" transform="translate(932.1 231.3)">
      <path id="路径_52573" data-name="路径 52573" class="cls-2" d="M213.437,200.829H210.06a3.34,3.34,0,0,0,.708-.542,3.272,3.272,0,0,0-2.315-5.587A2.967,2.967,0,0,0,206,195.823l-1.87,2.409-1.87-2.409a2.958,2.958,0,0,0-2.454-1.123,3.273,3.273,0,0,0-2.315,5.587,3.261,3.261,0,0,0,.708.542h-3.376a.926.926,0,0,0-.922.922v2.513a.926.926,0,0,0,.922.922h.146v9.194a.926.926,0,0,0,.922.922h16.475a.926.926,0,0,0,.922-.922v-9.194h.146a.926.926,0,0,0,.922-.922v-2.513a.919.919,0,0,0-.919-.922Zm-5.993-3.808a1.245,1.245,0,0,1,1.006-.451,1.4,1.4,0,1,1,0,2.8h-2.834Zm-8.632-.042a1.352,1.352,0,0,1,.993-.409,1.255,1.255,0,0,1,1.006.451l1.841,2.35h-2.847a1.4,1.4,0,0,1-.993-2.393Zm9.077,16.537a1.6,1.6,0,0,1-1.123.484.705.705,0,0,1-.081,0,1.242,1.242,0,0,1-.925-.467l-1.555-1.951-.88.88a.893.893,0,0,1-1.26,0l-1.915-1.915a.9.9,0,0,1,0-1.263l3.5-3.5a.9.9,0,0,1,1.263,0l1.915,1.915a.9.9,0,0,1,0,1.263l-.88.88,1.951,1.555a1.264,1.264,0,0,1,.467.925A1.6,1.6,0,0,1,207.889,213.516Z" transform="translate(0 0)"/>
      <path id="路径_52574" data-name="路径 52574" class="cls-2" d="M431.945,657.389a.393.393,0,0,0-.555.555l.64.64a.393.393,0,0,0,.555-.555Z" transform="translate(-229.669 -447.558)"/>
    </g>
  </g>
</svg>
