<svg xmlns="http://www.w3.org/2000/svg" width="38" height="38" viewBox="0 0 38 38">
  <defs>
    <style>
      .cls-1 {
        fill: #f3f3f3;
      }

      .cls-2 {
        fill: #5a636c;
      }
    </style>
  </defs>
  <g id="组_57146" data-name="组 57146" transform="translate(-181 -464)">
    <g id="组_57143" data-name="组 57143" transform="translate(-118 274)">
      <rect id="矩形_21457" data-name="矩形 21457" class="cls-1" width="38" height="38" rx="10" transform="translate(299 190)"/>
    </g>
    <g id="组_57145" data-name="组 57145" transform="translate(124.56 408.605)">
      <path id="路径_32874" data-name="路径 32874" class="cls-2" d="M75.83,64.55,83.535,67.8a1.813,1.813,0,0,1,1.134,1.659v6.859H82.761V71.171L76.309,73.9V84.282l-.48.18a2,2,0,0,1-1.549,0l-7.707-3.253a1.813,1.813,0,0,1-1.134-1.658V69.463A1.813,1.813,0,0,1,66.574,67.8l7.707-3.253a2,2,0,0,1,1.549,0Zm-8.569,6.393V79.62l7.227,3.051V73.785l-7.227-2.842Zm7.792-4.9L67.665,69.17l7.87,3.1,7.116-2.939-7.6-3.279Z" transform="translate(0)"/>
      <path id="路径_32875" data-name="路径 32875" class="cls-2" d="M596.81,591.64a4.3,4.3,0,1,0,4.308,4.308A4.293,4.293,0,0,0,596.81,591.64Zm2.533,4.308a2.533,2.533,0,1,1-2.533-2.533A2.537,2.537,0,0,1,599.343,595.948Zm0,0" transform="translate(-514.695 -514.856)"/>
    </g>
  </g>
</svg>
