<svg xmlns="http://www.w3.org/2000/svg" xmlns:xlink="http://www.w3.org/1999/xlink" width="141.669" height="121.994" viewBox="0 0 141.669 121.994">
  <defs>
    <style>
      .cls-1 {
        opacity: 0.801;
      }

      .cls-2 {
        fill: #37bfda;
      }

      .cls-3, .cls-6 {
        fill: none;
      }

      .cls-3, .cls-5, .cls-6 {
        stroke: #37bfda;
        stroke-width: 1.6px;
      }

      .cls-3, .cls-4, .cls-6 {
        fill-rule: evenodd;
      }

      .cls-4 {
        fill: url(#linear-gradient);
      }

      .cls-5 {
        fill: url(#linear-gradient-7);
      }

      .cls-6 {
        stroke-linecap: round;
      }
    </style>
    <linearGradient id="linear-gradient" x1="1.184" y1="1.827" x2="0" y2="1.963" gradientUnits="objectBoundingBox">
      <stop offset="0" stop-color="#5ee5da"/>
      <stop offset="1" stop-color="#129cd9"/>
    </linearGradient>
    <linearGradient id="linear-gradient-7" x1="0.5" x2="0.5" y2="1" gradientUnits="objectBoundingBox">
      <stop offset="0" stop-color="#e8f1f2"/>
      <stop offset="1" stop-color="#9be4ea"/>
    </linearGradient>
  </defs>
  <g id="编辑规则" class="cls-1" transform="translate(-220 -192)">
    <g id="空白页" transform="translate(220 192)">
      <g id="浏览器打开" transform="translate(0 0)">
        <g id="分组-11" transform="translate(0 0)">
          <g id="背景_线" data-name="背景/线">
            <g id="_-" data-name="-">
              <g id="编组">
                <path id="Path-2" class="cls-2" d="M1.211,110.642a1.211,1.211,0,1,1,0-2.422H107.164a1.211,1.211,0,1,1,0,2.422Zm112,0a1.211,1.211,0,1,1,0-2.422H117a1.211,1.211,0,1,1,0,2.422Zm13.622,0a1.211,1.211,0,0,1,0-2.422h13.622a1.211,1.211,0,0,1,0,2.422ZM36.023,121.994a1.211,1.211,0,1,1,0-2.422h10.6a1.211,1.211,0,1,1,0,2.422Zm17.407,0a1.211,1.211,0,1,1,0-2.422H99.593a1.211,1.211,0,0,1,0,2.422ZM129.37,74.739a1.211,1.211,0,1,1,2.422,0V79.28a1.211,1.211,0,0,1-1.211,1.211H126.04a1.211,1.211,0,0,1,0-2.422h3.33Zm2.422,9.081a1.211,1.211,0,0,1-2.422,0V79.279a1.211,1.211,0,0,1,1.211-1.211h4.545a1.211,1.211,0,0,1,0,2.422H131.8ZM6.049,43.6a1.211,1.211,0,1,1,2.422,0v4.541A1.211,1.211,0,0,1,7.26,49.348H2.724a1.211,1.211,0,0,1,0-2.422H6.049ZM118.21,5.3H122.3a1.211,1.211,0,0,1,0,2.422H118.21v4.087a1.211,1.211,0,0,1-2.422,0V7.719H111.7a1.211,1.211,0,0,1,0-2.422h4.087V1.211a1.211,1.211,0,1,1,2.422,0ZM8.476,52.673a1.211,1.211,0,0,1-2.422,0V48.132a1.211,1.211,0,0,1,1.211-1.211h4.541a1.211,1.211,0,1,1,0,2.422H8.476Z" transform="translate(0 0)"/>
                <path id="Path复制" class="cls-2" d="M15.261,88.1a.757.757,0,1,1,1.071,1.071l-1.606,1.606a.757.757,0,0,1-1.071,0l-1.606-1.606A.757.757,0,1,1,13.12,88.1l1.07,1.071ZM13.12,92.383a.757.757,0,1,1-1.07-1.07l1.606-1.606a.757.757,0,0,1,1.071,0l1.606,1.606a.757.757,0,1,1-1.071,1.07l-1.071-1.07Zm15.5-83.5a.757.757,0,1,1,1.071,1.071l-1.606,1.61a.757.757,0,0,1-1.07,0l-1.6-1.611a.757.757,0,1,1,1.07-1.071l1.07,1.071Zm-2.14,4.279a.757.757,0,0,1-1.07-1.07l1.606-1.606a.757.757,0,0,1,1.07,0l1.606,1.606a.757.757,0,0,1-1.07,1.071l-1.071-1.071Z" transform="translate(6.07 4.441)"/>
              </g>
            </g>
          </g>
        </g>
      </g>
    </g>
    <g id="Group-6" transform="translate(262.797 221.958)">
      <g id="分组" transform="translate(0)">
        <path id="矩形" class="cls-3" d="M4.539,0H52.954a4.539,4.539,0,0,1,4.539,4.539v59a4.539,4.539,0,0,1-4.539,4.544H4.539A4.539,4.539,0,0,1,0,63.547V4.539A4.539,4.539,0,0,1,4.539,0Z" transform="translate(0)"/>
        <path id="路径复制-7" class="cls-4" d="M9,18.027V16.513C9,15.678,9.317,15,9.71,15h4.167c.391,0,.71.678.71,1.513v1.513c0,.835-.317,1.513-.71,1.513H9.71C9.317,19.541,9,18.863,9,18.027Z" transform="translate(-2.723 -2.851)"/>
        <path id="路径复制-7-2" data-name="路径复制-7" class="cls-4" d="M9,18.027V16.513C9,15.678,9.317,15,9.71,15h4.167c.391,0,.71.678.71,1.513v1.513c0,.835-.317,1.513-.71,1.513H9.71C9.317,19.541,9,18.863,9,18.027Z" transform="translate(-2.723 10.844)"/>
        <path id="路径复制-7-3" data-name="路径复制-7" class="cls-4" d="M9,18.027V16.513C9,15.678,9.317,15,9.71,15h4.167c.391,0,.71.678.71,1.513v1.513c0,.835-.317,1.513-.71,1.513H9.71C9.317,19.541,9,18.863,9,18.027Z" transform="translate(-2.723 24.539)"/>
        <path id="路径复制-7-4" data-name="路径复制-7" class="cls-4" d="M17,18.027V16.513c0-.835.317-1.513.71-1.513H52.691c.391,0,.71.678.71,1.513v1.513c0,.835-.317,1.513-.71,1.513H17.71C17.317,19.541,17,18.863,17,18.027Z" transform="translate(-1.593 -2.851)"/>
        <path id="路径复制-7-5" data-name="路径复制-7" class="cls-4" d="M17,18.027V16.513c0-.835.317-1.513.71-1.513H52.691c.391,0,.71.678.71,1.513v1.513c0,.835-.317,1.513-.71,1.513H17.71C17.317,19.541,17,18.863,17,18.027Z" transform="translate(-1.593 10.844)"/>
        <path id="路径复制-7-6" data-name="路径复制-7" class="cls-4" d="M17,18.027V16.513c0-.835.317-1.513.71-1.513H41.278c.391,0,.71.678.71,1.513v1.513c0,.835-.317,1.513-.71,1.513H17.71C17.317,19.541,17,18.863,17,18.027Z" transform="translate(-1.593 24.539)"/>
      </g>
    </g>
    <g id="组_7182" data-name="组 7182" transform="translate(307.95 248.178)">
      <path id="Path-10" class="cls-5" d="M31.5,52.068l-3.342.964a2.063,2.063,0,0,1-2.632-1.86l-.184-3.112a2.062,2.062,0,0,1,.324-1.237L42.748,20.248a2.062,2.062,0,0,1,2.853-.62l3.471,2.231a2.062,2.062,0,0,1,.62,2.853L32.659,51.2a2.061,2.061,0,0,1-1.163.866Z" transform="translate(-25.335 -19.3)"/>
      <path id="Path-11" class="cls-6" d="M33,22l5.157,3.094" transform="translate(-17.189 -16.43)"/>
    </g>
  </g>
</svg>
