<svg xmlns="http://www.w3.org/2000/svg" width="40" height="40" viewBox="0 0 40 40">
  <defs>
    <style>
      .cls-1 {
        fill: #2c8389;
      }

      .cls-2 {
        fill: #e8e9e9;
      }
    </style>
  </defs>
  <g id="组_66123" data-name="组 66123" transform="translate(-1104 -401)">
    <g id="组_66099" data-name="组 66099" transform="translate(923 -135)">
      <g id="组_57147" data-name="组 57147" transform="translate(181 536)">
        <g id="组_57143" data-name="组 57143" transform="translate(0 0)">
          <rect id="矩形_21457" data-name="矩形 21457" class="cls-1" width="40" height="40" rx="12" transform="translate(0 0)"/>
        </g>
      </g>
    </g>
    <path id="路径_52535" data-name="路径 52535" class="cls-2" d="M73.056,82.457a1.433,1.433,0,0,1-1.433-1.433V77.012a1.433,1.433,0,0,1,1.433-1.433h.287V74.26a3.725,3.725,0,0,1,7.443-.269q.007.048,0,1.586H79.075V74.116a2.009,2.009,0,0,0-4.012.143v1.32h6.019a1.433,1.433,0,0,1,1.433,1.433v4.012a1.432,1.432,0,0,1-1.433,1.433H73.056Zm7.739-4.585a.573.573,0,0,0-.573-.573H73.916a.573.573,0,0,0-.573.573v2.292a.573.573,0,0,0,.573.573h6.306a.573.573,0,0,0,.573-.573ZM63.6,76.115h5.393a.745.745,0,1,1,0,1.49H62.852a1.243,1.243,0,0,1-1.243-1.241V62.6a1.243,1.243,0,0,1,1.243-1.241H74.528A1.241,1.241,0,0,1,75.771,62.6v5.192a.745.745,0,1,1-1.49,0V63.345a.5.5,0,0,0-.5-.5H63.6a.5.5,0,0,0-.5.5V75.618a.5.5,0,0,0,.5.5ZM79.4,68.441a1,1,0,0,1-.995-1v-7.9a.663.663,0,0,0-.665-.665h-18.2a.663.663,0,0,0-.665.665V79.86a.664.664,0,0,0,.665.665h9.161a1,1,0,0,1,0,1.991H58.548a1.659,1.659,0,0,1-1.659-1.659V58.548a1.66,1.66,0,0,1,1.659-1.659H78.742A1.66,1.66,0,0,1,80.4,58.548v8.9a1,1,0,0,1-.995,1ZM65.464,64.9h6.407a.8.8,0,0,1,0,1.6H65.464a.8.8,0,1,1,0-1.6Zm0,3.2h6.407a.8.8,0,0,1,0,1.6H65.464a.8.8,0,1,1,0-1.6Zm0,3.2h4.8a.8.8,0,1,1,0,1.6h-4.8a.8.8,0,1,1,0-1.6Z" transform="translate(1054.111 351.111)"/>
  </g>
</svg>
