<svg xmlns="http://www.w3.org/2000/svg" width="20.049" height="20.049" viewBox="0 0 20.049 20.049">
  <defs>
    <style>
      .cls-1 {
        fill: #939ca5;
      }
    </style>
  </defs>
  <path id="路径_14613" data-name="路径 14613" class="cls-1" d="M131.115,142.57h12.339a2.176,2.176,0,0,0,2.2-2.227v-2.228a.735.735,0,1,1,1.469,0v2.228a3.657,3.657,0,0,1-3.672,3.713H130.528l2.718,2.748a.723.723,0,0,1,0,1.039.7.7,0,0,1-1.028,0l-3.6-3.638a.807.807,0,0,1-.22-.52.678.678,0,0,1,.22-.52l3.6-3.638a.7.7,0,0,1,1.028,0,.723.723,0,0,1,0,1.039Zm14.761-9.653H131.7a2.176,2.176,0,0,0-2.2,2.227v2.228a.734.734,0,1,1-1.469,0v-2.228a3.654,3.654,0,0,1,3.672-3.712h13.66l-2.13-2.154a.724.724,0,0,1,0-1.039.7.7,0,0,1,1.029,0l3.6,3.713a.807.807,0,0,1,.221.52.677.677,0,0,1-.221.52l-3.6,3.637a.7.7,0,0,1-1.028,0,.724.724,0,0,1,0-1.039l2.644-2.673Z" transform="translate(-128.032 -128.016)"/>
</svg>
