<svg id="图层_1" data-name="图层 1" xmlns="http://www.w3.org/2000/svg" viewBox="0 0 94.79 94.79"><defs><style>.cls-1{fill:#dcdddd;}</style></defs><path class="cls-1" d="M153.33,90a47.4,47.4,0,1,0,47.39,47.4A47.4,47.4,0,0,0,153.33,90Zm-1.49,76.47q-6.93-.33-7.27-6.28.66-6.27,7.27-6.94,6.27.67,6.94,6.94Q158.45,166.15,151.84,166.49Zm10.57-32.38q-7.92,6-7.93,11.9v3.63h-4.62v-5.29a15,15,0,0,1,3.63-9.24,17.17,17.17,0,0,0,4.3-10.91q0-11.55-7.93-11.89-6.29.68-8.59,4.3h1.32c4.18,0,6.28,1.87,6.28,5.61q-.68,5.3-6.28,5.95c-4-.44-6.17-2.75-6.6-6.94q1.31-11.55,16.51-12.88,17.17.66,18.17,12.88Q170.67,127.85,162.41,134.11Z" transform="translate(-105.93 -90.02)"/></svg>