<svg width="64" height="64" viewBox="0 0 64 64" fill="none" xmlns="http://www.w3.org/2000/svg">
<circle cx="32" cy="32" r="31.75" fill="url(#paint0_radial_15817_143418)" fill-opacity="0.05" stroke="url(#paint1_linear_15817_143418)" stroke-width="0.5"/>
<mask id="path-2-outside-1_15817_143418" maskUnits="userSpaceOnUse" x="11.9375" y="13.1875" width="40" height="38" fill="black">
<rect fill="white" x="11.9375" y="13.1875" width="40" height="38"/>
<path d="M29.885 20.8861C30.6038 20.0423 30.3225 18.7923 30.3225 18.7923L28.2288 21.8861C28.1975 21.8861 28.9788 21.9173 29.885 20.8861Z"/>
<path d="M22.8538 37.7924L23.1038 36.5424C23.1038 36.5424 22.0725 38.3549 21.9788 38.6049C21.885 38.8861 22.0413 39.3861 22.4475 39.3549C22.8538 39.3236 23.3538 38.7299 23.3538 38.2924C23.3538 37.7299 22.8538 37.7924 22.8538 37.7924Z"/>
<path d="M41.4162 17.9173C41.4162 17.9173 42.9788 17.9798 44.6038 18.1673C40.9475 15.2923 37.4787 14.4486 34.6662 14.4486C30.7912 14.4486 28.1663 16.0423 28.01 16.1361L29.2287 14.1986C29.2287 14.1986 24.3537 13.7298 22.635 18.8861C22.1975 17.7923 21.7912 16.1986 21.7912 16.1986C21.7912 16.1986 19.26 18.4173 20.4475 22.1048C17.5412 21.0423 13.385 19.5736 13.2287 19.5423C13.01 19.5111 12.9475 19.6048 12.9475 19.6048C12.9475 19.6048 12.885 19.6986 13.0725 19.8548C13.4163 20.1361 19.9788 24.9798 21.4162 25.9173C21.1037 27.0423 21.1037 27.5736 21.4162 28.1048C21.8537 28.8236 21.885 29.1986 21.8225 29.7298C21.76 30.2611 21.1975 34.8548 21.0725 35.4173C20.9475 35.9798 19.635 37.9798 19.6975 38.5736C19.76 39.1673 20.5725 41.6986 21.2913 41.9798C21.8225 42.1673 23.135 42.5736 24.01 42.5736C24.3225 42.5736 24.6038 42.5111 24.7288 42.3861C25.26 41.9173 25.4162 41.8236 25.7912 41.8236C25.8225 41.8236 25.8538 41.8236 25.885 41.8236C26.0413 41.8236 26.2288 41.8548 26.4475 41.8548C26.9475 41.8548 27.6038 41.7611 28.0725 41.3236C28.76 40.6361 29.9475 39.6986 30.3225 39.2611C30.7912 38.6673 31.0413 37.8548 30.9163 37.0423C30.8225 36.2923 31.2288 35.6361 31.6975 34.9798C32.2913 34.1986 33.385 32.7923 33.385 32.7923C35.5412 34.4173 36.885 36.8861 36.885 39.6361C36.885 44.5111 32.635 48.4486 27.385 48.4486C26.5725 48.4486 25.7912 48.3548 25.01 48.1673C27.4162 49.0111 29.4475 49.2923 31.1037 49.2923C34.635 49.2923 36.51 48.0111 36.51 48.0111C36.51 48.0111 35.8537 48.8548 34.7912 49.8236C34.8225 49.8236 34.8225 49.8236 34.8225 49.8236C40.6662 49.0111 43.51 44.1986 43.51 44.1986C43.51 44.1986 43.2912 45.7611 43.01 46.8236C50.7912 40.9798 49.4788 33.6673 49.4475 33.4173C49.51 33.5111 50.2913 34.4486 50.6975 34.9486C51.9475 22.0736 41.4162 17.9173 41.4162 17.9173ZM29.4475 38.4798C29.3225 38.6361 28.7913 39.1048 28.4163 39.4486C28.0413 39.7923 27.635 40.1361 27.3225 40.4486C27.1975 40.5736 26.9475 40.6361 26.5725 40.6361C26.4475 40.6361 26.3225 40.6361 26.2288 40.6361C26.1663 40.6361 26.1038 40.6361 26.0413 40.6361C25.9788 40.6361 25.9475 40.6361 25.9163 40.6361C25.8225 40.6361 25.7287 40.6361 25.635 40.6361C26.1037 40.0111 27.4788 38.5736 27.9475 38.2611C28.51 37.8861 28.7912 37.5111 28.4475 36.8548C28.1037 36.1986 27.1975 36.3548 27.1975 36.3548C27.1975 36.3548 27.7288 36.1361 28.1975 36.1361C27.6038 35.9798 26.8538 36.1361 26.51 36.4798C26.135 36.8236 26.1975 38.0423 26.0413 38.8236C25.885 39.6361 25.3537 40.0423 24.5412 40.7923C24.1037 41.1986 23.7913 41.3236 23.5413 41.3236C23.01 41.2298 22.385 41.0736 21.9475 40.9173C21.635 40.5111 21.1662 39.1673 21.0412 38.6048C21.135 38.2923 21.51 37.6361 21.6975 37.2611C22.0725 36.5423 22.2912 36.1361 22.3537 35.7611C22.4787 35.2298 22.885 31.9486 23.0413 30.5736C23.4475 31.1048 24.01 31.9798 23.885 32.5423C24.7913 31.2611 24.135 30.0111 23.8225 29.5111C23.5413 29.0111 23.1663 28.0111 23.4788 26.9486C23.7913 25.8861 24.9163 22.9486 24.9163 22.9486C24.9163 22.9486 25.2913 23.6048 25.8225 23.4798C26.3538 23.3548 30.635 16.9173 30.635 16.9173C30.635 16.9173 31.7913 19.4486 30.5725 21.2923C29.3225 23.1361 28.1038 23.4798 28.1038 23.4798C28.1038 23.4798 29.8225 23.7923 31.4162 22.6361C32.0725 24.1673 32.6975 25.7611 32.7288 25.9798C32.635 26.1986 31.385 29.1986 31.26 29.3861C31.1975 29.4486 30.76 29.5736 30.4475 29.6361C29.9163 29.7923 29.6038 29.8861 29.4788 29.9798C29.26 30.1673 28.26 32.9173 27.7913 34.2611C27.2288 34.4173 26.6662 34.7298 26.26 35.3548C26.4787 35.1986 27.1662 35.1048 27.6662 35.0423C28.1037 35.0111 29.4475 35.7298 29.7913 37.0736C29.7913 37.1048 29.7913 37.1048 29.7913 37.1361C29.8538 37.6361 29.6975 38.1048 29.4475 38.4798ZM26.51 38.8548C26.7913 38.4486 26.76 37.7611 26.7913 37.5423C26.8225 37.3236 26.885 36.9173 27.135 36.8548C27.385 36.7923 27.9787 36.8861 27.9787 37.3236C27.9787 37.7298 27.5413 37.8236 27.2288 38.1048C27.01 38.3236 26.5725 38.7923 26.51 38.8548ZM38.9788 32.8861C39.2913 31.2923 39.3225 29.9173 39.2287 28.7923C40.4475 30.4173 41.1975 32.3861 41.4162 34.4173C41.4475 34.6673 41.6975 34.9173 41.9475 35.1673C42.1663 35.3548 42.4163 35.6048 42.4163 35.7611C42.4163 36.4798 42.3537 37.1986 42.2287 37.9173C42.1975 38.0111 41.9162 38.1673 41.6975 38.2923C41.385 38.4486 41.1037 38.6048 41.0412 38.8548C40.3537 41.2611 38.885 43.3861 36.9162 44.8861C39.8225 41.8548 41.2288 36.8548 38.9788 32.8861ZM37.01 45.1673C39.0412 43.6048 40.6037 41.4173 41.2912 38.9486C41.3225 38.8548 41.6038 38.6986 41.7913 38.5736C42.1038 38.4173 42.4162 38.2298 42.4787 37.9798C42.6037 37.2611 42.6662 36.5111 42.6662 35.7611C42.6662 35.4798 42.385 35.1986 42.1038 34.9173C41.9475 34.7298 41.6975 34.5111 41.6975 34.3548C41.4475 32.0736 40.5413 29.9173 39.135 28.1361C38.51 24.3861 36.01 23.2298 35.9475 23.1986C36.01 23.2923 37.635 25.6361 36.51 28.3861C35.3537 31.1673 32.385 30.7298 32.135 30.7611C31.885 30.7611 30.9163 32.0111 29.6975 34.3236C29.5412 34.2611 28.885 34.1048 28.135 34.2298C28.6975 32.6673 29.5412 30.4486 29.6975 30.2611C29.76 30.1986 30.2288 30.0736 30.5413 29.9798C31.135 29.8236 31.4163 29.7298 31.51 29.6048C31.5725 29.5111 31.885 28.7923 32.1975 28.0423C32.4787 28.0423 33.1975 27.9798 33.26 27.9486C33.3225 27.8861 33.9162 26.3548 33.9162 26.1673C33.9162 26.0111 32.6975 22.9798 32.2288 21.8236C32.4475 21.5736 32.6663 21.2611 32.885 20.9173C39.2913 21.6048 44.2913 27.0423 44.2913 33.6361C44.2913 38.6986 41.3225 43.1048 37.01 45.1673Z"/>
<path d="M28.6975 28.2923C29.2913 27.6048 28.9788 26.3236 27.885 26.1048C28.1663 25.4486 28.5725 24.1361 28.5725 24.1361C28.5725 24.1361 25.385 29.1361 25.1038 29.2298C24.8225 29.3236 24.5413 28.2298 24.5413 28.2298C23.9475 30.5111 25.5413 30.8236 25.7288 30.1048C26.6038 29.8861 28.1038 28.9486 28.6975 28.2923Z"/>
</mask>
<path d="M29.885 20.8861C30.6038 20.0423 30.3225 18.7923 30.3225 18.7923L28.2288 21.8861C28.1975 21.8861 28.9788 21.9173 29.885 20.8861Z" fill="#1B314F"/>
<path d="M22.8538 37.7924L23.1038 36.5424C23.1038 36.5424 22.0725 38.3549 21.9788 38.6049C21.885 38.8861 22.0413 39.3861 22.4475 39.3549C22.8538 39.3236 23.3538 38.7299 23.3538 38.2924C23.3538 37.7299 22.8538 37.7924 22.8538 37.7924Z" fill="#1B314F"/>
<path d="M41.4162 17.9173C41.4162 17.9173 42.9788 17.9798 44.6038 18.1673C40.9475 15.2923 37.4787 14.4486 34.6662 14.4486C30.7912 14.4486 28.1663 16.0423 28.01 16.1361L29.2287 14.1986C29.2287 14.1986 24.3537 13.7298 22.635 18.8861C22.1975 17.7923 21.7912 16.1986 21.7912 16.1986C21.7912 16.1986 19.26 18.4173 20.4475 22.1048C17.5412 21.0423 13.385 19.5736 13.2287 19.5423C13.01 19.5111 12.9475 19.6048 12.9475 19.6048C12.9475 19.6048 12.885 19.6986 13.0725 19.8548C13.4163 20.1361 19.9788 24.9798 21.4162 25.9173C21.1037 27.0423 21.1037 27.5736 21.4162 28.1048C21.8537 28.8236 21.885 29.1986 21.8225 29.7298C21.76 30.2611 21.1975 34.8548 21.0725 35.4173C20.9475 35.9798 19.635 37.9798 19.6975 38.5736C19.76 39.1673 20.5725 41.6986 21.2913 41.9798C21.8225 42.1673 23.135 42.5736 24.01 42.5736C24.3225 42.5736 24.6038 42.5111 24.7288 42.3861C25.26 41.9173 25.4162 41.8236 25.7912 41.8236C25.8225 41.8236 25.8538 41.8236 25.885 41.8236C26.0413 41.8236 26.2288 41.8548 26.4475 41.8548C26.9475 41.8548 27.6038 41.7611 28.0725 41.3236C28.76 40.6361 29.9475 39.6986 30.3225 39.2611C30.7912 38.6673 31.0413 37.8548 30.9163 37.0423C30.8225 36.2923 31.2288 35.6361 31.6975 34.9798C32.2913 34.1986 33.385 32.7923 33.385 32.7923C35.5412 34.4173 36.885 36.8861 36.885 39.6361C36.885 44.5111 32.635 48.4486 27.385 48.4486C26.5725 48.4486 25.7912 48.3548 25.01 48.1673C27.4162 49.0111 29.4475 49.2923 31.1037 49.2923C34.635 49.2923 36.51 48.0111 36.51 48.0111C36.51 48.0111 35.8537 48.8548 34.7912 49.8236C34.8225 49.8236 34.8225 49.8236 34.8225 49.8236C40.6662 49.0111 43.51 44.1986 43.51 44.1986C43.51 44.1986 43.2912 45.7611 43.01 46.8236C50.7912 40.9798 49.4788 33.6673 49.4475 33.4173C49.51 33.5111 50.2913 34.4486 50.6975 34.9486C51.9475 22.0736 41.4162 17.9173 41.4162 17.9173ZM29.4475 38.4798C29.3225 38.6361 28.7913 39.1048 28.4163 39.4486C28.0413 39.7923 27.635 40.1361 27.3225 40.4486C27.1975 40.5736 26.9475 40.6361 26.5725 40.6361C26.4475 40.6361 26.3225 40.6361 26.2288 40.6361C26.1663 40.6361 26.1038 40.6361 26.0413 40.6361C25.9788 40.6361 25.9475 40.6361 25.9163 40.6361C25.8225 40.6361 25.7287 40.6361 25.635 40.6361C26.1037 40.0111 27.4788 38.5736 27.9475 38.2611C28.51 37.8861 28.7912 37.5111 28.4475 36.8548C28.1037 36.1986 27.1975 36.3548 27.1975 36.3548C27.1975 36.3548 27.7288 36.1361 28.1975 36.1361C27.6038 35.9798 26.8538 36.1361 26.51 36.4798C26.135 36.8236 26.1975 38.0423 26.0413 38.8236C25.885 39.6361 25.3537 40.0423 24.5412 40.7923C24.1037 41.1986 23.7913 41.3236 23.5413 41.3236C23.01 41.2298 22.385 41.0736 21.9475 40.9173C21.635 40.5111 21.1662 39.1673 21.0412 38.6048C21.135 38.2923 21.51 37.6361 21.6975 37.2611C22.0725 36.5423 22.2912 36.1361 22.3537 35.7611C22.4787 35.2298 22.885 31.9486 23.0413 30.5736C23.4475 31.1048 24.01 31.9798 23.885 32.5423C24.7913 31.2611 24.135 30.0111 23.8225 29.5111C23.5413 29.0111 23.1663 28.0111 23.4788 26.9486C23.7913 25.8861 24.9163 22.9486 24.9163 22.9486C24.9163 22.9486 25.2913 23.6048 25.8225 23.4798C26.3538 23.3548 30.635 16.9173 30.635 16.9173C30.635 16.9173 31.7913 19.4486 30.5725 21.2923C29.3225 23.1361 28.1038 23.4798 28.1038 23.4798C28.1038 23.4798 29.8225 23.7923 31.4162 22.6361C32.0725 24.1673 32.6975 25.7611 32.7288 25.9798C32.635 26.1986 31.385 29.1986 31.26 29.3861C31.1975 29.4486 30.76 29.5736 30.4475 29.6361C29.9163 29.7923 29.6038 29.8861 29.4788 29.9798C29.26 30.1673 28.26 32.9173 27.7913 34.2611C27.2288 34.4173 26.6662 34.7298 26.26 35.3548C26.4787 35.1986 27.1662 35.1048 27.6662 35.0423C28.1037 35.0111 29.4475 35.7298 29.7913 37.0736C29.7913 37.1048 29.7913 37.1048 29.7913 37.1361C29.8538 37.6361 29.6975 38.1048 29.4475 38.4798ZM26.51 38.8548C26.7913 38.4486 26.76 37.7611 26.7913 37.5423C26.8225 37.3236 26.885 36.9173 27.135 36.8548C27.385 36.7923 27.9787 36.8861 27.9787 37.3236C27.9787 37.7298 27.5413 37.8236 27.2288 38.1048C27.01 38.3236 26.5725 38.7923 26.51 38.8548ZM38.9788 32.8861C39.2913 31.2923 39.3225 29.9173 39.2287 28.7923C40.4475 30.4173 41.1975 32.3861 41.4162 34.4173C41.4475 34.6673 41.6975 34.9173 41.9475 35.1673C42.1663 35.3548 42.4163 35.6048 42.4163 35.7611C42.4163 36.4798 42.3537 37.1986 42.2287 37.9173C42.1975 38.0111 41.9162 38.1673 41.6975 38.2923C41.385 38.4486 41.1037 38.6048 41.0412 38.8548C40.3537 41.2611 38.885 43.3861 36.9162 44.8861C39.8225 41.8548 41.2288 36.8548 38.9788 32.8861ZM37.01 45.1673C39.0412 43.6048 40.6037 41.4173 41.2912 38.9486C41.3225 38.8548 41.6038 38.6986 41.7913 38.5736C42.1038 38.4173 42.4162 38.2298 42.4787 37.9798C42.6037 37.2611 42.6662 36.5111 42.6662 35.7611C42.6662 35.4798 42.385 35.1986 42.1038 34.9173C41.9475 34.7298 41.6975 34.5111 41.6975 34.3548C41.4475 32.0736 40.5413 29.9173 39.135 28.1361C38.51 24.3861 36.01 23.2298 35.9475 23.1986C36.01 23.2923 37.635 25.6361 36.51 28.3861C35.3537 31.1673 32.385 30.7298 32.135 30.7611C31.885 30.7611 30.9163 32.0111 29.6975 34.3236C29.5412 34.2611 28.885 34.1048 28.135 34.2298C28.6975 32.6673 29.5412 30.4486 29.6975 30.2611C29.76 30.1986 30.2288 30.0736 30.5413 29.9798C31.135 29.8236 31.4163 29.7298 31.51 29.6048C31.5725 29.5111 31.885 28.7923 32.1975 28.0423C32.4787 28.0423 33.1975 27.9798 33.26 27.9486C33.3225 27.8861 33.9162 26.3548 33.9162 26.1673C33.9162 26.0111 32.6975 22.9798 32.2288 21.8236C32.4475 21.5736 32.6663 21.2611 32.885 20.9173C39.2913 21.6048 44.2913 27.0423 44.2913 33.6361C44.2913 38.6986 41.3225 43.1048 37.01 45.1673Z" fill="#1B314F"/>
<path d="M28.6975 28.2923C29.2913 27.6048 28.9788 26.3236 27.885 26.1048C28.1663 25.4486 28.5725 24.1361 28.5725 24.1361C28.5725 24.1361 25.385 29.1361 25.1038 29.2298C24.8225 29.3236 24.5413 28.2298 24.5413 28.2298C23.9475 30.5111 25.5413 30.8236 25.7288 30.1048C26.6038 29.8861 28.1038 28.9486 28.6975 28.2923Z" fill="#1B314F"/>
<path d="M29.885 20.8861C30.6038 20.0423 30.3225 18.7923 30.3225 18.7923L28.2288 21.8861C28.1975 21.8861 28.9788 21.9173 29.885 20.8861Z" stroke="white" stroke-width="2" stroke-linejoin="round" mask="url(#path-2-outside-1_15817_143418)"/>
<path d="M22.8538 37.7924L23.1038 36.5424C23.1038 36.5424 22.0725 38.3549 21.9788 38.6049C21.885 38.8861 22.0413 39.3861 22.4475 39.3549C22.8538 39.3236 23.3538 38.7299 23.3538 38.2924C23.3538 37.7299 22.8538 37.7924 22.8538 37.7924Z" stroke="white" stroke-width="2" stroke-linejoin="round" mask="url(#path-2-outside-1_15817_143418)"/>
<path d="M41.4162 17.9173C41.4162 17.9173 42.9788 17.9798 44.6038 18.1673C40.9475 15.2923 37.4787 14.4486 34.6662 14.4486C30.7912 14.4486 28.1663 16.0423 28.01 16.1361L29.2287 14.1986C29.2287 14.1986 24.3537 13.7298 22.635 18.8861C22.1975 17.7923 21.7912 16.1986 21.7912 16.1986C21.7912 16.1986 19.26 18.4173 20.4475 22.1048C17.5412 21.0423 13.385 19.5736 13.2287 19.5423C13.01 19.5111 12.9475 19.6048 12.9475 19.6048C12.9475 19.6048 12.885 19.6986 13.0725 19.8548C13.4163 20.1361 19.9788 24.9798 21.4162 25.9173C21.1037 27.0423 21.1037 27.5736 21.4162 28.1048C21.8537 28.8236 21.885 29.1986 21.8225 29.7298C21.76 30.2611 21.1975 34.8548 21.0725 35.4173C20.9475 35.9798 19.635 37.9798 19.6975 38.5736C19.76 39.1673 20.5725 41.6986 21.2913 41.9798C21.8225 42.1673 23.135 42.5736 24.01 42.5736C24.3225 42.5736 24.6038 42.5111 24.7288 42.3861C25.26 41.9173 25.4162 41.8236 25.7912 41.8236C25.8225 41.8236 25.8538 41.8236 25.885 41.8236C26.0413 41.8236 26.2288 41.8548 26.4475 41.8548C26.9475 41.8548 27.6038 41.7611 28.0725 41.3236C28.76 40.6361 29.9475 39.6986 30.3225 39.2611C30.7912 38.6673 31.0413 37.8548 30.9163 37.0423C30.8225 36.2923 31.2288 35.6361 31.6975 34.9798C32.2913 34.1986 33.385 32.7923 33.385 32.7923C35.5412 34.4173 36.885 36.8861 36.885 39.6361C36.885 44.5111 32.635 48.4486 27.385 48.4486C26.5725 48.4486 25.7912 48.3548 25.01 48.1673C27.4162 49.0111 29.4475 49.2923 31.1037 49.2923C34.635 49.2923 36.51 48.0111 36.51 48.0111C36.51 48.0111 35.8537 48.8548 34.7912 49.8236C34.8225 49.8236 34.8225 49.8236 34.8225 49.8236C40.6662 49.0111 43.51 44.1986 43.51 44.1986C43.51 44.1986 43.2912 45.7611 43.01 46.8236C50.7912 40.9798 49.4788 33.6673 49.4475 33.4173C49.51 33.5111 50.2913 34.4486 50.6975 34.9486C51.9475 22.0736 41.4162 17.9173 41.4162 17.9173ZM29.4475 38.4798C29.3225 38.6361 28.7913 39.1048 28.4163 39.4486C28.0413 39.7923 27.635 40.1361 27.3225 40.4486C27.1975 40.5736 26.9475 40.6361 26.5725 40.6361C26.4475 40.6361 26.3225 40.6361 26.2288 40.6361C26.1663 40.6361 26.1038 40.6361 26.0413 40.6361C25.9788 40.6361 25.9475 40.6361 25.9163 40.6361C25.8225 40.6361 25.7287 40.6361 25.635 40.6361C26.1037 40.0111 27.4788 38.5736 27.9475 38.2611C28.51 37.8861 28.7912 37.5111 28.4475 36.8548C28.1037 36.1986 27.1975 36.3548 27.1975 36.3548C27.1975 36.3548 27.7288 36.1361 28.1975 36.1361C27.6038 35.9798 26.8538 36.1361 26.51 36.4798C26.135 36.8236 26.1975 38.0423 26.0413 38.8236C25.885 39.6361 25.3537 40.0423 24.5412 40.7923C24.1037 41.1986 23.7913 41.3236 23.5413 41.3236C23.01 41.2298 22.385 41.0736 21.9475 40.9173C21.635 40.5111 21.1662 39.1673 21.0412 38.6048C21.135 38.2923 21.51 37.6361 21.6975 37.2611C22.0725 36.5423 22.2912 36.1361 22.3537 35.7611C22.4787 35.2298 22.885 31.9486 23.0413 30.5736C23.4475 31.1048 24.01 31.9798 23.885 32.5423C24.7913 31.2611 24.135 30.0111 23.8225 29.5111C23.5413 29.0111 23.1663 28.0111 23.4788 26.9486C23.7913 25.8861 24.9163 22.9486 24.9163 22.9486C24.9163 22.9486 25.2913 23.6048 25.8225 23.4798C26.3538 23.3548 30.635 16.9173 30.635 16.9173C30.635 16.9173 31.7913 19.4486 30.5725 21.2923C29.3225 23.1361 28.1038 23.4798 28.1038 23.4798C28.1038 23.4798 29.8225 23.7923 31.4162 22.6361C32.0725 24.1673 32.6975 25.7611 32.7288 25.9798C32.635 26.1986 31.385 29.1986 31.26 29.3861C31.1975 29.4486 30.76 29.5736 30.4475 29.6361C29.9163 29.7923 29.6038 29.8861 29.4788 29.9798C29.26 30.1673 28.26 32.9173 27.7913 34.2611C27.2288 34.4173 26.6662 34.7298 26.26 35.3548C26.4787 35.1986 27.1662 35.1048 27.6662 35.0423C28.1037 35.0111 29.4475 35.7298 29.7913 37.0736C29.7913 37.1048 29.7913 37.1048 29.7913 37.1361C29.8538 37.6361 29.6975 38.1048 29.4475 38.4798ZM26.51 38.8548C26.7913 38.4486 26.76 37.7611 26.7913 37.5423C26.8225 37.3236 26.885 36.9173 27.135 36.8548C27.385 36.7923 27.9787 36.8861 27.9787 37.3236C27.9787 37.7298 27.5413 37.8236 27.2288 38.1048C27.01 38.3236 26.5725 38.7923 26.51 38.8548ZM38.9788 32.8861C39.2913 31.2923 39.3225 29.9173 39.2287 28.7923C40.4475 30.4173 41.1975 32.3861 41.4162 34.4173C41.4475 34.6673 41.6975 34.9173 41.9475 35.1673C42.1663 35.3548 42.4163 35.6048 42.4163 35.7611C42.4163 36.4798 42.3537 37.1986 42.2287 37.9173C42.1975 38.0111 41.9162 38.1673 41.6975 38.2923C41.385 38.4486 41.1037 38.6048 41.0412 38.8548C40.3537 41.2611 38.885 43.3861 36.9162 44.8861C39.8225 41.8548 41.2288 36.8548 38.9788 32.8861ZM37.01 45.1673C39.0412 43.6048 40.6037 41.4173 41.2912 38.9486C41.3225 38.8548 41.6038 38.6986 41.7913 38.5736C42.1038 38.4173 42.4162 38.2298 42.4787 37.9798C42.6037 37.2611 42.6662 36.5111 42.6662 35.7611C42.6662 35.4798 42.385 35.1986 42.1038 34.9173C41.9475 34.7298 41.6975 34.5111 41.6975 34.3548C41.4475 32.0736 40.5413 29.9173 39.135 28.1361C38.51 24.3861 36.01 23.2298 35.9475 23.1986C36.01 23.2923 37.635 25.6361 36.51 28.3861C35.3537 31.1673 32.385 30.7298 32.135 30.7611C31.885 30.7611 30.9163 32.0111 29.6975 34.3236C29.5412 34.2611 28.885 34.1048 28.135 34.2298C28.6975 32.6673 29.5412 30.4486 29.6975 30.2611C29.76 30.1986 30.2288 30.0736 30.5413 29.9798C31.135 29.8236 31.4163 29.7298 31.51 29.6048C31.5725 29.5111 31.885 28.7923 32.1975 28.0423C32.4787 28.0423 33.1975 27.9798 33.26 27.9486C33.3225 27.8861 33.9162 26.3548 33.9162 26.1673C33.9162 26.0111 32.6975 22.9798 32.2288 21.8236C32.4475 21.5736 32.6663 21.2611 32.885 20.9173C39.2913 21.6048 44.2913 27.0423 44.2913 33.6361C44.2913 38.6986 41.3225 43.1048 37.01 45.1673Z" stroke="white" stroke-width="2" stroke-linejoin="round" mask="url(#path-2-outside-1_15817_143418)"/>
<path d="M28.6975 28.2923C29.2913 27.6048 28.9788 26.3236 27.885 26.1048C28.1663 25.4486 28.5725 24.1361 28.5725 24.1361C28.5725 24.1361 25.385 29.1361 25.1038 29.2298C24.8225 29.3236 24.5413 28.2298 24.5413 28.2298C23.9475 30.5111 25.5413 30.8236 25.7288 30.1048C26.6038 29.8861 28.1038 28.9486 28.6975 28.2923Z" stroke="white" stroke-width="2" stroke-linejoin="round" mask="url(#path-2-outside-1_15817_143418)"/>
<path d="M21.9475 33.8232L22.9475 26.292L14.26 20.2607L22.1975 22.9482L24.0725 20.0732L30.9163 15.8232L46.01 24.1357L46.7913 36.8232L40.0725 46.167L34.76 46.9795L37.51 41.9482V37.1045L35.51 33.3232L33.4788 31.9795L30.3538 35.1982V38.6045L27.9163 40.8857L24.8225 41.2607L23.4475 42.042L21.1975 41.3232L20.26 37.9482L21.9475 35.5732V33.8232Z" fill="white"/>
<path d="M35.8225 20.1982C34.1663 19.8545 32.3538 19.9482 32.3538 19.9482C32.3538 19.9482 31.76 22.6982 28.0725 23.417C28.1038 23.417 32.9475 25.0732 35.8225 20.1982Z" fill="#94A6C3"/>
<path d="M37.3225 45.1357C39.3225 43.5732 40.8225 41.417 41.51 38.9795C41.5413 38.8857 41.8225 38.7295 42.01 38.6045C42.3225 38.417 42.635 38.2607 42.6975 38.0107C42.8225 37.292 42.885 36.542 42.885 35.792C42.885 35.5107 42.6038 35.2295 42.3225 34.9482C42.1038 34.7607 41.885 34.542 41.885 34.3857C41.5725 31.542 40.26 28.8857 38.1663 26.9482L37.9475 27.167C39.9788 29.0732 41.2913 31.667 41.5725 34.417C41.6038 34.667 41.8538 34.917 42.1038 35.167C42.3225 35.3545 42.5725 35.6357 42.5725 35.7607C42.5725 36.4795 42.51 37.1982 42.385 37.917C42.3538 38.042 42.0725 38.167 41.8538 38.292C41.5413 38.4482 41.26 38.6045 41.1975 38.8545C40.4475 41.5107 38.7288 43.8232 36.4475 45.3232C36.8538 44.4482 38.135 41.6045 38.8225 40.167L38.6975 35.542L34.7288 31.6982L32.4788 32.0107L30.01 36.0107C30.01 36.0107 31.1663 37.4795 29.5413 39.1982C27.9475 40.8857 26.6975 41.2607 26.6975 41.2607L25.5413 40.6357C25.885 40.1982 26.5725 39.542 27.1038 39.1045C28.01 38.3545 28.9163 38.292 28.9163 37.4795C28.9475 35.792 27.135 36.2607 27.135 36.2607L26.4788 36.8857L26.1975 39.1982L24.8225 40.917L24.6663 40.8857L22.4163 40.3857C22.4163 40.3857 23.7913 39.667 24.01 38.8545C24.2288 38.0732 23.5725 35.4795 23.5413 35.3232C23.5725 35.3545 24.1975 35.8857 24.4788 36.7607C24.9788 35.3857 25.635 34.0732 25.8225 33.9482C26.01 33.8232 28.5413 32.4795 28.5413 32.4795L27.6975 34.6982L28.3225 34.3545L29.8225 30.667C29.8225 30.667 31.2913 29.9482 32.385 29.9482C34.3538 29.917 37.26 27.5107 35.9475 23.1982C36.3225 23.3545 42.8225 26.6045 43.9475 32.9795C44.7913 37.8857 42.01 42.4795 37.3225 45.1357Z" fill="#94A6C3"/>
<path d="M29.885 20.8861C30.6038 20.0423 30.3225 18.7923 30.3225 18.7923L28.2288 21.8861C28.1975 21.8861 28.9788 21.9173 29.885 20.8861Z" fill="#1B314F"/>
<path d="M22.8538 37.7924L23.1038 36.5424C23.1038 36.5424 22.0725 38.3549 21.9788 38.6049C21.885 38.8861 22.0413 39.3861 22.4475 39.3549C22.8538 39.3236 23.3538 38.7299 23.3538 38.2924C23.3538 37.7299 22.8538 37.7924 22.8538 37.7924Z" fill="#1B314F"/>
<path d="M41.4162 17.9173C41.4162 17.9173 42.9788 17.9798 44.6038 18.1673C40.9475 15.2923 37.4787 14.4486 34.6662 14.4486C30.7912 14.4486 28.1663 16.0423 28.01 16.1361L29.2287 14.1986C29.2287 14.1986 24.3537 13.7298 22.635 18.8861C22.1975 17.7923 21.7912 16.1986 21.7912 16.1986C21.7912 16.1986 19.26 18.4173 20.4475 22.1048C17.5412 21.0423 13.385 19.5736 13.2287 19.5423C13.01 19.5111 12.9475 19.6048 12.9475 19.6048C12.9475 19.6048 12.885 19.6986 13.0725 19.8548C13.4163 20.1361 19.9788 24.9798 21.4162 25.9173C21.1037 27.0423 21.1037 27.5736 21.4162 28.1048C21.8537 28.8236 21.885 29.1986 21.8225 29.7298C21.76 30.2611 21.1975 34.8548 21.0725 35.4173C20.9475 35.9798 19.635 37.9798 19.6975 38.5736C19.76 39.1673 20.5725 41.6986 21.2913 41.9798C21.8225 42.1673 23.135 42.5736 24.01 42.5736C24.3225 42.5736 24.6038 42.5111 24.7288 42.3861C25.26 41.9173 25.4162 41.8236 25.7912 41.8236C25.8225 41.8236 25.8538 41.8236 25.885 41.8236C26.0413 41.8236 26.2288 41.8548 26.4475 41.8548C26.9475 41.8548 27.6038 41.7611 28.0725 41.3236C28.76 40.6361 29.9475 39.6986 30.3225 39.2611C30.7912 38.6673 31.0413 37.8548 30.9163 37.0423C30.8225 36.2923 31.2288 35.6361 31.6975 34.9798C32.2913 34.1986 33.385 32.7923 33.385 32.7923C35.5412 34.4173 36.885 36.8861 36.885 39.6361C36.885 44.5111 32.635 48.4486 27.385 48.4486C26.5725 48.4486 25.7912 48.3548 25.01 48.1673C27.4162 49.0111 29.4475 49.2923 31.1037 49.2923C34.635 49.2923 36.51 48.0111 36.51 48.0111C36.51 48.0111 35.8537 48.8548 34.7912 49.8236C34.8225 49.8236 34.8225 49.8236 34.8225 49.8236C40.6662 49.0111 43.51 44.1986 43.51 44.1986C43.51 44.1986 43.2912 45.7611 43.01 46.8236C50.7912 40.9798 49.4788 33.6673 49.4475 33.4173C49.51 33.5111 50.2913 34.4486 50.6975 34.9486C51.9475 22.0736 41.4162 17.9173 41.4162 17.9173ZM29.4475 38.4798C29.3225 38.6361 28.7913 39.1048 28.4163 39.4486C28.0413 39.7923 27.635 40.1361 27.3225 40.4486C27.1975 40.5736 26.9475 40.6361 26.5725 40.6361C26.4475 40.6361 26.3225 40.6361 26.2288 40.6361C26.1663 40.6361 26.1038 40.6361 26.0413 40.6361C25.9788 40.6361 25.9475 40.6361 25.9163 40.6361C25.8225 40.6361 25.7287 40.6361 25.635 40.6361C26.1037 40.0111 27.4788 38.5736 27.9475 38.2611C28.51 37.8861 28.7912 37.5111 28.4475 36.8548C28.1037 36.1986 27.1975 36.3548 27.1975 36.3548C27.1975 36.3548 27.7288 36.1361 28.1975 36.1361C27.6038 35.9798 26.8538 36.1361 26.51 36.4798C26.135 36.8236 26.1975 38.0423 26.0413 38.8236C25.885 39.6361 25.3537 40.0423 24.5412 40.7923C24.1037 41.1986 23.7913 41.3236 23.5413 41.3236C23.01 41.2298 22.385 41.0736 21.9475 40.9173C21.635 40.5111 21.1662 39.1673 21.0412 38.6048C21.135 38.2923 21.51 37.6361 21.6975 37.2611C22.0725 36.5423 22.2912 36.1361 22.3537 35.7611C22.4787 35.2298 22.885 31.9486 23.0413 30.5736C23.4475 31.1048 24.01 31.9798 23.885 32.5423C24.7913 31.2611 24.135 30.0111 23.8225 29.5111C23.5413 29.0111 23.1663 28.0111 23.4788 26.9486C23.7913 25.8861 24.9163 22.9486 24.9163 22.9486C24.9163 22.9486 25.2913 23.6048 25.8225 23.4798C26.3538 23.3548 30.635 16.9173 30.635 16.9173C30.635 16.9173 31.7913 19.4486 30.5725 21.2923C29.3225 23.1361 28.1038 23.4798 28.1038 23.4798C28.1038 23.4798 29.8225 23.7923 31.4162 22.6361C32.0725 24.1673 32.6975 25.7611 32.7288 25.9798C32.635 26.1986 31.385 29.1986 31.26 29.3861C31.1975 29.4486 30.76 29.5736 30.4475 29.6361C29.9163 29.7923 29.6038 29.8861 29.4788 29.9798C29.26 30.1673 28.26 32.9173 27.7913 34.2611C27.2288 34.4173 26.6662 34.7298 26.26 35.3548C26.4787 35.1986 27.1662 35.1048 27.6662 35.0423C28.1037 35.0111 29.4475 35.7298 29.7913 37.0736C29.7913 37.1048 29.7913 37.1048 29.7913 37.1361C29.8538 37.6361 29.6975 38.1048 29.4475 38.4798ZM26.51 38.8548C26.7913 38.4486 26.76 37.7611 26.7913 37.5423C26.8225 37.3236 26.885 36.9173 27.135 36.8548C27.385 36.7923 27.9787 36.8861 27.9787 37.3236C27.9787 37.7298 27.5413 37.8236 27.2288 38.1048C27.01 38.3236 26.5725 38.7923 26.51 38.8548ZM38.9788 32.8861C39.2913 31.2923 39.3225 29.9173 39.2287 28.7923C40.4475 30.4173 41.1975 32.3861 41.4162 34.4173C41.4475 34.6673 41.6975 34.9173 41.9475 35.1673C42.1663 35.3548 42.4163 35.6048 42.4163 35.7611C42.4163 36.4798 42.3537 37.1986 42.2287 37.9173C42.1975 38.0111 41.9162 38.1673 41.6975 38.2923C41.385 38.4486 41.1037 38.6048 41.0412 38.8548C40.3537 41.2611 38.885 43.3861 36.9162 44.8861C39.8225 41.8548 41.2288 36.8548 38.9788 32.8861ZM37.01 45.1673C39.0412 43.6048 40.6037 41.4173 41.2912 38.9486C41.3225 38.8548 41.6038 38.6986 41.7913 38.5736C42.1038 38.4173 42.4162 38.2298 42.4787 37.9798C42.6037 37.2611 42.6662 36.5111 42.6662 35.7611C42.6662 35.4798 42.385 35.1986 42.1038 34.9173C41.9475 34.7298 41.6975 34.5111 41.6975 34.3548C41.4475 32.0736 40.5413 29.9173 39.135 28.1361C38.51 24.3861 36.01 23.2298 35.9475 23.1986C36.01 23.2923 37.635 25.6361 36.51 28.3861C35.3537 31.1673 32.385 30.7298 32.135 30.7611C31.885 30.7611 30.9163 32.0111 29.6975 34.3236C29.5412 34.2611 28.885 34.1048 28.135 34.2298C28.6975 32.6673 29.5412 30.4486 29.6975 30.2611C29.76 30.1986 30.2288 30.0736 30.5413 29.9798C31.135 29.8236 31.4163 29.7298 31.51 29.6048C31.5725 29.5111 31.885 28.7923 32.1975 28.0423C32.4787 28.0423 33.1975 27.9798 33.26 27.9486C33.3225 27.8861 33.9162 26.3548 33.9162 26.1673C33.9162 26.0111 32.6975 22.9798 32.2288 21.8236C32.4475 21.5736 32.6663 21.2611 32.885 20.9173C39.2913 21.6048 44.2913 27.0423 44.2913 33.6361C44.2913 38.6986 41.3225 43.1048 37.01 45.1673Z" fill="#1B314F"/>
<path d="M28.6975 28.2923C29.2913 27.6048 28.9788 26.3236 27.885 26.1048C28.1663 25.4486 28.5725 24.1361 28.5725 24.1361C28.5725 24.1361 25.385 29.1361 25.1038 29.2298C24.8225 29.3236 24.5413 28.2298 24.5413 28.2298C23.9475 30.5111 25.5413 30.8236 25.7288 30.1048C26.6038 29.8861 28.1038 28.9486 28.6975 28.2923Z" fill="#1B314F"/>
<path d="M25.9788 29.5107L27.6038 26.7295C27.6038 26.7295 28.5413 27.1982 28.0725 27.9482C27.4788 28.8232 25.9788 29.5107 25.9788 29.5107Z" fill="#FFD923"/>
<path d="M46.0725 42.3857C45.6038 43.0107 45.0725 43.667 44.4475 44.292C48.4788 36.542 44.635 29.4482 44.4788 29.167C44.76 29.4482 45.0413 29.7607 45.2913 30.042C48.385 33.4795 48.76 38.6357 46.0725 42.3857Z" fill="#D82122"/>
<path d="M49.8225 32.417C48.4163 28.6357 46.4163 25.417 42.01 22.5107C37.76 19.6982 33.1975 19.917 32.9475 19.9482C32.9163 19.9482 32.885 19.9482 32.885 19.9482C33.0413 19.8857 33.1975 19.8545 33.3538 19.8232C34.3225 19.5107 35.5725 19.2607 36.8225 19.1045C40.135 18.6357 43.4788 19.7607 45.76 22.167C45.7913 22.1982 45.7913 22.1982 45.8225 22.2295C48.4163 24.9795 49.76 28.417 49.8225 32.417Z" fill="#D82122"/>
<path d="M41.01 16.9483C36.3538 16.0733 33.3538 16.5108 31.1975 17.3233C31.135 17.0733 30.9163 16.5733 30.7288 16.167C30.0725 16.9483 29.385 17.8858 28.9475 18.4795C27.76 19.292 27.26 20.0733 27.26 20.0733C27.9475 17.7295 29.9475 15.9795 32.385 15.542C33.0725 15.417 33.8225 15.3545 34.635 15.3545C36.7913 15.3858 38.9475 15.917 41.01 16.9483Z" fill="#D82122"/>
<path d="M23.7913 22.9483C20.135 22.8233 21.3538 18.5733 21.4163 18.3233C21.4163 18.3545 21.6663 21.667 23.7913 22.9483Z" fill="#D82122"/>
<path d="M27.385 15.292C24.5725 16.9795 25.135 21.0107 25.135 21.0107C22.4475 16.917 27.1663 15.3857 27.385 15.292Z" fill="#D82122"/>
<path d="M22.76 24.0732C22.9475 24.2295 23.135 24.5107 22.9163 24.917C22.7913 25.1357 22.6038 25.1045 22.3225 24.9795C21.9475 24.792 19.6975 23.4795 17.6663 22.1357C19.9788 22.9482 22.3225 23.8232 22.6975 24.0107C22.6975 24.0107 22.7288 24.042 22.76 24.0732Z" fill="white"/>
<defs>
<radialGradient id="paint0_radial_15817_143418" cx="0" cy="0" r="1" gradientUnits="userSpaceOnUse" gradientTransform="translate(32 32) rotate(90) scale(32)">
<stop stop-opacity="0"/>
<stop offset="1" stop-color="white"/>
</radialGradient>
<linearGradient id="paint1_linear_15817_143418" x1="32" y1="0" x2="32" y2="64" gradientUnits="userSpaceOnUse">
<stop stop-color="#4B4C4D"/>
<stop offset="1" stop-opacity="0"/>
</linearGradient>
</defs>
</svg>
