<svg width="64" height="64" viewBox="0 0 64 64" fill="none" xmlns="http://www.w3.org/2000/svg">
<circle cx="32" cy="32" r="31.75" fill="url(#paint0_radial)" fill-opacity="0.05" stroke="url(#paint1_linear)" stroke-width="0.5"/>
<path d="M20.3762 24.1441C20.4138 24.0668 20.4608 23.9895 20.4796 23.9036C20.6489 23.2335 20.9781 22.6237 21.2602 21.988C21.3072 21.8935 21.3636 21.8162 21.4201 21.7303C21.6646 21.3695 21.8621 20.9658 22.163 20.6479C22.5486 20.2356 22.906 19.7975 23.3103 19.4024C24.5141 18.2341 25.9342 17.3408 27.5799 16.7652C28.4075 16.4732 29.2633 16.267 30.1473 16.1296C30.9091 16.0007 31.6708 16.0093 32.4326 16.0007C33.5893 15.9835 34.6897 16.2756 35.7806 16.5677C37.1066 16.9113 38.2821 17.5383 39.373 18.2857C40.1348 18.8097 40.8025 19.4367 41.395 20.1239C41.9028 20.7081 42.3354 21.3351 42.7116 21.9966C43.0596 22.6151 43.3041 23.2765 43.5298 23.9465C43.9248 25.1319 43.9624 26.3346 43.9624 27.5543C43.953 32.0899 43.9624 36.6254 43.9624 41.161C43.9624 41.307 43.9436 41.4445 44 41.5905C43.9436 41.7451 43.9718 41.8997 43.9718 42.0629C43.9718 43.4889 43.9718 44.9234 43.9718 46.3494C43.9718 46.4782 43.9718 46.6071 43.9718 46.7359C43.9436 47.4489 43.5862 47.8269 42.8056 47.9643C42.7586 47.9729 42.7492 47.9815 42.7022 47.9901C42.5987 48.0073 42.4765 47.9987 42.3918 47.9901C41.5831 47.8097 41.2727 47.174 41.2821 46.5899C41.3009 45.4732 41.2821 44.3565 41.2727 43.2398C41.2727 42.8103 41.0846 42.4753 40.6803 42.2347C39.8715 41.7537 38.7523 42.209 38.6489 43.0938C38.6019 43.4803 38.6301 43.8669 38.6207 44.2534C38.6207 44.4939 38.6207 44.743 38.6113 44.9836C38.5831 45.5591 38.1505 46.0144 37.5298 46.1089C36.8809 46.2034 36.3824 45.9285 36.0627 45.3959C35.9875 45.267 35.9969 45.121 35.9969 44.975C35.9969 44.4853 35.9969 44.0043 35.9875 43.5147C35.9875 43.257 35.9592 42.9993 35.8558 42.7587C35.6113 42.2347 35.0376 41.977 34.3417 42.0801C33.7586 42.166 33.3636 42.5869 33.3354 43.1539C33.326 43.2999 33.3166 43.4374 33.326 43.5834C33.3824 44.1331 33.0533 44.4939 32.6019 44.7516C31.9624 45.1124 30.8245 44.7516 30.7022 44.0043C30.6458 43.6607 30.674 43.3257 30.5799 42.9821C30.4201 42.3722 30.0063 42.0629 29.3103 42.0715C28.6144 42.0801 28.1348 42.4237 28.0219 43.025C27.9467 43.4116 27.9937 43.7981 27.9843 44.1847C27.9749 44.5455 28.0031 44.8977 27.9185 45.2499C27.7304 46.023 26.5925 46.4095 25.8966 45.9371C25.5016 45.6708 25.3041 45.3186 25.3041 44.8719C25.3041 44.2964 25.2947 43.7294 25.2853 43.1539C25.2759 42.733 25.0502 42.4237 24.6552 42.209C23.8182 41.7451 22.6897 42.2949 22.6708 43.1797C22.6614 44.3565 22.6426 45.5419 22.6426 46.7273C22.6426 47.1311 22.4828 47.4317 22.1536 47.698C21.7398 48.0502 20.7994 48.0159 20.4138 47.6894C20.1975 47.5004 20.0376 47.3115 20.0282 47.028C20.0188 46.8562 20.0094 46.6844 20.0094 46.5126C20.0094 40.0185 20.0094 33.5158 20 27.0218C20 26.0769 20.094 25.1405 20.3668 24.23C20.3856 24.2042 20.3762 24.1699 20.3762 24.1441ZM34.2665 26.1971C34.2571 26.7039 34.4357 27.1678 34.7085 27.5887C35.1034 28.19 35.7523 28.4907 36.4859 28.4649C37.5298 28.4219 38.1881 27.8206 38.4796 26.953C38.7335 26.1885 38.5643 25.4841 38.1411 24.8141C37.6426 24.041 36.4201 23.7318 35.5549 24.1441C34.6332 24.5822 34.3417 25.3295 34.2665 26.1971ZM29.7712 26.1971C29.6677 25.8106 29.6583 25.3639 29.395 24.9945C29.2727 24.8313 29.1975 24.6423 29.0282 24.5049C28.0502 23.706 26.8088 23.7318 25.9436 24.7024C25.3699 25.3467 25.3135 26.1112 25.5204 26.9015C25.6426 27.3654 25.9342 27.7261 26.3197 28.0354C26.9216 28.4992 27.8245 28.6023 28.5486 28.2072C29.3668 27.7519 29.6489 27.0389 29.7712 26.1971ZM32.1411 31.626C32.5266 31.6174 32.9216 31.5229 33.2884 31.3426C33.6928 31.1364 33.9561 30.8357 34.0596 30.4234C34.1348 30.1142 33.9561 29.8908 33.5987 29.8651C33.4107 29.8565 33.2226 29.8651 33.0345 29.8908C32.395 29.9767 31.7555 29.9853 31.116 29.8822C30.8997 29.8479 30.6834 29.8479 30.4671 29.8908C30.2508 29.9338 30.1473 30.0455 30.1379 30.243C30.1191 30.5952 30.279 30.8873 30.5705 31.1106C31.0125 31.4456 31.5298 31.6346 32.1411 31.626Z" fill="url(#paint2_linear)"/>
<defs>
<radialGradient id="paint0_radial" cx="0" cy="0" r="1" gradientUnits="userSpaceOnUse" gradientTransform="translate(32 32) rotate(90) scale(32)">
<stop stop-opacity="0"/>
<stop offset="1" stop-color="white"/>
</radialGradient>
<linearGradient id="paint1_linear" x1="32" y1="0" x2="32" y2="64" gradientUnits="userSpaceOnUse">
<stop stop-color="#4B4C4D"/>
<stop offset="1" stop-opacity="0"/>
</linearGradient>
<linearGradient id="paint2_linear" x1="20.0094" y1="47.99" x2="38.9298" y2="18.9857" gradientUnits="userSpaceOnUse">
<stop stop-color="#5DB3C2"/>
<stop offset="1" stop-color="#9F619E"/>
</linearGradient>
</defs>
</svg>
