<svg width="64" height="64" viewBox="0 0 64 64" fill="none" xmlns="http://www.w3.org/2000/svg">
<circle cx="32" cy="32" r="31.75" fill="url(#paint0_radial)" fill-opacity="0.05" stroke="url(#paint1_linear)" stroke-width="0.5"/>
<path fill-rule="evenodd" clip-rule="evenodd" d="M27.2007 13.0002C26.9459 13.7471 26.7784 14.5319 26.7202 15.3375C26.5819 17.1685 26.8317 18.9924 27.4647 20.8163C27.5374 20.7576 27.6189 20.7065 27.6916 20.6554C27.0296 18.8901 26.7371 17.11 26.81 15.3374C26.839 14.5319 26.9752 13.7471 27.2007 13V13.0002ZM36.8455 13.4021C37.0071 14.0288 37.1166 14.6731 37.1463 15.3375C37.2193 17.11 36.9318 18.8903 36.2699 20.6556C36.3407 20.7053 36.4156 20.7544 36.4865 20.811C37.1181 18.9886 37.3656 17.1669 37.2203 15.3374C37.17 14.664 37.0299 14.0257 36.8455 13.4023V13.4021ZM25.0257 40.6625C24.5551 42.5638 24.5951 44.2409 25.0838 45.7177C24.7497 44.5587 24.7313 43.262 25.068 41.8205C25.9994 44.2887 28.146 45.9939 31.5295 46.9241C29.8926 46.4554 28.5178 45.7275 27.4118 44.7313C26.1603 43.596 25.3749 42.2444 25.0257 40.6625ZM38.9148 40.6625C38.5728 42.2444 37.7803 43.596 36.5287 44.7313C35.4326 45.7253 34.0536 46.4499 32.4216 46.9186C32.4211 46.9188 32.4221 46.9239 32.4216 46.9241C35.8052 45.9938 37.9538 44.2886 38.8778 41.8205C39.2458 43.3963 39.216 44.8073 38.7829 46.0447C39.3782 44.4972 39.422 42.704 38.9148 40.6625Z" fill="#FFA042"/>
<path fill-rule="evenodd" clip-rule="evenodd" d="M30.9651 20.4787C30.7323 20.5006 30.4937 20.5421 30.2682 20.5859C29.6133 20.7324 28.9878 20.9762 28.3837 21.3205C28.3473 21.3421 28.3021 21.3809 28.2728 21.3954C28.2147 21.4248 28.1791 21.4538 28.1355 21.4759C27.9032 21.6231 27.6835 21.8212 27.4598 22.0012C27.7384 22.7163 28.0684 23.4098 28.447 24.0759C28.87 24.7933 29.3393 25.4303 29.8513 26.0005L29.83 25.9254C29.7673 25.6642 29.7214 25.3992 29.6929 25.1319C29.6856 25.088 29.6717 25.0439 29.6717 24.9927C29.49 23.352 29.9319 21.8413 30.9651 20.4787ZM33.0292 20.4787C34.0624 21.8411 34.5097 23.352 34.3277 24.9927C34.3277 25.0439 34.312 25.088 34.312 25.1319C34.2828 25.3956 34.2298 25.6543 34.1642 25.9254L34.1379 26.0058C34.6721 25.4137 35.1444 24.767 35.5472 24.0759C35.9245 23.4151 36.2513 22.7195 36.5345 21.9959C36.312 21.8169 36.0949 21.6222 35.864 21.4759C35.8202 21.4539 35.7827 21.4248 35.732 21.3954C35.6956 21.3809 35.6503 21.3423 35.6212 21.3203C35.01 20.9762 34.3862 20.7324 33.7313 20.5861C33.5057 20.542 33.262 20.5006 33.0292 20.4787ZM25.0051 24.8746C24.3907 25.8842 23.8403 27.0307 23.3633 28.3646C23.6398 28.4964 23.9052 28.63 24.1816 28.74C24.645 28.9512 25.117 29.1425 25.5963 29.3135C26.5276 29.6523 27.4571 29.9007 28.3889 30.0908C27.6512 29.0476 26.9199 27.8114 26.2035 26.365C25.7558 25.5452 25.3614 25.071 25.0051 24.8746ZM38.9946 24.8746C38.6378 25.0704 38.2389 25.5442 37.7908 26.365C37.0742 27.8114 36.3431 29.0474 35.6053 30.0908C36.5373 29.9007 37.472 29.6523 38.4033 29.3135C38.8761 29.145 39.3451 28.9522 39.8179 28.74C40.087 28.63 40.3669 28.4964 40.6362 28.3646C40.1593 27.0313 39.6069 25.884 38.9946 24.8746ZM31.9997 25.8181C31.4394 25.8254 30.8933 25.8914 30.3475 26.0379L29.9937 26.1453C30.3936 26.5733 30.8137 26.9715 31.2713 27.3139C31.4914 27.0337 31.7351 26.7737 31.9997 26.5366C32.2627 26.7737 32.5047 27.0338 32.7229 27.3139C33.1806 26.9715 33.6051 26.5733 34.0058 26.1451C33.8885 26.1088 33.7677 26.0727 33.6468 26.0381C33.1012 25.8914 32.5599 25.8254 31.9997 25.8181ZM32.6307 20.7787C32.5573 20.6683 32.4796 20.5608 32.3979 20.4565C32.2743 20.4565 32.1286 20.4637 31.9977 20.4637C31.8668 20.4637 31.7284 20.4565 31.5975 20.4565C31.5158 20.5608 31.4381 20.6683 31.3646 20.7787H32.6307Z" fill="#FF0A1C"/>
<path fill-rule="evenodd" clip-rule="evenodd" d="M33.6491 25.4148C33.7728 24.6532 33.7728 23.9206 33.6418 23.2101C33.4891 22.3532 33.1545 21.5474 32.6305 20.7784H31.3645C30.8479 21.5474 30.506 22.3532 30.3604 23.2101C30.2222 23.9206 30.2222 24.6532 30.3459 25.4148C30.8861 25.276 31.4405 25.2023 31.9977 25.1951C32.5547 25.2022 33.109 25.2759 33.6491 25.4147V25.4148ZM31.9977 18.9253C31.1243 19.0718 30.5787 19.4748 30.3459 20.1484C30.5787 19.5113 31.1243 19.2111 31.9975 19.2329C32.8709 19.2111 33.4163 19.5113 33.6491 20.1484C33.4163 19.4748 32.8707 19.0718 31.9975 18.9253" fill="#FF0A1C"/>
<path fill-rule="evenodd" clip-rule="evenodd" d="M31.9975 19.2331C31.1241 19.2111 30.5785 19.5115 30.3457 20.1486C30.8908 20.0519 31.4456 20.0248 31.9973 20.068C32.549 20.0246 33.1039 20.0517 33.6489 20.1486C33.4161 19.5113 32.8705 19.2111 31.9973 19.2331H31.9975ZM27.2168 33.5156C27.6753 34.0575 28.3228 34.204 29.1595 33.9477C28.9196 33.8158 28.6066 33.706 28.2282 33.6108C27.8352 33.5228 27.5006 33.4862 27.217 33.5156" fill="#FF0A1C"/>
<path fill-rule="evenodd" clip-rule="evenodd" d="M29.1457 35.5664C28.469 35.6323 27.9451 35.5299 27.545 35.2515C28.0107 35.3101 28.4763 35.2588 28.9493 35.1123C29.4003 34.9658 29.866 34.7241 30.3243 34.3946C28.6291 34.9658 27.1738 34.7241 25.9732 33.6475C25.9222 33.6108 25.8786 33.5668 25.8351 33.5229C25.8276 33.5888 25.8276 33.6621 25.8276 33.7207C25.7332 35.0904 26.0751 35.9694 26.8392 36.3429C27.6323 36.7311 28.3962 36.4674 29.1457 35.5664ZM30.7537 35.1417C30.761 35.3101 30.8338 35.4786 30.9647 35.647C31.2485 36.0133 31.3796 36.3868 31.3577 36.7678C31.1104 36.1963 30.732 35.8448 30.2081 35.6983C29.9824 35.6397 29.7787 35.6397 29.6185 35.6836C29.393 35.7495 29.2185 35.9179 29.1094 36.1963C28.9783 36.5259 29.0148 36.8263 29.2185 37.0826C29.4368 37.3682 29.7714 37.5075 30.2372 37.5147C30.1426 37.2877 30.1426 37.0387 30.2081 36.7824L30.2152 36.7604C30.2226 36.7237 30.2372 36.7017 30.2517 36.6798C30.31 36.6213 30.4046 36.6431 30.5428 36.7457C30.6955 36.8556 30.7826 37.046 30.8193 37.3171C30.8919 38.0494 31.2923 38.4376 31.9981 38.4816C32.7109 38.4376 33.104 38.0494 33.1839 37.3171C33.213 37.046 33.3003 36.8556 33.453 36.7457C33.5912 36.6431 33.6933 36.6213 33.7441 36.6798C33.7588 36.7017 33.7732 36.7237 33.7804 36.7604L33.7877 36.7824C33.8532 37.0387 33.8532 37.2877 33.7588 37.5147C34.2244 37.5075 34.559 37.3682 34.7774 37.0826C34.9812 36.8263 35.0175 36.5259 34.8864 36.1963C34.7774 35.9179 34.61 35.7495 34.3773 35.6836C34.2169 35.6397 34.0206 35.6397 33.7877 35.6983C33.2638 35.8448 32.8856 36.1963 32.6381 36.7678C32.6163 36.3868 32.7474 36.0133 33.0311 35.647C33.162 35.4786 33.2348 35.3101 33.2493 35.1417C33.2493 34.9878 33.1838 34.8559 33.0893 34.7608C32.813 34.4898 32.4491 34.5484 31.9981 34.9439C31.5469 34.5484 31.1832 34.4898 30.9139 34.7608C30.812 34.8559 30.7537 34.9878 30.7537 35.1417ZM19.8977 30.5932C20.0432 30.5199 20.1815 30.498 20.2905 30.5126C20.4071 30.5345 20.4579 30.5932 20.4579 30.6958C20.4579 30.7982 20.4069 30.9082 20.2907 31.0253C20.1815 31.1499 20.0432 31.2451 19.8977 31.3183C19.7378 31.3916 19.6067 31.4136 19.4974 31.3916C19.3884 31.3695 19.3301 31.3183 19.3301 31.2158C19.3301 31.1132 19.3884 31.0034 19.4974 30.8788C19.6109 30.7577 19.747 30.6606 19.8977 30.5932ZM23.3684 29.6703C23.3611 29.5238 23.3538 29.3773 23.3611 29.2308C21.5639 29.1942 20.2469 29.6044 19.3884 30.476C19.0463 30.813 18.7772 31.2303 18.588 31.7211L17.853 33.5742C18.9592 32.6367 20.0795 32.1826 21.2073 32.1679C22.3352 32.1606 23.0628 32.7393 23.3902 33.8818C23.7175 35.0319 23.674 36.775 23.252 39.1039C22.6337 42.5759 22.9101 45.2053 24.0814 46.9998C24.0814 47.0072 24.0451 46.641 23.9796 45.9158C23.3902 44.7805 23.3902 42.7809 23.9578 39.9025L23.9868 39.7486C24.0231 39.5802 24.0524 39.4189 24.0887 39.2652C24.0887 39.2504 24.0887 39.2359 24.1032 39.2359L24.0814 39.2065L24.1105 39.2139C24.8818 36.3941 24.9401 34.3066 24.2634 32.959L25.7185 33.0395C25.3839 32.9297 25.071 32.7832 24.8017 32.6074C24.3144 32.2778 23.9578 31.8457 23.7175 31.2964C23.5138 30.8275 23.3902 30.2928 23.3684 29.6703Z" fill="#FF0A1C"/>
<path fill-rule="evenodd" clip-rule="evenodd" d="M24.1031 39.2357C24.1031 39.2285 24.1031 39.2285 24.1104 39.2137L24.0813 39.2065L24.1031 39.2357ZM22.7569 33.9477C22.7352 33.9038 22.7206 33.8525 22.6988 33.8012C22.6558 33.6958 22.6021 33.5952 22.5387 33.501L20.6469 36.3719C21.0253 36.5623 21.3526 36.782 21.6437 37.0385C21.8549 37.1922 22.0294 37.368 22.1895 37.5511C22.2694 37.6391 22.3422 37.7415 22.4223 37.8441C22.5169 37.9758 22.6115 38.1078 22.6841 38.2543C23.0262 36.2766 23.0553 34.8337 22.7569 33.9477ZM22.2694 38.4521C22.1893 38.3495 22.1093 38.2471 22.0366 38.1445C21.862 37.9321 21.6655 37.7415 21.4618 37.5658C21.207 37.3535 20.9381 37.1776 20.6541 37.0092L19.2791 38.8257C19.6086 39.398 19.963 39.9552 20.3413 40.4956C20.6251 40.9046 20.9236 41.3028 21.2363 41.6895C21.4255 41.9093 21.6147 42.1363 21.811 42.356C21.9275 42.4951 22.0512 42.6343 22.1821 42.7588C22.153 41.6309 22.2694 40.3638 22.5532 38.9574C22.5605 38.9429 22.5605 38.9281 22.5677 38.9135C22.4804 38.7523 22.3713 38.5914 22.2694 38.4521ZM29.7785 38.1299C29.6475 38.1006 29.5094 38.0712 29.4001 38.0493C27.7267 37.771 26.8317 38.2031 26.6933 39.3455C26.4896 41.0081 26.8318 42.268 27.7121 43.0957L27.7267 43.0738L27.763 43.0664C27.5447 42.6856 27.53 42.0702 27.7121 41.2133L28.0686 39.492C28.3378 38.7377 28.9054 38.2836 29.7785 38.1299Z" fill="#FF0A1C"/>
<path fill-rule="evenodd" clip-rule="evenodd" d="M27.815 43.1544C27.8003 43.1251 27.7781 43.0957 27.7632 43.0664L27.7263 43.0738C27.7632 43.0957 27.7929 43.1177 27.815 43.1544Z" fill="#FF0A1C"/>
<path fill-rule="evenodd" clip-rule="evenodd" d="M27.8135 43.1545C27.7916 43.1178 27.7625 43.0958 27.7262 43.0739L27.7117 43.0958C27.7262 43.1178 27.7623 43.1545 27.7917 43.1691L27.8135 43.1545ZM28.6864 40.9717V40.9204L28.4756 41.9825L28.4974 42.0118V42.019H28.4754C28.4175 43.5866 29.5961 44.8024 31.9974 45.6814C34.3984 44.8024 35.577 43.5866 35.5189 42.019H35.4969V42.0118L35.5189 41.9825L35.3077 40.9204V40.9717C35.2932 41.023 35.2932 41.0669 35.2932 41.1108C35.257 41.3232 35.1842 41.5138 35.0749 41.6823C34.784 42.0996 34.2455 42.334 33.4451 42.3781H33.3941C33.1177 42.3853 32.8559 42.3853 32.6086 42.3926V43.3008C32.6157 43.5938 32.5646 43.821 32.4628 43.9747C32.4555 43.9966 32.4482 44.0114 32.4194 44.0333C32.3754 44.0992 32.3101 44.1431 32.2374 44.1798C32.1646 44.2092 32.0918 44.2238 31.9974 44.2531C31.91 44.2238 31.83 44.2092 31.7643 44.1798C31.6844 44.1431 31.619 44.0992 31.5751 44.0333C31.5534 44.0114 31.5389 43.9966 31.5316 43.9747C31.4298 43.821 31.3789 43.5938 31.386 43.3008V42.3926C31.146 42.3853 30.8767 42.3853 30.6003 42.3781H30.5493C29.7489 42.334 29.2106 42.0996 28.9192 41.6823C28.8102 41.5138 28.7448 41.3232 28.7083 41.1108C28.7011 41.0669 28.7011 41.023 28.6864 40.9717Z" fill="#FF0A1C"/>
<path fill-rule="evenodd" clip-rule="evenodd" d="M28.4974 42.0119L28.4756 41.9825V42.0191H28.4975V42.0119H28.4974ZM35.4971 42.0193H35.5191V41.9827L35.4971 42.012V42.0193ZM31.9974 40.84H30.3019L30.7529 41.5945H33.2485L33.6924 40.84H31.9972H31.9974ZM29.8872 39.1846L29.3268 40.1734H34.6677L34.1073 39.1846H29.8872Z" fill="#FF0A1C"/>
<path fill-rule="evenodd" clip-rule="evenodd" d="M19.2424 39.6387L17.8308 42.2682C17.9399 43.0446 18.2673 43.7768 18.8277 44.4506C19.0677 44.7582 19.3733 45.0512 19.7154 45.3297C20.2541 45.7719 20.8488 46.1389 21.4835 46.4209C21.8652 46.5971 22.2622 46.7369 22.6694 46.8384C22.9096 46.8971 23.157 46.9482 23.3899 46.9849C22.7787 46.1059 22.4003 45.0219 22.2474 43.7402C22.1238 43.6303 22.0147 43.5131 21.8983 43.3886C21.629 43.1105 21.3817 42.8101 21.1342 42.5099C20.7601 42.0696 20.4149 41.6047 20.101 41.1183C19.7871 40.6422 19.5004 40.1482 19.2424 39.6387Z" fill="#E9A043"/>
<path fill-rule="evenodd" clip-rule="evenodd" d="M43.7048 30.5124C43.821 30.4978 43.9521 30.5196 44.0977 30.593C44.2484 30.6604 44.3844 30.7575 44.4977 30.8787C44.607 31.0031 44.6653 31.113 44.6653 31.2156C44.6653 31.318 44.607 31.3693 44.4977 31.3914C44.3888 31.4132 44.2577 31.3914 44.0977 31.318C43.9506 31.245 43.8175 31.1458 43.7048 31.0252C43.5884 30.908 43.5374 30.7981 43.5374 30.6955C43.5374 30.593 43.5884 30.5344 43.7048 30.5124ZM45.4074 31.721C45.2182 31.2302 44.9489 30.8126 44.607 30.4759C43.7484 29.6044 42.4314 29.1941 40.6342 29.2308C40.6414 29.3773 40.6342 29.5238 40.6269 29.6703C40.605 30.2928 40.4813 30.8274 40.2776 31.2961C40.0448 31.8455 39.6811 32.2777 39.1936 32.6072C38.9243 32.783 38.6187 32.9294 38.2766 33.0393L39.7318 32.9587C39.0552 34.3064 39.1133 36.394 39.8921 39.2139L39.9139 39.2065L39.8921 39.2359C39.9066 39.2359 39.9066 39.2505 39.9066 39.265C39.9429 39.4189 39.9792 39.58 40.0083 39.7485L40.0448 39.9023C40.605 42.7808 40.605 44.7804 40.0157 45.9157C39.9502 46.6408 39.9139 47.0069 39.9139 46.9995C41.0925 45.2051 41.3618 42.5756 40.7433 39.104C40.3213 36.7748 40.2776 35.0315 40.605 33.8817C40.9325 32.739 41.6601 32.1603 42.7878 32.1677C43.9158 32.1823 45.0363 32.6365 46.1424 33.5741L45.4074 31.721Z" fill="#FF0A1C"/>
<path fill-rule="evenodd" clip-rule="evenodd" d="M39.8923 39.2139V39.2358L39.9141 39.2067L39.8923 39.2139ZM43.6613 40.4957C44.0346 39.9535 44.3866 39.3964 44.7164 38.8258L43.341 37.0093C43.0574 37.1777 42.7881 37.3536 42.5335 37.566C42.3298 37.7416 42.1333 37.9322 41.9659 38.1446C41.8931 38.2472 41.806 38.3496 41.7331 38.4522C41.6189 38.5972 41.5166 38.7515 41.4274 38.9136C41.4346 38.9282 41.4346 38.943 41.4421 38.9576C41.7259 40.3638 41.8421 41.631 41.8205 42.7589C41.9472 42.6299 42.0686 42.4955 42.1842 42.3561C42.3806 42.1364 42.5698 41.9094 42.759 41.6895C43.0718 41.3011 43.3727 40.903 43.6613 40.4957Z" fill="#FF0A1C"/>
<path fill-rule="evenodd" clip-rule="evenodd" d="M44.7528 39.6387C44.4971 40.148 44.2129 40.642 43.9015 41.1183C43.5826 41.6031 43.2351 42.0678 42.8609 42.5099C42.6209 42.8101 42.3661 43.1105 42.0969 43.3886C41.9805 43.5131 41.8713 43.6303 41.7477 43.7402C41.595 45.0219 41.2164 46.1059 40.6052 46.9849C40.8475 46.9474 41.0879 46.8985 41.3257 46.8384C41.7329 46.7368 42.1299 46.5971 42.5116 46.4209C43.1463 46.1389 43.741 45.7719 44.2798 45.3297C44.6218 45.0512 44.9274 44.7582 45.1747 44.4506C45.7351 43.7768 46.0625 43.0446 46.1643 42.2682L44.7528 39.6387Z" fill="#E9A043"/>
<path fill-rule="evenodd" clip-rule="evenodd" d="M38.1674 33.7206C38.1674 33.6621 38.1674 33.5886 38.1602 33.5228C38.1166 33.5669 38.0728 33.6106 38.022 33.6473C36.8214 34.7241 35.3661 34.9657 33.6709 34.3944C34.1292 34.7241 34.5949 34.9657 35.046 35.1122C35.519 35.2587 35.9845 35.31 36.4503 35.2513C36.0573 35.5297 35.5262 35.6323 34.8495 35.5663C35.599 36.4672 36.3629 36.7309 37.1562 36.3427C37.9201 35.9692 38.2622 35.0902 38.1674 33.7206ZM41.2962 33.8012C41.2744 33.8525 41.2598 33.9038 41.238 33.9477C40.9397 34.8337 40.9689 36.2766 41.3108 38.2543C41.3837 38.1078 41.4781 37.9758 41.5801 37.8441C41.6528 37.7415 41.7328 37.6391 41.8129 37.5511C41.9729 37.368 42.1476 37.1922 42.3513 37.0385C42.6423 36.782 42.9697 36.5623 43.3481 36.3719L41.4563 33.501C41.3982 33.5888 41.3472 33.6912 41.2962 33.8012Z" fill="#FF0A1C"/>
<path fill-rule="evenodd" clip-rule="evenodd" d="M36.7778 33.5158C36.494 33.4865 36.1594 33.523 35.7665 33.611C35.3881 33.7062 35.0752 33.816 34.8352 33.948C35.6719 34.2042 36.3194 34.0577 36.7778 33.5158ZM34.6022 38.0495C34.4858 38.0715 34.3475 38.1008 34.2166 38.1302C35.0897 38.2839 35.6573 38.738 35.9266 39.4924L36.2903 41.2138C36.4648 42.0705 36.4503 42.6857 36.2393 43.0667L36.2685 43.074L36.2903 43.0373L36.3194 43.0667C37.178 42.2316 37.5056 40.994 37.3017 39.3459C37.1708 38.2032 36.2685 37.7711 34.6022 38.0495ZM36.181 43.1547C36.2102 43.118 36.2393 43.096 36.2685 43.074L36.2393 43.0667C36.2175 43.096 36.203 43.1253 36.181 43.1547Z" fill="#FF0A1C"/>
<path fill-rule="evenodd" clip-rule="evenodd" d="M36.2684 43.0741C36.2358 43.0968 36.2063 43.124 36.1809 43.1548L36.2101 43.1693C36.2392 43.1548 36.2684 43.1181 36.2902 43.0961L36.3193 43.0668L36.2902 43.0376L36.2684 43.0741Z" fill="#FF0A1C"/>
<path fill-rule="evenodd" clip-rule="evenodd" d="M32.6306 20.7787C32.5572 20.6683 32.4795 20.5608 32.3978 20.4565C32.2742 20.4565 32.1286 20.4637 31.9976 20.4637C31.8667 20.4637 31.7284 20.4565 31.5975 20.4565C31.5157 20.5608 31.438 20.6683 31.3645 20.7787H32.6306ZM35.7305 21.3941C35.694 21.3795 35.6502 21.3426 35.6213 21.3208C35.01 20.9765 34.3843 20.7348 33.7293 20.5883C33.5038 20.5444 33.2636 20.5005 33.031 20.4785C34.0641 21.8406 34.5081 23.3496 34.3262 24.9903C34.6971 23.6865 34.5588 22.3535 33.9258 20.9913C34.5226 20.9765 35.112 21.1084 35.7305 21.3941ZM46.1643 42.2684L44.7527 39.639C44.4971 40.1483 44.2128 40.6423 43.9013 41.1185C43.5826 41.6033 43.2352 42.068 42.8609 42.5101C42.6209 42.8105 42.3663 43.1107 42.097 43.3891C41.9879 44.8685 41.7333 46.0184 41.3257 46.839C41.7329 46.7373 42.13 46.5974 42.5117 46.4212C43.1464 46.1393 43.7411 45.7723 44.2797 45.33C44.6217 45.0518 44.9274 44.7587 45.1747 44.4512C45.7351 43.7771 46.0623 43.0448 46.1643 42.2684Z" fill="#FFA042"/>
<path fill-rule="evenodd" clip-rule="evenodd" d="M41.3257 46.8388C41.7332 46.0185 41.9879 44.8686 42.0969 43.3892C41.9805 43.5137 41.8713 43.6309 41.7477 43.7407C41.595 45.0223 41.2166 46.1063 40.6052 46.9854C40.8475 46.9477 41.0879 46.8988 41.3257 46.8388Z" fill="#FFFCAB"/>
<path fill-rule="evenodd" clip-rule="evenodd" d="M41.2963 33.8015C41.2745 33.8528 41.26 33.9041 41.2382 33.948C40.9399 34.834 40.9691 36.2769 41.311 38.2546C41.3838 38.108 41.4783 37.9761 41.5803 37.8444C41.26 36.4819 41.1654 35.1344 41.2963 33.8015ZM38.2767 33.0396L39.7319 32.959C39.0552 34.3067 39.1134 36.4016 39.8922 39.2362L39.9138 39.2068C39.3536 35.8302 39.5356 33.4645 40.4596 32.0947C40.0885 32.3741 39.6523 32.5508 39.1937 32.6075C38.9244 32.7833 38.6186 32.9297 38.2767 33.0396ZM33.6709 34.3947C34.1294 34.7242 34.5951 34.966 35.0463 35.1125C36.4724 35.171 37.4691 34.6803 38.0222 33.6476C36.8216 34.7242 35.3663 34.9659 33.6709 34.3947Z" fill="#FFA042"/>
<path fill-rule="evenodd" clip-rule="evenodd" d="M36.7779 33.5158C36.4941 33.4865 36.1595 33.523 35.7665 33.611C35.3881 33.7062 35.0753 33.816 34.8352 33.948C35.6719 34.2042 36.3195 34.0577 36.7779 33.5158ZM36.8288 39.0236C36.8288 39.0308 36.8288 39.0455 36.836 39.0601C37.0761 39.7707 37.1416 40.5104 37.018 41.2868C36.9234 41.9972 36.6761 42.5906 36.2902 43.0373L36.2686 43.074C36.2359 43.0967 36.2065 43.1239 36.1811 43.1547L36.2103 43.1693C37.1489 42.3342 37.5128 41.0671 37.3018 39.3458C37.1707 38.2034 36.2686 37.7713 34.6023 38.0495C35.8321 37.9909 36.5668 38.2912 36.8068 38.9797C36.8142 38.9943 36.8215 39.0162 36.8288 39.0236Z" fill="#FFA042"/>
<path fill-rule="evenodd" clip-rule="evenodd" d="M36.1814 43.1544C36.2106 43.1177 36.2397 43.0957 36.2689 43.0738L36.2397 43.0664C36.2179 43.0957 36.2034 43.1251 36.1814 43.1544ZM32.6089 42.3926V43.3007C32.6162 43.5938 32.5651 43.8209 32.4636 43.9746C32.689 43.7842 32.8201 43.374 32.8562 42.7441V42.7295H33.5257C33.5622 42.7221 33.591 42.7221 33.6203 42.7221L33.7367 42.7002C34.7045 42.5463 35.221 42.0189 35.2938 41.1107C35.2575 41.3231 35.1847 41.5135 35.0756 41.682C34.7845 42.0996 34.246 42.3339 33.4456 42.378H33.3946C33.1182 42.3852 32.8562 42.3852 32.6091 42.3926H32.6089ZM35.5195 42.0191V41.9826L35.4976 42.0119V42.0191H35.5195ZM41.7332 38.4521C41.619 38.5971 41.5168 38.7515 41.4275 38.9135C41.4347 38.9281 41.4347 38.9429 41.4422 38.9575C41.726 40.3638 41.8424 41.6309 41.8206 42.7588C41.9473 42.6298 42.0686 42.4954 42.1843 42.356C42.1697 41.0816 42.0243 39.8143 41.7623 38.5399L41.7332 38.4521ZM28.3815 21.3205C28.3451 21.3424 28.3014 21.3788 28.2723 21.3937C28.8835 21.1081 29.4802 20.9762 30.0696 20.9909C29.4366 22.353 29.2982 23.6863 29.6692 24.9901C29.4874 23.3494 29.9314 21.8404 30.9645 20.4782C30.7318 20.5001 30.4915 20.544 30.266 20.5879C29.6056 20.7359 28.9704 20.9828 28.3815 21.3205ZM31.9979 18.9253C31.1245 19.0718 30.5789 19.4748 30.3461 20.1484C30.5789 19.5113 31.1245 19.2111 31.9977 19.2329C32.8711 19.2111 33.4165 19.5113 33.6493 20.1484C33.4165 19.4748 32.8709 19.0718 31.9977 18.9253H31.9979ZM25.0051 24.8743C24.3919 25.8828 23.8403 27.0305 23.3633 28.3643C23.6398 28.4962 23.905 28.6295 24.1816 28.7396C24.3008 27.3552 24.6451 26.1103 25.1688 24.9762C25.1125 24.9321 25.059 24.9041 25.0051 24.8743ZM38.9946 24.8743C38.9397 24.9043 38.8826 24.9314 38.8256 24.9762C39.348 26.1101 39.6943 27.3552 39.8179 28.7396C40.0872 28.6297 40.3669 28.4962 40.6362 28.3643C40.1593 27.031 39.6079 25.8825 38.9946 24.8743ZM24.0812 29.5222C24.0812 29.5663 24.0833 29.6394 24.076 29.742C24.0687 29.8372 24.0721 29.9106 24.0866 29.9618C24.1883 31.2875 25.0541 32.1444 26.6837 32.5619C28.4664 33.038 30.239 33.2641 31.9999 33.2641C33.7607 33.2641 35.5278 33.038 37.3105 32.5619C38.9476 32.1444 39.8059 31.2875 39.9078 29.9618C39.9296 29.9106 39.9289 29.8372 39.9289 29.742C39.9183 29.6692 39.913 29.5958 39.913 29.5222C38.2188 30.1707 36.5929 30.6018 35.0141 30.8571C34.5142 31.4875 34.0118 32.0637 33.5044 32.5137C33.0533 32.77 32.5601 32.8927 31.9997 32.8781C31.4396 32.8927 30.9412 32.77 30.49 32.5137C29.9821 32.0634 29.4805 31.4882 28.9801 30.8571C27.4013 30.6016 25.7737 30.17 24.0812 29.5222ZM28.9491 35.1122C29.4001 34.9657 29.8658 34.724 30.3241 34.3944C28.6289 34.9657 27.1736 34.724 25.9731 33.6473C26.5261 34.68 27.523 35.1707 28.9491 35.1122Z" fill="#FFA042"/>
<path fill-rule="evenodd" clip-rule="evenodd" d="M29.1597 33.9478C28.9198 33.8159 28.6069 33.7061 28.2285 33.6109C27.8356 33.5229 27.501 33.4863 27.2172 33.5157C27.6755 34.0576 28.3231 34.2041 29.1598 33.9478H29.1597ZM24.263 32.959L25.7183 33.0396C25.3835 32.9297 25.0706 32.7833 24.8015 32.6075C24.3358 32.5488 23.9065 32.373 23.5426 32.0947C24.4594 33.4644 24.6414 35.83 24.081 39.2066L24.103 39.2358C24.8816 36.4013 24.9397 34.3065 24.263 32.959ZM22.7568 33.9478C22.735 33.9039 22.7205 33.8526 22.6987 33.8013C22.8369 35.1342 22.735 36.4818 22.4221 37.8442C22.5167 37.976 22.6113 38.1079 22.684 38.2544C23.0261 36.2768 23.0551 34.8339 22.7568 33.9478ZM22.5531 38.9576C22.5603 38.943 22.5603 38.9282 22.5676 38.9136C22.4803 38.7524 22.3711 38.5913 22.2693 38.4522L22.2329 38.54C21.9711 39.8144 21.8255 41.0817 21.8108 42.3561C21.9274 42.4953 22.051 42.6344 22.1819 42.7589C22.1529 41.631 22.2693 40.3637 22.5531 38.9576ZM27.1663 39.0234C27.1734 39.0161 27.1807 38.9941 27.1879 38.9795C27.4354 38.2911 28.163 37.9907 29.3999 38.0494C27.7263 37.7711 26.8315 38.2033 26.6932 39.3456C26.4822 41.0669 26.8459 42.334 27.7919 43.1691L27.8138 43.1545C27.7919 43.1178 27.7628 43.0958 27.7263 43.0739L27.7047 43.0372C27.3189 42.5905 27.0788 41.9971 26.977 41.2867C26.8533 40.5103 26.9188 39.7705 27.1589 39.06C27.1662 39.0454 27.1662 39.0306 27.1662 39.0234" fill="#FFA042"/>
<path fill-rule="evenodd" clip-rule="evenodd" d="M27.7263 43.0739C27.7626 43.0958 27.7919 43.1178 27.8135 43.1545C27.7991 43.1252 27.7772 43.0958 27.7626 43.0665L27.7263 43.0739ZM28.9196 41.6823C28.8103 41.5138 28.7448 41.3234 28.7085 41.1108C28.774 42.0192 29.2906 42.5465 30.2584 42.7004L30.3749 42.7224C30.4038 42.7224 30.4329 42.7224 30.4695 42.7296H31.1461V42.7443C31.1752 43.3743 31.3061 43.7844 31.5316 43.9749C31.4297 43.821 31.3789 43.594 31.3863 43.301V42.3928C31.1461 42.3854 30.8768 42.3854 30.6003 42.3781H30.5493C29.7491 42.3342 29.2105 42.0998 28.9195 41.6823H28.9196ZM28.4975 42.0118L28.4757 41.9825V42.019H28.4976V42.0118H28.4975Z" fill="#FFA042"/>
<path fill-rule="evenodd" clip-rule="evenodd" d="M24.0811 29.5225C25.2796 30.3896 27.0329 30.9769 29.3232 31.2915C29.2097 31.1584 29.093 30.9998 28.98 30.8573C27.4018 30.6015 25.7735 30.1702 24.0811 29.5225ZM39.9128 29.5225C38.2193 30.1706 36.5931 30.6015 35.0139 30.8573C34.9006 31.0004 34.7898 31.1633 34.6761 31.297C36.9684 30.9822 38.7195 30.3896 39.9128 29.5225Z" fill="#FFFCAB"/>
<path fill-rule="evenodd" clip-rule="evenodd" d="M19.2424 39.6387L17.8308 42.2682C17.9399 43.0446 18.2673 43.7768 18.8277 44.4506C19.0677 44.7582 19.3733 45.0512 19.7154 45.3297C20.2541 45.7719 20.8488 46.1389 21.4835 46.4209C21.8652 46.5971 22.2622 46.7369 22.6694 46.8384C22.2691 46.0181 22.0074 44.8682 21.8983 43.3886C21.629 43.1105 21.3817 42.8101 21.1342 42.5099C20.7601 42.0696 20.4149 41.6047 20.101 41.1183C19.7871 40.6422 19.5004 40.1482 19.2424 39.6387Z" fill="#FFA042"/>
<path fill-rule="evenodd" clip-rule="evenodd" d="M22.2476 43.7407C22.124 43.6307 22.0148 43.5135 21.8984 43.3892C22.0076 44.8686 22.2694 46.0185 22.6698 46.839C22.9078 46.8976 23.1481 46.9465 23.3901 46.9854C22.7789 46.1065 22.4005 45.0225 22.2476 43.7407Z" fill="#FFFCAB"/>
<path fill-rule="evenodd" clip-rule="evenodd" d="M26.1348 13.236C25.9811 13.4038 25.8314 13.5754 25.686 13.7507C23.2414 16.5704 22.6581 19.179 23.9387 21.5666C22.4834 22.387 22.2674 23.653 23.2787 25.3889C23.3593 25.188 23.4564 24.9943 23.5691 24.8099C24.3986 23.4255 25.4388 23.8167 26.7049 25.9626C27.6942 27.8083 28.6735 29.3941 29.6558 30.7124C29.6777 30.3829 29.7321 30.0623 29.8195 29.7473C29.9359 29.2714 30.1517 28.7377 30.4793 28.1445C30.5301 28.0419 30.655 27.8555 30.8224 27.6137C28.7778 26.0315 27.3205 23.7251 26.462 20.6927C25.9017 18.7225 25.664 16.9801 25.7441 15.4713C25.8022 14.812 25.9101 14.1541 26.0556 13.4877C26.0701 13.4585 26.0767 13.4508 26.0767 13.4288C26.0985 13.363 26.113 13.3017 26.1346 13.2358L26.1348 13.236ZM37.8699 13.236C37.8917 13.3021 37.9062 13.363 37.928 13.429C37.928 13.451 37.9365 13.4585 37.9439 13.4878C38.0893 14.1543 38.2076 14.8122 38.2659 15.4715C38.3458 16.9802 38.0956 18.7227 37.5427 20.6929C36.684 23.7252 35.2289 26.0317 33.1769 27.6139C33.3514 27.8556 33.4725 28.0421 33.5306 28.1447C33.8582 28.7379 34.0763 29.2716 34.1852 29.7475C34.2726 30.0625 34.3275 30.386 34.3489 30.7126C35.3309 29.3943 36.3176 27.8086 37.2998 25.9627C38.5732 23.8168 39.6114 23.4257 40.4408 24.8101C40.5535 24.9945 40.6506 25.1882 40.7312 25.3891C41.7352 23.6532 41.5159 22.387 40.0607 21.5668C41.3486 19.179 40.7689 16.5704 38.324 13.7505C38.1713 13.5748 38.0228 13.4117 37.8699 13.2358V13.236ZM31.9997 27.3727C31.3957 27.9879 30.9445 28.6341 30.6535 29.308C30.5225 29.6375 30.4366 29.9067 30.4001 30.1335C30.3274 30.5658 30.3511 30.9425 30.4529 31.2647C30.499 31.4084 30.5667 31.544 30.6536 31.6668C30.8717 31.9598 31.164 32.1373 31.5351 32.1814C31.6951 32.218 31.8544 32.2222 31.9997 32.2296C32.1451 32.2222 32.3149 32.218 32.4748 32.1814C32.8387 32.1373 33.1276 31.9598 33.3458 31.6668C33.4369 31.5458 33.5066 31.4098 33.5518 31.2647C33.6609 30.9425 33.6825 30.5658 33.6097 30.1335C33.5661 29.9067 33.4874 29.6375 33.3563 29.308C33.058 28.6341 32.6036 27.9879 31.9998 27.3727H31.9997ZM31.9997 28.5521H32.0103C32.3306 28.9036 32.5674 29.2843 32.7494 29.6725C32.7494 29.6945 32.7652 29.7096 32.7652 29.7315C32.8453 29.9074 32.8929 30.0715 32.9076 30.2033C32.973 30.5917 32.924 30.9118 32.7494 31.1682C32.662 31.2854 32.5701 31.3743 32.4537 31.4256C32.3155 31.4695 32.1821 31.506 32.0366 31.5059H31.9627C31.8172 31.5059 31.6873 31.4695 31.5562 31.4256C31.4398 31.3743 31.3479 31.2854 31.2606 31.1682C31.0859 30.9118 31.0335 30.5917 31.0917 30.2033C31.1136 30.0715 31.1614 29.9074 31.2342 29.7315C31.2415 29.7096 31.2533 29.6945 31.2606 29.6725C31.4353 29.2843 31.6723 28.9036 31.9997 28.5521Z" fill="#FFA042"/>
<path fill-rule="evenodd" clip-rule="evenodd" d="M25.7385 15.5625C25.4912 17.9355 25.7709 20.2458 26.5566 22.4941C27.0007 23.7614 27.5607 24.8929 28.2302 25.9037C28.9431 26.9949 29.6931 27.7669 30.479 28.2357C30.5298 28.1331 30.6496 27.9467 30.8168 27.7049C28.7721 26.1227 27.3204 23.8163 26.4617 20.7839C25.9015 18.8139 25.6584 17.0713 25.7385 15.5625ZM38.2603 15.5625C38.3404 17.0713 38.0955 18.8139 37.5424 20.7841C36.6839 23.8163 35.2284 26.1227 33.1766 27.7049C33.3513 27.9467 33.4666 28.1331 33.5249 28.2357C34.3035 27.7669 35.0556 26.9949 35.7686 25.9037C36.4379 24.8929 36.9981 23.7614 37.442 22.4941C38.235 20.2456 38.5076 17.9355 38.2603 15.5625ZM23.933 21.6578C22.4777 22.4783 22.2618 23.7445 23.2732 25.4801C22.5165 23.5759 23.1083 22.3912 25.0364 21.9153C24.4908 21.9297 24.1222 21.841 23.933 21.658V21.6578ZM40.0604 21.6578C39.8712 21.8409 39.5155 21.9297 38.9624 21.9151C40.8905 22.3912 41.4803 23.5761 40.7309 25.4801C41.735 23.7444 41.5157 22.4782 40.0604 21.658V21.6578ZM31.9993 27.4637C31.3954 28.0791 30.9442 28.7251 30.6531 29.399C30.5222 29.7285 30.4308 29.9975 30.3947 30.2247C30.3217 30.6568 30.3455 31.0335 30.4474 31.3559C30.2729 30.206 30.7915 29.0986 31.9993 27.9998C33.2144 29.0986 33.7278 30.206 33.5462 31.3559C33.655 31.0335 33.677 30.6568 33.6042 30.2247C33.5606 29.9975 33.4817 29.7285 33.3508 29.399C33.0523 28.7251 32.6033 28.0791 31.9993 27.4637ZM31.2339 29.8225C30.7827 30.7309 30.8307 31.3528 31.3765 31.7043C31.5615 31.8287 31.7775 31.8975 31.9993 31.9026C32.2319 31.8952 32.4352 31.8288 32.6169 31.7043C33.1698 31.3528 33.218 30.7309 32.7595 29.8225C32.8396 29.9984 32.893 30.1626 32.9073 30.2943C32.9729 30.6825 32.9235 31.0028 32.749 31.2593C32.6617 31.3764 32.5647 31.4653 32.4482 31.5166C32.3098 31.5605 32.1769 31.5971 32.0309 31.5971H31.9623C31.8169 31.5971 31.687 31.5605 31.5559 31.5166C31.4395 31.4653 31.3424 31.3764 31.255 31.2593C31.0804 31.0028 31.028 30.6825 31.0861 30.2943C31.1081 30.1626 31.1611 29.9984 31.2339 29.8225Z" fill="#FFFCAB"/>
<defs>
<radialGradient id="paint0_radial" cx="0" cy="0" r="1" gradientUnits="userSpaceOnUse" gradientTransform="translate(32 32) rotate(90) scale(32)">
<stop stop-opacity="0"/>
<stop offset="1" stop-color="white"/>
</radialGradient>
<linearGradient id="paint1_linear" x1="32" y1="0" x2="32" y2="64" gradientUnits="userSpaceOnUse">
<stop stop-color="#4B4C4D"/>
<stop offset="1" stop-opacity="0"/>
</linearGradient>
</defs>
</svg>
