<svg xmlns="http://www.w3.org/2000/svg" width="38" height="38" viewBox="0 0 38 38">
  <defs>
    <style>
      .cls-1 {
        fill: #2a424c;
      }

      .cls-2 {
        fill: #e8e9e9;
      }
    </style>
  </defs>
  <g id="组_66051" data-name="组 66051" transform="translate(-181 -468)">
    <g id="组_66050" data-name="组 66050" transform="translate(0 4)">
      <g id="组_57143" data-name="组 57143" transform="translate(-118 274)">
        <rect id="矩形_21457" data-name="矩形 21457" class="cls-1" width="38" height="38" rx="10" transform="translate(299 190)"/>
      </g>
    </g>
    <path id="路径_52002" data-name="路径 52002" class="cls-2" d="M122.92,110.547h-.7a2.865,2.865,0,0,0,.462-1.714,2.111,2.111,0,0,0-1.03-1.6,2.955,2.955,0,0,0-2.39-.3,8.835,8.835,0,0,0-4.411,3.213,8.836,8.836,0,0,0-4.411-3.213,2.949,2.949,0,0,0-2.392.3,2.112,2.112,0,0,0-1.029,1.6,2.855,2.855,0,0,0,.462,1.714h-.7a1.932,1.932,0,0,0-1.929,1.93v2.486a1.929,1.929,0,0,0,1.359,1.836,1.909,1.909,0,0,0-.116.651v7.459a1.933,1.933,0,0,0,1.93,1.93h13.658a1.932,1.932,0,0,0,1.928-1.93V117.45a1.9,1.9,0,0,0-.115-.652,1.931,1.931,0,0,0,1.356-1.835v-2.486a1.932,1.932,0,0,0-1.928-1.931m-1.241,14.917h-6.144v-8.57h6.144a.556.556,0,0,1,.555.556v7.459a.555.555,0,0,1-.555.555m-5.387-14.917a7.241,7.241,0,0,1,3.3-2.274,1.618,1.618,0,0,1,1.3.113.747.747,0,0,1,.415.574,2.624,2.624,0,0,1-.818,1.587Zm7.182,1.931v2.486a.555.555,0,0,1-.554.555h-7.385v-3.6h7.385a.555.555,0,0,1,.554.556m-9.313,4.416v8.57h-6.141a.555.555,0,0,1-.555-.555V117.45a.556.556,0,0,1,.555-.556Zm-5.775-7.934a.749.749,0,0,1,.414-.574,1.609,1.609,0,0,1,1.3-.113,7.247,7.247,0,0,1,3.3,2.274h-4.2a2.633,2.633,0,0,1-.816-1.587m-2.164,3.518a.556.556,0,0,1,.555-.556h7.384v3.6h-7.384a.555.555,0,0,1-.555-.555Z" transform="translate(85.151 370.181)"/>
  </g>
</svg>
