<svg width="64" height="64" viewBox="0 0 64 64" fill="none" xmlns="http://www.w3.org/2000/svg">
<circle cx="32" cy="32" r="31.75" fill="url(#paint0_radial)" fill-opacity="0.05" stroke="url(#paint1_linear)" stroke-width="0.5"/>
<path d="M14.0107 27.6793C13.7716 31.0525 16.621 32.4896 18.0756 32.7865C17.4977 34.0732 16.8083 37.4662 18.6733 40.7443C21.0046 44.8419 26.3846 47.7518 32.1232 47.7518C37.8618 47.7518 42.4048 44.6044 44.7959 41.2787C46.7088 38.6182 46.2704 34.4691 45.8121 32.7271C46.111 32.6678 46.7924 32.5134 47.1272 32.3708C47.5456 32.1927 51.1323 30.5893 49.6378 26.6104C48.4423 23.4273 45.035 23.5025 43.4808 23.938C43.3812 23.7005 43.1461 23.1304 43.0026 22.7503C42.1896 19.9948 38.3998 17.4056 36.6064 16.4554V14.4363L33.6774 15.5646L33.0796 13.2485C32.0275 13.3911 30.1306 15.0103 29.3137 15.8021C28.3174 16.1189 25.8585 17.0967 23.9935 18.4745C22.1285 19.8523 20.8253 22.6513 20.4069 23.8786C20.3073 23.7995 19.9645 23.6411 19.3907 23.6411C18.6733 23.6411 14.3096 23.4629 14.0107 27.6793Z" fill="#A6715E"/>
<path d="M19.9289 25.6009C20.0724 28.1664 19.1916 30.3122 18.7333 31.0645C17.6574 31.0249 15.5652 30.2924 15.8043 27.6794C16.0434 25.0665 18.6536 25.205 19.9289 25.6009Z" fill="#F7EACC"/>
<path d="M44.1984 28.9266C43.9114 27.7388 43.9194 26.2146 43.9593 25.6009C44.1187 25.502 44.6049 25.304 45.2744 25.304C46.1112 25.304 48.2034 25.8979 48.2034 28.2733C48.2034 30.1737 46.171 30.8863 45.1548 31.0051C44.9555 30.8071 44.4853 30.1143 44.1984 28.9266Z" fill="#F7EACC"/>
<path d="M23.2166 38.7252C23.2166 43.2861 28.9552 45.0993 31.8245 45.4359C36.1882 45.4359 39.6553 43.0248 40.3726 40.2693C41.2693 36.8249 39.8944 37.1218 39.8944 35.2809C39.8944 33.4399 41.7475 32.846 41.7475 29.461C41.7475 27.2044 39.5358 24.7695 36.6067 24.7695C33.6776 24.7695 33.319 26.4917 31.8843 26.4917C30.4497 26.4917 30.5094 24.7695 26.8033 24.7695C23.0971 24.7695 21.1244 29.5204 22.4395 31.6583C23.7546 33.7962 24.1731 35.2809 23.7546 36.1123C23.4199 36.7774 23.2565 38.1314 23.2166 38.7252Z" fill="#F7EACC"/>
<rect x="25.2488" y="27.7388" width="2.98885" height="3.80071" rx="1.49443" fill="#493F4D"/>
<ellipse cx="26.7432" cy="28.7485" rx="0.657547" ry="0.653246" fill="white"/>
<rect x="35.6501" y="27.7388" width="2.98885" height="3.80071" rx="1.49443" fill="#493F4D"/>
<ellipse cx="37.1446" cy="28.7485" rx="0.657547" ry="0.653246" fill="white"/>
<rect width="1.0605" height="2.31821" rx="0.530251" transform="matrix(0.502463 -0.864599 0.86744 0.497541 28.9688 34.6772)" fill="#493F4D"/>
<rect width="1.0605" height="2.31821" rx="0.530251" transform="matrix(-0.502463 -0.864599 -0.86744 0.497541 34.9661 34.6772)" fill="#493F4D"/>
<path d="M26.3012 38.5857C26.2384 38.2468 26.5153 37.9531 26.8622 37.9531H37.1453C37.4922 37.9531 37.7691 38.2468 37.7064 38.5857C37.2102 41.2666 34.8458 43.2979 32.0038 43.2979C29.1617 43.2979 26.7973 41.2666 26.3012 38.5857Z" fill="#493F4D"/>
<path d="M35.3181 42.265C34.3787 42.9162 33.2362 43.2981 32.0038 43.2981C30.7266 43.2981 29.546 42.8879 28.5879 42.1929C28.9751 40.7107 30.3309 39.6162 31.944 39.6162C33.5832 39.6162 34.9566 40.7463 35.3181 42.265Z" fill="#D76C71"/>
<defs>
<radialGradient id="paint0_radial" cx="0" cy="0" r="1" gradientUnits="userSpaceOnUse" gradientTransform="translate(32 32) rotate(90) scale(32)">
<stop stop-opacity="0"/>
<stop offset="1" stop-color="white"/>
</radialGradient>
<linearGradient id="paint1_linear" x1="32" y1="0" x2="32" y2="64" gradientUnits="userSpaceOnUse">
<stop stop-color="#4B4C4D"/>
<stop offset="1" stop-opacity="0"/>
</linearGradient>
</defs>
</svg>
