<svg xmlns="http://www.w3.org/2000/svg" xmlns:xlink="http://www.w3.org/1999/xlink" width="40" height="40" viewBox="0 0 40 40">
  <defs>
    <style>
      .cls-1 {
        fill: url(#linear-gradient);
      }

      .cls-2 {
        fill: #fff;
      }
    </style>
    <linearGradient id="linear-gradient" x1="0.5" x2="0.5" y2="1" gradientUnits="objectBoundingBox">
      <stop offset="0" stop-color="#5ee5da"/>
      <stop offset="1" stop-color="#129cd9"/>
    </linearGradient>
  </defs>
  <g id="组_66021" data-name="组 66021" transform="translate(-940 -560)">
    <g id="item-01-icon" transform="translate(940 560.158)">
      <circle id="Oval" class="cls-1" cx="20" cy="20" r="20" transform="translate(0 -0.158)"/>
    </g>
    <path id="路径_14594" data-name="路径 14594" class="cls-2" d="M102.052,96.326H86.645a.6.6,0,1,1,0-1.2h15.346l-7.343-7.343a.6.6,0,1,1,.85-.85L103.77,95.2a.6.6,0,0,1,.3.522.609.609,0,0,1-.176.455l-8.4,8.4a.6.6,0,1,1-.85-.85Z" transform="translate(864.953 483.754)"/>
  </g>
</svg>
