<svg width="64" height="64" viewBox="0 0 64 64" fill="none" xmlns="http://www.w3.org/2000/svg">
<circle cx="32" cy="32" r="31.75" fill="url(#paint0_radial_16819_224339)" fill-opacity="0.05" stroke="url(#paint1_linear_16819_224339)" stroke-width="0.5"/>
<path d="M50.3592 24.054C49.1962 23.6776 47.973 23.4969 46.8025 23.1882C44.819 21.547 42.5119 20.3123 40.2537 19.0851C39.0832 18.2344 37.8261 17.4891 36.554 16.7927C34.2694 15.5354 31.6461 14.4513 30.3025 12.0798C38.9891 11.2893 47.1262 16.4501 50.3592 24.054Z" fill="#1C677D"/>
<path d="M22.0937 49.3686C14.9616 45.4387 10.6484 36.5738 12.3834 28.187C15.511 32.2562 17.502 37.0406 19.0451 41.904C19.8619 44.4638 20.7275 47.0385 22.0937 49.3686Z" fill="#1E607F"/>
<path d="M46.0872 46.1991C43.8441 48.4238 41.074 50.1215 37.984 51.0889C34.5817 44.0987 30.5056 37.4547 25.9929 31.127C33.3848 34.8724 39.9901 40.1161 45.8991 45.8829C45.9668 45.9808 46.0157 46.105 46.0872 46.1991Z" fill="#56EEC0"/>
<path d="M37.9841 51.0889C36.2641 51.6272 34.4425 51.9396 32.5568 51.9886C29.6325 43.2216 25.0558 35.0267 19.1882 27.8896C21.4766 28.7366 23.6444 29.9224 25.8424 30.9764C26.7269 32.068 27.4683 33.2839 28.2926 34.4244C31.8944 39.7509 35.1651 45.307 37.9841 51.0889Z" fill="#49D6AC"/>
<path d="M32.5567 51.9925C32.3836 51.9963 32.2105 52.0001 32.0373 52.0001C28.9624 46.6021 25.5751 41.2455 21.2845 36.7397C18.6236 33.5626 15.5147 30.7507 12.4172 28.0065C12.6581 26.8246 13.0006 25.6765 13.441 24.5811C15.1685 25.7555 16.9525 26.8584 18.8456 27.7468C19.3876 27.8484 20.257 29.3617 20.7237 29.836C25.8762 36.4837 29.8845 44.016 32.5567 51.9925Z" fill="#2E9F9A"/>
<path d="M52 32.0039C52 33.4494 51.8457 34.8572 51.5558 36.2161C47.2013 30.5998 41.9999 25.6573 36.1887 21.5693C39.7567 21.8291 43.287 22.6384 46.8023 23.188C46.8738 23.2143 46.9491 23.2444 47.0206 23.2708C48.0933 24.0839 49.1019 25.0061 50.0767 25.9434C50.5434 26.3726 50.9687 26.8356 51.3714 27.3212C51.9322 28.7403 51.9397 30.4154 52 32.0039Z" fill="#35A9B1"/>
<path d="M51.0288 38.1814C50.0352 41.2455 48.3227 43.9821 46.0908 46.1993C43.1213 40.9029 40.1179 35.6141 37.1709 30.3027C41.8002 32.8926 46.3806 35.6066 51.0288 38.1814Z" fill="#4EDCB7"/>
<path d="M25.8498 51.0023C25.8535 51.0136 25.8573 51.0249 25.8611 51.0362C24.6341 50.5431 22.7485 50.065 21.9205 49.0826C20.6709 46.8165 19.8241 44.3659 19.045 41.9078C17.4981 37.0406 15.5109 32.2525 12.3833 28.187C12.3946 28.1268 12.4059 28.0666 12.4209 28.0063C15.5222 30.7505 18.631 33.5624 21.2882 36.7395C22.5227 39.0959 23.648 41.4975 24.2615 44.1024C24.412 44.6181 24.5061 45.1715 24.7131 45.6608C24.7244 45.721 24.7357 45.785 24.7508 45.8453C24.7244 45.8716 24.7244 45.898 24.7545 45.9243C25.1008 47.6145 25.575 49.2896 25.8498 51.0023Z" fill="#29809A"/>
<path d="M51.5559 36.2162C51.4655 36.6378 51.3602 37.0556 51.2435 37.4659C44.6006 32.3804 37.5512 27.6411 32.0863 21.2306C32.075 21.2042 32.06 21.1816 32.0449 21.1553C33.1251 21.2004 34.2015 21.3585 35.2817 21.4376C35.5075 21.4489 35.7333 21.543 35.9629 21.4564C41.9133 25.4767 47.1335 30.566 51.5559 36.2162Z" fill="#3ACBA5"/>
<path d="M32.0373 51.9966C29.9108 52.0003 27.8558 51.6691 25.9326 51.0555C25.6127 49.3691 25.3492 47.5698 24.7508 45.9888C24.7508 45.9662 24.7508 45.9399 24.7508 45.9173C24.7771 45.8909 24.7771 45.8646 24.747 45.8382C24.7357 45.778 24.7207 45.714 24.7094 45.6538C24.5061 45.1644 24.412 44.6111 24.2577 44.0954C23.6443 41.4905 22.5189 39.0889 21.2844 36.7324C25.575 41.242 28.9623 46.5986 32.0373 51.9966Z" fill="#35A9B1"/>
<path d="M51.2474 37.4663C51.1796 37.7072 51.1081 37.9444 51.0291 38.1815C46.3546 35.5277 41.6086 32.9115 37.0169 30.1485C35.4963 27.1296 33.6258 24.2386 32.0864 21.231C37.5513 27.6415 44.6044 32.3808 51.2474 37.4663Z" fill="#34D5AE"/>
<path d="M50.3591 24.054C50.8296 25.1417 51.2097 26.2821 51.4845 27.4601C50.1747 25.8944 48.6128 24.5282 47.0208 23.2749C48.1423 23.4593 49.2601 23.7378 50.3591 24.054Z" fill="#29809A"/>
<path d="M45.8992 45.8832C39.9902 40.1201 33.3849 34.8765 25.9931 31.1273C23.0235 27.0844 19.8846 23.1206 16.4446 19.458C17.0242 18.739 17.6565 18.0577 18.3302 17.4253C20.0878 20.5384 23.4112 22.2699 26.3393 24.1107C29.8772 26.2902 33.6484 28.1271 37.1712 30.2991C40.0429 35.5127 43.0162 40.6735 45.8992 45.8832Z" fill="#5DF2CF"/>
<path d="M37.0169 30.1482C33.4489 28.1493 29.8471 26.2107 26.3355 24.114C23.4074 22.2733 20.0841 20.5417 18.3264 17.4287C18.7404 17.0372 19.1732 16.6645 19.6211 16.3145C20.7465 17.5454 22.0111 18.7349 23.5843 19.3522C26.2904 20.3761 29.1696 20.9182 32.045 21.1591C33.5995 24.1893 35.4851 27.1029 37.0169 30.1482Z" fill="#36DEBB"/>
<path d="M35.9628 21.4569C35.7332 21.5435 35.5074 21.4493 35.2815 21.4381C34.8148 21.4117 34.3519 21.3477 33.889 21.3063C31.1377 21.1068 28.3827 20.8207 25.7218 20.0528C23.2189 19.4656 21.2882 18.2648 19.6208 16.3111C20.9758 15.2383 22.4737 14.3386 24.0808 13.646C25.2476 14.1768 26.4519 14.6285 27.645 15.1028C30.3135 17.3312 33.1889 19.3526 35.9628 21.4569Z" fill="#25C99F"/>
<path d="M25.8422 30.9767C23.6443 29.9189 21.4764 28.737 19.1881 27.89C17.4492 26.1396 15.8685 24.2085 14.6716 22.0441C15.1948 21.1369 15.7894 20.2711 16.4406 19.458C19.8053 23.0905 22.9856 26.9339 25.8422 30.9767Z" fill="#51E2BE"/>
<path d="M40.2495 19.0888C36.1735 17.2217 31.8114 16.0209 27.4605 15.0196C26.9788 14.3421 26.5347 13.6306 26.1997 12.8702C27.5132 12.4712 28.887 12.204 30.3021 12.0835C31.1602 13.608 32.5867 14.6319 34.0884 15.4601C36.1622 16.6307 38.3338 17.6697 40.2495 19.0888Z" fill="#29809A"/>
<path d="M19.0979 27.817C17.0843 27.0078 15.2552 25.7657 13.4448 24.5764C13.7948 23.6995 14.2089 22.8526 14.6755 22.0435C15.8385 24.185 17.4193 26.0593 19.0979 27.817Z" fill="#22B2A9"/>
<path d="M27.4609 15.0156C26.3168 14.6054 25.1914 14.1349 24.0774 13.6419C24.7661 13.3445 25.4737 13.0849 26.2001 12.8628C26.5351 13.6306 26.9792 14.3419 27.4609 15.0156Z" fill="#2E9F9A"/>
<path d="M27.6414 15.1025C31.9658 15.9721 36.2263 17.2934 40.2497 19.0889C42.5079 20.3161 44.8151 21.5508 46.7985 23.192C43.2832 22.6424 39.7529 21.8368 36.1849 21.5733C33.2831 19.5218 30.4001 17.3498 27.6414 15.1025Z" fill="#2E9F9A"/>
<path d="M21.2885 36.7359C21.2734 36.7096 21.2621 36.6832 21.2471 36.6606C21.2584 36.687 21.2734 36.7133 21.2885 36.7359Z" fill="#35A9B1"/>
<path d="M25.9364 51.0581C25.9101 51.0506 25.8837 51.0431 25.8612 51.0318C25.5638 49.3381 25.1498 47.667 24.7546 45.9922C25.3493 47.5729 25.6128 49.372 25.9364 51.0581Z" fill="#2E9F9A"/>
<path d="M24.7471 45.8418C24.7772 45.8644 24.781 45.8907 24.7509 45.9208C24.7207 45.8983 24.7208 45.8719 24.7471 45.8418Z" fill="#2E9F9A"/>
<path d="M24.6719 45.6196C24.6832 45.6347 24.6945 45.646 24.7095 45.661C24.6982 45.646 24.6832 45.6309 24.6719 45.6196Z" fill="#2E9F9A"/>
<defs>
<radialGradient id="paint0_radial_16819_224339" cx="0" cy="0" r="1" gradientUnits="userSpaceOnUse" gradientTransform="translate(32 32) rotate(90) scale(32)">
<stop stop-opacity="0"/>
<stop offset="1" stop-color="white"/>
</radialGradient>
<linearGradient id="paint1_linear_16819_224339" x1="32" y1="0" x2="32" y2="64" gradientUnits="userSpaceOnUse">
<stop stop-color="#4B4C4D"/>
<stop offset="1" stop-opacity="0"/>
</linearGradient>
</defs>
</svg>
