<svg width="64" height="64" viewBox="0 0 64 64" fill="none" xmlns="http://www.w3.org/2000/svg">
<circle cx="32" cy="32" r="31.75" fill="url(#paint0_radial_16369_121472)" fill-opacity="0.05" stroke="url(#paint1_linear_16369_121472)" stroke-width="0.5"/>
<path d="M31.3871 50L32.2223 43.7209L33.4751 50H42.2442C44.9167 45.3116 45.0281 39.6744 44.7497 37.4419L42.6618 34.9302C47.6727 37.0233 50.1782 36.186 47.2551 33.2558C45.4102 31.4064 44.7497 29.7674 44.7497 29.0698C44.7497 24.0465 42.2442 14 32.2224 14C21.3653 14 20.1127 25.7209 20.1127 29.0698C20.1127 32.4186 15.9368 33.6744 15.5193 35.7674C15.1852 37.4419 19.2775 35.907 21.3653 34.9302L19.695 36.6047C19.695 44.9767 21.9221 49.0233 23.0356 50H31.3871Z" fill="white"/>
<path d="M20.6146 44.9129C21.3172 45.1799 22.267 45.3953 23.4533 45.3953C26.3763 45.3953 28.0466 43.3023 26.3763 40.3721C24.706 37.4419 24.706 35.7674 24.706 34.093C24.706 33.4631 25.1788 32.6556 25.7686 31.648C26.7466 29.9771 28.0466 27.7562 28.0466 24.8837C28.0466 20.2791 28.0466 17.3488 32.2224 17.3488C36.3982 17.3488 36.3982 19.8605 36.3982 21.5349C36.3982 21.6751 36.3952 21.827 36.3921 21.991C36.3575 23.7848 36.2953 27.0138 39.7388 32C42.0871 35.4004 40.5224 37.0029 39.018 38.5437C38.1148 39.4688 37.2333 40.3716 37.2333 41.6279C37.2333 44.4155 40.4161 46.333 44.1324 44.9657C44.937 41.4837 44.9164 38.0968 44.7303 36.6047L42.6618 34.9302C47.6727 37.0233 50.1782 36.186 47.2551 33.2558C45.4102 31.4064 44.7497 29.7674 44.7497 29.0698C44.7497 24.0465 42.2442 14 32.2224 14C21.3653 14 20.1127 25.7209 20.1127 29.0698C20.1127 31.0189 18.6981 32.259 17.4332 33.3678C16.5249 34.1641 15.6938 34.8926 15.5193 35.7674C15.1852 37.4419 19.2775 35.907 21.3653 34.9302L19.695 36.6047C19.695 40.096 20.0823 42.835 20.6146 44.9129Z" fill="#A9B3C7"/>
<ellipse cx="25.959" cy="24.8836" rx="1.25273" ry="0.837209" fill="black"/>
<ellipse cx="38.4861" cy="24.8836" rx="1.25273" ry="0.837209" fill="black"/>
<ellipse cx="32.2223" cy="26.9766" rx="2.50545" ry="2.93023" fill="#E6380D"/>
<ellipse cx="32.2027" cy="28.2325" rx="2.50545" ry="1.67442" fill="#F57743"/>
<ellipse cx="32.2223" cy="22.7906" rx="2.50545" ry="2.93023" fill="white"/>
<defs>
<radialGradient id="paint0_radial_16369_121472" cx="0" cy="0" r="1" gradientUnits="userSpaceOnUse" gradientTransform="translate(32 32) rotate(90) scale(32)">
<stop stop-opacity="0"/>
<stop offset="1" stop-color="white"/>
</radialGradient>
<linearGradient id="paint1_linear_16369_121472" x1="32" y1="0" x2="32" y2="64" gradientUnits="userSpaceOnUse">
<stop stop-color="#4B4C4D"/>
<stop offset="1" stop-opacity="0"/>
</linearGradient>
</defs>
</svg>
