<svg width="64" height="64" viewBox="0 0 64 64" fill="none" xmlns="http://www.w3.org/2000/svg">
<circle cx="32" cy="32" r="31.75" fill="url(#paint0_radial_16369_121417)" fill-opacity="0.05" stroke="url(#paint1_linear_16369_121417)" stroke-width="0.5"/>
<g clip-path="url(#clip0_16369_121417)">
<path d="M14.9968 29.833C16.1023 30.9675 18.3717 33.2745 18.6053 33.4267L20.5869 35.0755L36.4183 26.8313L42.7176 20.3838L45.9715 18.3756C45.5334 17.7414 44.5698 16.3885 44.2194 16.0503C43.8689 15.7121 42.2378 15.092 41.4661 14.8242L38.9422 15.2047C38.24 16.0362 36.7521 17.7457 36.4183 17.9317C36.0846 18.1177 36.2793 20.5318 36.4183 21.7156C35.8969 22.3075 34.7205 23.4913 34.1865 23.4913H30.3277C28.8676 24.1184 25.7764 25.3727 25.0923 25.3727C24.4081 25.3727 23.0968 25.9787 22.5267 26.2816L21.004 25.3727C19.9611 25.4572 17.7918 25.639 17.4581 25.6897C17.1244 25.7405 16.2066 26.4719 15.7894 26.8313L14.9968 29.833Z" fill="#F4F0ED"/>
<path d="M25.1758 39.2611L25.6972 38.2041L33.686 42.897L31.329 44.6515H27.7414L25.9684 42.897L25.1758 39.2611Z" fill="#EAE1DA"/>
<path d="M25.2385 40.5294V37.9927L21.8803 35.9634C21.5257 37.3163 20.7957 40.1236 20.7123 40.5294C20.6288 40.9353 21.9568 43.4185 22.6312 44.6093C23.688 45.7085 25.8809 47.9577 26.198 48.1607C26.5943 48.4143 29.7022 48.7314 30.1611 48.8371C30.62 48.9428 33.0812 48.1184 33.269 47.907C33.4192 47.7379 35.3757 47.1319 36.3351 46.85L36.8357 44.6093L34.2285 43.0873L31.7672 44.2922L27.9501 44.6093L26.4483 43.0873L25.2385 40.5294Z" fill="#FFF0D9"/>
<path d="M20.3991 26.4508C16.5278 28.4294 17.0617 31.5876 17.8127 32.9194L41.2157 48.0339L43.9482 48.7315H46.326L48.6621 46.7655V42.7914L45.888 39.7473L45.45 37.8659L45.1371 35.3292L43.9482 30.6786L41.6955 27.8037L42.1126 26.1548L45.1371 23.0262L46.0757 19.4326C45.7489 18.5729 44.5322 16.8917 42.2795 17.0439C39.4636 17.2341 38.7127 20.4684 38.6084 21.0392C38.5041 21.6099 38.817 22.688 38.2747 23.7872C37.8408 24.6666 36.7173 24.661 36.2097 24.5483C30.8283 24.1889 27.4075 26.937 26.5732 27.4655C25.9057 27.8882 24.7793 26.9652 24.2996 26.4508H20.3991Z" fill="#EBAC3D"/>
<path d="M44.8452 40.2971C45.1456 44.3728 42.5508 46.0822 41.2159 46.4275C41.786 46.9207 42.9513 47.9326 43.0514 48.0341C43.1766 48.1609 46.0967 47.9072 46.3262 47.9072C46.5097 47.9072 47.3622 46.9207 47.7654 46.4275L48.2869 44.9689L47.536 42.3688L45.4501 39.7475L44.5949 36.8303L43.7398 31.4187L40.8613 28.3535C41.4662 30.404 41.0699 33.0887 40.8613 34.1879C40.6527 35.2872 40.5484 36.3864 41.8625 36.8303C42.9138 37.1855 43.552 38.1339 43.7398 38.5637L44.8452 40.2971Z" fill="#E38432"/>
<path fill-rule="evenodd" clip-rule="evenodd" d="M15.9981 33.4269L20.6286 36.1538C20.3505 36.781 19.8277 38.5975 19.9612 40.8467C20.128 43.6582 23.0482 50 29.2223 50C34.1615 50 36.9955 47.4069 37.7951 46.1104L38.3582 46.4698C39.7001 47.4563 42.8636 49.4292 44.7826 49.4292C47.1813 49.4292 49.872 47.2519 49.6843 44.1867C49.5036 41.2361 47.4287 40.1072 46.6226 39.6687C46.5913 39.6517 46.562 39.6357 46.5347 39.6207C46.4681 39.584 46.4058 39.5512 46.3477 39.5207C45.7692 39.2162 45.6056 39.1301 45.7004 37.6124C45.8047 35.9425 45.4501 34.0188 44.866 31.926C44.5425 30.7669 44.0335 30.0617 43.5799 29.4333C43.2145 28.9272 42.8851 28.4708 42.7176 27.8673C42.3422 26.5144 43.4268 25.69 44.0734 25.394C44.72 25.0981 46.2844 23.6606 46.8267 22.202C47.369 20.7434 47.3899 18.3124 45.9715 16.3887C44.5532 14.4651 42.5299 14 40.5066 14C38.4834 14 36.189 16.2408 35.6049 17.805C35.2386 18.7861 35.2333 19.551 35.2289 20.1988V20.1988C35.2262 20.5839 35.2238 20.9276 35.146 21.2507C34.9375 22.1174 33.9154 22.7728 33.5191 22.6882C33.202 22.6206 32.3719 22.5614 31.9964 22.5402C30.5592 22.5402 29.7369 22.6861 29.3948 22.7468C29.305 22.7627 29.2483 22.7728 29.2223 22.7728C26.2687 23.3964 24.9085 24.3061 23.9319 24.9594L23.8825 24.9924C22.9022 25.6477 22.5476 25.7745 21.463 24.9078C20.3783 24.0411 15.8312 22.9419 14.1417 26.9794C12.7901 30.2095 14.8161 32.6236 15.9981 33.4269ZM17.1454 31.7358C16.5058 31.3553 15.3475 30.1208 15.8314 28.2267C16.4363 25.8591 18.9184 26.0916 19.1687 26.1339C19.419 26.1762 19.9405 26.2819 20.7748 26.9583C21.6091 27.6348 23.2152 27.8885 24.571 26.9583C25.9268 26.0282 28.4298 24.485 31.1622 24.5696C31.7318 24.5872 32.1954 24.6159 32.5863 24.64C34.0708 24.7318 34.5085 24.7588 35.7302 23.872C37.2737 22.7516 37.232 20.7646 37.2112 20.3629C37.1903 19.9613 37.2112 16.8538 40.2148 16.0717C43.2184 15.2895 44.9705 17.7839 45.0956 19.0734C45.2208 20.3629 45.3668 22.1386 43.2184 23.5761C41.07 25.0135 40.5276 26.155 40.6945 27.9307C40.7832 28.8741 41.1603 29.364 41.6006 29.9361C41.9892 30.4409 42.4271 31.0098 42.7595 32.0106C43.4687 34.1456 43.8858 36.1539 43.6773 37.9296C43.4687 39.7052 44.4282 40.8679 45.4502 41.333C46.4723 41.798 48.3495 43.2566 47.4943 45.3283C46.6391 47.3999 44.8662 47.9918 42.9055 46.8503C41.3369 45.9371 25.0786 36.3934 17.1454 31.7358ZM24.6335 38.458L22.3599 37.1263C21.609 39.1979 21.9845 41.185 22.2139 42.1997C22.4433 43.2143 24.3206 47.7804 29.1389 47.9706C32.9935 48.1228 35.3477 46.1456 36.043 45.138L33.7903 43.8274C31.7378 45.9582 28.9303 45.4762 27.7831 44.9689C24.2288 43.1425 24.2024 39.8673 24.6335 38.458ZM32.6433 43.1086L25.7809 39.1345C25.3971 41.2653 26.6361 42.7422 27.3036 43.2143C29.4061 44.8716 31.7394 43.8344 32.6433 43.1086ZM26.1352 31.2496C26.2395 31.2707 26.544 31.22 26.9278 30.8479C27.4076 30.3829 28.7008 29.2413 30.432 29.0722C32.1332 28.9061 32.6864 29.0052 33.0415 29.0689L33.0602 29.0722C33.4148 29.1356 34.3534 29.2625 34.416 28.2901C34.4785 27.3177 33.7485 27.1697 33.2896 27.0851C32.8307 27.0006 29.9523 26.7892 28.0959 27.677C26.2395 28.5649 25.3843 29.495 25.28 29.7064C25.1757 29.9178 25.0088 30.4674 25.4052 30.9113C25.7222 31.2665 26.0239 31.2848 26.1352 31.2496Z" fill="#482402"/>
</g>
<defs>
<radialGradient id="paint0_radial_16369_121417" cx="0" cy="0" r="1" gradientUnits="userSpaceOnUse" gradientTransform="translate(32 32) rotate(90) scale(32)">
<stop stop-opacity="0"/>
<stop offset="1" stop-color="white"/>
</radialGradient>
<linearGradient id="paint1_linear_16369_121417" x1="32" y1="0" x2="32" y2="64" gradientUnits="userSpaceOnUse">
<stop stop-color="#4B4C4D"/>
<stop offset="1" stop-opacity="0"/>
</linearGradient>
<clipPath id="clip0_16369_121417">
<rect width="36" height="36" fill="white" transform="translate(14 14)"/>
</clipPath>
</defs>
</svg>
