<svg width="64" height="64" viewBox="0 0 64 64" fill="none" xmlns="http://www.w3.org/2000/svg">
<circle cx="32" cy="32" r="31.75" fill="url(#paint0_radial_14585_74966)" fill-opacity="0.05" stroke="url(#paint1_linear_14585_74966)" stroke-width="0.5"/>
<g clip-path="url(#clip0_14585_74966)">
<path d="M30.2109 28.2639C21.7751 30.089 15.4308 33.853 16.0405 36.6712C16.6502 39.4894 23.983 40.2945 32.4188 38.4694C40.8546 36.6444 47.1989 32.8803 46.5892 30.0621C45.9795 27.2439 38.6467 26.4389 30.2109 28.2639Z" fill="#E1AA59"/>
<path d="M44.7499 28.2381C41.9584 27.0012 36.3795 26.9293 30.2109 28.2639C21.7751 30.0889 15.4308 33.853 16.0405 36.6712C16.1055 36.9716 16.2469 37.2492 16.4579 37.5031C19.2494 38.74 24.8283 38.8119 30.9969 37.4773C39.4327 35.6522 45.777 31.8882 45.1673 29.07C45.1023 28.7696 44.9609 28.4921 44.7499 28.2381Z" fill="#EABF78"/>
<path d="M34.0803 27.0658C34.414 27.01 34.7441 26.959 35.0703 26.9127C35.9556 29.3454 37.9172 31.738 38.9876 32.8084C37.8245 31.8506 35.5236 29.5879 34.0803 27.0658Z" fill="white"/>
<path d="M28.4817 28.376C28.7273 28.3023 28.9752 28.2301 29.2253 28.1596C29.9643 30.4149 31.9763 32.8638 33.1828 34.0703C30.5596 32.3104 29.1578 30.1081 28.4817 28.376Z" fill="white"/>
<path d="M23.1016 30.3886C23.2888 30.3025 23.4788 30.217 23.6716 30.1323C24.0967 32.1655 26.2021 34.45 27.4411 35.5215C24.7546 33.7832 23.5421 31.7253 23.1016 30.3886Z" fill="white"/>
<path d="M36.8246 27.7217C44.2992 32.0372 49.1899 37.5598 47.7482 40.0569C46.3065 42.554 39.0784 41.0799 31.6038 36.7644C24.1292 32.4489 19.2385 26.9263 20.6802 24.4292C22.1219 21.9321 29.35 23.4062 36.8246 27.7217Z" fill="#E1AA59"/>
<path d="M22.9885 23.2545C26.0245 22.9297 31.3585 24.566 36.8243 27.7217C44.2989 32.0372 49.1896 37.5598 47.7479 40.0569C47.5942 40.3231 47.3748 40.5441 47.0963 40.7214C44.0603 41.0462 38.7263 39.4099 33.2606 36.2542C25.7859 31.9387 20.8953 26.4161 22.337 23.919C22.4906 23.6528 22.71 23.4318 22.9885 23.2545Z" fill="#EABF78"/>
<path d="M40.4835 30.0703C40.7589 30.2668 41.0284 30.4641 41.2917 30.662C40.1976 33.0082 39.8928 36.0871 39.8928 37.6009C39.7477 36.1012 39.7206 32.8742 40.4835 30.0703Z" fill="white"/>
<path d="M35.5982 27.0379C35.824 27.1595 36.0503 27.2837 36.277 27.4106C35.2048 29.528 34.8959 32.6823 34.8959 34.3886C34.2854 31.2892 34.8515 28.7407 35.5982 27.0379Z" fill="white"/>
<path d="M30.3707 24.6567C30.564 24.7282 30.7589 24.8021 30.9551 24.8786C29.818 26.6168 29.6914 29.7209 29.8098 31.3548C29.1393 28.2259 29.737 25.9134 30.3707 24.6567Z" fill="white"/>
</g>
<defs>
<radialGradient id="paint0_radial_14585_74966" cx="0" cy="0" r="1" gradientUnits="userSpaceOnUse" gradientTransform="translate(32 32) rotate(90) scale(32)">
<stop stop-opacity="0"/>
<stop offset="1" stop-color="white"/>
</radialGradient>
<linearGradient id="paint1_linear_14585_74966" x1="32" y1="0" x2="32" y2="64" gradientUnits="userSpaceOnUse">
<stop stop-color="#4B4C4D"/>
<stop offset="1" stop-opacity="0"/>
</linearGradient>
<clipPath id="clip0_14585_74966">
<rect width="32" height="32" fill="white" transform="translate(16 16)"/>
</clipPath>
</defs>
</svg>
