<svg width="64" height="64" viewBox="0 0 64 64" fill="none" xmlns="http://www.w3.org/2000/svg">
<circle cx="32" cy="32" r="31.75" fill="url(#paint0_radial)" fill-opacity="0.05" stroke="url(#paint1_linear)" stroke-width="0.5"/>
<path d="M39.8276 31.4557C40.0703 31.3928 40.3168 31.5443 40.3765 31.7884L40.7724 33.4072C40.8321 33.6475 40.6828 33.8951 40.44 33.9542C40.1973 34.0171 39.9509 33.8656 39.8911 33.6216L39.4952 32.0027C39.4355 31.7624 39.5848 31.5148 39.8276 31.4557ZM27.5601 19.6171C27.422 19.4027 27.4855 19.1255 27.687 18.9887L29.0838 18.0758C29.2966 17.939 29.5767 18.0019 29.7149 18.2052C29.853 18.4195 29.7895 18.6967 29.5879 18.8335L28.1913 19.7464C27.9821 19.8869 27.702 19.824 27.5601 19.6171Z" fill="white"/>
<path fill-rule="evenodd" clip-rule="evenodd" d="M34.7752 25.2763C33.1589 24.9158 31.4243 25.2121 30.0027 26.1663C32.1425 25.4566 34.6035 25.9482 36.3063 27.6521C38.7038 30.0509 38.7038 33.9577 36.3063 36.3564C36.0188 36.6447 35.7051 36.8998 35.3727 37.1178C36.2503 36.8184 37.0794 36.3306 37.7777 35.632C39.473 33.9357 39.9695 31.4853 39.2671 29.3474C37.3114 28.5839 35.7101 27.1239 34.7752 25.2763Z" fill="#FFAE54"/>
<path d="M44.8616 39.0399L44.8615 39.0401C40.9753 46.1494 32.0603 48.7464 24.9621 44.8675C17.8614 40.9872 15.2437 32.0721 19.1322 24.9586C21.6908 20.2782 26.4287 17.5503 31.3935 17.3404C32.0523 17.3126 32.5627 17.6561 32.9175 18.2654C33.2808 18.8894 33.4426 19.7462 33.356 20.5566C33.3225 20.8705 33.3054 21.189 33.3054 21.5113C33.3054 23.024 33.683 24.4494 34.3498 25.7003C31.2629 24.5467 27.7107 25.812 26.0888 28.7758C24.3119 32.023 25.5076 36.1143 28.7655 37.8963C32.0275 39.6804 36.1265 38.4727 37.9049 35.223L37.9051 35.2224C38.9003 33.3999 38.9613 31.3109 38.2468 29.5138C39.4885 30.1444 40.8959 30.5002 42.3874 30.5002C43.2235 30.5002 44.0342 30.3882 44.8044 30.1783C45.2445 30.0583 45.7163 30.1097 46.0688 30.2884C46.4097 30.4611 46.6125 30.7326 46.6347 31.0829C46.805 33.7587 46.2444 36.5127 44.8616 39.0399Z" fill="url(#paint2_radial)" stroke="#AC562A" stroke-width="1.0716"/>
<path d="M41.1012 36.1125L41.6425 35.9243C41.6425 35.9244 41.6425 35.9244 41.6425 35.9245C42.0244 37.0007 41.5298 37.9378 41.1657 38.6277C41.1544 38.649 41.1433 38.67 41.1324 38.6909C40.9116 39.1101 40.7356 39.4513 40.6555 39.7923C40.5298 40.3309 40.5487 40.832 40.7032 41.2101C40.8477 41.5639 41.1213 41.8434 41.6131 41.9725C41.9404 42.0566 42.4428 41.9332 43.1039 41.5291C45.6492 38.5464 46.8098 34.7897 46.5846 31.1006C46.5632 30.7507 46.3617 30.4788 46.0222 30.3051C45.6712 30.1252 45.2007 30.0718 44.7607 30.1893C44.0036 30.3917 43.2077 30.4996 42.3874 30.4996C40.8751 30.4996 39.449 30.1337 38.1949 29.4865C38.929 31.2856 38.8535 33.3333 37.9527 35.0752C37.8064 35.3584 37.6381 35.6334 37.448 35.8981C37.8273 35.782 38.3047 35.5615 38.8943 35.1958C39.7793 34.6488 40.7764 35.1921 41.1012 36.1125ZM41.1012 36.1125C41.3999 36.954 41.0119 37.6909 40.6236 38.4285C40.41 38.8344 40.1962 39.2406 40.0967 39.6644L41.1012 36.1125ZM30.7725 25.3892L30.7488 25.3934L30.7255 25.3995C29.2843 25.7784 28.126 25.5965 27.2394 25.1291C26.3441 24.6573 25.6813 23.8707 25.2864 22.973C24.89 22.0721 24.778 21.0914 24.9491 20.2641C25.1184 19.4461 25.5524 18.8141 26.2282 18.4931C28.019 17.7355 29.9287 17.3488 31.8404 17.3335C32.3835 17.3292 32.8141 17.626 33.1079 18.1476C33.4085 18.6813 33.5294 19.4033 33.4213 20.0741C33.3454 20.5447 33.3053 21.0265 33.3053 21.5106C33.3053 23.0373 33.6899 24.4752 34.3683 25.7344C33.2197 25.2934 31.9743 25.1782 30.7725 25.3892Z" fill="#AC562A" stroke="#AC562A" stroke-width="1.0716"/>
<path d="M20.8774 29.364C21.2997 29.364 21.6422 29.0251 21.6422 28.6071C21.6422 28.189 21.2997 27.8501 20.8774 27.8501C20.455 27.8501 20.1125 28.189 20.1125 28.6071C20.1125 29.0251 20.455 29.364 20.8774 29.364Z" fill="#AC562A"/>
<path d="M31.9667 42.6111C32.3891 42.6111 32.7315 42.2722 32.7315 41.8541C32.7315 41.4361 32.3891 41.0972 31.9667 41.0972C31.5443 41.0972 31.2019 41.4361 31.2019 41.8541C31.2019 42.2722 31.5443 42.6111 31.9667 42.6111Z" fill="#AC562A"/>
<path d="M27.2821 43.7467C27.9685 43.7467 28.5249 43.196 28.5249 42.5167C28.5249 41.8373 27.9685 41.2866 27.2821 41.2866C26.5957 41.2866 26.0393 41.8373 26.0393 42.5167C26.0393 43.196 26.5957 43.7467 27.2821 43.7467Z" fill="#AC562A"/>
<defs>
<radialGradient id="paint0_radial" cx="0" cy="0" r="1" gradientUnits="userSpaceOnUse" gradientTransform="translate(32 32) rotate(90) scale(32)">
<stop stop-opacity="0"/>
<stop offset="1" stop-color="white"/>
</radialGradient>
<linearGradient id="paint1_linear" x1="32" y1="0" x2="32" y2="64" gradientUnits="userSpaceOnUse">
<stop stop-color="#4B4C4D"/>
<stop offset="1" stop-opacity="0"/>
</linearGradient>
<radialGradient id="paint2_radial" cx="0" cy="0" r="1" gradientUnits="userSpaceOnUse" gradientTransform="translate(31.9977 31.9971) rotate(90) scale(15.2375 15.2403)">
<stop offset="0.333505" stop-color="#F7B450"/>
<stop offset="0.64773" stop-color="#FFC977"/>
<stop offset="1" stop-color="#FF9900"/>
</radialGradient>
</defs>
</svg>
