<svg width="64" height="64" viewBox="0 0 64 64" fill="none" xmlns="http://www.w3.org/2000/svg">
<circle cx="32" cy="32" r="31.75" fill="url(#paint0_radial)" fill-opacity="0.05" stroke="url(#paint1_linear)" stroke-width="0.5"/>
<path d="M48 39.5528C48 42.558 40.8362 44.9997 31.9868 44.9997C23.1638 45.0265 16 42.5848 16 39.5528C16 37.4063 19.6346 35.5549 24.9021 34.6694C27.0091 35.1524 29.4321 35.4207 32.0132 35.4207C34.5942 35.4207 37.0436 35.1524 39.1243 34.6694C44.3918 35.5549 48 37.4331 48 39.5528Z" fill="white"/>
<path d="M32.013 25.4933C37.3658 25.4933 41.7052 24.0397 41.7052 22.2467C41.7052 20.4536 37.3658 19 32.013 19C26.6601 19 22.3208 20.4536 22.3208 22.2467C22.3208 24.0397 26.6601 25.4933 32.013 25.4933Z" fill="white"/>
<path d="M44.8397 29.813C44.8397 32.2011 39.0981 34.1061 32.0133 34.1061C24.9286 34.1061 19.187 32.1742 19.187 29.813C19.187 28.1495 22.0051 26.7005 26.1401 25.9761C27.8257 26.4054 29.8537 26.6469 32.0133 26.6469C34.173 26.6469 36.1747 26.4054 37.8603 25.9761C41.9952 26.7005 44.8397 28.1226 44.8397 29.813Z" fill="white"/>
<defs>
<radialGradient id="paint0_radial" cx="0" cy="0" r="1" gradientUnits="userSpaceOnUse" gradientTransform="translate(32 32) rotate(90) scale(32)">
<stop stop-opacity="0"/>
<stop offset="1" stop-color="white"/>
</radialGradient>
<linearGradient id="paint1_linear" x1="32" y1="0" x2="32" y2="64" gradientUnits="userSpaceOnUse">
<stop stop-color="#4B4C4D"/>
<stop offset="1" stop-opacity="0"/>
</linearGradient>
</defs>
</svg>
