<svg width="64" height="64" viewBox="0 0 64 64" fill="none" xmlns="http://www.w3.org/2000/svg">
<circle cx="32" cy="32" r="31.75" fill="url(#paint0_radial)" fill-opacity="0.05" stroke="url(#paint1_linear)" stroke-width="0.5"/>
<path d="M42 33.5021C42 36.4676 42 39.3264 42 42.2435C38.7955 44.1429 35.5631 46.0521 32.2748 48C32.2748 45.0539 32.2748 42.195 32.2748 39.2586C35.4606 37.3688 38.693 35.4597 42 33.5021Z" fill="white"/>
<path d="M39.5314 31.8644C37.1374 33.2987 34.734 34.7232 32.2748 36.1963C32.2748 33.2405 32.2748 30.3719 32.2748 27.4549C34.6595 26.0303 37.0629 24.596 39.5314 23.123C39.5314 26.0594 39.5314 28.928 39.5314 31.8644Z" fill="white"/>
<path d="M29.2753 27.4453C29.2753 30.343 29.2753 33.2115 29.2753 36.1867C26.8253 34.7233 24.422 33.2891 22.0093 31.8548C22.0093 28.9668 22.0093 26.0886 22.0093 23.1134C24.4592 24.5767 26.8719 26.011 29.2753 27.4453Z" fill="white"/>
<path d="M22 34.9073C24.4686 36.3803 26.8719 37.8146 29.2753 39.2489C29.2753 42.1466 29.2753 45.0151 29.2753 47.9903C26.8067 46.5269 24.4034 45.0927 22 43.6584C22 40.751 22 37.8825 22 34.9073Z" fill="white"/>
<path d="M23.5277 20.3707C25.9776 18.8783 28.3251 17.4537 30.7098 16C33.1132 17.4343 35.5258 18.8783 38.0317 20.3707C35.5445 21.8631 33.1318 23.2974 30.7098 24.7414C28.3344 23.2974 25.9683 21.8631 23.5277 20.3707Z" fill="white"/>
<defs>
<radialGradient id="paint0_radial" cx="0" cy="0" r="1" gradientUnits="userSpaceOnUse" gradientTransform="translate(32 32) rotate(90) scale(32)">
<stop stop-opacity="0"/>
<stop offset="1" stop-color="white"/>
</radialGradient>
<linearGradient id="paint1_linear" x1="32" y1="0" x2="32" y2="64" gradientUnits="userSpaceOnUse">
<stop stop-color="#4B4C4D"/>
<stop offset="1" stop-opacity="0"/>
</linearGradient>
</defs>
</svg>
