<svg width="64" height="64" viewBox="0 0 64 64" fill="none" xmlns="http://www.w3.org/2000/svg">
<circle cx="32" cy="32" r="31.75" fill="url(#paint0_radial_16826_160819)" fill-opacity="0.05" stroke="url(#paint1_linear_16826_160819)" stroke-width="0.5"/>
<path d="M40.5941 11.692C41.3826 11.5792 42.038 11.9793 42.7344 12.2255C42.9904 12.3179 43.0826 12.5231 43.0621 12.7898C43.0416 13.0771 43.0518 13.3644 43.0416 13.6619C42.9597 13.7235 42.9904 13.8055 43.0006 13.8979C43.0928 15.365 43.1747 16.8321 43.2567 18.289C43.2669 18.4224 43.3079 18.566 43.1747 18.6686C42.8982 18.8636 42.079 18.6379 41.9459 18.3198C41.5465 17.3554 40.8603 16.6372 39.9694 16.114C38.3002 15.1393 36.4569 14.8725 34.5829 14.6981C32.5859 14.5135 30.5992 14.6776 28.6228 14.9136C27.2198 15.0777 25.8271 15.365 24.5266 15.9498C23.7176 16.3192 23.0007 16.8116 22.6423 17.6734C22.3248 18.4224 22.3863 18.4737 23.1646 18.4224C23.3387 18.4121 23.5025 18.4121 23.6766 18.4121C25.7452 18.4019 27.8036 18.3916 29.8722 18.4019C30.2408 18.4019 30.5071 18.3095 30.7631 18.0325C31.2956 17.4272 31.8998 16.904 32.76 16.7911C33.8353 16.6372 35.1973 17.4785 35.269 18.3916C35.3714 19.7356 35.484 21.0797 35.5557 22.4237C35.74 25.6247 35.9346 28.8257 36.0882 32.037C36.1189 32.7347 36.3442 33.104 37.0406 33.3297C38.1773 33.6991 38.6381 34.4583 38.6689 35.6074C38.6791 35.9973 38.5767 36.0896 38.1978 35.9562C36.9484 35.5151 35.6684 35.156 34.3268 35.0431C32.2173 34.879 30.1794 35.2073 28.2132 35.9255C27.8343 36.0691 27.4349 36.2948 27.3939 36.7565C27.353 37.2592 27.6602 37.6183 28.0493 37.8953C28.1415 37.9671 28.2541 38.0287 28.3566 38.08C29.9848 38.9828 31.6028 39.8857 33.2311 40.7886C33.5076 40.9424 33.7841 41.0963 34.0299 41.476C31.951 41.476 29.9541 41.476 27.8957 41.476C28.0596 41.7017 28.2439 41.7017 28.3975 41.7632C30.8143 42.6558 33.2208 43.5587 35.5147 44.7488C36.8665 45.4567 38.1568 46.2365 39.1604 47.4266C39.9182 48.3192 39.8875 49.458 39.0682 50.289C38.8429 50.525 38.5665 50.6994 38.29 50.8738C36.9177 51.7357 35.4431 52.4846 33.8455 52.5975C31.0294 52.7924 28.1825 52.6693 25.397 52.0845C23.482 51.6844 21.6182 51.1201 20.0924 49.8171C18.9966 48.8835 18.2081 47.7651 18.3822 46.1852C18.628 43.9793 18.843 41.7735 19.0888 39.5676C19.3141 37.4849 19.5599 35.4022 19.7647 33.3092C19.8466 32.4885 20.0309 31.6779 20.0105 30.8264C19.8568 30.9085 19.8671 31.0316 19.8466 31.1239C19.4165 33.0322 18.9864 34.9508 18.5563 36.8591C18.2593 38.1416 18.0135 39.4343 17.3479 40.5936C17.2045 40.8501 17.0612 41.2913 16.6925 41.1784C16.2726 41.0553 16.4058 40.6039 16.4467 40.2858C16.8871 37.3516 17.3274 34.4173 17.8394 31.4933C18.7304 26.425 19.5496 21.3362 20.3996 16.2576C20.461 15.8883 20.5839 15.5702 20.8707 15.324C21.1369 15.0983 21.4339 15.2316 21.7514 15.3548C21.8538 14.3185 21.9459 13.3541 22.0381 12.3897C22.1303 12.0101 22.4682 11.9178 22.7549 11.8049C23.5025 11.5176 24.291 11.3432 25.1 11.3124C25.4073 11.4663 25.735 11.3945 26.0524 11.3637C28.971 11.138 31.8896 11.1996 34.7979 11.2201C36.7436 11.2304 38.6893 11.2817 40.5941 11.692ZM20.8502 23.8087C20.5122 25.2451 20.4098 26.743 20.3382 28.2307C20.5122 26.7635 20.6761 25.2861 20.8502 23.8087ZM20.2869 28.8257C20.2562 28.8257 20.2255 28.8155 20.1948 28.8155C20.1436 29.2361 20.0821 29.6465 20.0309 30.0672C20.0617 30.0672 20.0924 30.0774 20.1231 30.0774C20.1743 29.667 20.2255 29.2464 20.2869 28.8257Z" fill="#44F0B2"/>
<path d="M22.038 12.3999C21.9458 13.3643 21.8536 14.3287 21.7512 15.365C21.4338 15.2418 21.147 15.1085 20.8705 15.3342C20.5838 15.5804 20.4609 15.8985 20.3995 16.2678C19.5495 21.3464 18.7405 26.4352 17.8393 31.5035C17.3273 34.4275 16.8869 37.3618 16.4466 40.296C16.3954 40.6243 16.2725 41.0655 16.6924 41.1886C17.061 41.3015 17.2044 40.8603 17.3478 40.6038C18.0134 39.4445 18.2592 38.1518 18.5562 36.8693C18.9965 34.961 19.4164 33.0424 19.8465 31.1341C19.867 31.0418 19.8465 30.9289 20.0103 30.8366C20.0308 31.6984 19.8465 32.5089 19.7646 33.3194C19.5598 35.4022 19.314 37.4849 19.0887 39.5778C18.8531 41.7837 18.6381 43.9895 18.3821 46.1954C18.208 47.7651 18.9965 48.8937 20.0923 49.8273C21.6181 51.12 23.4921 51.6843 25.3969 52.0947C28.1824 52.6795 31.019 52.8026 33.8454 52.6077C35.4327 52.4948 36.9176 51.7458 38.2898 50.884C38.5663 50.7096 38.8326 50.5352 39.0681 50.2992C39.8874 49.4579 39.9181 48.3294 39.1603 47.4368C38.1567 46.2467 36.8664 45.4669 35.5146 44.759C33.231 43.5586 30.8142 42.6558 28.3974 41.7734C28.2438 41.7221 28.0697 41.7119 27.8956 41.4862C29.954 41.4862 31.9509 41.4862 34.0297 41.4862C33.7942 41.1168 33.5075 40.9629 33.231 40.7988C31.613 39.8959 29.9847 38.993 28.3564 38.0902C28.254 38.0286 28.1516 37.9773 28.0492 37.9055C27.6601 37.6285 27.3529 37.2694 27.3938 36.7667C27.4348 36.2947 27.8239 36.069 28.2131 35.9357C30.1895 35.2175 32.2274 34.8892 34.3267 35.0533C35.6682 35.1559 36.9381 35.515 38.1977 35.9664C38.5766 36.0998 38.679 36.0075 38.6687 35.6176C38.638 34.4685 38.1772 33.7093 37.0405 33.34C36.3441 33.1142 36.1188 32.7449 36.0881 32.0472C35.9345 28.8462 35.7502 25.6349 35.5556 22.4339C35.4737 21.0899 35.3713 19.7458 35.2689 18.4018C35.1972 17.4887 33.8352 16.6372 32.7497 16.7808C31.8895 16.8937 31.2955 17.4169 30.7527 18.0222C30.507 18.3095 30.2407 18.4018 29.8618 18.3916C27.7932 18.3813 25.7348 18.3916 23.6662 18.4018C23.4921 18.4018 23.3283 18.4018 23.1542 18.4121C22.3759 18.4736 22.3145 18.4121 22.6319 17.6631C22.9904 16.8116 23.7072 16.3088 24.5162 15.9395C25.8168 15.3547 27.2095 15.0674 28.6125 14.9033C30.5889 14.6673 32.5756 14.5134 34.5725 14.6878C36.4465 14.8622 38.3001 15.129 39.9591 16.1037C40.8602 16.6269 41.5361 17.3451 41.9355 18.3095C42.0686 18.6275 42.8776 18.8533 43.1644 18.6583C43.2975 18.566 43.2565 18.4121 43.2463 18.2787C43.1644 16.8116 43.0722 15.3444 42.9903 13.8876C42.98 13.8055 42.9493 13.7234 43.0312 13.6516C43.2463 13.9286 43.1644 14.2672 43.1849 14.575C43.1951 14.8315 43.2361 14.9853 43.5433 15.0059C44.3216 15.0674 44.7312 15.5496 44.895 16.2678C45.2023 17.6734 45.2944 19.1097 45.4788 20.5256C46.1546 25.8504 46.8203 31.1649 47.4859 36.4897C47.6293 37.6593 47.7522 38.8289 47.9467 39.978C48.1311 41.1065 47.8648 41.4759 46.7076 42.0812C45.9191 42.4916 45.8884 42.4506 46.001 43.3534C46.1649 44.6461 46.2775 45.9389 46.5028 47.2111C46.8305 49.0578 45.5914 50.6891 44.342 51.3355C42.9288 52.0742 41.3927 52.3922 39.8259 52.5666C35.2177 53.0694 30.6094 53.2335 26.0113 52.5153C23.912 52.187 21.8741 51.6022 20.1435 50.2787C19.3549 49.6734 18.7712 48.9142 18.3616 48.0011C18.0851 47.3752 18.0134 46.7391 18.1158 46.0517C18.2899 44.8821 18.3616 43.7125 18.5254 42.5429C18.5767 42.153 18.423 42.0607 18.0953 42.0402C17.3683 41.9889 16.6821 41.8247 16.1803 41.2091C16.037 41.0347 15.9653 40.9014 16.0165 40.6654C16.549 38.1415 16.8665 35.5868 17.3068 33.0527C18.2387 27.615 19.1296 22.1671 20.0411 16.7295C20.1025 16.3909 20.1639 16.0524 20.2766 15.7343C20.4302 15.3034 20.7067 14.9853 21.2085 14.9853C21.5567 14.9853 21.6488 14.8315 21.6898 14.4929C21.7922 13.7952 21.7615 13.0668 22.038 12.3999Z" fill="#215A4D"/>
<path d="M40.5939 11.6922C38.6789 11.2818 36.7434 11.2305 34.7977 11.2202C31.8894 11.1997 28.9708 11.1381 26.0625 11.3844C25.745 11.4151 25.4173 11.487 25.1101 11.3331C29.7798 10.9329 34.4496 10.8509 39.1193 11.3228C39.6211 11.3638 40.1638 11.3433 40.5939 11.6922Z" fill="#215A4D"/>
<path d="M20.8503 23.8086C20.6761 25.286 20.5121 26.7531 20.3379 28.2305C20.4096 26.7429 20.5121 25.2552 20.8503 23.8086Z" fill="#215A4D"/>
<path d="M20.287 28.8257C20.2357 29.2463 20.1845 29.6567 20.123 30.0774C20.0923 30.0774 20.0615 30.0671 20.0308 30.0671C20.082 29.6465 20.1435 29.2361 20.1947 28.8154C20.2255 28.8257 20.2562 28.8257 20.287 28.8257Z" fill="#215A4D"/>
<defs>
<radialGradient id="paint0_radial_16826_160819" cx="0" cy="0" r="1" gradientUnits="userSpaceOnUse" gradientTransform="translate(32 32) rotate(90) scale(32)">
<stop stop-opacity="0"/>
<stop offset="1" stop-color="white"/>
</radialGradient>
<linearGradient id="paint1_linear_16826_160819" x1="32" y1="0" x2="32" y2="64" gradientUnits="userSpaceOnUse">
<stop stop-color="#4B4C4D"/>
<stop offset="1" stop-opacity="0"/>
</linearGradient>
</defs>
</svg>
