<svg width="64" height="64" viewBox="0 0 64 64" fill="none" xmlns="http://www.w3.org/2000/svg">
<circle cx="32" cy="32" r="31.75" fill="url(#paint0_radial_15817_143431)" fill-opacity="0.05" stroke="url(#paint1_linear_15817_143431)" stroke-width="0.5"/>
<path d="M41.3844 49.9958C40.8741 50.0095 40.5156 49.8318 40.1708 49.5993C38.4884 48.4782 37.2197 46.947 35.9509 45.4157C35.2338 44.5544 34.5167 43.7067 33.7307 42.9001C32.4895 41.6423 31.5104 41.6423 30.1727 42.7907C28.7661 44.0075 27.5663 45.4157 26.27 46.7419C25.5805 47.4392 24.822 48.0681 24.0773 48.7107C22.9051 49.7361 22.0363 49.3669 21.071 48.4783C20.285 47.7536 19.5265 46.9743 18.8645 46.1403C17.7751 44.7458 16.2719 43.7614 15.1963 42.3669C14.686 41.697 14.1206 40.9997 14.0103 40.111C13.9689 39.7829 14.0517 39.5094 14.2723 39.236C15.7341 37.3766 17.4717 35.8043 19.3058 34.3141C20.0919 33.6715 20.809 32.9332 21.3192 32.0172C21.6916 31.3609 21.6778 30.7594 21.1538 30.2125C19.7471 28.7359 18.3129 27.3004 16.9339 25.8101C16.1478 24.9625 15.279 24.1695 14.7136 23.1304C14.2999 22.3648 14.1896 21.6812 14.8515 20.9566C15.348 20.4097 15.8168 19.8492 16.396 19.4116C17.8302 18.3589 19.1679 17.1968 20.3263 15.8296C20.74 15.3374 21.3468 14.9819 21.8984 14.6128C23.1534 13.7788 23.7188 13.8335 24.7669 14.8999C25.5667 15.7065 26.3528 16.5542 27.0837 17.4155C28.2834 18.8238 29.6349 20.0952 31.1381 21.189C31.869 21.7359 32.2413 21.7085 33.0136 21.2027C34.6271 20.1499 35.7303 18.564 37.0818 17.2515C37.854 16.4995 38.5849 15.7065 39.371 14.9819C40.8879 13.6011 41.7843 13.6831 43.1772 15.187C44.2114 16.3218 44.9837 17.6616 46.1283 18.7007C47.0799 19.562 48.0728 20.3687 48.9278 21.3257C48.9554 21.3531 48.9967 21.3941 49.0243 21.4214C50.3206 22.7339 50.3344 23.6773 49.0105 24.9761C47.7832 26.1793 46.5558 27.3687 45.1906 28.4215C44.1563 29.2144 43.2185 30.1168 42.5152 31.2242C42.1015 31.8668 42.1015 32.482 42.5704 33.1246C43.4254 34.2731 44.4873 35.2028 45.5215 36.1598C46.9006 37.4176 48.2934 38.6754 49.438 40.1794C50.362 41.3962 49.9345 42.613 49.1622 43.4333C47.8246 44.8415 46.2386 45.99 44.9285 47.4392C44.1287 48.3279 43.1772 49.0388 42.198 49.7224C41.936 49.9138 41.6464 50.0232 41.3844 49.9958ZM24.7255 38.1286C25.1392 37.8551 25.6494 37.6501 25.6494 36.9118C25.2633 37.3356 24.9599 37.6911 24.6427 38.0329C24.5876 38.0876 24.4497 38.1149 24.5186 38.2106C24.5738 38.279 24.6841 38.2243 24.7255 38.1286ZM32.7102 26.2203C32.3103 26.1246 31.9379 26.3023 31.5656 26.3844C31.4415 26.4117 31.2484 26.439 31.2622 26.6031C31.276 26.7535 31.4001 26.8902 31.5931 26.8902C31.9103 26.8765 32.2275 26.8492 32.5585 26.8219C33.3721 26.7535 33.6893 27.0133 33.9375 27.7926C34.103 28.2984 34.3788 28.7633 34.7788 29.1187C34.9994 29.3238 35.3304 29.4742 35.6613 29.2418C36.0337 28.9957 36.6543 29.1051 36.8749 29.4605C37.0266 29.7066 36.999 29.9254 36.7232 30.1031C36.4198 30.3082 36.3233 30.1305 36.2268 29.898C36.1992 29.8297 36.1164 29.775 35.9923 29.6109C35.8958 30.1988 35.813 30.691 35.7303 31.1695C35.6751 31.4703 35.882 31.6481 36.0888 31.7711C36.2957 31.9078 36.5164 31.7711 36.6405 31.6207C37.2059 30.9508 38.0057 31.1422 38.709 31.0602C39.04 31.0191 39.0952 30.8961 39.0262 30.7457C38.8469 30.2262 39.1503 30.0758 39.6054 29.9117C38.7642 29.9801 38.2815 29.5836 38.0609 28.6676C37.854 29.3648 37.9368 29.8844 37.5231 30.3492C37.4127 29.7203 37.1093 29.1871 37.4541 28.6266C37.6748 28.2574 37.7299 27.943 37.3989 27.5738C36.999 27.1363 36.6543 26.8082 35.9509 27.0406C35.3993 27.2183 35.4959 27.5738 35.4683 27.9293C35.4545 28.0933 35.4131 28.2437 35.1925 28.3531C35.0546 27.6422 34.7512 27.109 34.0065 26.8492C33.6341 26.7125 33.4549 26.234 33.3308 25.8648C33.248 25.6461 33.3032 25.2496 33.6066 25.1129C33.8686 24.9898 34.1858 24.8804 34.2685 25.359C34.2961 25.4957 34.4478 25.564 34.5995 25.523C34.7925 25.482 34.7512 25.3179 34.7236 25.1949C34.6684 24.8804 34.6408 24.6343 35.0959 24.5797C35.4821 24.5386 35.3166 24.2379 35.2063 24.0601C35.0959 23.8824 35.0959 23.4312 34.7512 23.6363C33.7583 24.2379 32.7515 24.8668 32.6964 26.2203H32.7102ZM27.5112 37.4723C27.8835 37.6227 28.1731 37.4176 28.3524 37.7047C28.6696 38.2106 29.0695 38.0465 29.4556 37.8141C29.5659 37.7458 29.6487 37.6227 29.8004 37.7458C30.1589 38.0055 30.2831 37.7594 30.3796 37.4723C30.4623 37.1989 30.5037 36.9254 30.7519 36.693C31.0277 36.4469 30.7381 36.2965 30.5451 36.3375C29.7176 36.4879 29.8693 36.1325 30.1314 35.6539C30.2693 35.3805 30.352 35.1071 29.828 35.2028C29.5108 35.2575 29.4556 34.9977 29.497 34.7653C29.5797 34.3004 29.8555 33.9176 30.3106 33.8903C30.945 33.8629 30.5727 33.4528 30.5589 33.275C30.5589 32.9059 30.2831 32.9879 30.0762 33.152C29.8555 33.316 29.7039 33.2614 29.7452 33.0153C29.7866 32.7965 30.021 32.4137 30.1038 32.4274C30.6968 32.5367 30.5175 32.3317 30.3382 32.0035C30.0486 31.4977 30.2279 30.8414 30.7243 30.7867C30.9588 30.7594 31.9793 29.775 31.6069 31.2106C31.6069 31.2242 31.7035 31.2789 31.7586 31.2926C32.1172 31.402 32.0344 31.6617 31.9379 31.8942C31.8138 32.1813 31.6621 32.4684 31.5242 32.7555C31.4552 32.8922 31.4828 33.0426 31.6483 33.0836C31.8 33.1246 31.7862 32.9879 31.8276 32.8785C31.9241 32.5641 32.1723 32.359 32.4895 32.4C32.8067 32.4274 33.0963 32.6188 33.248 32.9196C33.3721 33.152 33.2342 33.6578 33.6617 33.5348C33.9513 33.4528 34.2409 33.5621 34.5167 33.4254C34.6133 33.3844 34.7374 33.3571 34.7512 33.2067C34.765 33.0426 34.6546 32.9742 34.5305 32.8922C33.9927 32.5914 33.4687 32.2496 32.917 31.9762C32.2965 31.6754 32.2827 31.2106 32.4895 30.6637C32.5723 30.4586 32.7102 30.2672 32.7791 30.0484C32.8757 29.775 32.7791 29.4332 32.4757 29.5289C31.7035 29.775 31.7035 29.2144 31.5104 28.7906C31.4552 28.6676 31.4552 28.3121 31.1932 28.5035C30.8209 28.7633 30.5451 28.6129 30.1314 28.2848C30.3382 28.7769 30.4485 29.1324 30.3382 29.4879C30.1314 30.1715 29.5659 30.0621 29.0419 30.0621C28.4213 30.0621 28.311 30.2398 28.6006 30.7731C28.6558 30.8688 28.7661 30.9371 28.6558 31.1012C28.4213 31.1149 28.3248 30.9098 28.2007 30.7731C28.0076 30.568 27.8146 30.5543 27.5939 30.7184C27.4008 30.8688 27.2491 31.3063 26.9595 31.0738C26.6837 30.8551 27.0423 30.5543 27.125 30.2809C27.1388 30.2125 27.1388 30.1578 27.1526 30.0621C26.7113 29.9938 26.2562 30.1441 25.7736 29.8844C26.1597 30.6773 26.3803 31.4156 26.3803 32.2496C27.6904 31.0875 27.7042 31.0738 28.2283 31.5387C27.4422 31.6891 27.2767 31.9215 27.3595 32.7418C27.3733 32.9332 27.3043 33.0426 27.1664 33.1383C26.9871 33.2614 26.7803 33.4254 26.932 33.6305C27.0837 33.8356 27.3319 33.7809 27.525 33.5895C27.6491 33.4801 27.787 33.2887 27.98 33.4938C28.1593 33.6852 28.1593 33.9039 28.0628 34.1227C27.9938 34.2731 27.6767 34.2321 27.7594 34.5055C27.9663 34.6422 28.4627 34.3004 28.4213 34.82C28.3938 35.2848 28.0352 35.3121 27.6491 35.2301C27.5801 35.2164 27.5112 35.2301 27.4422 35.2164C27.0699 35.2028 26.8768 35.4079 26.8906 35.7496C26.8906 35.9 26.8216 36.0641 26.7941 36.2145C26.7665 36.3786 26.6424 36.5426 26.9733 36.8434C26.8906 36.3649 27.3319 36.1325 27.1112 35.7223C27.0561 35.6129 26.9871 35.5582 27.1112 35.4489C27.2629 35.3395 27.3733 35.4352 27.4974 35.4762C27.6629 35.5172 27.6353 35.5993 27.5801 35.7223C27.4698 35.9821 27.5387 36.2555 27.5663 36.529C27.5801 36.693 27.787 36.8024 27.8283 36.6793C27.9525 36.2555 28.2696 36.1735 28.6144 36.0504C28.6971 36.0231 28.6144 35.5993 28.904 35.818C29.0557 35.9274 29.0281 36.1461 28.9178 36.3786C28.7109 36.9938 28.0904 37.1168 27.5112 37.4723ZM28.0904 26.7535C28.8626 26.8765 29.5384 26.9859 30.2693 27.0953C30.1176 27.2867 29.9797 27.3961 29.9383 27.5191C29.7176 28.1754 29.3315 28.5035 28.5868 28.3941C28.3386 28.3531 27.9663 28.6266 28.0214 28.7769C28.1731 29.1187 28.1593 29.6109 28.6144 29.775C28.8351 29.857 29.828 29.2691 29.7452 29.1187C29.497 28.5855 29.9797 28.1754 30.1727 28.0523C30.6554 27.7789 30.6968 27.3824 30.8485 26.9722C30.9036 26.8082 30.9726 26.7125 30.7933 26.7672C30.4072 26.8765 30.352 26.5621 30.1451 26.398C29.3867 25.7965 29.5384 24.9078 29.4143 24.1285C29.3867 23.9234 29.2763 23.7867 29.1936 23.8414C28.6558 24.1285 28.4627 23.7183 28.1042 23.2945C28.5179 24.3062 27.9525 24.6343 27.0285 24.7984C27.6629 25.1402 28.2559 24.9215 28.7523 25.3726C28.2559 25.3453 27.8697 25.2906 27.4836 25.2906C26.932 25.2906 26.4079 25.1265 25.8839 25.7008C25.484 26.1383 25.4702 26.439 25.5667 26.9312C25.677 27.4918 26.077 27.3004 26.4079 27.3277C26.5596 27.3414 26.6562 27.3961 26.7389 27.5191C26.532 27.8883 25.8977 27.6148 25.7874 28.148C25.6357 28.8863 25.0151 29.1187 24.4221 29.3512C24.0084 29.5152 23.7877 29.1734 23.5947 28.9C23.4154 28.6402 23.6498 28.5582 23.8291 28.4625C23.9532 28.3941 24.0773 28.2984 24.0084 28.148C23.9256 27.984 23.7602 28.0797 23.636 28.0933C23.3464 28.1617 23.1396 28.1207 23.181 27.7515C23.1947 27.6148 23.181 27.4644 22.9741 27.4644C22.6569 27.4508 22.4087 27.6422 22.2018 27.8336C22.0777 27.943 22.2432 28.0797 22.3259 28.1754C22.8362 28.7359 23.3464 29.2828 23.8567 29.8297C23.9808 29.9527 24.0773 30.1031 24.3118 29.9664C24.6427 29.775 24.7117 29.9801 24.7255 30.2945C24.7393 30.5406 24.8496 30.7731 24.9323 31.0055C24.9875 31.1422 24.9186 31.4293 25.2219 31.3336C25.4564 31.2516 25.4288 31.0191 25.3461 30.8688C25.1392 30.4723 25.2909 30.0621 25.3323 29.6656C25.3736 29.2144 25.6908 28.7633 26.1597 28.7223C26.6975 28.6676 27.0837 28.4078 27.4422 28.107C27.7456 27.8609 27.9663 27.3824 27.6629 27.15C27.1802 26.7808 27.5387 26.5484 27.6353 26.2476C27.718 25.9605 27.9663 25.8785 28.2145 25.8511C28.4213 25.8238 28.4627 26.0426 28.5041 26.1793C28.6696 26.5211 28.38 26.5894 28.0904 26.7535ZM37.7023 34.2047C37.6748 34.5602 37.8127 34.7653 37.9506 35.0114C38.1988 35.4215 38.5436 36.1461 38.1988 36.3375C37.33 36.8297 36.5439 37.6774 35.3166 37.3356C35.3717 37.7321 35.2476 38.1969 35.6338 38.32C35.9923 38.4294 36.4198 38.3473 36.5301 37.8004C36.5715 37.6364 36.8887 37.527 37.0818 37.8004C37.1783 37.9372 37.2472 38.0739 37.3576 38.1969C37.6748 38.5524 38.1988 38.5114 38.4056 38.2926C38.9159 37.7731 38.1988 37.8004 37.9506 37.6501C38.2264 36.9665 38.5298 36.3375 38.8056 35.736C39.1641 34.943 38.8056 34.82 38.3091 34.5602C38.116 34.4508 37.9368 34.3414 37.7023 34.2047ZM25.415 21.982C26.3528 23.5953 26.1873 23.9644 24.4359 24.2379C24.3256 24.2515 24.2152 24.2925 24.0911 24.2925C23.6222 24.2925 23.4568 24.5113 23.6222 24.9351C23.7602 25.2769 23.5947 25.3316 23.3051 25.3043C23.1534 25.2906 22.9603 25.2633 22.8362 25.3316C22.7397 25.3726 22.6845 25.5504 22.6707 25.6734C22.6431 25.7828 22.7948 25.8375 22.85 25.8101C23.374 25.4683 24.0084 25.9058 24.5462 25.5914C24.4773 25.2769 24.1187 25.5093 23.9946 25.2906C24.0911 25.0308 24.4635 25.2222 24.5324 24.9625C24.7117 24.3062 24.9875 24.648 25.2219 24.9078C25.4426 25.1539 25.7046 25.1402 25.9804 25.0718C26.0907 25.0445 26.1873 24.9761 26.2149 24.8531C26.2424 24.7164 26.1873 24.6343 26.0494 24.6207C25.5943 24.5797 25.7874 24.3336 25.9115 24.1558C26.2286 23.7183 26.2976 23.1988 26.4907 22.7203C26.5596 22.5425 26.5734 22.4195 26.3666 22.3375C26.0907 22.2417 25.8425 22.0093 25.415 21.982ZM31.3311 33.3434C31.4828 34.3551 30.683 34.4371 30.1314 34.7379C30.9036 35.4352 31.4828 36.3239 32.3654 36.8981C32.0896 36.3512 31.7448 35.8864 31.3725 35.4352C31.0967 35.0934 30.8898 34.8063 31.5794 34.7926C31.8965 34.7926 32.1861 34.3004 32.5861 34.7926C32.6688 34.8883 33.2342 34.4235 33.4962 34.0817C32.7929 33.7809 32.0069 33.8492 31.3311 33.3434ZM41.1913 26.8492C40.6949 27.068 40.3777 27.2183 40.0467 27.3687C39.564 27.5738 38.9435 27.3961 38.8883 26.9176C38.8332 26.357 38.3229 25.9195 38.4884 25.3043C38.5436 25.0855 38.4056 25.0308 38.1988 25.0992C38.0195 25.1675 37.7299 25.0855 37.7299 25.3726C37.7299 25.6051 37.6334 25.9058 37.9644 26.0152C38.3919 26.1519 38.3229 26.3844 38.0471 26.5894C37.7299 26.8355 37.7713 27.1363 37.8127 27.4508C37.8264 27.6012 37.9368 27.6969 38.0885 27.7105C38.2402 27.7105 38.2402 27.5875 38.254 27.4644C38.2815 27.1226 38.516 27.0816 38.7366 27.232C39.1779 27.5328 39.564 27.8062 40.1432 27.8746C40.488 27.9156 40.6673 27.984 40.8052 27.6285C40.8741 27.4371 40.9983 27.232 41.1913 26.8492ZM36.4336 32.7555C35.9509 32.4 35.6613 32.0719 35.1787 31.9762C34.6133 31.8668 34.2409 31.607 34.2961 30.9781C34.3099 30.732 34.2409 30.5406 34.0479 30.3766C33.6066 29.9938 33.3583 30.4039 33.1101 30.6227C32.8895 30.8141 32.7515 31.1559 33.0136 31.3883C33.3859 31.7164 33.579 31.3609 33.7858 30.9098C33.841 31.3746 34.3237 31.5797 34.0203 31.9488C33.9375 32.0445 33.7996 32.0445 33.9375 32.2086C34.0479 32.3317 34.172 32.5094 34.2961 32.3043C34.5305 31.9215 34.8063 32.1813 34.8891 32.3317C35.2338 32.8649 35.7303 32.8102 36.4336 32.7555ZM26.0907 36.2965C25.8701 35.5719 25.5529 34.9157 25.4564 34.1637C25.4288 33.8766 25.0427 33.9449 24.891 34.2047C24.5738 34.7379 24.5048 34.7653 24.036 34.2867C23.9118 34.15 23.7877 34.1364 23.7188 34.2594C23.5809 34.4918 23.4154 34.7653 23.5119 35.0114C23.6085 35.2575 23.8015 35.025 23.967 34.984C24.1187 34.943 24.2152 35.0661 24.3256 35.1344C24.8634 35.4215 25.3598 35.7633 25.677 36.3102C25.746 36.4332 25.8701 36.5153 26.0218 36.4606C26.0494 36.4332 26.0632 36.3375 26.0907 36.2965ZM24.2428 38.6481C23.6222 38.5114 23.5395 38.4567 23.4568 38.2516C23.181 37.445 23.181 37.445 22.519 37.9919C22.3811 38.1149 22.2432 38.2379 22.1053 38.3473C21.9398 38.4704 21.9398 38.5934 22.0915 38.7301C22.3811 39.0036 22.7672 39.1676 23.0844 39.3864C23.2637 39.5094 23.5671 39.0719 23.8291 38.9079C23.9394 38.8395 24.0498 38.7575 24.2428 38.6481ZM37.4955 41.6013C37.0266 41.4645 36.5577 41.6696 36.1578 41.4372C36.0475 41.3688 35.9509 41.2321 35.813 41.3688C35.6613 41.5055 35.8268 41.5876 35.882 41.7106C36.0199 42.0114 36.2819 42.2575 36.1302 42.6813C36.0061 43.0231 36.4336 43.1052 36.7232 43.1872C36.8611 43.2282 37.0956 43.1872 37.0404 43.0778C36.737 42.4489 37.3438 42.1071 37.4955 41.6013ZM41.0948 42.2985C40.9707 42.1071 40.8466 41.861 40.5294 42.0114C39.8261 42.3669 39.3158 42.9684 38.7642 43.488C38.6539 43.5837 38.6539 43.8161 38.8056 43.9255C38.9986 44.0759 39.0814 43.8571 39.1917 43.7614C39.2469 43.7204 39.2882 43.652 39.3296 43.611C39.8399 43.2009 40.0743 42.3806 40.9707 42.5036C41.0396 42.5173 41.15 42.4489 41.0948 42.2985ZM33.4824 40.6032C33.3997 40.6032 33.4687 40.6169 33.5376 40.6032C33.8134 40.5622 34.2133 40.7399 34.2961 40.3571C34.3512 40.0837 34.3237 39.7282 34.0065 39.5094C33.6341 39.2633 33.4411 39.5094 33.2342 39.7692C33.1791 39.8376 33.0825 39.8786 33.0411 39.9469C32.917 40.1657 32.3792 40.07 32.5171 40.4391C32.6274 40.7399 33.0136 40.5348 33.2618 40.5895C33.2894 40.6032 33.317 40.6032 33.4824 40.6032ZM36.5991 34.6422C36.5301 35.0934 36.6405 35.5309 36.6956 35.9821C36.7094 36.1051 36.6818 36.2692 36.8749 36.2692C37.0128 36.2692 37.1231 36.2145 37.2335 36.0914C37.7299 35.5309 37.4265 34.82 36.5991 34.6422ZM41.0534 23.4039C41.0948 23.4039 41.15 23.4039 41.1913 23.4039C41.2741 23.0074 41.3292 22.6246 41.4258 22.2417C41.4947 21.9683 41.3844 21.8042 41.1775 21.6812C41.0258 21.5992 40.8741 21.6128 40.7224 21.7085C40.5018 21.8589 40.5845 22.0503 40.6535 22.2554C40.7914 22.6246 40.9155 23.021 41.0534 23.4039ZM33.2204 29.0641C33.317 27.9566 33.1377 27.7652 32.3378 28.0933C32.0896 28.1891 32.0482 28.4215 31.9931 28.6402C31.9655 28.7769 32.0758 28.9 32.1723 28.8453C32.5999 28.5719 32.8205 29.0504 33.2204 29.0641ZM35.0683 36.4879C35.5648 35.8454 35.551 35.3805 35.1097 34.984C34.9029 34.8063 34.696 34.8063 34.4891 34.9703C34.2823 35.1481 34.3375 35.3258 34.5305 35.4899C34.8063 35.736 35.0683 35.9821 35.0683 36.4879ZM36.3922 38.7848C35.6613 38.6208 34.9167 38.7848 34.1996 38.5524C34.0065 38.4977 34.0065 38.7848 34.0616 38.9762C34.1168 39.1813 34.2271 39.2087 34.4202 39.1266C34.6133 39.0309 34.7374 38.8122 35.027 38.9489C35.4821 39.1813 35.9372 38.9899 36.3922 38.7848ZM22.2156 27.0816C22.4501 26.9449 22.9189 27.273 22.9051 26.6441C22.8914 26.316 22.8224 26.1109 22.4776 26.1109C21.9812 26.1109 21.7192 26.5484 21.6364 26.8629C21.5399 27.191 21.995 26.9449 22.2156 27.0816ZM21.995 21.9136C21.995 21.8726 21.995 21.8179 21.9812 21.7769C21.5675 21.7085 21.1538 21.5855 20.7262 21.5718C20.4504 21.5581 20.2712 21.7496 20.2987 22.064C20.3401 22.3921 20.5608 22.4605 20.8504 22.3511C21.2365 22.2144 21.6088 22.064 21.995 21.9136ZM35.813 22.9937C35.9096 23.4449 35.4683 23.9918 35.9647 24.3062C36.1716 24.4429 36.6405 24.1832 36.6818 23.9371C36.7646 23.4039 36.1716 23.2945 35.813 22.9937ZM33.0274 38.5661C31.7035 38.7165 31.7035 38.7165 32.324 39.8102C32.5033 39.3454 33.0412 39.1676 33.0274 38.5661ZM40.8466 26.1383C40.7225 25.8648 40.4742 25.8648 40.2812 25.9469C40.0053 26.0426 39.5365 25.9468 39.5227 26.3433C39.5089 26.6715 39.9226 26.8082 40.1984 26.7672C40.488 26.7125 40.75 26.4937 40.8466 26.1383ZM24.4359 22.6929C24.5738 22.9527 24.491 23.4312 24.9048 23.4586C25.2219 23.4859 25.2909 23.1031 25.2633 22.857C25.2357 22.5562 25.1116 22.2007 24.7393 22.1734C24.3807 22.1324 24.5186 22.4878 24.4359 22.6929ZM39.2607 24.8941C39.8399 25.3179 40.3087 25.2496 40.5018 24.7847C40.5708 24.6207 40.6259 24.4429 40.4328 24.2925C40.2674 24.1695 40.1432 24.2242 40.0053 24.3336C39.7709 24.5113 39.5365 24.689 39.2607 24.8941ZM23.2085 22.4058C22.9741 22.3785 22.8086 22.5015 22.85 22.6656C22.9465 23.0347 23.1396 23.4175 23.4706 23.5953C23.6498 23.691 23.8153 23.3355 23.8153 23.1851C23.7877 22.8023 23.5533 22.5289 23.2085 22.4058ZM37.3852 26.1656C37.4403 25.4957 37.4817 24.9625 37.5368 24.4293C37.5506 24.2379 37.4265 24.1422 37.2748 24.0738C37.1783 24.0191 37.0956 24.0738 37.0404 24.1558C36.9576 24.2925 36.9852 24.4019 37.1093 24.4976C37.3438 24.6754 37.2472 24.8941 37.1507 25.1129C37.0266 25.4273 36.999 25.7418 37.3852 26.1656ZM31.3725 31.0602C31.1381 31.2106 31.0139 31.2652 31.0002 31.3199C30.9588 31.6617 31.0415 32.0172 30.6692 32.2906C30.5864 32.359 30.7933 32.7555 31.0002 32.7965C31.207 32.8375 31.2622 32.5914 31.2898 32.4C31.3173 32.0035 31.3449 31.5934 31.3725 31.0602ZM36.0199 34.82C35.7992 34.4371 35.4683 34.2867 35.1787 34.0817C34.9856 33.945 34.7512 33.986 34.6822 34.2184C34.5995 34.4645 34.7098 34.6559 34.9994 34.6969C35.3166 34.7379 35.6338 34.7653 36.0199 34.82ZM36.2957 22.775C36.6267 22.775 36.806 22.9664 36.999 23.1304C37.0956 23.2125 37.261 23.2671 37.3714 23.1714C37.4265 23.1168 37.4127 22.9664 37.3989 22.857C37.3714 22.6656 37.3576 22.3375 37.1783 22.3511C36.8749 22.3511 36.5577 22.4605 36.2957 22.775ZM41.5085 44.8825C41.5499 44.363 41.15 43.9938 41.2189 43.4333C40.6121 44.1442 40.6397 44.3083 41.5085 44.8825ZM25.8563 34.6969C26.3252 34.5602 26.6975 34.4098 26.7527 33.9313C26.7665 33.8082 26.5596 33.6852 26.4355 33.7262C25.9804 33.8629 25.8011 34.191 25.8563 34.6969ZM35.6476 39.4411C35.22 39.6872 35.1235 40.2067 34.7512 40.4665C34.7374 40.4801 34.765 40.6032 34.7925 40.6442C34.8615 40.7262 34.9718 40.7262 35.0408 40.6716C35.3717 40.3571 35.9785 40.1794 35.6476 39.4411ZM39.7985 21.7496C39.371 21.9683 38.6815 21.941 38.8194 22.7613C39.1917 22.4332 39.6054 22.2007 39.7985 21.7496ZM26.3252 37.7868C26.601 38.1012 26.7527 38.443 27.1388 38.6208C27.1526 37.7731 27.1388 37.7594 26.3252 37.7868ZM21.8019 25.5367C21.4985 25.5504 21.14 25.4273 21.0158 25.6871C20.9055 25.9195 21.0848 26.1793 21.333 26.3844C21.5123 26.0836 21.664 25.8101 21.8019 25.5367ZM20.4918 23.1851C20.74 23.5132 20.6435 24.1695 21.3744 24.0875C21.2227 23.6363 20.7538 23.5132 20.4918 23.1851ZM35.7165 24.9351C35.8544 25.2769 36.213 25.3726 36.5164 25.5367C36.6267 25.5914 36.7922 25.523 36.737 25.4C36.5991 25.0445 36.1578 25.0445 35.9372 24.7437C35.8958 24.648 35.7579 24.7574 35.7165 24.9351ZM23.3464 27.0269C23.7188 27.0543 23.8567 26.7945 24.0084 26.5894C24.1049 26.4664 24.1739 26.2203 23.9532 26.1383C23.7739 26.0699 23.6498 26.2613 23.6498 26.4117C23.6498 26.6715 23.3051 26.7125 23.3464 27.0269ZM42.4876 41.1911C42.4601 40.945 42.3084 40.7946 42.0739 40.7262C41.9222 40.6852 41.8119 40.7809 41.7981 40.945C41.7843 41.2048 41.9222 41.3962 42.1567 41.4645C42.3359 41.5192 42.4601 41.3962 42.4876 41.1911ZM41.2327 19.3159C41.0534 19.1929 40.9293 19.0699 40.7914 19.0152C40.4742 18.8921 40.3777 19.2202 40.1984 19.357C40.1157 19.4116 40.0881 19.521 40.1846 19.5894C40.3915 19.7124 40.5156 19.521 40.6397 19.4116C40.8052 19.2476 40.9845 19.4527 41.2327 19.3159ZM24.1049 22.2691C23.7877 22.0777 23.5395 21.7769 23.112 21.8179C23.0844 21.8179 23.0293 21.9546 23.043 21.9957C23.2775 22.3375 23.6774 22.2417 24.0084 22.3375C24.036 22.3375 24.0498 22.3101 24.1049 22.2691ZM32.393 27.3551C32.3516 27.1773 32.2137 27.0953 32.0896 27.1363C31.869 27.2183 31.5794 27.2594 31.5656 27.5601C31.5656 27.6695 31.7035 27.7515 31.8138 27.7105C32.0482 27.6558 32.2827 27.5738 32.393 27.3551ZM23.8015 35.4762C23.6085 35.8454 23.181 35.8317 23.1947 36.2418C23.1947 36.3512 23.3051 36.3922 23.4016 36.3649C23.7464 36.2418 23.8567 35.9821 23.8015 35.4762ZM40.6949 25.482C40.75 25.4957 40.8052 25.4957 40.8604 25.5093C40.9707 25.2906 41.0948 25.0855 41.2051 24.8668C41.3292 24.648 41.2327 24.5113 41.0258 24.4566C40.819 24.4156 40.75 24.5797 40.7362 24.7437C40.7087 24.9898 40.6949 25.2359 40.6949 25.482ZM24.8082 38.9079C25.1668 38.9215 25.3323 38.5797 25.6081 38.5387C25.7184 38.5251 25.8701 38.5251 25.7736 38.3473C25.7184 38.2379 25.6219 38.0739 25.4702 38.2106C25.2357 38.402 24.9186 38.5251 24.8082 38.9079ZM22.4914 37.0348C22.1329 36.9665 21.8984 36.9938 21.7743 37.2536C21.733 37.3493 21.7743 37.4997 21.8984 37.527C22.257 37.609 22.3122 37.2809 22.4914 37.0348ZM39.302 38.7165C39.4399 38.6754 39.6606 38.7028 39.6468 38.484C39.6468 38.3063 39.4537 38.2516 39.302 38.2379C39.1503 38.2243 39.0124 38.32 38.9848 38.443C38.9435 38.6481 39.1365 38.6891 39.302 38.7165ZM22.0915 41.0954C22.257 41.0407 22.4914 41.0134 22.4776 40.7946C22.4638 40.6442 22.2846 40.5485 22.1191 40.5622C21.926 40.5759 21.8433 40.7126 21.8433 40.8903C21.8157 41.0544 21.9122 41.1227 22.0915 41.0954ZM26.2838 40.9313C26.0356 40.945 25.8563 40.945 25.677 40.9723C25.5253 40.9997 25.4426 40.5212 25.3047 40.8766C25.2082 41.1091 25.5391 41.1364 25.7184 41.2048C25.939 41.3005 26.1045 41.1911 26.2838 40.9313ZM23.2085 43.8981C23.2085 43.5563 23.1258 43.2966 22.7672 43.3102C22.6983 43.3102 22.5742 43.4196 22.5742 43.4743C22.588 43.8981 23.0568 43.6657 23.2085 43.8981ZM41.7981 23.7593C41.9636 23.691 42.1705 23.6226 42.198 23.3902C42.2118 23.2398 42.0877 23.2125 41.9774 23.2261C41.7567 23.2535 41.5775 23.3355 41.5637 23.5679C41.5637 23.691 41.6464 23.7593 41.7981 23.7593ZM38.5022 42.654C38.4884 42.5036 38.4194 42.3806 38.254 42.3806C38.0885 42.3806 37.9092 42.4626 37.8954 42.6266C37.8678 42.8317 38.0471 42.8727 38.2264 42.8727C38.3781 42.8864 38.4884 42.8317 38.5022 42.654ZM21.7743 22.6929C21.6226 23.1851 22.3949 22.9937 22.2984 23.4175C22.3673 23.3492 22.4776 23.2945 22.4776 23.2261C22.4776 22.898 22.1467 22.9117 21.9674 22.775C21.926 22.7339 21.8571 22.7203 21.7743 22.6929ZM36.2543 21.7496C36.1854 21.5718 36.0475 21.5855 35.9096 21.6128C35.7027 21.6539 35.5924 21.7906 35.5924 21.982C35.5924 22.1324 35.6889 22.1871 35.813 22.1187C35.9785 22.0093 36.1992 21.9683 36.2543 21.7496ZM36.9025 40.7809C36.9163 40.5895 36.7646 40.5348 36.6405 40.5212C36.5026 40.5075 36.3647 40.6032 36.3509 40.7536C36.3509 40.8766 36.3922 41.0544 36.5577 41.068C36.7508 41.0817 36.8335 40.9313 36.9025 40.7809Z" fill="#FA0000"/>
<path d="M32.6964 26.234C32.724 26.234 32.7515 26.234 32.7791 26.2203C32.7791 26.234 32.7791 26.2613 32.7791 26.275C32.7515 26.2613 32.724 26.234 32.6964 26.2203C32.7102 26.2203 32.6964 26.234 32.6964 26.234Z" fill="#FA0000"/>
<defs>
<radialGradient id="paint0_radial_15817_143431" cx="0" cy="0" r="1" gradientUnits="userSpaceOnUse" gradientTransform="translate(32 32) rotate(90) scale(32)">
<stop stop-opacity="0"/>
<stop offset="1" stop-color="white"/>
</radialGradient>
<linearGradient id="paint1_linear_15817_143431" x1="32" y1="0" x2="32" y2="64" gradientUnits="userSpaceOnUse">
<stop stop-color="#4B4C4D"/>
<stop offset="1" stop-opacity="0"/>
</linearGradient>
</defs>
</svg>
