<svg width="64" height="64" viewBox="0 0 64 64" fill="none" xmlns="http://www.w3.org/2000/svg">
<circle cx="32" cy="32" r="31.75" fill="url(#paint0_radial_16369_164046)" fill-opacity="0.05" stroke="url(#paint1_linear_16369_164046)" stroke-width="0.5"/>
<circle cx="32" cy="32" r="18" fill="url(#paint2_linear_16369_164046)"/>
<path d="M20.4829 45.8337L27.2692 40.3077L34.6538 33.7308V24.7308L39.8462 21.8462L45.6019 20.2103C42.3016 16.406 37.4318 14 32 14C22.0589 14 14 22.0589 14 32C14 37.5604 16.5212 42.5319 20.4829 45.8337Z" fill="url(#paint3_linear_16369_164046)"/>
<path d="M46.1454 20.8674C43.5358 21.14 39.2574 22.191 38.4614 24.7883C37.6988 27.2769 37.8298 28.7602 37.9801 30.4622C38.0459 31.2065 38.1153 31.9926 38.1153 32.9229C38.1153 35.9806 36.4422 40.0191 29.8076 42.9614C26.397 44.4739 23.5026 45.7498 21.507 46.6268C20.8737 46.1717 20.2713 45.6766 19.7033 45.145L25.5384 36.5575C26.8845 36.7114 29.8999 36.5922 31.1922 34.8845C29.4999 35.8075 24.4999 36.3383 18.0384 31.0768C17.8039 30.8858 17.4875 30.6005 17.1232 30.2721L17.1228 30.2717L17.1224 30.2713C16.335 29.5613 15.3243 28.6499 14.4338 28.0536C14.7296 26.7312 15.1709 25.4637 15.7401 24.2688C16.8996 24.5545 19.5226 25.3039 22.4807 26.4614C25.6653 27.7075 28.8461 28.9422 30.0384 29.4037C30.3268 28.7114 30.9614 27.0614 31.1922 25.9998L31.1996 25.9658C31.4945 24.6081 32.3199 20.8075 36.0384 20.8075C36.8461 20.9229 38.6461 21.1537 39.3845 21.1537C40.05 21.1537 43.2959 20.3727 45.296 19.8665C45.591 20.1896 45.8743 20.5234 46.1454 20.8674Z" fill="white"/>
<path d="M29.5768 28.4229C29.2884 24.9422 28.2038 17.8075 26.173 17.1152C26.1153 17.1345 25.9653 17.796 25.8268 20.2883C25.7891 20.9679 25.7294 21.6256 25.6728 22.2481C25.4702 24.4792 25.3086 26.2589 26.3461 26.9806C27.673 27.9037 28.5961 28.4229 29.5768 28.4229Z" fill="white"/>
<defs>
<radialGradient id="paint0_radial_16369_164046" cx="0" cy="0" r="1" gradientUnits="userSpaceOnUse" gradientTransform="translate(32 32) rotate(90) scale(32)">
<stop stop-opacity="0"/>
<stop offset="1" stop-color="white"/>
</radialGradient>
<linearGradient id="paint1_linear_16369_164046" x1="32" y1="0" x2="32" y2="64" gradientUnits="userSpaceOnUse">
<stop stop-color="#4B4C4D"/>
<stop offset="1" stop-opacity="0"/>
</linearGradient>
<linearGradient id="paint2_linear_16369_164046" x1="32" y1="14" x2="32" y2="50" gradientUnits="userSpaceOnUse">
<stop stop-color="#EC586D"/>
<stop offset="1" stop-color="#D33C4D"/>
</linearGradient>
<linearGradient id="paint3_linear_16369_164046" x1="35" y1="14" x2="29.801" y2="45.8337" gradientUnits="userSpaceOnUse">
<stop stop-color="#4299E6"/>
<stop offset="1" stop-color="#225DE8"/>
</linearGradient>
</defs>
</svg>
