<svg width="64" height="64" viewBox="0 0 64 64" fill="none" xmlns="http://www.w3.org/2000/svg">
<circle cx="32" cy="32" r="31.75" fill="url(#paint0_radial)" fill-opacity="0.05" stroke="url(#paint1_linear)" stroke-width="0.5"/>
<path fill-rule="evenodd" clip-rule="evenodd" d="M32 48C40.8366 48 48 40.8366 48 32C48 23.1634 40.8366 16 32 16C23.1634 16 16 23.1634 16 32C16 40.8366 23.1634 48 32 48ZM31.2001 45.6001C39.153 45.6001 45.6001 39.153 45.6001 31.2001C45.6001 23.2472 39.153 16.8001 31.2001 16.8001C23.2472 16.8001 16.8001 23.2472 16.8001 31.2001C16.8001 39.153 23.2472 45.6001 31.2001 45.6001Z" fill="#F0913B"/>
<path opacity="0.7" fill-rule="evenodd" clip-rule="evenodd" d="M31.1999 45.8665C39.3 45.8665 45.8665 39.3 45.8665 31.1999C45.8665 23.0997 39.3 16.5332 31.1999 16.5332C23.0997 16.5332 16.5332 23.0997 16.5332 31.1999C16.5332 39.3 23.0997 45.8665 31.1999 45.8665ZM32 45.333C39.3638 45.333 45.3333 39.3635 45.3333 31.9997C45.3333 24.6359 39.3638 18.6663 32 18.6663C24.6362 18.6663 18.6667 24.6359 18.6667 31.9997C18.6667 39.3635 24.6362 45.333 32 45.333Z" fill="#FF7A00"/>
<path opacity="0.3" fill-rule="evenodd" clip-rule="evenodd" d="M30.4002 43.1998C37.4694 43.1998 43.2002 37.4691 43.2002 30.3998C43.2002 26.0134 40.9938 22.1424 37.6304 19.8359C42.3275 21.9388 45.5999 26.6539 45.5999 32.1332C45.5999 39.5706 39.5707 45.5999 32.1333 45.5999C26.653 45.5999 21.9374 42.3264 19.835 37.628C22.1413 40.9926 26.013 43.1998 30.4002 43.1998Z" fill="#F0913B"/>
<defs>
<radialGradient id="paint0_radial" cx="0" cy="0" r="1" gradientUnits="userSpaceOnUse" gradientTransform="translate(32 32) rotate(90) scale(32)">
<stop stop-opacity="0"/>
<stop offset="1" stop-color="white"/>
</radialGradient>
<linearGradient id="paint1_linear" x1="32" y1="0" x2="32" y2="64" gradientUnits="userSpaceOnUse">
<stop stop-color="#4B4C4D"/>
<stop offset="1" stop-opacity="0"/>
</linearGradient>
</defs>
</svg>
