<svg xmlns="http://www.w3.org/2000/svg" xmlns:xlink="http://www.w3.org/1999/xlink" width="61.3" height="48.761" viewBox="0 0 61.3 48.761"><defs><style>.a{fill:#ff8bff;}.b{fill:url(#a);}.c{fill:url(#b);}.d{fill:url(#c);}.e{fill:url(#d);}.f{fill:url(#e);}.g{fill:url(#f);}.h{fill:url(#g);}.i{fill:url(#h);}.j{fill:url(#i);}.k{fill:#ffc727;}.l{fill:url(#j);}.m{fill:url(#k);}.n{fill:url(#l);}.o{fill:#ffae27;}.p{fill:url(#m);}.q{fill:url(#n);}.r{fill:url(#o);}.s{fill:url(#p);}.ag,.bh,.t{mix-blend-mode:multiply;}.ag,.ax,.ba,.bh,.t,.v{isolation:isolate;}.u{fill:#ffa7ff;}.ag,.as,.v{opacity:0.3;}.ba,.v{mix-blend-mode:overlay;}.w{fill:#a495ff;}.x{fill:url(#q);}.y{fill:#de2b64;}.z{fill:#ff8b9e;}.aa{fill:url(#r);}.ab{fill:#c0c0ff;}.ac{fill:url(#s);}.ad{fill:url(#t);}.ae{fill:url(#u);}.af{fill:url(#v);}.ah{fill:url(#w);}.ai{fill:#4f1594;}.aj{fill:#aeaeff;}.ak,.bg{fill:#a656c7;}.al{fill:url(#x);}.am{fill:url(#y);}.an{fill:url(#z);}.ao{fill:url(#aa);}.ap{fill:url(#ab);}.aq{fill:url(#ac);}.ar{fill:url(#ad);}.at{fill:#fff;}.au{fill:#ffae5e;}.av{fill:#ffd18b;}.aw{fill:#fff28b;}.ax{mix-blend-mode:screen;}.ay{fill:#a2b8ff;}.az{fill:#e65686;}.bb{fill:#ffceff;}.bc{fill:url(#ae);}.bd{fill:url(#af);}.be{fill:url(#ag);}.bf{fill:#e3611b;}.bg,.bm{fill-rule:evenodd;}.bh{opacity:0.5;}.bi{fill:#cdc4df;}.bj{fill:#9affff;}.bk{fill:url(#ah);}.bl{fill:url(#ai);}.bm{fill:url(#aj);}.bn{fill:url(#ak);}.bo{fill:url(#al);}.bp{fill:url(#am);}.bq{fill:url(#an);}</style><linearGradient id="a" x1="0.39" y1="1.064" x2="0.567" y2="-0.57" gradientUnits="objectBoundingBox"><stop offset="0" stop-color="#5a38b5"/><stop offset="0.379" stop-color="#5e3bba"/><stop offset="0.799" stop-color="#6b43c7"/><stop offset="1" stop-color="#7349d0"/></linearGradient><linearGradient id="b" x1="0.53" y1="0.877" x2="0.447" y2="-0.424" gradientUnits="objectBoundingBox"><stop offset="0" stop-color="#471790"/><stop offset="0.434" stop-color="#4b1895"/><stop offset="0.915" stop-color="#571ba2"/><stop offset="1" stop-color="#5a1ca5"/></linearGradient><linearGradient id="c" x1="0.5" y1="1" x2="0.5" y2="0.001" gradientUnits="objectBoundingBox"><stop offset="0" stop-color="#8568e3"/><stop offset="0.487" stop-color="#8767e8"/><stop offset="1" stop-color="#8e64f4"/></linearGradient><linearGradient id="d" y1="0.5" x2="1" y2="0.5" gradientUnits="objectBoundingBox"><stop offset="0" stop-color="#3ba2ff"/><stop offset="0.185" stop-color="#3ba6fa"/><stop offset="0.39" stop-color="#3db2ed"/><stop offset="0.605" stop-color="#3fc7d7"/><stop offset="0.825" stop-color="#43e3b8"/><stop offset="1" stop-color="#46ff9a"/></linearGradient><linearGradient id="e" x1="0.379" y1="2.628" x2="0.51" y2="0.043" xlink:href="#a"/><linearGradient id="f" x1="0.498" y1="1" x2="0.502" gradientUnits="objectBoundingBox"><stop offset="0" stop-color="#9c85eb"/><stop offset="0.413" stop-color="#a188ee"/><stop offset="0.871" stop-color="#ae91f5"/><stop offset="1" stop-color="#b395f8"/></linearGradient><linearGradient id="g" x1="0.581" y1="2.15" x2="0.507" y2="0.35" xlink:href="#b"/><linearGradient id="h" y1="0.501" x2="1" y2="0.501" gradientUnits="objectBoundingBox"><stop offset="0" stop-color="#fc6c1f"/><stop offset="0.053" stop-color="#fc781e"/><stop offset="0.227" stop-color="#fd981a"/><stop offset="0.407" stop-color="#feb218"/><stop offset="0.592" stop-color="#ffc516"/><stop offset="0.785" stop-color="#ffcf14"/><stop offset="1" stop-color="#ffd314"/></linearGradient><linearGradient id="i" x1="0.501" y1="1" x2="0.501" gradientUnits="objectBoundingBox"><stop offset="0" stop-color="#b34045"/><stop offset="0.052" stop-color="#b64343"/><stop offset="0.65" stop-color="#cf5e34"/><stop offset="1" stop-color="#d8682e"/></linearGradient><linearGradient id="j" x1="0.5" y1="1" x2="0.5" gradientUnits="objectBoundingBox"><stop offset="0" stop-color="#fc4b32"/><stop offset="0.213" stop-color="#ee4335"/><stop offset="0.709" stop-color="#d3323a"/><stop offset="1" stop-color="#c92c3c"/></linearGradient><linearGradient id="k" x1="0.5" y1="1" x2="0.5" y2="-0.001" gradientUnits="objectBoundingBox"><stop offset="0" stop-color="#fc6c1f"/><stop offset="0.603" stop-color="#fe8417"/><stop offset="1" stop-color="#ff8e14"/></linearGradient><linearGradient id="l" x1="0.5" y1="1" x2="0.5" y2="0" xlink:href="#k"/><linearGradient id="m" x1="0.5" y1="1" x2="0.5" gradientUnits="objectBoundingBox"><stop offset="0" stop-color="#b90a65"/><stop offset="0.257" stop-color="#af1153"/><stop offset="0.725" stop-color="#a11d38"/><stop offset="1" stop-color="#9b212e"/></linearGradient><linearGradient id="n" x1="0.5" y1="1" x2="0.5" y2="0" xlink:href="#k"/><linearGradient id="o" x1="0.5" y1="1.001" x2="0.5" y2="-0.001" xlink:href="#c"/><linearGradient id="p" x1="0.425" y1="1.683" x2="0.512" y2="0.218" gradientUnits="objectBoundingBox"><stop offset="0" stop-color="#5a38b5"/><stop offset="0.371" stop-color="#5f3bb5"/><stop offset="0.783" stop-color="#6c44b6"/><stop offset="1" stop-color="#764bb7"/></linearGradient><linearGradient id="q" x1="0.499" y1="1.001" x2="0.499" y2="-0.001" gradientUnits="objectBoundingBox"><stop offset="0" stop-color="#870079"/><stop offset="0.628" stop-color="#a0015e"/><stop offset="1" stop-color="#aa0254"/></linearGradient><linearGradient id="r" x1="0.158" y1="1" x2="0.794" y2="0" xlink:href="#q"/><linearGradient id="s" x1="0.5" y1="1" x2="0.5" y2="0" xlink:href="#m"/><linearGradient id="t" x1="0.5" y1="1.001" x2="0.5" gradientUnits="objectBoundingBox"><stop offset="0" stop-color="#fcb11f"/><stop offset="0.062" stop-color="#fcb11e"/><stop offset="1" stop-color="#ffb214"/></linearGradient><linearGradient id="u" x1="0.5" y1="1.001" x2="0.5" y2="0" xlink:href="#k"/><linearGradient id="v" y1="0.501" x2="1" y2="0.501" gradientUnits="objectBoundingBox"><stop offset="0" stop-color="#e6235d"/><stop offset="0.224" stop-color="#db2d4e"/><stop offset="0.713" stop-color="#c64033"/><stop offset="1" stop-color="#be4729"/></linearGradient><linearGradient id="w" x1="0.5" y1="1" x2="0.5" gradientUnits="objectBoundingBox"><stop offset="0" stop-color="#3b0877"/><stop offset="0.329" stop-color="#3c077c"/><stop offset="0.693" stop-color="#410489"/><stop offset="1" stop-color="#46019a"/></linearGradient><linearGradient id="x" x1="0.523" y1="0.847" x2="0.445" y2="-0.35" xlink:href="#b"/><linearGradient id="y" x1="0.5" y1="1" x2="0.5" y2="-0.001" xlink:href="#c"/><linearGradient id="z" x1="0.5" y1="1.002" x2="0.5" y2="-0.001" xlink:href="#w"/><linearGradient id="aa" x1="0.5" y1="1" x2="0.5" y2="0.001" gradientUnits="objectBoundingBox"><stop offset="0" stop-color="#1d2048"/><stop offset="0.403" stop-color="#1e1136"/><stop offset="1" stop-color="#2a1036"/></linearGradient><linearGradient id="ab" x1="0.614" y1="5.112" x2="0.462" y2="-1.015" gradientUnits="objectBoundingBox"><stop offset="0" stop-color="#3b59ff"/><stop offset="0.141" stop-color="#3b5efc"/><stop offset="0.298" stop-color="#3c6bf4"/><stop offset="0.462" stop-color="#3e81e7"/><stop offset="0.631" stop-color="#40a0d4"/><stop offset="0.804" stop-color="#42c8bb"/><stop offset="0.978" stop-color="#46f89e"/><stop offset="1" stop-color="#46ff9a"/></linearGradient><linearGradient id="ac" x1="0.574" y1="3.488" x2="0.421" y2="-2.766" xlink:href="#ab"/><linearGradient id="ad" x1="0.532" y1="1.816" x2="0.377" y2="-4.571" xlink:href="#ab"/><linearGradient id="ae" x1="0.5" y1="1" x2="0.5" y2="-0.001" xlink:href="#a"/><linearGradient id="af" x1="0.5" y1="1.001" x2="0.5" y2="-0.003" gradientUnits="objectBoundingBox"><stop offset="0" stop-color="#8568e3"/><stop offset="0.277" stop-color="#866de5"/><stop offset="0.584" stop-color="#887ae9"/><stop offset="0.905" stop-color="#8c90f1"/><stop offset="1" stop-color="#8e98f4"/></linearGradient><linearGradient id="ag" x1="0.503" y1="1.001" x2="0.503" y2="0" xlink:href="#b"/><linearGradient id="ah" x1="0.5" y1="0.999" x2="0.5" y2="-0.001" xlink:href="#c"/><linearGradient id="ai" x1="0.501" y1="1" x2="0.501" y2="0" xlink:href="#c"/><linearGradient id="aj" x1="0.502" y1="1.003" x2="0.502" y2="0.002" xlink:href="#c"/><linearGradient id="ak" x1="0.503" y1="1.002" x2="0.503" y2="0.001" xlink:href="#c"/><linearGradient id="al" x1="0.508" y1="0.999" x2="0.508" y2="-0.003" xlink:href="#c"/><linearGradient id="am" x1="0.5" y1="1" x2="0.5" y2="0" xlink:href="#c"/><linearGradient id="an" x1="0.501" y1="1" x2="0.501" y2="-0.001" gradientUnits="objectBoundingBox"><stop offset="0" stop-color="#ffc534"/><stop offset="0.447" stop-color="#ffb92d"/><stop offset="1" stop-color="#ffaf27"/></linearGradient></defs><path class="a" d="M1.748,28.058,6.6,40.143,16.564,42.3,11.1,0l-.983,2.762L6.59,3.042,0,6.125,2.245,17.071l2.711.321a5.789,5.789,0,0,1,.352,2.038c-.176.414-2.359.352-2.359.352s1.8,6.425,1.624,7.17S1.748,28.058,1.748,28.058Z"/><path class="b" d="M228.117,239.058l27.924-3.29,6.042-19.368L227.3,218.521Z" transform="translate(-203.784 -194.011)"/><path class="c" d="M55.971,199.611,36.2,194.8l4.283,19.513,16.305,5.877Z" transform="translate(-32.455 -174.646)"/><path class="d" d="M55.971,191.632l34.783-2.576-26.7-3.156-27.851.921Z" transform="translate(-32.455 -166.667)"/><path class="e" d="M56.262,165.49l17.536,4.1,31.576-2.307.735-4.79L55.6,161.9Z" transform="translate(-49.848 -145.15)"/><path class="f" d="M73.134,35.432l-4.707-3.849L36.168,33.166,18.435,29.4,13.2,32.483l1.769,9.943,20.123,5.245L70.558,45.6Z" transform="translate(-11.834 -26.358)"/><path class="g" d="M81.533,20.076l32.259-1.583L82.7,14.8,63.8,16.311Z" transform="translate(-57.199 -13.269)"/><path class="h" d="M18.435,29.4,13.2,32.483l1.769,9.943,20.123,5.245-.528-10.087,1.6-4.418Z" transform="translate(-11.834 -26.358)"/><path class="i" d="M179.809,309.683l-7.325.31-3.631-.693-3.052.869,7.4,1.924,8.732-.693Z" transform="translate(-148.646 -277.3)"/><path class="j" d="M461.324,314.9l-2.2-1.7-1.221,6.29,1.852,1.6Z" transform="translate(-410.526 -280.796)"/><path class="k" d="M471.9,299.924l7.5-1-2.586-2.421-.341,1.086-6.777.641Z" transform="translate(-421.105 -265.824)"/><path class="l" d="M94.359,302.946l-.786-.279L92.445,291.7l-3.145.5,1.873,11.184Z" transform="translate(-80.061 -261.521)"/><path class="m" d="M29.162,268.652l-.083-.352-2.68.807,6.549,2.349,3.1-.735Z" transform="translate(-23.669 -240.542)"/><path class="n" d="M237.972,335.564l29.052-4.076.062-.176,3.963-11.412-7.5,1-1.573,6.2-16.192,1.717.248-7.915-8.732.693Z" transform="translate(-212.749 -286.803)"/><path class="o" d="M333.639,374l-14.277,1.169-.062,2.09,16.192-1.655Z" transform="translate(-286.265 -335.306)"/><path class="p" d="M40.822,280.4l.714,6.911-7.625-3.125-.962-5.742L26.4,276.1l3.869,11.577L48.892,296.3l-.672-13.967Z" transform="translate(-23.669 -247.535)"/><path class="q" d="M106.656,350.783l-.217-2.235-4.894-1.748L99,347.576Z" transform="translate(-88.757 -310.92)"/><path class="r" d="M258.27,54.349,253.563,50.5,221.3,52.083,219.7,56.5Z" transform="translate(-196.97 -45.275)"/><path class="s" d="M34.565,37.584l1.6-4.418L18.435,29.4,13.2,32.483Z" transform="translate(-11.834 -26.358)"/><g class="t" transform="translate(5.752 16.75)"><path class="u" d="M73.105,166.463,55.6,161.9l.662,3.59,17.536,4.1.134-2.183,31.721-2.1.134-.714Z" transform="translate(-55.6 -161.9)"/></g><g class="v" transform="translate(23.008 11.321)"><path class="w" d="M224.029,118.093c1.635,1.479,8.856.569,9.322-1.883s1.821-5.69.91-6.135-10.284-.869-11.619-.517C222.074,109.713,222.395,116.613,224.029,118.093Z" transform="translate(-222.383 -109.426)"/></g><path class="x" d="M234.362,125.842l1.831-.093-.817-7.449H233.4Z" transform="translate(-209.252 -106.061)"/><path class="y" d="M234.259,125.594l1.635-.093-.724-7.2H233.4Z" transform="translate(-209.252 -106.061)"/><path class="z" d="M242.7,187.993v.248l1.831-.093-.3-.248Z" transform="translate(-217.59 -168.46)"/><path class="aa" d="M542.9,105.918l1.852-.093,1.355-7.625h-1.976Z" transform="translate(-486.732 -88.04)"/><path class="y" d="M542.6,105.659l1.655-.093,1.376-7.366h-1.769Z" transform="translate(-486.463 -88.04)"/><path class="z" d="M542.972,169.493l-.072.259,1.852-.093-.228-.259Z" transform="translate(-486.732 -151.874)"/><path class="ab" d="M81.533,33.166l10.553-.641s-8.763.166-11.381-.269S63.8,29.4,63.8,29.4Z" transform="translate(-57.199 -26.358)"/><path class="ac" d="M129.9,6.166l3.528,4.18,1.055-2.783L130.6,3.156,107.4,0V2.576Z" transform="translate(-96.288)"/><path class="ad" d="M130.989,3.59l9.849-.435L119.9,0H107.4Z" transform="translate(-96.288)"/><path class="ae" d="M349,34.338,345.249,30.5l-9.849.435,3.5,3.973-1.055,2.783,9.736-.538Z" transform="translate(-300.699 -27.344)"/><path class="af" d="M359,70.952l9.736-.538,1.428-2.814-10.108.569Z" transform="translate(-321.858 -60.606)"/><g class="ag" transform="translate(2.416 7.139)"><path class="w" d="M24.42,77.37c1.273.807,11.05,3.393,11.225,2.586s-1.459-6.114-4.469-8.494S23.365,69,23.365,69,23.137,76.573,24.42,77.37Z" transform="translate(-23.349 -69)"/></g><g class="ag" transform="translate(4.263 20.589)"><path class="w" d="M44.493,206.159c3.29,2.835,10.76,2.99,11.35,1.583s-3.207-5.483-7.128-6.528S41.472,199,41.472,199C40.81,199.1,41.213,203.325,44.493,206.159Z" transform="translate(-41.203 -199)"/></g><path class="ah" d="M67.757,100.308l-1.024-7.8L55.3,89.6l1.2,7.78Z" transform="translate(-49.579 -80.33)"/><path class="ai" d="M73.943,101.832l-.8-7.749L62.2,91.3l1.117,7.77Z" transform="translate(-55.765 -81.854)"/><path class="aj" d="M470.615,46.107l-4.242-.507-4.573.931Z" transform="translate(-414.022 -40.882)"/><g class="t" transform="translate(9.239 2.286)"><path class="ak" d="M117.2,30.16l-3.528-4.18L91.669,22.1l-2.369.548,21.975,3.921,3.093,4.469,4.325-.559,6.508-.435.973-.3Z" transform="translate(-89.3 -22.1)"/></g><g class="v" transform="translate(27.916 23.978)"><path class="w" d="M279.794,239.785c5.194,1.117,12.953-4.542,13.346-6.828s-20.413-.838-22.813.61S274.59,238.668,279.794,239.785Z" transform="translate(-269.823 -231.763)"/></g><path class="al" d="M359.3,257.646l8.184-.941,1.5-11.2-9.187.538Z" transform="translate(-322.127 -220.101)"/><path class="am" d="M365.652,318l-6.166.176-.186,4.47,8.184-.941Z" transform="translate(-322.127 -285.1)"/><path class="an" d="M363.741,246.038l-.041.983,6.4-.414,2.824-1.107Z" transform="translate(-326.072 -220.101)"/><path class="ao" d="M360.9,263.225l6.187-.631.507-6.394-6.4.414Z" transform="translate(-323.561 -229.694)"/><path class="ap" d="M380.783,268.8l-3.663.29-.021.724,3.642-.29Z" transform="translate(-338.085 -240.99)"/><path class="aq" d="M380.242,285.6l-3.621.29-.021.7,3.611-.279Z" transform="translate(-337.637 -256.052)"/><path class="ar" d="M379.8,302.2l-3.58.279-.021.693,3.569-.279Z" transform="translate(-337.278 -270.934)"/><g class="v" transform="translate(35.441 11.195)"><path class="w" d="M359.3,116.257c2.824-1.169,4.707-6.094,3.756-7.19s-6.735-1.19-12.394,0-9.87,6.694-7.366,7.387C343.3,116.454,356.49,117.416,359.3,116.257Z" transform="translate(-342.56 -108.209)"/></g><g class="v" transform="translate(3.745 31.229)"><path class="w" d="M39.055,310.766,54.068,317.8l-7.315-6.239s-9.932-10.418-10.553-9.684Z" transform="translate(-36.2 -301.841)"/></g><g class="as" transform="translate(34.49 40.698)"><path class="w" d="M353.158,397.353s-.1-3.807-5.69-3.983-15.478,6.352-13.946,6.715Z" transform="translate(-333.363 -393.366)"/></g><g class="t" transform="translate(33.035 39.311)"><path class="at" d="M330.65,379.967a58.852,58.852,0,0,0-9.9,1.221l-1.448,1.417,16.192-1.655S334.26,380.05,330.65,379.967Z" transform="translate(-319.3 -379.963)"/></g><g class="t" transform="translate(19.699 1.169)"><path class="at" d="M203.146,13.38c2.245.341,11.081-.093,11.081-.093l-9.487-1.355L190.4,11.3S200.9,13.038,203.146,13.38Z" transform="translate(-190.4 -11.3)"/></g><path class="ak" d="M433.386,315.238l-1.086,4.469,2.649-.217,1.221-6.29Z" transform="translate(-387.574 -280.796)"/><path class="ak" d="M29.162,268.652l-.083-.352-2.68.807,1.531.548,6.715.641Z" transform="translate(-23.669 -240.542)"/><path class="au" d="M75.9,293.769l1.976-.466s-1.769.321-2,.321A15.052,15.052,0,0,1,74.3,293.2Z" transform="translate(-66.613 -262.866)"/><path class="av" d="M173.218,320.048l8.711-1.117-8.732.693-7.4-1.924Z" transform="translate(-148.646 -284.831)"/><path class="aw" d="M478.663,314.076s-5.628.455-6.239.455A12.781,12.781,0,0,1,469.6,313.3l2.214,1.686Z" transform="translate(-421.015 -280.886)"/><g class="ax" transform="translate(37.173 36.236)"><path class="at" d="M367.484,350.608a1.139,1.139,0,0,0-1.024-.341c-.579.145-7.159,1.283-7.159,1.283Z" transform="translate(-359.3 -350.239)"/></g><path class="ay" d="M259.932,216.4s-25.793,1.448-35.032,2.524C224.9,218.924,253.051,217.745,259.932,216.4Z" transform="translate(-201.632 -194.011)"/><path class="at" d="M338.9,38.663,349,38.1s-9.26.01-9.767-.248S335.4,34.7,335.4,34.7Z" transform="translate(-300.699 -31.11)"/><path class="az" d="M272.862,354.18l3.114-8.98s-2.473,6.859-4.273,7.966-27.9,5.08-27.9,5.08Z" transform="translate(-218.576 -309.486)"/><g class="ba" transform="translate(3.124 29.755)"><path class="w" d="M33.687,297.987l17.95,8.308s-16.543-7.915-17-8.587S30.2,287.6,30.2,287.6Z" transform="translate(-30.2 -287.6)"/></g><path class="bb" d="M37.938,202.756l1.366.4c-.828-1.821-3.1-8.36-3.1-8.36Z" transform="translate(-32.455 -174.646)"/><path class="bb" d="M14.969,69.153l.848.217a6.541,6.541,0,0,0-.507-.776C15.042,68.242,13.2,59.2,13.2,59.2Z" transform="translate(-11.834 -53.075)"/><path class="bc" d="M354.574,418.238l.89-2.938-10.387,1.314-.476,3.021Z" transform="translate(-308.948 -372.333)"/><path class="ak" d="M355.608,413.2l-10.584,1.252-.424,3.3.476-3.021,10.387-1.314-.879,2.907Z" transform="translate(-308.948 -370.45)"/><path class="bd" d="M349.4,416.748l10.118-1.2.072-.248L349.2,416.614Z" transform="translate(-313.072 -372.333)"/><path class="be" d="M345.273,428.134l-.2-.135-.476,3.021.248-.031Z" transform="translate(-308.948 -383.719)"/><path class="ay" d="M384.142,418.238a18.736,18.736,0,0,0,2.628-.538l-5.07.641A15.243,15.243,0,0,0,384.142,418.238Z" transform="translate(-342.209 -374.485)"/><path class="bf" d="M232.5,352.15l-.114-13.605-1.19-.145Z" transform="translate(-207.28 -303.389)"/><g class="t" transform="translate(23.258 12.684)"><path class="bg" d="M260.276,129.159l1.647-6.526c-.114.451-1.351,5.3-1.854,5.543-.528.259-35.27,3.052-35.27,3.052Zm1.655-6.559-.009.034Z" transform="translate(-224.8 -122.6)"/></g><g class="bh" transform="translate(3.173 9.401)"><path class="bi" d="M295.424,173.586c-.755,1.842.921,2.193,1.273.631.145-.641-.383-.941-.735-1.417a.608.608,0,0,0-.3.238Z" transform="translate(-267.859 -164.323)"/><path class="bi" d="M312.418,178.379a1.216,1.216,0,0,0,.61-1.78l-.238.155A1.876,1.876,0,0,0,312.418,178.379Z" transform="translate(-283.198 -167.73)"/><path class="bi" d="M339.408,128.191c.6-1.014-.548-3.187-1.779-2.255v.621C336.676,127.5,338.559,129.618,339.408,128.191Z" transform="translate(-305.635 -122.104)"/><path class="bi" d="M248.808,349.891c.6-1.014-.548-3.186-1.78-2.255v.621C246.077,349.2,247.959,351.318,248.808,349.891Z" transform="translate(-224.409 -320.867)"/><path class="bi" d="M365.183,125.259a1.274,1.274,0,0,0-.072-1.159c-.435.083-.5.59-.238.931Z" transform="translate(-330.158 -120.662)"/><path class="bi" d="M490.337,120.1c.186,1.19,1.6.848,2.431.466,1.221-.559,2.4-1.7,2.142-3.156a1.978,1.978,0,0,0-2.618-1.728C491.682,116.834,490.13,118.8,490.337,120.1Z" transform="translate(-442.762 -113.023)"/><path class="bi" d="M520.91,165.435c1.107-.155-.041-1.955-.31-.383Z" transform="translate(-469.911 -156.803)"/><path class="bi" d="M466.615,262.194c.693-.176.952-1.893.9-2.442a1.539,1.539,0,0,0-2.142-1.417C465.084,259.214,465.064,262.6,466.615,262.194Z" transform="translate(-420.262 -240.929)"/><path class="bi" d="M196.906,263.929c.269-.993-.362-4.345-2.255-2.566C194.206,262.646,196.223,266.485,196.906,263.929Z" transform="translate(-177.628 -243.265)"/><path class="bi" d="M211.515,244.727c.393-.414.083-1.717-.61-1.552-.8.2-.052,1.521.228,1.79Z" transform="translate(-191.937 -227.404)"/><path class="bi" d="M33.071,95.815c.952-.61.3-2.98-.041-3.725a1.726,1.726,0,0,0-1.945-1.2C29.895,91.8,31.467,96.849,33.071,95.815Z" transform="translate(-30.667 -90.866)"/><path class="bi" d="M70.448,119.927c.879.445.766-1.593.217-1.883-.9-.476-.817,1.428-.683,1.955Z" transform="translate(-65.841 -115.164)"/><path class="bi" d="M169.362,264.575a1.724,1.724,0,0,0-2.173,1.924,2.3,2.3,0,0,0,2.918,1.831,2.009,2.009,0,0,0,1.024-1.552c.093-.662-.072-1.076-.393-1.159C170.862,265.04,169.745,264.647,169.362,264.575Z" transform="translate(-153.043 -246.569)"/><path class="bi" d="M253.762,356.375a1.724,1.724,0,0,0-2.173,1.924,2.3,2.3,0,0,0,2.918,1.831,2.009,2.009,0,0,0,1.024-1.552c.1-.662-.072-1.066-.393-1.159C255.262,356.84,254.145,356.447,253.762,356.375Z" transform="translate(-228.711 -328.871)"/><path class="bi" d="M150.124,285.184c.259-.31.072-1.014-.052-1.335-.166-.4-.445-.735-.973-.29C149.1,283.953,149.493,285.94,150.124,285.184Z" transform="translate(-136.847 -263.434)"/><path class="bi" d="M65.986,228.4a2.792,2.792,0,0,0,1.4,1.966,2.1,2.1,0,0,0,2.152-.207c1-.817.724-2.452,0-3.342-.476-.6-2.049-1.78-3.114-1.045C65.572,226.231,65.8,227.669,65.986,228.4Z" transform="translate(-62.175 -211.609)"/></g><g class="ba" transform="translate(29.103 20.982)"><path class="bj" d="M305.323,204.2s-.683-1.821-11.3-1.3-12.726,2.98-12.726,2.98Z" transform="translate(-281.3 -202.806)"/></g><path class="bj" d="M345.25,203.809s-1.521-2.214-6.487-1.438a19.281,19.281,0,0,0-7.563,2.6Z" transform="translate(-296.934 -181.286)"/><path class="bj" d="M398.339,260.516c.776.393,1.107-.6,1.148-.848s-.61-.538-1.376-.29C397.687,259.523,397.573,260.133,398.339,260.516Z" transform="translate(-356.623 -232.458)"/><path class="bj" d="M405.41,280.367c.228-.352.031-1-.435-.269C404.82,280.346,405.182,280.719,405.41,280.367Z" transform="translate(-363.043 -250.819)"/><g class="t" transform="translate(24.204 32.393)"><path class="at" d="M234.078,315.211s6.508-.207,7.211-.269,1.49-.2,1.49-.2l-2.007-1.645-6.456.269C233.664,313.524,234.078,315.211,234.078,315.211Z" transform="translate(-233.948 -313.1)"/></g><g class="t" transform="translate(48.595 31.737)"><path class="at" d="M472.049,309.053l6.828-.952s-1.935-1.262-2.224-1.345-6.953.662-6.953.662Z" transform="translate(-469.7 -306.751)"/></g><path class="bk" d="M492.766,147.759a3.593,3.593,0,0,0,2.069-2.059,3.421,3.421,0,0,1-2.069,1.573,2.276,2.276,0,0,1-2.38-.269C490.345,147.593,491.152,148.39,492.766,147.759Z" transform="translate(-439.65 -130.626)"/><path class="bl" d="M520.7,167.9a.363.363,0,0,0,.569.062.7.7,0,0,0,.155-.445c0,.155-.155.569-.466.414s-.228-.631-.228-.631S520.559,167.724,520.7,167.9Z" transform="translate(-466.781 -149.991)"/><path class="bm" d="M337.558,141.347c-.038-.094-.058-.154-.058-.154A1.156,1.156,0,0,0,337.558,141.347Zm.966,1.16a1.014,1.014,0,0,0,1.159-.579,2.612,2.612,0,0,0,0-.828c0,.486-.228,1.4-1.1,1.148a1.607,1.607,0,0,1-1.028-.9C337.689,141.671,338.035,142.4,338.524,142.507Z" transform="translate(-302.582 -126.502)"/><path class="bn" d="M295.385,187.662a.867.867,0,0,0,.817-.228,2.806,2.806,0,0,0,.238-.528s-.031.083-.1.238-.621.559-.973.29a.9.9,0,0,1-.31-.735C294.95,187.031,295.043,187.61,295.385,187.662Z" transform="translate(-264.492 -167.384)"/><path class="bo" d="M312.263,184.228c.207-.01.538-.393.652-.662a.975.975,0,0,0,.1-.466,1.593,1.593,0,0,1-.207.559c-.155.228-.4.476-.538.331a.6.6,0,0,1-.093-.424S312.056,184.238,312.263,184.228Z" transform="translate(-279.849 -164.156)"/><path class="bp" d="M465.506,268.628a.921.921,0,0,0,1.428-.01,4.782,4.782,0,0,0,.393-1.324s-.238.973-.466,1.138a.878.878,0,0,1-1.355-.2,5.48,5.48,0,0,1-.383-2.535A5.61,5.61,0,0,0,465.506,268.628Z" transform="translate(-416.962 -238.211)"/><path class="bq" d="M254.376,376.648a1.655,1.655,0,0,0,1.986-.879,3.935,3.935,0,0,0,.207-1.169,3.112,3.112,0,0,1-.362,1.035,1.609,1.609,0,0,1-1.914.838,2.864,2.864,0,0,1-1.593-1.428S253.259,376.411,254.376,376.648Z" transform="translate(-226.556 -335.844)"/><g class="ba" transform="translate(23.516 24.572)"><path class="ab" d="M234.3,237.634l.321-.134-7.325.414.321,7.708,2.6-.145a10.954,10.954,0,0,1-1.883-.31,1.122,1.122,0,0,1-.517-.973c.021-.186.838-.383.735-.476s-.61-.269-.631-.372a19.636,19.636,0,0,1,0-2.607c.1-.517.879-.879.879-.879a.991.991,0,0,1-.879-.093c-.321-.29,0-1.531,0-1.531a10.737,10.737,0,0,1,2.793-.134c.31.228.414,1.179.414,1.179s-.093-1,.155-1.179A22.821,22.821,0,0,1,234.3,237.634Z" transform="translate(-227.3 -237.5)"/></g><g class="ba" transform="translate(53.789 22.378)"><path class="ab" d="M522.962,217.976s.579.052.621.228a15.343,15.343,0,0,1-1.283,3.776,1.4,1.4,0,0,1-1,.548s.91.083.952.331-.424.476-.424.476a.47.47,0,0,1,.134.269,2.934,2.934,0,0,1-.331,1.242,7.574,7.574,0,0,1-1.728.538l1.583.29,2.928-9.374-3.114.455a7.1,7.1,0,0,1,2,.414C523.645,217.438,522.962,217.976,522.962,217.976Z" transform="translate(-519.9 -216.3)"/></g><g class="ba" transform="translate(49.402 9.073)"><path class="at" d="M479.342,88.786a4.413,4.413,0,0,1,1.479-.424c.466.01,4.366-.217,4.542-.166s.507.176.507.176a7.557,7.557,0,0,1,1.6-.29A10.235,10.235,0,0,0,489.4,87.7l-11.9.662A13.02,13.02,0,0,0,479.342,88.786Z" transform="translate(-477.5 -87.7)"/></g></svg>