<svg xmlns="http://www.w3.org/2000/svg" width="68.215" height="61.638" viewBox="0 0 68.215 61.638"><defs><style>.a{fill:#2dd692;}.b{fill:#0d9581;}.c{fill:#ffca3e;}.d{fill:#ffb82c;}</style></defs><g transform="translate(-221.7 -250.288)"><path class="a" d="M222.783,366.1h66.05a1.085,1.085,0,0,1,1.083,1.071V380a1.077,1.077,0,0,1-1.083,1.071h-66.05A1.085,1.085,0,0,1,221.7,380V367.171A1.093,1.093,0,0,1,222.783,366.1Zm0,0" transform="translate(0 -102.181)"/><path class="b" d="M289.218,493.4h51.067a.713.713,0,0,1,.718.718v31.518a.721.721,0,0,1-.718.718H289.218a.713.713,0,0,1-.718-.718V494.118A.713.713,0,0,1,289.218,493.4Zm0,0" transform="translate(-58.938 -214.499)"/><path class="c" d="M266.916,259.952s-7.827-1.506-9.392-2.048l2.766,3.966-4.99,1.977a83.307,83.307,0,0,0,24.257.294l-6.049-2.731Zm5.626-9.463c-3.978-.706-5.873.671-5.873.671l-1.083,6.85a8.352,8.352,0,0,1,6.144-1.083c4.331,1.083,9.757,7.215,9.757,7.215v-4.684S277.932,251.455,272.542,250.49Zm38.4,11.381,2.778-3.966c-1.565.541-9.392,2.048-9.392,2.048l-6.591,1.459-6.061,2.754a83.062,83.062,0,0,0,24.257-.306Zm-5.3-3.849-1.083-6.85s-1.895-1.377-5.873-.671c-5.39.953-8.945,8.968-8.945,8.968v4.684s5.414-6.132,9.745-7.215A8.371,8.371,0,0,1,305.649,258.022Zm0,0" transform="translate(-29.646 0)"/><path class="c" d="M472,324.8h9.415v52.868H472Z" transform="translate(-220.841 -65.742)"/><path class="d" d="M357.547,326.143h9.415V358.85h-9.415Zm-6.12-21.161c-3.907-2.26-8.556-1.495-9.074.047-.565,1.695,2.213,3.5,6.214,5.59,2.636,1.377,9.674.541,9.674.541A25.619,25.619,0,0,0,351.427,304.982Zm30.989.035c-.506-1.542-5.155-2.307-9.074-.047a26.278,26.278,0,0,0-6.826,6.167s7.05.847,9.674-.541c4.013-2.071,6.791-3.884,6.226-5.579Zm0,0" transform="translate(-106.389 -46.995)"/></g></svg>