<svg xmlns="http://www.w3.org/2000/svg" width="30" height="30" viewBox="0 0 30 30">
  <defs>
    <style>
      .cls-1 {
        fill: none;
      }

      .cls-2 {
        fill: #f0b90b;
      }
    </style>
  </defs>
  <g id="组_66410" data-name="组 66410" transform="translate(-128 -243)">
    <g id="组_65964" data-name="组 65964" transform="translate(-4 8)">
      <circle id="椭圆_457" data-name="椭圆 457" class="cls-1" cx="15" cy="15" r="15" transform="translate(132 235)"/>
    </g>
    <path id="路径_15756" data-name="路径 15756" class="cls-2" d="M23.586,19.017l5.273-2.954,5.273,2.954-1.938,1.091-3.335-1.862L25.525,20.11Zm10.547,3.73-1.938-1.091-3.335,1.859-3.334-1.863-1.939,1.091v2.183l3.334,1.863v3.73L28.859,31.6,30.8,30.513v-3.73l3.335-1.858Zm0,5.907V26.469l-1.943,1.09v2.185Zm1.376.772-3.334,1.863v2.183l5.273-2.954V24.606L35.5,25.694ZM33.57,20.884l1.938,1.091v2.183l1.938-1.091V20.88l-1.938-1.091Zm-6.648,11.19v2.183l1.937,1.091L30.8,34.257V32.075l-1.938,1.091Zm-3.336-3.424,1.937,1.093V27.559l-1.937-1.09Zm3.334-7.77,1.939,1.091L30.8,20.88l-1.938-1.091Zm-4.71,1.091,1.938-1.091L22.21,19.789,20.272,20.88v2.183l1.938,1.091Zm0,3.73L20.272,24.61v5.907l5.273,2.954V31.285l-3.336-1.861Z" transform="translate(113.728 231.937)"/>
  </g>
</svg>
