<svg xmlns="http://www.w3.org/2000/svg" width="54" height="54" viewBox="0 0 54 54"><defs><style>.a,.d{fill:none;}.a{stroke:#f0b90b;}.b{fill:#f0b90b;}.c{stroke:none;}</style></defs><g transform="translate(0 -0.219)"><g transform="translate(0 0.334)"><g class="a" transform="translate(0 -0.115)"><circle class="c" cx="27" cy="27" r="27"/><circle class="d" cx="27" cy="27" r="26.5"/></g></g><path class="b" d="M26.224,21.369,35.7,16.063l9.472,5.306-3.481,1.96L35.7,19.985l-5.988,3.346Zm18.943,6.7-3.481-1.96L35.7,29.447,29.708,26.1l-3.483,1.96v3.92l5.988,3.346v6.7L35.7,43.979l3.481-1.96v-6.7l5.99-3.337Zm0,10.611V34.754l-3.49,1.958v3.924Zm2.471,1.386-5.988,3.346v3.92l9.472-5.306V31.408l-3.49,1.954ZM44.158,24.723l3.481,1.96V30.6l3.481-1.96V24.715l-3.481-1.96Zm-11.941,20.1v3.92L35.7,50.7l3.481-1.96v-3.92L35.7,46.783Zm-5.992-6.151L29.7,40.636V36.712l-3.479-1.958Zm5.988-13.957,3.483,1.96,3.481-1.96L35.7,22.755Zm-8.459,1.96,3.481-1.96-3.481-1.96-3.481,1.96v3.92l3.481,1.96Zm0,6.7-3.481-1.96V42.026l9.472,5.306V43.4l-5.992-3.342Z" transform="translate(-8.272 -5.844)"/></g></svg>