<svg xmlns="http://www.w3.org/2000/svg" width="54" height="54" viewBox="0 0 54 54">
  <defs>
    <style>
      .cls-1 {
        fill: none;
      }

      .cls-2 {
        fill: #f0b90b;
      }
    </style>
  </defs>
  <g id="组_66308" data-name="组 66308" transform="translate(-1368 -299)">
    <g id="组_65964" data-name="组 65964" transform="translate(1368 299)">
      <circle id="椭圆_457" data-name="椭圆 457" class="cls-1" cx="27" cy="27" r="27"/>
    </g>
    <path id="路径_15756" data-name="路径 15756" class="cls-2" d="M25.791,20.983l8.783-4.92,8.783,4.92L40.128,22.8l-5.555-3.1-5.553,3.1ZM43.357,27.2l-3.228-1.818-5.555,3.1-5.553-3.1-3.23,1.818v3.635l5.553,3.1v6.212l3.23,1.809L37.8,40.13V33.918l5.555-3.094Zm0,9.839v-3.64L40.121,35.21v3.639Zm2.291,1.285-5.553,3.1v3.635l8.783-4.92V30.291L45.642,32.1ZM42.42,24.093l3.228,1.818v3.635l3.228-1.818V24.086l-3.228-1.818ZM31.348,42.73v3.635l3.226,1.818L37.8,46.366V42.73l-3.228,1.818Zm-5.556-5.7,3.226,1.821V35.21l-3.226-1.816Zm5.553-12.941,3.23,1.818L37.8,24.086l-3.228-1.818ZM23.5,25.9l3.228-1.818L23.5,22.268l-3.228,1.818v3.635L23.5,29.539Zm0,6.212L20.272,30.3v9.839l8.783,4.92V41.415l-5.556-3.1Z" transform="translate(1360.727 293.937)"/>
  </g>
</svg>
