<svg width="64" height="64" viewBox="0 0 64 64" fill="none" xmlns="http://www.w3.org/2000/svg">
<circle cx="32" cy="32" r="31.75" fill="url(#paint0_radial)" fill-opacity="0.05" stroke="url(#paint1_linear)" stroke-width="0.5"/>
<path d="M30.2872 15.704L15.703 30.2882C14.7585 31.2326 14.7585 32.7639 15.703 33.7084L30.2872 48.2926C31.2317 49.2371 32.763 49.2371 33.7074 48.2926L48.2916 33.7084C49.2361 32.7639 49.2361 31.2326 48.2916 30.2882L33.7074 15.704C32.763 14.7595 31.2317 14.7595 30.2872 15.704Z" fill="#F0B80B"/>
<path d="M32.2102 24.7554C33.0024 24.8199 34.1087 24.8548 35.1975 25.0101C36.5673 25.2073 37.897 25.5912 39.0364 26.434C39.846 27.0377 40.469 27.802 40.6871 28.8246C40.8093 29.3987 40.9122 29.9797 41.0099 30.559C41.0588 30.847 40.9192 31.004 40.626 30.9551C39.7536 30.8155 38.8968 30.669 38.0365 30.5067C37.8963 30.4702 37.773 30.3864 37.6876 30.2694C37.4084 29.8837 36.946 29.7459 36.59 30.0356C36.234 30.3252 35.8798 30.3025 35.468 30.2903C33.5625 30.2327 31.6553 30.2101 29.7481 30.1786C29.3991 30.1786 29.1112 30.2223 28.8756 29.8052C28.5737 29.2713 27.614 29.3498 27.3052 29.8907C27.2322 30.0343 27.122 30.1557 26.9859 30.2419C26.8499 30.3282 26.6932 30.3763 26.5322 30.3811C25.7086 30.4631 24.8902 30.5887 24.0701 30.6969C24.0195 30.6969 23.9706 30.7091 23.92 30.7126C23.2779 30.7545 23.1679 30.6463 23.2115 29.9989C23.2953 28.7059 23.7647 27.57 24.7139 26.6835C25.3299 26.1094 26.1099 25.7605 26.9056 25.4865C28.5162 24.9386 30.2053 24.8548 32.2102 24.7554ZM30.3501 26.0833C30.6345 25.8809 30.9538 25.7692 31.0481 25.5598C31.1423 25.3504 30.8387 25.319 30.6624 25.3172C30.399 25.3172 30.1006 25.3172 30.0657 25.6662C30.0535 25.7727 30.2157 25.8913 30.3501 26.0833ZM33.5625 25.1934L33.0024 25.5423C33.2085 25.6746 33.4323 25.7768 33.6672 25.846C33.7789 25.8634 33.929 25.6558 34.0616 25.5493L33.5625 25.1934ZM27.1063 26.6643L27.8182 26.0937C27.7117 26.0152 27.6123 25.8826 27.4989 25.8704C27.19 25.8337 26.7887 26.0745 26.8236 26.2578C26.841 26.3625 26.9597 26.4584 27.1028 26.6556L27.1063 26.6643ZM31.6745 26.4741C31.849 26.4497 31.9397 26.4637 31.9868 26.4235C32.1225 26.2998 32.2517 26.1694 32.3742 26.0327C32.2191 25.9694 32.0607 25.9147 31.8996 25.8686C31.8627 25.8613 31.8247 25.8613 31.7879 25.8688C31.751 25.8763 31.716 25.8911 31.685 25.9123C31.5627 26.0151 31.4462 26.1247 31.336 26.2403L31.6745 26.4741ZM36.2724 25.9175C36.4207 26.2962 36.6912 26.4829 37.0158 26.42C37.1215 26.3983 37.2144 26.3356 37.274 26.2456C37.3002 26.2019 37.2234 26.0606 37.1588 26.0047C37.0402 25.8958 36.8898 25.8277 36.7297 25.8104C36.5695 25.7931 36.408 25.8276 36.2689 25.9088L36.2724 25.9175ZM34.4751 26.5631C34.6496 26.537 34.7508 26.5527 34.8102 26.5055C34.9306 26.4096 35.1155 26.27 35.1068 26.1566C35.0876 25.9349 34.8869 25.8809 34.6758 25.9541C34.5898 25.972 34.5076 26.0051 34.4332 26.0519C34.3455 26.1397 34.266 26.2355 34.1959 26.338L34.4751 26.5631ZM29.1234 26.7376C29.2979 26.5631 29.5003 26.4619 29.4968 26.3607C29.4863 26.0117 29.1478 26.0606 28.9297 26.0414C28.8111 26.0309 28.6784 26.1792 28.5528 26.256L29.1234 26.7376Z" fill="#1E2125"/>
<path d="M31.2853 39.2421C29.933 39.167 28.5772 39.1409 27.2318 39.0048C25.5602 38.8303 24.1694 38.148 23.4278 36.5269C23.3114 36.2371 23.2493 35.9284 23.2446 35.6161C23.2446 35.5236 23.4575 35.3282 23.5657 35.3334C24.4155 35.3805 25.2618 35.4765 26.1116 35.5341C26.9125 35.5864 27.7134 35.6108 28.5143 35.644C28.7726 35.6545 28.9593 35.7103 29.05 36.0052C29.1372 36.2128 29.2601 36.4036 29.413 36.5688C29.7323 36.9859 30.0935 37.0242 30.5106 36.7049C30.6624 36.619 30.803 36.5147 30.9293 36.3943C31.4075 35.7696 32.0426 35.6667 32.7894 35.6632C35.072 35.643 37.3497 35.4511 39.6034 35.0891C39.8739 35.0472 40.1374 34.9635 40.4061 34.9146C40.7219 34.8588 40.8633 34.9931 40.8737 35.3247C40.9139 36.5583 40.1758 37.6123 39.0712 38.1567C37.2914 39.0292 35.3754 39.0902 33.4682 39.2141C32.7441 39.2613 32.0147 39.2141 31.2871 39.2141L31.2853 39.2421Z" fill="#1E2125"/>
<path d="M41.0574 32.7909C40.4484 32.5588 39.8674 32.3738 39.3125 32.1173C38.9408 31.9428 38.6407 31.8608 38.276 32.1435C38.1001 32.2811 37.8849 32.3589 37.6617 32.3655C37.4385 32.3721 37.219 32.3071 37.0353 32.1801C36.9023 32.0892 36.7455 32.0395 36.5844 32.0373C36.4233 32.0352 36.2651 32.0806 36.1297 32.1679C35.8289 32.3263 35.4949 32.4114 35.155 32.4162C34.8151 32.4211 34.4788 32.3456 34.1736 32.1958C34.0341 32.1153 33.8776 32.0685 33.7168 32.0591C33.5559 32.0497 33.3951 32.078 33.2471 32.1418C33.0896 32.2248 32.9102 32.2567 32.7338 32.233C32.5573 32.2092 32.3927 32.1309 32.2629 32.0091C32.168 31.908 32.0408 31.8432 31.9033 31.8257C31.7657 31.8082 31.6263 31.8391 31.5091 31.9132C31.213 32.0528 30.8898 32.1251 30.5625 32.1251C30.2352 32.1251 29.9119 32.0528 29.6158 31.9132C29.3349 31.798 29.1482 31.7666 28.9179 32.0754C28.7538 32.2988 28.4066 32.4244 28.1152 32.5099C27.8462 32.6009 27.5614 32.6357 27.2784 32.6123C26.9954 32.5889 26.7201 32.5077 26.4697 32.3738C26.3219 32.2918 26.1584 32.2421 25.9899 32.228C25.8215 32.2139 25.652 32.2356 25.4926 32.2918C24.9865 32.4314 24.4805 32.4489 23.9989 32.1714C23.7284 32.0161 23.5121 32.1714 23.2695 32.304C22.958 32.476 22.621 32.5973 22.2714 32.6635C22.1719 32.6614 22.0746 32.6336 21.989 32.5829C21.9034 32.5321 21.8324 32.4601 21.7828 32.3738C21.7703 32.269 21.7841 32.1627 21.8231 32.0645C21.8621 31.9664 21.9251 31.8796 22.0062 31.812C22.4773 31.5659 22.9764 31.2972 23.4911 31.2274C24.7126 31.0529 25.9602 30.9866 27.1991 30.8994C29.9282 30.6777 32.6706 30.6736 35.4003 30.8871C36.7963 31.011 38.1922 31.1297 39.5882 31.3059C40.15 31.3775 40.6927 31.5973 41.2441 31.7491C41.5565 31.8364 41.8199 32.0266 41.6908 32.3546C41.621 32.5396 41.3104 32.6268 41.0574 32.7909Z" fill="#1E2125"/>
<path d="M28.3612 35.1239C26.7908 35.0297 25.236 34.939 23.6726 34.836C23.355 34.8168 23.2224 34.5673 23.2363 34.138C23.2486 33.817 23.4405 33.7262 23.7127 33.7437C24.8993 33.8205 26.0858 33.9182 27.2741 33.9775C30.1934 34.1031 33.1127 34.1415 36.0267 33.8362C37.4332 33.6879 38.8431 33.5727 40.2512 33.4453C40.5147 33.4209 40.8061 33.3668 40.8707 33.7437C40.9161 34.0054 40.6613 34.309 40.328 34.3631C39.5783 34.5121 38.8211 34.6198 38.0596 34.686C35.2799 34.8238 32.4985 34.9198 29.7188 35.0245C29.2669 35.0419 28.8167 35.0245 28.3647 35.0245L28.3612 35.1239Z" fill="#1E2125"/>
<defs>
<radialGradient id="paint0_radial" cx="0" cy="0" r="1" gradientUnits="userSpaceOnUse" gradientTransform="translate(32 32) rotate(90) scale(32)">
<stop stop-opacity="0"/>
<stop offset="1" stop-color="white"/>
</radialGradient>
<linearGradient id="paint1_linear" x1="32" y1="0" x2="32" y2="64" gradientUnits="userSpaceOnUse">
<stop stop-color="#4B4C4D"/>
<stop offset="1" stop-opacity="0"/>
</linearGradient>
</defs>
</svg>
