<svg width="64" height="64" viewBox="0 0 64 64" fill="none" xmlns="http://www.w3.org/2000/svg">
<circle cx="32" cy="32" r="31.75" fill="url(#paint0_radial_16369_121552)" fill-opacity="0.05" stroke="url(#paint1_linear_16369_121552)" stroke-width="0.5"/>
<path d="M18.431 32.3378C17.6201 31.8816 16.8775 31.3012 16.2276 30.6154C15.2228 29.588 14.5074 28.2869 14.1607 26.8565C13.6771 24.7461 14.3024 22.524 15.7994 21.0344C16.6857 20.0141 17.9862 19.5111 19.2875 19.6853C20.9074 19.9146 22.3102 21.185 23.2908 22.39L21.4598 25.1929C20.9886 24.4088 20.3566 23.7462 19.6103 23.2545C19.2316 23.0303 18.7807 22.9857 18.369 23.1318C17.9575 23.2777 17.6237 23.6007 17.4504 24.0206C16.4448 26.0248 17.8786 28.0941 19.4675 29.1812L18.431 32.3378Z" fill="#C03A2B"/>
<path d="M42.7921 34.7737C41.3024 35.9723 39.1674 36.6925 36.4427 36.5421C34.4628 36.4306 33.327 35.9592 32.6753 35.2454C30.8877 33.3003 32.7374 29.6067 30.8382 26.9215C29.365 24.9449 27.0418 23.8918 24.6687 24.1253C24.1287 22.7304 24.0046 21.6236 24.3772 20.9752C24.3772 20.9687 24.3772 20.9687 24.3833 20.9621V20.9556C24.4301 20.8801 24.4842 20.8099 24.5446 20.746C26.1212 19.0826 32.1105 22.7108 37.9324 28.847C39.6917 30.6903 41.3162 32.6717 42.7921 34.7737Z" fill="#BDC3C7"/>
<path d="M45.3924 43.1501C42.9407 45.3768 30.7322 55.5212 21.6893 45.9793C17.6239 41.6964 17.3321 36.7323 18.4308 32.3379C18.7015 31.26 19.0479 30.205 19.4672 29.1813C20.0365 27.8016 20.7024 26.4684 21.4596 25.193C22.1052 24.0929 22.7506 23.1367 23.2906 22.3901C23.7375 21.7745 24.1099 21.2966 24.3766 20.9756C24.0042 21.624 24.1283 22.7307 24.6683 24.1257C25.7483 26.935 28.4979 30.9365 32.2219 34.8659C32.3584 35.0099 32.4949 35.1475 32.6314 35.2915C38.0811 40.9234 43.5862 44.3028 45.3924 43.1501Z" fill="#F3F2F2"/>
<path d="M42.7921 34.7737C41.3162 32.6717 39.6917 30.6903 37.9324 28.847C32.1105 22.7108 26.1212 19.0826 24.5446 20.746C24.4842 20.8099 24.4301 20.8801 24.3833 20.9556V20.9621C24.3772 20.9687 24.3772 20.9687 24.3772 20.9752C24.0046 21.6236 24.1287 22.7304 24.6687 24.1253C25.7486 26.9347 28.4983 30.9361 32.2222 34.8656C32.3588 35.0096 32.4953 35.1471 32.6318 35.2911C38.0813 40.9231 43.5864 44.3024 45.3926 43.1498L42.7921 34.7737Z" fill="#BDC3C7"/>
<path d="M42.3156 20.5152C43.0425 19.7481 42.6497 18.0897 41.4379 16.8112C40.2262 15.5326 38.6545 15.118 37.9276 15.8852C37.2004 16.6523 37.5935 18.3106 38.8052 19.5892C40.0167 20.8678 41.5884 21.2824 42.3156 20.5152Z" fill="#4A2B17"/>
<path d="M29.5851 43.2151C27.8534 45.0488 25.4702 45.5663 23.9434 44.5514C25.0357 43.3396 24.204 42.4228 25.3522 41.2177C26.5191 39.9801 27.3943 40.9034 28.5673 39.6722C29.7092 38.4607 28.8775 37.5504 29.9761 36.3389C30.151 36.4576 30.3133 36.596 30.4603 36.7515C31.9065 38.284 31.5215 41.1784 29.5851 43.2151Z" fill="#640808"/>
<path d="M29.9752 36.3391C28.8768 37.5506 29.7083 38.461 28.5664 39.6726C27.3934 40.9037 26.5182 39.9802 25.3513 41.2182C24.2031 42.4229 25.0348 43.3397 23.9425 44.5515C23.7676 44.4326 23.6053 44.2941 23.4584 44.1389C22.006 42.6065 22.3971 39.7118 24.3335 37.675C26.0652 35.8414 28.4484 35.324 29.9752 36.3391Z" fill="#9C2222"/>
<path d="M32.6745 35.2454L32.6311 35.2911C32.4946 35.1471 32.358 35.0096 32.2215 34.8656C28.4976 30.9361 25.7479 26.9347 24.668 24.1253C27.0411 23.8918 29.3643 24.9449 30.8375 26.9215C32.7367 29.6067 30.887 33.3003 32.6745 35.2454Z" fill="#4A2B17"/>
<path d="M42.7921 34.7737C41.3162 32.6717 39.6917 30.6903 37.9324 28.847C32.1105 22.7108 26.1212 19.0826 24.5446 20.746C24.4842 20.8099 24.4301 20.8801 24.3833 20.9556V20.9621C24.3772 20.9687 24.3772 20.9687 24.3772 20.9752C24.0046 21.6236 24.1287 22.7304 24.6687 24.1253C25.7486 26.9347 28.4983 30.9361 32.2222 34.8656C32.3588 35.0096 32.4953 35.1471 32.6318 35.2911C38.0813 40.9231 43.5864 44.3024 45.3926 43.1498C46.0313 42.662 45.101 40.9954 45.101 40.9954L42.7921 34.7737ZM33.5009 34.3547L33.0974 33.9421C32.6568 33.4771 32.2346 33.0121 31.8127 32.5406C29.1748 29.5478 27.052 26.4764 26.028 24.1514C25.9536 23.9747 25.8791 23.8044 25.8171 23.6341C25.5385 23.0472 25.4001 22.3975 25.4136 21.7414L25.5004 21.6629C25.5539 21.6539 25.6078 21.6495 25.6619 21.6497C27.4494 21.6497 32.0484 24.4985 37.0572 29.777C38.7227 31.5253 40.2662 33.3988 41.6747 35.3829L41.7123 35.4942L43.7106 41.9319C41.9976 41.4406 39.0371 39.5741 35.6793 36.4765C34.9656 35.8281 34.2393 35.1143 33.5009 34.3547Z" fill="#ECF0F1"/>
<path d="M49.9783 32.3047C49.8924 35.0475 49.1742 37.7268 47.8866 40.111C47.2371 41.2556 46.0857 41.979 44.8223 42.0359H44.8007C44.3976 42.0607 43.993 42.0144 43.6042 41.8989C42.8487 41.6411 42.1206 41.3008 41.432 40.8837C40.9786 40.6155 40.4944 40.3076 39.9796 39.9539C38.4699 38.9032 37.0326 37.7412 35.6782 36.4764C35.9204 36.5025 36.1747 36.5288 36.4416 36.542C39.1662 36.6925 41.3014 35.9722 42.7909 34.7737C45.3271 32.8409 46.0108 29.1656 44.3551 26.3648C41.7668 21.7872 50.4873 21.7216 49.9783 32.3047Z" fill="#4A2B17"/>
<path d="M45.5112 37.9768C44.4406 39.334 43.0264 40.3423 41.4336 40.8844C40.9805 40.616 40.4963 40.3083 39.9812 39.9543C41.7654 39.5932 43.3793 38.5995 44.5554 37.1384C44.7747 36.86 45.1665 36.8218 45.4307 37.0533C45.6946 37.2847 45.7305 37.6982 45.5112 37.9768Z" fill="#805333"/>
<defs>
<radialGradient id="paint0_radial_16369_121552" cx="0" cy="0" r="1" gradientUnits="userSpaceOnUse" gradientTransform="translate(32 32) rotate(90) scale(32)">
<stop stop-opacity="0"/>
<stop offset="1" stop-color="white"/>
</radialGradient>
<linearGradient id="paint1_linear_16369_121552" x1="32" y1="0" x2="32" y2="64" gradientUnits="userSpaceOnUse">
<stop stop-color="#4B4C4D"/>
<stop offset="1" stop-opacity="0"/>
</linearGradient>
</defs>
</svg>
