<svg width="64" height="64" viewBox="0 0 64 64" fill="none" xmlns="http://www.w3.org/2000/svg">
<circle cx="32" cy="32" r="31.75" fill="url(#paint0_radial_14585_74967)" fill-opacity="0.05" stroke="url(#paint1_linear_14585_74967)" stroke-width="0.5"/>
<path d="M45.026 38.4608C45.9671 37.5258 46.6881 36.6337 47.4214 35.5031C47.8003 34.9165 47.9592 34.7148 47.9714 34.8065C47.9959 34.9837 47.4826 36.9881 47.2198 37.7519C45.2399 43.429 40.0639 47.5721 34.4664 47.9694C29.5899 48.3116 25.6789 45.7694 24.1267 41.2596C23.7356 40.123 23.3751 38.4303 23.5156 38.4303C23.5523 38.4303 23.6256 38.5158 23.6868 38.6258C23.754 38.7297 23.9801 39.0536 24.2001 39.3408C26.0639 41.8096 28.4838 43.2823 31.3987 43.7162C32.1687 43.8323 33.9775 43.8506 34.7352 43.7467C38.3834 43.2701 42.1233 41.3513 45.026 38.4608Z" fill="#F5E132"/>
<path d="M29.3149 16.1255C27.6772 16.376 26.51 16.7427 25.0373 17.4699C23.3934 18.2826 22.1896 19.1321 20.8574 20.4276C19.5069 21.7536 18.4925 23.153 17.6736 24.8335C16.6531 26.9173 16.2987 28.2373 16.0604 30.8527C15.8343 33.2543 16.2437 35.7109 17.2825 38.2347C18.2053 40.4713 19.7391 42.5612 21.6763 44.2234C22.7273 45.1278 25.0678 46.6188 25.0678 46.3805C25.0678 46.3561 24.8173 46.02 24.5117 45.635C22.544 43.1601 21.4929 40.7218 20.9919 37.4525C20.8391 36.4503 20.8391 33.7493 20.9919 32.7288C21.4441 29.7467 22.4951 27.1984 24.1451 25.1146C24.7501 24.3385 25.8928 23.2814 26.675 22.7619C28.3249 21.662 30.0176 21.1303 31.912 21.1181C33.3053 21.112 34.2892 21.277 35.7374 21.7536L36.483 22.0042L37.149 21.7903C37.6929 21.6131 39.8012 21.1364 40.0334 21.1364C40.1923 21.1364 40.0762 21.2403 39.7156 21.4298C38.689 21.9614 37.699 23.098 37.2652 24.2591C36.9963 24.9802 36.9046 25.5913 36.9413 26.4468C36.9779 27.3757 37.1124 27.8951 37.534 28.7445C38.2551 30.1867 39.4345 31.1339 41.06 31.5677C41.5733 31.7083 41.7811 31.7266 42.545 31.7266C43.3333 31.7266 43.4922 31.7083 43.981 31.5616C45.6615 31.0605 47.0242 29.9911 47.7392 28.6101C47.947 28.2006 47.8309 28.1823 47.4276 28.5551C46.737 29.1967 46.1137 29.5389 45.2399 29.7589C44.4943 29.9483 43.3333 29.9056 42.6366 29.6672C41.0172 29.1173 39.8989 27.8645 39.459 26.1168C39.2573 25.3346 39.2695 24.5096 39.4834 24.2958C39.5506 24.2285 39.5567 24.2591 39.6667 24.9802C39.9295 26.7096 41.83 27.9317 43.6571 27.5468C44.4027 27.3879 45.356 26.8073 45.7532 26.2696C46.1137 25.7746 46.2298 25.4079 46.2298 24.7724C46.2237 23.6113 45.6249 22.5114 44.2438 21.1487C42.5694 19.4987 40.675 18.3621 37.6379 17.201C35.0225 16.1988 31.6798 15.765 29.3149 16.1255Z" fill="#F5E132"/>
<path d="M32.8836 22.7986C32.5231 23.0003 32.3581 23.3852 32.3887 23.8986C32.407 24.1491 32.8592 24.5952 33.1525 24.6502C33.8858 24.7907 34.5397 24.1247 34.3503 23.428C34.173 22.7864 33.4458 22.4686 32.8836 22.7986Z" fill="#F5E132"/>
<defs>
<radialGradient id="paint0_radial_14585_74967" cx="0" cy="0" r="1" gradientUnits="userSpaceOnUse" gradientTransform="translate(32 32) rotate(90) scale(32)">
<stop stop-opacity="0"/>
<stop offset="1" stop-color="white"/>
</radialGradient>
<linearGradient id="paint1_linear_14585_74967" x1="32" y1="0" x2="32" y2="64" gradientUnits="userSpaceOnUse">
<stop stop-color="#4B4C4D"/>
<stop offset="1" stop-opacity="0"/>
</linearGradient>
</defs>
</svg>
