<svg width="64" height="64" viewBox="0 0 64 64" fill="none" xmlns="http://www.w3.org/2000/svg">
<circle cx="32" cy="32" r="31.75" fill="url(#paint0_radial)" fill-opacity="0.05" stroke="url(#paint1_linear)" stroke-width="0.5"/>
<path d="M39.8463 39.7725C39.8463 40.2384 39.8463 40.7044 39.8463 41.1703C36.0768 41.1703 32.2954 41.1703 28.514 41.1703C28.514 41.6478 28.514 42.0904 28.514 42.568C33.288 42.568 38.0384 42.568 42.8005 42.568C43.2732 42.568 43.7459 42.568 44.2185 42.568C44.5376 42.568 44.8448 42.568 45.1639 42.568C45.1639 43.0106 45.1639 43.4649 45.1639 43.9075C44.6085 44.0007 22.5465 44.0356 20.0177 43.9541C20.0177 43.5115 20.0177 43.0689 20.0177 42.5913C19.0606 42.5331 18.127 42.5913 17.1817 42.5564C17.1817 42.1021 17.1817 41.6595 17.1817 41.1819C19.9941 41.1819 22.8183 41.1819 25.6543 41.1819C25.6543 40.7044 25.6543 40.2617 25.6543 39.7842C24.7326 39.7842 23.7991 39.7842 22.8419 39.7842C22.8419 39.3066 22.8419 38.864 22.8419 38.3981C22.3811 38.3981 21.932 38.3981 21.4239 38.3981C21.4003 38.0603 21.4121 37.7342 21.4121 37.4197C21.4121 37.0935 21.4121 36.7674 21.4121 36.418C19.8405 36.418 18.2925 36.418 16.7208 36.418C16.6263 36.1501 16.7208 35.8705 16.6617 35.591C16.449 35.591 16.2363 35.591 16 35.591C16 32.7839 16 30 16 27.2046C16.4136 27.2046 16.8154 27.2046 17.2644 27.2046C17.2644 26.925 17.2644 26.6688 17.2644 26.3776C18.6588 26.3776 20.0059 26.3776 21.4003 26.3776C21.4003 25.702 21.4003 25.0497 21.4003 24.3975C23.7636 24.3975 26.127 24.3975 28.4904 24.3975C28.4904 28.5674 28.4904 32.7256 28.4904 36.8955C28.4904 36.9072 28.5022 36.9305 28.514 36.9421C28.5258 36.9538 28.5376 36.9654 28.5849 37.0004C28.9985 37.0004 29.4475 37.0004 29.9084 37.0004C29.9084 37.4663 29.9084 37.9089 29.9084 38.3864C30.3929 38.3864 30.8537 38.3864 31.3264 38.3864C31.3264 38.864 31.3264 39.3066 31.3264 39.7725C34.1979 39.7725 37.0221 39.7725 39.8463 39.7725ZM17.288 34.8805C18.0089 34.8805 18.6706 34.8805 19.3442 34.8805C20.0295 34.8805 20.7149 34.8805 21.3885 34.8805C21.4594 33.1682 21.4357 28.381 21.353 27.9151C19.9941 27.9151 18.647 27.9151 17.288 27.9151C17.288 30.233 17.288 32.5393 17.288 34.8805Z" fill="#98313C"/>
<path d="M41.3913 34.2005C41.2739 34.2005 41.1608 34.2005 41.0435 34.2005C41.0435 31.8671 41.0435 29.5336 41.0435 27.2002C41.5 27.2002 41.9565 27.2002 42.4304 27.2002C42.4304 28.3086 42.4348 29.417 42.4348 30.5253C42.4348 31.6921 42.4348 32.8588 42.4348 34.2005C42.0826 34.2005 41.7348 34.2005 41.3913 34.2005Z" fill="#FAE09B"/>
<path d="M36.5217 32.8004C36.1696 32.8004 35.8304 32.8004 35.4783 32.8004C35.4783 29.5336 35.4783 26.2668 35.4783 23C36.8478 23 38.2174 23 39.6391 23C39.6391 24.5517 39.6522 26.1035 39.6522 27.6552C39.6522 29.2886 39.6522 30.922 39.6522 32.8004C38.5957 32.8004 37.5522 32.8004 36.5217 32.8004Z" fill="#F3AD78"/>
<path d="M35.826 38.4005C35.2391 38.4005 34.6739 38.4005 34.0869 38.4005C34.0869 36.5338 34.0869 34.667 34.0869 32.8003C36.3695 32.8003 38.6521 32.8003 41.0217 32.8003C41.0217 33.687 41.0434 34.5737 41.0434 35.4604C41.0434 36.3938 41.0434 37.3272 41.0434 38.4005C39.2826 38.4005 37.5434 38.4005 35.826 38.4005Z" fill="#3E2262"/>
<path d="M39.8465 39.773C37.0223 39.773 34.198 39.773 31.3502 39.773C31.3502 39.307 31.3502 38.8644 31.3502 38.3869C30.8657 38.3869 30.4049 38.3869 29.9322 38.3869C29.9322 37.9093 29.9322 37.4667 29.9322 37.0008C29.4713 37.0008 29.0223 37.0008 28.6087 37.0008C28.5614 36.9658 28.5496 36.9542 28.5378 36.9425C28.526 36.9309 28.5142 36.9076 28.5142 36.896C28.5142 32.726 28.5142 28.5678 28.5142 24.3979C31.2675 24.3979 34.0326 24.3979 36.7859 24.3979C36.7859 27.1933 36.7859 29.9888 36.7859 32.7843C36.7859 33.2385 36.7859 33.7045 36.7859 34.182C36.5141 34.182 36.2778 34.182 36.0415 34.182C35.817 34.182 35.5924 34.1937 35.3797 34.1937C35.3797 35.6147 35.3797 36.9891 35.3797 38.3752C36.7741 38.3752 38.1449 38.3752 39.5156 38.3752C39.5274 38.3752 39.5511 38.3636 39.5629 38.3519C39.5747 38.3403 39.5865 38.3286 39.5865 38.3286C39.5865 36.9309 39.5865 35.5681 39.5865 34.1704C39.3384 34.1704 39.102 34.1704 38.8657 34.1704C38.6412 34.1704 38.4048 34.1587 38.1803 34.1587C38.1803 33.6695 38.1803 33.2153 38.1803 32.7726C38.1803 29.9772 38.1803 27.1817 38.1803 24.3862C40.1537 24.3862 42.1153 24.3862 44.0887 24.3862C44.0887 28.5678 44.0887 32.7493 44.0887 36.9425C43.6279 36.9425 43.1788 36.9425 42.6825 36.9425C42.6825 37.1871 42.6707 37.4085 42.6707 37.6298C42.6707 37.8627 42.6707 38.084 42.6707 38.3403C42.2098 38.3403 41.7608 38.3403 41.2645 38.3403C41.2645 38.5849 41.2527 38.8062 41.2527 39.0275C41.2527 39.2605 41.2527 39.4818 41.2527 39.7497C40.78 39.773 40.3073 39.773 39.8465 39.773ZM42.4226 27.5777C41.9853 27.5777 41.5245 27.5777 41.04 27.5777C41.04 29.4647 41.04 31.3516 41.04 33.2502C41.5127 33.2502 41.9499 33.2502 42.4226 33.2502C42.4226 31.3516 42.4226 29.4763 42.4226 27.5777Z" fill="#CC464A"/>
<path d="M36.7742 24.3977C34.0209 24.3977 31.2558 24.3977 28.5024 24.3977C26.1391 24.3977 23.7757 24.3977 21.4124 24.3977C21.3533 24.3977 21.2942 24.3977 21.2351 24.3977C21.2115 24.3628 21.176 24.3395 21.176 24.3046C21.176 23.8852 21.176 23.4543 21.176 23C26.3872 23 31.5866 23 36.7742 23C36.7742 23.4659 36.7742 23.9318 36.7742 24.3977Z" fill="#D0E1E1"/>
<path d="M42.8007 42.5681C38.0385 42.5681 33.2882 42.5681 28.5142 42.5681C28.5142 42.0906 28.5142 41.648 28.5142 41.1704C32.2955 41.1704 36.0769 41.1704 39.8465 41.1704C40.8273 41.1704 41.8199 41.1704 42.8007 41.1704C42.8007 41.6363 42.8007 42.1022 42.8007 42.5681Z" fill="#CC464A"/>
<path d="M38.1921 24.3977C38.1921 23.9318 38.1921 23.4659 38.1921 23C40.2601 23 42.328 23 44.3842 23C44.396 23 44.4078 23.0233 44.4432 23.0466C44.4432 23.4776 44.4432 23.9202 44.4432 24.3511C44.3369 24.4327 44.2069 24.3744 44.1005 24.3977C42.1271 24.3977 40.1655 24.3977 38.1921 24.3977Z" fill="#D0E1E1"/>
<path d="M45.1641 42.5681C44.845 42.5681 44.5378 42.5681 44.2188 42.5681C44.2188 42.1022 44.2188 41.6363 44.2188 41.1704C45.4595 41.1704 46.7003 41.1704 47.9883 41.1704C47.9883 41.3917 48.0001 41.613 48.0001 41.8343C48.0001 42.0673 48.0001 42.3002 48.0001 42.5681C47.043 42.5681 46.0976 42.5681 45.1641 42.5681Z" fill="#CC464A"/>
<path d="M42.9563 42.6007C42.7802 42.6007 42.6107 42.6007 42.4346 42.6007C42.4346 42.1341 42.4346 41.6674 42.4346 41.2007C43.1194 41.2007 43.8041 41.2007 44.515 41.2007C44.515 41.4224 44.5215 41.644 44.5215 41.8657C44.5215 42.0991 44.5215 42.3324 44.5215 42.6007C43.9933 42.6007 43.4715 42.6007 42.9563 42.6007Z" fill="#FAE09B"/>
<defs>
<radialGradient id="paint0_radial" cx="0" cy="0" r="1" gradientUnits="userSpaceOnUse" gradientTransform="translate(32 32) rotate(90) scale(32)">
<stop stop-opacity="0"/>
<stop offset="1" stop-color="white"/>
</radialGradient>
<linearGradient id="paint1_linear" x1="32" y1="0" x2="32" y2="64" gradientUnits="userSpaceOnUse">
<stop stop-color="#4B4C4D"/>
<stop offset="1" stop-opacity="0"/>
</linearGradient>
</defs>
</svg>
