<svg width="64" height="64" viewBox="0 0 64 64" fill="none" xmlns="http://www.w3.org/2000/svg">
<circle cx="32" cy="32" r="31.75" fill="url(#paint0_radial)" fill-opacity="0.05" stroke="url(#paint1_linear)" stroke-width="0.5"/>
<path d="M47.4491 23.6661C47.4491 19.4365 40.7507 16 32.4841 16C24.2176 16 17.5088 19.4365 17.5088 23.6661C17.5088 27.8957 24.2176 31.3322 32.4841 31.3322C33.6888 31.3322 34.8623 31.2626 35.9839 31.1235L32.4841 24.1113H47.4179C47.4387 23.9722 47.4491 23.8191 47.4491 23.6661ZM23.2102 26.9078C22.2652 26.9078 21.4967 26.3652 21.4967 25.6835C21.4967 25.0017 22.2652 24.4452 23.2102 24.4452C24.1553 24.4452 24.9238 25.0017 24.9238 25.6835C24.9238 26.3652 24.1553 26.9078 23.2102 26.9078ZM26.6373 20.4243C25.6923 20.4243 24.9238 19.9513 24.9238 19.367C24.9238 18.7826 25.6923 18.3096 26.6373 18.3096C27.5824 18.3096 28.3509 18.7826 28.3509 19.367C28.3509 19.9513 27.5824 20.4243 26.6373 20.4243ZM31.2379 29.2174C30.6667 29.2174 30.1994 28.8278 30.1994 28.3687C30.1994 27.8957 30.6667 27.5061 31.2379 27.5061C31.8091 27.5061 32.2764 27.8957 32.2764 28.3687C32.2764 28.8278 31.8091 29.2174 31.2379 29.2174ZM32.2764 22.1357C31.7052 22.1357 31.2379 21.7461 31.2379 21.273C31.2379 20.8139 31.7052 20.4243 32.2764 20.4243C32.8476 20.4243 33.3149 20.8139 33.3149 21.273C33.3149 21.7461 32.8476 22.1357 32.2764 22.1357ZM37.4897 21.8435C36.5447 21.8435 35.7762 21.287 35.7762 20.6052C35.7762 19.9235 36.5447 19.367 37.4897 19.367C38.4348 19.367 39.2033 19.9235 39.2033 20.6052C39.2033 21.287 38.4348 21.8435 37.4897 21.8435Z" fill="#FCCD35"/>
<path d="M47.3245 25.5026H34.4262L35.2362 27.1165L36.8459 30.3444L37.5936 31.8331L37.8221 32.2922L37.4898 32.3339L36.0774 32.5148C35.4439 32.5983 34.7896 32.6539 34.125 32.6818L34.5508 39.04H47.4491C47.4491 39.04 48.768 29.12 47.3245 25.5026ZM40.2626 36.9392C39.5876 36.9392 39.0372 36.2018 39.0372 35.2835C39.0372 34.3792 39.5876 33.6418 40.2626 33.6418C40.948 33.6418 41.4984 34.3792 41.4984 35.2835C41.4984 36.2018 40.948 36.9392 40.2626 36.9392ZM43.2016 32C42.35 32 41.6646 31.0818 41.6646 29.9409C41.6646 28.8 42.35 27.8818 43.2016 27.8818C44.0532 27.8818 44.7386 28.8 44.7386 29.9409C44.7386 31.0818 44.0532 32 43.2016 32ZM45.2578 36.2157C44.8009 36.2157 44.427 35.7148 44.427 35.1165C44.427 34.5044 44.8009 34.0035 45.2578 34.0035C45.7044 34.0035 46.0782 34.5044 46.0782 35.1165C46.0782 35.7148 45.7044 36.2157 45.2578 36.2157Z" fill="#FCCD35"/>
<path d="M36.0775 32.5148L37.8222 32.2922C37.4172 34.3096 36.846 36.7443 36.711 39.04C36.4098 43.7148 36.5241 48 36.5241 48C26.8556 47.9304 21.8396 47.1235 18.4955 43.1165C15.1515 39.1096 16.0654 30.6226 16.2628 26.7548C16.3147 25.8087 16.4185 25.0852 16.5328 24.5148C17.2805 29.8574 25.1005 32.7235 32.4843 32.7235C33.0347 32.7235 33.5851 32.7096 34.1251 32.6817C34.7898 32.6539 35.444 32.5983 36.0775 32.5148Z" fill="#FFC31A"/>
<defs>
<radialGradient id="paint0_radial" cx="0" cy="0" r="1" gradientUnits="userSpaceOnUse" gradientTransform="translate(32 32) rotate(90) scale(32)">
<stop stop-opacity="0"/>
<stop offset="1" stop-color="white"/>
</radialGradient>
<linearGradient id="paint1_linear" x1="32" y1="0" x2="32" y2="64" gradientUnits="userSpaceOnUse">
<stop stop-color="#4B4C4D"/>
<stop offset="1" stop-opacity="0"/>
</linearGradient>
</defs>
</svg>
