<svg width="64" height="64" viewBox="0 0 64 64" fill="none" xmlns="http://www.w3.org/2000/svg">
<circle cx="32" cy="32" r="31.75" fill="url(#paint0_radial_17869_167844)" fill-opacity="0.05" stroke="url(#paint1_linear_17869_167844)" stroke-width="0.5"/>
<path d="M45.4845 27.8816C48.8749 26.3369 48.7746 23.8141 48.1628 22.4562C44.0087 15.7807 36.5933 13.0754 30.2641 14.2769C20.8055 15.8644 15.353 24.4407 15.503 32.6563C15.6465 40.5106 21.2027 45.6625 23.2341 46.7837C20.8203 43.5788 21.6674 37.7256 22.2889 35.5016C22.0753 34.3032 21.9586 31.8972 23.1603 28.7778C24.6051 25.0272 26.791 22.9992 31.378 22.9992C35.2419 22.9992 37.7084 25.4465 38.4489 26.6905C39.3948 27.6817 42.5005 29.2411 45.4845 27.8816Z" fill="url(#paint2_linear_17869_167844)"/>
<path d="M45.4844 27.8816C48.8749 26.3369 48.7745 23.8141 48.1627 22.4562C44.0086 15.7807 36.5933 13.0754 30.264 14.2769C27.5041 14.7401 25.0853 15.7984 23.0472 17.269C24.6754 16.6418 29.1644 15.7094 34.9409 17.8847C40.5126 19.9829 43.8772 25.2581 44.821 28.1369C45.0422 28.0668 45.2636 27.9822 45.4844 27.8816Z" fill="url(#paint3_linear_17869_167844)"/>
<path d="M45.4887 36.0674C48.8792 37.6122 48.7788 40.1351 48.1671 41.4929C44.0129 48.1685 36.5976 50.8738 30.2683 49.6722C23.7305 48.5749 19.0097 44.098 16.8338 38.9037C15.8393 36.5298 15.4398 34.2472 15.522 31.4586C15.9629 23.2071 21.0817 18.6548 23.0654 17.2617C22.0276 19.1266 20.1469 23.8973 20.2349 28.4475C20.3225 32.9703 21.5007 34.4884 22.2741 35.4848L22.2881 35.5029C22.4701 36.3101 22.6561 37.4211 23.0669 37.918C24.7389 39.9401 29.0299 40.6829 31.3916 40.6829C35.3865 40.6829 38.0496 39.5585 38.9482 38.1872C39.3896 37.5137 39.4867 36.7346 39.4867 36.4888C40.8948 35.6837 43.2267 35.0369 45.4887 36.0674Z" fill="url(#paint4_linear_17869_167844)"/>
<path d="M45.4844 36.1185C48.8749 37.6633 48.7745 40.1862 48.1627 41.544C44.0086 48.2195 36.5933 50.9249 30.264 49.7233C27.5041 49.2601 25.0853 48.2019 23.0472 46.7311C24.6754 47.3584 29.1644 48.2908 34.9409 46.1154C40.5126 44.0173 43.8772 38.7421 44.821 35.8633C45.0422 35.9334 45.2636 36.0179 45.4844 36.1185Z" fill="url(#paint5_linear_17869_167844)"/>
<path fill-rule="evenodd" clip-rule="evenodd" d="M28.9703 32.1539C28.9703 33.3722 27.969 34.286 26.8676 34.286C25.666 34.286 24.7649 33.3722 24.7649 32.1539C24.7649 31.7478 24.865 31.2402 25.1654 30.9355" fill="url(#paint6_linear_17869_167844)"/>
<path fill-rule="evenodd" clip-rule="evenodd" d="M32.975 32.1539C32.975 33.3722 33.9763 34.286 35.0777 34.286C36.2792 34.286 37.1804 33.3722 37.1804 32.1539C37.1804 31.7478 37.0803 31.2402 36.7799 30.9355" fill="url(#paint7_linear_17869_167844)"/>
<defs>
<radialGradient id="paint0_radial_17869_167844" cx="0" cy="0" r="1" gradientUnits="userSpaceOnUse" gradientTransform="translate(32 32) rotate(90) scale(32)">
<stop stop-opacity="0"/>
<stop offset="1" stop-color="white"/>
</radialGradient>
<linearGradient id="paint1_linear_17869_167844" x1="32" y1="0" x2="32" y2="64" gradientUnits="userSpaceOnUse">
<stop stop-color="#4B4C4D"/>
<stop offset="1" stop-opacity="0"/>
</linearGradient>
<linearGradient id="paint2_linear_17869_167844" x1="17.6019" y1="36.2323" x2="37.6968" y2="20.0129" gradientUnits="userSpaceOnUse">
<stop stop-color="#0F53FB"/>
<stop offset="1" stop-color="#087AFF"/>
</linearGradient>
<linearGradient id="paint3_linear_17869_167844" x1="33.4665" y1="23.5922" x2="36.2515" y2="14.7003" gradientUnits="userSpaceOnUse">
<stop stop-color="#5DD2FF"/>
<stop offset="1" stop-color="#0F53FB"/>
</linearGradient>
<linearGradient id="paint4_linear_17869_167844" x1="15.9257" y1="23.5096" x2="40.0377" y2="43.1202" gradientUnits="userSpaceOnUse">
<stop stop-color="#BC55FF"/>
<stop offset="1" stop-color="#5402FF"/>
</linearGradient>
<linearGradient id="paint5_linear_17869_167844" x1="38.3752" y1="27.888" x2="50.6989" y2="41.9339" gradientUnits="userSpaceOnUse">
<stop stop-color="#5402FF"/>
<stop offset="0.995152" stop-color="#BC55FF"/>
</linearGradient>
<linearGradient id="paint6_linear_17869_167844" x1="26.8266" y1="30.8903" x2="26.8266" y2="34.2317" gradientUnits="userSpaceOnUse">
<stop stop-color="#5402FF"/>
<stop offset="1" stop-color="#BC55FF"/>
</linearGradient>
<linearGradient id="paint7_linear_17869_167844" x1="35.1314" y1="30.8731" x2="35.1314" y2="39.0054" gradientUnits="userSpaceOnUse">
<stop stop-color="#0C68FE"/>
<stop offset="1" stop-color="#00F2FF"/>
</linearGradient>
</defs>
</svg>
