<svg width="64" height="64" viewBox="0 0 64 64" fill="none" xmlns="http://www.w3.org/2000/svg">
<circle cx="32" cy="32" r="31.75" fill="url(#paint0_radial)" fill-opacity="0.05" stroke="url(#paint1_linear)" stroke-width="0.5"/>
<path d="M48 39.5439V43.3121C47.9996 44.5552 47.5057 45.7472 46.6268 46.6263C45.7479 47.5053 44.5559 47.9994 43.3128 48H17.938V39.5625H16V35.8121H27.3124V36.7497C27.3136 37.4952 27.6102 38.2099 28.1373 38.7371C28.6644 39.2644 29.379 39.5612 30.1245 39.5625H46.1248L48 39.5439Z" fill="#D25254"/>
<path d="M32.938 16H31.0628V39.5625H32.938V16Z" fill="#D25254"/>
<path d="M36.6876 16H32.0004V21.6877H36.6876V16Z" fill="#E2C159"/>
<path d="M32.0004 16H27.2503V21.6877H32.0004V16Z" fill="#E2C159"/>
<path d="M44.219 23.4999H32.0004V33.0251H44.219V23.4999Z" fill="#E2C159"/>
<path d="M32.0004 23.4999H19.7818V33.0251H32.0004V23.4999Z" fill="#E2C159"/>
<defs>
<radialGradient id="paint0_radial" cx="0" cy="0" r="1" gradientUnits="userSpaceOnUse" gradientTransform="translate(32 32) rotate(90) scale(32)">
<stop stop-opacity="0"/>
<stop offset="1" stop-color="white"/>
</radialGradient>
<linearGradient id="paint1_linear" x1="32" y1="0" x2="32" y2="64" gradientUnits="userSpaceOnUse">
<stop stop-color="#4B4C4D"/>
<stop offset="1" stop-opacity="0"/>
</linearGradient>
</defs>
</svg>
