<svg id="组_2" data-name="组 2" xmlns="http://www.w3.org/2000/svg" width="26.218" height="26.218" viewBox="0 0 26.218 26.218">
  <defs>
    <style>
      .cls-1 {
        fill: #25294a;
      }
    </style>
  </defs>
  <path id="路径_14574" data-name="路径 14574" class="cls-1" d="M129.95,154a1.544,1.544,0,0,1-1.3-.65,1.851,1.851,0,0,1,0-2.817l22.1-21.885a1.992,1.992,0,0,1,2.817,2.817L131.25,153.352A1.544,1.544,0,0,1,129.95,154Z" transform="translate(-128 -127.783)"/>
  <path id="路径_14575" data-name="路径 14575" class="cls-1" d="M152.051,147.818a1.544,1.544,0,0,1-1.3-.65l-22.1-22.1a1.992,1.992,0,1,1,2.817-2.817l22.1,22.1a1.851,1.851,0,0,1,0,2.817A2.341,2.341,0,0,1,152.051,147.818Z" transform="translate(-128 -121.6)"/>
</svg>
