<svg xmlns="http://www.w3.org/2000/svg" xmlns:xlink="http://www.w3.org/1999/xlink" width="123.462" height="98.207" viewBox="0 0 123.462 98.207"><defs><style>.a{fill:#ff8bff;}.b{fill:url(#a);}.c{fill:url(#b);}.d{fill:url(#c);}.e{fill:url(#d);}.f{fill:url(#e);}.g{fill:url(#f);}.h{fill:url(#g);}.i{fill:url(#h);}.j{fill:url(#i);}.k{fill:#ffc727;}.l{fill:url(#j);}.m{fill:url(#k);}.n{fill:url(#l);}.o{fill:#ffae27;}.p{fill:url(#m);}.q{fill:url(#n);}.r{fill:url(#o);}.s{fill:url(#p);}.ag,.bh,.t{mix-blend-mode:multiply;}.ag,.ax,.ba,.bh,.t,.v{isolation:isolate;}.u{fill:#ffa7ff;}.ag,.as,.v{opacity:0.3;}.ba,.v{mix-blend-mode:overlay;}.w{fill:#a495ff;}.x{fill:url(#q);}.y{fill:#de2b64;}.z{fill:#ff8b9e;}.aa{fill:url(#r);}.ab{fill:#c0c0ff;}.ac{fill:url(#s);}.ad{fill:url(#t);}.ae{fill:url(#u);}.af{fill:url(#v);}.ah{fill:url(#w);}.ai{fill:#4f1594;}.aj{fill:#aeaeff;}.ak,.bg{fill:#a656c7;}.al{fill:url(#x);}.am{fill:url(#y);}.an{fill:url(#z);}.ao{fill:url(#aa);}.ap{fill:url(#ab);}.aq{fill:url(#ac);}.ar{fill:url(#ad);}.at{fill:#fff;}.au{fill:#ffae5e;}.av{fill:#ffd18b;}.aw{fill:#fff28b;}.ax{mix-blend-mode:screen;}.ay{fill:#a2b8ff;}.az{fill:#e65686;}.bb{fill:#ffceff;}.bc{fill:url(#ae);}.bd{fill:url(#af);}.be{fill:url(#ag);}.bf{fill:#e3611b;}.bg,.bm{fill-rule:evenodd;}.bh{opacity:0.5;}.bi{fill:#cdc4df;}.bj{fill:#9affff;}.bk{fill:url(#ah);}.bl{fill:url(#ai);}.bm{fill:url(#aj);}.bn{fill:url(#ak);}.bo{fill:url(#al);}.bp{fill:url(#am);}.bq{fill:url(#an);}</style><linearGradient id="a" x1="0.39" y1="1.064" x2="0.567" y2="-0.57" gradientUnits="objectBoundingBox"><stop offset="0" stop-color="#5a38b5"/><stop offset="0.379" stop-color="#5e3bba"/><stop offset="0.799" stop-color="#6b43c7"/><stop offset="1" stop-color="#7349d0"/></linearGradient><linearGradient id="b" x1="0.53" y1="0.877" x2="0.447" y2="-0.424" gradientUnits="objectBoundingBox"><stop offset="0" stop-color="#471790"/><stop offset="0.434" stop-color="#4b1895"/><stop offset="0.915" stop-color="#571ba2"/><stop offset="1" stop-color="#5a1ca5"/></linearGradient><linearGradient id="c" x1="0.5" y1="1" x2="0.5" y2="0.001" gradientUnits="objectBoundingBox"><stop offset="0" stop-color="#8568e3"/><stop offset="0.487" stop-color="#8767e8"/><stop offset="1" stop-color="#8e64f4"/></linearGradient><linearGradient id="d" y1="0.5" x2="1" y2="0.5" gradientUnits="objectBoundingBox"><stop offset="0" stop-color="#3ba2ff"/><stop offset="0.185" stop-color="#3ba6fa"/><stop offset="0.39" stop-color="#3db2ed"/><stop offset="0.605" stop-color="#3fc7d7"/><stop offset="0.825" stop-color="#43e3b8"/><stop offset="1" stop-color="#46ff9a"/></linearGradient><linearGradient id="e" x1="0.379" y1="2.628" x2="0.51" y2="0.043" xlink:href="#a"/><linearGradient id="f" x1="0.498" y1="1" x2="0.502" gradientUnits="objectBoundingBox"><stop offset="0" stop-color="#9c85eb"/><stop offset="0.413" stop-color="#a188ee"/><stop offset="0.871" stop-color="#ae91f5"/><stop offset="1" stop-color="#b395f8"/></linearGradient><linearGradient id="g" x1="0.581" y1="2.15" x2="0.507" y2="0.35" xlink:href="#b"/><linearGradient id="h" y1="0.501" x2="1" y2="0.501" gradientUnits="objectBoundingBox"><stop offset="0" stop-color="#fc6c1f"/><stop offset="0.053" stop-color="#fc781e"/><stop offset="0.227" stop-color="#fd981a"/><stop offset="0.407" stop-color="#feb218"/><stop offset="0.592" stop-color="#ffc516"/><stop offset="0.785" stop-color="#ffcf14"/><stop offset="1" stop-color="#ffd314"/></linearGradient><linearGradient id="i" x1="0.501" y1="1" x2="0.501" gradientUnits="objectBoundingBox"><stop offset="0" stop-color="#b34045"/><stop offset="0.052" stop-color="#b64343"/><stop offset="0.65" stop-color="#cf5e34"/><stop offset="1" stop-color="#d8682e"/></linearGradient><linearGradient id="j" x1="0.5" y1="1" x2="0.5" gradientUnits="objectBoundingBox"><stop offset="0" stop-color="#fc4b32"/><stop offset="0.213" stop-color="#ee4335"/><stop offset="0.709" stop-color="#d3323a"/><stop offset="1" stop-color="#c92c3c"/></linearGradient><linearGradient id="k" x1="0.5" y1="1" x2="0.5" y2="-0.001" gradientUnits="objectBoundingBox"><stop offset="0" stop-color="#fc6c1f"/><stop offset="0.603" stop-color="#fe8417"/><stop offset="1" stop-color="#ff8e14"/></linearGradient><linearGradient id="l" x1="0.5" y1="1" x2="0.5" y2="0" xlink:href="#k"/><linearGradient id="m" x1="0.5" y1="1" x2="0.5" gradientUnits="objectBoundingBox"><stop offset="0" stop-color="#b90a65"/><stop offset="0.257" stop-color="#af1153"/><stop offset="0.725" stop-color="#a11d38"/><stop offset="1" stop-color="#9b212e"/></linearGradient><linearGradient id="n" x1="0.5" y1="1" x2="0.5" y2="0" xlink:href="#k"/><linearGradient id="o" x1="0.5" y1="1.001" x2="0.5" y2="-0.001" xlink:href="#c"/><linearGradient id="p" x1="0.425" y1="1.683" x2="0.512" y2="0.218" gradientUnits="objectBoundingBox"><stop offset="0" stop-color="#5a38b5"/><stop offset="0.371" stop-color="#5f3bb5"/><stop offset="0.783" stop-color="#6c44b6"/><stop offset="1" stop-color="#764bb7"/></linearGradient><linearGradient id="q" x1="0.499" y1="1.001" x2="0.499" y2="-0.001" gradientUnits="objectBoundingBox"><stop offset="0" stop-color="#870079"/><stop offset="0.628" stop-color="#a0015e"/><stop offset="1" stop-color="#aa0254"/></linearGradient><linearGradient id="r" x1="0.158" y1="1" x2="0.794" y2="0" xlink:href="#q"/><linearGradient id="s" x1="0.5" y1="1" x2="0.5" y2="0" xlink:href="#m"/><linearGradient id="t" x1="0.5" y1="1.001" x2="0.5" gradientUnits="objectBoundingBox"><stop offset="0" stop-color="#fcb11f"/><stop offset="0.062" stop-color="#fcb11e"/><stop offset="1" stop-color="#ffb214"/></linearGradient><linearGradient id="u" x1="0.5" y1="1.001" x2="0.5" y2="0" xlink:href="#k"/><linearGradient id="v" y1="0.501" x2="1" y2="0.501" gradientUnits="objectBoundingBox"><stop offset="0" stop-color="#e6235d"/><stop offset="0.224" stop-color="#db2d4e"/><stop offset="0.713" stop-color="#c64033"/><stop offset="1" stop-color="#be4729"/></linearGradient><linearGradient id="w" x1="0.5" y1="1" x2="0.5" gradientUnits="objectBoundingBox"><stop offset="0" stop-color="#3b0877"/><stop offset="0.329" stop-color="#3c077c"/><stop offset="0.693" stop-color="#410489"/><stop offset="1" stop-color="#46019a"/></linearGradient><linearGradient id="x" x1="0.523" y1="0.847" x2="0.445" y2="-0.35" xlink:href="#b"/><linearGradient id="y" x1="0.5" y1="1" x2="0.5" y2="-0.001" xlink:href="#c"/><linearGradient id="z" x1="0.5" y1="1.002" x2="0.5" y2="-0.001" xlink:href="#w"/><linearGradient id="aa" x1="0.5" y1="1" x2="0.5" y2="0.001" gradientUnits="objectBoundingBox"><stop offset="0" stop-color="#1d2048"/><stop offset="0.403" stop-color="#1e1136"/><stop offset="1" stop-color="#2a1036"/></linearGradient><linearGradient id="ab" x1="0.614" y1="5.112" x2="0.462" y2="-1.015" gradientUnits="objectBoundingBox"><stop offset="0" stop-color="#3b59ff"/><stop offset="0.141" stop-color="#3b5efc"/><stop offset="0.298" stop-color="#3c6bf4"/><stop offset="0.462" stop-color="#3e81e7"/><stop offset="0.631" stop-color="#40a0d4"/><stop offset="0.804" stop-color="#42c8bb"/><stop offset="0.978" stop-color="#46f89e"/><stop offset="1" stop-color="#46ff9a"/></linearGradient><linearGradient id="ac" x1="0.574" y1="3.488" x2="0.421" y2="-2.766" xlink:href="#ab"/><linearGradient id="ad" x1="0.532" y1="1.816" x2="0.377" y2="-4.571" xlink:href="#ab"/><linearGradient id="ae" x1="0.5" y1="1" x2="0.5" y2="-0.001" xlink:href="#a"/><linearGradient id="af" x1="0.5" y1="1.001" x2="0.5" y2="-0.003" gradientUnits="objectBoundingBox"><stop offset="0" stop-color="#8568e3"/><stop offset="0.277" stop-color="#866de5"/><stop offset="0.584" stop-color="#887ae9"/><stop offset="0.905" stop-color="#8c90f1"/><stop offset="1" stop-color="#8e98f4"/></linearGradient><linearGradient id="ag" x1="0.503" y1="1.001" x2="0.503" y2="0" xlink:href="#b"/><linearGradient id="ah" x1="0.5" y1="0.999" x2="0.5" y2="-0.001" xlink:href="#c"/><linearGradient id="ai" x1="0.501" y1="1" x2="0.501" y2="0" xlink:href="#c"/><linearGradient id="aj" x1="0.502" y1="1.003" x2="0.502" y2="0.002" xlink:href="#c"/><linearGradient id="ak" x1="0.503" y1="1.002" x2="0.503" y2="0.001" xlink:href="#c"/><linearGradient id="al" x1="0.508" y1="0.999" x2="0.508" y2="-0.003" xlink:href="#c"/><linearGradient id="am" x1="0.5" y1="1" x2="0.5" y2="0" xlink:href="#c"/><linearGradient id="an" x1="0.501" y1="1" x2="0.501" y2="-0.001" gradientUnits="objectBoundingBox"><stop offset="0" stop-color="#ffc534"/><stop offset="0.447" stop-color="#ffb92d"/><stop offset="1" stop-color="#ffaf27"/></linearGradient></defs><path class="a" d="M3.522,56.511l9.773,24.338L33.361,85.2,22.359,0l-1.98,5.564-7.106.563L0,12.336,4.522,34.382l5.459.646s1.063,3.271.708,4.1-4.751.708-4.751.708,3.626,12.94,3.271,14.44S3.522,56.511,3.522,56.511Z"/><path class="b" d="M228.946,262.034l56.24-6.626L297.355,216.4,227.3,220.672Z" transform="translate(-179.937 -171.308)"/><path class="c" d="M76.02,204.489,36.2,194.8l8.627,39.3,32.84,11.836Z" transform="translate(-28.657 -154.209)"/><path class="d" d="M76.02,197.444l70.055-5.189L92.294,185.9,36.2,187.755Z" transform="translate(-28.657 -147.163)"/><path class="e" d="M56.934,169.131l35.319,8.252,63.6-4.647,1.479-9.648L55.6,161.9Z" transform="translate(-44.014 -128.164)"/><path class="f" d="M133.911,41.548,124.43,33.8,59.459,36.985,23.744,29.4,13.2,35.61l3.563,20.025L57.292,66.2l71.431-4.167Z" transform="translate(-10.449 -23.274)"/><path class="g" d="M99.515,25.427l64.971-3.188L101.87,14.8,63.8,17.842Z" transform="translate(-50.506 -11.716)"/><path class="h" d="M23.744,29.4,13.2,35.61l3.563,20.025L57.292,66.2,56.229,45.882l3.23-8.9Z" transform="translate(-10.449 -23.274)"/><path class="i" d="M194.014,310.071l-14.753.625-7.314-1.4-6.147,1.75,14.9,3.876,17.587-1.4Z" transform="translate(-131.252 -244.85)"/><path class="j" d="M464.8,316.617l-4.438-3.417L457.9,325.869l3.73,3.23Z" transform="translate(-362.486 -247.937)"/><path class="k" d="M474.138,303.4l15.107-2.021-5.209-4.876-.688,2.188L469.7,299.98Z" transform="translate(-371.827 -234.717)"/><path class="l" d="M99.489,314.35l-1.584-.563L95.635,291.7l-6.335,1,3.772,22.525Z" transform="translate(-70.692 -230.917)"/><path class="m" d="M31.964,269.008,31.8,268.3l-5.4,1.625,13.19,4.73,6.251-1.479Z" transform="translate(-20.899 -212.393)"/><path class="n" d="M238.654,351.448l58.511-8.21.125-.354,7.981-22.984-15.107,2.021L287,334.4l-32.611,3.459.5-15.941-17.587,1.4Z" transform="translate(-187.853 -253.241)"/><path class="o" d="M348.181,374l-28.756,2.355-.125,4.209,32.611-3.334Z" transform="translate(-252.766 -296.068)"/><path class="p" d="M55.447,284.768l1.438,13.919-15.357-6.293L39.59,280.83,26.4,276.1l7.793,23.317L71.7,316.775l-1.354-28.13Z" transform="translate(-20.899 -218.568)"/><path class="q" d="M114.42,354.822l-.438-4.5-9.856-3.522L99,348.363Z" transform="translate(-78.371 -274.536)"/><path class="r" d="M297.382,58.252,287.9,50.5,222.93,53.688l-3.23,8.9Z" transform="translate(-173.92 -39.977)"/><path class="s" d="M56.229,45.882l3.23-8.9L23.744,29.4,13.2,35.61Z" transform="translate(-10.449 -23.274)"/><g class="t" transform="translate(11.586 33.736)"><path class="u" d="M90.857,171.089,55.6,161.9l1.334,7.231,35.319,8.252.271-4.4,63.887-4.23.271-1.438Z" transform="translate(-55.6 -161.9)"/></g><g class="v" transform="translate(46.339 22.801)"><path class="w" d="M225.7,126.882c3.292,2.98,17.837,1.146,18.774-3.792s3.667-11.461,1.834-12.357c-1.834-.917-20.712-1.75-23.4-1.042C221.761,110,222.407,123.9,225.7,126.882Z" transform="translate(-222.383 -109.426)"/></g><path class="x" d="M235.338,133.49l3.688-.188-1.646-15H233.4Z" transform="translate(-184.766 -93.649)"/><path class="y" d="M235.13,132.99l3.292-.188-1.459-14.5H233.4Z" transform="translate(-184.766 -93.649)"/><path class="z" d="M242.7,188.088v.5l3.688-.188-.6-.5Z" transform="translate(-192.128 -148.747)"/><path class="aa" d="M542.9,113.745l3.73-.188L549.36,98.2h-3.98Z" transform="translate(-429.774 -77.738)"/><path class="y" d="M542.6,113.224l3.334-.188L548.705,98.2h-3.563Z" transform="translate(-429.536 -77.738)"/><path class="z" d="M543.046,169.588l-.146.521,3.73-.188-.458-.521Z" transform="translate(-429.774 -134.101)"/><path class="ab" d="M99.515,36.985l21.254-1.292s-17.649.333-22.921-.542C92.556,34.276,63.8,29.4,63.8,29.4Z" transform="translate(-50.506 -23.274)"/><path class="ac" d="M152.721,12.419l7.106,8.418,2.125-5.605-7.835-8.877L107.4,0V5.189Z" transform="translate(-85.021)"/><path class="ad" d="M154.909,7.231l19.837-.875L132.572,0H107.4Z" transform="translate(-85.021)"/><path class="ae" d="M362.8,38.231,355.237,30.5l-19.837.875,7.043,8-2.125,5.605L359.926,43.9Z" transform="translate(-265.511 -24.145)"/><path class="af" d="M359,74.351l19.608-1.084,2.876-5.668-20.358,1.146Z" transform="translate(-284.194 -53.514)"/><g class="ag" transform="translate(4.865 14.378)"><path class="w" d="M25.506,85.857c2.563,1.625,22.254,6.835,22.609,5.209s-2.938-12.315-9-17.107C33.028,69.167,23.381,69,23.381,69S22.922,84.253,25.506,85.857Z" transform="translate(-23.349 -69)"/></g><g class="ag" transform="translate(8.586 41.466)"><path class="w" d="M47.829,213.419c6.626,5.709,21.671,6.022,22.859,3.188,1.167-2.834-6.46-11.044-14.357-13.148S41.744,199,41.744,199C40.411,199.208,41.224,207.71,47.829,213.419Z" transform="translate(-41.203 -199)"/></g><path class="ah" d="M80.388,111.167,78.325,95.455,55.3,89.6l2.417,15.67Z" transform="translate(-43.777 -70.93)"/><path class="ai" d="M85.85,112.512l-1.6-15.607L62.2,91.3l2.25,15.649Z" transform="translate(-49.239 -72.275)"/><path class="aj" d="M479.553,46.621,471.01,45.6l-9.21,1.875Z" transform="translate(-365.573 -36.098)"/><g class="t" transform="translate(18.608 4.605)"><path class="ak" d="M145.5,38.332l-7.106-8.418L94.072,22.1,89.3,23.2l44.259,7.9,6.23,9,8.71-1.125,13.107-.875,1.959-.6Z" transform="translate(-89.3 -22.1)"/></g><g class="v" transform="translate(56.224 48.293)"><path class="w" d="M289.906,247.92c10.46,2.25,26.088-9.148,26.88-13.753s-41.112-1.688-45.946,1.229C266.005,238.293,279.424,245.669,289.906,247.92Z" transform="translate(-269.823 -231.763)"/></g><path class="al" d="M359.3,269.963l16.482-1.9L378.8,245.5l-18.5,1.084Z" transform="translate(-284.431 -194.344)"/><path class="am" d="M372.094,318l-12.419.354-.375,9,16.482-1.9Z" transform="translate(-284.431 -251.737)"/><path class="an" d="M363.783,246.584l-.083,1.98,12.9-.833,5.689-2.23Z" transform="translate(-287.914 -194.344)"/><path class="ao" d="M360.9,270.349l12.461-1.271,1.021-12.878-12.9.833Z" transform="translate(-285.698 -202.815)"/><path class="ap" d="M384.518,268.8l-7.376.583-.042,1.459,7.335-.583Z" transform="translate(-298.522 -212.789)"/><path class="aq" d="M383.935,285.6l-7.293.583L376.6,287.6l7.272-.563Z" transform="translate(-298.126 -226.088)"/><path class="ar" d="M383.451,302.2l-7.21.563-.042,1.4,7.189-.563Z" transform="translate(-297.81 -239.229)"/><g class="v" transform="translate(71.381 22.548)"><path class="w" d="M376.283,124.419c5.689-2.355,9.481-12.273,7.564-14.482s-13.565-2.4-24.963,0S339,123.418,344.048,124.815C344.048,124.815,370.615,126.752,376.283,124.419Z" transform="translate(-342.56 -108.209)"/></g><g class="v" transform="translate(7.543 62.896)"><path class="w" d="M41.951,319.815l30.235,14.169L57.454,321.42s-20-20.983-21.254-19.5Z" transform="translate(-36.2 -301.841)"/></g><g class="as" transform="translate(69.464 81.967)"><path class="w" d="M373.232,401.4s-.208-7.668-11.461-8.022S330.6,406.167,333.683,406.9Z" transform="translate(-333.363 -393.366)"/></g><g class="t" transform="translate(66.534 79.175)"><path class="at" d="M342.159,379.971c-7.272-.167-19.941,2.459-19.941,2.459l-2.917,2.855,32.611-3.334S349.431,380.138,342.159,379.971Z" transform="translate(-319.3 -379.963)"/></g><g class="t" transform="translate(39.674 2.355)"><path class="at" d="M216.072,15.488c4.522.688,22.317-.188,22.317-.188l-19.108-2.73L190.4,11.3S211.55,14.8,216.072,15.488Z" transform="translate(-190.4 -11.3)"/></g><path class="ak" d="M434.488,317.3l-2.188,9,5.334-.438,2.459-12.669Z" transform="translate(-342.22 -247.937)"/><path class="ak" d="M31.964,269.008,31.8,268.3l-5.4,1.625,3.084,1.1,13.523,1.292Z" transform="translate(-20.899 -212.393)"/><path class="au" d="M77.53,294.346l3.98-.938s-3.563.646-4.022.646A30.316,30.316,0,0,1,74.3,293.2Z" transform="translate(-58.818 -232.105)"/><path class="av" d="M180.74,322.43l17.545-2.25-17.587,1.4L165.8,317.7Z" transform="translate(-131.252 -251.5)"/><path class="aw" d="M487.854,314.863s-11.336.917-12.565.917-5.689-2.48-5.689-2.48l4.459,3.4Z" transform="translate(-371.748 -248.016)"/><g class="ax" transform="translate(74.869 72.981)"><path class="at" d="M375.782,350.981a2.3,2.3,0,0,0-2.063-.688c-1.167.292-14.419,2.584-14.419,2.584Z" transform="translate(-359.3 -350.24)"/></g><path class="ay" d="M295.455,216.4s-51.948,2.917-70.555,5.084C224.9,221.484,281.6,219.109,295.455,216.4Z" transform="translate(-178.037 -171.308)"/><path class="at" d="M342.443,42.681,362.8,41.556s-18.649.021-19.671-.5c-1-.5-7.731-6.355-7.731-6.355Z" transform="translate(-265.511 -27.469)"/><path class="az" d="M302.332,363.287,308.6,345.2s-4.98,13.815-8.606,16.045c-3.647,2.23-56.2,10.231-56.2,10.231Z" transform="translate(-192.998 -273.269)"/><g class="ba" transform="translate(6.293 59.928)"><path class="w" d="M37.222,308.521l36.153,16.732s-33.319-15.941-34.236-17.3C38.2,306.6,30.2,287.6,30.2,287.6Z" transform="translate(-30.2 -287.6)"/></g><path class="bb" d="M39.7,210.824l2.751.813C40.784,207.969,36.2,194.8,36.2,194.8Z" transform="translate(-28.657 -154.209)"/><path class="bb" d="M16.763,79.246l1.709.438a13.176,13.176,0,0,0-1.021-1.563C16.909,77.412,13.2,59.2,13.2,59.2Z" transform="translate(-10.449 -46.864)"/><path class="bc" d="M364.687,421.218l1.792-5.918-20.921,2.646-.958,6.085Z" transform="translate(-272.794 -328.762)"/><path class="ak" d="M366.771,413.2l-21.317,2.521-.854,6.647.958-6.085,20.921-2.646-1.771,5.855Z" transform="translate(-272.794 -327.1)"/><path class="bd" d="M349.6,418.217l20.379-2.417.146-.5L349.2,417.946Z" transform="translate(-276.436 -328.762)"/><path class="be" d="M345.954,428.271l-.4-.271-.958,6.085.5-.063Z" transform="translate(-272.794 -338.816)"/><path class="ay" d="M386.618,418.784a37.729,37.729,0,0,0,5.293-1.084l-10.21,1.292A30.7,30.7,0,0,0,386.618,418.784Z" transform="translate(-302.164 -330.662)"/><path class="bf" d="M233.826,366.093l-.229-27.4-2.4-.292Z" transform="translate(-183.024 -267.886)"/><g class="t" transform="translate(46.842 25.547)"><path class="bg" d="M296.251,135.811l3.317-13.143c-.23.908-2.721,10.667-3.734,11.164-1.063.521-71.035,6.147-71.035,6.147Zm3.334-13.211-.017.068Z" transform="translate(-224.8 -122.6)"/></g><g class="bh" transform="translate(6.39 18.934)"><path class="bi" d="M295.62,174.384c-1.521,3.709,1.855,4.418,2.563,1.271.292-1.292-.771-1.9-1.479-2.855a1.224,1.224,0,0,0-.6.479Z" transform="translate(-240.102 -155.727)"/><path class="bi" d="M312.5,180.184a2.449,2.449,0,0,0,1.229-3.584l-.479.313C312.665,177.809,312.04,179.142,312.5,180.184Z" transform="translate(-253.647 -158.735)"/><path class="bi" d="M341.478,130.708c1.209-2.042-1.1-6.418-3.584-4.543v1.25C335.977,129.312,339.77,133.583,341.478,130.708Z" transform="translate(-273.458 -118.448)"/><path class="bi" d="M250.878,352.408c1.209-2.042-1.1-6.418-3.584-4.543v1.25C245.377,351.012,249.17,355.283,250.878,352.408Z" transform="translate(-201.737 -293.952)"/><path class="bi" d="M365.653,126.434a2.567,2.567,0,0,0-.146-2.334c-.875.167-1,1.188-.479,1.875Z" transform="translate(-295.111 -117.175)"/><path class="bi" d="M490.356,124.69c.375,2.4,3.23,1.709,4.9.938,2.459-1.125,4.834-3.417,4.313-6.355-.417-2.4-2.292-4.355-5.272-3.48C493.065,118.106,489.939,122.065,490.356,124.69Z" transform="translate(-394.539 -110.43)"/><path class="bi" d="M521.225,166.473c2.23-.313-.083-3.938-.625-.771Z" transform="translate(-418.511 -149.087)"/><path class="bi" d="M468.03,266.2c1.4-.354,1.917-3.813,1.813-4.918-.188-1.959-1.521-3.584-4.313-2.855C464.946,260.2,464.9,267.01,468.03,266.2Z" transform="translate(-374.671 -223.369)"/><path class="bi" d="M199.257,267.05c.542-2-.729-8.752-4.543-5.168C193.819,264.466,197.882,272.2,199.257,267.05Z" transform="translate(-160.43 -225.431)"/><path class="bi" d="M212.5,246.315c.792-.833.167-3.459-1.229-3.126-1.6.4-.1,3.063.458,3.6Z" transform="translate(-173.065 -211.426)"/><path class="bi" d="M35.508,100.833c1.917-1.229.6-6-.083-7.5-.771-1.667-1.9-2.709-3.917-2.417C29.111,92.748,32.279,102.917,35.508,100.833Z" transform="translate(-30.667 -90.866)"/><path class="bi" d="M71,121.913c1.771.9,1.542-3.209.438-3.792-1.813-.959-1.646,2.876-1.375,3.938Z" transform="translate(-61.725 -112.321)"/><path class="bi" d="M171.59,264.613c-2.48-.458-4.793,1.209-4.376,3.876.375,2.5,3.4,4.772,5.876,3.688a4.046,4.046,0,0,0,2.063-3.126c.188-1.334-.146-2.167-.792-2.334C174.611,265.55,172.361,264.759,171.59,264.613Z" transform="translate(-138.723 -228.348)"/><path class="bi" d="M255.99,356.413c-2.48-.458-4.793,1.209-4.376,3.876.375,2.5,3.4,4.772,5.876,3.688a4.045,4.045,0,0,0,2.063-3.126c.208-1.334-.146-2.146-.792-2.334C259.011,357.35,256.761,356.559,255.99,356.413Z" transform="translate(-205.536 -301.02)"/><path class="bi" d="M151.163,287.047c.521-.625.146-2.042-.1-2.688-.333-.813-.9-1.479-1.959-.583C149.1,284.567,149.892,288.568,151.163,287.047Z" transform="translate(-124.422 -243.239)"/><path class="bi" d="M66.163,231.306a5.623,5.623,0,0,0,2.813,3.959,4.22,4.22,0,0,0,4.334-.417c2.021-1.646,1.459-4.938,0-6.73-.959-1.209-4.126-3.584-6.272-2.1C65.329,226.93,65.788,229.826,66.163,231.306Z" transform="translate(-58.488 -197.479)"/></g><g class="ba" transform="translate(58.616 42.259)"><path class="bj" d="M329.684,205.618s-1.375-3.667-22.754-2.626c-21.379,1.063-25.63,6-25.63,6Z" transform="translate(-281.3 -202.806)"/></g><path class="bj" d="M359.5,205.435s-3.063-4.459-13.065-2.9-15.232,5.23-15.232,5.23Z" transform="translate(-262.187 -160.071)"/><path class="bj" d="M398.907,261.766c1.563.792,2.23-1.209,2.313-1.709s-1.229-1.084-2.771-.583C397.595,259.766,397.365,261,398.907,261.766Z" transform="translate(-314.891 -205.255)"/><path class="bj" d="M405.888,280.979c.458-.708.063-2.021-.875-.542C404.7,280.938,405.43,281.688,405.888,280.979Z" transform="translate(-320.559 -221.468)"/><g class="t" transform="translate(48.749 65.242)"><path class="at" d="M234.209,317.351s13.107-.417,14.524-.542c1.417-.1,3-.4,3-.4l-4.042-3.313-13,.542C233.375,313.954,234.209,317.351,234.209,317.351Z" transform="translate(-233.948 -313.1)"/></g><g class="t" transform="translate(97.873 63.919)"><path class="at" d="M474.43,311.387l13.753-1.917s-3.9-2.542-4.48-2.709c-.583-.146-14,1.334-14,1.334Z" transform="translate(-469.7 -306.751)"/></g><path class="bk" d="M495.181,149.847a7.236,7.236,0,0,0,4.167-4.147,6.89,6.89,0,0,1-4.167,3.167c-3.209,1.084-4.793-.542-4.793-.542C490.305,149.513,491.93,151.118,495.181,149.847Z" transform="translate(-388.202 -115.34)"/><path class="bl" d="M520.762,168.509a.731.731,0,0,0,1.146.125,1.405,1.405,0,0,0,.313-.9c0,.313-.313,1.146-.938.833-.625-.333-.458-1.271-.458-1.271S520.471,168.154,520.762,168.509Z" transform="translate(-412.158 -132.439)"/><path class="bm" d="M337.617,141.6c-.077-.19-.117-.31-.117-.31A2.336,2.336,0,0,0,337.617,141.6Zm1.946,2.336a2.041,2.041,0,0,0,2.334-1.167,5.262,5.262,0,0,0,0-1.667c0,.979-.458,2.813-2.209,2.313a3.237,3.237,0,0,1-2.071-1.815C337.881,142.251,338.578,143.724,339.563,143.934Z" transform="translate(-267.174 -111.698)"/><path class="bn" d="M295.761,188.638a1.747,1.747,0,0,0,1.646-.458,5.655,5.655,0,0,0,.479-1.063s-.062.167-.208.479-1.25,1.125-1.959.583a1.816,1.816,0,0,1-.625-1.479C294.886,187.367,295.074,188.534,295.761,188.638Z" transform="translate(-233.541 -147.797)"/><path class="bo" d="M312.384,185.371c.417-.021,1.084-.792,1.313-1.334a1.962,1.962,0,0,0,.208-.938,3.21,3.21,0,0,1-.417,1.125c-.313.458-.813.959-1.084.667a1.21,1.21,0,0,1-.188-.854S311.967,185.392,312.384,185.371Z" transform="translate(-247.101 -144.947)"/><path class="bp" d="M465.938,271.6a1.856,1.856,0,0,0,2.876-.021,9.63,9.63,0,0,0,.792-2.667s-.479,1.959-.938,2.292a1.769,1.769,0,0,1-2.73-.4c-1-1.438-.771-5.105-.771-5.105C464.938,267.013,465.146,270.659,465.938,271.6Z" transform="translate(-368.169 -210.335)"/><path class="bq" d="M256.076,378.726a3.333,3.333,0,0,0,4-1.771,7.927,7.927,0,0,0,.417-2.355,6.269,6.269,0,0,1-.729,2.084,3.24,3.24,0,0,1-3.855,1.688A5.769,5.769,0,0,1,252.7,375.5S253.825,378.247,256.076,378.726Z" transform="translate(-200.044 -296.543)"/><g class="ba" transform="translate(47.363 49.489)"><path class="ab" d="M241.407,237.771l.646-.271-14.753.833.646,15.524,5.23-.292a22.064,22.064,0,0,1-3.792-.625,2.259,2.259,0,0,1-1.042-1.959c.042-.375,1.688-.771,1.479-.958-.188-.188-1.229-.542-1.271-.75a39.545,39.545,0,0,1,0-5.251c.208-1.042,1.771-1.771,1.771-1.771a2,2,0,0,1-1.771-.188c-.646-.583,0-3.084,0-3.084s5-.729,5.626-.271.833,2.375.833,2.375-.188-2.021.313-2.375S241.407,237.771,241.407,237.771Z" transform="translate(-227.3 -237.5)"/></g><g class="ba" transform="translate(108.334 45.071)"><path class="ab" d="M526.068,219.676s1.167.1,1.25.458-1.688,6.522-2.584,7.606a2.821,2.821,0,0,1-2.021,1.1s1.834.167,1.917.667-.854.959-.854.959a.946.946,0,0,1,.271.542,5.912,5.912,0,0,1-.667,2.5c-.438.438-3.48,1.084-3.48,1.084l3.188.583,5.9-18.879-6.272.917s3.313.292,4.022.833S526.068,219.676,526.068,219.676Z" transform="translate(-519.9 -216.3)"/></g><g class="ba" transform="translate(99.499 18.274)"><path class="at" d="M481.209,89.888a8.891,8.891,0,0,1,2.98-.854c.938.021,8.793-.438,9.148-.333s1.021.354,1.021.354a15.221,15.221,0,0,1,3.23-.583,20.615,20.615,0,0,0,3.876-.771L477.5,89.034A26.224,26.224,0,0,0,481.209,89.888Z" transform="translate(-477.5 -87.7)"/></g></svg>