<svg width="64" height="64" viewBox="0 0 64 64" fill="none" xmlns="http://www.w3.org/2000/svg">
<g filter="url(#filter0_bii)">
<circle cx="32" cy="32" r="32" fill="black" fill-opacity="0.05"/>
</g>
<path d="M17.0625 40.9655C17.0625 36.3195 17.0625 31.6735 17.0625 27.0275C17.4056 27.0275 17.7486 27.0275 18.1248 27.0275C18.1248 26.6971 18.1248 26.3978 18.1248 26.0983C18.4242 26.0983 18.7237 26.0983 19.0542 26.0983C19.0542 25.7223 19.0542 25.3794 19.0542 25.0363C19.3973 25.0363 19.7404 25.0363 20.1165 25.0363C20.1165 24.7059 20.1165 24.4066 20.1165 24.1071C20.416 24.1071 20.7154 24.1071 21.046 24.1071C21.046 23.7311 21.046 23.3882 21.046 23.0451C21.389 23.0451 21.7321 23.0451 22.1082 23.0451C22.1082 22.7147 22.1082 22.4154 22.1082 22.1159C22.4077 22.1159 22.7072 22.1159 23.0377 22.1159C23.0377 21.7399 23.0377 21.397 23.0377 21.0539C23.3808 21.0539 23.7238 21.0539 24.1 21.0539C24.1 20.7235 24.1 20.4242 24.1 20.1247C24.3994 20.1247 24.6989 20.1247 25.0294 20.1247C25.0294 19.7487 25.0294 19.4058 25.0294 19.0627C25.6933 19.0627 26.3573 19.0627 27.0212 19.0627C27.0212 19.7042 27.0212 20.3457 27.0212 21.0341C27.3602 21.0341 27.703 21.0341 28.0637 21.0341C28.0637 21.4054 28.0637 21.731 28.0637 22.1038C27.7368 22.1038 27.3936 22.1038 27.0293 22.1038C27.0293 22.4309 27.0293 22.7129 27.0293 23.0407C26.7106 23.0407 26.4117 23.0407 26.0921 23.0407C26.0921 23.4126 26.0921 23.7386 26.0921 24.087C25.7446 24.087 25.4185 24.087 25.0456 24.087C25.0456 24.4055 25.0456 24.7038 25.0456 25.0239C24.7186 25.0239 24.4366 25.0239 24.1084 25.0239C24.1084 25.3865 24.1084 25.7298 24.1084 26.0937C23.7366 26.0937 23.4105 26.0937 23.0616 26.0937C23.0616 26.3963 23.0616 26.6782 23.0616 26.9747C22.7526 27.0993 22.4392 26.9711 22.1246 27.055C22.1246 27.3782 22.1246 27.7043 22.1246 28.0769C21.7618 28.0769 21.4185 28.0769 21.0546 28.0769C21.0546 28.4045 21.0546 28.6858 21.0546 28.9926C20.7526 28.9926 20.4712 28.9926 20.2192 28.9926C20.1733 29.0325 20.1542 29.0443 20.1416 29.0613C20.1297 29.0771 20.1177 29.0982 20.1177 29.1171C20.1166 30.397 20.1168 31.6769 20.1168 32.9801C20.4192 32.9801 20.7009 32.9801 21.0145 32.9801C21.0145 33.6533 21.0145 34.3041 21.0145 34.9789C20.736 34.9789 20.4541 34.9789 20.1448 34.9789C20.1448 36.3163 20.1448 37.6306 20.1448 38.9686C20.4346 38.9686 20.7168 38.9686 21.022 38.9686C21.022 39.6259 21.022 40.2611 21.022 40.9435C21.3846 40.9435 21.7266 40.9435 22.091 40.9435C22.091 41.3149 22.091 41.641 22.091 42.0137C22.4094 42.0137 22.7081 42.0137 23.0282 42.0137C23.0282 42.3413 23.0282 42.6226 23.0282 42.9505C24.0558 42.9505 25.0617 42.9505 26.0897 42.9505C26.0897 43.3221 26.0897 43.6481 26.0897 43.9958C27.0576 43.9958 28.0028 43.9958 28.9949 43.9958C28.9949 43.6782 28.9949 43.3354 28.9949 42.9753C29.6765 42.9753 30.3118 42.9753 30.9942 42.9753C30.9942 43.3045 30.9942 43.6477 30.9942 44.0033C31.6761 44.0033 32.3113 44.0033 32.9716 44.0033C32.9716 43.6785 32.9716 43.3527 32.9716 42.977C33.3332 42.9358 33.6753 42.9665 34.0401 42.9531C34.0401 43.3047 34.0401 43.6309 34.0401 43.9874C34.7136 43.9874 35.3645 43.9874 36.0394 43.9874C36.0394 43.6618 36.0394 43.3357 36.0394 42.9634C36.3574 42.9634 36.6574 42.9634 36.9766 42.9634C36.9766 42.6357 36.9766 42.3542 36.9766 42.0499C37.324 42.0499 37.6502 42.0499 38.0232 42.0499C38.0232 41.6874 38.0232 41.3446 38.0232 40.9802C38.3504 40.9802 38.632 40.9802 38.9604 40.9802C38.9604 40.6622 38.9604 40.3627 38.9604 40.0433C39.332 40.0433 39.6581 40.0433 40.0086 40.0433C40.0086 39.6967 40.0086 39.371 40.0086 39.0277C40.3174 38.9015 40.6304 39.0314 40.9442 38.9442C40.9442 38.6705 40.9442 38.3886 40.9442 38.0599C41.3068 38.0599 41.6497 38.0599 42.0142 38.0599C42.0142 37.6886 42.0142 37.3626 42.0142 36.9902C42.3321 36.9902 42.6321 36.9902 42.9514 36.9902C42.9514 36.6625 42.9514 36.381 42.9514 36.0537C44.2956 36.0537 45.6169 36.0537 46.9382 36.0537C46.9382 36.3634 46.9382 36.6731 46.9382 36.9829C46.6388 36.9829 46.3393 36.9829 46.0088 36.9829C46.0088 37.3589 46.0088 37.7018 46.0088 38.0449C45.6657 38.0449 45.3226 38.0449 44.9465 38.0449C44.9465 38.3753 44.9465 38.6746 44.9465 38.9741C44.647 38.9741 44.3476 38.9741 44.017 38.9741C44.017 39.3501 44.017 39.693 44.017 40.0361C43.674 40.0361 43.3309 40.0361 42.9548 40.0361C42.9548 40.3665 42.9548 40.6658 42.9548 40.9653C42.6553 40.9653 42.3558 40.9653 42.0253 40.9653C42.0253 41.3413 42.0253 41.6842 42.0253 42.0273C41.6822 42.0273 41.3392 42.0273 40.963 42.0273C40.963 42.3577 40.963 42.657 40.963 42.9565C40.6636 42.9565 40.3641 42.9565 40.0336 42.9565C40.0336 43.3325 40.0336 43.6754 40.0336 44.0185C39.6905 44.0185 39.3474 44.0185 38.9713 44.0185C38.9713 44.3489 38.9713 44.6482 38.9713 44.9477C38.6718 44.9477 38.3724 44.9477 38.0418 44.9477C38.0418 45.3237 38.0418 45.6666 38.0418 46.0097C32.7306 46.0097 27.4194 46.0097 22.1082 46.0097C22.1082 45.6663 22.1082 45.3231 22.1082 44.9477C21.7328 44.9477 21.3893 44.9477 21.046 44.9477C21.046 44.6486 21.046 44.3495 21.046 44.0185C20.7148 44.0185 20.4157 44.0185 20.1165 44.0185C20.1165 43.6751 20.1165 43.3319 20.1165 42.9565C19.741 42.9565 19.3976 42.9565 19.0542 42.9565C19.0542 42.6574 19.0542 42.3583 19.0542 42.0273C18.723 42.0273 18.424 42.0273 18.1248 42.0273C18.1248 41.6839 18.1248 41.3407 18.1248 40.9653C17.7493 40.9655 17.4058 40.9655 17.0625 40.9655Z" fill="#1F81B7"/>
<path d="M40.9627 34.0628C40.9627 34.7139 40.9627 35.3651 40.9627 36.054C40.6351 36.054 40.3342 36.054 40.0332 36.054C39.6902 36.054 39.3471 36.054 38.971 36.054C38.971 36.3844 38.971 36.6837 38.971 36.9832C38.6715 36.9832 38.372 36.9832 38.0415 36.9832C38.0415 37.3592 38.0415 37.7021 38.0415 38.0452C37.6984 38.0452 37.3554 38.0452 36.9792 38.0452C36.9792 38.3756 36.9792 38.6749 36.9792 38.9744C36.6798 38.9744 36.3803 38.9744 36.0498 38.9744C36.0498 39.3504 36.0498 39.6933 36.0498 40.0364C35.7067 40.0364 35.3636 40.0364 34.9875 40.0364C34.9875 40.3668 34.9875 40.6661 34.9875 40.9656C34.6776 40.9656 34.3679 40.9656 34.058 40.9656C34.058 40.6625 34.058 40.3593 34.058 40.0325C33.6731 40.0464 33.3316 40.0163 32.9958 40.0533C32.9958 40.3927 32.9958 40.6792 32.9958 40.9656C32.3319 40.9656 31.6679 40.9656 31.004 40.9656C31.004 40.6623 31.004 40.3589 31.004 40.0364C30.6314 40.0364 30.3031 40.0311 29.9751 40.0379C29.6534 40.0445 29.3278 40.0065 29.0123 40.0615C29.0123 40.3921 29.0123 40.6789 29.0123 40.9656C28.0386 40.9656 27.0648 40.9656 26.0911 40.9656C26.0911 40.6647 26.0911 40.3639 26.0911 40.0364C25.402 40.0364 24.7507 40.0364 24.0994 40.0364C24.0994 39.3849 24.0994 38.7336 24.0994 38.0452C23.7268 38.0452 23.382 38.0452 23.0371 38.0452C23.0371 37.0275 23.0371 36.0099 23.0371 34.9921C23.3847 34.9921 23.7322 34.9921 24.0994 34.9921C24.0994 34.6197 24.1047 34.2915 24.0979 33.9635C24.0912 33.6419 24.1294 33.3163 24.0743 33.0009C23.6992 33.0009 23.3682 33.0009 23.0372 33.0009C23.0372 32.3372 23.0372 31.6735 23.0372 31.0097C23.382 31.0097 23.727 31.0097 24.0995 31.0097C24.0995 30.3213 24.0995 29.67 24.0995 29.0185C24.3987 29.0185 24.6978 29.0185 25.029 29.0185C25.029 28.6875 25.029 28.3884 25.029 28.0893C25.3723 28.0893 25.7158 28.0893 26.0912 28.0893C26.0912 27.714 26.0912 27.3707 26.0912 27.0273C26.3904 27.0273 26.6895 27.0273 27.0207 27.0273C27.0207 26.6963 27.0207 26.3972 27.0207 26.0981C27.364 26.0981 27.7075 26.0981 28.083 26.0981C28.083 25.7228 28.083 25.3795 28.083 25.0361C28.3864 25.0361 28.6898 25.0361 29.0135 25.0361C29.0135 24.7111 29.0135 24.43 29.0135 24.1069C29.6915 24.1069 30.3478 24.1069 31.004 24.1069C31.004 24.3937 31.004 24.6804 31.004 24.9931C30.7199 25.1081 30.4076 24.9793 30.0746 25.0707C30.0746 25.7149 30.0746 26.3711 30.0746 27.0272C29.7312 27.0272 29.3878 27.0272 29.0123 27.0272C29.0123 27.4025 29.0123 27.7459 29.0123 28.0892C28.7131 28.0892 28.414 28.0892 28.0828 28.0892C28.0828 28.4203 28.0828 28.7193 28.0828 29.0184C27.7395 29.0184 27.396 29.0184 27.0206 29.0184C27.0206 29.3937 27.0206 29.7371 27.0206 30.0804C26.7176 30.0804 26.4147 30.0804 26.0911 30.0804C26.0911 32.4104 26.0911 34.6967 26.0911 36.9831C26.0911 37.3371 26.0911 37.6911 26.0911 38.0451C26.0911 38.3488 26.0911 38.6527 26.0911 38.9523C28.263 39.0381 33.4759 39.0071 34.0579 38.9069C34.0579 38.6196 34.0579 38.3324 34.0579 38.0451C34.3574 38.0451 34.6568 38.0451 34.9874 38.0451C34.9874 37.6691 34.9874 37.3261 34.9874 36.9831C35.3304 36.9831 35.6735 36.9831 36.0496 36.9831C36.0496 36.6527 36.0496 36.3533 36.0496 36.0539C36.3491 36.0539 36.6486 36.0539 36.9791 36.0539C36.9791 35.6779 36.9791 35.3349 36.9791 34.9919C37.6304 34.9919 38.2818 34.9919 38.9708 34.9919C38.9708 34.6644 38.9708 34.3636 38.9708 34.0627C39.635 34.0628 40.2988 34.0628 40.9627 34.0628Z" fill="#1F81B7"/>
<path d="M36.98 32.0716C36.98 32.7354 36.98 33.3991 36.98 34.0628C36.6808 34.0628 36.3818 34.0628 36.0506 34.0628C36.0506 34.3939 36.0506 34.6929 36.0506 34.992C35.7072 34.992 35.3638 34.992 34.9883 34.992C34.9883 35.3673 34.9883 35.7107 34.9883 36.054C34.6891 36.054 34.39 36.054 34.0588 36.054C34.0588 36.3851 34.0588 36.6841 34.0588 36.9832C31.7131 36.9832 29.3672 36.9832 27.0215 36.9832C27.0215 34.992 27.0215 33.0009 27.0215 31.0098C27.3646 31.0098 27.7076 31.0098 28.0838 31.0098C28.0838 30.6794 28.0838 30.38 28.0838 30.0806C28.3832 30.0806 28.6827 30.0806 29.0132 30.0806C29.0132 29.7046 29.0132 29.3616 29.0132 29.0186C29.3563 29.0186 29.6994 29.0186 30.0755 29.0186C30.0755 28.6882 30.0755 28.3888 30.0755 28.0894C31.0492 28.0894 32.023 28.0894 32.9967 28.0894C32.9967 28.3911 32.9967 28.6928 32.9967 29.0186C34.0415 29.0186 35.046 29.0186 36.0507 29.0186C36.0507 29.6823 36.0507 30.346 36.0507 31.0098C36.0507 31.3527 36.0507 31.6956 36.0507 32.0718C36.381 32.0716 36.6804 32.0716 36.98 32.0716Z" fill="#1F81B7"/>
<path d="M40.0342 25.0361C40.0342 25.3672 40.0342 25.6983 40.0342 26.0759C39.6962 26.0759 39.3546 26.0759 38.9719 26.0759C38.9719 27.0872 38.9719 28.0528 38.9719 29.0184C38.9719 29.3724 38.9719 29.7264 38.9719 30.0804C38.662 30.0804 38.3523 30.0804 38.0424 30.0804C37.7115 30.0804 37.3804 30.0804 37.0041 30.0804C36.9473 29.0805 37.0041 28.0761 36.9707 27.0509C36.0191 27.0509 35.0765 27.0509 34.0868 27.0509C34.0868 26.7357 34.0868 26.44 34.0868 26.1216C33.4069 26.1216 32.7731 26.1216 32.0873 26.1216C32.0467 25.7629 32.0777 25.4216 32.0635 25.0361C32.3899 25.0361 32.6933 25.0361 32.9968 25.0361C33.6607 25.0361 34.3247 25.0361 34.9885 25.0361C34.9885 25.3837 34.9885 25.7313 34.9885 26.0981C36.0024 26.0981 36.9711 26.0983 37.9397 26.0972C37.959 26.0972 37.9803 26.0872 37.9967 26.0761C38.0144 26.0641 38.0275 26.0453 38.0425 26.0295C38.0425 25.6984 38.0425 25.3672 38.0425 25.0361C38.7064 25.0361 39.3703 25.0361 40.0342 25.0361Z" fill="#1F81B7"/>
<path d="M34.9883 22.1159C34.9883 21.7863 34.9883 21.4569 34.9883 21.0695C35.6313 21.0311 36.2804 21.0711 36.9711 21.0461C36.9711 20.7481 36.9711 20.4501 36.9711 20.1367C37.6475 20.1367 38.2799 20.1367 38.9565 20.1367C38.9565 19.7806 38.9565 19.4395 38.9565 19.063C39.6545 19.063 40.3089 19.063 40.9633 19.063C40.9633 19.417 40.9633 19.771 40.9633 20.125C40.6641 20.125 40.3651 20.125 40.0339 20.125C40.0339 20.4561 40.0339 20.7551 40.0339 21.0542C39.6905 21.0542 39.3471 21.0542 38.9716 21.0542C38.9716 21.4295 38.9716 21.7729 38.9716 22.1162C37.6439 22.1159 36.316 22.1159 34.9883 22.1159Z" fill="#1F81B7"/>
<path d="M44.9466 24.1071C44.9466 24.7612 44.9466 25.4155 44.9466 26.0901C44.6301 26.0901 44.3501 26.0901 44.0282 26.0901C44.0282 26.7579 44.0282 27.4065 44.0282 28.0748C43.6633 28.0748 43.3389 28.0748 42.9727 28.0748C42.9727 28.7419 42.9727 29.3905 42.9727 30.0804C42.6302 30.0804 42.3278 30.0804 42.0254 30.0804C42.0254 28.7529 42.0254 27.4256 42.0254 26.0981C42.3249 26.0981 42.6243 26.0981 42.9549 26.0981C42.9549 25.7221 42.9549 25.3792 42.9549 25.0361C43.2979 25.0361 43.641 25.0361 44.0171 25.0361C44.0171 24.7057 44.0171 24.4064 44.0171 24.1069C44.3269 24.1071 44.6367 24.1071 44.9466 24.1071Z" fill="#1F81B7"/>
<path d="M46.9385 30.0804C46.9385 29.4252 46.9385 28.7701 46.9385 28.1025C47.3025 28.1025 47.6267 28.1025 47.9759 28.1025C47.9759 30.0771 47.9759 32.0483 47.9759 34.0627C47.6323 34.0627 47.2854 34.0627 46.9385 34.0627C46.9385 32.7353 46.9385 31.4079 46.9385 30.0804Z" fill="#60BAE9"/>
<path d="M28.084 18.1336C28.084 17.8036 28.084 17.4736 28.084 17.0971C28.8848 17.0418 29.69 17.0802 30.4936 17.0732C31.3072 17.0663 32.1209 17.0716 32.9657 17.0716C32.9657 17.4139 32.9657 17.7536 32.9657 18.1336C32.3153 18.1336 31.6603 18.1336 31.0052 18.1336C30.0313 18.1336 29.0576 18.1336 28.084 18.1336Z" fill="#60BAE9"/>
<path d="M42.0257 26.0981C42.0257 27.4256 42.0257 28.7531 42.0257 30.0804C42.0257 30.3661 42.0257 30.652 42.0257 30.9929C41.6914 31.0301 41.3506 30.9989 40.9873 31.0127C40.9873 29.3741 40.9873 27.7572 40.9873 26.0981C41.3325 26.0981 41.6792 26.0981 42.0257 26.0981Z" fill="#60BAE9"/>
<path d="M46.938 30.0805C46.938 31.4079 46.938 32.7354 46.938 34.0627C46.2742 34.0627 45.6103 34.0627 44.9463 34.0627C44.9463 33.7087 44.9463 33.3547 44.9463 33.0007C45.2775 33.0007 45.6087 33.0007 45.9858 33.0007C46.0378 32.0445 45.9896 31.0838 46.0148 30.0803C46.331 30.0805 46.6344 30.0805 46.938 30.0805Z" fill="#1F81B7"/>
<path d="M34.9883 22.116C36.3162 22.116 37.6439 22.116 38.9718 22.116C38.9718 22.4017 38.9718 22.6874 38.9718 23.0192C38.1718 23.076 37.3674 23.0365 36.5647 23.0436C35.7514 23.0508 34.9381 23.0452 34.0918 23.0452C34.0918 22.7509 34.0918 22.4554 34.0918 22.116C34.3831 22.116 34.6858 22.116 34.9883 22.116Z" fill="#60BAE9"/>
<path d="M31.0051 24.1071C30.3488 24.1071 29.6924 24.1071 29.0145 24.1071C29.0145 24.4302 29.0145 24.7113 29.0145 25.0363C28.6908 25.0363 28.3873 25.0363 28.084 25.0363C28.084 24.3959 28.084 23.7557 28.084 23.0698C29.0411 23.0139 30.0008 23.0655 31.0052 23.0383C31.0051 23.4117 31.0051 23.7594 31.0051 24.1071Z" fill="#60BAE9"/>
<path d="M28.084 18.1338C29.0577 18.1338 30.0315 18.1338 31.0052 18.1338C31.0052 18.4205 31.0052 18.7071 31.0052 19.0378C30.69 19.0931 30.3645 19.0547 30.0431 19.0615C29.7151 19.0683 29.3868 19.063 29.0364 19.063C29.0364 19.4067 29.0364 19.7318 29.0364 20.091C28.7196 20.091 28.4236 20.091 28.0841 20.091C28.084 19.4457 28.084 18.7897 28.084 18.1338Z" fill="#1F81B7"/>
<path d="M38.0423 25.0361C38.0423 25.3672 38.0423 25.6984 38.0423 26.0295C38.0272 26.0453 38.0141 26.0641 37.9964 26.0761C37.98 26.0872 37.9587 26.0972 37.9395 26.0972C36.9708 26.0983 36.0021 26.0981 34.9883 26.0981C34.9883 25.7313 34.9883 25.3837 34.9883 25.0361C36.0064 25.0361 37.0243 25.0361 38.0423 25.0361Z" fill="#60BAE9"/>
<path d="M32.9964 28.0893C32.0227 28.0893 31.0489 28.0893 30.0752 28.0893C30.0752 27.7353 30.0752 27.3813 30.0752 27.0273C31.0357 27.0273 31.9964 27.0273 32.9964 27.0273C32.9964 27.3981 32.9964 27.7437 32.9964 28.0893Z" fill="#60BAE9"/>
<path d="M26.0918 40.9656C27.0655 40.9656 28.0393 40.9656 29.013 40.9656C29.013 41.2966 29.013 41.6278 29.013 42.0048C28.0557 42.0566 27.0961 42.0086 26.0918 42.0338C26.0918 41.6606 26.0918 41.313 26.0918 40.9656Z" fill="#60BAE9"/>
<path d="M36.0501 29.0186C35.0456 29.0186 34.041 29.0186 32.9961 29.0186C32.9961 28.6928 32.9961 28.3911 32.9961 28.0894C34.0006 28.0894 35.0052 28.0894 36.0501 28.0894C36.0501 28.4151 36.0501 28.7168 36.0501 29.0186Z" fill="#60BAE9"/>
<path d="M23.0373 34.9919C23.0373 36.0097 23.0373 37.0273 23.0373 38.045C22.7502 38.045 22.4633 38.045 22.1102 38.045C22.1049 37.0433 22.1094 36.0405 22.1074 34.9919C22.4302 34.9919 22.7337 34.9919 23.0373 34.9919Z" fill="#60BAE9"/>
<path d="M23.0381 38.0452C23.3829 38.0452 23.7278 38.0452 24.1004 38.0452C24.1004 38.7336 24.1004 39.3849 24.1004 40.0364C23.7556 40.0364 23.4106 40.0364 23.0381 40.0364C23.0381 39.348 23.0381 38.6965 23.0381 38.0452Z" fill="#60BAE9"/>
<path d="M40.9634 34.0628C40.2995 34.0628 39.6357 34.0628 38.9717 34.0628C38.9717 33.7318 38.9717 33.4009 38.9717 33.026C39.2871 32.9708 39.6127 33.009 39.9345 33.0024C40.2625 32.9956 40.5909 33.0009 40.9634 33.0009C40.9634 33.3678 40.9634 33.7153 40.9634 34.0628Z" fill="#60BAE9"/>
<path d="M23.0382 33.0007C23.3693 33.0007 23.7002 33.0007 24.0753 33.0007C24.1305 33.3161 24.0922 33.6415 24.0989 33.9633C24.1057 34.2913 24.1004 34.6194 24.1004 34.9919C23.7332 34.9919 23.3857 34.9919 23.0381 34.9919C23.0382 34.3282 23.0382 33.6645 23.0382 33.0007Z" fill="#60BAE9"/>
<path d="M31.0049 40.9656C31.6687 40.9656 32.3327 40.9656 32.9966 40.9656C32.9966 41.2965 32.9966 41.6274 32.9966 42.0024C32.6811 42.0576 32.3555 42.0193 32.0338 42.026C31.7058 42.0328 31.3774 42.0274 31.0049 42.0274C31.0049 41.6604 31.0049 41.3129 31.0049 40.9656Z" fill="#60BAE9"/>
<path d="M24.1004 29.0186C24.1004 29.67 24.1004 30.3214 24.1004 31.0098C23.7278 31.0098 23.383 31.0098 23.0381 31.0098C23.0381 30.3583 23.0381 29.707 23.0381 29.0186C23.4106 29.0186 23.7556 29.0186 24.1004 29.0186Z" fill="#60BAE9"/>
<path d="M29.0127 40.9654C29.0127 40.6786 29.0127 40.3919 29.0127 40.0613C29.3282 40.0063 29.6538 40.0443 29.9755 40.0377C30.3035 40.0309 30.6318 40.0362 31.0044 40.0362C31.0044 40.3587 31.0044 40.6621 31.0044 40.9654C30.3404 40.9654 29.6766 40.9654 29.0127 40.9654Z" fill="#60BAE9"/>
<path d="M27.021 19.0628C26.3572 19.0628 25.6932 19.0628 25.0293 19.0628C25.0293 18.776 25.0293 18.4893 25.0293 18.1587C25.3448 18.1037 25.6704 18.1417 25.9921 18.1351C26.3201 18.1283 26.6484 18.1336 27.021 18.1336C27.021 18.4561 27.021 18.7595 27.021 19.0628Z" fill="#60BAE9"/>
<path d="M24.0996 40.0361C24.7509 40.0361 25.4023 40.0361 26.0913 40.0361C26.0913 40.3636 26.0913 40.6644 26.0913 40.9653C25.44 40.9653 24.7887 40.9653 24.0996 40.9653C24.0996 40.6379 24.0996 40.3369 24.0996 40.0361Z" fill="#60BAE9"/>
<path d="M34.9878 25.0362C34.324 25.0362 33.6601 25.0362 32.9961 25.0362C32.9961 24.7494 32.9961 24.4627 32.9961 24.1321C33.3116 24.0771 33.6372 24.1151 33.9589 24.1085C34.2869 24.1017 34.6152 24.107 34.9878 24.107C34.9878 24.4295 34.9878 24.7329 34.9878 25.0362Z" fill="#60BAE9"/>
<path d="M40.0337 25.0364C39.3699 25.0364 38.7059 25.0364 38.042 25.0364C38.042 24.7354 38.042 24.4346 38.042 24.1072C38.7311 24.1072 39.3824 24.1072 40.0337 24.1072C40.0337 24.4169 40.0337 24.7266 40.0337 25.0364Z" fill="#60BAE9"/>
<path d="M38.9712 34.0627C38.9712 34.3637 38.9712 34.6645 38.9712 34.9919C38.2822 34.9919 37.6308 34.9919 36.9795 34.9919C36.9795 34.6822 36.9795 34.3725 36.9795 34.0627C37.6435 34.0627 38.3074 34.0627 38.9712 34.0627Z" fill="#60BAE9"/>
<path d="M23.0382 31.0095C23.0382 31.6733 23.0382 32.337 23.0382 33.0007C22.7514 33.0007 22.4646 33.0007 22.1338 33.0007C22.0788 32.6854 22.1168 32.3598 22.1102 32.0382C22.1034 31.7103 22.1087 31.3821 22.1087 31.0095C22.4314 31.0095 22.7348 31.0095 23.0382 31.0095Z" fill="#60BAE9"/>
<path d="M42.0252 23.0452C42.0252 23.3885 42.0252 23.7317 42.0252 24.1072C41.6497 24.1072 41.3062 24.1072 40.9629 24.1072C40.9629 23.7532 40.9629 23.3992 40.9629 23.0452C41.317 23.0452 41.671 23.0452 42.0252 23.0452Z" fill="#1F81B7"/>
<path d="M46.0086 23.0452C46.0086 23.3885 46.0086 23.7317 46.0086 24.1072C45.6331 24.1072 45.2896 24.1072 44.9463 24.1072C44.9463 23.7532 44.9463 23.3992 44.9463 23.0452C45.3004 23.0452 45.6546 23.0452 46.0086 23.0452Z" fill="#1F81B7"/>
<path d="M42.9552 21.0537C43.286 21.0537 43.6167 21.0537 44.0004 21.0537C44.0375 21.3894 44.0073 21.7309 44.0212 22.1157C43.6497 22.1157 43.3024 22.1157 42.9551 22.1157C42.9552 21.7617 42.9552 21.4077 42.9552 21.0537Z" fill="#1F81B7"/>
<path d="M46.0086 19.0627C46.0086 19.4061 46.0086 19.7493 46.0086 20.1247C45.6331 20.1247 45.2896 20.1247 44.9463 20.1247C44.9463 19.7707 44.9463 19.4167 44.9463 19.0627C45.3004 19.0627 45.6546 19.0627 46.0086 19.0627Z" fill="#1F81B7"/>
<path d="M38.9717 30.0803C38.9717 29.7263 38.9717 29.3723 38.9717 29.0183C39.315 29.0183 39.6585 29.0183 40.0339 29.0183C40.0339 29.3936 40.0339 29.737 40.0339 30.0803C39.6799 30.0803 39.3258 30.0803 38.9717 30.0803Z" fill="#60BAE9"/>
<path d="M40.9629 20.1247C40.9629 19.7707 40.9629 19.4167 40.9629 19.0627C41.317 19.0627 41.671 19.0627 42.0252 19.0627C42.0252 19.4061 42.0252 19.7493 42.0252 20.1247C41.6497 20.1247 41.3062 20.1247 40.9629 20.1247Z" fill="#60BAE9"/>
<path d="M40 21.0618C40 20.7078 40 20.3538 40 19.9998C40.3541 19.9998 40.7081 19.9998 41.0623 19.9998C41.0623 20.3431 41.0623 20.6863 41.0623 21.0618C40.6868 21.0618 40.3433 21.0618 40 21.0618Z" fill="#60BAE9"/>
<path d="M38.9336 22.1287C38.9336 21.7747 38.9336 21.4207 38.9336 21.0667C39.2877 21.0667 39.6417 21.0667 39.9959 21.0667C39.9959 21.41 39.9959 21.7532 39.9959 22.1287C39.6204 22.1287 39.2769 22.1287 38.9336 22.1287Z" fill="#60BAE9"/>
<path d="M25.0291 19.0627C25.0291 19.4057 25.0291 19.7486 25.0291 20.1247C24.6985 20.1247 24.3991 20.1247 24.0996 20.1247C24.0996 19.7818 24.0996 19.4389 24.0996 19.0627C24.4301 19.0627 24.7296 19.0627 25.0291 19.0627Z" fill="#60BAE9"/>
<path d="M38.042 46.0095C38.042 45.6666 38.042 45.3236 38.042 44.9475C38.3725 44.9475 38.672 44.9475 38.9715 44.9475C38.9715 45.2904 38.9715 45.6334 38.9715 46.0095C38.6411 46.0095 38.3416 46.0095 38.042 46.0095Z" fill="#60BAE9"/>
<path d="M22.1133 46.0095C22.1133 45.6666 22.1133 45.3236 22.1133 44.9475C21.7827 44.9475 21.4833 44.9475 21.1838 44.9475C21.1838 45.2904 21.1838 45.6334 21.1838 46.0095C21.5142 46.0095 21.8137 46.0095 22.1133 46.0095Z" fill="#60BAE9"/>
<path d="M22.1338 47.0664C22.1338 46.722 22.1338 46.3775 22.1338 45.9998C27.8237 45.9998 32.9787 45.9998 38.1338 45.9998C38.1338 46.3442 38.1338 46.6886 38.1338 47.0664C32.4462 47.0664 27.2912 47.0664 22.1338 47.0664Z" fill="#60BAE9"/>
<path d="M44.947 19.0627C44.947 19.4167 44.947 19.7707 44.947 20.1247C44.6605 20.1247 44.3739 20.1247 44.0345 20.1247C43.9975 19.789 44.0277 19.4477 44.0137 19.0627C44.3406 19.0627 44.6438 19.0627 44.947 19.0627Z" fill="#60BAE9"/>
<path d="M38.9717 44.9478C38.9717 44.6483 38.9717 44.349 38.9717 44.0186C39.3478 44.0186 39.6909 44.0186 40.0339 44.0186C40.0339 44.318 40.0339 44.6174 40.0339 44.9478C39.6578 44.9478 39.3147 44.9478 38.9717 44.9478Z" fill="#60BAE9"/>
<path d="M21.1836 44.9478C21.1836 44.6483 21.1836 44.349 21.1836 44.0186C20.8075 44.0186 20.4644 44.0186 20.1213 44.0186C20.1213 44.318 20.1213 44.6174 20.1213 44.9478C20.4975 44.9478 20.8405 44.9478 21.1836 44.9478Z" fill="#60BAE9"/>
<path d="M40.0332 44.0185C40.0332 43.6756 40.0332 43.3327 40.0332 42.9565C40.3637 42.9565 40.6632 42.9565 40.9627 42.9565C40.9627 43.2995 40.9627 43.6424 40.9627 44.0185C40.6321 44.0185 40.3327 44.0185 40.0332 44.0185Z" fill="#60BAE9"/>
<path d="M20.1211 44.0185C20.1211 43.6756 20.1211 43.3327 20.1211 42.9565C19.7906 42.9565 19.4911 42.9565 19.1916 42.9565C19.1916 43.2995 19.1916 43.6424 19.1916 44.0185C19.5222 44.0185 19.8216 44.0185 20.1211 44.0185Z" fill="#60BAE9"/>
<path d="M38.9717 30.0803C39.3258 30.0803 39.6798 30.0803 40.0339 30.0803C40.0339 30.3798 40.0339 30.6791 40.0339 31.0095C39.6578 31.0095 39.3147 31.0095 38.9717 31.0095C38.9717 30.6998 38.9717 30.3901 38.9717 30.0803Z" fill="#1F81B7"/>
<path d="M24.1004 20.1248C24.1004 20.4242 24.1004 20.7236 24.1004 21.054C23.7242 21.054 23.3812 21.054 23.0381 21.054C23.0381 20.7545 23.0381 20.4552 23.0381 20.1248C23.4142 20.1248 23.7573 20.1248 24.1004 20.1248Z" fill="#60BAE9"/>
<path d="M18.1248 26.0981C18.1248 26.3976 18.1248 26.6969 18.1248 27.0273C17.7486 27.0273 17.4056 27.0273 17.0625 27.0273C17.0625 26.7279 17.0625 26.4285 17.0625 26.0981C17.4386 26.0981 17.7817 26.0981 18.1248 26.0981Z" fill="#60BAE9"/>
<path d="M17.0667 27.0667C17.0667 31.5357 17.0667 36.0027 17.0667 40.9333C16.689 40.9333 16.3445 40.9333 16 40.9333C16 36.4643 16 31.9973 16 27.0667C16.3777 27.0667 16.7222 27.0667 17.0667 27.0667Z" fill="#60BAE9"/>
<path d="M25.1961 28.1196C25.1961 28.4191 25.1961 28.7184 25.1961 29.0488C24.8199 29.0488 24.4769 29.0488 24.1338 29.0488C24.1338 28.7494 24.1338 28.45 24.1338 28.1196C24.5099 28.1196 24.853 28.1196 25.1961 28.1196Z" fill="#60BAE9"/>
<path d="M36.9802 32.0715C36.6808 32.0715 36.3813 32.0715 36.0508 32.0715C36.0508 31.6955 36.0508 31.3526 36.0508 31.0095C36.3502 31.0095 36.6497 31.0095 36.9802 31.0095C36.9802 31.3857 36.9802 31.7286 36.9802 32.0715Z" fill="#60BAE9"/>
<path d="M39.0667 31.0664C38.723 31.0664 38.3793 31.0664 38 31.0664C38 30.6888 38 30.3443 38 29.9998C38.3437 29.9998 38.6873 29.9998 39.0667 29.9998C39.0667 30.3775 39.0667 30.722 39.0667 31.0664Z" fill="#60BAE9"/>
<path d="M38.9715 31.0095C38.9715 31.3401 38.9715 31.6707 38.9715 32.0399C38.6812 32.1075 38.3821 32.0513 38.042 32.081C38.042 31.7039 38.042 31.3567 38.042 31.0095C38.3519 31.0095 38.6617 31.0095 38.9715 31.0095Z" fill="#1F81B7"/>
<path d="M42.9549 25.0361C42.9549 25.3791 42.9549 25.722 42.9549 26.0981C42.6243 26.0981 42.3249 26.0981 42.0254 26.0981C42.0254 25.7552 42.0254 25.4123 42.0254 25.0361C42.3558 25.0361 42.6554 25.0361 42.9549 25.0361Z" fill="#60BAE9"/>
<path d="M46.0086 19.063C45.6544 19.063 45.3004 19.063 44.9463 19.063C44.9463 18.7635 44.9463 18.4642 44.9463 18.1338C45.3224 18.1338 45.6655 18.1338 46.0086 18.1338C46.0086 18.4435 46.0086 18.7533 46.0086 19.063Z" fill="#60BAE9"/>
<path d="M44.947 33.0007C44.947 33.3547 44.947 33.7087 44.947 34.0627C44.6605 34.0627 44.3739 34.0627 44.0345 34.0627C43.9975 33.727 44.0277 33.3857 44.0137 33.0007C44.3406 33.0007 44.6438 33.0007 44.947 33.0007Z" fill="#60BAE9"/>
<path d="M40.9629 42.9565C40.9629 42.6571 40.9629 42.3577 40.9629 42.0273C41.339 42.0273 41.6821 42.0273 42.0252 42.0273C42.0252 42.3268 42.0252 42.6261 42.0252 42.9565C41.649 42.9565 41.306 42.9565 40.9629 42.9565Z" fill="#60BAE9"/>
<path d="M19.1914 42.9565C19.1914 42.6571 19.1914 42.3577 19.1914 42.0273C18.8153 42.0273 18.4722 42.0273 18.1291 42.0273C18.1291 42.3268 18.1291 42.6261 18.1291 42.9565C18.5053 42.9565 18.8483 42.9565 19.1914 42.9565Z" fill="#60BAE9"/>
<path d="M19.0545 25.0361C19.0545 25.3791 19.0545 25.722 19.0545 26.0981C18.7239 26.0981 18.4245 26.0981 18.125 26.0981C18.125 25.7552 18.125 25.4123 18.125 25.0361C18.4554 25.0361 18.755 25.0361 19.0545 25.0361Z" fill="#60BAE9"/>
<path d="M26.1248 27.0576C26.1248 27.4005 26.1248 27.7435 26.1248 28.1196C25.7942 28.1196 25.4948 28.1196 25.1953 28.1196C25.1953 27.7767 25.1953 27.4337 25.1953 27.0576C25.5257 27.0576 25.8253 27.0576 26.1248 27.0576Z" fill="#60BAE9"/>
<path d="M42.0252 19.063C41.671 19.063 41.317 19.063 40.9629 19.063C40.9629 18.7635 40.9629 18.4642 40.9629 18.1338C41.339 18.1338 41.6821 18.1338 42.0252 18.1338C42.0252 18.4435 42.0252 18.7533 42.0252 19.063Z" fill="#1F81B7"/>
<path d="M44.0173 24.1072C44.0173 24.4066 44.0173 24.706 44.0173 25.0364C43.6412 25.0364 43.2981 25.0364 42.9551 25.0364C42.9551 24.7369 42.9551 24.4376 42.9551 24.1072C43.3312 24.1072 43.6743 24.1072 44.0173 24.1072Z" fill="#60BAE9"/>
<path d="M42.0254 42.0273C42.0254 41.6844 42.0254 41.3415 42.0254 40.9653C42.3559 40.9653 42.6554 40.9653 42.9549 40.9653C42.9549 41.3083 42.9549 41.6512 42.9549 42.0273C42.6243 42.0273 42.3249 42.0273 42.0254 42.0273Z" fill="#60BAE9"/>
<path d="M18.1299 42.0273C18.1299 41.6844 18.1299 41.3415 18.1299 40.9653C17.7993 40.9653 17.4999 40.9653 17.2004 40.9653C17.2004 41.3083 17.2004 41.6512 17.2004 42.0273C17.5309 42.0273 17.8304 42.0273 18.1299 42.0273Z" fill="#60BAE9"/>
<path d="M34.0586 40.9656C34.3685 40.9656 34.6782 40.9656 34.9881 40.9656C34.9881 41.2961 34.9881 41.6268 34.9881 41.996C34.6978 42.0636 34.3987 42.0073 34.0586 42.037C34.0586 41.6598 34.0586 41.3126 34.0586 40.9656Z" fill="#60BAE9"/>
<path d="M38.9717 36.9829C38.9717 36.6834 38.9717 36.3841 38.9717 36.0537C39.3478 36.0537 39.6909 36.0537 40.0339 36.0537C40.0339 36.3532 40.0339 36.6525 40.0339 36.9829C39.6578 36.9829 39.3147 36.9829 38.9717 36.9829Z" fill="#60BAE9"/>
<path d="M20.117 24.1072C20.117 24.4066 20.117 24.706 20.117 25.0364C19.7408 25.0364 19.3978 25.0364 19.0547 25.0364C19.0547 24.7369 19.0547 24.4376 19.0547 24.1072C19.4308 24.1072 19.7739 24.1072 20.117 24.1072Z" fill="#60BAE9"/>
<path d="M27.1873 26.1287C27.1873 26.4281 27.1873 26.7275 27.1873 27.0579C26.8111 27.0579 26.4681 27.0579 26.125 27.0579C26.125 26.7584 26.125 26.4591 26.125 26.1287C26.5011 26.1287 26.8442 26.1287 27.1873 26.1287Z" fill="#60BAE9"/>
<path d="M46.9385 36.9829C46.9385 36.6732 46.9385 36.3634 46.9385 36.0537C47.2691 36.0537 47.5998 36.0537 47.9691 36.0537C48.0367 36.3438 47.9805 36.6428 48.0102 36.9829C47.633 36.9829 47.2858 36.9829 46.9385 36.9829Z" fill="#60BAE9"/>
<path d="M44.947 23.0452C44.947 23.3992 44.947 23.7532 44.947 24.1072C44.6372 24.1072 44.3274 24.1072 44.0176 24.1072C44.0176 23.7642 44.0176 23.4213 44.0176 23.0452C44.348 23.0452 44.6474 23.0452 44.947 23.0452Z" fill="#60BAE9"/>
<path d="M38.042 38.0452C38.042 37.7022 38.042 37.3593 38.042 36.9832C38.3725 36.9832 38.672 36.9832 38.9715 36.9832C38.9715 37.3261 38.9715 37.669 38.9715 38.0452C38.6411 38.0452 38.3416 38.0452 38.042 38.0452Z" fill="#60BAE9"/>
<path d="M46.0088 38.0452C46.0088 37.7022 46.0088 37.3593 46.0088 36.9832C46.3393 36.9832 46.6388 36.9832 46.9383 36.9832C46.9383 37.3261 46.9383 37.669 46.9383 38.0452C46.6079 38.0452 46.3084 38.0452 46.0088 38.0452Z" fill="#60BAE9"/>
<path d="M40.9636 23.0452C40.9636 23.3992 40.9636 23.7532 40.9636 24.1072C40.6538 24.1072 40.344 24.1072 40.0342 24.1072C40.0342 23.7642 40.0342 23.4213 40.0342 23.0452C40.3647 23.0452 40.6642 23.0452 40.9636 23.0452Z" fill="#60BAE9"/>
<path d="M21.0457 23.0452C21.0457 23.3881 21.0457 23.731 21.0457 24.1072C20.7151 24.1072 20.4157 24.1072 20.1162 24.1072C20.1162 23.7642 20.1162 23.4213 20.1162 23.0452C20.4467 23.0452 20.7462 23.0452 21.0457 23.0452Z" fill="#60BAE9"/>
<path d="M28.117 25.0667C28.117 25.4096 28.117 25.7525 28.117 26.1286C27.7864 26.1286 27.487 26.1286 27.1875 26.1286C27.1875 25.7857 27.1875 25.4428 27.1875 25.0667C27.518 25.0667 27.8175 25.0667 28.117 25.0667Z" fill="#60BAE9"/>
<path d="M36.9795 38.9744C36.9795 38.6749 36.9795 38.3756 36.9795 38.0452C37.3556 38.0452 37.6987 38.0452 38.0418 38.0452C38.0418 38.3446 38.0418 38.644 38.0418 38.9744C37.6655 38.9744 37.3224 38.9744 36.9795 38.9744Z" fill="#60BAE9"/>
<path d="M44.9463 38.9744C44.9463 38.6749 44.9463 38.3756 44.9463 38.0452C45.3224 38.0452 45.6655 38.0452 46.0086 38.0452C46.0086 38.3446 46.0086 38.644 46.0086 38.9744C45.6323 38.9744 45.2892 38.9744 44.9463 38.9744Z" fill="#60BAE9"/>
<path d="M36.0508 40.0364C36.0508 39.6934 36.0508 39.3505 36.0508 38.9744C36.3813 38.9744 36.6808 38.9744 36.9802 38.9744C36.9802 39.3173 36.9802 39.6602 36.9802 40.0364C36.6497 40.0364 36.3502 40.0364 36.0508 40.0364Z" fill="#60BAE9"/>
<path d="M44.0176 40.0364C44.0176 39.6934 44.0176 39.3505 44.0176 38.9744C44.3481 38.9744 44.6476 38.9744 44.947 38.9744C44.947 39.3173 44.947 39.6602 44.947 40.0364C44.6165 40.0364 44.317 40.0364 44.0176 40.0364Z" fill="#60BAE9"/>
<path d="M46.0086 23.0451C45.6544 23.0451 45.3004 23.0451 44.9463 23.0451C44.9463 22.7587 44.9463 22.4722 44.9463 22.1329C45.2822 22.0959 45.6236 22.1261 46.0086 22.1121C46.0086 22.4389 46.0086 22.7421 46.0086 23.0451Z" fill="#60BAE9"/>
<path d="M23.0379 21.0537C23.0379 21.3966 23.0379 21.7396 23.0379 22.1157C22.7073 22.1157 22.4079 22.1157 22.1084 22.1157C22.1084 21.7728 22.1084 21.4298 22.1084 21.0537C22.4389 21.0537 22.7384 21.0537 23.0379 21.0537Z" fill="#60BAE9"/>
<path d="M32.9961 40.9655C32.9961 40.6791 32.9961 40.3926 32.9961 40.0533C33.332 40.0163 33.6734 40.0465 34.0584 40.0325C34.0584 40.3593 34.0584 40.6625 34.0584 40.9655C33.7042 40.9655 33.3502 40.9655 32.9961 40.9655Z" fill="#60BAE9"/>
<path d="M34.9883 40.9653C34.9883 40.6659 34.9883 40.3665 34.9883 40.0361C35.3644 40.0361 35.7075 40.0361 36.0505 40.0361C36.0505 40.3356 36.0505 40.6349 36.0505 40.9653C35.6743 40.9653 35.3313 40.9653 34.9883 40.9653Z" fill="#60BAE9"/>
<path d="M42.9551 40.9653C42.9551 40.6659 42.9551 40.3665 42.9551 40.0361C43.3312 40.0361 43.6743 40.0361 44.0173 40.0361C44.0173 40.3356 44.0173 40.6349 44.0173 40.9653C43.6412 40.9653 43.2981 40.9653 42.9551 40.9653Z" fill="#60BAE9"/>
<path d="M42.0252 23.0452C41.671 23.0452 41.317 23.0452 40.9629 23.0452C40.9629 22.7457 40.9629 22.4464 40.9629 22.116C41.339 22.116 41.6821 22.116 42.0252 22.116C42.0252 22.4257 42.0252 22.7354 42.0252 23.0452Z" fill="#60BAE9"/>
<path d="M22.1082 22.116C22.1082 22.4154 22.1082 22.7148 22.1082 23.0452C21.732 23.0452 21.389 23.0452 21.0459 23.0452C21.0459 22.7457 21.0459 22.4464 21.0459 22.116C21.4222 22.116 21.7651 22.116 22.1082 22.116Z" fill="#60BAE9"/>
<path d="M42.9549 21.0537C42.9549 21.4077 42.9549 21.7617 42.9549 22.1157C42.645 22.1157 42.3353 22.1157 42.0254 22.1157C42.0254 21.7728 42.0254 21.4298 42.0254 21.0537C42.3558 21.0537 42.6554 21.0537 42.9549 21.0537Z" fill="#60BAE9"/>
<path d="M42.0254 22.116C42.3353 22.116 42.645 22.116 42.9549 22.116C42.9549 22.415 42.9549 22.7141 42.9549 23.0452C42.6237 23.0452 42.3246 23.0452 42.0254 23.0452C42.0254 22.7354 42.0254 22.4257 42.0254 22.116Z" fill="#1F81B7"/>
<path d="M40.0342 24.1072C40.344 24.1072 40.6538 24.1072 40.9636 24.1072C40.9636 24.4062 40.9636 24.7053 40.9636 25.0364C40.6324 25.0364 40.3334 25.0364 40.0342 25.0364C40.0342 24.7266 40.0342 24.4169 40.0342 24.1072Z" fill="#1F81B7"/>
<path d="M42.0254 19.063C42.0254 18.7533 42.0254 18.4435 42.0254 18.1338C42.3119 18.1338 42.5983 18.1338 42.9233 18.1338C42.9923 18.4239 42.9281 18.7233 42.9707 19.063C42.6317 19.063 42.3285 19.063 42.0254 19.063Z" fill="#60BAE9"/>
<path d="M46.0088 19.063C46.0088 18.7533 46.0088 18.4435 46.0088 18.1338C46.2953 18.1338 46.5817 18.1338 46.9067 18.1338C46.9757 18.4239 46.9115 18.7233 46.9541 19.063C46.6151 19.063 46.312 19.063 46.0088 19.063Z" fill="#1F81B7"/>
<path d="M27.0213 36.9832C29.367 36.9832 31.7129 36.9832 34.0586 36.9832C34.0586 37.3372 34.0586 37.6912 34.0586 38.0452C31.403 38.0452 28.7474 38.0452 26.0918 38.0452C26.0918 37.6912 26.0918 37.3372 26.0918 36.9832C26.4015 36.9832 26.7114 36.9832 27.0213 36.9832Z" fill="#020203"/>
<path d="M26.0918 38.0452C28.7474 38.0452 31.403 38.0452 34.0586 38.0452C34.0586 38.3325 34.0586 38.6197 34.0586 38.907C33.4766 39.0072 28.2637 39.0382 26.0918 38.9524C26.0918 38.6528 26.0918 38.3489 26.0918 38.0452Z" fill="#60BAE9"/>
<path d="M27.0213 36.983C26.7114 36.983 26.4017 36.983 26.0918 36.983C26.0918 34.6966 26.0918 32.4103 26.0918 30.0803C26.4154 30.0803 26.7183 30.0803 27.0213 30.0803C27.0213 30.3901 27.0213 30.6998 27.0213 31.0095C27.0213 33.0007 27.0213 34.9919 27.0213 36.983Z" fill="#0D405D"/>
<path d="M30.075 27.0273C30.075 27.3813 30.075 27.7353 30.075 28.0893C29.7208 28.0893 29.3668 28.0893 29.0127 28.0893C29.0127 27.746 29.0127 27.4028 29.0127 27.0273C29.3883 27.0273 29.7316 27.0273 30.075 27.0273Z" fill="#0D405D"/>
<path d="M27.0215 30.0803C27.0215 29.737 27.0215 29.3938 27.0215 29.0183C27.397 29.0183 27.7404 29.0183 28.0838 29.0183C28.0838 29.3723 28.0838 29.7263 28.0838 30.0803C27.7296 30.0803 27.3755 30.0803 27.0215 30.0803Z" fill="#0D405D"/>
<path d="M36.9802 34.9919C36.9802 35.3349 36.9802 35.6778 36.9802 36.0539C36.6497 36.0539 36.3502 36.0539 36.0508 36.0539C36.0508 35.6999 36.0508 35.3459 36.0508 34.9919C36.3605 34.9919 36.6704 34.9919 36.9802 34.9919Z" fill="#60BAE9"/>
<path d="M36.0505 36.0537C36.0505 36.3532 36.0505 36.6525 36.0505 36.9829C35.6744 36.9829 35.3313 36.9829 34.9883 36.9829C34.9883 36.6732 34.9883 36.3634 34.9883 36.0537C35.3423 36.0537 35.6964 36.0537 36.0505 36.0537Z" fill="#60BAE9"/>
<path d="M34.0586 38.0452C34.0586 37.6912 34.0586 37.3372 34.0586 36.9832C34.3685 36.9832 34.6782 36.9832 34.9881 36.9832C34.9881 37.3261 34.9881 37.669 34.9881 38.0452C34.6575 38.0452 34.3581 38.0452 34.0586 38.0452Z" fill="#60BAE9"/>
<path d="M28.084 29.0186C28.084 28.7195 28.084 28.4204 28.084 28.0894C28.4152 28.0894 28.7143 28.0894 29.0135 28.0894C29.0135 28.3991 29.0135 28.7088 29.0135 29.0186C28.7036 29.0186 28.3937 29.0186 28.084 29.0186Z" fill="#0D405D"/>
<path d="M36.0505 36.0539C35.6964 36.0539 35.3424 36.0539 34.9883 36.0539C34.9883 35.7106 34.9883 35.3674 34.9883 34.9919C35.3637 34.9919 35.7072 34.9919 36.0505 34.9919C36.0505 35.3461 36.0505 35.6999 36.0505 36.0539Z" fill="#0D405D"/>
<path d="M29.0127 29.0186C29.0127 28.7088 29.0127 28.3991 29.0127 28.0894C29.3668 28.0894 29.7208 28.0894 30.075 28.0894C30.075 28.3888 30.075 28.6882 30.075 29.0186C29.6987 29.0186 29.3556 29.0186 29.0127 29.0186Z" fill="#60BAE9"/>
<path d="M27.0215 30.0803C27.3756 30.0803 27.7296 30.0803 28.0838 30.0803C28.0838 30.3798 28.0838 30.6791 28.0838 31.0095C27.7076 31.0095 27.3646 31.0095 27.0215 31.0095C27.0215 30.6998 27.0215 30.3901 27.0215 30.0803Z" fill="#60BAE9"/>
<path d="M28.084 29.0186C28.3939 29.0186 28.7036 29.0186 29.0135 29.0186C29.0135 29.3615 29.0135 29.7044 29.0135 30.0806C28.6829 30.0806 28.3835 30.0806 28.084 30.0806C28.084 29.7266 28.084 29.3726 28.084 29.0186Z" fill="#60BAE9"/>
<path d="M34.9881 36.9829C34.6782 36.9829 34.3685 36.9829 34.0586 36.9829C34.0586 36.6838 34.0586 36.3848 34.0586 36.0537C34.3898 36.0537 34.6889 36.0537 34.9881 36.0537C34.9881 36.3634 34.9881 36.6732 34.9881 36.9829Z" fill="#0D405D"/>
<path d="M36.9802 34.9919C36.6704 34.9919 36.3606 34.9919 36.0508 34.9919C36.0508 34.6929 36.0508 34.3938 36.0508 34.0627C36.382 34.0627 36.681 34.0627 36.9802 34.0627C36.9802 34.3725 36.9802 34.6822 36.9802 34.9919Z" fill="#0D405D"/>
<defs>
<filter id="filter0_bii" x="-20" y="-20" width="104" height="104" filterUnits="userSpaceOnUse" color-interpolation-filters="sRGB">
<feFlood flood-opacity="0" result="BackgroundImageFix"/>
<feGaussianBlur in="BackgroundImage" stdDeviation="10"/>
<feComposite in2="SourceAlpha" operator="in" result="effect1_backgroundBlur"/>
<feBlend mode="normal" in="SourceGraphic" in2="effect1_backgroundBlur" result="shape"/>
<feColorMatrix in="SourceAlpha" type="matrix" values="0 0 0 0 0 0 0 0 0 0 0 0 0 0 0 0 0 0 127 0" result="hardAlpha"/>
<feOffset/>
<feGaussianBlur stdDeviation="10"/>
<feComposite in2="hardAlpha" operator="arithmetic" k2="-1" k3="1"/>
<feColorMatrix type="matrix" values="0 0 0 0 0.850284 0 0 0 0 0.850284 0 0 0 0 0.850284 0 0 0 0.1 0"/>
<feBlend mode="normal" in2="shape" result="effect2_innerShadow"/>
<feColorMatrix in="SourceAlpha" type="matrix" values="0 0 0 0 0 0 0 0 0 0 0 0 0 0 0 0 0 0 127 0" result="hardAlpha"/>
<feOffset dy="0.333333"/>
<feGaussianBlur stdDeviation="0.166667"/>
<feComposite in2="hardAlpha" operator="arithmetic" k2="-1" k3="1"/>
<feColorMatrix type="matrix" values="0 0 0 0 0.829451 0 0 0 0 0.829451 0 0 0 0 0.829451 0 0 0 0.3 0"/>
<feBlend mode="normal" in2="effect2_innerShadow" result="effect3_innerShadow"/>
</filter>
</defs>
</svg>
