<svg width="64" height="64" viewBox="0 0 64 64" fill="none" xmlns="http://www.w3.org/2000/svg">
<circle cx="32" cy="32" r="31.75" fill="url(#paint0_radial)" fill-opacity="0.05" stroke="url(#paint1_linear)" stroke-width="0.5"/>
<path d="M41.3286 41.8507C41.2836 41.1792 41.2386 40.7676 41.2386 40.3344C41.2386 37.3452 41.1936 34.3776 41.2386 31.3884C41.2611 30.0671 40.7212 29.179 39.5289 28.5075C36.3344 26.7096 33.2075 24.8251 30.013 23.0489C29.2481 22.6157 29.0007 22.1392 29.0232 21.3377C29.0907 19.6915 29.0232 18.0236 29.0457 16.3773C29.0682 15.0993 29.7881 14.6445 30.9354 15.2943C34.9397 17.5037 38.944 19.7131 42.9033 22.0309C43.4432 22.3341 43.9381 23.1789 43.9381 23.7637C44.0281 29.0707 44.0056 34.3993 43.9606 39.7062C43.9606 40.0745 43.6232 40.551 43.2857 40.811C42.7908 41.2009 42.1384 41.4391 41.3286 41.8507Z" fill="#5FCF99"/>
<path d="M35.5695 45.1651C35.5695 43.1722 35.5246 41.396 35.592 39.6198C35.637 38.3418 35.0746 37.5404 33.9723 36.9122C30.8454 35.136 27.7634 33.3165 24.6364 31.5619C23.894 31.1504 23.6241 30.6738 23.6466 29.8507C23.7141 28.0529 23.6466 26.255 23.6691 24.4571C23.6916 23.2225 24.3665 22.7892 25.4688 23.3957C29.4956 25.6268 33.5449 27.8796 37.5042 30.219C38.0666 30.5439 38.539 31.432 38.5615 32.0818C38.674 35.6342 38.629 39.1866 38.584 42.739C38.584 43.1289 38.2691 43.6271 37.9316 43.8654C37.2793 44.3419 36.4919 44.6668 35.5695 45.1651Z" fill="#5FCF99"/>
<path d="M32.9824 43.0854C32.9824 43.8002 32.9824 44.515 32.9824 45.2298C32.9599 46.941 32.0601 47.4609 30.5529 46.5728C27.8758 45.0132 25.2213 43.432 22.5442 41.8507C21.4869 41.2225 20.4521 40.616 19.3948 39.9879C18.4724 39.4247 18 38.6449 18 37.5835C18.045 35.9806 18 34.356 18.045 32.7531C18.0675 31.5834 18.7649 31.1718 19.7997 31.7567C23.804 33.9878 27.7858 36.2189 31.7901 38.4716C32.6 38.9265 33.0049 39.6196 33.0049 40.5077C32.9824 41.3525 32.9824 42.2189 32.9824 43.0854Z" fill="#5FCF99"/>
<defs>
<radialGradient id="paint0_radial" cx="0" cy="0" r="1" gradientUnits="userSpaceOnUse" gradientTransform="translate(32 32) rotate(90) scale(32)">
<stop stop-opacity="0"/>
<stop offset="1" stop-color="white"/>
</radialGradient>
<linearGradient id="paint1_linear" x1="32" y1="0" x2="32" y2="64" gradientUnits="userSpaceOnUse">
<stop stop-color="#4B4C4D"/>
<stop offset="1" stop-opacity="0"/>
</linearGradient>
</defs>
</svg>
