<svg xmlns="http://www.w3.org/2000/svg" width="19.609" height="14.086" viewBox="0 0 19.609 14.086">
  <defs>
    <style>
      .cls-1 {
        fill: #d9ecfc;
      }

      .cls-2 {
        fill: #ededed;
      }

      .cls-3 {
        fill: #fff;
      }

      .cls-4 {
        fill: #b7b7b7;
      }

      .cls-5 {
        fill: #fffdfd;
      }
    </style>
  </defs>
  <g id="白帽" transform="translate(-46.22 -4.173)">
    <g id="LOGO" transform="translate(46.221 4.173)">
      <path id="路径_15762" class="cls-1" d="M95.039,51.054c-1.309.665-2.66,1.266-4.033,1.8a17.5,17.5,0,0,1-4.484,1.266A.021.021,0,0,1,86.5,54.1l.021-1.309v-.515a.021.021,0,0,1,.021-.021h.3a.419.419,0,0,0,.15-.021h.086c.043,0,.086-.021.129-.021a.162.162,0,0,0,.086-.021l.086-.021c.086-.021.15-.021.236-.043.279-.064.558-.129.837-.215l.086-.021c.129-.043.257-.064.365-.107.043-.021.086-.021.129-.043s.086-.021.129-.043c.193-.064.386-.129.558-.193a.3.3,0,0,1,.129-.043.9.9,0,0,0,.215-.086c.021,0,.043-.021.064-.021.257-.086.451-.172.579-.215a.075.075,0,0,0,.043-.021h0c.021,0,.021,0,.043-.021h.043v-.021l-.408-2.017v-.021h-.064c-.021,0-.021,0-.043.021H90.3a.93.93,0,0,1-.107.021h-.021c-.021,0-.021,0-.043.021H90.1a2.026,2.026,0,0,1-.193.064.4.4,0,0,1-.172.043c-.043.021-.107.021-.15.043a1.366,1.366,0,0,1-.15.043,1.993,1.993,0,0,0-.279.086c-.021,0-.043.021-.086.021-.107.043-.236.064-.365.107a16.357,16.357,0,0,1-2,.386h-.129a.021.021,0,0,1-.021-.021h0l.086-5.857A.021.021,0,0,1,86.672,44l1.5-.107a1.185,1.185,0,0,1,1.244.923l.965,4.205a.021.021,0,0,0,.021.021c.279.086,4.1,1.266,4.634,2v.021Z" transform="translate(-76.803 -43.844)"/>
      <path id="路径_15763" class="cls-2" d="M86.5,83h0v0Z" transform="translate(-76.803 -74.567)"/>
      <path id="路径_15764" class="cls-2" d="M86.786,44.441h0L86.7,50.3Z" transform="translate(-76.96 -44.268)"/>
      <path id="路径_15765" class="cls-2" d="M102.393,68.2a2.028,2.028,0,0,1-.193.064A1,1,0,0,0,102.393,68.2Z" transform="translate(-89.134 -62.942)"/>
      <path id="路径_15766" class="cls-2" d="M104.521,67.821a.021.021,0,0,0-.021-.021h.021Z" transform="translate(-90.941 -62.628)"/>
      <path id="路径_15767" class="cls-2" d="M106.5,77.321h0v0Z" transform="translate(-92.512 -70.09)"/>
      <path id="路径_15768" class="cls-3" d="M56.232,43.823h0v.021L56.146,49.7v.021h-.193a22.95,22.95,0,0,1-4.012-.644s-.365,1.395-.386,1.416c1.051,1.244,3.154,1.523,4.505,1.588h.064v.043h0v.515L56.1,53.949v.021A11.97,11.97,0,0,1,51.9,52.877a24.055,24.055,0,0,1-4.1-2.1,23.719,23.719,0,0,1,4.248-1.909l1.395-4.7a.646.646,0,0,1,.665-.472Z" transform="translate(-46.405 -43.692)"/>
      <path id="路径_15769" class="cls-3" d="M86.5,83v0Z" transform="translate(-76.803 -74.567)"/>
      <path id="路径_15770" class="cls-3" d="M86.786,44.4,86.7,50.257l.086-5.857Z" transform="translate(-76.96 -44.248)"/>
      <path id="路径_15771" class="cls-3" d="M102.3,68.264l.193-.064Z" transform="translate(-89.213 -62.942)"/>
      <path id="路径_15772" class="cls-3" d="M104.521,67.7v.021a.021.021,0,0,0-.021-.021h.021Z" transform="translate(-90.941 -62.549)"/>
      <path id="路径_15773" class="cls-3" d="M106.5,77.321h0v0Z" transform="translate(-92.512 -70.09)"/>
      <path id="路径_15774" class="cls-4" d="M102.3,68.264l.193-.064Z" transform="translate(-89.213 -62.942)"/>
      <path id="路径_15775" class="cls-4" d="M104.521,67.7v.021a.021.021,0,0,0-.021-.021h.021Z" transform="translate(-90.941 -62.549)"/>
      <path id="路径_15776" class="cls-4" d="M106.5,77.321h0v0Z" transform="translate(-92.512 -70.09)"/>
      <g id="组_21486" transform="translate(0 10.761)">
        <path id="路径_15777" class="cls-5" d="M76.338,45.5a12.526,12.526,0,0,1-3.969.665A11.951,11.951,0,0,1,68.4,45.5a5.8,5.8,0,0,0,2.339,2.961H74A5.822,5.822,0,0,0,76.338,45.5Z" transform="translate(-62.586 -45.135)"/>
        <path id="路径_15778" class="cls-5" d="M55.2,45.9,52,47.125h5.128A6.225,6.225,0,0,1,55,43.993c-.172-.064-.322-.129-.493-.193Z" transform="translate(-49.704 -43.8)"/>
        <path id="路径_15779" class="cls-5" d="M42.544,52.467l3.712-1.459-.172-.408L41.3,52.467Z" transform="translate(-41.3 -49.141)"/>
        <path id="路径_15780" class="cls-5" d="M100.031,45.9l3.2,1.223H98.1a6.225,6.225,0,0,0,2.124-3.132c.172-.064.322-.129.493-.193Z" transform="translate(-85.914 -43.8)"/>
        <path id="路径_15781" class="cls-5" d="M113.312,52.467,109.6,51.008l.172-.408,4.784,1.867Z" transform="translate(-94.947 -49.141)"/>
      </g>
    </g>
  </g>
</svg>
