<svg xmlns="http://www.w3.org/2000/svg" width="10.667" height="11.416" viewBox="0 0 10.667 11.416"><defs><style>.a{fill:#2c8389;}</style></defs><path class="a" d="M104.348,160.234a.416.416,0,0,1,.414.414v8.309a.416.416,0,0,1-.414.414H96.89a.416.416,0,0,1-.414-.414v-8.309a.416.416,0,0,1,.414-.414h7.458m0-.557H96.89a.973.973,0,0,0-.97.97v8.309a.973.973,0,0,0,.97.97h7.458a.973.973,0,0,0,.97-.97v-8.309A.973.973,0,0,0,104.348,159.677Z" transform="translate(-95.92 -158.511)"/><path class="a" d="M259.2,382.588h-4.465a.278.278,0,0,1,0-.557H259.2a.278.278,0,1,1,0,.557Zm0,2.212h-4.465a.278.278,0,1,1,0-.557H259.2a.278.278,0,1,1,0,.557Zm-2.264,2.228h-2.2a.278.278,0,1,1,0-.557h2.2a.278.278,0,1,1,0,.557Z" transform="translate(-252.425 -378.009)"/><path class="a" d="M365.225,77.455a.278.278,0,0,1-.278-.278V70.285a.846.846,0,0,0-.846-.846h-5.618a.278.278,0,0,1,0-.557H364.1a1.4,1.4,0,0,1,1.4,1.4v6.892A.278.278,0,0,1,365.225,77.455Z" transform="translate(-354.836 -68.882)"/></svg>