<svg xmlns="http://www.w3.org/2000/svg" width="16.35" height="18.033" viewBox="0 0 16.35 18.033">
  <defs>
    <style>
      .cls-1 {
        fill: #0cc9b5;
      }
    </style>
  </defs>
  <g id="组_65873" data-name="组 65873" transform="translate(-108.424 -65.608)">
    <path id="路径_51715" data-name="路径 51715" class="cls-1" d="M117.483,83.641a9.017,9.017,0,0,1-.118-18.033h.007a.506.506,0,0,1,.437.828,7.847,7.847,0,0,0-1.654,4.842,7.959,7.959,0,0,0,7.955,7.949l.1,0a.564.564,0,0,1,.5.3.55.55,0,0,1-.057.584A9,9,0,0,1,117.483,83.641Zm-1.209-16.92a7.954,7.954,0,0,0,1.209,15.815,7.892,7.892,0,0,0,5.565-2.272,9.073,9.073,0,0,1-8-9A8.965,8.965,0,0,1,116.274,66.722Z"/>
    <path id="路径_51716" data-name="路径 51716" class="cls-1" d="M221.364,550.742a7.431,7.431,0,0,1-7.337-6.161.276.276,0,0,1,.544-.095,6.879,6.879,0,0,0,6.793,5.7.276.276,0,0,1,0,.553Z" transform="translate(-103.467 -468.989)"/>
    <path id="路径_51717" data-name="路径 51717" class="cls-1" d="M209.049,484.066a.3.3,0,0,1-.276-.284c-.006-.128-.009-.268-.009-.4a.28.28,0,0,1,.276-.281.274.274,0,0,1,.276.274c0,.121,0,.261.009.38a.29.29,0,0,1-.263.309Z" transform="translate(-98.315 -409.069)"/>
    <path id="路径_51718" data-name="路径 51718" class="cls-1" d="M596.163,293.88a.492.492,0,1,1-.624-.309A.492.492,0,0,1,596.163,293.88Z" transform="translate(-476.955 -223.337)"/>
    <path id="路径_51719" data-name="路径 51719" class="cls-1" d="M754.62,176.838a.492.492,0,1,1-.624-.309A.493.493,0,0,1,754.62,176.838Z" transform="translate(-632.214 -108.656)"/>
    <path id="路径_51720" data-name="路径 51720" class="cls-1" d="M701.6,395.243a.492.492,0,1,1-.624-.309A.492.492,0,0,1,701.6,395.243Z" transform="translate(-580.267 -322.653)"/>
  </g>
</svg>
