<svg width="64" height="64" viewBox="0 0 64 64" fill="none" xmlns="http://www.w3.org/2000/svg">
<circle cx="32" cy="32" r="31.75" fill="url(#paint0_radial)" fill-opacity="0.05" stroke="url(#paint1_linear)" stroke-width="0.5"/>
<path d="M40.221 19H23.4254L21.6575 26.6098H42.1657L40.221 19Z" fill="white"/>
<path d="M26.6077 45L30.3204 41.8293V40.4024L26.6077 37.2317V32.1585L21.6575 29.1463L16 32.9512L23.6022 45H26.6077Z" fill="white"/>
<path d="M28.3757 32.1585L27.8453 36.9146H36.1547L35.6243 32.1585L37.3923 27.878H26.6077L28.3757 32.1585Z" fill="white"/>
<path d="M37.3923 44.8415H40.3978L48 32.9512L42.3425 29.1463L37.3923 32V37.0732L33.6796 40.2439V41.8293L37.3923 44.8415Z" fill="white"/>
<defs>
<radialGradient id="paint0_radial" cx="0" cy="0" r="1" gradientUnits="userSpaceOnUse" gradientTransform="translate(32 32) rotate(90) scale(32)">
<stop stop-opacity="0"/>
<stop offset="1" stop-color="white"/>
</radialGradient>
<linearGradient id="paint1_linear" x1="32" y1="0" x2="32" y2="64" gradientUnits="userSpaceOnUse">
<stop stop-color="#4B4C4D"/>
<stop offset="1" stop-opacity="0"/>
</linearGradient>
</defs>
</svg>
