<svg width="64" height="64" viewBox="0 0 64 64" fill="none" xmlns="http://www.w3.org/2000/svg">
<circle cx="32" cy="32" r="31.75" fill="url(#paint0_radial_16369_119800)" fill-opacity="0.05" stroke="url(#paint1_linear_16369_119800)" stroke-width="0.5"/>
<path d="M19.757 46.9629L17 46.396V30.5219L19.757 27.9303V46.9629Z" fill="url(#paint2_linear_16369_119800)"/>
<path d="M22.4329 25.4601V47.5298L25.1899 48.0967V22.8684L22.4329 25.4601Z" fill="url(#paint3_linear_16369_119800)"/>
<path d="M27.8658 20.3982V48.5827L30.6228 49.1901V17.8065L27.8658 20.3982Z" fill="url(#paint4_linear_16369_119800)"/>
<path d="M34.6367 14L33.2987 15.2958L33.2582 49.676L34.6367 50L35.9746 49.676V15.2958L34.6367 14Z" fill="url(#paint5_linear_16369_119800)"/>
<path d="M38.6911 49.1901V17.8065L41.4886 20.3982V48.5827L38.6911 49.1901Z" fill="url(#paint6_linear_16369_119800)"/>
<path d="M44.124 48.0967V22.8684L46.881 25.5411V47.5298L44.124 48.0967Z" fill="url(#paint7_linear_16369_119800)"/>
<defs>
<radialGradient id="paint0_radial_16369_119800" cx="0" cy="0" r="1" gradientUnits="userSpaceOnUse" gradientTransform="translate(32 32) rotate(90) scale(32)">
<stop stop-opacity="0"/>
<stop offset="1" stop-color="white"/>
</radialGradient>
<linearGradient id="paint1_linear_16369_119800" x1="32" y1="0" x2="32" y2="64" gradientUnits="userSpaceOnUse">
<stop stop-color="#4B4C4D"/>
<stop offset="1" stop-opacity="0"/>
</linearGradient>
<linearGradient id="paint2_linear_16369_119800" x1="31.9405" y1="14" x2="31.9405" y2="50" gradientUnits="userSpaceOnUse">
<stop stop-color="#3DB1F1"/>
<stop offset="1" stop-color="#2B3991"/>
</linearGradient>
<linearGradient id="paint3_linear_16369_119800" x1="31.9405" y1="14" x2="31.9405" y2="50" gradientUnits="userSpaceOnUse">
<stop stop-color="#3DB1F1"/>
<stop offset="1" stop-color="#2B3991"/>
</linearGradient>
<linearGradient id="paint4_linear_16369_119800" x1="31.9405" y1="14" x2="31.9405" y2="50" gradientUnits="userSpaceOnUse">
<stop stop-color="#3DB1F1"/>
<stop offset="1" stop-color="#2B3991"/>
</linearGradient>
<linearGradient id="paint5_linear_16369_119800" x1="31.9405" y1="14" x2="31.9405" y2="50" gradientUnits="userSpaceOnUse">
<stop stop-color="#3DB1F1"/>
<stop offset="1" stop-color="#2B3991"/>
</linearGradient>
<linearGradient id="paint6_linear_16369_119800" x1="31.9405" y1="14" x2="31.9405" y2="50" gradientUnits="userSpaceOnUse">
<stop stop-color="#3DB1F1"/>
<stop offset="1" stop-color="#2B3991"/>
</linearGradient>
<linearGradient id="paint7_linear_16369_119800" x1="31.9405" y1="14" x2="31.9405" y2="50" gradientUnits="userSpaceOnUse">
<stop stop-color="#3DB1F1"/>
<stop offset="1" stop-color="#2B3991"/>
</linearGradient>
</defs>
</svg>
