<svg xmlns="http://www.w3.org/2000/svg" width="15" height="15" viewBox="0 0 15 15">
  <defs>
    <style>
      .cls-1 {
        fill: #939ca5;
      }
    </style>
  </defs>
  <path id="路径_32898" data-name="路径 32898" class="cls-1" d="M71.5,64A7.5,7.5,0,1,1,64,71.5,7.5,7.5,0,0,1,71.5,64Zm0,1.138A6.362,6.362,0,1,0,77.862,71.5,6.362,6.362,0,0,0,71.5,65.138Zm0,9.241a.7.7,0,1,1-.7.7A.7.7,0,0,1,71.5,74.379Zm-2.11-6.44a2.848,2.848,0,0,1,3.944-.063l.061.059.02.02.028.029a2.364,2.364,0,0,1-.057,3.382l-.02.018-.015.015-.021.021-.021.02a4.923,4.923,0,0,1-.445.374l-.032.024-.014.011-.335.245-.043.032-.01.007-.019.014-.009.007-.018.014-.009.007-.017.013-.008.007-.016.013-.015.013-.015.013-.014.012-.014.012-.013.012-.013.012-.012.012-.012.012-.012.012-.011.011-.011.011-.01.011-.033.039-.009.011-.024.033-.007.011-.014.022a1,1,0,0,0-.118.538.569.569,0,0,1-1.138,0,2.109,2.109,0,0,1,.284-1.13,2.179,2.179,0,0,1,.546-.592l.026-.02.027-.021.041-.031.021-.016.008-.006.291-.213.065-.048.028-.021.071-.055.027-.021.065-.052.025-.021q.082-.069.159-.142l.031-.03.023-.023.008-.007a1.226,1.226,0,0,0,.061-1.76l-.015-.015-.028-.029-.048-.047a1.71,1.71,0,0,0-2.34.018l-.019.019-.352.353a.569.569,0,0,1-.812-.8l.006-.007Z" transform="translate(-64 -64)"/>
</svg>
