<svg width="64" height="64" viewBox="0 0 64 64" fill="none" xmlns="http://www.w3.org/2000/svg">
<circle cx="32" cy="32" r="31.75" fill="url(#paint0_radial)" fill-opacity="0.05" stroke="url(#paint1_linear)" stroke-width="0.5"/>
<path fill-rule="evenodd" clip-rule="evenodd" d="M35.7723 21.8314C35.9634 21.6275 36.0589 21.4235 36.1544 21.1176C36.3454 20.6078 36.4409 20.2 36.4409 19.6902C36.5365 18.7725 36.3454 18.0588 35.8678 17.7529C35.3902 17.549 34.7216 17.8549 34.244 18.5686V18.4667C34.244 16.5294 33.3844 15 32.4292 15C31.474 15 30.6143 16.5294 30.6143 18.4667C30.6143 18.5686 30.6143 18.7725 30.6143 18.8745C30.0412 17.9569 29.1815 17.549 28.6084 17.8549C27.8443 18.2627 27.8443 19.6902 28.4174 21.0157C28.5129 21.2196 28.7039 21.6275 28.895 21.8314C21.0625 23.1569 16.5731 29.8863 16 41H20.3938C20.8714 31.8235 24.8832 26.6235 32.0471 26.8275C38.6379 26.9294 43.7003 31.6196 43.6048 41H47.9987C48.0942 29.9882 43.0317 23.5647 35.7723 21.8314Z" fill="#FEF653"/>
<path fill-rule="evenodd" clip-rule="evenodd" d="M28.4174 32.2314C27.8443 32.2314 27.4622 32.7412 27.4622 33.3529V36.2078C27.4622 36.8196 27.8443 37.3294 28.4174 37.3294C28.9905 37.3294 29.3726 36.8196 29.3726 36.2078V33.3529C29.3726 32.7412 28.895 32.2314 28.4174 32.2314Z" fill="#FEF653"/>
<path fill-rule="evenodd" clip-rule="evenodd" d="M36.0589 32.2314C35.4858 32.2314 35.1037 32.7412 35.1037 33.3529V36.2078C35.1037 36.8196 35.4858 37.3294 36.0589 37.3294C36.632 37.3294 37.0141 36.8196 37.0141 36.2078V33.3529C37.0141 32.7412 36.5365 32.2314 36.0589 32.2314Z" fill="#FEF653"/>
<defs>
<radialGradient id="paint0_radial" cx="0" cy="0" r="1" gradientUnits="userSpaceOnUse" gradientTransform="translate(32 32) rotate(90) scale(32)">
<stop stop-opacity="0"/>
<stop offset="1" stop-color="white"/>
</radialGradient>
<linearGradient id="paint1_linear" x1="32" y1="0" x2="32" y2="64" gradientUnits="userSpaceOnUse">
<stop stop-color="#4B4C4D"/>
<stop offset="1" stop-opacity="0"/>
</linearGradient>
</defs>
</svg>
