<svg width="64" height="64" viewBox="0 0 64 64" fill="none" xmlns="http://www.w3.org/2000/svg">
<circle cx="32" cy="32" r="31.75" fill="url(#paint0_radial_16369_120331)" fill-opacity="0.05" stroke="url(#paint1_linear_16369_120331)" stroke-width="0.5"/>
<g clip-path="url(#clip0_16369_120331)">
<path d="M41.9644 42.7987L37.6202 35.2553H18.4713C18.4713 35.2553 14.8663 35.2553 14.0009 31.8623C13.9744 33.0514 14.2737 34.2249 14.8663 35.2553L16.0978 37.3922L20.7814 45.5255C21.3024 46.4299 22.0516 47.1809 22.9538 47.7031C23.856 48.2252 24.8794 48.5001 25.9211 48.5001H37.7513C39.0526 48.4999 40.3237 48.1073 41.3995 47.3734C41.4224 47.3371 42.9902 44.5804 41.9644 42.7987Z" fill="url(#paint2_linear_16369_120331)"/>
<path d="M49.129 28.7468L43.3738 18.7565C42.8559 17.8582 42.1311 17.0972 41.2598 16.5373C41.1314 16.4993 37.7427 15.5222 36.5528 17.5833L31.9971 25.4949L37.6196 35.2576L41.9637 42.8011C42.9896 44.5822 41.4218 47.3421 41.3999 47.3779C42.2087 46.8269 42.8828 46.0996 43.3716 45.2505L44.2333 43.7547L49.1258 35.2603C49.697 34.2705 49.9981 33.1474 49.9987 32.004C49.9992 30.8605 49.6993 29.7371 49.129 28.7468Z" fill="url(#paint3_linear_16369_120331)"/>
<path d="M37.7522 15.5H26.2417C25.1021 15.5001 23.9825 15.8009 22.9955 16.3722C22.0086 16.9434 21.189 17.7651 20.6192 18.7546L14.864 28.7449C14.3182 29.6938 14.0206 30.7655 13.9985 31.8606C14.2874 34.2518 17.6403 35.2535 17.6403 35.2535H26.3771L31.9996 25.4908L36.5558 17.5793C37.7442 15.5166 41.1344 16.4953 41.2629 16.5332C40.2158 15.8582 38.9971 15.4995 37.7522 15.5Z" fill="url(#paint4_linear_16369_120331)"/>
</g>
<defs>
<radialGradient id="paint0_radial_16369_120331" cx="0" cy="0" r="1" gradientUnits="userSpaceOnUse" gradientTransform="translate(32 32) rotate(90) scale(32)">
<stop stop-opacity="0"/>
<stop offset="1" stop-color="white"/>
</radialGradient>
<linearGradient id="paint1_linear_16369_120331" x1="32" y1="0" x2="32" y2="64" gradientUnits="userSpaceOnUse">
<stop stop-color="#4B4C4D"/>
<stop offset="1" stop-opacity="0"/>
</linearGradient>
<linearGradient id="paint2_linear_16369_120331" x1="16.4342" y1="40.1812" x2="48.3145" y2="40.1812" gradientUnits="userSpaceOnUse">
<stop offset="0.001" stop-color="#00C7E0"/>
<stop offset="1" stop-color="#00FF8D"/>
</linearGradient>
<linearGradient id="paint3_linear_16369_120331" x1="32.5191" y1="14.2511" x2="57.2184" y2="29.7151" gradientUnits="userSpaceOnUse">
<stop offset="0.003" stop-color="#1C2938"/>
<stop offset="1" stop-color="#0062DC"/>
</linearGradient>
<linearGradient id="paint4_linear_16369_120331" x1="39.1362" y1="3.7269" x2="28.7123" y2="37.4255" gradientUnits="userSpaceOnUse">
<stop offset="0.003" stop-color="#00C7E0"/>
<stop offset="1" stop-color="#0062DC"/>
</linearGradient>
<clipPath id="clip0_16369_120331">
<path d="M14 26C14 19.3726 19.3726 14 26 14H38C44.6274 14 50 19.3726 50 26V38C50 44.6274 44.6274 50 38 50H26C19.3726 50 14 44.6274 14 38V26Z" fill="white"/>
</clipPath>
</defs>
</svg>
