<svg width="64" height="64" viewBox="0 0 64 64" fill="none" xmlns="http://www.w3.org/2000/svg">
<circle cx="32" cy="32" r="31.75" fill="url(#paint0_radial_16369_120230)" fill-opacity="0.05" stroke="url(#paint1_linear_16369_120230)" stroke-width="0.5"/>
<circle cx="32" cy="32" r="18" fill="#0D0D0D"/>
<path d="M24.5 25.8373C24.5 24.2703 25.7221 23 27.2297 23C28.7373 23 29.9594 24.2703 29.9594 25.8373V26.8755C29.9594 28.7379 31.4119 30.2476 33.2037 30.2476H34.7874C35.7045 30.2476 36.4479 31.0203 36.4479 31.9735C36.4479 32.9268 35.7045 33.6995 34.7874 33.6995H33.2037C31.4119 33.6995 29.9594 35.2092 29.9594 37.0716V38.1362C29.9594 39.7032 28.7373 40.9735 27.2297 40.9735C25.7221 40.9735 24.5 39.7032 24.5 38.1362V25.8373Z" fill="#5560D4"/>
<path d="M37.0953 23H33.2908C32.8199 23 32.4382 23.3967 32.4382 23.8861C32.4382 25.2616 32.7818 26.2579 33.4689 26.8751C34.3087 27.6245 35.878 27.9993 38.1768 27.9993C38.9076 27.9993 39.5001 27.3835 39.5001 26.6238V25.4996C39.5001 24.1191 38.4234 23 37.0953 23Z" fill="white"/>
<path d="M35.4788 36.0007C33.443 36.6532 32.425 37.8919 32.425 39.7171C32.425 40.4256 32.9776 41 33.6593 41H36.9166C38.3432 41 39.4996 39.7979 39.4996 38.3152V36.6752C39.4996 36.0982 39.0496 35.6304 38.4944 35.6304C37.2644 35.6304 36.2592 35.7538 35.4788 36.0007Z" fill="#D29DFD"/>
<defs>
<radialGradient id="paint0_radial_16369_120230" cx="0" cy="0" r="1" gradientUnits="userSpaceOnUse" gradientTransform="translate(32 32) rotate(90) scale(32)">
<stop stop-opacity="0"/>
<stop offset="1" stop-color="white"/>
</radialGradient>
<linearGradient id="paint1_linear_16369_120230" x1="32" y1="0" x2="32" y2="64" gradientUnits="userSpaceOnUse">
<stop stop-color="#4B4C4D"/>
<stop offset="1" stop-opacity="0"/>
</linearGradient>
</defs>
</svg>
