<svg width="64" height="64" viewBox="0 0 64 64" fill="none" xmlns="http://www.w3.org/2000/svg">
<circle cx="32" cy="32" r="31.75" fill="url(#paint0_radial_14585_74963)" fill-opacity="0.05" stroke="url(#paint1_linear_14585_74963)" stroke-width="0.5"/>
<g clip-path="url(#clip0_14585_74963)">
<path d="M31.9998 47.7301C40.6874 47.7301 47.7301 40.6874 47.7301 31.9998C47.7301 23.3122 40.6874 16.2695 31.9998 16.2695C23.3122 16.2695 16.2695 23.3122 16.2695 31.9998C16.2695 40.6874 23.3122 47.7301 31.9998 47.7301Z" fill="white"/>
<path fill-rule="evenodd" clip-rule="evenodd" d="M32 16.5394C23.4614 16.5394 16.5394 23.4614 16.5394 32C16.5394 40.5386 23.4614 47.4605 32 47.4605C40.5386 47.4605 47.4605 40.5386 47.4605 32C47.4605 23.4614 40.5386 16.5394 32 16.5394ZM16 32C16 23.1634 23.1635 16 32 16C40.8366 16 48 23.1634 48 32C48 40.8365 40.8366 48 32 48C23.1635 48 16 40.8365 16 32Z" fill="#231F20"/>
<path d="M31.9999 45.6101C39.5166 45.6101 45.6101 39.5166 45.6101 31.9999C45.6101 24.4831 39.5166 18.3896 31.9999 18.3896C24.4831 18.3896 18.3896 24.4831 18.3896 31.9999C18.3896 39.5166 24.4831 45.6101 31.9999 45.6101Z" fill="#009F55"/>
<path fill-rule="evenodd" clip-rule="evenodd" d="M31.9998 18.929C24.781 18.929 18.929 24.781 18.929 31.9998C18.929 39.2186 24.781 45.0706 31.9998 45.0706C39.2186 45.0706 45.0706 39.2186 45.0706 31.9998C45.0706 24.781 39.2186 18.929 31.9998 18.929ZM17.8501 31.9998C17.8501 24.1851 24.1851 17.8501 31.9998 17.8501C39.8144 17.8501 46.1495 24.1851 46.1495 31.9998C46.1495 39.8144 39.8144 46.1495 31.9998 46.1495C24.1851 46.1495 17.8501 39.8144 17.8501 31.9998Z" fill="#231F20"/>
<path d="M37.8914 38.1261C37.7452 38.2284 37.5442 38.2979 37.2882 38.3344C37.047 38.371 36.8715 38.3637 36.7618 38.3125C36.7326 38.2979 36.7033 38.2467 36.6741 38.159C36.6522 38.064 36.6229 37.9981 36.5864 37.9616C36.5717 37.9469 36.5535 37.936 36.5316 37.9287C36.2391 37.7678 35.9248 37.6289 35.5885 37.512C34.7988 37.2195 33.9836 37.0404 33.1429 36.9746C32.7115 35.9437 32.4776 35.3808 32.441 35.2857C32.1851 34.6351 32.1047 34.2622 32.1998 34.1672L40.4466 25.9203C40.4978 25.8691 40.655 25.8801 40.9182 25.9532C41.1887 26.0336 41.3605 26.1177 41.4336 26.2054C41.514 26.3005 41.631 26.5344 41.7846 26.9073C41.9454 27.2728 42.1099 27.5397 42.278 27.7078C42.4974 27.9272 42.8812 28.1136 43.4295 28.2671C43.9413 28.3987 44.2228 28.5193 44.274 28.629C44.3909 28.863 44.4568 29.3162 44.4714 29.9888C44.5006 30.6615 44.4604 31.0819 44.3507 31.2501C44.2995 31.3304 44.1168 31.3743 43.8024 31.3816C43.4954 31.3963 43.2943 31.356 43.1992 31.261C43.1188 31.1806 43.0713 31.1111 43.0567 31.0526C43.042 30.9941 43.0238 30.9613 43.0018 30.9539C42.6802 30.7492 42.3658 30.5738 42.0587 30.4275C41.3349 30.0693 40.7244 29.8829 40.2273 29.8683L38.4397 31.6558C38.8273 31.7801 39.2951 31.9775 39.8435 32.248C39.9751 32.3504 40.0555 32.7597 40.0847 33.4762C40.1286 34.1927 40.0847 34.6167 39.9531 34.7484C39.8727 34.8288 39.7265 34.8727 39.5145 34.88C39.3025 34.8873 39.1343 34.858 39.01 34.7922C38.9369 34.7191 38.8016 34.5985 38.6042 34.4303C38.2752 34.2037 37.5515 33.9478 36.4328 33.6627L35.2813 34.8142C35.6323 34.9019 36.0819 35.0444 36.6303 35.2419C37.1932 35.4393 37.5185 35.5818 37.6063 35.6695C37.7086 35.7719 37.8037 36.1886 37.8914 36.9198C37.9937 37.6509 37.9937 38.0529 37.8914 38.1261Z" fill="white"/>
<path fill-rule="evenodd" clip-rule="evenodd" d="M40.589 26.1597L32.4313 34.3175C32.4325 34.3472 32.4381 34.3939 32.4526 34.4614C32.4882 34.6264 32.566 34.8662 32.6922 35.1872L32.6926 35.1882L32.693 35.1891C32.7259 35.2749 32.9367 35.7824 33.329 36.7202C34.1355 36.7975 34.9193 36.9769 35.6798 37.2583C36.0222 37.3775 36.3441 37.5191 36.6451 37.6835C36.6921 37.7028 36.7376 37.7314 36.7773 37.771C36.8647 37.8585 36.908 37.9786 36.9334 38.0826C36.9916 38.0905 37.0911 38.0917 37.2481 38.068L37.2492 38.0678L37.2503 38.0677C37.4473 38.0395 37.5894 37.9921 37.6887 37.9357C37.6943 37.9012 37.6986 37.8475 37.6986 37.7699C37.6986 37.5876 37.6751 37.3189 37.6245 36.9573L37.6241 36.9547L37.6238 36.9521C37.5804 36.5903 37.536 36.314 37.4915 36.1191C37.4693 36.0213 37.4483 35.9501 37.4298 35.9014C37.4208 35.8779 37.4141 35.8641 37.4105 35.8572C37.4031 35.852 37.3888 35.8427 37.3648 35.8293C37.3234 35.8062 37.2654 35.7778 37.1884 35.7441C37.0348 35.6768 36.8199 35.5944 36.5412 35.4966L36.5401 35.4962L36.5391 35.4959C35.9948 35.2999 35.5546 35.1607 35.2161 35.076L34.754 34.9605L36.3509 33.3636L36.4997 33.4015C37.0633 33.5452 37.5324 33.6827 37.9047 33.8144C38.2725 33.9443 38.5629 34.0744 38.7574 34.2085L38.7688 34.2163L38.7794 34.2252C38.9511 34.3716 39.0817 34.4868 39.1664 34.568C39.2358 34.5963 39.3438 34.6162 39.5054 34.6106C39.5965 34.6075 39.6616 34.5967 39.7058 34.5835C39.7384 34.5737 39.7539 34.5643 39.7597 34.5601C39.7625 34.5553 39.7696 34.5416 39.7784 34.5138C39.7929 34.4677 39.8068 34.3995 39.8166 34.3041C39.8364 34.1133 39.8372 33.845 39.8157 33.493L39.8155 33.4902L39.8154 33.4875C39.801 33.1347 39.7744 32.869 39.738 32.684C39.7198 32.5914 39.7007 32.5272 39.6836 32.4858C39.6801 32.4775 39.6771 32.4708 39.6745 32.4656C39.1547 32.2111 38.7164 32.028 38.3575 31.9128L37.9367 31.7779L40.1191 29.5954L40.2354 29.5989C40.7878 29.6151 41.438 29.8197 42.1767 30.1851C42.4896 30.3342 42.808 30.5118 43.1322 30.7173C43.2079 30.7569 43.2489 30.8191 43.268 30.8533C43.2922 30.8969 43.3071 30.943 43.3171 30.982C43.3183 30.9842 43.321 30.989 43.3261 30.9965C43.3377 31.0135 43.3576 31.0378 43.3893 31.0696C43.3894 31.0695 43.409 31.0851 43.4744 31.0982C43.5454 31.1124 43.6485 31.1192 43.7898 31.1124L43.793 31.1122L43.7963 31.1122C43.9453 31.1087 44.0479 31.0967 44.1125 31.0812C44.1233 31.0786 44.132 31.0761 44.139 31.074C44.1565 31.0294 44.1798 30.94 44.1948 30.7831C44.2133 30.5905 44.2165 30.331 44.2021 30.0008L44.202 29.9979L44.2019 29.9949C44.1947 29.6651 44.1751 29.3954 44.1443 29.1834C44.1153 28.9834 44.0784 28.8499 44.0418 28.7686C44.0409 28.768 44.0401 28.7673 44.0391 28.7667C44.0178 28.752 43.9797 28.7307 43.9184 28.7044C43.7962 28.6521 43.6132 28.593 43.3626 28.5286L43.3598 28.5279L43.357 28.5271C42.7957 28.3699 42.3568 28.1681 42.0875 27.8988C41.885 27.6962 41.7043 27.3943 41.5378 27.0161L41.5366 27.0132L41.5353 27.0102C41.4599 26.827 41.3951 26.6819 41.3406 26.573C41.2836 26.459 41.246 26.4013 41.2279 26.3798L41.2273 26.3791L41.2267 26.3784C41.2267 26.3784 41.2212 26.3723 41.2056 26.3613C41.1892 26.3498 41.1651 26.3354 41.1316 26.319C41.0642 26.2861 40.9697 26.2501 40.8438 26.2126C40.7239 26.1794 40.6411 26.1639 40.589 26.1597ZM44.0518 28.7766C44.0518 28.7766 44.0513 28.7762 44.0505 28.7753C44.0514 28.7762 44.0519 28.7766 44.0518 28.7766ZM44.1613 31.0655C44.1613 31.0655 44.1613 31.0655 44.1613 31.0655C44.1618 31.0652 44.1618 31.0652 44.1613 31.0655ZM37.6801 37.9721C37.68 37.9719 37.6806 37.97 37.6821 37.9667C37.6809 37.9706 37.6802 37.9722 37.6801 37.9721ZM32.4324 34.2859C32.4324 34.286 32.4323 34.2875 32.4317 34.2902C32.432 34.2872 32.4323 34.2858 32.4324 34.2859ZM40.6219 25.6213C40.727 25.6286 40.8522 25.6551 40.9906 25.6935L40.9929 25.6941L40.9952 25.6948C41.1388 25.7375 41.2647 25.7836 41.3687 25.8345C41.4684 25.8832 41.5684 25.9462 41.6403 26.0321C41.7024 26.1057 41.7633 26.2122 41.8231 26.3318C41.8853 26.4561 41.9553 26.6134 42.0329 26.8018C42.1877 27.153 42.3355 27.3839 42.469 27.5173C42.638 27.6864 42.966 27.8571 43.4997 28.0068C43.7596 28.0737 43.9722 28.1406 44.1309 28.2086C44.2103 28.2426 44.2842 28.2803 44.3461 28.3231C44.4028 28.3623 44.4741 28.4226 44.5167 28.5112C44.5935 28.666 44.6439 28.8701 44.6782 29.1059C44.7131 29.3465 44.7336 29.6388 44.7412 29.9803C44.7559 30.3214 44.7536 30.6075 44.7318 30.8345C44.7112 31.0497 44.6702 31.2537 44.5775 31.3965C44.4914 31.5306 44.3399 31.5814 44.2384 31.6058C44.121 31.6339 43.9762 31.6475 43.8122 31.6514C43.6476 31.6591 43.4978 31.653 43.3686 31.6271C43.2414 31.6017 43.1088 31.5521 43.0087 31.4519C42.9263 31.3695 42.842 31.267 42.8037 31.1478C42.509 30.9629 42.2221 30.8042 41.943 30.6713L41.9411 30.6704L41.9393 30.6695C41.2902 30.3482 40.7572 30.1803 40.3328 30.1446L38.932 31.5454C39.2408 31.6657 39.5847 31.8197 39.963 32.0063L39.9876 32.0185L40.0093 32.0353C40.0959 32.1027 40.148 32.1975 40.1819 32.2793C40.2178 32.3658 40.2453 32.468 40.2674 32.5801C40.3113 32.804 40.3394 33.1003 40.3543 33.4628C40.3765 33.826 40.3773 34.1269 40.3532 34.3596C40.3411 34.4762 40.3221 34.5835 40.2928 34.6763C40.2644 34.766 40.2201 34.8632 40.144 34.9393C39.9879 35.0955 39.7517 35.1419 39.5239 35.1497C39.287 35.1579 39.0659 35.1272 38.884 35.0308L38.8481 35.0118L38.8195 34.9831C38.7561 34.9198 38.632 34.8086 38.4406 34.6453C38.3045 34.5542 38.0717 34.4456 37.7249 34.323C37.4053 34.21 37.0025 34.0897 36.5149 33.9625L35.7986 34.6788C36.0695 34.761 36.377 34.8642 36.7208 34.988C37.0045 35.0874 37.2335 35.1749 37.405 35.25C37.4907 35.2876 37.5656 35.3236 37.6275 35.3581C37.685 35.3901 37.7483 35.4301 37.7972 35.479C37.8645 35.5463 37.9059 35.6359 37.934 35.7096C37.9648 35.7907 37.9922 35.8885 38.0175 35.9991C38.0679 36.2204 38.1149 36.5171 38.1591 36.8852C38.2106 37.2535 38.2381 37.5505 38.2381 37.7699C38.2381 37.8788 38.2314 37.9803 38.2128 38.0665C38.1974 38.1383 38.1609 38.2654 38.0484 38.3458L38.0473 38.3465L38.0463 38.3473C37.8536 38.4821 37.6076 38.5614 37.3277 38.6015C37.0783 38.6392 36.8342 38.6441 36.648 38.5571L36.6447 38.5556L36.6414 38.554C36.5543 38.5104 36.5066 38.4368 36.484 38.3972C36.457 38.3501 36.4359 38.2968 36.4184 38.2445L36.4144 38.2323L36.4115 38.2198C36.4055 38.1939 36.3997 38.1748 36.3948 38.1614C36.1184 38.0099 35.8203 37.8783 35.5 37.7669L35.4974 37.766L35.4949 37.7651C34.7287 37.4813 33.938 37.3075 33.122 37.2437L32.9578 37.2308L32.8943 37.0789C32.4657 36.0548 32.2295 35.4865 32.1899 35.3838C32.0604 35.0545 31.9701 34.7829 31.9253 34.5751C31.9031 34.4721 31.8891 34.372 31.892 34.2823C31.8945 34.202 31.9117 34.0741 32.0092 33.9767L40.2561 25.7298C40.3209 25.665 40.3984 25.6396 40.454 25.6289C40.5112 25.6179 40.5694 25.6176 40.6219 25.6213Z" fill="#231F20"/>
<path d="M26.3422 38.1415C26.489 38.2443 26.6909 38.314 26.9479 38.3507C27.1901 38.3874 27.3663 38.3801 27.4764 38.3287C27.5058 38.314 27.5351 38.2626 27.5645 38.1745C27.5865 38.0791 27.6159 38.013 27.6526 37.9763C27.6673 37.9616 27.6856 37.9506 27.7076 37.9433C28.0013 37.7818 28.317 37.6423 28.6546 37.5249C29.4475 37.2312 30.266 37.0513 31.1102 36.9853C31.5433 35.9502 31.7782 35.3849 31.8149 35.2895C32.0718 34.6362 32.1526 34.2618 32.0572 34.1664L23.7766 25.8858C23.7252 25.8343 23.5674 25.8454 23.3031 25.9188C23.0315 25.9995 22.8589 26.0839 22.7855 26.1721C22.7048 26.2675 22.5873 26.5024 22.4332 26.8768C22.2716 27.2438 22.1065 27.5118 21.9376 27.6806C21.7174 27.9009 21.332 28.088 20.7814 28.2422C20.2676 28.3743 19.9849 28.4955 19.9336 28.6056C19.8161 28.8405 19.75 29.2956 19.7353 29.971C19.706 30.6464 19.7464 31.0685 19.8565 31.2373C19.9079 31.3181 20.0914 31.3621 20.407 31.3694C20.7154 31.3841 20.9172 31.3438 21.0127 31.2483C21.0934 31.1676 21.1411 31.0978 21.1558 31.0391C21.1705 30.9804 21.1889 30.9474 21.2109 30.94C21.5339 30.7345 21.8495 30.5582 22.1579 30.4115C22.8846 30.0517 23.4976 29.8646 23.9968 29.8499L25.7917 31.6447C25.4026 31.7695 24.9328 31.9677 24.3822 32.2393C24.25 32.3421 24.1693 32.7532 24.14 33.4726C24.0959 34.192 24.14 34.6178 24.2721 34.75C24.3528 34.8307 24.4996 34.8748 24.7125 34.8821C24.9254 34.8895 25.0942 34.8601 25.2191 34.794C25.2925 34.7206 25.4283 34.5995 25.6265 34.4306C25.9568 34.203 26.6836 33.9461 27.8068 33.6598L28.963 34.816C28.6106 34.9041 28.1591 35.0473 27.6085 35.2455C27.0433 35.4437 26.7166 35.5868 26.6285 35.6749C26.5257 35.7777 26.4303 36.1961 26.3422 36.9303C26.2394 37.6643 26.2394 38.0681 26.3422 38.1415Z" fill="white"/>
<path fill-rule="evenodd" clip-rule="evenodd" d="M23.7697 25.5933C23.8255 25.6041 23.9033 25.6295 23.9684 25.6946L32.249 33.9752C32.3469 34.073 32.3642 34.2014 32.3667 34.2821C32.3695 34.3722 32.3555 34.4727 32.3332 34.5761C32.2883 34.7847 32.1976 35.0575 32.0676 35.3881C32.0278 35.4913 31.7906 36.062 31.3604 37.0902L31.2965 37.2427L31.1316 37.2556C30.3123 37.3198 29.5184 37.4942 28.749 37.7792L28.7465 37.7801L28.7439 37.781C28.4224 37.8928 28.123 38.025 27.8455 38.177C27.8406 38.1905 27.8347 38.2097 27.8287 38.2357L27.8258 38.2483L27.8218 38.2605C27.8042 38.3131 27.7829 38.3665 27.7559 38.4138C27.7332 38.4536 27.6853 38.5275 27.5979 38.5712L27.5945 38.5729L27.5912 38.5744C27.4043 38.6617 27.1592 38.6568 26.9087 38.619C26.6277 38.5787 26.3807 38.4991 26.1872 38.3637L26.1862 38.3629L26.1851 38.3622C26.0722 38.2816 26.0355 38.1538 26.02 38.0818C26.0013 37.9953 25.9946 37.8934 25.9946 37.784C25.9946 37.5637 26.0223 37.2655 26.074 36.8956C26.1184 36.5261 26.1655 36.2281 26.2161 36.0059C26.2415 35.8948 26.2691 35.7966 26.3 35.7153C26.3281 35.6412 26.3698 35.5513 26.4373 35.4838C26.4865 35.4346 26.5501 35.3945 26.6077 35.3623C26.6699 35.3277 26.7451 35.2915 26.8312 35.2538C27.0034 35.1783 27.2333 35.0905 27.5182 34.9906C27.8633 34.8664 28.1721 34.7628 28.4441 34.6802L27.7249 33.961C27.2353 34.0888 26.8308 34.2095 26.5099 34.3229C26.1617 34.446 25.9279 34.5551 25.7912 34.6466C25.5991 34.8105 25.4745 34.9222 25.4109 34.9858L25.3821 35.0146L25.3461 35.0337C25.1634 35.1304 24.9415 35.1613 24.7035 35.1531C24.4748 35.1452 24.2377 35.0986 24.0809 34.9418C24.0045 34.8654 23.96 34.7677 23.9315 34.6777C23.9021 34.5845 23.883 34.4769 23.8709 34.3597C23.8467 34.126 23.8475 33.8239 23.8698 33.4592C23.8847 33.0952 23.9129 32.7977 23.9571 32.5729C23.9792 32.4604 24.0068 32.3578 24.0428 32.2709C24.0769 32.1888 24.1292 32.0936 24.2162 32.0259L24.238 32.009L24.2627 31.9968C24.6425 31.8094 24.9879 31.6548 25.298 31.534L23.8914 30.1274C23.4652 30.1634 22.93 30.332 22.2783 30.6545L22.2765 30.6554L22.2746 30.6563C21.9943 30.7897 21.7063 30.9491 21.4104 31.1348C21.3719 31.2545 21.2873 31.3573 21.2045 31.4402C21.1039 31.5407 20.9708 31.5906 20.8431 31.6161C20.7134 31.642 20.5629 31.6481 20.3978 31.6404C20.2331 31.6365 20.0877 31.6229 19.9698 31.5946C19.8678 31.5701 19.7158 31.5191 19.6293 31.3845C19.5362 31.2411 19.495 31.0363 19.4743 30.8202C19.4525 30.5923 19.4502 30.305 19.465 29.9625C19.4725 29.6196 19.4931 29.3261 19.5282 29.0845C19.5626 28.8477 19.6132 28.6427 19.6904 28.4873C19.7332 28.3984 19.8048 28.3379 19.8616 28.2986C19.9238 28.2556 19.9979 28.2177 20.0777 28.1835C20.237 28.1152 20.4505 28.0481 20.7115 27.9809C21.2474 27.8306 21.5767 27.6591 21.7465 27.4894C21.8804 27.3555 22.0289 27.1236 22.1843 26.7709C22.2622 26.5818 22.3325 26.4239 22.395 26.299C22.455 26.179 22.5162 26.072 22.5785 25.9981C22.6507 25.9119 22.7512 25.8487 22.8512 25.7997C22.9557 25.7486 23.0821 25.7023 23.2262 25.6595L23.2286 25.6588L23.2309 25.6582C23.3698 25.6196 23.4955 25.593 23.6011 25.5856C23.6539 25.5819 23.7122 25.5822 23.7697 25.5933ZM23.3782 26.1794C23.2519 26.217 23.157 26.2532 23.0893 26.2862C23.0556 26.3027 23.0315 26.3171 23.015 26.3287C22.9993 26.3397 22.9938 26.3459 22.9938 26.3459L22.9933 26.3466L22.9926 26.3473C22.9744 26.3689 22.9366 26.4268 22.8794 26.5413C22.8247 26.6505 22.7597 26.7963 22.6839 26.9802L22.6826 26.9832L22.6813 26.9862C22.5142 27.366 22.3328 27.6691 22.1295 27.8724C21.859 28.1429 21.4184 28.3455 20.8548 28.5033L20.852 28.5041L20.8492 28.5048C20.5975 28.5695 20.4138 28.6288 20.2911 28.6814C20.2295 28.7078 20.1913 28.7291 20.1699 28.7439C20.169 28.7446 20.168 28.7453 20.1672 28.7458C20.1305 28.8275 20.0934 28.9616 20.0642 29.1623C20.0333 29.3752 20.0136 29.646 20.0064 29.9772L20.0064 29.9802L20.0062 29.9831C19.9918 30.3147 19.995 30.5751 20.0135 30.7686C20.0286 30.9261 20.052 31.0158 20.0696 31.0607C20.0766 31.0628 20.0854 31.0653 20.0962 31.0679C20.161 31.0835 20.264 31.0955 20.4137 31.099L20.417 31.0991L20.4202 31.0992C20.5621 31.106 20.6656 31.0992 20.7369 31.0849C20.8022 31.0718 20.8221 31.0563 20.8224 31.0563C20.8542 31.0243 20.8742 30.9999 20.8858 30.9828C20.8909 30.9754 20.8936 30.9706 20.8948 30.9683C20.9049 30.9291 20.9199 30.8829 20.9442 30.8391C20.9633 30.8047 21.0045 30.7422 21.0804 30.7025C21.406 30.4961 21.7258 30.3178 22.0399 30.1681C22.7816 29.8012 23.4346 29.5958 23.9891 29.5795L24.106 29.576L26.2973 31.7674L25.8747 31.9029C25.5144 32.0185 25.0743 32.2025 24.5523 32.458C24.5498 32.4632 24.5467 32.4699 24.5432 32.4782C24.526 32.5198 24.5068 32.5842 24.4886 32.6773C24.4521 32.863 24.4253 33.1298 24.4109 33.484L24.4108 33.4868L24.4106 33.4895C24.3889 33.8429 24.3898 34.1124 24.4096 34.304C24.4196 34.3998 24.4334 34.4683 24.4481 34.5145C24.4568 34.5424 24.464 34.5562 24.4668 34.5611C24.4726 34.5652 24.4882 34.5747 24.5209 34.5845C24.5653 34.5978 24.6307 34.6086 24.7222 34.6118C24.8844 34.6174 24.9929 34.5974 25.0625 34.569C25.1476 34.4874 25.2786 34.3718 25.4512 34.2248L25.4617 34.2158L25.4732 34.2079C25.6685 34.0733 25.9601 33.9428 26.3293 33.8122C26.7032 33.6801 27.1742 33.542 27.7402 33.3977L27.8896 33.3597L29.493 34.9631L29.029 35.0791C28.689 35.1641 28.2471 35.3039 27.7006 35.5007L27.6996 35.501L27.6985 35.5014C27.4186 35.5995 27.2029 35.6822 27.0486 35.7499C26.9714 35.7838 26.9131 35.8122 26.8715 35.8354C26.8474 35.8489 26.833 35.8583 26.8257 35.8634C26.822 35.8703 26.8152 35.8842 26.8063 35.9078C26.7877 35.9567 26.7666 36.0282 26.7442 36.1264C26.6996 36.3221 26.6551 36.5995 26.6114 36.9628L26.6111 36.9655L26.6107 36.9681C26.5599 37.3311 26.5363 37.6009 26.5363 37.784C26.5363 37.8619 26.5407 37.9158 26.5462 37.9504C26.6459 38.0071 26.7887 38.0547 26.9865 38.083L26.9876 38.0831L26.9887 38.0833C27.1463 38.1072 27.2463 38.106 27.3047 38.0979C27.3302 37.9936 27.3736 37.8729 27.4614 37.7852C27.5013 37.7453 27.5469 37.7167 27.5941 37.6971C27.8964 37.5322 28.2196 37.39 28.5634 37.2703C29.327 36.9877 30.114 36.8076 30.9238 36.73C31.3177 35.7883 31.5293 35.2787 31.5625 35.1927L31.5628 35.1917L31.5632 35.1907C31.6899 34.8685 31.7681 34.6276 31.8037 34.462C31.8184 34.3942 31.824 34.3473 31.8252 34.3174L23.6341 26.1263C23.5818 26.1305 23.4986 26.1461 23.3782 26.1794ZM31.8241 34.2857C31.8242 34.2856 31.8245 34.2869 31.8248 34.2899C31.8242 34.2873 31.8241 34.2858 31.8241 34.2857ZM26.5549 37.9869C26.5548 37.9871 26.5541 37.9855 26.5529 37.9816C26.5544 37.9848 26.555 37.9868 26.5549 37.9869ZM20.1571 28.7538C20.1571 28.7538 20.1575 28.7535 20.1584 28.7526C20.1576 28.7535 20.1571 28.7538 20.1571 28.7538Z" fill="#231F20"/>
</g>
<defs>
<radialGradient id="paint0_radial_14585_74963" cx="0" cy="0" r="1" gradientUnits="userSpaceOnUse" gradientTransform="translate(32 32) rotate(90) scale(32)">
<stop stop-opacity="0"/>
<stop offset="1" stop-color="white"/>
</radialGradient>
<linearGradient id="paint1_linear_14585_74963" x1="32" y1="0" x2="32" y2="64" gradientUnits="userSpaceOnUse">
<stop stop-color="#4B4C4D"/>
<stop offset="1" stop-opacity="0"/>
</linearGradient>
<clipPath id="clip0_14585_74963">
<rect width="32" height="32" fill="white" transform="translate(16 16)"/>
</clipPath>
</defs>
</svg>
