<svg xmlns="http://www.w3.org/2000/svg" width="38" height="38" viewBox="0 0 38 38">
  <defs>
    <style>
      .cls-1 {
        fill: #2a424c;
      }

      .cls-2 {
        fill: #e8e9e9;
      }
    </style>
  </defs>
  <g id="组_66310" data-name="组 66310" transform="translate(-181 -634)">
    <g id="组_57152" data-name="组 57152" transform="translate(0 -20)">
      <g id="组_57150" data-name="组 57150" transform="translate(0 118)">
        <g id="组_57147" data-name="组 57147" transform="translate(0 72)">
          <g id="组_57143" data-name="组 57143" transform="translate(-118 274)">
            <rect id="矩形_21457" data-name="矩形 21457" class="cls-1" width="38" height="38" rx="10" transform="translate(299 190)"/>
          </g>
        </g>
      </g>
    </g>
    <path id="路径_52984" data-name="路径 52984" class="cls-2" d="M48.82,53a9.14,9.14,0,0,1,6.95,2.643,7.9,7.9,0,0,1,2.18,5.64A8.833,8.833,0,0,1,56.123,66.6a5.259,5.259,0,0,1-4.2,2.425,1.821,1.821,0,0,1-1.989-1.689,3.677,3.677,0,0,1-3.161,1.717A3.865,3.865,0,0,1,43.8,67.823a4.352,4.352,0,0,1-1.145-3.079A7.7,7.7,0,0,1,44.432,59.7a5.218,5.218,0,0,1,4.224-2.234,2.549,2.549,0,0,1,2.48,1.88l.382-1.362h2.426L52.09,64.635a10.038,10.038,0,0,0-.409,1.826c0,.354.191.545.6.545a3.135,3.135,0,0,0,2.289-1.5,6.757,6.757,0,0,0,1.308-4.2,5.8,5.8,0,0,0-1.8-4.305,7.387,7.387,0,0,0-5.423-1.935A7.658,7.658,0,0,0,42.8,57.387a8.2,8.2,0,0,0-2.18,5.94c0,2.67.763,4.714,2.317,6.076a8.945,8.945,0,0,0,6.1,1.88,11.263,11.263,0,0,0,4.524-.845,7.008,7.008,0,0,0,2.753-2.262h2.562a9.175,9.175,0,0,1-4.224,3.9,13.427,13.427,0,0,1-5.614,1.144c-3.488,0-6.214-.9-8.149-2.7A9.5,9.5,0,0,1,38,63.218a9.716,9.716,0,0,1,2.807-7.112A10.676,10.676,0,0,1,48.82,53Zm.331,6.842a3.313,3.313,0,0,0-2.7,1.555A5.682,5.682,0,0,0,45.3,64.862a2.259,2.259,0,0,0,.409,1.473,1.5,1.5,0,0,0,1.283.546,2.482,2.482,0,0,0,1.529-.573,3.48,3.48,0,0,0,1.146-1.692l.546-1.964a8.774,8.774,0,0,0,.328-1.446,1.277,1.277,0,0,0-.437-.982A1.3,1.3,0,0,0,49.151,59.842Z" transform="translate(152 590)"/>
  </g>
</svg>
