<svg xmlns="http://www.w3.org/2000/svg" width="30" height="30" viewBox="0 0 30 30"><defs><style>.a{fill:#74afe6;}.b{fill:#cbd9ff;}.c{fill:#8ab7e9;}.d{fill:#5293c8;}.e{fill:#c4d4ff;}.f{fill:#759dc7;}.g,.i{fill:none;}.g{stroke:#8ab7e9;stroke-width:0.5px;}.h{stroke:none;}</style></defs><g transform="translate(-132 -154)"><g transform="translate(141 159)"><path class="a" d="M254.911,409.021l-5.611-3.63,5.611-2.491Z" transform="translate(-249.3 -395.674)"/><path class="b" d="M254.911,64.7,249.3,74.417l5.611-2.491Z" transform="translate(-249.3 -64.7)"/><path class="c" d="M512.1,64.7l5.611,9.717L512.1,71.926Z" transform="translate(-506.485 -64.7)"/><path class="d" d="M512.1,409.021l5.611-3.63L512.1,402.9Z" transform="translate(-506.485 -395.674)"/><path class="e" d="M254.913,589.376,249.3,581.3h0l5.609,3.628h0Z" transform="translate(-249.3 -570.262)"/><path class="f" d="M511.8,589.376l5.613-8.077h0l-5.609,3.628h0Z" transform="translate(-506.191 -570.262)"/></g><g class="g" transform="translate(132 154)"><circle class="h" cx="15" cy="15" r="15"/><circle class="i" cx="15" cy="15" r="14.75"/></g></g></svg>