<svg xmlns="http://www.w3.org/2000/svg" width="30" height="30" viewBox="0 0 30 30">
  <defs>
    <style>
      .cls-1 {
        fill: #74afe6;
      }

      .cls-2 {
        fill: #cbd9ff;
      }

      .cls-3 {
        fill: #8ab7e9;
      }

      .cls-4 {
        fill: #5293c8;
      }

      .cls-5 {
        fill: #c4d4ff;
      }

      .cls-6 {
        fill: #759dc7;
      }

      .cls-7 {
        fill: none;
      }
    </style>
  </defs>
  <g id="组_66412" data-name="组 66412" transform="translate(-132 -154)">
    <g id="组_56276" data-name="组 56276" transform="translate(141 159)">
      <path id="路径_14576" data-name="路径 14576" class="cls-1" d="M254.911,409.021l-5.611-3.63,5.611-2.491Z" transform="translate(-249.3 -395.674)"/>
      <path id="路径_14577" data-name="路径 14577" class="cls-2" d="M254.911,64.7,249.3,74.417l5.611-2.491Z" transform="translate(-249.3 -64.7)"/>
      <path id="路径_14578" data-name="路径 14578" class="cls-3" d="M512.1,64.7l5.611,9.717L512.1,71.926Z" transform="translate(-506.485 -64.7)"/>
      <path id="路径_14579" data-name="路径 14579" class="cls-4" d="M512.1,409.021l5.611-3.63L512.1,402.9Z" transform="translate(-506.485 -395.674)"/>
      <path id="路径_14580" data-name="路径 14580" class="cls-5" d="M254.913,589.376,249.3,581.3h0l5.609,3.628h0Z" transform="translate(-249.3 -570.262)"/>
      <path id="路径_14581" data-name="路径 14581" class="cls-6" d="M511.8,589.376l5.613-8.077h0l-5.609,3.628h0Z" transform="translate(-506.191 -570.262)"/>
    </g>
    <circle id="椭圆_455" data-name="椭圆 455" class="cls-7" cx="15" cy="15" r="15" transform="translate(132 154)"/>
  </g>
</svg>
