<svg xmlns="http://www.w3.org/2000/svg" width="54" height="54" viewBox="0 0 54 54"><defs><style>.a{fill:#74afe6;}.b{fill:#cbd9ff;}.c{fill:#8ab7e9;}.d{fill:#5293c8;}.e{fill:#c4d4ff;}.f{fill:#759dc7;}.g,.i{fill:none;}.g{stroke:#74afe6;}.h{stroke:none;}</style></defs><g transform="translate(17 10)"><path class="a" d="M259.2,413.7l-9.9-6.4,9.9-4.4Z" transform="translate(-249.3 -390.151)"/><path class="b" d="M259.2,64.7l-9.9,17.144,9.9-4.4Z" transform="translate(-249.3 -64.7)"/><path class="c" d="M512.1,64.7,522,81.844l-9.9-4.4Z" transform="translate(-502.194 -64.7)"/><path class="d" d="M512.1,413.7l9.9-6.4-9.9-4.4Z" transform="translate(-502.194 -390.151)"/><path class="e" d="M259.2,595.549,249.3,581.3h.007l9.9,6.4h.008Z" transform="translate(-249.3 -561.826)"/><path class="f" d="M511.807,595.549l9.9-14.249H521.7l-9.9,6.4H511.8Z" transform="translate(-501.905 -561.826)"/></g><g class="g"><circle class="h" cx="27" cy="27" r="27"/><circle class="i" cx="27" cy="27" r="26.5"/></g></svg>