<svg xmlns="http://www.w3.org/2000/svg" width="30" height="30" viewBox="0 0 30 30">
  <defs>
    <style>
      .cls-1 {
        fill: #b9a6ff;
      }

      .cls-2 {
        fill: #957bd9;
      }

      .cls-3 {
        fill: #6481f8;
      }

      .cls-4 {
        fill: #7da2f5;
      }

      .cls-5 {
        fill: #cab7ff;
      }

      .cls-6 {
        fill: none;
      }
    </style>
  </defs>
  <g id="组_66416" data-name="组 66416" transform="translate(-67 -1066)">
    <g id="组_66417" data-name="组 66417">
      <g id="logo.d9ce33dc" transform="translate(74.65 1069.94)">
        <path id="路径_57346" data-name="路径 57346" class="cls-1" d="M9.628,27,7.3,25.7l2.328,3.354Z" transform="translate(-2.681 -9.889)"/>
        <path id="路径_57347" data-name="路径 57347" class="cls-2" d="M11.405,19.78s-3.753,2.2-3.766,2.2-3.766-2.2-3.766-2.2L1.49,20.855l6.143,3.428,6.143-3.428Z" transform="translate(-0.44 -7.606)"/>
        <path id="路径_57348" data-name="路径 57348" class="cls-3" d="M11.9,29.054,14.228,25.7,11.9,27Z" transform="translate(-4.455 -9.889)"/>
        <path id="路径_57349" data-name="路径 57349" class="cls-4" d="M11.9,30.834,17.539,22.7l-2.316,1.29L11.9,28.782Z" transform="translate(-4.455 -8.732)"/>
        <path id="路径_57350" data-name="路径 57350" class="cls-3" d="M11.9,5.03V15.6l5.123-3.041Z" transform="translate(-4.455 -1.917)"/>
        <path id="路径_57351" data-name="路径 57351" class="cls-5" d="M1.92,22.7l5.633,8.134V28.782L4.236,23.99Z" transform="translate(-0.606 -8.732)"/>
        <path id="路径_57352" data-name="路径 57352" class="cls-1" d="M7.873,5.03,2.75,12.555,7.873,15.6Z" transform="translate(-0.926 -1.917)"/>
        <path id="路径_57353" data-name="路径 57353" class="cls-4" d="M11.9,2.222l5.553,8.158,1.05-.62L11.9.06Z" transform="translate(-4.455 0)"/>
        <path id="路径_57354" data-name="路径 57354" class="cls-5" d="M6.948.06.35,9.76l1.044.62L6.948,2.222Z" transform="translate(0 0)"/>
      </g>
      <g id="组_66415" data-name="组 66415" transform="translate(26 73)">
        <g id="组_66413" data-name="组 66413" transform="translate(-87 669)">
          <g id="组_65966" data-name="组 65966" transform="translate(-4 8)">
            <circle id="椭圆_459" data-name="椭圆 459" class="cls-6" cx="15" cy="15" r="15" transform="translate(132 316)"/>
          </g>
        </g>
      </g>
    </g>
  </g>
</svg>
