<svg xmlns="http://www.w3.org/2000/svg" width="30" height="30" viewBox="0 0 30 30"><defs><style>.a{fill:#b9a6ff;}.b{fill:#957bd9;}.c{fill:#6481f8;}.d{fill:#7da2f5;}.e{fill:#cab7ff;}.f{fill:none;}</style></defs><g transform="translate(-67 -1066)"><g transform="translate(74.65 1069.94)"><path class="a" d="M9.628,27,7.3,25.7l2.328,3.354Z" transform="translate(-2.681 -9.889)"/><path class="b" d="M11.405,19.78s-3.753,2.2-3.766,2.2-3.766-2.2-3.766-2.2L1.49,20.855l6.143,3.428,6.143-3.428Z" transform="translate(-0.44 -7.606)"/><path class="c" d="M11.9,29.054,14.228,25.7,11.9,27Z" transform="translate(-4.455 -9.889)"/><path class="d" d="M11.9,30.834,17.539,22.7l-2.316,1.29L11.9,28.782Z" transform="translate(-4.455 -8.732)"/><path class="c" d="M11.9,5.03V15.6l5.123-3.041Z" transform="translate(-4.455 -1.917)"/><path class="e" d="M1.92,22.7l5.633,8.134V28.782L4.236,23.99Z" transform="translate(-0.606 -8.732)"/><path class="a" d="M7.873,5.03,2.75,12.555,7.873,15.6Z" transform="translate(-0.926 -1.917)"/><path class="d" d="M11.9,2.222l5.553,8.158,1.05-.62L11.9.06Z" transform="translate(-4.455 0)"/><path class="e" d="M6.948.06.35,9.76l1.044.62L6.948,2.222Z" transform="translate(0 0)"/></g><g transform="translate(26 73)"><g transform="translate(-87 669)"><g transform="translate(-4 8)"><circle class="f" cx="15" cy="15" r="15" transform="translate(132 316)"/></g></g></g></g></svg>