<svg xmlns="http://www.w3.org/2000/svg" width="38" height="38" viewBox="0 0 38 38"><defs><style>.a{fill:#2a424c;}.b{fill:#e8e9e9;}</style></defs><g transform="translate(-180 -236)"><g transform="translate(-1)"><g transform="translate(57 46)"><rect class="a" width="38" height="38" rx="10" transform="translate(124 190)"/></g></g><path class="b" d="M18.535,8.574A11.836,11.836,0,0,0,16.854,5.1a2.16,2.16,0,0,0,.4-1.174A2.115,2.115,0,0,0,13.9,2.151,11.752,11.752,0,0,0,10.429.468,11.92,11.92,0,0,0,4.536.284a.792.792,0,0,0-.143,1.523A21.568,21.568,0,0,1,8.555,3.883c.262.167.507.369.761.549L8.6,7.333.64,15.289a2.175,2.175,0,0,0,3.076,3.074l7.956-7.956,2.9-.72c.18.256.38.5.549.763A21.606,21.606,0,0,1,17.2,14.61a.788.788,0,0,0,1.51-.1,11.945,11.945,0,0,0-.174-5.937ZM2.6,17.242a.591.591,0,0,1-.837-.835L9.31,8.854l.837.837L2.6,17.242ZM16.452,9.594a23.388,23.388,0,0,0-3.145-3.9L13.3,5.683A23.486,23.486,0,0,0,9.41,2.551C8.88,2.21,8.336,1.893,7.785,1.6a10.407,10.407,0,0,1,2.208.384,10.336,10.336,0,0,1,7.03,7.03,10.407,10.407,0,0,1,.384,2.208Q16.962,10.392,16.452,9.594Z" transform="translate(189.996 246)"/></g></svg>