<svg id="组_57128" data-name="组 57128" xmlns="http://www.w3.org/2000/svg" width="14.508" height="8" viewBox="0 0 14.508 8">
  <defs>
    <style>
      .cls-1 {
        fill: #e7eaeb;
      }
    </style>
  </defs>
  <path id="路径_14523" data-name="路径 14523" class="cls-1" d="M6.7.224a.766.766,0,0,1,1.079,0,.755.755,0,0,1,0,1.072L1.3,7.744a.766.766,0,0,1-1.079,0,.755.755,0,0,1,0-1.073Z" transform="translate(0 8) rotate(-90)"/>
  <path id="路径_14524" data-name="路径 14524" class="cls-1" d="M7.778,6.674a.755.755,0,0,1,0,1.073.766.766,0,0,1-1.079,0L.222,1.293a.755.755,0,0,1,0-1.073A.767.767,0,0,1,1.3.224Z" transform="translate(6.541 8) rotate(-90)"/>
</svg>
