<svg width="64" height="64" viewBox="0 0 64 64" fill="none" xmlns="http://www.w3.org/2000/svg">
<circle cx="32" cy="32" r="31.75" fill="url(#paint0_radial)" fill-opacity="0.05" stroke="url(#paint1_linear)" stroke-width="0.5"/>
<path d="M32.0001 47.6193C40.6266 47.6193 47.6194 40.6262 47.6194 32C47.6194 23.3737 40.6266 16.3807 32.0001 16.3807C23.3738 16.3807 16.3808 23.3737 16.3808 32C16.3808 40.6262 23.3738 47.6193 32.0001 47.6193Z" fill="url(#paint2_radial)"/>
<path d="M28.908 47.6933C27.2952 47.3661 25.7704 46.7964 24.3733 46.024C25.7071 44.8614 27.2927 43.9775 29.0415 43.4642C29.0415 43.4642 27.1271 43.0292 25.3433 44.1604C22.5914 42.2787 20.8402 39.6682 19.9701 36.8402C20.6662 37.3623 22.276 38.3303 24.8538 38.5261L24.8212 38.5044C21.5037 37.2317 20.0462 35.5567 19.4589 34.6321C19.1108 32.2719 19.3175 29.8463 20.0353 27.6057L20.0462 27.6274C20.0462 27.6243 20.0462 27.6213 20.046 27.6182C20.4229 28.4453 21.3564 30.2643 23.0156 31.8912C21.0904 28.9218 20.8729 26.4962 20.8838 25.4738C21.6343 23.951 22.6458 22.5696 23.8858 21.4167C23.7009 22.7002 23.9184 24.2012 24.4623 25.4738C24.327 22.986 25.0383 20.6975 25.1189 20.4385C25.1225 20.4268 25.1248 20.4193 25.1258 20.416C26.7791 19.2522 28.7369 18.4799 30.9667 18.2515C23.9837 24.5819 25.811 33.2943 29.1611 36.677C29.4765 36.9925 29.8029 37.2644 30.1509 37.4819C30.1509 37.4819 31.4562 38.4064 31.913 40.6037C32.3698 42.7355 30.8688 45.7376 29.0089 47.5866C28.975 47.622 28.9414 47.6575 28.908 47.6933Z" fill="url(#paint3_linear)"/>
<path d="M20.046 27.6182C20.0454 27.6104 20.0431 27.6026 20.0353 27.5948C20.0388 27.6025 20.0424 27.6103 20.046 27.6182Z" fill="url(#paint4_linear)"/>
<path d="M27.5421 47.3527C26.6095 47.0756 25.7126 46.716 24.8597 46.2821C25.9264 45.2449 27.2961 44.2912 29.0414 43.475C29.0414 43.475 27.1271 43.0399 25.3433 44.1711C22.5914 42.2895 20.8402 39.679 19.9701 36.8511C22.7872 40.2447 26.9422 41.0932 29.52 41.0495C29.792 42.0503 30.053 43.4969 29.0414 45.4656C28.7561 46.0063 28.3372 46.4698 27.8768 46.9792C27.7672 47.1005 27.6552 47.2245 27.5421 47.3527Z" fill="url(#paint5_linear)"/>
<path d="M24.8448 46.2744C24.6835 46.1922 24.5238 46.1073 24.3658 46.0198C25.7012 44.8539 27.2895 43.9676 29.0415 43.4533C27.2893 44.2748 25.9148 45.2332 24.8448 46.2744Z" fill="url(#paint6_linear)"/>
<path d="M31.1572 47.9854C30.4118 47.9417 29.6801 47.8471 28.9655 47.7048C28.9692 47.6907 28.9726 47.6773 28.9759 47.6639L28.9762 47.6627L28.998 47.5974C32.0653 42.5505 30.9559 39.5483 30.9559 39.5483L30.1401 37.4926C30.1401 37.4709 30.1401 37.46 30.1292 37.4383C30.1074 37.286 30.0857 37.1337 30.0748 36.9706V36.9597C29.9878 36.0569 29.9878 35.0019 30.2597 34.0773C30.2597 34.0664 30.2597 34.0664 30.2706 34.0556C30.2706 34.0509 30.2706 34.0483 30.2714 34.0459C30.2726 34.0427 30.2752 34.0401 30.2815 34.0338C30.6622 32.7721 31.4997 31.6953 32.9681 31.3907C32.0014 31.0083 31.8128 30.3457 31.683 29.8894C31.6798 29.8785 31.6768 29.8677 31.6737 29.8571C31.8587 30.1072 32.5113 30.5314 34.1428 30.9121C36.7837 31.5144 36.5827 32.6378 36.5123 33.0312C36.5001 33.0996 36.4918 33.1459 36.503 33.1636C36.9927 33.6096 37.3081 34.2405 37.134 35.3499C36.6337 34.4145 35.6329 33.8054 34.5126 33.8489C34.2081 33.8598 33.9688 33.9142 33.7839 34.0229C32.6418 34.6103 33.5337 36.6225 35.0456 38.004V38.4171C35.0456 38.4171 36.6663 39.7769 36.699 42.2894V42.5288C36.7097 43.1596 36.688 44.3125 35.3175 44.7692C34.9695 45.411 34.567 45.8787 34.3168 46.1181C34.7519 44.9216 34.8172 44.1384 34.6975 43.1596C34.4478 44.604 33.1929 45.8892 31.9413 47.1711C31.6766 47.4422 31.4121 47.7131 31.1572 47.9854Z" fill="url(#paint7_linear)"/>
<path d="M45.0523 33.5444C45.0087 34.1101 44.9436 34.6648 44.8347 35.1977C44.1712 36.0026 42.779 37.1882 39.8967 38.6567C41.6151 38.5587 43.2684 37.8626 44.2582 37.21C42.6703 41.4195 39.0046 44.1386 35.3066 44.7694H35.3174C35.3827 44.7477 35.448 44.726 35.5132 44.6934C36.3398 44.3344 36.5901 43.7036 36.6662 43.1598C36.6988 42.9312 36.6988 42.7137 36.6879 42.5287C36.6879 42.3983 36.6879 42.2787 36.6879 42.159V42.148C36.6009 39.7225 35.0346 38.4173 35.0346 38.4173V38.0039L35.0455 38.0149C35.1652 37.9713 35.2848 37.9279 35.4044 37.8735C35.9265 37.6451 36.4268 37.3296 36.8838 36.9598C36.9708 36.8837 37.0578 36.8075 37.1449 36.7314C40.9516 33.2399 41.6478 24.8212 35.4153 19.0999C37.8191 19.8613 39.8531 21.0251 41.4303 22.6458C41.452 22.711 41.6044 23.4615 40.9843 25.3976C41.55 24.6363 41.9851 23.3093 41.9958 23.2658C42.866 24.2991 43.5731 25.4846 44.0842 26.8443C44.2475 27.2793 44.3996 27.7253 44.5193 28.2039C44.5193 28.2039 43.4861 30.3902 42.1265 31.815C43.7471 30.7708 44.7369 29.52 44.7913 29.4547C44.9544 30.3358 45.0414 31.2712 45.0633 32.261C45.0957 32.6961 45.085 33.1202 45.0523 33.5444Z" fill="url(#paint8_linear)"/>
<path d="M42.79 27.8341C42.8334 25.1475 42.0503 23.3745 42.0069 23.2657C42.8771 24.299 43.5839 25.4846 44.0953 26.8443C44.2584 27.2793 44.4107 27.7253 44.5304 28.2039C44.5304 28.2039 43.4969 30.3901 42.1373 31.815C42.6051 30.3466 42.7791 28.9979 42.79 27.8341Z" fill="url(#paint9_linear)"/>
<path d="M45.0524 33.5445C45.0088 34.1101 44.9437 34.6648 44.8348 35.1978C44.1713 36.0026 42.7791 37.1882 39.8968 38.6567C41.3651 37.0251 44.7697 31.8042 44.8021 29.4438C44.9654 30.3249 45.0524 31.2603 45.0741 32.2501C45.0958 32.6961 45.0851 33.1203 45.0524 33.5445Z" fill="url(#paint10_linear)"/>
<path d="M38.9286 21.5581C39.8858 23.0809 43.4535 31.641 37.1557 36.7314C40.9627 33.2399 41.6588 24.8212 35.4262 19.0999C37.8301 19.8613 39.8641 21.0251 41.4411 22.6458C41.4411 22.6458 39.9838 21.7974 38.9286 21.5581Z" fill="url(#paint11_linear)"/>
<path d="M37.1231 35.3392C37.1231 35.3392 37.2428 33.849 35.3719 32.9789C35.5895 32.9354 36.0246 33.0115 36.1442 33.0768C35.9376 32.6199 35.2849 31.6192 33.5337 31.7715C33.686 31.6736 34.1864 31.5866 34.4692 31.5757C34.4692 31.5757 32.3808 31.2494 31.6629 29.8463C31.8478 30.0965 32.5004 30.5207 34.132 30.9014C37.2318 31.6084 36.416 33.0332 36.4923 33.1529C36.9817 33.5988 37.3081 34.2297 37.1231 35.3392Z" fill="url(#paint12_linear)"/>
<path d="M35.4045 32.5438C35.0237 32.5982 34.8715 32.5547 34.7736 32.4894C34.6757 32.4242 34.4255 32.2719 34.2841 32.261C34.2732 32.2501 35.0673 32 35.4045 32.5438Z" fill="#E82828"/>
<path d="M36.7207 41.5282C36.7424 39.3418 35.2088 38.1346 35.0674 38.0149C35.0674 38.0149 35.0565 38.0149 35.0565 38.0039C33.5446 36.6226 32.6418 34.5995 33.773 34.0121C33.7186 34.0339 32.8702 34.3602 32.979 35.6219C33.0986 36.9272 33.8492 37.7429 33.8492 40.0706C34.0885 39.3418 34.1211 38.7544 34.0993 38.2759C34.5127 38.3847 36.6773 39.5049 36.6554 42.9204C36.688 42.5504 36.7424 42.072 36.7207 41.5282Z" fill="#D07F2A"/>
<path d="M44.2692 37.21C42.6812 41.4195 39.0156 44.1386 35.3174 44.7694C35.9592 43.5948 36.1984 42.1046 35.796 40.56C36.2528 41.1909 36.5682 41.8219 36.6335 42.9204C36.6771 42.5507 36.7315 42.072 36.7098 41.5282H36.7205C40.8212 41.5499 44.1712 37.3514 44.2692 37.21Z" fill="url(#paint13_linear)"/>
<path d="M36.9816 41.5173C36.9816 42.0286 36.8836 42.5724 36.6769 43.1489C36.6769 43.1598 36.6662 43.1815 36.6552 43.2032C36.6335 43.2685 36.6118 43.3229 36.5792 43.3882C36.5029 43.0945 36.4595 42.0611 36.1224 41.3976C36.2528 42.159 36.2528 43.1706 35.5241 44.6825C35.5132 44.6934 35.5132 44.7042 35.5023 44.7261C35.4479 44.7368 35.3827 44.7478 35.3283 44.7585C35.3174 44.7585 35.3174 44.7585 35.3065 44.7585C35.9483 43.5839 36.1875 42.0937 35.7851 40.5493C36.2418 41.1802 36.5575 41.811 36.6226 42.9095C36.6445 42.7247 36.6662 42.5071 36.6879 42.2677C36.6879 42.2243 36.6879 42.1807 36.6988 42.1373V42.1264C36.7096 41.9306 36.7096 41.7239 36.7096 41.5065C36.7315 39.3202 35.1978 38.1129 35.0563 37.9932V37.9823L35.0672 37.9932C35.1869 37.9496 35.3065 37.9062 35.4262 37.8519C35.9156 38.3847 37.0033 39.6899 36.9816 41.5173Z" fill="url(#paint14_linear)"/>
<path d="M23.0156 31.9021C22.2433 29.6614 21.7756 25.2019 23.8857 21.4276C22.9829 23.864 23.7335 26.9096 24.0598 27.4534C24.0598 27.4534 23.7335 30.5533 24.9625 33.4466C24.2229 32.9789 23.5812 32.4568 23.0156 31.9021Z" fill="url(#paint15_linear)"/>
<path d="M23.0156 31.9021C21.0904 28.9327 20.8729 26.5071 20.8837 25.4847C21.6342 23.951 22.6458 22.5697 23.8858 21.4167C21.7757 25.191 22.2433 29.6614 23.0156 31.9021Z" fill="url(#paint16_linear)"/>
<path d="M24.8212 38.5043C21.5037 37.2317 20.0462 35.5567 19.4589 34.6321C19.1108 32.2718 19.3175 29.8463 20.0353 27.6056C19.5241 36.0353 24.5166 38.3737 24.8212 38.5043Z" fill="url(#paint17_linear)"/>
<path d="M29.1611 36.677V36.6879C22.3847 30.4663 27.1162 20.7423 28.4649 19.6655C27.3772 19.622 25.2562 20.3616 25.1366 20.4051C26.779 19.2522 28.7369 18.4799 30.9666 18.2515C23.9836 24.5819 25.811 33.2943 29.1611 36.677Z" fill="url(#paint18_linear)"/>
<path d="M27.3229 38.4607C26.4092 38.5697 25.5825 38.5804 24.832 38.526L24.8211 38.5043C24.5166 38.3737 19.524 36.0353 20.0353 27.6056L20.0461 27.6274C21.7647 34.3711 25.8327 37.732 27.3229 38.4607Z" fill="url(#paint19_linear)"/>
<path d="M29.0306 47.5974C29.0306 47.5866 29.0306 47.5866 29.0306 47.5974C30.8906 45.7483 32.3916 42.7355 31.9456 40.6035C31.4779 38.4064 30.1509 37.4819 30.1509 37.4819L30.14 37.4275C30.1183 37.2752 30.0965 37.1229 30.0857 36.9598V36.9489H30.1074C30.1074 36.9489 35.807 41.3976 29.0306 47.5974Z" fill="url(#paint20_linear)"/>
<path d="M32 48C23.1788 48 16 40.8211 16 32C16 23.1788 23.1788 16 32 16C40.8213 16 48 23.1788 48 32C48 40.8211 40.8213 48 32 48ZM32 16.7505C23.5921 16.7505 16.7505 23.5921 16.7505 32C16.7505 40.4077 23.5921 47.2495 32 47.2495C40.4079 47.2495 47.2495 40.4077 47.2495 32C47.2495 23.5921 40.4079 16.7505 32 16.7505Z" fill="url(#paint21_linear)"/>
<defs>
<radialGradient id="paint0_radial" cx="0" cy="0" r="1" gradientUnits="userSpaceOnUse" gradientTransform="translate(32 32) rotate(90) scale(32)">
<stop stop-opacity="0"/>
<stop offset="1" stop-color="white"/>
</radialGradient>
<linearGradient id="paint1_linear" x1="32" y1="0" x2="32" y2="64" gradientUnits="userSpaceOnUse">
<stop stop-color="#4B4C4D"/>
<stop offset="1" stop-opacity="0"/>
</linearGradient>
<radialGradient id="paint2_radial" cx="0" cy="0" r="1" gradientUnits="userSpaceOnUse" gradientTransform="translate(31.9953 31.9979) scale(15.6224)">
<stop stop-color="#3D56A4"/>
<stop offset="0.1838" stop-color="#3B539F"/>
<stop offset="0.4095" stop-color="#344A90"/>
<stop offset="0.657" stop-color="#2A3B77"/>
<stop offset="0.9186" stop-color="#1B2654"/>
<stop offset="1" stop-color="#161F48"/>
</radialGradient>
<linearGradient id="paint3_linear" x1="24.6932" y1="61.8348" x2="25.9678" y2="28.2688" gradientUnits="userSpaceOnUse">
<stop stop-color="#EA2427"/>
<stop offset="0.1101" stop-color="#EB2C27"/>
<stop offset="0.2809" stop-color="#EC4229"/>
<stop offset="0.491" stop-color="#EF662B"/>
<stop offset="0.7325" stop-color="#F2972D"/>
<stop offset="0.9972" stop-color="#F7D631"/>
<stop offset="1" stop-color="#F7D731"/>
</linearGradient>
<linearGradient id="paint4_linear" x1="24.6932" y1="61.8348" x2="25.9678" y2="28.2688" gradientUnits="userSpaceOnUse">
<stop stop-color="#EA2427"/>
<stop offset="0.1101" stop-color="#EB2C27"/>
<stop offset="0.2809" stop-color="#EC4229"/>
<stop offset="0.491" stop-color="#EF662B"/>
<stop offset="0.7325" stop-color="#F2972D"/>
<stop offset="0.9972" stop-color="#F7D631"/>
<stop offset="1" stop-color="#F7D731"/>
</linearGradient>
<linearGradient id="paint5_linear" x1="21.4347" y1="65.7955" x2="26.0376" y2="30.9549" gradientUnits="userSpaceOnUse">
<stop stop-color="#EA2427"/>
<stop offset="0.1923" stop-color="#E3312A"/>
<stop offset="0.5512" stop-color="#D05532"/>
<stop offset="1" stop-color="#B5893E"/>
</linearGradient>
<linearGradient id="paint6_linear" x1="20.6602" y1="67.8422" x2="25.5464" y2="43.9778" gradientUnits="userSpaceOnUse">
<stop stop-color="#602D89"/>
<stop offset="0.5132" stop-color="#E82828"/>
<stop offset="0.9974" stop-color="#F7D732"/>
</linearGradient>
<linearGradient id="paint7_linear" x1="28.9225" y1="56.8354" x2="35.579" y2="30.2093" gradientUnits="userSpaceOnUse">
<stop stop-color="#EA2427"/>
<stop offset="1" stop-color="#F7D731"/>
</linearGradient>
<linearGradient id="paint8_linear" x1="28.3811" y1="41.1313" x2="45.6421" y2="22.5958" gradientUnits="userSpaceOnUse">
<stop stop-color="#EA2427"/>
<stop offset="0.1292" stop-color="#EC4129"/>
<stop offset="0.4334" stop-color="#F1812C"/>
<stop offset="0.6905" stop-color="#F4B02F"/>
<stop offset="0.8871" stop-color="#F6CC30"/>
<stop offset="1" stop-color="#F7D731"/>
</linearGradient>
<linearGradient id="paint9_linear" x1="40.5274" y1="32.4607" x2="44.5108" y2="22.6883" gradientUnits="userSpaceOnUse">
<stop stop-color="#B5893E"/>
<stop offset="1" stop-color="#CCAD4C"/>
</linearGradient>
<linearGradient id="paint10_linear" x1="46.4152" y1="29.7979" x2="37.4926" y2="43.9608" gradientUnits="userSpaceOnUse">
<stop stop-color="#B5893E"/>
<stop offset="1" stop-color="#EA2427"/>
</linearGradient>
<linearGradient id="paint11_linear" x1="36.7981" y1="38.8988" x2="39.7723" y2="6.04105" gradientUnits="userSpaceOnUse">
<stop stop-color="#EA2427"/>
<stop offset="0.0603" stop-color="#EC4029"/>
<stop offset="0.1583" stop-color="#EF682B"/>
<stop offset="0.263" stop-color="#F18B2D"/>
<stop offset="0.3737" stop-color="#F3A62E"/>
<stop offset="0.4925" stop-color="#F5BC2F"/>
<stop offset="0.6235" stop-color="#F6CB30"/>
<stop offset="0.7757" stop-color="#F7D431"/>
<stop offset="1" stop-color="#F7D731"/>
</linearGradient>
<linearGradient id="paint12_linear" x1="41.0663" y1="35.4021" x2="30.4972" y2="30.8346" gradientUnits="userSpaceOnUse">
<stop stop-color="#EA2427"/>
<stop offset="1" stop-color="#F7D731"/>
</linearGradient>
<linearGradient id="paint13_linear" x1="47.9625" y1="37.7689" x2="29.126" y2="45.4169" gradientUnits="userSpaceOnUse">
<stop stop-color="#B5893E"/>
<stop offset="1" stop-color="#EA2427"/>
</linearGradient>
<linearGradient id="paint14_linear" x1="35.921" y1="45.8315" x2="36.1069" y2="34.1472" gradientUnits="userSpaceOnUse">
<stop stop-color="#8C5323"/>
<stop offset="1" stop-color="#E49928"/>
</linearGradient>
<linearGradient id="paint15_linear" x1="25.5376" y1="34.2029" x2="23.1476" y2="25.5989" gradientUnits="userSpaceOnUse">
<stop stop-color="#B5893E"/>
<stop offset="1" stop-color="#CCAD4C"/>
</linearGradient>
<linearGradient id="paint16_linear" x1="22.7664" y1="31.9576" x2="21.7042" y2="8.58889" gradientUnits="userSpaceOnUse">
<stop stop-color="#B5893E"/>
<stop offset="1" stop-color="#CCAD4C"/>
</linearGradient>
<linearGradient id="paint17_linear" x1="22.5754" y1="37.9582" x2="15.4587" y2="15.3331" gradientUnits="userSpaceOnUse">
<stop stop-color="#B5893E"/>
<stop offset="1" stop-color="#CCAD4C"/>
</linearGradient>
<linearGradient id="paint18_linear" x1="31.5122" y1="36.6555" x2="26.1303" y2="15.7653" gradientUnits="userSpaceOnUse">
<stop stop-color="#EA2427"/>
<stop offset="0.0603" stop-color="#EC4029"/>
<stop offset="0.1583" stop-color="#EF682B"/>
<stop offset="0.263" stop-color="#F18B2D"/>
<stop offset="0.3737" stop-color="#F3A62E"/>
<stop offset="0.4925" stop-color="#F5BC2F"/>
<stop offset="0.6235" stop-color="#F6CB30"/>
<stop offset="0.7757" stop-color="#F7D431"/>
<stop offset="1" stop-color="#F7D731"/>
</linearGradient>
<linearGradient id="paint19_linear" x1="28.3944" y1="39.0466" x2="19.578" y2="30.5224" gradientUnits="userSpaceOnUse">
<stop stop-color="#B5893E"/>
<stop offset="1" stop-color="#CCAD4C"/>
</linearGradient>
<linearGradient id="paint20_linear" x1="29.5559" y1="48.4297" x2="32.2468" y2="33.9483" gradientUnits="userSpaceOnUse">
<stop stop-color="#8C5323"/>
<stop offset="1" stop-color="#E49928"/>
</linearGradient>
<linearGradient id="paint21_linear" x1="16.0021" y1="31.9979" x2="47.9981" y2="31.9979" gradientUnits="userSpaceOnUse">
<stop stop-color="#EE7026"/>
<stop offset="1" stop-color="#F7D731"/>
</linearGradient>
</defs>
</svg>
