<svg width="64" height="64" viewBox="0 0 64 64" fill="none" xmlns="http://www.w3.org/2000/svg">
<circle cx="32" cy="32" r="31.75" fill="url(#paint0_radial_17220_142954)" fill-opacity="0.05" stroke="url(#paint1_linear_17220_142954)" stroke-width="0.5"/>
<circle cx="32" cy="32" r="18" fill="white"/>
<path d="M21.7274 21.5347C20.9422 22.3682 20.2944 23.0695 20.2879 23.0827C20.2814 23.1025 20.988 23.8037 21.8582 24.6373C22.7285 25.4774 23.4875 26.2117 23.5398 26.258L23.638 26.3506L23.4613 26.6483C21.9106 29.2415 21.59 32.3638 22.5649 35.2348C22.7481 35.7773 23.0622 36.4719 23.3304 36.9283C23.4613 37.1533 23.5202 37.2988 23.5071 37.3252C23.494 37.3517 22.7023 38.1985 21.747 39.2106C20.7917 40.2161 20.0131 41.0562 20 41.0695C19.9935 41.0893 22.6696 43.7023 22.9248 43.914L23.0229 44L24.5344 42.4057C25.3653 41.5259 26.144 40.699 26.2617 40.5733L26.4842 40.3484L26.6936 40.4807C27.7601 41.1687 29.0098 41.645 30.3904 41.8964C31.084 42.0221 32.4057 42.0551 33.145 41.9625C34.5714 41.7971 35.9847 41.3142 37.1429 40.6064L37.4438 40.4212L37.7644 40.7387C38.4646 41.4267 41.0818 43.9405 41.108 43.9537C41.1341 43.9669 44.0065 40.9305 44 40.8909C43.9934 40.871 42.024 38.9592 40.8201 37.8148L40.4209 37.4311L40.6041 37.1268C42.1418 34.5402 42.4624 31.4046 41.4678 28.5138C41.3239 28.0904 40.8855 27.1378 40.6303 26.7012L40.506 26.4829L42.1876 24.7034C43.1101 23.731 43.8626 22.9173 43.856 22.8975C43.8299 22.8313 40.8855 20.0198 40.8462 20.0198C40.8201 20.0198 40.0807 20.7806 39.1974 21.72C38.3141 22.6527 37.5812 23.4201 37.5616 23.4267C37.5485 23.4333 37.4635 23.3936 37.3849 23.3341C37.1625 23.1819 36.5998 22.871 36.2857 22.7255C35.3304 22.2822 34.4406 22.011 33.4068 21.8589C32.8702 21.7795 31.2606 21.7663 30.7634 21.839C29.5725 22.011 28.5976 22.3087 27.6031 22.8115C27.3152 22.9504 26.9815 23.1356 26.8506 23.215L26.6151 23.3605L26.3468 23.0959C26.2028 22.9504 25.5485 22.3286 24.9008 21.7001C24.253 21.0783 23.5922 20.4432 23.4351 20.2845L23.1472 20L21.7274 21.5347ZM32.7132 25.8478C33.7535 25.9735 34.6827 26.3308 35.5398 26.9394C35.9782 27.2503 36.6325 27.9118 36.94 28.355C38.687 30.8556 38.3533 34.2558 36.1548 36.3396C34.277 38.1125 31.5616 38.5094 29.2781 37.3319C27.6292 36.4785 26.4646 34.9173 26.0916 33.0452C25.9738 32.4498 25.9738 31.3385 26.0916 30.7497C26.2028 30.1676 26.3533 29.7508 26.6347 29.1687C27.7601 26.8798 30.2007 25.5435 32.7132 25.8478Z" fill="black"/>
<defs>
<radialGradient id="paint0_radial_17220_142954" cx="0" cy="0" r="1" gradientUnits="userSpaceOnUse" gradientTransform="translate(32 32) rotate(90) scale(32)">
<stop stop-opacity="0"/>
<stop offset="1" stop-color="white"/>
</radialGradient>
<linearGradient id="paint1_linear_17220_142954" x1="32" y1="0" x2="32" y2="64" gradientUnits="userSpaceOnUse">
<stop stop-color="#4B4C4D"/>
<stop offset="1" stop-opacity="0"/>
</linearGradient>
</defs>
</svg>
