<svg width="64" height="64" viewBox="0 0 64 64" fill="none" xmlns="http://www.w3.org/2000/svg">
<circle cx="32" cy="32" r="31.75" fill="url(#paint0_radial_18144_262095)" fill-opacity="0.05" stroke="url(#paint1_linear_18144_262095)" stroke-width="0.5"/>
<circle cx="32" cy="32" r="18" fill="#F6C214"/>
<path d="M34.1938 22.1818C34.1938 23.3868 33.217 24.3636 32.012 24.3636C30.807 24.3636 29.8302 23.3868 29.8302 22.1818C29.8302 20.9768 30.807 20 32.012 20C33.217 20 34.1938 20.9768 34.1938 22.1818Z" fill="white"/>
<path d="M29.8302 31.2727V29.4545C29.8302 29.3541 29.7811 29.2727 29.6807 29.2727H29.012C28.1125 29.2727 27.7668 26.8594 27.453 24.6688C27.2911 23.5387 27.1377 22.4679 26.9211 21.8182C26.6413 20.9788 25.7696 20.7273 25.2848 20.7273H23.3248C23.0181 20.7273 22.8148 21.1069 22.9537 21.3804C23.8348 23.1154 25.1287 27.1407 25.2848 29.0909C25.4302 30.9091 26.1938 31.4242 26.5575 31.4545H29.6484C29.7488 31.4545 29.8302 31.3731 29.8302 31.2727Z" fill="white"/>
<path d="M34.2098 29.4545V31.2727C34.2098 31.3731 34.2912 31.4545 34.3916 31.4545H37.4826C37.8462 31.4242 38.6098 30.9091 38.7553 29.0909C38.9113 27.1407 40.2053 23.1154 41.0863 21.3804C41.2252 21.1069 41.022 20.7273 40.7152 20.7273H38.7553C38.2704 20.7273 37.3987 20.9788 37.1189 21.8182C36.9024 22.4679 36.749 23.5387 36.5871 24.6688C36.2733 26.8594 35.9276 29.2727 35.028 29.2727H34.3593C34.2589 29.2727 34.2098 29.3541 34.2098 29.4545Z" fill="white"/>
<path fill-rule="evenodd" clip-rule="evenodd" d="M30.7393 25.6364H33.2848V33.2727H37.4666C37.8302 33.2727 38.5575 33.5636 38.5575 34.7273C38.5575 35.9496 39.7131 40.9597 40.8913 43.1217C41.0595 43.4303 40.7981 44 40.4467 44H38.5575C38.1029 44.0606 37.1029 43.6182 36.7393 41.3636L37.6484 40.5455H27.3757L27.2848 41.3636C26.9211 43.6182 25.9211 44.0606 25.4666 44H23.5774C23.2259 44 22.9646 43.4303 23.1327 43.1217C24.311 40.9597 25.4666 35.9496 25.4666 34.7273C25.4666 33.5636 26.1938 33.2727 26.5575 33.2727H30.7393V25.6364ZM27.1029 38.5455H36.2848L35.8302 36.2727C35.7999 36 35.5575 35.4545 34.8302 35.4545H29.1938C28.4666 35.4545 28.2241 36 28.1938 36.2727L27.8302 38.0909L27.1029 38.5455Z" fill="white"/>
<defs>
<radialGradient id="paint0_radial_18144_262095" cx="0" cy="0" r="1" gradientUnits="userSpaceOnUse" gradientTransform="translate(32 32) rotate(90) scale(32)">
<stop stop-opacity="0"/>
<stop offset="1" stop-color="white"/>
</radialGradient>
<linearGradient id="paint1_linear_18144_262095" x1="32" y1="0" x2="32" y2="64" gradientUnits="userSpaceOnUse">
<stop stop-color="#4B4C4D"/>
<stop offset="1" stop-opacity="0"/>
</linearGradient>
</defs>
</svg>
