<svg xmlns="http://www.w3.org/2000/svg" width="40" height="40" viewBox="0 0 40 40">
  <defs>
    <style>
      .cls-1 {
        fill: #2c8389;
      }

      .cls-2 {
        fill: #e8e9e9;
      }
    </style>
  </defs>
  <g id="组_66166" data-name="组 66166" transform="translate(-885 -411)">
    <g id="组_66134" data-name="组 66134" transform="translate(704 -243)">
      <g id="组_57150" data-name="组 57150" transform="translate(181 654)">
        <g id="组_57147" data-name="组 57147">
          <g id="组_57143" data-name="组 57143" transform="translate(0 0)">
            <rect id="矩形_21457" data-name="矩形 21457" class="cls-1" width="40" height="40" rx="12" transform="translate(0 0)"/>
          </g>
        </g>
      </g>
    </g>
    <g id="组_66163" data-name="组 66163" transform="translate(893 419)">
      <path id="路径_52571" data-name="路径 52571" class="cls-2" d="M21.821,696.008H14.688a.42.42,0,0,1-.42-.42v-.881a1.679,1.679,0,0,0-1.679-1.679H10.911a1.679,1.679,0,0,0-1.679,1.679v.881a.42.42,0,0,1-.42.42H1.679A1.679,1.679,0,0,0,0,697.687v1.259a1.679,1.679,0,0,0,1.679,1.679H21.821a1.679,1.679,0,0,0,1.679-1.679v-1.259A1.679,1.679,0,0,0,21.821,696.008Z" transform="translate(0 -677.124)"/>
      <path id="路径_52572" data-name="路径 52572" class="cls-2" d="M155.478.5,157.4,4.327a.919.919,0,0,0,.68.5l4.2.6a.948.948,0,0,1,.491,1.616L159.775,9.9a.961.961,0,0,0-.277.839l.713,4.092a.911.911,0,0,1-1.3,1L155.1,13.848a.881.881,0,0,0-.839,0L150.4,15.842a.911.911,0,0,1-1.3-1l.713-4.092a.961.961,0,0,0-.277-.839l-2.971-2.87a.948.948,0,0,1,.491-1.616l4.2-.6a.919.919,0,0,0,.68-.5L153.875.5a.89.89,0,0,1,1.6,0Z" transform="translate(-142.927)"/>
    </g>
  </g>
</svg>
