<svg width="64" height="64" viewBox="0 0 64 64" fill="none" xmlns="http://www.w3.org/2000/svg">
<circle cx="32" cy="32" r="31.75" fill="url(#paint0_radial_15817_143434)" fill-opacity="0.05" stroke="url(#paint1_linear_15817_143434)" stroke-width="0.5"/>
<g clip-path="url(#clip0_15817_143434)">
<path d="M15.3193 34.0727L25.4387 24.1988C27.4026 22.2499 29.9991 21.2106 32.7619 21.2106C36.2571 21.2106 39.3196 22.8995 41.1837 25.4979C41.2169 25.5304 41.2502 25.5629 41.2835 25.5954C41.9826 26.4074 43.0145 26.8946 44.113 26.8946C46.1435 26.8946 47.8079 25.2706 47.8079 23.2893C47.8079 22.1525 47.0423 21.0807 47.0423 21.0807C43.7135 16.6309 38.3876 14 32.7619 14C27.8687 14 23.1751 16.0138 19.8131 19.4891C16.451 23.0295 14.7867 27.6417 15.1195 32.4812C15.1528 33.0333 15.2194 33.553 15.3193 34.0727Z" fill="#A7FF58"/>
<path d="M49.4055 33.261C48.8729 32.6115 48.1073 32.2217 47.2418 32.2217H36.5565C36.5232 32.2217 36.5232 32.2217 36.49 32.2217C35.7243 32.2217 35.0253 32.514 34.4926 33.0336C33.9601 33.5533 33.6938 34.2679 33.7271 34.9824C33.7604 36.3791 35.1252 37.5808 36.6564 37.5808H37.3887C37.9878 37.5808 38.4872 37.9057 38.7202 38.4578C38.9532 38.9775 38.8201 39.5946 38.4206 39.9844L29.9323 48.2668C30.4649 48.3642 30.9975 48.4292 31.5634 48.4617C40.0517 49.0139 47.8077 43.6222 49.9381 35.5996C50.1045 34.7876 49.9381 33.9106 49.4055 33.261Z" fill="#A7FF58"/>
<path d="M32.6619 23.094C31.1639 23.1265 29.7326 23.6137 28.5009 24.4257L28.401 24.4907C27.3358 25.1728 26.3372 25.9848 25.4384 26.8617C22.1763 30.0447 14.2206 37.8075 14.2206 37.8075C13.7212 38.2947 14.0208 39.6264 15.6186 38.9768L17.1166 38.4246C18.6811 38.0024 19.8461 38.0998 20.7116 39.2366C21.4439 40.1785 20.9779 41.7376 20.9779 41.7376C20.6451 42.8419 21.5105 43.589 22.4425 43.2317L23.0418 43.0044C24.4066 42.5171 25.9045 43.0693 26.6701 44.4659C26.9697 45.0181 27.003 45.7002 26.8365 46.2848C26.6035 47.1293 27.702 47.7464 28.3345 47.1293L36.1571 39.464C33.7936 39.2366 31.8297 37.3203 31.7631 35.0467C31.7298 33.78 32.1958 32.6107 33.0946 31.7013C33.96 30.8243 35.0918 30.3371 36.3235 30.3046C36.3568 30.3046 36.4233 30.3046 36.4566 30.3046H41.0503C40.5843 26.2446 36.9892 23.0616 32.6619 23.094ZM28.168 29.8824C27.7353 31.0191 26.8698 31.7338 26.2374 31.5063C25.6049 31.279 25.4051 30.1747 25.8379 29.0379C26.2707 27.9011 27.1361 27.1865 27.7686 27.4138C28.401 27.6413 28.6008 28.7456 28.168 29.8824ZM32.562 29.8824C32.1292 31.0191 31.2638 31.7338 30.6313 31.5063C29.9988 31.279 29.7991 30.1747 30.2318 29.0379C30.6646 27.9011 31.5301 27.1865 32.1625 27.4138C32.795 27.6413 32.9947 28.7456 32.562 29.8824Z" fill="white"/>
</g>
<defs>
<radialGradient id="paint0_radial_15817_143434" cx="0" cy="0" r="1" gradientUnits="userSpaceOnUse" gradientTransform="translate(32 32) rotate(90) scale(32)">
<stop stop-opacity="0"/>
<stop offset="1" stop-color="white"/>
</radialGradient>
<linearGradient id="paint1_linear_15817_143434" x1="32" y1="0" x2="32" y2="64" gradientUnits="userSpaceOnUse">
<stop stop-color="#4B4C4D"/>
<stop offset="1" stop-opacity="0"/>
</linearGradient>
<clipPath id="clip0_15817_143434">
<rect width="36" height="36" fill="white" transform="translate(14 14)"/>
</clipPath>
</defs>
</svg>
