<svg xmlns="http://www.w3.org/2000/svg" xmlns:xlink="http://www.w3.org/1999/xlink" width="40" height="40" viewBox="0 0 40 40"><defs><style>.a{fill:url(#a);}</style><linearGradient id="a" x1="0.5" x2="0.5" y2="1" gradientUnits="objectBoundingBox"><stop offset="0" stop-color="#28ddc8"/><stop offset="1" stop-color="#24584b"/></linearGradient></defs><path class="a" d="M20.142,0a20.257,20.257,0,0,0-20,20.508A20.47,20.47,0,0,0,13.82,39.965c1,.188,1.367-.445,1.367-.988,0-.487-.018-1.777-.028-3.488-5.563,1.24-6.738-2.75-6.738-2.75a5.387,5.387,0,0,0-2.22-3c-1.817-1.273.138-1.248.138-1.248A4.21,4.21,0,0,1,9.4,30.607a4.2,4.2,0,0,0,5.822,1.7,4.434,4.434,0,0,1,1.27-2.742c-4.442-.517-9.11-2.275-9.11-10.133a8.038,8.038,0,0,1,2.058-5.5,7.557,7.557,0,0,1,.2-5.427s1.68-.55,5.5,2.1a18.515,18.515,0,0,1,10.015,0c3.817-2.653,5.493-2.1,5.493-2.1a7.531,7.531,0,0,1,.2,5.427,8.02,8.02,0,0,1,2.055,5.5c0,7.877-4.675,9.612-9.13,10.118a4.965,4.965,0,0,1,1.357,3.8c0,2.742-.025,4.952-.025,5.625,0,.548.36,1.187,1.375.985A20.472,20.472,0,0,0,40.142,20.508,20.258,20.258,0,0,0,20.142,0" transform="translate(-0.142)"/></svg>