<svg xmlns="http://www.w3.org/2000/svg" width="40" height="40" viewBox="0 0 40 40">
  <defs>
    <style>
      .cls-1 {
        fill: #939ca5;
      }
    </style>
  </defs>
  <g id="组_66060" data-name="组 66060" transform="translate(-181 -707)">
    <g id="组_57179" data-name="组 57179" transform="translate(181 707)">
      <g id="组_57151" data-name="组 57151">
        <g id="组_57147" data-name="组 57147">
          <g id="组_57143" data-name="组 57143" transform="translate(0 0)">
            <rect id="矩形_21457" data-name="矩形 21457" class="cls-1" width="40" height="40" rx="20" transform="translate(0 0)"/>
          </g>
        </g>
      </g>
    </g>
    <path id="路径_32897" data-name="路径 32897" d="M76.4,45.661a2.152,2.152,0,0,1-2.17-2.125l-.009-1.521c-4.265.918-5.164-1.79-5.164-1.79a4.027,4.027,0,0,0-1.7-2.219c-1.391-.942.105-.923.105-.923a3.216,3.216,0,0,1,2.348,1.563,3.283,3.283,0,0,0,4.46,1.261,3.222,3.222,0,0,1,.974-2.029c-3.4-.383-6.984-1.685-6.984-7.5a5.834,5.834,0,0,1,1.58-4.071A5.4,5.4,0,0,1,69.99,22.3s1.288-.407,4.216,1.555a14.682,14.682,0,0,1,7.676,0c2.927-1.962,4.212-1.555,4.212-1.555a5.393,5.393,0,0,1,.15,4.014,5.826,5.826,0,0,1,1.578,4.071c0,5.826-3.586,7.109-7,7.484a3.608,3.608,0,0,1,1.039,2.809c0,2.03-.008,2.859-.008,2.859a2.153,2.153,0,0,1-2.168,2.126H76.4Z" transform="translate(123.234 692.738)"/>
  </g>
</svg>
