<svg xmlns="http://www.w3.org/2000/svg" width="30" height="30" viewBox="0 0 30 30"><defs><style>.a{fill:#c2c3c7;}.b{fill:#2ea7de;}.c,.e{fill:none;}.c{stroke:#2ea7de;stroke-width:0.5px;}.d{stroke:none;}</style></defs><g transform="translate(-132 -276)"><g transform="translate(141 282)"><path class="a" d="M-153.871-27.249a8.008,8.008,0,0,0-2.339-5.838s-.076-.044-.071.067v0c-.084,5.264-2.77,6.691-4.25,8.616a6.458,6.458,0,0,0,2.992,10.2c1.805.5-.418-.889-.7-3.833-.347-3.561,4.37-6.273,4.37-9.217" transform="translate(162 33.097)"/><path class="b" d="M76.588,248.006a.052.052,0,0,0-.076.009,9.7,9.7,0,0,1-1.7,3.383c-3.1,4.415-1.334,6.545-.342,7.687.578.662,0,0,1.445-.68a6.135,6.135,0,0,0,3.108-4.713,6.658,6.658,0,0,0-2.436-5.687" transform="translate(-66.685 -240.366)"/></g><g class="c" transform="translate(132 276)"><circle class="d" cx="15" cy="15" r="15"/><circle class="e" cx="15" cy="15" r="14.75"/></g></g></svg>