<svg id="组_65965" data-name="组 65965" xmlns="http://www.w3.org/2000/svg" width="54" height="53" viewBox="0 0 54 53">
  <defs>
    <style>
      .cls-1 {
        fill: #c2c3c7;
      }

      .cls-2 {
        fill: #2ea7de;
      }

      .cls-3 {
        fill: none;
      }
    </style>
  </defs>
  <g id="组_56281" data-name="组 56281" transform="translate(15.993 10.638)">
    <path id="路径_12909" data-name="路径 12909" class="cls-1" d="M-147.658-22.779c0-4.808-2.345-8.95-4.126-10.3-.008-.008-.133-.078-.125.118v.008c-.149,9.287-4.887,11.805-7.5,15.2A11.393,11.393,0,0,0-154.13.243c3.185.886-.737-1.569-1.239-6.762-.612-6.283,7.711-11.068,7.711-16.261" transform="translate(162 33.097)"/>
    <path id="路径_12910" data-name="路径 12910" class="cls-2" d="M79.282,248.015a.092.092,0,0,0-.133.016c-.1,1.169-1.381,3.671-3,5.969-5.475,7.789-2.353,11.546-.6,13.562,1.02,1.169,0,0,2.549-1.2a10.823,10.823,0,0,0,5.483-8.314,11.746,11.746,0,0,0-4.3-10.033" transform="translate(-61.81 -234.536)"/>
  </g>
  <ellipse id="椭圆_458" data-name="椭圆 458" class="cls-3" cx="27" cy="26.5" rx="27" ry="26.5"/>
</svg>
