<svg xmlns="http://www.w3.org/2000/svg" width="28" height="28" viewBox="0 0 28 28">
  <defs>
    <style>
      .cls-1 {
        fill: #25bcab;
      }
    </style>
  </defs>
  <path id="路径_52539" data-name="路径 52539" class="cls-1" d="M109.521,98.058l1.708.961a11.9,11.9,0,1,0-2,6.926,1.05,1.05,0,0,1,1.745,1.169,14,14,0,1,1,2.36-7.781c0,.359-.028.865-.083,1.527a1.05,1.05,0,0,1-1.562.828l-3.2-1.8a1.05,1.05,0,0,1,1.03-1.83Zm-16.18,5.782L98.283,98.9V93.033a1.05,1.05,0,1,1,2.1,0v6.3a1.05,1.05,0,0,1-.307.742l-5.25,5.25a1.05,1.05,0,1,1-1.485-1.485Z" transform="translate(-85.333 -85.333)"/>
</svg>
