<svg width="64" height="64" viewBox="0 0 64 64" fill="none" xmlns="http://www.w3.org/2000/svg">
<circle cx="32" cy="32" r="31.75" fill="url(#paint0_radial_14585_74962)" fill-opacity="0.05" stroke="url(#paint1_linear_14585_74962)" stroke-width="0.5"/>
<g clip-path="url(#clip0_14585_74962)">
<path d="M24.2839 32.6714L17.5322 36.3999C15.9285 37.2856 15.3255 39.2524 16.9965 40.0034C17.9526 40.4331 19.2654 40.7414 21.0276 40.7414C25.3883 40.7414 27.5167 38.5705 28.0358 37.4851L24.2839 32.6714Z" fill="#7BDFD5"/>
<path d="M39.7161 32.6714L46.4678 36.3999C48.0715 37.2856 48.6745 39.2524 47.0035 40.0034C46.0474 40.4331 44.7346 40.7414 42.9724 40.7414C38.6117 40.7414 36.4833 38.5705 35.9642 37.4851L39.7161 32.6714Z" fill="#7BDFD5"/>
<path d="M36.5304 21.1326C34.9436 21.1326 33.6988 22.3595 33.6988 23.8226C33.6988 24.1354 33.4453 24.389 33.1325 24.389C32.8198 24.389 32.5662 24.1354 32.5662 23.8226C32.5662 21.689 34.364 20 36.5304 20C36.8432 20 37.0967 20.2535 37.0967 20.5663C37.0967 20.8791 36.8432 21.1326 36.5304 21.1326Z" fill="#2E323B"/>
<path d="M31.0088 26.2354C31.6221 25.8813 32.3777 25.8813 32.9909 26.2354L38.7333 29.5507C39.3466 29.9048 39.7244 30.5591 39.7244 31.2673V37.898C39.7244 38.6062 39.3466 39.2605 38.7333 39.6146L32.9909 42.93C32.3777 43.284 31.6221 43.284 31.0088 42.93L25.2664 39.6146C24.6532 39.2605 24.2754 38.6062 24.2754 37.898V31.2673C24.2754 30.5591 24.6532 29.9048 25.2664 29.5507L31.0088 26.2354Z" fill="#2E323B"/>
<path d="M30.3009 23.8226C30.3009 22.3595 29.0562 21.1326 27.4694 21.1326C27.1566 21.1326 26.903 20.8791 26.903 20.5663C26.903 20.2535 27.1566 20 27.4694 20C29.6358 20 31.4336 21.689 31.4336 23.8226C31.4336 24.1354 31.18 24.389 30.8673 24.389C30.5545 24.389 30.3009 24.1354 30.3009 23.8226Z" fill="#2E323B"/>
<path d="M24.2754 32.7421V31.2673C24.2754 30.5592 24.6532 29.9048 25.2664 29.5507L25.6241 29.3442H38.3757L38.7333 29.5507C39.3466 29.9048 39.7244 30.5592 39.7244 31.2673V32.7421H24.2754Z" fill="#FFDD0F"/>
<path d="M25.6241 39.8211L25.2664 39.6146C24.6532 39.2605 24.2754 38.6062 24.2754 37.898V36.4232H39.7244V37.898C39.7244 38.6062 39.3466 39.2605 38.7333 39.6146L38.3757 39.8211H25.6241Z" fill="#FFDD0F"/>
</g>
<defs>
<radialGradient id="paint0_radial_14585_74962" cx="0" cy="0" r="1" gradientUnits="userSpaceOnUse" gradientTransform="translate(32 32) rotate(90) scale(32)">
<stop stop-opacity="0"/>
<stop offset="1" stop-color="white"/>
</radialGradient>
<linearGradient id="paint1_linear_14585_74962" x1="32" y1="0" x2="32" y2="64" gradientUnits="userSpaceOnUse">
<stop stop-color="#4B4C4D"/>
<stop offset="1" stop-opacity="0"/>
</linearGradient>
<clipPath id="clip0_14585_74962">
<rect width="32" height="32" fill="white" transform="translate(16 16)"/>
</clipPath>
</defs>
</svg>
