<svg width="64" height="64" viewBox="0 0 64 64" fill="none" xmlns="http://www.w3.org/2000/svg">
<circle cx="32" cy="32" r="31.75" fill="url(#paint0_radial)" fill-opacity="0.05" stroke="url(#paint1_linear)" stroke-width="0.5"/>
<path d="M43.9999 44C50.6273 37.3726 50.6273 26.6274 43.9999 20C37.3725 13.3726 26.6274 13.3726 20 20C13.3726 26.6274 13.3726 37.3726 20 44C26.6274 50.6274 37.3725 50.6274 43.9999 44Z" fill="#2B2B2B"/>
<path d="M31.9999 49.8353C27.4297 49.8353 22.8613 48.0964 19.3821 44.6173C12.4247 37.6599 12.4247 26.3394 19.3821 19.382C26.3396 12.4248 37.66 12.4247 44.6175 19.382C51.5748 26.3394 51.5748 37.6599 44.6175 44.6173C41.1391 48.0956 36.5687 49.8353 31.9999 49.8353ZM31.9999 15.9102C27.8777 15.9102 23.7556 17.4793 20.6175 20.6174C14.3413 26.8936 14.3413 37.1057 20.6175 43.3819C26.8936 49.6581 37.1058 49.6585 43.3822 43.3819C49.6582 37.1057 49.6582 26.8936 43.3822 20.6174C40.2439 17.4793 36.1219 15.9102 31.9999 15.9102Z" fill="#44C4E2"/>
<path d="M43.3278 43.3268C38.7581 47.8965 32.1143 49.1294 26.4266 47.0218C24.268 46.2194 22.3075 44.9616 20.6783 43.3341C19.0491 41.7066 17.7893 39.7474 16.9846 37.5897C14.8696 31.8996 16.0988 25.247 20.6734 20.6724C26.9294 14.4165 37.0718 14.4165 43.3278 20.6724C49.5837 26.9284 49.5837 37.0708 43.3278 43.3268Z" fill="#A5A5A5"/>
<path d="M43.3281 43.3271C38.945 47.7102 32.6519 49.0246 27.1261 47.2618L27.115 47.2581C26.884 47.1852 26.6727 47.0876 26.4466 47.0023C24.365 46.2327 22.4242 45.0035 20.754 43.3333L20.7108 43.29C19.0294 41.6087 17.7817 39.6642 17.0034 37.5715C16.9243 37.354 16.8391 37.1452 16.7687 36.9266L16.765 36.9155C14.9786 31.3785 16.2807 25.0657 20.6787 20.6678C26.9346 14.4118 37.0746 14.4143 43.3305 20.6702C49.5865 26.9262 49.584 37.0711 43.3281 43.3271Z" fill="#2B2B2B"/>
<path d="M43.6807 43.6797C37.2298 50.1306 26.7713 50.1306 20.3204 43.6797C16.688 40.0472 15.1008 35.1438 15.5589 30.4003C15.9207 26.6819 17.5325 23.196 20.1311 20.5118C22.7297 17.8276 26.1615 16.1037 29.8663 15.6216C34.7721 14.9843 39.91 16.5511 43.6795 20.3206C45.2453 21.8817 46.4803 23.7424 47.3108 25.7915C49.7264 31.7566 48.5156 38.8448 43.6807 43.6797Z" fill="#C7F2F9"/>
<path d="M38.343 16.2334C39.8971 17.4243 41.6575 18.861 43.2153 20.4658C43.2548 20.5078 43.2956 20.5486 43.3351 20.593C47.2488 24.7933 48.1024 34.097 40.2813 37.5449C36.5517 39.1892 32.3177 36.2178 32.4104 33.0985C31.8137 33.0602 31.255 33.0179 30.8893 33.1364L26.9571 37.0687C26.4691 40.0274 28.3978 43.3941 28.724 43.9624C29.8791 45.9649 31.6001 47.6489 33.6199 48.8682C37.4396 48.4929 41.0194 46.8343 43.7753 44.163C46.5312 41.4918 48.3006 37.9654 48.7948 34.1593C49.4496 29.119 47.8383 23.8387 43.9654 19.9658C42.3611 18.3566 40.4488 17.0872 38.343 16.2334Z" fill="#44C4E2"/>
<path d="M31.6307 32.3955L20.0132 44.013C26.5607 50.5605 37.3619 50.6164 43.9897 43.9886C46.7446 41.2337 48.3421 37.7563 48.8041 34.1687C48.5101 33.5412 48.126 32.9174 47.9938 33.524C46.7732 39.0757 40.9886 44.6269 35.5344 41.5299C32.4398 39.7719 30.5429 36.1109 32.412 33.1003C32.202 32.8903 31.895 32.6253 31.6307 32.3955Z" fill="#C1272D"/>
<path d="M47.7484 25.639C46.5575 24.0849 45.1208 22.3245 43.516 20.7666C43.474 20.7271 43.4332 20.6864 43.3888 20.6468C39.1885 16.7331 29.8848 15.8795 26.4369 23.7007C24.7926 27.4303 27.7859 31.6861 30.9052 31.5934C30.9435 32.1901 31.0076 32.7707 30.889 33.1363L26.9568 37.0685C23.9981 37.5565 20.6096 35.6059 20.0413 35.2798C18.0387 34.1247 16.3438 32.3927 15.1245 30.3729C15.4966 26.5526 17.1529 22.9712 19.8229 20.2136C22.4929 17.456 26.0189 15.685 29.8252 15.1898C34.8656 14.5351 40.1445 16.1449 44.0174 20.0179C45.6262 21.6218 46.8951 23.5336 47.7484 25.639Z" fill="#44C4E2"/>
<path d="M31.6302 32.3957L20.0127 44.0132C13.4652 37.4657 13.3875 26.6426 20.0153 20.0148C22.659 17.3626 26.1098 15.665 29.8242 15.1895C30.4518 15.4835 31.0701 15.8621 30.4636 15.9943C24.9118 17.2149 19.3578 22.9968 22.4549 28.451C24.2129 31.5456 27.8944 33.463 30.905 31.5938C31.115 31.8039 31.4005 32.1313 31.6302 32.3957Z" fill="#C1272D"/>
<path d="M18.0672 22.3105C17.8634 22.6009 17.6707 22.8973 17.4854 23.2012C17.6657 22.8998 17.8584 22.6058 18.061 22.3142L18.0672 22.3105Z" fill="white"/>
<path d="M39.3574 47.2974C39.6045 47.1788 39.8483 47.0544 40.0888 46.9243C39.8479 47.0565 39.6033 47.18 39.3574 47.2974Z" fill="white"/>
<path d="M41.6863 45.9398C41.3948 46.1424 41.1007 46.3351 40.7993 46.5155C41.1032 46.3302 41.3997 46.1374 41.69 45.9336L41.6863 45.9398Z" fill="white"/>
<path d="M44.1871 43.8065C44.2495 43.7421 44.3123 43.678 44.3735 43.6129C44.4548 43.5263 44.5348 43.4383 44.6143 43.35C44.656 43.3038 44.6974 43.2574 44.7385 43.2108C44.8271 43.1102 44.9152 43.0091 45.0014 42.9064C45.0141 42.8913 45.0263 42.8761 45.039 42.861C45.9948 41.7154 46.7955 40.4488 47.4204 39.094C47.4278 39.0779 47.4352 39.0617 47.4425 39.0456C47.5069 38.9046 47.5695 38.7626 47.6304 38.6197C47.6381 38.6014 47.6454 38.5829 47.6531 38.5646C47.8172 38.1738 47.9665 37.7756 48.1009 37.37C48.1287 37.2865 48.1571 37.2032 48.1835 37.1193C48.2104 37.0343 48.2356 36.9486 48.2612 36.8629C48.2914 36.7613 48.3213 36.6595 48.3497 36.5574C48.3711 36.4803 48.3919 36.403 48.4122 36.3254C48.4423 36.2105 48.4712 36.0953 48.4988 35.9799C48.5151 35.912 48.5317 35.8441 48.5472 35.7758C48.5777 35.6412 48.606 35.5061 48.6333 35.3709C48.6436 35.3198 48.6548 35.269 48.6646 35.2178C48.7369 34.8408 48.7963 34.4621 48.8428 34.0817C48.8506 34.0176 48.8568 33.953 48.8639 33.8888C48.8776 33.7651 48.8907 33.6415 48.9017 33.5176C48.909 33.4353 48.9149 33.3527 48.921 33.2701C48.9288 33.1642 48.9361 33.0582 48.942 32.9522C48.947 32.8618 48.9512 32.7712 48.9546 32.6804C48.9586 32.5801 48.9616 32.4798 48.9637 32.3794C48.9657 32.2878 48.9674 32.196 48.9679 32.104C48.9683 32.0315 48.9672 31.959 48.9667 31.8865C48.9654 31.6828 48.9599 31.4801 48.9514 31.2781C48.9482 31.2035 48.9464 31.1289 48.9422 31.0544C48.9295 30.8225 48.912 30.5918 48.8897 30.3625C48.8777 30.2384 48.8623 30.1146 48.8475 29.9908C48.8345 29.8809 48.8206 29.7713 48.8058 29.6619C48.785 29.5129 48.7634 29.364 48.7388 29.2155C48.7299 29.1617 48.7195 29.1084 48.7101 29.0547C48.6127 28.5016 48.4882 27.953 48.3366 27.409C48.3318 27.3919 48.3269 27.3748 48.322 27.3577C47.5346 24.5828 46.0479 22.0564 44.0042 20.0208C40.1354 16.1519 34.8622 14.5439 29.8272 15.198C26.0249 15.6928 22.5026 17.4621 19.8356 20.217C17.1685 22.9719 15.5143 26.5496 15.1429 30.366C14.6728 35.2344 16.3018 40.267 20.0299 43.9951C25.704 49.6692 34.3988 50.4799 40.9368 46.4285C40.9894 46.3958 41.0418 46.3628 41.0939 46.3295C41.1641 46.2849 41.2342 46.2403 41.3039 46.1946C41.4335 46.1093 41.5623 46.023 41.6894 45.9337C41.9606 45.7448 42.2258 45.5482 42.4852 45.3439C42.4953 45.3359 42.5055 45.3277 42.5156 45.3197C42.6327 45.2271 42.7485 45.1331 42.863 45.0375C42.8779 45.025 42.8929 45.0125 42.9079 44.9999C43.0206 44.9052 43.132 44.8091 43.2423 44.7116C43.2543 44.7009 43.2664 44.6904 43.2784 44.6797C43.5923 44.4003 43.8952 44.1092 44.1871 43.8065ZM41.6746 44.8663C38.7567 46.8503 34.7503 46.5477 32.1634 43.9608C29.2356 41.033 29.2344 36.2854 32.1635 33.3563C32.8638 32.6547 33.6965 32.0991 34.6132 31.7219C34.2198 31.3356 33.8478 30.9282 33.4989 30.5014C33.0721 30.1524 32.6646 29.7804 32.2783 29.3871C31.9011 30.3038 31.3456 31.1365 30.6439 31.8368C27.7148 34.7659 22.9673 34.7647 20.0394 31.8368C17.4476 29.245 17.1487 25.23 19.1438 22.3108C19.3935 21.946 19.6746 21.6037 19.9839 21.2879C19.9869 21.2836 19.9907 21.2799 19.995 21.2768C20.1951 21.052 20.4026 20.8321 20.6176 20.6171C23.6579 17.5768 27.7 15.9041 32.0004 15.9029C36.2995 15.9029 40.3416 17.5781 43.3819 20.6183C46.4222 23.6586 48.0974 27.7008 48.0974 31.9999C48.0961 36.3002 46.4222 40.3411 43.3819 43.3814C42.8483 43.9158 42.2778 44.412 41.6746 44.8663Z" fill="black"/>
<path d="M25.5566 19.8078C26.1722 18.8679 27.2927 17.6273 27.4028 17.6173C27.5128 17.6073 27.6229 18.2976 27.6229 18.2976L25.862 22.0795L25.5566 19.8078Z" fill="#841E25"/>
<path d="M44.1037 38.3553C45.0436 37.7398 46.2842 36.6192 46.2942 36.5092C46.3042 36.3991 45.6139 36.2891 45.6139 36.2891L41.832 38.0499L44.1037 38.3553Z" fill="#C1272D"/>
<path d="M43.7442 37.6216C43.7442 37.6216 45.0777 36.9008 45.5872 36.4058C44.7436 36.8781 43.5708 37.3739 43.5708 37.3739L43.7442 37.6216Z" fill="#F48D47"/>
<path d="M40.4284 23.6597C40.4284 23.6597 37.5894 29.1534 40.3293 33.9343C41.1862 35.4295 44.5504 38.1067 44.5504 38.1067L41.3127 38.4364C41.3127 38.4364 35.574 33.3796 34.3527 33.0837C32.7682 32.6998 31.9182 33.1582 30.8638 33.2243L40.4284 23.6597Z" fill="black"/>
<path d="M40.4287 23.6598C40.4287 23.6598 34.8515 26.4154 30.0705 23.6755C28.5754 22.8186 25.8564 19.4126 25.8564 19.4126L25.5059 22.6295C25.5059 22.6295 30.6357 28.4412 30.9316 29.6625C31.3155 31.2471 30.8066 32.0466 30.864 33.2245L40.4287 23.6598Z" fill="black"/>
<path d="M25.8317 19.3882C25.8317 19.3882 23.9427 22.1415 23.8267 23.6262C23.9283 24.0473 23.9488 24.139 24.0155 24.3925C24.1066 24.7387 24.832 23.3703 25.5849 22.7298C25.841 22.5119 25.8317 19.3882 25.8317 19.3882Z" fill="#841E25"/>
<path d="M44.5239 38.0801C44.5239 38.0801 41.7706 39.9691 40.2859 40.0852C39.8648 39.9835 39.7731 39.963 39.5196 39.8963C39.1734 39.8052 40.5418 39.0798 41.1823 38.3269C41.4002 38.0708 44.5239 38.0801 44.5239 38.0801Z" fill="#C1272D"/>
<path d="M41.518 38.2185C41.3433 38.4492 40.1192 39.4563 39.6035 39.7727C40.0184 39.9474 42.115 38.6407 43.0249 38.1021C43.0249 38.1021 42.6189 38.1076 42.1919 38.1456C41.7649 38.1837 41.518 38.2185 41.518 38.2185Z" fill="#F48D47"/>
<path d="M41.6689 22.4189L35.666 28.4219L36.0341 24.3024C36.0341 24.3024 38.6327 22.9844 41.6689 22.4189Z" fill="#C1272D"/>
<path d="M41.6689 22.4189L35.666 28.4219L39.7854 28.0539C39.7854 28.0539 40.9799 25.3317 41.6689 22.4189Z" fill="#841E25"/>
<path d="M34.999 29.0892L39.7855 28.0542L35.666 28.4222L34.999 29.0892Z" fill="#491218"/>
<path d="M39.786 28.0542C39.786 28.0542 38.3492 29.5281 36.8071 30.3632C34.6556 31.5283 32.7452 32.144 30.8643 33.2246L35.0263 29.0625L39.786 28.0542Z" fill="#841E25"/>
<path d="M36.0346 24.3027C36.0346 24.3027 34.5694 25.7483 33.7344 27.2903C32.5693 29.4419 31.9448 31.3436 30.8643 33.2245L35.0263 29.0625L36.0346 24.3027Z" fill="#C1272D"/>
<path d="M33.5649 26.7726C32.8578 28.1172 31.7847 31.6372 30.8643 33.2246C33.0058 29.8756 33.5556 28.4723 34.7862 27.5418C35.0747 26.4869 35.1563 25.5909 35.4117 24.9258C33.9421 26.0306 33.5649 26.7726 33.5649 26.7726Z" fill="#F48D47"/>
<path d="M33.5649 26.7726C32.8578 28.1172 31.7847 31.6372 30.8643 33.2246C33.0058 29.8756 33.5556 28.4723 34.7862 27.5418C35.0747 26.4869 35.1563 25.5909 35.4117 24.9258C33.9421 26.0306 33.5649 26.7726 33.5649 26.7726Z" fill="#F48D47"/>
<path d="M34.999 29.0891L36.0341 24.3027L35.666 28.4221L34.999 29.0891Z" fill="#841E25"/>
<path d="M40.7888 22.8193C40.4886 22.9194 37.8541 23.9027 36.4026 24.6443C36.2875 25.2814 36.2466 26.6812 36.2466 26.6812C36.2466 26.6812 37.047 25.1205 37.7873 24.5402C38.5277 23.9599 40.7888 22.8193 40.7888 22.8193Z" fill="#F48D47"/>
<path d="M27.2954 17.9258L26.2422 19.1182C26.2422 19.1182 27.2059 18.221 27.366 18.201C27.4685 18.1882 27.4392 18.0469 27.4049 17.9469C27.4011 17.9363 27.3947 17.9268 27.3861 17.9195C27.3776 17.9121 27.3673 17.9071 27.3562 17.905C27.3451 17.9028 27.3337 17.9036 27.323 17.9073C27.3124 17.911 27.3029 17.9174 27.2954 17.9258Z" fill="#F48D47"/>
<path d="M23.9511 23.5304C23.9661 23.2552 24.5247 21.7095 24.9782 21.0425C24.6047 22.3498 24.0511 23.9406 24.0511 23.9406C24.0511 23.9406 23.9361 23.8055 23.9511 23.5304Z" fill="#F48D47"/>
<path d="M44.0449 19.955C37.3926 13.3028 26.6072 13.3028 19.955 19.955C13.3028 26.6072 13.3028 37.3926 19.955 44.0449C26.6072 50.6971 37.3926 50.6971 44.0449 44.0449C50.6971 37.3926 50.6971 26.6072 44.0449 19.955ZM43.3279 43.3269C38.7583 47.8966 32.1144 49.1295 26.4267 47.0219C24.2682 46.2195 22.3077 44.9617 20.6784 43.3342C19.0492 41.7067 17.7894 39.7475 16.9847 37.5898C14.8698 31.8996 16.099 25.2471 20.6736 20.6725C26.9295 14.4166 37.072 14.4166 43.3279 20.6725C49.5839 26.9285 49.5839 37.0709 43.3279 43.3269Z" fill="black"/>
<defs>
<radialGradient id="paint0_radial" cx="0" cy="0" r="1" gradientUnits="userSpaceOnUse" gradientTransform="translate(32 32) rotate(90) scale(32)">
<stop stop-opacity="0"/>
<stop offset="1" stop-color="white"/>
</radialGradient>
<linearGradient id="paint1_linear" x1="32" y1="0" x2="32" y2="64" gradientUnits="userSpaceOnUse">
<stop stop-color="#4B4C4D"/>
<stop offset="1" stop-opacity="0"/>
</linearGradient>
</defs>
</svg>
