<svg width="64" height="64" viewBox="0 0 64 64" fill="none" xmlns="http://www.w3.org/2000/svg">
<circle cx="32" cy="32" r="31.75" fill="url(#paint0_radial)" fill-opacity="0.05" stroke="url(#paint1_linear)" stroke-width="0.5"/>
<path d="M47.9673 30.9966L47.9237 30.2331H43.3102C42.4594 24.758 37.7042 20.559 32 20.559C25.9686 20.5481 21.0061 25.2488 20.5808 31.182H17.6578C18.0832 23.6455 24.3545 17.636 32 17.636C35.1411 17.636 38.1513 18.6503 40.6271 20.5153C40.5726 20.6898 40.5399 20.8862 40.5399 21.0825C40.5399 22.0968 41.3579 22.9148 42.3722 22.9148C43.3865 22.9148 44.2045 22.0968 44.2045 21.0825C44.2045 20.0682 43.3865 19.2502 42.3722 19.2502C42.1759 19.2502 41.9796 19.2829 41.7941 19.3483C39.002 17.1779 35.5774 16 32 16C23.1766 16 16 23.1766 16 32V32.818H20.5808C21.0061 38.7512 25.9577 43.4519 32 43.4519C38.3149 43.4519 43.4519 38.3149 43.4519 32C43.4519 31.9564 43.4519 31.9018 43.4519 31.8582H46.3749C46.3749 31.9018 46.3749 31.9564 46.3749 32C46.3749 39.9182 39.9291 46.364 32.0109 46.364C28.5971 46.364 25.3797 45.1861 22.8057 43.0266C22.893 42.8085 22.9475 42.5794 22.9475 42.3286C22.9475 41.3142 22.1295 40.4963 21.1152 40.4963C20.1009 40.4963 19.2829 41.3142 19.2829 42.3286C19.2829 43.3429 20.1009 44.1609 21.1152 44.1609C21.2679 44.1609 21.4097 44.1391 21.5406 44.1063C24.4417 46.6258 28.1063 48 32 48C40.8234 48 48 40.8234 48 32C48 31.6619 47.9891 31.3238 47.9673 30.9966ZM32 41.816C26.5903 41.816 22.184 37.4097 22.184 32C22.184 26.5903 26.5903 22.184 32 22.184C37.4097 22.184 41.816 26.5903 41.816 32C41.816 37.4097 37.4097 41.816 32 41.816Z" fill="url(#paint2_linear)"/>
<path fill-rule="evenodd" clip-rule="evenodd" d="M23.8418 26.9503H39.9509L37.2678 28.4554H26.4049L23.8418 26.9503ZM23.6019 27.4192L26.1759 28.8153L31.5855 38.2168V41.2597L23.6019 27.4192ZM32.1092 41.2597V38.2386L37.4644 28.8698L40.1256 27.4192L32.1092 41.2597Z" fill="#FBAE17"/>
<path d="M31.8472 36.7117L27.5936 29.437H36.1117L31.8472 36.7117Z" fill="url(#paint3_linear)"/>
<defs>
<radialGradient id="paint0_radial" cx="0" cy="0" r="1" gradientUnits="userSpaceOnUse" gradientTransform="translate(32 32) rotate(90) scale(32)">
<stop stop-opacity="0"/>
<stop offset="1" stop-color="white"/>
</radialGradient>
<linearGradient id="paint1_linear" x1="32" y1="0" x2="32" y2="64" gradientUnits="userSpaceOnUse">
<stop stop-color="#4B4C4D"/>
<stop offset="1" stop-opacity="0"/>
</linearGradient>
<linearGradient id="paint2_linear" x1="32" y1="16" x2="32" y2="48" gradientUnits="userSpaceOnUse">
<stop stop-color="#EB6623"/>
<stop offset="1" stop-color="#E9A721"/>
</linearGradient>
<linearGradient id="paint3_linear" x1="31.8526" y1="29.437" x2="31.8526" y2="36.7117" gradientUnits="userSpaceOnUse">
<stop stop-color="#EB6623"/>
<stop offset="1" stop-color="#E9A721"/>
</linearGradient>
</defs>
</svg>
