<svg width="64" height="64" viewBox="0 0 64 64" fill="none" xmlns="http://www.w3.org/2000/svg">
<circle cx="32" cy="32" r="31.75" fill="url(#paint0_radial)" fill-opacity="0.05" stroke="url(#paint1_linear)" stroke-width="0.5"/>
<path d="M36.8818 19.9344L37.543 16.3922C37.5854 16.1648 37.7838 16 38.0151 16H42.689C42.9871 16 43.2132 16.2687 43.1622 16.5623L42.5483 20.1045C42.5084 20.3347 42.3086 20.5028 42.075 20.5028H37.3539C37.0533 20.5028 36.8266 20.2299 36.8818 19.9344Z" fill="#F7C845"/>
<path d="M32.1135 41.5557L36.0945 22.8046C36.1416 22.5827 36.3375 22.424 36.5643 22.424H50.0429C50.351 22.424 50.5795 22.7101 50.5113 23.0106L49.4083 27.8736C49.3587 28.0924 49.1643 28.2477 48.9399 28.2477H41.657C41.435 28.2477 41.2419 28.3998 41.19 28.6156L40.2803 32.398C40.2077 32.7001 40.4366 32.9906 40.7473 32.9906H45.9543C46.2643 32.9906 46.4932 33.28 46.4216 33.5817L45.2685 38.4448C45.2172 38.6613 45.0238 38.8143 44.8012 38.8143H39.2647C39.0385 38.8143 38.8429 38.9721 38.7952 39.1933L36.9775 47.621C36.9298 47.8421 36.7342 48 36.508 48H14.4804C14.1796 48 13.9528 47.7266 14.0084 47.4309L14.9684 42.3277C15.0111 42.1007 15.2094 41.9362 15.4404 41.9362H31.6437C31.8705 41.9362 32.0664 41.7775 32.1135 41.5557Z" fill="#F7C845"/>
<path d="M24.4535 39.8349H29.4176C29.6465 39.8349 29.8436 39.6733 29.8885 39.4488L33.1786 22.9985C33.238 22.7013 33.0107 22.424 32.7076 22.424H27.7435C27.5146 22.424 27.3175 22.5856 27.2726 22.8101L23.9825 39.2604C23.9231 39.5576 24.1504 39.8349 24.4535 39.8349Z" fill="#F7C845"/>
<path d="M16.2884 39.8349H21.3071C21.5384 39.8349 21.7369 39.6699 21.7793 39.4424L24.0021 27.495C24.057 27.1996 23.8303 26.9268 23.5298 26.9268H18.6779C18.4489 26.9268 18.2518 27.0884 18.2069 27.3129L15.8174 39.2604C15.758 39.5576 15.9853 39.8349 16.2884 39.8349Z" fill="#F7C845"/>
<defs>
<radialGradient id="paint0_radial" cx="0" cy="0" r="1" gradientUnits="userSpaceOnUse" gradientTransform="translate(32 32) rotate(90) scale(32)">
<stop stop-opacity="0"/>
<stop offset="1" stop-color="white"/>
</radialGradient>
<linearGradient id="paint1_linear" x1="32" y1="0" x2="32" y2="64" gradientUnits="userSpaceOnUse">
<stop stop-color="#4B4C4D"/>
<stop offset="1" stop-opacity="0"/>
</linearGradient>
</defs>
</svg>
