<svg width="64" height="64" viewBox="0 0 64 64" fill="none" xmlns="http://www.w3.org/2000/svg">
<circle cx="32" cy="32" r="31.75" fill="url(#paint0_radial)" fill-opacity="0.05" stroke="url(#paint1_linear)" stroke-width="0.5"/>
<path d="M46.3218 23.2789C46.3218 22.2959 47.1452 21.499 48.1609 21.499C49.1766 21.499 50 22.2959 50 23.2789V40.7212C50 41.7042 49.1766 42.501 48.1609 42.501C47.1452 42.501 46.3218 41.7042 46.3218 40.7212V23.2789Z" fill="white"/>
<path d="M25.0801 22.3889C23.756 22.3889 23.3636 23.3382 23.333 23.8128L23.333 35.4707C23.333 38.0514 21.6778 39.2973 20.1146 39.2973C18.5626 39.2973 17.6451 38.508 16.8222 37.8L16.8042 37.7845C15.9766 37.0725 14.7812 37.3395 14.2294 37.9625C13.6777 38.5854 13.5857 42.501 20.1146 42.501C25.3376 42.501 26.766 38.3481 26.8273 36.2716V23.8128C26.7966 23.3382 26.4043 22.3889 25.0801 22.3889Z" fill="white"/>
<path d="M38.9622 24.6764C39.4042 24.1374 39.3111 23.3538 38.7543 22.926C38.1974 22.4982 37.3876 22.5883 36.9456 23.1272L36.9234 23.1543C36.9093 23.1715 36.8888 23.1967 36.8622 23.2295C36.809 23.295 36.7315 23.3908 36.6332 23.5132C36.4366 23.758 36.1565 24.1097 35.8207 24.5395C35.1499 25.398 34.2531 26.5729 33.3543 27.8325C32.4587 29.0876 31.5453 30.4486 30.8507 31.6752C30.5038 32.2878 30.1987 32.889 29.9773 33.4414C29.766 33.9686 29.5859 34.5587 29.5859 35.1147C29.5859 37.2289 30.6504 39.0143 32.0561 40.2439C33.447 41.4605 35.2846 42.234 37.0343 42.234C38.7928 42.234 40.6506 41.4316 42.0545 40.214C43.4704 38.9859 44.5746 37.2021 44.5746 35.1147C44.5746 33.9723 44.1198 32.9138 43.7368 32.2096C43.5377 31.8435 43.3394 31.5395 43.1897 31.3254C43.1144 31.2178 43.0505 31.1316 43.0036 31.0699C42.9801 31.0391 42.9608 31.0143 42.9464 30.9961C42.9392 30.9869 42.9332 30.9794 42.9285 30.9736L42.9224 30.966L42.9202 30.9632L42.9192 30.9621L42.9188 30.9615L42.9184 30.961C42.4778 30.421 41.6683 30.3288 41.1102 30.7552C40.5531 31.1808 40.4573 31.9624 40.8953 32.5024L40.8955 32.5025L40.8968 32.5042L40.8971 32.5045L40.9005 32.5088C40.9062 32.5161 40.9166 32.5294 40.9308 32.5481C40.9593 32.5855 41.0032 32.6445 41.0573 32.7219C41.1662 32.8777 41.3126 33.1021 41.4584 33.3701C41.765 33.9339 41.9999 34.5663 41.9999 35.1147C41.9999 36.32 41.357 37.4729 40.3361 38.3584C39.3031 39.2543 38.0345 39.7423 37.0343 39.7423C36.0254 39.7423 34.7825 39.2699 33.7826 38.3953C32.7974 37.5336 32.1607 36.3822 32.1607 35.1147C32.1607 35.0256 32.2019 34.7814 32.3778 34.3425C32.5436 33.9289 32.7917 33.4323 33.1086 32.8727C33.7416 31.7549 34.5984 30.474 35.4729 29.2484C36.3442 28.0274 37.2176 26.883 37.8744 26.0423C38.2024 25.6225 38.4755 25.2796 38.6661 25.0423C38.7614 24.9237 38.836 24.8315 38.8865 24.7693C38.9118 24.7382 38.931 24.7146 38.9437 24.699L38.958 24.6815L38.9621 24.6765L38.9622 24.6764Z" fill="white"/>
<path d="M38.9622 24.6763C39.4042 24.1373 39.3111 23.3537 38.7543 22.9259C38.1974 22.4981 37.3876 22.5882 36.9456 23.1271L36.9234 23.1542C36.9093 23.1714 36.8888 23.1966 36.8622 23.2294C36.809 23.2949 36.7315 23.3907 36.6332 23.5131C36.4365 23.7579 36.1564 24.1096 35.8207 24.5394C35.1499 25.3979 34.2531 26.5728 33.3543 27.8324C32.4587 29.0875 31.5453 30.4485 30.8507 31.6751C30.5038 32.2877 30.1987 32.8889 29.9773 33.4413C29.766 33.9685 29.5859 34.5586 29.5859 35.1146C29.5859 37.2288 30.6504 39.0142 32.0561 40.2438C33.447 41.4604 35.2846 42.2339 37.0343 42.2339C38.7928 42.2339 40.6506 41.4315 42.0545 40.2139C43.4704 38.9858 44.5746 37.202 44.5746 35.1146C44.5746 33.9722 44.1198 32.9137 43.7368 32.2095C43.5377 31.8434 43.3394 31.5394 43.1897 31.3253C43.1144 31.2177 43.0505 31.1315 43.0036 31.0698C42.9801 31.039 42.9608 31.0142 42.9464 30.996C42.9392 30.9868 42.9332 30.9793 42.9285 30.9735L42.9224 30.9659L42.9201 30.9631L42.9192 30.9619L42.9188 30.9614L42.9184 30.9609C42.4778 30.4209 41.6683 30.3287 41.1102 30.7551C40.5531 31.1807 40.4572 31.9623 40.8953 32.5023L40.8954 32.5024L40.8968 32.5041L40.8971 32.5044L40.9004 32.5087C40.9062 32.516 40.9166 32.5293 40.9308 32.548C40.9593 32.5854 41.0032 32.6444 41.0573 32.7218C41.1662 32.8776 41.3126 33.102 41.4584 33.37C41.765 33.9338 41.9999 34.5662 41.9999 35.1146C41.9999 36.3199 41.357 37.4728 40.3361 38.3583C39.3031 39.2542 38.0345 39.7422 37.0343 39.7422C36.0254 39.7422 34.7825 39.2698 33.7825 38.3952C32.7974 37.5335 32.1607 36.3821 32.1607 35.1146C32.1607 35.0255 32.2019 34.7813 32.3778 34.3424C32.5436 33.9288 32.7917 33.4322 33.1086 32.8726C33.7416 31.7548 34.5984 30.4739 35.4729 29.2483C36.3442 28.0273 37.2176 26.8829 37.8744 26.0422C38.2024 25.6224 38.4755 25.2795 38.6661 25.0422C38.7614 24.9236 38.836 24.8313 38.8865 24.7692C38.9117 24.7381 38.931 24.7145 38.9437 24.6989L38.958 24.6814L38.9621 24.6764L38.9622 24.6763Z" fill="#9D0003"/>
<defs>
<radialGradient id="paint0_radial" cx="0" cy="0" r="1" gradientUnits="userSpaceOnUse" gradientTransform="translate(32 32) rotate(90) scale(32)">
<stop stop-opacity="0"/>
<stop offset="1" stop-color="white"/>
</radialGradient>
<linearGradient id="paint1_linear" x1="32" y1="0" x2="32" y2="64" gradientUnits="userSpaceOnUse">
<stop stop-color="#4B4C4D"/>
<stop offset="1" stop-opacity="0"/>
</linearGradient>
</defs>
</svg>
