<svg width="64" height="64" viewBox="0 0 64 64" fill="none" xmlns="http://www.w3.org/2000/svg">
<circle cx="32" cy="32" r="31.75" fill="url(#paint0_radial_17869_167843)" fill-opacity="0.05" stroke="url(#paint1_linear_17869_167843)" stroke-width="0.5"/>
<path d="M41.4175 21.3553L39.9454 22.8273C39.9421 22.8307 39.9387 22.8348 39.9346 22.8381L34.1486 28.6241C34.0405 28.7322 33.865 28.7322 33.7569 28.6241C33.6488 28.516 33.6488 28.3405 33.7569 28.2324L39.552 22.4373C40.1558 21.8235 40.1533 20.8321 39.5429 20.2225C38.9291 19.6096 37.9319 19.6096 37.3198 20.2217L31.6968 25.8904L28.0075 30.0621C27.906 30.1769 27.7314 30.1877 27.6166 30.0862C27.5018 29.9847 27.491 29.8101 27.5925 29.6953L31.3658 25.4288C31.4914 25.0479 31.4673 24.6395 31.2968 24.2744C31.1196 23.8935 30.8044 23.6049 30.4094 23.4611C29.6276 23.1766 29.1328 23.3704 28.1006 24.3643C28.0541 24.4075 23.3967 28.7564 22.8087 33.3364C22.7014 34.2604 22.7446 35.1894 22.9368 36.0984C23.2777 37.7135 24.0786 39.1881 25.2513 40.3608C26.8631 41.9725 29.0072 42.8608 31.2868 42.8608C33.5664 42.8608 35.7105 41.9725 37.3223 40.3608L45.8295 31.8544C46.4425 31.2414 46.4425 30.2434 45.8295 29.6304C45.2191 29.02 44.2277 29.0175 43.6139 29.6221L39.3799 33.8562C39.2717 33.9643 39.0963 33.9643 38.9881 33.8562C38.88 33.7481 38.88 33.5726 38.9881 33.4645L43.2131 29.2396L43.223 29.2296L45.1675 27.2851C45.7804 26.6722 45.7804 25.6742 45.1675 25.0612C44.8706 24.7643 44.4755 24.6005 44.0555 24.6005C43.6355 24.6005 43.2405 24.7643 42.9436 25.0612L36.7634 31.2406C36.6553 31.3487 36.4798 31.3487 36.3717 31.2406C36.2636 31.1325 36.2636 30.957 36.3717 30.8489L43.6405 23.58C44.2535 22.967 44.2535 21.969 43.6405 21.3561C43.0284 20.7423 42.0312 20.7415 41.4175 21.3553Z" fill="#F5BA23"/>
<path d="M38.4309 19.7623C38.8334 19.7623 39.2368 19.9154 39.5437 20.2223C40.1541 20.8327 40.1566 21.8232 39.5528 22.437L33.7577 28.2321C33.6496 28.3403 33.6496 28.5157 33.7577 28.6239C33.8118 28.6779 33.8824 28.7054 33.9531 28.7054C34.0238 28.7054 34.0945 28.6779 34.1486 28.6239L39.9346 22.8379C39.9379 22.8346 39.9412 22.8304 39.9454 22.8271L41.4174 21.355C41.7243 21.0481 42.1269 20.8951 42.5294 20.8951C42.9319 20.8951 43.3353 21.0481 43.6413 21.355C44.2543 21.968 44.2543 22.966 43.6413 23.5789L36.3725 30.8478C36.2644 30.9559 36.2644 31.1314 36.3725 31.2395C36.4265 31.2936 36.4972 31.321 36.5679 31.321C36.6386 31.321 36.7093 31.2936 36.7634 31.2395L42.9436 25.0601C43.2405 24.7632 43.6355 24.5994 44.0555 24.5994C44.4755 24.5994 44.8706 24.7632 45.1675 25.0601C45.7804 25.6731 45.7804 26.6711 45.1675 27.284L43.2238 29.2285L43.2139 29.2385L38.9889 33.4634C38.8808 33.5715 38.8808 33.747 38.9889 33.8551C39.043 33.9092 39.1137 33.9366 39.1844 33.9366C39.2551 33.9366 39.3258 33.9092 39.3798 33.8551L43.6139 29.621C43.9191 29.32 44.3183 29.1694 44.7175 29.1694C45.1201 29.1694 45.5226 29.3225 45.8295 29.6294C46.4424 30.2423 46.4424 31.2403 45.8295 31.8533L37.3231 40.3605C35.7113 41.9723 33.5672 42.8605 31.2876 42.8605C29.008 42.8605 26.8639 41.9723 25.2521 40.3605C24.0795 39.187 23.2786 37.7133 22.9376 36.0982C22.7454 35.1891 22.7022 34.2593 22.8095 33.3362C23.3983 28.7561 28.0549 24.4073 28.1014 24.364C28.8525 23.6405 29.319 23.341 29.818 23.341C30.0052 23.341 30.1964 23.3826 30.4094 23.4608C30.8044 23.6047 31.1196 23.8933 31.2968 24.2742C31.4672 24.6393 31.4914 25.0477 31.3658 25.4286L27.5925 29.6951C27.491 29.8098 27.5018 29.9845 27.6166 30.086C27.6698 30.1325 27.7347 30.1558 27.7996 30.1558C27.8761 30.1558 27.9526 30.1242 28.0075 30.0627L31.6968 25.891L37.3198 20.2223C37.6267 19.9154 38.0292 19.7623 38.4309 19.7623ZM38.4309 18.9307C38.119 18.9307 37.8154 18.9897 37.5277 19.1061C37.2291 19.2267 36.9613 19.4047 36.7326 19.6334L36.7318 19.6343L36.7309 19.6351L32.1708 24.2318C32.1384 24.1262 32.0985 24.023 32.0511 23.9216C31.9164 23.633 31.7301 23.3776 31.4972 23.1647C31.2643 22.951 30.994 22.788 30.6946 22.679C30.3811 22.5651 30.0941 22.5094 29.8189 22.5094C29.4155 22.5094 29.0246 22.6275 28.6237 22.8695C28.3085 23.0608 27.9709 23.3352 27.5293 23.7602C27.4211 23.8617 26.2368 24.9844 24.9926 26.6503C24.2416 27.6558 23.6154 28.6613 23.133 29.6385C22.8428 30.2257 22.6007 30.8103 22.4144 31.3759C22.2065 32.0071 22.0618 32.6309 21.9853 33.2289L21.9845 33.2339L21.9836 33.2388C21.8655 34.2518 21.9129 35.2715 22.1242 36.2695C22.4984 38.0426 23.3775 39.6611 24.6641 40.9485C25.1024 41.3868 25.5823 41.781 26.0921 42.1228C26.5986 42.4613 27.14 42.7516 27.7014 42.9836C28.2628 43.2157 28.85 43.3936 29.4479 43.5126C30.0492 43.6315 30.6688 43.6922 31.2876 43.6922C31.9072 43.6922 32.526 43.6315 33.1273 43.5126C33.7253 43.3936 34.3124 43.2165 34.8738 42.9836C35.4352 42.7516 35.9766 42.4613 36.4831 42.1228C36.9929 41.7818 37.4736 41.3868 37.9111 40.9493L46.4175 32.4421C46.647 32.2126 46.8242 31.9448 46.9456 31.6462C47.062 31.3584 47.1211 31.054 47.1211 30.7421C47.1211 30.4303 47.062 30.1259 46.9456 29.8381C46.8242 29.5387 46.647 29.2709 46.4175 29.0422C46.1888 28.8135 45.921 28.6355 45.6216 28.5141C45.4952 28.4634 45.3662 28.4226 45.234 28.3943L45.7563 27.872C45.985 27.6433 46.163 27.3747 46.2844 27.0761C46.4009 26.7884 46.4599 26.484 46.4599 26.1721C46.4599 25.8602 46.4009 25.5558 46.2844 25.268C46.163 24.9686 45.9858 24.7008 45.7563 24.4721C45.5309 24.2467 45.2689 24.0713 44.977 23.9498C44.8298 23.8891 44.6784 23.8434 44.5229 23.8126C44.6161 23.6746 44.6943 23.5273 44.7575 23.3718C44.8739 23.0841 44.9329 22.7797 44.9329 22.4678C44.9329 22.1559 44.8739 21.8515 44.7575 21.5638C44.636 21.2644 44.4589 20.9966 44.2293 20.7678C43.9998 20.5383 43.732 20.3611 43.4334 20.2397C43.1457 20.1233 42.8413 20.0642 42.5294 20.0642C42.2175 20.0642 41.9131 20.1233 41.6254 20.2397C41.326 20.3611 41.0582 20.5383 40.8294 20.7678L40.7795 20.8177C40.7504 20.6847 40.7097 20.5541 40.6581 20.426C40.5367 20.1283 40.3604 19.8621 40.1325 19.6343C39.903 19.4047 39.6352 19.2276 39.3358 19.1061C39.0472 18.9897 38.7428 18.9307 38.4309 18.9307Z" fill="#323232"/>
<path d="M39.9254 21.3553L38.4534 22.8273C38.45 22.8307 38.4467 22.8348 38.4425 22.8381L32.6566 28.6241C32.5484 28.7322 32.373 28.7322 32.2648 28.6241C32.1567 28.516 32.1567 28.3405 32.2648 28.2324L38.06 22.4373C38.6638 21.8235 38.6613 20.8321 38.0508 20.2225C37.437 19.6096 36.4399 19.6096 35.8278 20.2217L30.2048 25.8904L26.5155 30.0621C26.414 30.1769 26.2393 30.1877 26.1246 30.0862C26.0098 29.9847 25.999 29.8101 26.1004 29.6953L29.8738 25.4288C29.9994 25.0479 29.9752 24.6395 29.8047 24.2744C29.6276 23.8935 29.3124 23.6049 28.9173 23.4611C28.1356 23.1766 27.6407 23.3704 26.6086 24.3643C26.562 24.4075 21.9046 28.7564 21.3166 33.3364C21.2094 34.2604 21.2526 35.1894 21.4447 36.0984C21.7857 37.7135 22.5866 39.1881 23.7593 40.3608C25.3711 41.9725 27.5151 42.8608 29.7948 42.8608C32.0744 42.8608 34.2185 41.9725 35.8302 40.3608L44.3375 31.8544C44.9504 31.2414 44.9504 30.2434 44.3375 29.6304C43.727 29.02 42.7357 29.0175 42.1219 29.6221L37.8878 33.8562C37.7797 33.9643 37.6042 33.9643 37.4961 33.8562C37.388 33.7481 37.388 33.5726 37.4961 33.4645L41.721 29.2396L41.731 29.2296L43.6755 27.2851C44.2884 26.6722 44.2884 25.6742 43.6755 25.0612C43.3786 24.7643 42.9835 24.6005 42.5635 24.6005C42.1435 24.6005 41.7485 24.7643 41.4516 25.0612L35.2714 31.2406C35.1632 31.3487 34.9878 31.3487 34.8796 31.2406C34.7715 31.1325 34.7715 30.957 34.8796 30.8489L42.1485 23.58C42.7614 22.967 42.7614 21.969 42.1485 21.3561C41.5364 20.7423 40.5392 20.7415 39.9254 21.3553Z" fill="#FFD55A"/>
<path d="M36.9397 19.7632C37.3422 19.7632 37.7456 19.9162 38.0525 20.2231C38.6629 20.8335 38.6654 21.8241 38.0616 22.4379L32.2665 28.233C32.1584 28.3411 32.1584 28.5166 32.2665 28.6247C32.3206 28.6788 32.3913 28.7062 32.462 28.7062C32.5326 28.7062 32.6033 28.6788 32.6574 28.6247L38.4434 22.8387C38.4467 22.8354 38.45 22.8312 38.4542 22.8279L39.9263 21.3558C40.2332 21.049 40.6357 20.8959 41.0382 20.8959C41.4408 20.8959 41.8441 21.049 42.1502 21.3558C42.7631 21.9688 42.7631 22.9668 42.1502 23.5797L34.8813 30.8486C34.7732 30.9567 34.7732 31.1322 34.8813 31.2403C34.9354 31.2944 35.0061 31.3218 35.0768 31.3218C35.1474 31.3218 35.2181 31.2944 35.2722 31.2403L41.4524 25.061C41.7493 24.7641 42.1444 24.6002 42.5643 24.6002C42.9843 24.6002 43.3794 24.7641 43.6763 25.061C44.2892 25.6739 44.2892 26.6719 43.6763 27.2849L41.7318 29.2293L41.7219 29.2393L37.4969 33.4642C37.3888 33.5724 37.3888 33.7478 37.4969 33.856C37.551 33.91 37.6217 33.9375 37.6924 33.9375C37.7631 33.9375 37.8338 33.91 37.8878 33.856L42.1219 29.6219C42.4271 29.3208 42.8263 29.1703 43.2255 29.1703C43.6281 29.1703 44.0306 29.3233 44.3375 29.6302C44.9504 30.2431 44.9504 31.2412 44.3375 31.8541L35.8311 40.3613C34.2193 41.9731 32.0752 42.8614 29.7956 42.8614C27.516 42.8614 25.3719 41.9731 23.7601 40.3613C22.5874 39.1878 21.7865 37.7141 21.4456 36.099C21.2534 35.19 21.2102 34.2602 21.3175 33.337C21.9063 28.7569 26.5629 24.4081 26.6094 24.3649C27.3604 23.6413 27.827 23.3419 28.326 23.3419C28.5132 23.3419 28.7044 23.3835 28.9173 23.4616C29.3124 23.6055 29.6276 23.8941 29.8047 24.275C29.9752 24.6401 29.9994 25.0485 29.8738 25.4294L26.1005 29.6959C25.999 29.8107 26.0098 29.9853 26.1246 30.0868C26.1778 30.1334 26.2427 30.1567 26.3075 30.1567C26.3841 30.1567 26.4606 30.1251 26.5155 30.0635L30.2048 25.8918L35.8278 20.2231C36.1346 19.9162 36.5372 19.7632 36.9397 19.7632ZM36.9397 18.9315C36.6278 18.9315 36.3243 18.9905 36.0365 19.107C35.7379 19.2276 35.4701 19.4056 35.2414 19.6343L35.2406 19.6351L35.2398 19.6359L30.6805 24.2318C30.6481 24.1262 30.6081 24.023 30.5607 23.9216C30.426 23.633 30.2397 23.3776 30.0068 23.1647C29.774 22.951 29.5037 22.788 29.2043 22.679C28.8907 22.5651 28.6038 22.5094 28.3285 22.5094C27.9252 22.5094 27.5343 22.6275 27.1334 22.8695C26.8182 23.0608 26.4805 23.3352 26.0389 23.7602C25.9308 23.8617 24.7465 24.9845 23.5023 26.6503C22.7513 27.6558 22.125 28.6613 21.6427 29.6385C21.3524 30.2257 21.1104 30.8104 20.9241 31.3759C20.7162 32.0071 20.5715 32.6309 20.4949 33.2289L20.4941 33.2339L20.4933 33.2389C20.3752 34.2518 20.4226 35.2715 20.6338 36.2695C21.0081 38.0426 21.8872 39.6611 23.1738 40.9485C23.6121 41.3868 24.092 41.781 24.6018 42.1228C25.1083 42.4613 25.6497 42.7516 26.2111 42.9836C26.7724 43.2157 27.3596 43.3936 27.9576 43.5126C28.5589 43.6315 29.1785 43.6922 29.7973 43.6922C30.4169 43.6922 31.0356 43.6315 31.6369 43.5126C32.2349 43.3936 32.8221 43.2165 33.3835 42.9836C33.9448 42.7516 34.4863 42.4613 34.9928 42.1228C35.5026 41.7818 35.9833 41.3868 36.4207 40.9493L44.9255 32.4429C45.155 32.2134 45.3322 31.9456 45.4536 31.647C45.57 31.3593 45.6291 31.0549 45.6291 30.743C45.6291 30.4311 45.57 30.1267 45.4536 29.839C45.3322 29.5395 45.155 29.2717 44.9255 29.043C44.6968 28.8143 44.429 28.6363 44.1296 28.5149C44.0031 28.4642 43.8742 28.4234 43.742 28.3952L44.2643 27.8729C44.493 27.6442 44.671 27.3755 44.7924 27.077C44.9088 26.7892 44.9679 26.4848 44.9679 26.1729C44.9679 25.861 44.9088 25.5566 44.7924 25.2689C44.671 24.9695 44.4938 24.7017 44.2643 24.473C44.0389 24.2476 43.7769 24.0721 43.485 23.9507C43.3378 23.89 43.1864 23.8442 43.0309 23.8134C43.1241 23.6754 43.2022 23.5282 43.2655 23.3727C43.3819 23.0849 43.4409 22.7805 43.4409 22.4686C43.4409 22.1567 43.3819 21.8524 43.2655 21.5646C43.144 21.2652 42.9669 20.9974 42.7373 20.7687C42.5078 20.5391 42.24 20.362 41.9414 20.2406C41.6537 20.1241 41.3493 20.0651 41.0374 20.0651C40.7255 20.0651 40.4211 20.1241 40.1334 20.2406C39.834 20.362 39.5661 20.5391 39.3374 20.7687L39.2875 20.8186C39.2584 20.6855 39.2177 20.5549 39.1661 20.4269C39.0447 20.1291 38.8684 19.863 38.6405 19.6351C38.4109 19.4056 38.1432 19.2284 37.8437 19.107C37.5552 18.9905 37.2516 18.9315 36.9397 18.9315ZM21.7924 27.1427C21.6976 27.1427 21.6027 27.1102 21.5246 27.0453L15.6479 22.0985C15.4724 21.9505 15.45 21.6885 15.5972 21.5122C15.7452 21.3367 16.0072 21.3143 16.1835 21.4615L22.0602 26.4083C22.2356 26.5563 22.2581 26.8183 22.1109 26.9946C22.0286 27.0919 21.9105 27.1427 21.7924 27.1427ZM25.4359 22.8861C25.302 22.8861 25.1706 22.8221 25.0908 22.7023L21.1686 16.8806C21.0405 16.6901 21.0904 16.4315 21.2809 16.3034C21.4713 16.1753 21.73 16.2252 21.8581 16.4157L25.7803 22.2374C25.9083 22.4279 25.8584 22.6865 25.668 22.8146C25.5965 22.8628 25.5158 22.8861 25.4359 22.8861Z" fill="#323232"/>
<path d="M30.4127 21.4851C30.1832 21.4851 29.9969 21.2988 29.9969 21.0693V14.4158C29.9969 14.1863 30.1832 14 30.4127 14C30.6423 14 30.8286 14.1863 30.8286 14.4158V21.0693C30.8286 21.2988 30.6423 21.4851 30.4127 21.4851ZM47.9362 41.7597C47.8746 41.7597 47.8114 41.7456 47.7524 41.7165L41.5148 38.6385C41.3085 38.537 41.2245 38.2875 41.326 38.0812C41.4275 37.875 41.677 37.791 41.8832 37.8924L48.1208 40.9705C48.3271 41.0719 48.4111 41.3214 48.3096 41.5277C48.2364 41.6749 48.0892 41.7597 47.9362 41.7597ZM44.1105 46.8504C43.9982 46.8504 43.8867 46.8055 43.8044 46.7165L38.8143 41.2948C38.6588 41.126 38.6696 40.8632 38.8385 40.7068C39.0073 40.5513 39.2701 40.5621 39.4264 40.731L44.4165 46.1527C44.572 46.3215 44.5612 46.5843 44.3924 46.7407C44.3126 46.8138 44.2111 46.8504 44.1105 46.8504ZM37.8471 50C37.6658 50 37.4986 49.8802 37.4471 49.6964L35.6939 43.4589C35.6315 43.2376 35.7604 43.0081 35.9816 42.9457C36.2029 42.8833 36.4324 43.0122 36.4948 43.2335L38.248 49.4711C38.3103 49.6923 38.1814 49.9218 37.9602 49.9842C37.9219 49.995 37.8845 50 37.8471 50Z" fill="#323232"/>
<defs>
<radialGradient id="paint0_radial_17869_167843" cx="0" cy="0" r="1" gradientUnits="userSpaceOnUse" gradientTransform="translate(32 32) rotate(90) scale(32)">
<stop stop-opacity="0"/>
<stop offset="1" stop-color="white"/>
</radialGradient>
<linearGradient id="paint1_linear_17869_167843" x1="32" y1="0" x2="32" y2="64" gradientUnits="userSpaceOnUse">
<stop stop-color="#4B4C4D"/>
<stop offset="1" stop-opacity="0"/>
</linearGradient>
</defs>
</svg>
