<svg width="64" height="64" viewBox="0 0 64 64" fill="none" xmlns="http://www.w3.org/2000/svg">
<circle cx="32" cy="32" r="31.75" fill="url(#paint0_radial_17869_167845)" fill-opacity="0.05" stroke="url(#paint1_linear_17869_167845)" stroke-width="0.5"/>
<path d="M39.6039 19.3008C42.5545 20.5051 45.0605 22.6144 46.7717 25.334C48.4829 28.0537 49.3137 31.2477 49.1481 34.4697C48.9826 37.6917 47.8288 40.7807 45.8481 43.3051C43.8675 45.8295 41.1589 47.663 38.1008 48.5495C35.0428 49.4361 31.7881 49.3312 28.7916 48.2497C25.7952 47.1682 23.2067 45.164 21.3879 42.5173C19.569 39.8705 18.6108 36.7135 18.647 33.4873C18.6833 30.2611 19.7122 27.127 21.59 24.523" fill="#BF9B82"/>
<path d="M33.9097 49.9883C30.938 49.9892 28.0242 49.1552 25.4912 47.5788C22.9582 46.0023 20.9051 43.745 19.5596 41.0572C18.214 38.3693 17.6286 35.356 17.8681 32.3512C18.1077 29.3464 19.1629 26.4676 20.9168 24.0341L22.2447 25.021C20.4686 27.485 19.4957 30.4504 19.4618 33.5027C19.4279 36.555 20.3348 39.5418 22.0557 42.0458C23.7766 44.5498 26.2256 46.4459 29.0605 47.4692C31.8954 48.4925 34.9747 48.5919 37.868 47.7534C40.7613 46.915 43.3241 45.1806 45.1985 42.7927C47.0728 40.4047 48.165 37.4824 48.3225 34.4341C48.4799 31.3858 47.6947 28.3637 46.0767 25.7901C44.4586 23.2166 42.0884 21.22 39.2973 20.0794L39.9105 18.5312C43.3775 19.9442 46.2514 22.5373 48.0392 25.8654C49.827 29.1936 50.417 33.0492 49.708 36.7705C48.9991 40.4919 47.0353 43.8468 44.1538 46.2595C41.2724 48.6723 37.6529 49.9923 33.9166 49.993L33.9097 49.9883Z" fill="#424242"/>
<path d="M31.2977 24.5006C36.366 22.9991 40.1998 20.827 39.8607 19.6492C39.5216 18.4714 35.1381 18.7338 30.0698 20.2353C25.0015 21.7369 21.1678 23.9089 21.5068 25.0867C21.8459 26.2645 26.2294 26.0021 31.2977 24.5006Z" fill="#F4E9E6"/>
<path d="M23.8464 26.6582C22.0021 26.6582 20.9763 26.2185 20.7181 25.3205C20.423 24.2961 21.2875 23.2274 23.36 22.0464C25.0291 21.1109 27.3298 20.1754 29.8403 19.4271C30.8593 19.1441 39.8202 16.5716 40.6501 19.4131C41.4708 22.2662 32.5491 24.9907 31.5209 25.3017C29.0196 26.0454 26.5875 26.5178 24.6787 26.6278C24.3743 26.6488 24.1069 26.6582 23.8464 26.6582ZM22.3987 24.8223C22.7237 24.9369 23.5191 25.0562 25.059 24.9299C27.0929 24.7114 29.102 24.2996 31.0599 23.6998C33.0308 23.1351 34.945 22.3834 36.7771 21.4547C38.1603 20.7297 38.7482 20.1871 38.9603 19.9112C38.6352 19.7966 37.8422 19.6773 36.3022 19.8059C34.2652 20.0236 32.253 20.4355 30.2922 21.0361C28.3206 21.6012 26.4057 22.3529 24.5726 23.2812C23.2217 24.0061 22.6131 24.5487 22.3987 24.8223Z" fill="#424242"/>
<path d="M25.094 24.5789L22.6988 17.5372C22.6695 17.4489 22.6232 17.3674 22.5625 17.2974C22.5018 17.2274 22.428 17.1704 22.3454 17.1297C22.2628 17.089 22.173 17.0654 22.0813 17.0603C21.9896 17.0552 21.8977 17.0686 21.8112 17.0999L15.6859 19.2421L15.0519 17.3712L22.0233 14.9343C22.4917 14.77 23.0051 14.8009 23.4511 15.0201C23.8971 15.2393 24.2392 15.6289 24.4024 16.1036L27.155 24.2093" fill="#FFE266"/>
<path d="M25.0936 25.4138C24.9221 25.4136 24.7549 25.3593 24.6152 25.2583C24.4756 25.1572 24.3704 25.0146 24.3144 24.8502L21.9629 17.9301L15.9552 20.0349C15.853 20.0707 15.7449 20.0857 15.637 20.0791C15.5291 20.0725 15.4235 20.0444 15.3263 19.9964C15.2291 19.9484 15.1422 19.8815 15.0705 19.7994C14.9988 19.7173 14.9438 19.6217 14.9085 19.5181L14.2746 17.6472C14.2393 17.5437 14.2246 17.4342 14.2311 17.3249C14.2376 17.2156 14.2654 17.1087 14.3127 17.0103C14.36 16.9118 14.426 16.8239 14.5069 16.7514C14.5878 16.6789 14.682 16.6233 14.7841 16.5878L21.7531 14.1486C22.4288 13.913 23.1689 13.959 23.8112 14.2764C24.4534 14.5939 24.9453 15.1568 25.1789 15.8417L27.9314 23.9358C27.973 24.0407 27.9931 24.1531 27.9906 24.2662C27.988 24.3793 27.9628 24.4906 27.9165 24.5935C27.8703 24.6964 27.8039 24.7887 27.7214 24.8648C27.6389 24.9408 27.542 24.9991 27.4367 25.0361C27.3313 25.073 27.2196 25.0879 27.1084 25.0797C26.9972 25.0716 26.8888 25.0406 26.7898 24.9886C26.6908 24.9367 26.6032 24.8649 26.5323 24.7776C26.4615 24.6903 26.4088 24.5893 26.3776 24.4807L23.6251 16.3843C23.5334 16.1201 23.3431 15.9029 23.0952 15.7796C22.8473 15.6563 22.5616 15.6366 22.2995 15.7248L16.0981 17.8927L16.1949 18.1827L21.5433 16.3118C21.7306 16.2461 21.9288 16.2185 22.1266 16.2305C22.3243 16.2425 22.5178 16.294 22.696 16.382C22.878 16.4705 23.0409 16.5948 23.175 16.7478C23.3092 16.9008 23.412 17.0793 23.4775 17.273L25.8705 24.3123C25.9058 24.4159 25.9206 24.5256 25.9141 24.6351C25.9075 24.7445 25.8798 24.8516 25.8325 24.9502C25.7852 25.0488 25.7192 25.137 25.6383 25.2097C25.5574 25.2824 25.4632 25.3383 25.361 25.374C25.2745 25.4017 25.1842 25.4151 25.0936 25.4138Z" fill="#424242"/>
<path d="M22.3316 30.2358C18.9243 32.3008 14.8231 31.6951 14.8231 31.6951C14.8231 31.6951 16.2408 27.7428 19.6481 25.6918C23.0555 23.6408 27.1567 24.2325 27.1567 24.2325C27.1567 24.2325 25.7366 28.1708 22.3316 30.2358Z" fill="#9EDD9F"/>
<path d="M16.2712 32.614C15.7472 32.6181 15.2235 32.5869 14.7035 32.5205C14.5825 32.5031 14.4668 32.4584 14.365 32.3897C14.2632 32.3209 14.1779 32.23 14.1153 32.1234C14.0527 32.0169 14.0145 31.8974 14.0034 31.7739C13.9923 31.6504 14.0086 31.5259 14.0511 31.4096C14.1111 31.2366 15.6142 27.1533 19.2266 24.962C22.8391 22.7707 27.0971 23.367 27.2746 23.3928C27.3956 23.411 27.511 23.4563 27.6126 23.5253C27.7142 23.5943 27.7994 23.6854 27.8621 23.7919C27.9247 23.8985 27.9633 24.0178 27.9749 24.1413C27.9865 24.2648 27.971 24.3893 27.9293 24.506C27.8671 24.679 26.3686 28.7599 22.7538 30.9513C20.4554 32.3521 17.8734 32.614 16.2712 32.614ZM16.0752 30.9396C17.4584 30.9583 19.8468 30.7759 21.9193 29.52C23.9918 28.2642 25.2805 26.2085 25.9144 24.976C24.5312 24.9597 22.1429 25.1397 20.0704 26.3956C17.9979 27.6514 16.7 29.7048 16.0752 30.9396Z" fill="#424242"/>
<path d="M21.1258 25.9746C17.8983 25.867 15.3624 23.7319 15.3624 23.7319C15.3624 23.7319 18.0458 21.7744 21.2641 21.8843C24.4823 21.9943 27.0274 24.1248 27.0274 24.1248C27.0274 24.1248 24.344 26.0822 21.1258 25.9746Z" fill="#9EDD9F"/>
<path d="M21.3773 26.8122C21.2827 26.8122 21.1882 26.8122 21.0914 26.8122C17.6334 26.6976 14.9523 24.4735 14.8393 24.38C14.7435 24.2972 14.6678 24.1932 14.6178 24.076C14.5678 23.9589 14.545 23.8316 14.5511 23.7041C14.5549 23.5768 14.5876 23.452 14.6468 23.3396C14.706 23.2272 14.79 23.1303 14.8923 23.0563C15.0099 22.9698 17.8432 20.9328 21.3012 21.0498C24.7592 21.1667 27.4403 23.3884 27.551 23.482C27.6476 23.5636 27.7246 23.6665 27.776 23.7829C27.8274 23.8993 27.852 24.026 27.8477 24.1535C27.8435 24.281 27.8106 24.4058 27.7516 24.5184C27.6926 24.631 27.609 24.7284 27.5072 24.8033C27.3919 24.8875 24.7131 26.8122 21.3773 26.8122ZM16.9164 23.786C17.8731 24.3566 19.4154 25.0816 21.1467 25.14C22.885 25.1985 24.4803 24.5788 25.4762 24.0713C24.5264 23.5007 22.991 22.7757 21.2459 22.7172C19.5007 22.6588 17.9192 23.2808 16.9164 23.786Z" fill="#424242"/>
<path d="M39.6039 19.3008C42.5545 20.5051 45.0605 22.6144 46.7717 25.334C48.4829 28.0537 49.3137 31.2477 49.1481 34.4697C48.9826 37.6917 47.8288 40.7807 45.8481 43.3051C43.8675 45.8295 41.1589 47.663 38.1008 48.5495C35.0428 49.4361 31.7881 49.3312 28.7916 48.2497C25.7952 47.1682 23.2067 45.164 21.3879 42.5173C19.569 39.8705 18.6108 36.7135 18.647 33.4873C18.6833 30.2611 19.7122 27.127 21.59 24.523" fill="#BF9B82"/>
<path d="M33.9097 49.5225C31.0232 49.5221 28.1932 48.7109 25.7334 47.1788C23.2736 45.6467 21.28 43.4535 19.9737 40.8424C18.6674 38.2312 18.0993 35.3042 18.3325 32.3856C18.5657 29.467 19.591 26.6709 21.2948 24.3073L21.885 24.7563C20.0528 27.2987 19.0494 30.3583 19.015 33.5075C18.9805 36.6567 19.9168 39.7381 21.693 42.3211C23.4692 44.9041 25.9965 46.8597 28.9217 47.9145C31.8469 48.9693 35.0239 49.0707 38.0087 48.2044C40.9935 47.3382 43.6369 45.5476 45.5696 43.0829C47.5023 40.6182 48.6276 37.6026 48.7884 34.4575C48.9491 31.3123 48.1372 28.1948 46.4661 25.5406C44.7951 22.8864 42.3483 20.8281 39.4679 19.6534L39.7399 18.9658C43.1011 20.3439 45.8856 22.8645 47.6166 26.096C49.3476 29.3275 49.9174 33.0689 49.2284 36.6796C48.5395 40.2904 46.6347 43.5459 43.8401 45.8888C41.0456 48.2317 37.5351 49.5162 33.9097 49.5225Z" fill="#424242"/>
<path d="M27.9833 39.0242C30.4011 39.0242 32.3611 36.6997 32.3611 33.8324C32.3611 30.9651 30.4011 28.6406 27.9833 28.6406C25.5655 28.6406 23.6054 30.9651 23.6054 33.8324C23.6054 36.6997 25.5655 39.0242 27.9833 39.0242Z" fill="white"/>
<path d="M27.9831 39.3942C25.3665 39.3942 23.2386 36.8989 23.2386 33.833C23.2386 30.767 25.3665 28.2646 27.9831 28.2646C30.5996 28.2646 32.7251 30.7647 32.7251 33.833C32.7251 36.9012 30.5996 39.3942 27.9831 39.3942ZM27.9831 29.013C25.7699 29.013 23.9694 31.1739 23.9694 33.833C23.9694 36.492 25.7699 38.6529 27.9831 38.6529C30.1962 38.6529 31.9944 36.4896 31.9944 33.833C31.9944 31.1763 30.1939 29.013 27.9831 29.013Z" fill="#424242" stroke="#424242" stroke-width="0.233864" stroke-miterlimit="10"/>
<path d="M32.3611 32.9443H23.6054V33.6857H32.3611V32.9443Z" fill="#424242" stroke="#424242" stroke-width="0.233864" stroke-miterlimit="10"/>
<path d="M40.0211 39.0242C42.4389 39.0242 44.399 36.6997 44.399 33.8324C44.399 30.9651 42.4389 28.6406 40.0211 28.6406C37.6033 28.6406 35.6432 30.9651 35.6432 33.8324C35.6432 36.6997 37.6033 39.0242 40.0211 39.0242Z" fill="white"/>
<path d="M40.0209 39.3942C37.4043 39.3942 35.2765 36.8989 35.2765 33.833C35.2765 30.767 37.4043 28.2646 40.0209 28.2646C42.6374 28.2646 44.7653 30.76 44.7653 33.8283C44.7653 36.8966 42.6374 39.3942 40.0209 39.3942ZM40.0209 29.013C37.8077 29.013 36.0096 31.1739 36.0096 33.833C36.0096 36.492 37.8077 38.6529 40.0209 38.6529C42.234 38.6529 44.0322 36.4896 44.0322 33.833C44.0322 31.1763 42.234 29.013 40.0209 29.013Z" fill="#424242" stroke="#424242" stroke-width="0.233864" stroke-miterlimit="10"/>
<path d="M44.399 32.9443H35.6432V33.6857H44.399V32.9443Z" fill="#424242" stroke="#424242" stroke-width="0.233864" stroke-miterlimit="10"/>
<path d="M41.8405 38.9314C39.7495 38.9314 38.0482 36.7003 38.0482 33.9594C38.0482 33.8308 38.0482 33.7045 38.0482 33.5759C38.0525 33.5021 38.0855 33.433 38.14 33.3839C38.1944 33.3348 38.2659 33.3096 38.3387 33.314C38.4114 33.3183 38.4795 33.3518 38.5279 33.407C38.5764 33.4623 38.6012 33.5348 38.5969 33.6086C38.5969 33.7256 38.5969 33.8425 38.5969 33.9594C38.5969 36.3939 40.0539 38.3748 41.8428 38.3748C41.9156 38.3748 41.9853 38.4041 42.0368 38.4563C42.0882 38.5085 42.1171 38.5793 42.1171 38.6531C42.1171 38.7269 42.0882 38.7977 42.0368 38.8499C41.9853 38.9021 41.9156 38.9314 41.8428 38.9314H41.8405Z" fill="#424242"/>
<path d="M38.6259 33.4095C38.4255 33.8497 38.3927 34.3495 38.5337 34.8127C38.7434 35.6874 39.4558 38.2529 41.3669 38.6528C43.2781 39.0527 44.6866 35.4535 44.6359 33.7907C44.6359 33.7907 44.7327 33.1149 44.1472 33.323C43.5616 33.5311 38.6259 33.4095 38.6259 33.4095Z" fill="#424242"/>
<path d="M29.7435 38.9309C27.6525 38.9309 25.9512 36.6999 25.9512 33.959C25.9512 33.8303 25.9512 33.7017 25.9512 33.5754C25.9601 33.5056 25.9949 33.4418 26.0483 33.3969C26.1018 33.352 26.1701 33.3293 26.2394 33.3335C26.3087 33.3376 26.3739 33.3683 26.4218 33.4193C26.4697 33.4703 26.4968 33.5378 26.4976 33.6082C26.4976 33.7251 26.4976 33.842 26.4976 33.959C26.4976 36.3935 27.9522 38.3743 29.7412 38.3743C29.8139 38.3743 29.8837 38.4036 29.9352 38.4558C29.9866 38.508 30.0155 38.5788 30.0155 38.6526C30.0155 38.7264 29.9866 38.7972 29.9352 38.8494C29.8837 38.9016 29.8139 38.9309 29.7412 38.9309H29.7435Z" fill="#424242"/>
<path d="M26.5304 33.4097C26.3332 33.8512 26.3045 34.3512 26.4498 34.8129C26.6595 35.6876 27.3719 38.253 29.283 38.6529C31.1942 39.0529 32.5912 35.4467 32.5428 33.7839C32.5428 33.7839 32.6373 33.108 32.054 33.3162C31.4708 33.5243 26.5304 33.4097 26.5304 33.4097Z" fill="#424242"/>
<path d="M33.9214 44.0765C33.873 44.0765 33.825 44.0668 33.7803 44.0479C33.7356 44.0291 33.695 44.0014 33.6609 43.9665L31.125 41.3332C31.0907 41.2991 31.0635 41.2583 31.0449 41.2133C31.0263 41.1683 31.0167 41.1201 31.0167 41.0713C31.0167 41.0225 31.0263 40.9743 31.0449 40.9293C31.0635 40.8843 31.0907 40.8435 31.125 40.8094C31.1937 40.7403 31.2865 40.7015 31.3832 40.7015C31.4799 40.7015 31.5727 40.7403 31.6414 40.8094L33.9283 43.1737L36.312 40.7556C36.3811 40.6867 36.4743 40.6486 36.5712 40.6494C36.668 40.6503 36.7606 40.6902 36.8284 40.7603C36.8963 40.8304 36.9339 40.9249 36.9331 41.0232C36.9322 41.1214 36.8929 41.2153 36.8238 41.2841L34.1796 43.9689C34.1457 44.0033 34.1054 44.0305 34.0611 44.0489C34.0168 44.0674 33.9693 44.0768 33.9214 44.0765Z" fill="#424242" stroke="#424242" stroke-width="0.311819" stroke-miterlimit="10"/>
<path d="M31.2977 24.5006C36.366 22.9991 40.1998 20.827 39.8607 19.6492C39.5216 18.4714 35.1381 18.7338 30.0698 20.2353C25.0015 21.7369 21.1678 23.9089 21.5068 25.0867C21.8459 26.2645 26.2294 26.0021 31.2977 24.5006Z" fill="#F2DFDA"/>
<path d="M23.8355 26.1949C22.2494 26.1949 21.3503 25.8581 21.1567 25.1916C20.9261 24.4152 21.7515 23.4961 23.5842 22.4578C25.2233 21.5223 27.5033 20.6126 29.9677 19.8853C33.7992 18.751 39.6871 17.7244 40.2127 19.5508C40.7429 21.3703 35.2308 23.7206 31.4016 24.8572C28.9257 25.5892 26.5281 26.0569 24.6516 26.1598C24.3611 26.1856 24.0891 26.1949 23.8355 26.1949ZM37.5316 19.2819C35.9455 19.2819 33.4465 19.621 30.1729 20.5915C27.7477 21.3095 25.5345 22.2029 23.9485 23.1056C22.1664 24.1159 21.8091 24.7754 21.8736 24.9765C21.9382 25.1776 22.5837 25.5424 24.6216 25.4208C26.4451 25.3109 28.7851 24.8549 31.2103 24.1369C36.9921 22.418 39.6894 20.3717 39.5119 19.752C39.4335 19.483 38.7534 19.2819 37.5316 19.2819Z" fill="#424242" stroke="#424242" stroke-width="0.233864" stroke-miterlimit="10"/>
<path d="M30.9724 23.2511C34.7501 22.1319 37.6976 20.8256 37.5559 20.3334C37.4142 19.8412 34.2369 20.3495 30.4592 21.4687C26.6816 22.5878 23.734 23.8941 23.8757 24.3863C24.0174 24.8785 27.1947 24.3703 30.9724 23.2511Z" fill="white"/>
<path d="M24.5493 24.5622C25.6364 24.4916 26.716 24.3297 27.7767 24.0781L28.0626 24.7002L24.4386 25.2241L24.5493 24.5622Z" fill="#F4E9E6"/>
<path d="M25.094 24.5789L22.6988 17.5372C22.6695 17.4489 22.6232 17.3674 22.5625 17.2974C22.5018 17.2274 22.428 17.1704 22.3454 17.1297C22.2628 17.089 22.173 17.0654 22.0813 17.0603C21.9896 17.0552 21.8977 17.0686 21.8112 17.0999L15.6859 19.2421L15.0519 17.3712L22.0233 14.9343C22.4917 14.77 23.0051 14.8009 23.4511 15.0201C23.8971 15.2393 24.2392 15.6289 24.4024 16.1036L27.155 24.2093" fill="#FFE266"/>
<path d="M25.0932 24.9482C25.017 24.9484 24.9427 24.9244 24.8807 24.8795C24.8186 24.8346 24.772 24.7711 24.7474 24.698L22.3522 17.6586C22.3383 17.6165 22.3163 17.5776 22.2874 17.5443C22.2585 17.511 22.2233 17.4838 22.1839 17.4645C22.1045 17.426 22.0133 17.4209 21.9303 17.4505L15.805 19.5927C15.7596 19.6081 15.7116 19.6143 15.6639 19.6108C15.6161 19.6074 15.5695 19.5945 15.5267 19.5727C15.4838 19.551 15.4457 19.5209 15.4143 19.4842C15.383 19.4475 15.359 19.4049 15.3439 19.3588L14.7053 17.5066C14.6737 17.4139 14.6795 17.3121 14.7215 17.2237C14.7601 17.1333 14.8321 17.062 14.922 17.0249L21.9026 14.5857C22.4634 14.3908 23.0773 14.4291 23.6104 14.692C24.1434 14.9549 24.5522 15.4211 24.7474 15.9889L27.5 24.0876C27.5194 24.1773 27.5054 24.2711 27.4607 24.3509C27.416 24.4308 27.3438 24.491 27.2579 24.5201C27.172 24.5491 27.0786 24.5449 26.9956 24.5082C26.9126 24.4715 26.8459 24.405 26.8084 24.3214L24.0558 16.2344C23.9254 15.8512 23.6504 15.5362 23.2912 15.3586C22.932 15.181 22.518 15.1554 22.1401 15.2873L15.5168 17.6049L15.911 18.7742L21.6929 16.7513C21.8248 16.7048 21.9645 16.6853 22.104 16.6939C22.2434 16.7024 22.3798 16.7388 22.5053 16.8009C22.6309 16.8631 22.743 16.9498 22.8354 17.056C22.9279 17.1623 22.9987 17.286 23.0438 17.4201L25.439 24.4594C25.4684 24.5525 25.4608 24.6535 25.4177 24.7409C25.3746 24.8283 25.2995 24.8952 25.2085 24.9271C25.1715 24.9407 25.1326 24.9478 25.0932 24.9482Z" fill="#424242"/>
<path d="M22.5298 17.1885C22.5019 17.1882 22.4744 17.1818 22.4491 17.1698C22.4273 17.1591 22.4078 17.1441 22.3918 17.1256C22.3757 17.1072 22.3635 17.0857 22.3558 17.0624C22.348 17.0391 22.345 17.0144 22.3468 16.9899C22.3485 16.9654 22.3551 16.9415 22.3661 16.9196L23.3067 14.9949C23.3281 14.9508 23.3659 14.9172 23.4117 14.9014C23.4575 14.8856 23.5077 14.889 23.5511 14.9107C23.5945 14.9324 23.6276 14.9707 23.6432 15.0172C23.6587 15.0637 23.6555 15.1145 23.6341 15.1586L22.6935 17.0856C22.6784 17.1166 22.6551 17.1426 22.6262 17.1608C22.5972 17.179 22.5638 17.1886 22.5298 17.1885Z" fill="#424242"/>
<path d="M22.1037 17.0627C22.0627 17.0623 22.023 17.0481 21.9909 17.0223C21.9587 16.9964 21.936 16.9605 21.9262 16.92L21.5366 15.2456C21.5294 15.2211 21.5273 15.1955 21.5303 15.1701C21.5334 15.1448 21.5415 15.1204 21.5543 15.0985C21.5672 15.0765 21.5843 15.0575 21.6047 15.0426C21.6251 15.0277 21.6483 15.0173 21.6729 15.0119C21.6975 15.0066 21.7229 15.0064 21.7475 15.0116C21.7722 15.0167 21.7955 15.0269 21.816 15.0416C21.8366 15.0563 21.8539 15.0751 21.8669 15.097C21.8799 15.1188 21.8884 15.1431 21.8916 15.1684L22.2812 16.8405C22.2885 16.8649 22.2907 16.8906 22.2877 16.916C22.2846 16.9413 22.2765 16.9657 22.2637 16.9877C22.2509 17.0096 22.2338 17.0287 22.2134 17.0436C22.193 17.0585 22.1698 17.069 22.1452 17.0744L22.1037 17.0627Z" fill="#424242"/>
<path d="M22.7951 17.5844C22.7536 17.5852 22.7132 17.5715 22.6804 17.5458C22.6476 17.52 22.6245 17.4837 22.6148 17.4428C22.6051 17.4019 22.6095 17.3589 22.6272 17.3209C22.6449 17.2828 22.6748 17.2521 22.7121 17.2336L24.3443 16.3894C24.3874 16.3671 24.4375 16.363 24.4835 16.3782C24.5296 16.3933 24.5678 16.4263 24.5898 16.4701C24.6118 16.5138 24.6158 16.5646 24.6009 16.6113C24.586 16.658 24.5534 16.6968 24.5103 16.7191L22.8781 17.5634C22.8525 17.5772 22.824 17.5844 22.7951 17.5844Z" fill="#424242"/>
<path d="M22.3316 30.2358C18.9243 32.3008 14.8231 31.6951 14.8231 31.6951C14.8231 31.6951 16.2408 27.7428 19.6481 25.6918C23.0555 23.6408 27.1567 24.2325 27.1567 24.2325C27.1567 24.2325 25.7366 28.1708 22.3316 30.2358Z" fill="#97FAD6"/>
<path d="M16.2833 32.1516C15.7778 32.1559 15.2726 32.1262 14.771 32.0628C14.7172 32.0547 14.6659 32.0346 14.6209 32.0038C14.5758 31.9731 14.5381 31.9325 14.5105 31.885C14.482 31.8382 14.4646 31.7854 14.4594 31.7307C14.4542 31.676 14.4614 31.6208 14.4805 31.5693C14.5404 31.4033 15.9836 27.4697 19.4623 25.3602C22.9411 23.2508 27.0377 23.8214 27.2106 23.8541C27.2644 23.8613 27.3158 23.8808 27.3609 23.9112C27.4061 23.9416 27.4438 23.9821 27.4711 24.0295C27.4991 24.077 27.5163 24.1301 27.5215 24.1851C27.5267 24.2401 27.5197 24.2956 27.5011 24.3476C27.4411 24.523 25.9888 28.4472 22.5308 30.5543C20.2992 31.8991 17.8255 32.1516 16.2833 32.1516ZM15.3611 31.3752C16.5138 31.4547 19.5684 31.4851 22.155 29.9182C24.7416 28.3513 26.1617 25.6128 26.6389 24.5394C25.4862 24.4575 22.4316 24.4271 19.845 25.9963C17.2584 27.5656 15.8291 30.3041 15.3519 31.3752H15.3611Z" fill="#424242"/>
<path d="M27.1251 24.4663L17.4426 30.3129C17.4352 30.3175 17.427 30.3205 17.4185 30.3218C17.4099 30.3231 17.4012 30.3227 17.3928 30.3205C17.3844 30.3183 17.3765 30.3145 17.3696 30.3091C17.3627 30.3038 17.357 30.2971 17.3527 30.2895C17.3441 30.2748 17.3414 30.2574 17.3453 30.2408C17.3492 30.2242 17.3593 30.2098 17.3735 30.2006L26.8254 23.9658C26.889 23.9393 26.9598 23.9362 27.0254 23.957C27.0911 23.9778 27.1475 24.0212 27.185 24.0797C27.2224 24.1382 27.2386 24.2082 27.2306 24.2775C27.2226 24.3468 27.191 24.4111 27.1412 24.4593L27.1251 24.4663Z" fill="#424242"/>
<path d="M21.1258 25.9746C17.8983 25.867 15.3624 23.7319 15.3624 23.7319C15.3624 23.7319 18.0458 21.7744 21.2641 21.8843C24.4823 21.9943 27.0274 24.1248 27.0274 24.1248C27.0274 24.1248 24.344 26.0822 21.1258 25.9746Z" fill="#97FAD6"/>
<path d="M21.378 26.3496C21.2881 26.3496 21.1959 26.3496 21.1037 26.3496C17.8093 26.235 15.2458 24.1092 15.1397 24.018C15.0969 23.9821 15.0627 23.9369 15.0396 23.8856C15.0165 23.8344 15.0052 23.7785 15.0066 23.7222C15.0079 23.6659 15.0218 23.6106 15.0473 23.5606C15.0728 23.5105 15.1091 23.467 15.1536 23.4333C15.2688 23.3491 17.973 21.4034 21.2812 21.5133C24.5894 21.6232 27.1483 23.749 27.2566 23.8402C27.2999 23.8764 27.3343 23.9223 27.3571 23.9742C27.3799 24.0261 27.3905 24.0828 27.388 24.1396C27.3859 24.1961 27.3711 24.2514 27.3448 24.3012C27.3184 24.3511 27.2812 24.3942 27.2359 24.4272C27.1414 24.5067 24.5663 26.3496 21.378 26.3496ZM16.0181 23.756C16.8434 24.3337 18.8214 25.5264 21.1383 25.6036C23.4528 25.6924 25.5276 24.6237 26.3829 24.1045C25.5553 23.5268 23.5796 22.3318 21.2627 22.2546C18.9459 22.1774 16.8826 23.2369 16.0181 23.756Z" fill="#424242"/>
<path d="M26.8969 24.3376L17.7538 23.9541C17.7365 23.9529 17.7203 23.9449 17.7087 23.9318C17.6971 23.9187 17.691 23.9015 17.6916 23.8839C17.6922 23.8669 17.6993 23.8509 17.7113 23.8391C17.7233 23.8273 17.7394 23.8208 17.7562 23.8208L26.9107 23.7412C26.9494 23.7406 26.9879 23.7478 27.024 23.7622C27.06 23.7767 27.0929 23.7982 27.1207 23.8256C27.1485 23.853 27.1708 23.8856 27.1862 23.9217C27.2015 23.9578 27.2098 23.9966 27.2104 24.0359C27.2104 24.1165 27.1788 24.1939 27.1226 24.2509C27.0664 24.3079 26.9902 24.3399 26.9107 24.3399L26.8969 24.3376Z" fill="#424242"/>
<defs>
<radialGradient id="paint0_radial_17869_167845" cx="0" cy="0" r="1" gradientUnits="userSpaceOnUse" gradientTransform="translate(32 32) rotate(90) scale(32)">
<stop stop-opacity="0"/>
<stop offset="1" stop-color="white"/>
</radialGradient>
<linearGradient id="paint1_linear_17869_167845" x1="32" y1="0" x2="32" y2="64" gradientUnits="userSpaceOnUse">
<stop stop-color="#4B4C4D"/>
<stop offset="1" stop-opacity="0"/>
</linearGradient>
</defs>
</svg>
