<svg width="64" height="64" viewBox="0 0 64 64" fill="none" xmlns="http://www.w3.org/2000/svg">
<circle cx="32" cy="32" r="31.75" fill="url(#paint0_radial)" fill-opacity="0.05" stroke="url(#paint1_linear)" stroke-width="0.5"/>
<path d="M21.016 31.9285C21.016 29.4434 21.0289 26.9584 21.0031 24.4734C21.0031 23.7199 21.287 23.178 21.8548 22.7418C24.3064 20.8516 26.7322 18.9482 29.1709 17.0315C29.4806 16.7936 29.7902 16.5028 30.2031 16.7804C30.5902 17.0447 30.487 17.4413 30.4096 17.7982C29.958 19.9924 29.4806 22.1734 29.0161 24.3544C28.4999 26.7998 27.958 29.2452 27.4935 31.7038C27.3257 32.6422 27.7515 33.5543 27.9451 34.4796C28.7451 38.3657 29.5838 42.2519 30.3967 46.1248C30.4741 46.4949 30.6161 46.9312 30.1902 47.2087C29.7773 47.4863 29.4677 47.1955 29.158 46.9576C26.7064 45.0409 24.2548 43.1243 21.7902 41.2209C21.2612 40.8111 20.9902 40.2956 20.9902 39.5818C21.0289 37.0307 21.016 34.4796 21.016 31.9285Z" fill="#65C8A1"/>
<path d="M42.9902 31.9945C42.9902 34.0169 42.9902 36.0392 42.9902 38.0616C42.9902 38.9076 42.5515 39.1587 41.816 38.7358C38.1773 36.5944 34.5515 34.4531 30.9128 32.3249C30.5386 32.1002 30.3064 32.0209 30.8741 31.6904C34.1515 29.787 37.4031 27.8572 40.6677 25.9273C41.0806 25.6894 41.4677 25.425 41.8806 25.2003C42.5257 24.8434 42.9902 25.1078 42.9902 25.8612C42.9902 27.91 42.9902 29.9589 42.9902 31.9945Z" fill="#65C8A1"/>
<path d="M29.829 33.9903C30.7709 34.5323 31.5967 34.9949 32.4225 35.484C35.2483 37.1363 38.0612 38.8018 40.887 40.4673C41.9064 41.0621 41.9451 41.4058 41.0161 42.1196C38.6548 43.9701 36.2806 45.8207 33.9193 47.6712C33.1967 48.2396 32.758 48.0678 32.5644 47.1557C31.9709 44.4195 31.4032 41.6834 30.8096 38.934C30.4612 37.3478 30.1128 35.7484 29.829 33.9903Z" fill="#65C8A1"/>
<path d="M29.829 29.9326C30.087 28.6768 30.3193 27.5004 30.5644 26.324C31.2096 23.2177 31.8806 20.1246 32.5128 17.0184C32.7451 15.908 33.1451 15.7098 34.0225 16.3971C36.4096 18.2477 38.7967 20.1114 41.1709 21.9884C41.829 22.5039 41.8032 22.9666 41.0806 23.4028C37.429 25.5441 33.7773 27.6987 30.1257 29.8533C30.0741 29.8797 30.0096 29.8797 29.829 29.9326Z" fill="#65C8A1"/>
<defs>
<radialGradient id="paint0_radial" cx="0" cy="0" r="1" gradientUnits="userSpaceOnUse" gradientTransform="translate(32 32) rotate(90) scale(32)">
<stop stop-opacity="0"/>
<stop offset="1" stop-color="white"/>
</radialGradient>
<linearGradient id="paint1_linear" x1="32" y1="0" x2="32" y2="64" gradientUnits="userSpaceOnUse">
<stop stop-color="#4B4C4D"/>
<stop offset="1" stop-opacity="0"/>
</linearGradient>
</defs>
</svg>
