<svg xmlns="http://www.w3.org/2000/svg" width="40" height="40" viewBox="0 0 40 40">
  <defs>
    <style>
      .cls-1 {
        fill: #2c8389;
      }

      .cls-2 {
        fill: #e8e9e9;
      }
    </style>
  </defs>
  <g id="组_57148" data-name="组 57148" transform="translate(-181 -536)">
    <g id="组_57147" data-name="组 57147" transform="translate(181 536)">
      <g id="组_57143" data-name="组 57143" transform="translate(0 0)">
        <rect id="矩形_21457" data-name="矩形 21457" class="cls-1" width="40" height="40" rx="12" transform="translate(0 0)"/>
      </g>
    </g>
    <path id="路径_32876" data-name="路径 32876" class="cls-2" d="M11.5,0A11.5,11.5,0,1,1,0,11.5,11.5,11.5,0,0,1,11.5,0Zm3.813,12.458H7.687C7.9,17.35,9.7,21.083,11.5,21.083S15.1,17.35,15.313,12.458Zm-9.544,0h-3.8a9.592,9.592,0,0,0,5.769,7.856,17.32,17.32,0,0,1-1.965-7.856Zm15.267,0h-3.8a17.314,17.314,0,0,1-1.965,7.855,9.59,9.59,0,0,0,5.769-7.855ZM7.734,2.686l-.106.046a9.588,9.588,0,0,0-5.663,7.81h3.8A17.316,17.316,0,0,1,7.734,2.686ZM11.5,1.917l-.072,0c-1.771.1-3.531,3.8-3.741,8.623h7.625C15.1,5.65,13.3,1.917,11.5,1.917Zm3.767.769.07.122a17.5,17.5,0,0,1,1.894,7.734h3.8a9.591,9.591,0,0,0-5.769-7.856Z" transform="translate(190 545)"/>
  </g>
</svg>
