<svg xmlns="http://www.w3.org/2000/svg" width="18.917" height="18.917" viewBox="0 0 18.917 18.917">
  <defs>
    <style>
      .cls-1 {
        fill: #fece00;
      }
    </style>
  </defs>
  <g id="组_66054" data-name="组 66054" transform="translate(-65.289 -65.287)">
    <path id="路径_51704" data-name="路径 51704" class="cls-1" d="M243.2,239.08a5.918,5.918,0,1,1,5.918-5.918A5.925,5.925,0,0,1,243.2,239.08Zm0-10.718a4.8,4.8,0,1,0,4.8,4.8A4.805,4.805,0,0,0,243.2,228.362Z" transform="translate(-168.294 -158.471)"/>
    <path id="路径_51705" data-name="路径 51705" class="cls-1" d="M360.237,331.445a.287.287,0,0,1-.247-.434,3.329,3.329,0,0,1,2.85-1.623.287.287,0,0,1,0,.574,2.752,2.752,0,0,0-2.356,1.342A.287.287,0,0,1,360.237,331.445Z" transform="translate(-288.442 -258.52)"/>
    <path id="路径_51706" data-name="路径 51706" class="cls-1" d="M340.6,439a.287.287,0,0,1-.287-.287,2.433,2.433,0,0,1,.087-.651.287.287,0,0,1,.559.131,1.906,1.906,0,0,0-.072.52A.287.287,0,0,1,340.6,439Z" transform="translate(-269.207 -364.678)"/>
    <path id="路径_51707" data-name="路径 51707" class="cls-1" d="M504.174,828.236a.574.574,0,0,1-.574-.574v-1.722a.574.574,0,1,1,1.148,0v1.722A.574.574,0,0,1,504.174,828.236Z" transform="translate(-429.039 -744.032)"/>
    <path id="路径_51708" data-name="路径 51708" class="cls-1" d="M504.173,68.157a.574.574,0,0,1-.574-.574V65.861a.574.574,0,0,1,1.148,0v1.722A.574.574,0,0,1,504.173,68.157Z" transform="translate(-429.039)"/>
    <path id="路径_51709" data-name="路径 51709" class="cls-1" d="M195.564,725.612a.574.574,0,0,1-.406-.98l1.218-1.218a.574.574,0,0,1,.812.812l-1.218,1.218A.572.572,0,0,1,195.564,725.612Z" transform="translate(-126.908 -644.111)"/>
    <path id="路径_51710" data-name="路径 51710" class="cls-1" d="M733.01,188.173a.574.574,0,0,1-.406-.98l1.218-1.218a.574.574,0,1,1,.812.812L733.416,188A.572.572,0,0,1,733.01,188.173Z" transform="translate(-653.101 -117.926)"/>
    <path id="路径_51711" data-name="路径 51711" class="cls-1" d="M196.782,188.173a.572.572,0,0,1-.406-.168l-1.218-1.218a.574.574,0,0,1,.812-.812l1.218,1.218a.574.574,0,0,1-.406.98Z" transform="translate(-126.909 -117.926)"/>
    <path id="路径_51712" data-name="路径 51712" class="cls-1" d="M734.229,725.612a.572.572,0,0,1-.406-.168l-1.218-1.218a.574.574,0,0,1,.812-.812l1.218,1.218a.574.574,0,0,1-.406.98Z" transform="translate(-653.102 -644.11)"/>
    <path id="路径_51713" data-name="路径 51713" class="cls-1" d="M67.586,493.141H65.863a.574.574,0,0,1,0-1.148h1.722a.574.574,0,0,1,0,1.148Z" transform="translate(0 -417.681)"/>
    <path id="路径_51714" data-name="路径 51714" class="cls-1" d="M827.658,493.141h-1.722a.574.574,0,1,1,0-1.148h1.722a.574.574,0,1,1,0,1.148Z" transform="translate(-744.026 -417.681)"/>
  </g>
</svg>
