<svg width="64" height="64" viewBox="0 0 64 64" fill="none" xmlns="http://www.w3.org/2000/svg">
<circle cx="32" cy="32" r="31.75" fill="url(#paint0_radial)" fill-opacity="0.05" stroke="url(#paint1_linear)" stroke-width="0.5"/>
<path d="M43.4889 16.1835L40.3173 17.2843L41.4582 20.8447L32.0094 16L19.2083 22.9764V32.3861L24.3447 30.5819L24.3092 25.8945L32.0094 21.8407L39.3659 25.4009L35.692 26.7421L36.855 30.0271L46.9999 26.432L43.4889 16.1835Z" fill="#2A5BDB"/>
<path d="M20.5108 47.8209L23.6825 46.7157L22.5415 43.1553L31.9861 48L44.7871 41.0279V31.6182L39.6553 33.4179L39.6905 38.1053L31.9861 42.1636L24.6296 38.6034L28.3035 37.2579L27.1405 33.9772L17 37.5681L20.5108 47.8209Z" fill="#2A5BDB"/>
<defs>
<radialGradient id="paint0_radial" cx="0" cy="0" r="1" gradientUnits="userSpaceOnUse" gradientTransform="translate(32 32) rotate(90) scale(32)">
<stop stop-opacity="0"/>
<stop offset="1" stop-color="white"/>
</radialGradient>
<linearGradient id="paint1_linear" x1="32" y1="0" x2="32" y2="64" gradientUnits="userSpaceOnUse">
<stop stop-color="#4B4C4D"/>
<stop offset="1" stop-opacity="0"/>
</linearGradient>
</defs>
</svg>
