<svg xmlns="http://www.w3.org/2000/svg" width="19.573" height="10.125" viewBox="0 0 19.573 10.125">
  <defs>
    <style>
      .cls-1 {
        fill: #25bcab;
      }
    </style>
  </defs>
  <path id="路径_51724" data-name="路径 51724" class="cls-1" d="M21.231,142.152l-.457.166-.948.328-1.891.581-1.346.364-.97.243-.76.174-.632.152-1.053.2-1.067.2-.908.157-.955.1-.642.064-.723.033-.767.041H6.62l-.361-.022-.361-.02-.275-.033-.231-.032-.166-.035-.152-.04-.136-.056-.079-.052-.074-.061-.062-.053-.06-.065-.055-.067-.06-.085-.053-.095-.023-.069-.013-.054-.009-.051-.007-.061,0-.061v-.165l.011-.084.017-.084.037-.173.036-.135.041-.144.049-.144.066-.158.124-.255.1-.194.12-.179.068-.124.1-.155.149-.223.2-.307.229-.333.278-.329.222-.265.222-.256.2-.235.2-.218.211-.233.227-.23.278-.3.237-.245.22-.209.295-.292.308-.275.364-.306.391-.307.467-.312.2-.122-.772.473-.854.516-.771.49-.682.441-.573.414-.542.4-.772.629-.313.274-.315.3-.477.469-.429.472-.389.517-.3.456-.193.4-.141.4-.074.275-.028.319.012.339.049.3.092.232.111.23.11.191.163.21.2.216.174.149.239.17.257.14.116.065.244.1.4.133.391.115.411.1.48.081.5.045.483.037.433.016.546,0,.6-.021.663-.045.874-.062.674-.076.585-.072.648-.053.9-.115.7-.079.775-.126,1.868-.351,1.515-.331,1.383-.33.814-.2.908-.256.558-.163.606-.187.078-.021Z" transform="translate(-2.471 -136.963)"/>
</svg>
