<svg xmlns="http://www.w3.org/2000/svg" width="13.703" height="10.15" viewBox="0 0 13.703 10.15">
  <defs>
    <style>
      .cls-1 {
        fill: #25bcab;
      }
    </style>
  </defs>
  <path id="路径_32896" data-name="路径 32896" class="cls-1" d="M192.4,85.168l.816-.164,1.082-.193.777-.119.606-.078.5-.071.834-.07.843-.062.717-.041h1.232l.571.041.619.062.433.07.353.065.32.066.291.079.249.064.221.077.169.077.125.058.1.074.1.074.052.063.047.071.04.062.036.074.032.075.033.093.026.1.007.073,0,.056V85.9l0,.063-.006.063-.011.075-.014.092-.021.084-.025.083-.055.17-.048.132-.053.14-.059.139-.074.151-.133.242-.1.184-.118.166-.071.116-.1.144-.147.206-.2.285-.225.308-.261.3-.21.239-.208.23-.192.211-.183.195-.2.208-.208.2-.257.265-.218.217-.2.183-.269.257-.277.238-.323.262-.346.26-.4.254-.168.1.66-.378.729-.411.662-.4.587-.357.5-.344.473-.329.684-.536.281-.237.286-.265.435-.412.4-.422.376-.472.3-.422.208-.38.169-.391.1-.268.069-.319.042-.344.009-.313-.035-.247-.05-.247-.055-.208-.092-.233-.122-.244-.11-.174-.157-.2-.175-.175-.078-.08-.171-.136-.287-.186-.281-.167-.3-.151-.354-.144-.377-.11-.363-.1-.327-.072-.416-.074L201,82.346l-.535-.052-.655-.038-.509-.028-.446-.027h-1.781l-.61.027-1.478.112-1.206.138-1.1.154-1.166.18Z" transform="translate(-191.509 -82.201)"/>
</svg>
