<svg xmlns="http://www.w3.org/2000/svg" width="54.047" height="54.047" viewBox="0 0 54.047 54.047"><defs><style>.a{fill:#25bcab;}.b{fill:#fece00;}</style></defs><g transform="translate(-2.471 -0.001)"><path class="a" d="M193,87.152l1.362-.274,1.806-.323,1.3-.2,1.011-.13.842-.119,1.392-.117,1.408-.1,1.2-.069h2.055l.952.069,1.032.1.722.117.59.108.534.111.485.132.416.107.368.128.282.128.208.1.168.124.159.124.087.1.079.119.066.1.06.123.053.125.055.156.044.171.012.121,0,.093v.088l-.006.1-.01.1-.019.125-.023.153-.036.14-.042.139-.091.284-.079.22-.089.234-.1.232-.124.252-.222.4-.17.307-.2.276-.118.194-.165.24-.246.343-.332.476-.376.514-.436.493-.35.4-.348.384-.32.351-.306.325-.327.347-.348.339-.428.442-.364.362-.333.3-.449.428-.462.4-.54.437-.577.434-.674.424-.28.164,1.1-.631,1.217-.686,1.1-.66.979-.6.834-.574.789-.55,1.142-.894.469-.395.478-.443.725-.687.666-.7.627-.788.5-.7.346-.634.281-.652.164-.447.115-.532.071-.575.014-.522-.059-.412-.083-.412-.092-.347-.154-.389-.2-.407-.184-.29-.262-.338-.292-.292-.131-.134-.285-.227-.478-.311-.469-.279-.5-.252-.59-.241-.629-.184-.606-.166-.546-.121-.695-.124-.771-.095-.892-.087-1.093-.064-.849-.046-.745-.045H200.8l-1.019.045-2.467.187-2.012.231-1.844.257-1.946.3Z" transform="translate(-157.857 -68.697)"/><path class="a" d="M20.134,23.26v-8.1L39.079,4.794c1.282-.71,2.678-.423,4.195,0L61.585,9.766,43.21.533a4.271,4.271,0,0,0-4.131,0L16.573,12.749l.712,10.511h2.849Z" transform="translate(-11.785)"/><path class="a" d="M83.963,184.819V193.2L65.018,203.569c-1.282.71-2.738.371-4.131,0L42.512,198.6l18.375,9.375a4.271,4.271,0,0,0,4.131,0l22.505-12.358-.712-10.8H83.963Z" transform="translate(-33.463 -154.457)"/><path class="b" d="M87.52,103.368l9.64-24.547h6.825l9.4,24.547h-6.428l-2.1-6.332L99.1,97.1l1.313-4.437,2.965-.09L100.512,84.5,94,103.372Z" transform="translate(-71.015 -65.872)"/><path class="a" d="M33.776,145.622l-.763.277-1.582.547-3.155.97-2.246.607-1.619.4-1.268.291-1.054.253-1.757.341-1.78.33-1.516.263-1.593.175-1.071.107-1.206.055-1.28.069H9.4l-.6-.036-.6-.033-.458-.056-.386-.054-.277-.058-.253-.067-.226-.093-.132-.087-.124-.1-.1-.089-.1-.108-.091-.112-.1-.141-.089-.158L5.808,149l-.023-.09-.016-.085-.012-.1-.007-.1v-.275l.019-.141.028-.141.062-.288.059-.225.069-.24.081-.24.11-.263.207-.425.16-.324.2-.3.114-.206.165-.259.248-.372.333-.513.382-.556.464-.548.371-.441.371-.428.342-.391.329-.364.352-.389.379-.384.464-.5.4-.408.367-.349.492-.487.514-.459.607-.51.653-.513.779-.52.328-.2-1.287.789-1.425.861-1.286.817-1.138.735-.956.691-.9.659-1.289,1.05-.523.457-.526.506-.8.782-.716.788-.649.863-.5.761-.322.669-.235.675-.124.458-.046.533.02.565.082.507.154.388.185.384.183.319.272.35.339.36.291.249.4.283.429.234.193.108.407.172.671.222.653.193.685.162.8.136.84.075.806.061.722.027.912.005,1-.035,1.107-.076,1.459-.1,1.124-.127.976-.121,1.082-.089,1.506-.192,1.167-.131,1.294-.21,3.118-.585,2.529-.553,2.308-.55,1.359-.34,1.515-.426.931-.271L35,149.736l.13-.035Z" transform="translate(0 -114.462)"/></g></svg>