<svg xmlns="http://www.w3.org/2000/svg" width="45.683" height="45.683" viewBox="0 0 45.683 45.683"><defs><style>.a{fill:#25bcab;}.b{fill:#fece00;}</style></defs><g transform="translate(-2.471 -0.001)"><path class="a" d="M192.766,86.386l1.151-.232,1.526-.273,1.1-.168.855-.11.712-.1,1.177-.1,1.19-.087,1.011-.058h1.737l.8.058.873.087.61.1.5.091.451.094.41.112.352.09.311.108.239.108.176.081.142.1.134.1.074.089.066.1.056.087.051.1.044.105.047.132.037.145.01.1,0,.079v.075l-.005.089-.009.088-.016.106-.019.129-.03.118-.036.117-.077.24-.067.186-.075.2-.083.2-.1.213-.188.341-.144.259-.167.234-.1.164-.14.2-.208.29-.281.4-.317.434-.369.417-.3.336-.294.325-.27.3-.258.275-.276.293-.294.286-.362.374-.307.306-.281.258-.379.362-.39.335-.456.369-.488.367-.57.359-.237.139.931-.533,1.029-.58.934-.558.828-.5.705-.485.667-.465.965-.756.4-.334.4-.374.613-.581.563-.595.53-.666.421-.6.293-.536.238-.551.139-.378.1-.45.06-.486.012-.441-.05-.348-.07-.348-.077-.293-.13-.329-.173-.344-.155-.246-.221-.286-.247-.247-.11-.113-.241-.192-.4-.263-.4-.236-.421-.213-.5-.2-.532-.156-.512-.141-.462-.1-.587-.1-.651-.08-.754-.074-.924-.054-.717-.039-.629-.038H199.36l-.861.038-2.085.158-1.7.2-1.558.217-1.645.254Z" transform="translate(-162.683 -70.786)"/><path class="a" d="M19.583,19.661V12.817L35.6,4.052a4.549,4.549,0,0,1,3.546,0l15.477,4.2L39.088.451a3.61,3.61,0,0,0-3.492,0L16.573,10.776l.6,8.885h2.408Z" transform="translate(-12.144 0)"/><path class="a" d="M77.548,184.819V191.9l-16.013,8.764a4.616,4.616,0,0,1-3.492,0l-15.531-4.2,15.531,7.924a3.61,3.61,0,0,0,3.492,0l19.023-10.445-.6-9.125H77.548Z" transform="translate(-34.481 -159.155)"/><path class="b" d="M87.52,99.569l8.148-20.748h5.769l7.942,20.748h-5.433l-1.774-5.352-4.861.058,1.11-3.75,2.506-.076L98.5,83.624,93,99.572Z" transform="translate(-73.187 -67.876)"/><path class="a" d="M28.931,144.282l-.645.234-1.338.463-2.667.82-1.9.513-1.368.342-1.072.246-.891.214-1.485.288-1.5.279-1.281.222-1.346.148-.906.09-1.019.047-1.082.058H8.324l-.51-.031-.51-.028-.388-.047-.326-.045-.235-.049-.214-.057-.191-.079-.111-.073-.1-.086-.088-.075-.085-.091-.077-.095-.085-.12-.075-.133-.033-.1-.019-.076-.013-.072-.01-.086-.006-.087v-.232l.016-.119.024-.119.053-.244.05-.191.058-.2.069-.2.093-.222.175-.359.135-.274.169-.253.1-.174.14-.219.21-.314.282-.433.323-.47.392-.463.313-.373.314-.362.289-.331.278-.307.3-.328.321-.324.392-.421.335-.345.31-.3.416-.412.435-.388.513-.431.552-.433.658-.44.277-.172-1.088.667-1.2.728-1.087.691-.962.622-.808.584-.764.557-1.089.887-.442.386-.445.427-.672.661-.605.666-.548.73-.424.644-.272.565-.2.57-.1.387-.039.451.017.478.069.428.13.328.157.324.155.27.23.3.286.3.246.211.338.239.363.2.163.092.344.145.567.188.552.163.579.137.677.115.71.063.681.052.61.023.771,0,.848-.03.936-.064,1.233-.087.95-.107.825-.1.914-.075,1.273-.162.986-.111,1.093-.177,2.635-.495,2.137-.467,1.95-.465,1.149-.287,1.281-.36.787-.229.855-.264.11-.029Z" transform="translate(0 -117.944)"/></g></svg>