<svg width="64" height="64" viewBox="0 0 64 64" fill="none" xmlns="http://www.w3.org/2000/svg">
<circle cx="32" cy="32" r="31.75" fill="url(#paint0_radial)" fill-opacity="0.05" stroke="url(#paint1_linear)" stroke-width="0.5"/>
<path fill-rule="evenodd" clip-rule="evenodd" d="M41.4724 40.9062C43.6499 38.5762 45 35.4405 45 32C45 26.8827 42.0603 22.4841 37.7705 20.3501C37.6855 20.3087 37.6001 20.2681 37.5141 20.2283C37.6001 20.2681 37.6855 20.3088 37.7705 20.3501C37.4874 23.6818 35.7889 24.727 35.7889 24.727C34.0765 23.1664 34.6512 20.829 35.2149 19.4116C34.1938 19.13 33.1077 19 32 19C24.8141 19 19 24.8141 19 32C19 39.1859 24.8141 45 32 45C32.2613 45 32.5008 45 32.7621 44.9782C32.0653 44.6952 31.3467 44.2596 30.7805 43.6064C28.8643 41.3635 28.8425 39.469 28.9296 38.6851V36.8342C28.9296 36.7253 29.0385 36.6164 29.1474 36.6164C29.2562 36.6164 29.3651 36.7253 29.3651 36.8342V38.3149C30.1055 38.3803 31.8258 38.7722 33.2847 40.6014C34.5041 42.1256 34.9397 43.6935 35.0921 44.6298C35.0921 44.6298 35.0921 44.6298 35.0921 44.6298C35.3534 44.5645 35.6147 44.4992 35.876 44.4121C35.9196 43.3668 36.2462 41.8426 37.3785 40.34C38.9464 38.2714 40.7537 37.7052 41.5377 37.5528V36.2245C41.5377 36.0938 41.6248 36.0067 41.7554 36.0067C41.8861 36.0067 41.9732 36.0938 41.9732 36.2245V37.8794C42.0167 38.4456 41.9949 39.5779 41.4723 40.9062C41.4723 40.9062 41.4723 40.9062 41.4723 40.9062C41.4723 40.9062 41.4723 40.9062 41.4724 40.9062ZM38.5762 27.0569C39.0988 25.9682 39.2076 25.01 39.1859 24.3132C39.2076 24.2915 39.2076 24.2479 39.2076 24.2261V22.2663C39.2076 22.1357 39.1205 22.0486 38.9899 22.0486C38.8592 22.0486 38.7721 22.1357 38.7721 22.2663V23.3551C38.2277 23.5075 37.0083 24.0301 36.1373 25.6198C34.9832 27.732 35.3752 29.3434 35.3752 29.3434C35.3752 29.3434 37.5745 29.1039 38.5762 27.0569ZM34.7437 29.4958C34.7437 29.4958 32.8928 28.7119 32.2831 26.5126C31.8476 24.9665 32.3266 23.7035 32.6315 23.1156V21.7219C32.6315 21.5913 32.7186 21.5042 32.8492 21.5042C32.9799 21.5042 33.067 21.5913 33.067 21.7219V22.8325C33.5025 23.1809 34.5259 24.1172 35.005 25.7722C35.6147 27.8626 34.7437 29.4958 34.7437 29.4958ZM38.8157 32.1089C39.8827 30.5846 39.8827 29.1039 39.7956 28.4288V26.8175C39.7956 26.6868 39.7085 26.5997 39.5779 26.5997C39.4472 26.5997 39.3601 26.6868 39.3601 26.8175V28.1022C38.7069 28.2764 37.2915 28.8208 36.4204 30.3451C35.2663 32.392 35.4623 34.1994 35.4623 34.1994C35.4623 34.1994 37.3568 34.1994 38.8157 32.1089ZM35.0485 34.3518C35.0485 34.3518 33.0452 34.3736 31.6951 32.196C30.7587 30.6717 30.7587 29.3216 30.8023 28.6248V26.9699C30.8023 26.8392 30.8894 26.7521 31.02 26.7521C31.1507 26.7521 31.2378 26.8392 31.2378 26.9699V28.2328C31.8475 28.4288 33.0887 28.9514 34.0468 30.3233C35.4187 32.3049 35.0485 34.3518 35.0485 34.3518ZM39.5125 37.3133C40.8408 35.2446 40.6884 33.3719 40.6013 32.8057V31.4339C40.6013 31.3032 40.5142 31.2161 40.3835 31.2161C40.2529 31.2161 40.1658 31.3032 40.1658 31.4339V32.6968C39.4036 32.8928 37.7487 33.5243 36.8123 35.2228C35.5494 37.5092 35.6365 39.6215 35.6365 39.6215C35.6365 39.6215 37.9229 39.7957 39.5125 37.3133ZM30.4756 31.6516V32.9364C31.0854 33.0017 32.4572 33.3719 33.7855 35.1357C35.7453 37.7052 35.2227 39.7739 35.2227 39.7739C35.2227 39.7739 33.2194 40.1223 31.2813 37.5746C29.8224 35.6365 29.9095 33.9598 30.0401 33.263V31.6516C30.0401 31.521 30.1272 31.4339 30.2579 31.4339C30.3885 31.4339 30.4756 31.521 30.4756 31.6516Z" fill="#FABC46"/>
<defs>
<radialGradient id="paint0_radial" cx="0" cy="0" r="1" gradientUnits="userSpaceOnUse" gradientTransform="translate(32 32) rotate(90) scale(32)">
<stop stop-opacity="0"/>
<stop offset="1" stop-color="white"/>
</radialGradient>
<linearGradient id="paint1_linear" x1="32" y1="0" x2="32" y2="64" gradientUnits="userSpaceOnUse">
<stop stop-color="#4B4C4D"/>
<stop offset="1" stop-opacity="0"/>
</linearGradient>
</defs>
</svg>
