<svg width="64" height="64" viewBox="0 0 64 64" fill="none" xmlns="http://www.w3.org/2000/svg">
<circle cx="32" cy="32" r="31.75" fill="url(#paint0_radial)" fill-opacity="0.05" stroke="url(#paint1_linear)" stroke-width="0.5"/>
<path d="M32 48C40.8366 48 48 40.8366 48 32C48 23.1634 40.8366 16 32 16C23.1634 16 16 23.1634 16 32C16 40.8366 23.1634 48 32 48Z" fill="#141833"/>
<path d="M25.3961 28.2375V40C23.2714 40 22.6897 38.344 22.6644 37.5159V27.9452C22.6644 24.3215 27.7484 23.3425 29.5695 24.6575C30.4042 25.3638 32.2861 26.9662 33.1359 27.726C34.1983 28.6758 36.8541 30.21 36.8541 32.7671C36.8541 35.6895 34.35 37.5159 32.1495 37.5159C29.949 37.5159 27.2931 35.8356 27.2931 32.9132C27.2931 30.5753 28.7096 29.4064 29.4178 29.1141L31.3907 30.8676C31.3907 30.8676 30.2742 31.5982 30.1007 32.7671C29.8731 34.3013 32.3013 35.1781 33.3636 34.3013C34.4259 33.4246 34.1224 32.2557 33.8189 31.8904L28.659 27.2877C27.2172 26.1187 25.3961 26.9954 25.3961 28.2375Z" fill="white"/>
<path d="M38.5993 28.3836V40C40.7847 40 41.331 38.4414 41.331 37.6621V28.2374C41.331 26.1918 39.3581 24 36.6264 24C34.4411 24 32.883 25.4125 32.3771 26.1187L34.4259 27.9452C34.4259 27.9452 35.4123 26.6301 36.6264 26.6301C37.8405 26.6301 38.5993 27.726 38.5993 28.3836Z" fill="#53B8FF"/>
<defs>
<radialGradient id="paint0_radial" cx="0" cy="0" r="1" gradientUnits="userSpaceOnUse" gradientTransform="translate(32 32) rotate(90) scale(32)">
<stop stop-opacity="0"/>
<stop offset="1" stop-color="white"/>
</radialGradient>
<linearGradient id="paint1_linear" x1="32" y1="0" x2="32" y2="64" gradientUnits="userSpaceOnUse">
<stop stop-color="#4B4C4D"/>
<stop offset="1" stop-opacity="0"/>
</linearGradient>
</defs>
</svg>
