<svg xmlns="http://www.w3.org/2000/svg" width="43.772" height="44.17" viewBox="0 0 43.772 44.17">
  <defs>
    <style>
      .cls-1 {
        fill: #e7eaeb;
      }
    </style>
  </defs>
  <path id="路径_51970" data-name="路径 51970" class="cls-1" d="M139.268,99.882a1.64,1.64,0,1,0,1.64-1.655A1.648,1.648,0,0,0,139.268,99.882Zm-21.354,21.682h-15a4.157,4.157,0,0,0-4.133,4.17v15.136a1.525,1.525,0,0,0,1.517,1.528h15a4.158,4.158,0,0,0,4.133-4.172V123.091A1.526,1.526,0,0,0,117.914,121.563Zm-1.768,16.451a1.07,1.07,0,0,1-1.064,1.073H102.057V125.949h0a1.071,1.071,0,0,1,1.062-1.075h13.025v13.141Zm-.85-39.787h-15a1.523,1.523,0,0,0-1.517,1.528v15.134a4.159,4.159,0,0,0,4.133,4.174h15a1.524,1.524,0,0,0,1.515-1.532V102.4A4.153,4.153,0,0,0,115.3,98.227Zm.85,17.526H103.119a1.07,1.07,0,0,1-1.062-1.075V101.537h13.027a1.074,1.074,0,0,1,1.062,1.077v13.139Zm22.256,5.81h-15a1.522,1.522,0,0,0-1.515,1.528v15.134a4.158,4.158,0,0,0,4.135,4.172h15a1.525,1.525,0,0,0,1.517-1.528V125.733A4.154,4.154,0,0,0,138.4,121.563Zm.923,17.6H126.171a1.081,1.081,0,0,1-1.076-1.084V124.8h13.153a1.086,1.086,0,0,1,1.079,1.086Zm3.223-33.088a1.71,1.71,0,0,0-.012-.2v-1.027h0v1.018a1.639,1.639,0,0,0-3.267.207c0,.033,0,.066,0,.1h-.015v8.51a1.074,1.074,0,0,1-1.068,1.072H125.164V102.609a1.07,1.07,0,0,1,1.066-1.072h8.431a1.655,1.655,0,0,0-.02-3.309h-8.621a4.159,4.159,0,0,0-4.137,4.17v15.136a1.524,1.524,0,0,0,1.519,1.528h15a4.153,4.153,0,0,0,4.133-4.168v-8.625A1.676,1.676,0,0,0,142.548,106.071Z" transform="translate(-98.776 -98.227)"/>
</svg>
