<svg xmlns="http://www.w3.org/2000/svg" width="30.89" height="31.171" viewBox="0 0 30.89 31.171">
  <defs>
    <style>
      .cls-1 {
        fill: #5a636c;
      }
    </style>
  </defs>
  <path id="路径_51970" data-name="路径 51970" class="cls-1" d="M127.351,99.395a1.158,1.158,0,1,0,1.158-1.168A1.163,1.163,0,0,0,127.351,99.395Zm-15.069,15.3H101.694a2.934,2.934,0,0,0-2.917,2.942v10.681a1.076,1.076,0,0,0,1.07,1.078h10.587a2.934,2.934,0,0,0,2.917-2.944v-10.68A1.077,1.077,0,0,0,112.281,114.7ZM111.034,126.3a.755.755,0,0,1-.751.757h-9.192V117.79h0a.756.756,0,0,1,.749-.759h9.192V126.3Zm-.6-28.077H99.846a1.075,1.075,0,0,0-1.07,1.078v10.68a2.935,2.935,0,0,0,2.917,2.945H112.28a1.075,1.075,0,0,0,1.069-1.081V101.17A2.931,2.931,0,0,0,110.434,98.227Zm.6,12.368h-9.193a.755.755,0,0,1-.75-.759v-9.273h9.193a.758.758,0,0,1,.75.76V110.6Zm15.706,4.1H116.153a1.074,1.074,0,0,0-1.069,1.078v10.68A2.934,2.934,0,0,0,118,129.4h10.585a1.076,1.076,0,0,0,1.07-1.078V117.638A2.932,2.932,0,0,0,126.74,114.7Zm.652,12.417h-9.283a.763.763,0,0,1-.76-.765v-9.366h9.282a.766.766,0,0,1,.761.766Zm2.274-23.35a1.209,1.209,0,0,0-.008-.14V102.9h0v.718a1.157,1.157,0,0,0-2.306.146c0,.024,0,.047,0,.07h-.011v6.006a.758.758,0,0,1-.754.756H117.4V101.32a.755.755,0,0,1,.752-.756h5.95a1.168,1.168,0,0,0-.014-2.335H118a2.935,2.935,0,0,0-2.92,2.942v10.681a1.075,1.075,0,0,0,1.072,1.078h10.586a2.931,2.931,0,0,0,2.917-2.941V103.9A1.182,1.182,0,0,0,129.666,103.763Z" transform="translate(-98.776 -98.227)"/>
</svg>
