<svg width="64" height="64" viewBox="0 0 64 64" fill="none" xmlns="http://www.w3.org/2000/svg">
<circle cx="32" cy="32" r="31.75" fill="url(#paint0_radial_17394_248890)" fill-opacity="0.05" stroke="url(#paint1_linear_17394_248890)" stroke-width="0.5"/>
<path d="M22.7575 24.4499L16.6091 22.7544C16.2528 23.3202 15.9769 23.933 15.7896 24.575L17.4403 37.6396L22.7576 24.4499H22.7575Z" fill="#C8A8FF"/>
<path d="M46.5259 37.6397L32.6418 14.0293C32.1172 13.9822 31.5889 13.9919 31.0663 14.0583L22.7573 24.4501L46.5259 37.6397Z" fill="#875FE3"/>
<path d="M48.1767 24.5752L46.5259 37.6398L47.8494 40.3272C48.1814 39.5746 48.3832 38.7711 48.446 37.951V26.0498C48.4078 25.5502 48.3176 25.056 48.1767 24.5752Z" fill="#9B65EA"/>
<path d="M17.4404 37.6396L30.6758 49.8812C31.5374 50.0395 32.4206 50.0395 33.2823 49.8812L46.5147 37.6396H17.4404Z" fill="#875FE3"/>
<path d="M17.4404 37.6399H46.5263L22.7577 24.4502L17.4404 37.6399Z" fill="#AB83F2"/>
<path d="M15.7894 24.575C15.6499 25.0561 15.5596 25.5502 15.52 26.0496V37.9507C15.5824 38.7713 15.7852 39.575 16.1195 40.3269L17.4402 37.6396L15.7894 24.575ZM31.0665 14.0581C30.3085 14.1573 29.5712 14.3772 28.8828 14.7096L18.6218 20.6573C17.8156 21.2124 17.1307 21.9259 16.609 22.7543L22.7575 24.4499L31.0665 14.0581Z" fill="#9B65EA"/>
<path d="M48.177 24.5752C47.7134 22.9821 46.7138 21.5981 45.3474 20.6576L35.0835 14.7099C34.3167 14.3394 33.4899 14.1089 32.6421 14.0293L46.5261 37.6398L48.177 24.5752ZM33.2937 49.8814C33.9131 49.7664 34.5148 49.5709 35.0835 49.2997L45.3474 43.3491C46.4445 42.5949 47.3108 41.5508 47.8497 40.3331L46.5261 37.6457L33.2937 49.8814ZM16.1196 40.3272C16.6576 41.5455 17.5241 42.5899 18.6219 43.3433L28.8829 49.2938C29.4527 49.5647 30.0554 49.7602 30.6756 49.8755L17.4403 37.6398L16.1196 40.3272Z" fill="#6D33CC"/>
<defs>
<radialGradient id="paint0_radial_17394_248890" cx="0" cy="0" r="1" gradientUnits="userSpaceOnUse" gradientTransform="translate(32 32) rotate(90) scale(32)">
<stop stop-opacity="0"/>
<stop offset="1" stop-color="white"/>
</radialGradient>
<linearGradient id="paint1_linear_17394_248890" x1="32" y1="0" x2="32" y2="64" gradientUnits="userSpaceOnUse">
<stop stop-color="#4B4C4D"/>
<stop offset="1" stop-opacity="0"/>
</linearGradient>
</defs>
</svg>
