<svg xmlns="http://www.w3.org/2000/svg" width="75.229" height="69.588" viewBox="0 0 75.229 69.588">
  <defs>
    <style>
      .cls-1 {
        fill: #e17726;
      }

      .cls-2 {
        fill: #e27625;
      }

      .cls-3 {
        fill: #d5bfb2;
      }

      .cls-4 {
        fill: #233447;
      }

      .cls-5 {
        fill: #cc6228;
      }

      .cls-6 {
        fill: #e27525;
      }

      .cls-7 {
        fill: #f5841f;
      }

      .cls-8 {
        fill: #c0ac9d;
      }

      .cls-9 {
        fill: #161616;
      }

      .cls-10 {
        fill: #763e1a;
      }
    </style>
  </defs>
  <g id="组_66025" data-name="组 66025" transform="translate(-31.03 -31.03)">
    <path id="路径_51977" data-name="路径 51977" class="cls-1" d="M644.534,31.03,615.145,52.776l5.464-12.815Z" transform="translate(-541.993 0)"/>
    <path id="路径_51978" data-name="路径 51978" class="cls-2" d="M42.612,31.03,71.739,52.979l-5.2-13.019Zm57.21,50.423L92,93.4l16.744,4.61,4.8-16.294Zm-60.32.26,4.766,16.294L60.983,93.4,53.194,81.451Z" transform="translate(-7.86 0)"/>
    <path id="路径_51979" data-name="路径 51979" class="cls-2" d="M265.085,318.333l-4.648,7.015,16.57.754-.553-17.834Zm32.848,0-11.539-10.264-.378,18.035,16.57-.754Zm-31.947,32.126,10.029-4.842-8.633-6.726ZM287,345.616l10,4.842L295.64,338.89Z" transform="translate(-212.864 -257.061)"/>
    <path id="路径_51980" data-name="路径 51980" class="cls-3" d="M368.411,833.6l-10-4.842.817,6.5-.09,2.752Zm-31.018,0,9.3,4.408-.058-2.755.785-6.5Z" transform="translate(-284.27 -740.202)"/>
    <path id="路径_51981" data-name="路径 51981" class="cls-4" d="M361.841,609.943l-8.313-2.435,5.872-2.7Zm12.094,0,2.439-5.131,5.9,2.7Z" transform="translate(-299.242 -532.405)"/>
    <path id="路径_51982" data-name="路径 51982" class="cls-5" d="M237.165,572.8l1.454-11.945-9.244.26Zm29.593-11.945,1.425,11.945L276,561.111Zm7.008-13.166-16.572.756,1.542,8.494,2.439-5.131,5.9,2.7ZM238.329,554.5l5.872-2.7,2.441,5.131,1.542-8.494-16.57-.754Z" transform="translate(-184.043 -479.398)"/>
    <path id="路径_51983" data-name="路径 51983" class="cls-6" d="M260.406,547.685l6.948,13.542-.233-6.726Zm35.464,6.816-.262,6.726,6.948-13.54Zm-18.895-6.06-1.542,8.494,1.947,10.034.439-13.224Zm9.011,0-.815,5.276.407,13.251,1.947-10.034Z" transform="translate(-212.835 -479.398)"/>
    <path id="路径_51984" data-name="路径 51984" class="cls-7" d="M373.935,644.638l-1.947,10.034,1.394.985,8.633-6.726.262-6.726ZM353.528,642.2l.233,6.726,8.633,6.726,1.4-.985-1.947-10.034Z" transform="translate(-299.242 -567.1)"/>
    <path id="路径_51985" data-name="路径 51985" class="cls-8" d="M359.136,900.315l.09-2.754-.756-.638H347.363l-.727.638.058,2.752-9.3-4.406,3.256,2.667,6.6,4.554h11.307l6.628-4.554,3.227-2.667Z" transform="translate(-284.27 -802.509)"/>
    <path id="路径_51986" data-name="路径 51986" class="cls-9" d="M477.411,816.089l-1.4-.985H467.82l-1.4.985-.783,6.5.725-.638h11.105l.756.638Z" transform="translate(-403.27 -727.533)"/>
    <path id="路径_51987" data-name="路径 51987" class="cls-10" d="M103.791,54.2l2.468-12L102.541,31.03l-28.4,21.02L85.071,61.27l15.435,4.5,3.4-3.974-1.484-1.074,2.356-2.144-1.8-1.392,2.354-1.8Zm-72.761-12,2.5,12-1.6,1.19,2.383,1.8-1.8,1.392,2.354,2.146L33.384,61.8l3.4,3.97,15.437-4.493,10.929-9.219L34.751,31.03Z" transform="translate(0 0)"/>
    <path id="路径_51988" data-name="路径 51988" class="cls-7" d="M108.338,180.677,92.9,176.183l4.65,7.017L90.6,196.741l9.188-.116h13.719Zm-48.286-4.493-15.435,4.493-5.147,15.948H53.165l9.185.116L55.4,183.2Zm20.931,7.771.989-16.993,4.475-12.09H66.508l4.475,12.09.989,16.993.378,5.335.029,13.193h8.2l.029-13.193Z" transform="translate(-7.832 -114.912)"/>
  </g>
</svg>
