<svg width="64" height="64" viewBox="0 0 64 64" fill="none" xmlns="http://www.w3.org/2000/svg">
<circle cx="32" cy="32" r="31.75" fill="url(#paint0_radial)" fill-opacity="0.05" stroke="url(#paint1_linear)" stroke-width="0.5"/>
<path d="M46.8953 29.8729L42.3986 25.2129C42.3674 25.1801 42.3362 25.1472 42.3049 25.1308C40.8061 23.6212 38.4484 23.6376 36.9651 25.1801L32 30.398L27.0193 25.1637C25.5673 23.6541 23.2409 23.6048 21.742 25.0652C21.6795 25.098 21.6327 25.1472 21.5702 25.2129L17.0892 29.8894C15.6215 31.4646 15.6371 33.9915 17.136 35.5339C18.6193 37.0599 20.9769 37.0599 22.4602 35.5339L24.3182 33.6141L29.2677 38.8321C30.6729 40.3089 32.9212 40.3909 34.4358 39.0454C34.545 38.9962 34.6387 38.9305 34.7168 38.8321L39.6663 33.6305L41.5087 35.5339C42.9919 37.0928 45.3964 37.0928 46.8797 35.5339C48.363 33.9751 48.3786 31.4318 46.8953 29.8729ZM38.3547 26.624C39.1042 25.902 40.2596 25.9513 40.9466 26.7389C41.5867 27.4773 41.5867 28.6095 40.9466 29.3643L35.6224 34.976C35.4506 34.3033 35.1071 33.6962 34.6387 33.2039L33.374 31.8748L38.3547 26.624ZM21.0706 34.0736C20.3524 34.8284 19.197 34.8284 18.4788 34.0736C18.1353 33.7126 17.9323 33.2203 17.9323 32.7116C17.9323 32.203 18.1197 31.7107 18.4632 31.3497L20.6647 29.0525C20.8364 29.7253 21.1799 30.3324 21.6327 30.8246L22.913 32.1702L21.0706 34.0736ZM30.6573 37.3717L23.0379 29.3643C22.3353 28.5931 22.3509 27.3624 23.0847 26.624C23.803 25.9185 24.9115 25.902 25.6297 26.624L33.2647 34.6479C33.983 35.4027 33.983 36.6169 33.2647 37.3881C32.5465 38.1265 31.3755 38.1265 30.6573 37.3717ZM45.5057 34.0736C44.7875 34.8284 43.6165 34.8284 42.8983 34.0736L41.0559 32.1702L42.3362 30.8246C42.8046 30.3324 43.1325 29.7417 43.3042 29.0689L45.4901 31.3333C46.2239 32.1045 46.2239 33.3188 45.5057 34.0736Z" fill="url(#paint2_linear)"/>
<defs>
<radialGradient id="paint0_radial" cx="0" cy="0" r="1" gradientUnits="userSpaceOnUse" gradientTransform="translate(32 32) rotate(90) scale(32)">
<stop stop-opacity="0"/>
<stop offset="1" stop-color="white"/>
</radialGradient>
<linearGradient id="paint1_linear" x1="32" y1="0" x2="32" y2="64" gradientUnits="userSpaceOnUse">
<stop stop-color="#4B4C4D"/>
<stop offset="1" stop-opacity="0"/>
</linearGradient>
<linearGradient id="paint2_linear" x1="15.9962" y1="32.0011" x2="48.0036" y2="32.0011" gradientUnits="userSpaceOnUse">
<stop offset="0.13" stop-color="#CA1098"/>
<stop offset="1" stop-color="#714ED2"/>
</linearGradient>
</defs>
</svg>
