<svg width="64" height="64" viewBox="0 0 64 64" fill="none" xmlns="http://www.w3.org/2000/svg">
<circle cx="32" cy="32" r="31.75" fill="url(#paint0_radial)" fill-opacity="0.05" stroke="url(#paint1_linear)" stroke-width="0.5"/>
<circle cx="32" cy="32" r="16" fill="url(#paint2_linear)"/>
<path d="M33.5461 33.4365C33.3463 33.0763 33.0114 32.571 32.5707 32.2051C32.4532 32.3096 32.3827 32.5361 32.3592 32.6755C32.3034 33.0247 32.4829 33.0739 32.8187 33.1659C33.0136 33.2193 33.2612 33.2871 33.5461 33.4365Z" fill="white"/>
<path fill-rule="evenodd" clip-rule="evenodd" d="M21.9687 28.0744C22.9156 22.3818 27.6621 17.9497 33.5564 17.3925C33.1132 17.3533 32.6644 17.3333 32.2109 17.3333C24.5597 17.3333 18.2575 23.0271 17.4263 30.351C17.3649 30.8923 17.3333 31.4425 17.3333 32C17.3333 32.879 17.4118 33.74 17.5621 34.5765C17.5846 34.7015 17.6087 34.8261 17.6344 34.95C17.6932 35.2338 17.7603 35.5147 17.8354 35.7922C17.8882 35.9872 17.9449 36.1805 18.0056 36.3721C18.0855 36.6248 18.1722 36.8746 18.2654 37.1212C18.3011 37.2155 18.3377 37.3093 18.3752 37.4027C20.1092 41.7145 23.8571 45.023 28.4748 46.2003C29.6686 46.5047 30.9206 46.6667 32.2109 46.6667C32.6484 46.6667 33.0815 46.6481 33.5093 46.6116C39.9275 46.0646 45.1801 41.5003 46.6666 35.4824C44.6167 39.9173 40.0808 43 34.8145 43C32.7389 43 30.7768 42.5211 29.0356 41.6694C29.0605 41.1851 29.0787 40.72 29.0956 40.2898L29.0956 40.2891C29.1312 39.3817 29.1607 38.629 29.2335 38.1762C29.492 36.6834 29.9679 35.6495 30.1853 35.2371C30.7008 35.8215 31.0266 36.052 31.2634 36.2194C31.5231 36.4032 31.6756 36.5111 31.8539 36.9274C31.9414 37.137 32.0253 37.518 32.1083 37.895C32.2092 38.3537 32.3089 38.8064 32.4121 38.9371C32.6001 39.1752 34.0043 40.0117 34.5801 40C34.7681 39.9826 34.9562 39.942 35.1324 39.8723C35.4086 39.7677 35.673 39.6457 35.9315 39.5005C36.002 39.4598 36.0725 39.4192 36.1313 39.3843C36.4955 39.1636 37.4297 38.4724 37.418 37.8683L37.418 37.8666C37.4121 37.5057 37.3994 36.7291 36.8128 36.2536C36.7599 36.1316 36.7012 35.9806 36.6365 35.8005C36.4897 35.3939 36.3251 34.8595 36.19 34.331C36.0901 33.9592 36.0137 33.5817 35.9609 33.1983C35.934 33.0032 36.0425 32.6199 36.1471 32.2507C36.248 31.8947 36.3451 31.5518 36.3134 31.4035C36.2488 31.1944 36.1665 30.9911 36.0725 30.7936C35.9716 30.5742 35.8621 30.3248 35.7587 30.0895L35.7082 29.9746C35.6377 29.812 35.579 29.6609 35.532 29.5332L37.277 25.5485L35.5672 27.1575C35.5848 26.4895 35.5496 24.6308 34.1218 24.0383C34.1453 24.1255 34.1571 24.776 34.0983 25.5485C33.7869 23.9686 31.425 23.109 30.0149 23.8176C30.1148 23.8583 30.6553 24.2591 30.7963 24.6598C30.3322 24.503 29.7622 24.3404 29.1629 24.323C28.4344 24.2997 27.5942 24.3752 26.9538 24.7528C26.3956 25.0781 26.0137 25.6299 25.7434 26.2165C25.0442 26.7335 24.2863 26.4314 24.4097 25.4498C24.0981 25.4556 23.8313 25.5708 23.6081 25.7517C25.6286 22.6718 29.1432 20.6333 33.1408 20.6333C39.406 20.6333 44.485 25.6403 44.485 31.8167C44.485 35.8377 42.3322 39.3631 39.101 41.3339C43.3592 39.5467 46.3447 35.3837 46.3447 30.5333C46.3447 24.0532 41.0159 18.8 34.4426 18.8C29.5761 18.8 25.3919 21.6792 23.5469 25.8039C22.9219 26.3637 22.6626 27.4431 22.7352 27.9707L22.7314 27.9716C22.6724 27.9863 22.3665 28.0622 21.9687 28.0744ZM21.8002 29.8637C21.8097 29.4575 21.8384 29.0559 21.8854 28.6598C22.1377 28.6216 22.3849 28.5554 22.6223 28.4919C22.8247 28.4377 23.02 28.3854 23.2052 28.354C23.5195 28.3009 23.8314 28.3255 24.1431 28.3501C24.513 28.3793 24.8826 28.4085 25.2558 28.3076C25.6788 28.1972 26.0666 27.9649 26.3603 27.6396C26.4426 27.5525 26.519 27.4595 26.5836 27.3666C26.472 27.4537 26.3545 27.535 26.2311 27.6047C25.8786 27.8139 25.479 27.9474 25.0677 27.9997C24.774 28.0346 24.4802 27.9997 24.1864 27.9649C23.9103 27.9184 23.6341 27.9068 23.358 27.9242C23.3051 27.4479 23.405 26.9716 23.6459 26.5592C23.7575 26.3734 23.8868 26.2049 24.0337 26.0481C24.0278 26.2107 24.0689 26.3734 24.157 26.5128C24.5037 27.0762 25.2558 27.0994 25.7845 26.7974C26.0385 26.6513 26.2426 26.4523 26.4446 26.2553C26.7565 25.9511 27.0634 25.6518 27.5413 25.5602C28.4529 25.3836 29.1573 25.6765 29.6936 25.8995C29.8452 25.9626 29.9833 26.02 30.1089 26.0597C29.2981 25.5195 28.2581 24.9909 27.2828 25.2291C27.8527 24.9096 28.546 24.8399 29.1864 24.8399C31.2235 24.8448 31.9979 25.6144 32.3102 25.9248C32.3682 25.9823 32.4102 26.0241 32.4415 26.0423C32.3005 25.8157 32.1418 25.6008 31.9597 25.4033C31.7893 24.9967 31.4074 24.3927 30.9021 24.0209C33.6518 24.0325 34.2335 26.414 33.6871 27.6919C34.4803 27.3434 34.5096 25.2697 34.4744 24.8399C35.2499 25.5718 35.1559 27.2098 34.7917 27.8894L33.2405 29.3357L33.2111 29.3647C33.1935 29.3938 33.1759 29.4344 33.17 29.4693L33.0349 29.2834L32.8527 29.0336C32.747 28.6619 32.4885 28.3366 32.2358 28.1275C31.9482 27.8809 31.5405 27.7531 31.1516 27.6313C30.7619 27.5092 30.3912 27.393 30.1794 27.1691C30.0266 27.5699 29.9914 28.0927 30.0736 28.5457C30.0736 28.569 30.0795 28.598 30.0854 28.6212C29.8328 28.6967 29.5919 28.8768 29.3862 29.1033C28.8927 29.6435 28.5813 30.4741 28.7928 30.9388C27.8233 30.7878 28.264 28.871 28.2699 28.8652C28.264 28.8652 25.8551 30.1953 25.4203 30.538C24.8327 31.0027 24.2922 31.7113 24.3216 32.4781C24.0102 32.1237 24.2393 30.7297 24.4978 30.2883C23.5636 30.8168 23.2581 32.1528 23.2405 32.6117C23.034 32.1355 23.1249 31.6345 23.2082 31.1751C23.2316 31.0461 23.2544 30.9204 23.2698 30.7994C22.45 31.9638 22.2656 32.8365 22.2371 32.9712L22.2358 32.9776C22.2163 33.0879 22.2009 33.2003 22.1908 33.3134C21.9333 32.3065 21.7966 31.2523 21.7966 30.1667C21.7966 30.1373 21.7967 30.108 21.7969 30.0788C22.0906 29.9717 22.3901 29.8774 22.6857 29.7843L22.7822 29.7539C22.4557 29.7723 22.1243 29.8038 21.8002 29.8637ZM35.3733 27.901L36.2781 27.0007L34.6095 30.4161L34.5978 30.4393C34.3862 30.4974 34.0983 30.3986 33.881 30.236C33.6753 30.085 33.5402 29.8701 33.6107 29.6668L33.9926 29.2892C34.022 29.3938 34.0748 29.4925 34.1512 29.5738C34.2981 29.7306 34.5273 29.8236 34.8504 29.7481C34.774 29.7365 34.7035 29.719 34.633 29.69C34.3451 29.5738 34.2276 29.3182 34.1689 29.1091L34.7094 28.569C34.8093 28.7839 35.0267 28.9639 35.3087 28.8826C35.0854 28.8478 34.9444 28.6096 34.8563 28.4179L35.2793 27.9939C35.3498 28.0869 35.4673 28.1275 35.5848 28.1043C35.485 28.0869 35.4203 27.9881 35.3733 27.901ZM32.2358 33.2274C32.0596 33.0821 32.0419 32.8614 32.0772 32.6291C32.1183 32.42 32.1947 32.1876 32.3416 32.0308C32.1242 31.8798 31.8715 31.7752 31.6071 31.7346C32.2652 31.5777 32.7059 31.8217 33.2053 32.3038C33.5167 32.6058 33.8868 33.3551 33.9632 33.5759C34.0513 33.8372 34.6683 33.6223 34.6683 33.6223C34.539 33.785 34.2746 33.9883 33.9926 33.9941C33.819 33.9988 33.7839 33.9215 33.7217 33.7845C33.7081 33.7545 33.6932 33.7217 33.6753 33.6862C33.3911 33.5572 33.0939 33.4904 32.8376 33.4328C32.5747 33.3738 32.3548 33.3244 32.2358 33.2274ZM35.7494 37.7289L35.6965 37.6708C35.6377 37.1423 35.5437 36.8518 35.2617 36.817C35.2617 36.817 35.3263 36.5905 35.5907 36.7182C35.8376 36.8322 35.7925 37.2906 35.7567 37.6535L35.7524 37.6971L35.7494 37.7289ZM35.9609 37.8102C36.0196 37.3223 35.8904 36.3058 35.4203 36.3C35.1148 36.2942 34.9562 36.3872 34.8857 36.4511L34.8328 36.515C34.8269 36.4685 34.8269 36.422 34.8387 36.3755C34.8429 35.9399 34.6603 35.5382 34.4768 35.1344C34.4082 34.9837 34.3396 34.8326 34.2805 34.6795C34.633 35.0628 34.9268 35.4927 35.1559 35.9515C35.2852 35.876 35.4497 35.876 35.6318 36.0096C36.1959 36.422 36.19 37.4501 35.9609 37.8102ZM34.915 38.8093C34.3921 38.6002 33.264 38.1413 33.1994 37.8683C33.1583 37.6592 33.2229 37.4443 33.3698 37.2933C33.5049 37.5837 33.7399 37.7463 34.0807 37.938C34.0807 37.938 33.6401 37.485 33.6283 37.1306C33.6694 37.119 33.7106 37.1132 33.7517 37.1132C33.9167 37.1184 34.0152 37.3613 34.1407 37.6712C34.2969 38.0565 34.495 38.5453 34.915 38.8093ZM33.3228 33.8198C32.9585 33.9592 32.418 33.8837 32.1301 33.7385C31.754 33.5468 31.5954 33.1112 31.5778 32.693C31.6262 32.7737 31.6688 32.8542 31.7101 32.9322C31.8442 33.1854 31.965 33.4136 32.2299 33.5468C32.4625 33.6639 32.7933 33.7227 33.0683 33.7716C33.1616 33.7882 33.2484 33.8036 33.3228 33.8198ZM25.4821 36.186C25.4512 36.4364 25.4333 36.743 25.4173 37.0171C25.4028 37.2645 25.3899 37.4854 25.3704 37.6149C25.1295 37.2257 25.0238 36.7669 25.0649 36.3138C25.2882 33.822 27.3329 32.1782 27.4269 32.1143C26.0755 33.88 25.5996 35.2683 25.4821 36.186Z" fill="white"/>
<path d="M41.1375 31.8167C41.1375 36.0646 38.735 39.7593 35.1965 41.6524C39.6636 40.6484 42.9972 36.708 42.9972 32C42.9972 27.6972 40.2127 24.0355 36.3231 22.6706C39.2353 24.6949 41.1375 28.0368 41.1375 31.8167Z" fill="white"/>
<path d="M37.79 30.5333C38.1148 30.8535 38.162 31.6333 38.162 31.6333C38.162 31.6333 38.2091 30.8535 38.5339 30.5333C38.8587 30.2131 39.6497 30.1667 39.6497 30.1667C39.6497 30.1667 38.8587 30.1202 38.5339 29.8C38.2091 29.4798 38.162 28.7 38.162 28.7C38.162 28.7 38.1148 29.4798 37.79 29.8C37.4652 30.1202 36.6742 30.1667 36.6742 30.1667C36.6742 30.1667 37.4652 30.2131 37.79 30.5333Z" fill="white"/>
<path d="M30.4442 39.975C30.6878 40.2151 30.7232 40.8 30.7232 40.8C30.7232 40.8 30.7585 40.2151 31.0021 39.975C31.2457 39.7349 31.839 39.7 31.839 39.7C31.839 39.7 31.2457 39.6651 31.0021 39.425C30.7585 39.1849 30.7232 38.6 30.7232 38.6C30.7232 38.6 30.6878 39.1849 30.4442 39.425C30.2006 39.6651 29.6073 39.7 29.6073 39.7C29.6073 39.7 30.2006 39.7349 30.4442 39.975Z" fill="white"/>
<path d="M39.0918 33.2833C39.2542 33.4434 39.2778 33.8333 39.2778 33.8333C39.2778 33.8333 39.3014 33.4434 39.4638 33.2833C39.6262 33.1232 40.0217 33.1 40.0217 33.1C40.0217 33.1 39.6262 33.0768 39.4638 32.9167C39.3014 32.7566 39.2778 32.3667 39.2778 32.3667C39.2778 32.3667 39.2542 32.7566 39.0918 32.9167C38.9294 33.0768 38.5339 33.1 38.5339 33.1C38.5339 33.1 38.9294 33.1232 39.0918 33.2833Z" fill="white"/>
<defs>
<radialGradient id="paint0_radial" cx="0" cy="0" r="1" gradientUnits="userSpaceOnUse" gradientTransform="translate(32 32) rotate(90) scale(32)">
<stop stop-opacity="0"/>
<stop offset="1" stop-color="white"/>
</radialGradient>
<linearGradient id="paint1_linear" x1="32" y1="0" x2="32" y2="64" gradientUnits="userSpaceOnUse">
<stop stop-color="#4B4C4D"/>
<stop offset="1" stop-opacity="0"/>
</linearGradient>
<linearGradient id="paint2_linear" x1="32" y1="16" x2="32" y2="47.9999" gradientUnits="userSpaceOnUse">
<stop/>
<stop offset="0.5" stop-color="#1E4169"/>
<stop offset="1" stop-color="#3A619D"/>
</linearGradient>
</defs>
</svg>
