<svg width="64" height="64" viewBox="0 0 64 64" fill="none" xmlns="http://www.w3.org/2000/svg">
<circle cx="32" cy="32" r="31.75" fill="url(#paint0_radial)" fill-opacity="0.05" stroke="url(#paint1_linear)" stroke-width="0.5"/>
<path d="M22.1194 37.5416C20.0679 37.5416 18.1742 37.5416 16.1402 37.5416C16.1402 30.8567 16.1402 24.2251 16.1402 17.5225C17.9112 17.5225 19.7347 17.5225 21.6284 17.5225C21.7161 18.2692 21.8038 18.9981 21.909 19.9226C23.6449 17.6825 25.8717 16.918 28.4493 17.0069C31.0444 17.1135 33.1485 18.0914 34.3934 20.6693C34.6213 20.3493 34.7967 20.1182 34.9545 19.8871C37.5671 16.189 43.7567 16.0112 46.5271 19.5493C47.4214 20.6871 47.9123 22.0028 47.9299 23.4073C48 28.0298 47.9825 32.6524 48 37.2749C48 37.3282 47.9649 37.3816 47.9123 37.506C46.0362 37.506 44.1249 37.506 42.1085 37.506C42.0909 37.2038 42.0559 36.8838 42.0559 36.5815C42.0559 33.168 42.0734 29.7722 42.0383 26.3586C42.0383 25.4697 41.9857 24.5807 41.7929 23.7095C41.4422 22.0916 40.4603 21.3627 38.777 21.3094C37.0761 21.256 35.8838 21.985 35.4981 23.514C35.2175 24.5985 35.0948 25.7363 35.0772 26.8386C35.0246 30.0389 35.0422 33.2391 35.0422 36.4393C35.0422 36.7771 35.0422 37.1327 35.0422 37.5238C33.0257 37.5238 31.132 37.5238 29.1156 37.5238C29.098 37.1682 29.0805 36.8304 29.063 36.4926C29.063 32.9902 29.063 29.5055 29.0454 26.003C29.0454 25.3452 29.0104 24.7052 28.9227 24.0473C28.6772 22.305 27.6778 21.3983 26.012 21.3094C24.0482 21.2027 22.7156 22.0205 22.3123 23.7095C22.1369 24.4385 22.0843 25.2385 22.0843 26.003C22.0668 29.4699 22.0668 32.9368 22.0668 36.4037C22.1194 36.7593 22.1194 37.0971 22.1194 37.5416Z" fill="white"/>
<path d="M16 47C16 45.3821 16 43.7998 16 42.1286C26.6608 42.1286 37.2866 42.1286 47.9825 42.1286C47.9825 43.7464 47.9825 45.3466 47.9825 47C37.3217 47 26.6959 47 16 47Z" fill="white"/>
<defs>
<radialGradient id="paint0_radial" cx="0" cy="0" r="1" gradientUnits="userSpaceOnUse" gradientTransform="translate(32 32) rotate(90) scale(32)">
<stop stop-opacity="0"/>
<stop offset="1" stop-color="white"/>
</radialGradient>
<linearGradient id="paint1_linear" x1="32" y1="0" x2="32" y2="64" gradientUnits="userSpaceOnUse">
<stop stop-color="#4B4C4D"/>
<stop offset="1" stop-opacity="0"/>
</linearGradient>
</defs>
</svg>
