<svg width="64" height="64" viewBox="0 0 64 64" fill="none" xmlns="http://www.w3.org/2000/svg">
<circle cx="32" cy="32" r="31.75" fill="url(#paint0_radial_16836_167440)" fill-opacity="0.05" stroke="url(#paint1_linear_16836_167440)" stroke-width="0.5"/>
<path fill-rule="evenodd" clip-rule="evenodd" d="M33.7091 14H18V50H33.7091C43.6505 50 51.7091 41.9414 51.7091 32C51.7091 22.0586 43.6505 14 33.7091 14Z" fill="#A5B4FC"/>
<path fill-rule="evenodd" clip-rule="evenodd" d="M25.8545 14H18V50H25.8545C35.7959 50 43.8545 41.9414 43.8545 32C43.8545 22.0586 35.7959 14 25.8545 14Z" fill="#6366F1"/>
<path d="M18 50C27.9414 50 36 41.9414 36 32C36 22.0586 27.9414 14 18 14V50Z" fill="#4338CA"/>
<defs>
<radialGradient id="paint0_radial_16836_167440" cx="0" cy="0" r="1" gradientUnits="userSpaceOnUse" gradientTransform="translate(32 32) rotate(90) scale(32)">
<stop stop-opacity="0"/>
<stop offset="1" stop-color="white"/>
</radialGradient>
<linearGradient id="paint1_linear_16836_167440" x1="32" y1="0" x2="32" y2="64" gradientUnits="userSpaceOnUse">
<stop stop-color="#4B4C4D"/>
<stop offset="1" stop-opacity="0"/>
</linearGradient>
</defs>
</svg>
