<svg width="64" height="64" viewBox="0 0 64 64" fill="none" xmlns="http://www.w3.org/2000/svg">
<circle cx="32" cy="32" r="31.75" fill="url(#paint0_radial)" fill-opacity="0.05" stroke="url(#paint1_linear)" stroke-width="0.5"/>
<path d="M33 16.1769C33 16.8269 32.4963 17.3538 31.875 17.3538C31.2537 17.3538 30.75 16.8269 30.75 16.1769C30.75 15.5269 31.2537 15 31.875 15C32.4963 15 33 15.5269 33 16.1769Z" fill="#3F3FC2"/>
<path d="M26.7175 20.0797L30.9784 22.9325C31.2191 22.7157 31.5324 22.5846 31.875 22.5846C32.2532 22.5846 32.5956 22.7443 32.8442 23.0028L37.2554 20.4777C37.2518 20.4395 37.25 20.4007 37.25 20.3615C37.25 19.7115 37.7537 19.1846 38.375 19.1846C38.9963 19.1846 39.5 19.7115 39.5 20.3615C39.5 21.0115 38.9963 21.5385 38.375 21.5385C38.1597 21.5385 37.9586 21.4752 37.7877 21.3655L33.2488 23.9637L33.2496 23.9856L33.2499 24.0051L33.25 24.0231C33.25 24.8175 32.6344 25.4615 31.875 25.4615C31.1156 25.4615 30.5 24.8175 30.5 24.0231C30.5 24.0059 30.5003 23.9889 30.5009 23.9719C30.5015 23.9551 30.5023 23.9383 30.5034 23.9216C30.5042 23.9103 30.505 23.8989 30.506 23.8877L30.5087 23.8601L26.4605 21.1497C26.2546 21.3884 25.9565 21.5385 25.625 21.5385C25.285 21.5385 24.9803 21.3807 24.774 21.1313L20.2498 24.0439C20.2392 24.6843 19.7397 25.2 19.125 25.2C18.5037 25.2 18 24.6731 18 24.0231C18 23.3731 18.5037 22.8462 19.125 22.8462C19.3857 22.8462 19.6257 22.9389 19.8164 23.0946L24.5387 20.0544C24.6678 19.5533 25.1052 19.1846 25.625 19.1846C26.1534 19.1846 26.5968 19.5658 26.7175 20.0797Z" fill="#3F3FC2"/>
<path d="M46 24.0231C46 24.6731 45.4963 25.2 44.875 25.2C44.6307 25.2 44.4047 25.1186 44.2202 24.9802L39.7366 27.7447C39.7454 27.8105 39.75 27.8778 39.75 27.9462C39.75 28.7406 39.1344 29.3846 38.375 29.3846C38.0641 29.3846 37.7773 29.2767 37.5471 29.0947L33.6784 31.4801C33.725 31.6449 33.75 31.8194 33.75 32C33.75 32.1787 33.7255 32.3514 33.6799 32.5147L37.4677 35.0153C37.7122 34.6174 38.1392 34.3538 38.625 34.3538C39.0443 34.3538 39.4197 34.5501 39.6719 34.8597L43.7553 31.9844C43.7532 31.9613 43.7516 31.938 43.7508 31.9145C43.7502 31.8995 43.75 31.8844 43.75 31.8692C43.75 31.2192 44.2537 30.6923 44.875 30.6923C45.4963 30.6923 46 31.2192 46 31.8692C46 32.5192 45.4963 33.0462 44.875 33.0462C44.6589 33.0462 44.4571 32.9824 44.2857 32.872L39.9968 35.892C39.9478 36.6399 39.3524 37.2308 38.625 37.2308C37.9783 37.2308 37.4359 36.7637 37.2891 36.1345L33.136 33.3926C32.8303 33.6658 32.4335 33.8308 32 33.8308C31.5117 33.8308 31.0701 33.6215 30.7526 33.2841L26.9885 35.6049C26.9961 35.6663 27 35.7288 27 35.7923C27 36.5867 26.3844 37.2308 25.625 37.2308C25.319 37.2308 25.0364 37.1262 24.8079 36.9494L20.2492 39.7602C20.2267 40.3894 19.732 40.8923 19.125 40.8923C18.5037 40.8923 18 40.3654 18 39.7154C18 39.0654 18.5037 38.5385 19.125 38.5385C19.3939 38.5385 19.6407 38.6371 19.8342 38.8017L24.2745 36.064C24.2584 35.976 24.25 35.8852 24.25 35.7923C24.25 34.9979 24.8656 34.3538 25.625 34.3538C25.9603 34.3538 26.2675 34.4794 26.5061 34.688L30.2836 32.3589C30.2616 32.2428 30.25 32.1228 30.25 32C30.25 31.8362 30.2706 31.6774 30.3091 31.5264L26.5286 29.0305C26.2869 29.251 25.9709 29.3846 25.625 29.3846C25.2733 29.3846 24.9523 29.2464 24.7092 29.0191L20.2498 31.89C20.2392 32.5304 19.7397 33.0462 19.125 33.0462C18.5037 33.0462 18 32.5192 18 31.8692C18 31.2192 18.5037 30.6923 19.125 30.6923C19.3857 30.6923 19.6257 30.7851 19.8164 30.9407L24.2561 28.0825C24.2521 28.0376 24.25 27.9921 24.25 27.9462C24.25 27.1517 24.8656 26.5077 25.625 26.5077C26.3844 26.5077 27 27.1517 27 27.9462C27 27.998 26.9974 28.0491 26.9922 28.0995L30.8334 30.6354C31.143 30.3455 31.5518 30.1692 32 30.1692C32.4313 30.1692 32.8262 30.3325 33.1312 30.6031L37.022 28.2041C37.0076 28.1205 37 28.0342 37 27.9462C37 27.1517 37.6156 26.5077 38.375 26.5077C38.7055 26.5077 39.0088 26.6297 39.2459 26.833L43.7504 24.0556L43.7501 24.0373L43.75 24.0231C43.75 23.3731 44.2537 22.8462 44.875 22.8462C45.4963 22.8462 46 23.3731 46 24.0231Z" fill="#3F3FC2"/>
<path d="M46 39.7154C46 40.3654 45.4963 40.8923 44.875 40.8923C44.6526 40.8923 44.4453 40.8248 44.2708 40.7084L39.7383 43.8087C39.6595 44.378 39.1911 44.8154 38.625 44.8154C38.1241 44.8154 37.6996 44.4729 37.554 43.9996L32.8561 40.7232C32.6066 40.989 32.2592 41.1538 31.875 41.1538C31.5732 41.1538 31.2941 41.0521 31.0674 40.8797L26.7498 43.6592C26.7392 44.2997 26.2397 44.8154 25.625 44.8154C25.0037 44.8154 24.5 44.2885 24.5 43.6385C24.5 42.9885 25.0037 42.4615 25.625 42.4615C25.8857 42.4615 26.1257 42.5543 26.3164 42.71L30.5268 39.9994C30.5092 39.9075 30.5 39.8126 30.5 39.7154C30.5 38.921 31.1156 38.2769 31.875 38.2769C32.6344 38.2769 33.25 38.921 33.25 39.7154L33.2498 39.7404L37.7599 42.886C37.9663 42.6266 38.2772 42.4615 38.625 42.4615C38.9268 42.4615 39.2009 42.5859 39.4029 42.7882L43.7537 39.8121C43.7512 39.7802 43.75 39.748 43.75 39.7154C43.75 39.0654 44.2537 38.5385 44.875 38.5385C45.4963 38.5385 46 39.0654 46 39.7154Z" fill="#3F3FC2"/>
<path d="M31.875 49C32.4963 49 33 48.4731 33 47.8231C33 47.1731 32.4963 46.6462 31.875 46.6462C31.2537 46.6462 30.75 47.1731 30.75 47.8231C30.75 48.4731 31.2537 49 31.875 49Z" fill="#3F3FC2"/>
<defs>
<radialGradient id="paint0_radial" cx="0" cy="0" r="1" gradientUnits="userSpaceOnUse" gradientTransform="translate(32 32) rotate(90) scale(32)">
<stop stop-opacity="0"/>
<stop offset="1" stop-color="white"/>
</radialGradient>
<linearGradient id="paint1_linear" x1="32" y1="0" x2="32" y2="64" gradientUnits="userSpaceOnUse">
<stop stop-color="#4B4C4D"/>
<stop offset="1" stop-opacity="0"/>
</linearGradient>
</defs>
</svg>
