<svg xmlns="http://www.w3.org/2000/svg" width="19" height="19" viewBox="0 0 19 19"><defs><style>.a{fill:#2c8389;}.b{fill:#e8e9e9;}</style></defs><g transform="translate(-0.234)"><g transform="translate(0.234)"><g transform="translate(0)"><rect class="a" width="19" height="19" rx="6"/></g></g><g transform="translate(-62.206 -61.395)"><path class="b" d="M71.474,64.485l4.475,1.89a1.053,1.053,0,0,1,.659.963v3.983H75.5V68.33l-3.746,1.583v6.032l-.279.1a1.161,1.161,0,0,1-.9,0L66.1,74.16a1.053,1.053,0,0,1-.659-.963V67.338a1.053,1.053,0,0,1,.659-.963l4.476-1.889a1.161,1.161,0,0,1,.9,0ZM66.5,68.2v5.039l4.2,1.772v-5.16L66.5,68.2Zm4.525-2.843-4.291,1.813,4.571,1.8,4.133-1.707-4.413-1.9Z" transform="translate(0)"/><path class="b" d="M595.011,591.64a2.5,2.5,0,1,0,2.5,2.5A2.493,2.493,0,0,0,595.011,591.64Zm1.471,2.5a1.471,1.471,0,1,1-1.471-1.471A1.473,1.473,0,0,1,596.483,594.142Zm0,0" transform="translate(-519.888 -520.05)"/></g></g></svg>