<svg xmlns="http://www.w3.org/2000/svg" width="102.801" height="106" viewBox="0 0 102.801 106">
  <defs>
    <style>
      .cls-1, .cls-2, .cls-3 {
        fill: #2c8389;
      }

      .cls-1 {
        opacity: 0.2;
      }

      .cls-2 {
        opacity: 0.1;
      }

      .cls-3 {
        opacity: 0.5;
      }
    </style>
  </defs>
  <g id="组_66175" data-name="组 66175" transform="translate(-87.552 -81.92)">
    <path id="路径_52578" data-name="路径 52578" class="cls-1" d="M293.122,245.76h-56.45a6.291,6.291,0,0,0-6.272,6.272v56.45a6.291,6.291,0,0,0,6.272,6.272h32.49a22.53,22.53,0,0,1,20.2-32.615,21.536,21.536,0,0,1,10.036,2.383v-32.49A6.291,6.291,0,0,0,293.122,245.76Zm-22.893,28.35-13.987,17.06-2.634-2.572v0l-2.634,2.572v-5.143l16.308-10.475-18.064,8.781-4.7-4.391v-.564l25.716-5.9v.627ZM288.1,262.695H241.69a1.882,1.882,0,0,1,0-3.763H288.1a1.882,1.882,0,1,1,0,3.763Z" transform="translate(-125.349 -143.769)"/>
    <path id="路径_52579" data-name="路径 52579" class="cls-2" d="M102.4,851.072c0,3.464,22.465,6.272,50.177,6.272s50.177-2.808,50.177-6.272S180.29,844.8,152.577,844.8,102.4,847.608,102.4,851.072Z" transform="translate(-13.029 -669.424)"/>
    <path id="路径_52580" data-name="路径 52580" class="cls-3" d="M185.21,165.716a1.882,1.882,0,1,0,1.882-1.882A1.887,1.887,0,0,0,185.21,165.716Zm5.143,8.091c-2.383.627-2.885,1.129-3.45,3.45-.627-2.383-1.129-2.885-3.45-3.45,2.321-.627,2.885-1.129,3.45-3.45C187.468,172.679,187.97,173.243,190.353,173.808ZM96.584,97.036c-3.073.815-3.7,1.443-4.516,4.516-.815-3.073-1.443-3.7-4.516-4.516,3.073-.815,3.7-1.505,4.516-4.516C92.821,95.593,93.511,96.221,96.584,97.036Zm91.574-.125c-1.882.5-2.258.878-2.76,2.76-.5-1.882-.878-2.258-2.76-2.76,1.882-.5,2.258-.878,2.76-2.76C185.837,96.032,186.276,96.409,188.158,96.911Zm-1.317-7.778c-4.892,1.254-5.9,2.321-7.213,7.213-1.254-4.892-2.321-5.9-7.213-7.213,4.892-1.254,5.9-2.321,7.213-7.213C180.882,86.75,181.948,87.816,186.841,89.133ZM164.01,179.139A18.189,18.189,0,1,1,182.2,160.95,18.2,18.2,0,0,1,164.01,179.139Zm0-32.615a14.426,14.426,0,1,0,14.426,14.426A14.428,14.428,0,0,0,164.01,146.523Z"/>
    <path id="路径_52581" data-name="路径 52581" class="cls-3" d="M706.983,652.544H698.2a1.848,1.848,0,0,1-1.882-1.882v-8.781a1.882,1.882,0,1,1,3.763,0v6.9h6.9a1.882,1.882,0,0,1,0,3.763Z" transform="translate(-534.192 -489.713)"/>
    <path id="路径_52582" data-name="路径 52582" class="cls-3" d="M208.686,264.5h-30.42a14.428,14.428,0,0,1-14.426-14.426v-56.45A14.428,14.428,0,0,1,178.266,179.2h56.45a14.428,14.428,0,0,1,14.426,14.426v30.42a1.882,1.882,0,0,1-3.763,0v-30.42a10.654,10.654,0,0,0-10.663-10.663h-56.45A10.654,10.654,0,0,0,167.6,193.626v56.45a10.654,10.654,0,0,0,10.663,10.663h30.42a1.882,1.882,0,0,1,0,3.763Z" transform="translate(-66.942 -85.363)"/>
  </g>
</svg>
