<svg id="AcSwap-NFT_2_" data-name="AcSwap-NFT(2)" xmlns="http://www.w3.org/2000/svg" xmlns:xlink="http://www.w3.org/1999/xlink" width="70" height="70" viewBox="0 0 70 70">
  <defs>
    <style>
      .cls-1 {
        fill: none;
      }

      .cls-2 {
        fill: #8d6f3d;
      }

      .cls-3 {
        fill: url(#linear-gradient);
      }

      .cls-4 {
        fill: #a88446;
      }

      .cls-5 {
        fill: url(#linear-gradient-2);
      }

      .cls-6 {
        fill: #a8793b;
      }

      .cls-7 {
        fill: #caa54d;
      }

      .cls-8 {
        opacity: 0.8;
      }

      .cls-9 {
        fill: url(#linear-gradient-3);
      }

      .cls-10 {
        fill: url(#linear-gradient-4);
      }

      .cls-11 {
        fill: url(#linear-gradient-5);
      }

      .cls-12 {
        fill: url(#linear-gradient-6);
      }

      .cls-13 {
        fill: url(#linear-gradient-7);
      }

      .cls-14 {
        fill: url(#linear-gradient-8);
      }

      .cls-15 {
        fill: url(#linear-gradient-9);
      }

      .cls-16 {
        fill: url(#linear-gradient-10);
      }

      .cls-17 {
        fill: url(#linear-gradient-11);
      }

      .cls-18 {
        fill: url(#linear-gradient-12);
      }

      .cls-19 {
        fill: url(#linear-gradient-13);
      }

      .cls-20 {
        fill: url(#linear-gradient-14);
      }

      .cls-21 {
        fill: url(#linear-gradient-15);
      }

      .cls-22 {
        fill: url(#linear-gradient-16);
      }

      .cls-23 {
        fill: url(#linear-gradient-17);
      }

      .cls-24 {
        fill: url(#linear-gradient-18);
      }

      .cls-25 {
        fill: url(#linear-gradient-19);
      }

      .cls-26 {
        opacity: 0.6;
      }

      .cls-27 {
        fill: url(#linear-gradient-20);
      }

      .cls-28 {
        fill: url(#linear-gradient-21);
      }

      .cls-29 {
        fill: url(#linear-gradient-22);
      }

      .cls-30 {
        fill: url(#linear-gradient-23);
      }

      .cls-31 {
        fill: url(#linear-gradient-24);
      }

      .cls-32 {
        fill: url(#linear-gradient-25);
      }

      .cls-33 {
        fill: url(#linear-gradient-27);
      }

      .cls-34 {
        fill: url(#linear-gradient-28);
      }

      .cls-35 {
        fill: url(#linear-gradient-29);
      }

      .cls-36 {
        fill: url(#linear-gradient-30);
      }

      .cls-37 {
        fill: url(#linear-gradient-31);
      }

      .cls-38 {
        fill: url(#linear-gradient-32);
      }

      .cls-39 {
        fill: url(#linear-gradient-33);
      }

      .cls-40 {
        fill: url(#linear-gradient-34);
      }

      .cls-41 {
        fill: url(#linear-gradient-35);
      }

      .cls-42 {
        fill: url(#linear-gradient-36);
      }

      .cls-43 {
        fill: #a78345;
      }

      .cls-44 {
        fill: #f8e5a0;
      }

      .cls-45 {
        fill: #fff;
      }

      .cls-46 {
        fill: url(#linear-gradient-37);
      }

      .cls-47 {
        fill: url(#linear-gradient-38);
      }

      .cls-48 {
        fill: url(#linear-gradient-39);
      }

      .cls-49 {
        fill: url(#linear-gradient-40);
      }

      .cls-50 {
        fill: url(#linear-gradient-42);
      }

      .cls-51 {
        fill: url(#linear-gradient-43);
      }

      .cls-52 {
        clip-path: url(#clip-path);
      }

      .cls-53 {
        fill: #6b7b94;
      }

      .cls-54 {
        fill: #fffffd;
      }

      .cls-55 {
        fill: url(#linear-gradient-44);
      }

      .cls-56 {
        fill: #c6d1db;
      }

      .cls-57 {
        fill: #a2aebe;
      }

      .cls-58 {
        fill: #6a7c94;
      }

      .cls-59 {
        fill: url(#linear-gradient-45);
      }
    </style>
    <linearGradient id="linear-gradient" x1="0.128" y1="0.264" x2="0.973" y2="0.8" gradientUnits="objectBoundingBox">
      <stop offset="0" stop-color="#f0da91"/>
      <stop offset="0.25" stop-color="#f0db93"/>
      <stop offset="0.33" stop-color="#f2dd9a"/>
      <stop offset="0.4" stop-color="#f4e1a5"/>
      <stop offset="0.45" stop-color="#f7e7b6"/>
      <stop offset="0.47" stop-color="#f9ebc0"/>
      <stop offset="0.47" stop-color="#f8eabe"/>
      <stop offset="0.53" stop-color="#f1dea7"/>
      <stop offset="0.6" stop-color="#ebd595"/>
      <stop offset="0.68" stop-color="#e7ce88"/>
      <stop offset="0.78" stop-color="#e5ca80"/>
      <stop offset="1" stop-color="#e4c97e"/>
    </linearGradient>
    <linearGradient id="linear-gradient-2" x1="0.131" y1="0.251" x2="0.961" y2="0.811" gradientUnits="objectBoundingBox">
      <stop offset="0.01" stop-color="#fceba6"/>
      <stop offset="0.03" stop-color="#fae8a2"/>
      <stop offset="0.1" stop-color="#eed88f"/>
      <stop offset="0.17" stop-color="#e7ce84"/>
      <stop offset="0.25" stop-color="#e5cb80"/>
      <stop offset="0.57" stop-color="#cda953"/>
      <stop offset="0.58" stop-color="#cca852"/>
      <stop offset="0.83" stop-color="#bd993f"/>
      <stop offset="1" stop-color="#b89338"/>
    </linearGradient>
    <linearGradient id="linear-gradient-3" x1="-0.001" y1="0.501" x2="1" y2="0.501" xlink:href="#linear-gradient"/>
    <linearGradient id="linear-gradient-4" x1="0" y1="0.5" x2="1" y2="0.5" xlink:href="#linear-gradient"/>
    <linearGradient id="linear-gradient-5" x1="0" y1="0.5" x2="1.001" y2="0.5" xlink:href="#linear-gradient"/>
    <linearGradient id="linear-gradient-6" x1="0" y1="0.5" x2="0.999" y2="0.5" xlink:href="#linear-gradient"/>
    <linearGradient id="linear-gradient-7" x1="0" y1="0.5" x2="1" y2="0.5" xlink:href="#linear-gradient"/>
    <linearGradient id="linear-gradient-8" x1="-0.001" y1="0.501" x2="1" y2="0.501" xlink:href="#linear-gradient"/>
    <linearGradient id="linear-gradient-9" x1="0" y1="0.5" x2="0.999" y2="0.5" xlink:href="#linear-gradient"/>
    <linearGradient id="linear-gradient-10" x1="0" y1="0.5" x2="1" y2="0.5" xlink:href="#linear-gradient"/>
    <linearGradient id="linear-gradient-11" x1="0" y1="0.5" x2="1" y2="0.5" xlink:href="#linear-gradient"/>
    <linearGradient id="linear-gradient-12" x1="0" y1="0.5" x2="0.999" y2="0.5" xlink:href="#linear-gradient"/>
    <linearGradient id="linear-gradient-13" x1="0" y1="0.5" x2="1" y2="0.5" xlink:href="#linear-gradient"/>
    <linearGradient id="linear-gradient-14" x1="-0.001" y1="0.5" x2="0.999" y2="0.5" xlink:href="#linear-gradient"/>
    <linearGradient id="linear-gradient-15" x1="0" y1="0.5" x2="1" y2="0.5" xlink:href="#linear-gradient"/>
    <linearGradient id="linear-gradient-16" x1="0" y1="0.499" x2="1" y2="0.499" xlink:href="#linear-gradient"/>
    <linearGradient id="linear-gradient-17" x1="-0.002" y1="0.5" x2="1" y2="0.5" xlink:href="#linear-gradient"/>
    <linearGradient id="linear-gradient-18" x1="0" y1="0.5" x2="1" y2="0.5" xlink:href="#linear-gradient"/>
    <linearGradient id="linear-gradient-19" x1="0" y1="0.499" x2="1" y2="0.499" xlink:href="#linear-gradient"/>
    <linearGradient id="linear-gradient-20" x1="0" y1="0.5" x2="1" y2="0.5" xlink:href="#linear-gradient-2"/>
    <linearGradient id="linear-gradient-21" x1="0" y1="0.499" x2="1" y2="0.499" xlink:href="#linear-gradient-2"/>
    <linearGradient id="linear-gradient-22" x1="0" y1="0.5" x2="0.999" y2="0.5" xlink:href="#linear-gradient-2"/>
    <linearGradient id="linear-gradient-23" x1="0" y1="0.5" x2="1" y2="0.5" xlink:href="#linear-gradient-2"/>
    <linearGradient id="linear-gradient-24" x1="0" y1="0.5" x2="1" y2="0.5" xlink:href="#linear-gradient-2"/>
    <linearGradient id="linear-gradient-25" x1="0" y1="0.5" x2="1" y2="0.5" xlink:href="#linear-gradient-2"/>
    <linearGradient id="linear-gradient-27" x1="-0.001" y1="0.501" x2="1" y2="0.501" xlink:href="#linear-gradient-2"/>
    <linearGradient id="linear-gradient-28" x1="0" y1="0.5" x2="0.999" y2="0.5" xlink:href="#linear-gradient-2"/>
    <linearGradient id="linear-gradient-29" x1="0" y1="0.5" x2="1" y2="0.5" xlink:href="#linear-gradient-2"/>
    <linearGradient id="linear-gradient-30" x1="0" y1="0.5" x2="1" y2="0.5" xlink:href="#linear-gradient-2"/>
    <linearGradient id="linear-gradient-31" x1="0" y1="0.5" x2="1.002" y2="0.5" xlink:href="#linear-gradient-2"/>
    <linearGradient id="linear-gradient-32" x1="0" y1="0.499" x2="1" y2="0.499" xlink:href="#linear-gradient-2"/>
    <linearGradient id="linear-gradient-33" x1="0" y1="0.5" x2="1" y2="0.5" xlink:href="#linear-gradient-2"/>
    <linearGradient id="linear-gradient-34" x1="0" y1="0.5" x2="1" y2="0.5" xlink:href="#linear-gradient-2"/>
    <linearGradient id="linear-gradient-35" x1="0" y1="0.5" x2="1" y2="0.5" xlink:href="#linear-gradient-2"/>
    <linearGradient id="linear-gradient-36" x1="0" y1="0.5" x2="1" y2="0.5" xlink:href="#linear-gradient-2"/>
    <linearGradient id="linear-gradient-37" x1="0" y1="0.5" x2="1" y2="0.5" xlink:href="#linear-gradient"/>
    <linearGradient id="linear-gradient-38" x1="0.002" y1="0.501" x2="1.002" y2="0.501" xlink:href="#linear-gradient"/>
    <linearGradient id="linear-gradient-39" x1="-0.003" y1="0.501" x2="0.997" y2="0.501" xlink:href="#linear-gradient"/>
    <linearGradient id="linear-gradient-40" x1="0" y1="0.501" x2="1" y2="0.501" xlink:href="#linear-gradient"/>
    <linearGradient id="linear-gradient-42" x1="0" y1="0.5" x2="1" y2="0.5" xlink:href="#linear-gradient"/>
    <linearGradient id="linear-gradient-43" x1="0.137" y1="0.217" x2="0.926" y2="0.832" gradientUnits="objectBoundingBox">
      <stop offset="0" stop-color="#fff"/>
      <stop offset="1" stop-color="#96a2b0"/>
    </linearGradient>
    <clipPath id="clip-path">
      <ellipse id="椭圆_548" data-name="椭圆 548" class="cls-1" cx="24.66" cy="24.805" rx="24.66" ry="24.805"/>
    </clipPath>
    <linearGradient id="linear-gradient-44" x1="0.009" y1="0.415" x2="0.972" y2="0.592" gradientUnits="objectBoundingBox">
      <stop offset="0" stop-color="#bcc7d3"/>
      <stop offset="1" stop-color="#7f97ad"/>
    </linearGradient>
    <linearGradient id="linear-gradient-45" x1="0.139" y1="0.281" x2="0.792" y2="1.078" gradientUnits="objectBoundingBox">
      <stop offset="0.01" stop-color="#e8e9ee"/>
      <stop offset="0.22" stop-color="#eaebef"/>
      <stop offset="0.3" stop-color="#f1f1f2"/>
      <stop offset="0.32" stop-color="#f4f4f4"/>
      <stop offset="0.35" stop-color="#f0f0f1"/>
      <stop offset="0.48" stop-color="#e3e5e9"/>
      <stop offset="0.65" stop-color="#dbdee4"/>
      <stop offset="1" stop-color="#d9dce3"/>
    </linearGradient>
  </defs>
  <ellipse id="椭圆_544" data-name="椭圆 544" class="cls-2" cx="34.37" cy="34.62" rx="34.37" ry="34.62" transform="translate(1.261 0.759)"/>
  <ellipse id="椭圆_545" data-name="椭圆 545" class="cls-3" cx="34.37" cy="34.62" rx="34.37" ry="34.62" transform="translate(0 0)"/>
  <path id="路径_52342" data-name="路径 52342" class="cls-4" d="M98.72,127.283a31.523,31.523,0,1,1,29.217-20.123A31.892,31.892,0,1,0,98.3,127.346a31.8,31.8,0,0,0,5.738-.52A31.223,31.223,0,0,1,98.72,127.283Z" transform="translate(-63.935 -60.55)"/>
  <ellipse id="椭圆_546" data-name="椭圆 546" class="cls-5" cx="31.405" cy="31.655" rx="31.405" ry="31.655" transform="translate(3.331 3.371)"/>
  <path id="路径_52343" data-name="路径 52343" class="cls-6" d="M461.586,372.921c-.076.225-.153.45-.21.619a2.277,2.277,0,0,0,2.532-.36c.585-.6,1.134-1.242,1.737-1.906-.155-.013-.287-.025-.42-.034a4.277,4.277,0,0,0-3.465,1.21c.689-1.434-.056-2.539-.885-3.751-.272.94-.517,1.77-.752,2.6-.28,1.015.618,1.541.98,2.256Z" transform="translate(-402.816 -323.316)"/>
  <path id="路径_52344" data-name="路径 52344" class="cls-6" d="M422,143.93a10.632,10.632,0,0,1,1.314.772c.923.744,1.839,1.413,3.116.789.1-.049.245-.007.339-.06a1.51,1.51,0,0,0,.482-.37c.1-.14.071-.357.161-.506a2.156,2.156,0,0,0-.01-2.248c-.331-.643-.689-1.272-1.09-2.007-.473,1.3-.98,2.55-.248,3.944C424.755,143.278,423.423,143.579,422,143.93Z" transform="translate(-370.015 -126.989)"/>
  <path id="路径_52345" data-name="路径 52345" class="cls-6" d="M445.762,165.727a2.582,2.582,0,0,1,.307-.88,1.731,1.731,0,0,0,.364-1.807c-.263-.79-.56-1.569-.882-2.451-.709,1.245-1.373,2.416-.618,3.965a4.8,4.8,0,0,0-3.563-1.164,9.6,9.6,0,0,0,.752,1.275c.775.786,1.64,1.487,2.915,1.071A2.571,2.571,0,0,1,445.762,165.727Z" transform="translate(-386.736 -144.43)"/>
  <path id="路径_52346" data-name="路径 52346" class="cls-6" d="M433.824,406.33c-.36.572-.7,1.036-.959,1.541a2.633,2.633,0,0,0-.388,2.423c.154.338.248.7.361,1.025a2.627,2.627,0,0,1,.866.133,1.928,1.928,0,0,0,2.063-.127c.662-.408,1.338-.84,2.081-1.307a4.293,4.293,0,0,0-3.93.112A4.154,4.154,0,0,0,433.824,406.33Z" transform="translate(-378.885 -355.661)"/>
  <path id="路径_52347" data-name="路径 52347" class="cls-6" d="M485.857,282.934a4.107,4.107,0,0,0-2.826,2.712,4.083,4.083,0,0,0-2.681-2.776,13.679,13.679,0,0,1,.317,1.471,2.56,2.56,0,0,0,1.553,2.347,4.082,4.082,0,0,1,.752.548,3.441,3.441,0,0,1,.8-.5,1.891,1.891,0,0,0,1.321-1.244C485.371,284.7,485.578,283.885,485.857,282.934Z" transform="translate(-420.256 -249.54)"/>
  <path id="路径_52348" data-name="路径 52348" class="cls-6" d="M482.744,328.031a3.8,3.8,0,0,0-3.361,2.23,3.726,3.726,0,0,0-1.828-3.63,5.055,5.055,0,0,1-.013,1.113,2.77,2.77,0,0,0,1.027,3.189,2.692,2.692,0,0,1,.458.578,2.213,2.213,0,0,1,.755-.289,2.152,2.152,0,0,0,2.01-1.293C482.12,329.354,482.387,328.746,482.744,328.031Z" transform="translate(-417.733 -287.154)"/>
  <path id="路径_52349" data-name="路径 52349" class="cls-6" d="M480.68,304.46c.06.529.111.861.133,1.195.024.368-.017.742.038,1.105a2.693,2.693,0,0,0,1.922,2.154,2.484,2.484,0,0,0,2.381-1.4c.375-.737.653-1.522,1.011-2.381-1.315.482-2.563.936-3.174,2.333C482.851,306.03,481.872,305.292,480.68,304.46Z" transform="translate(-420.54 -268.098)"/>
  <path id="路径_52350" data-name="路径 52350" class="cls-6" d="M415,428.347a5.085,5.085,0,0,1,.865.335,2.073,2.073,0,0,0,2.09.129c.761-.351,1.506-.731,2.293-1.12-1.3-.536-2.6-1.039-4.062-.228.906-1.4,1.018-2.93.374-3.782-.267.34-.56.686-.822,1.051-.643.888-1.392,1.748-.745,2.962C415.084,427.878,415,428.141,415,428.347Z" transform="translate(-363.772 -370.575)"/>
  <path id="路径_52351" data-name="路径 52351" class="cls-6" d="M472.244,352.753a3.433,3.433,0,0,0-1.4-3.573c-.108.438-.258.895-.328,1.363a2.889,2.889,0,0,0,.3,2.4c.3.388.65.742.936,1.064a9.672,9.672,0,0,0,1.148-.2,2.817,2.817,0,0,0,1.227-.506A28.389,28.389,0,0,0,475.912,351C474.405,351.116,473.034,351.326,472.244,352.753Z" transform="translate(-411.7 -306.538)"/>
  <path id="路径_52352" data-name="路径 52352" class="cls-6" d="M453.2,391.988c-.665-.6-2.7-.331-3.709.542.377-1.734.154-2.976-.635-3.72a14.5,14.5,0,0,0-.741,1.669,3.435,3.435,0,0,0-.248,1.8,2.7,2.7,0,0,0,1.175,1.391,1.8,1.8,0,0,0,2.182-.066C451.889,393.062,452.55,392.523,453.2,391.988Z" transform="translate(-392.283 -340.602)"/>
  <path id="路径_52353" data-name="路径 52353" class="cls-6" d="M452.83,184.2c1.108,1.193,1.766,3.112,4.025,2.392-.01-.123-.02-.252-.021-.256a2,2,0,0,0,.616-.192,1.684,1.684,0,0,0,.775-1.671c-.167-.923-.382-1.836-.606-2.889-.817,1.252-1.657,2.361-1.17,3.9C455.515,184.276,454.2,184.174,452.83,184.2Z" transform="translate(-396.591 -162.472)"/>
  <path id="路径_52354" data-name="路径 52354" class="cls-6" d="M397.644,437.35c-.43.43-.77.761-1.1,1.1-.762.784-1.445,1.6-1.111,2.8a2.749,2.749,0,0,1,0,.679,2.562,2.562,0,0,1,.748.346,2.3,2.3,0,0,0,2.573.3c.618-.211,1.233-.43,1.961-.686a12.122,12.122,0,0,0-1.867-.779,11.2,11.2,0,0,0-1.94-.157A4.262,4.262,0,0,0,397.644,437.35Z" transform="translate(-347.075 -382.3)"/>
  <path id="路径_52355" data-name="路径 52355" class="cls-6" d="M463.16,207.9c.3.492.583.957.873,1.417.648,1.035,1.45,1.783,2.86,1.4-.013-.16-.025-.331-.046-.622l.406.528a2.1,2.1,0,0,0,1.311-2.071c-.06-.81-.186-1.615-.3-2.528a4.244,4.244,0,0,0-1.616,3.579A4.006,4.006,0,0,0,463.16,207.9Z" transform="translate(-405.474 -183.481)"/>
  <path id="路径_52356" data-name="路径 52356" class="cls-6" d="M475.075,235.438c.13-.158.181-.28.272-.322,1.473-.692,1.458-1.943,1.314-3.263a7.085,7.085,0,0,1,.055-1.1,4.344,4.344,0,0,0-2.046,3.346,4.235,4.235,0,0,0-3.3-2.1c.2.409.412.763.552,1.143.539,1.462,1.224,2.3,2.866,2.158l-.038-.7.08-.01Z" transform="translate(-412.534 -204.738)"/>
  <path id="路径_52357" data-name="路径 52357" class="cls-6" d="M477.4,261.34c.167.525.337,1.035.492,1.55a2.5,2.5,0,0,0,1.9,2c.52.115.549-.074.56-.465C480.4,262.833,479.375,261.914,477.4,261.34Z" transform="translate(-417.72 -231.034)"/>
  <path id="路径_52358" data-name="路径 52358" class="cls-6" d="M501.683,257.71c-1.971.86-2.661,2.262-2.109,4.144.881-.352,1.665-.789,1.812-1.828C501.493,259.291,501.577,258.538,501.683,257.71Z" transform="translate(-436.63 -227.913)"/>
  <path id="路径_52359" data-name="路径 52359" class="cls-6" d="M422.073,134.91c-.2,1.634,1.226,3.609,2.93,3.472.171-1.5-.653-2.343-1.961-2.891A7.885,7.885,0,0,1,422.073,134.91Z" transform="translate(-370.051 -122.357)"/>
  <path id="路径_52360" data-name="路径 52360" class="cls-7" d="M102.825,372.109l.433.573c1.885-1.457.758-3.073.249-4.752-.84,1.146-1.427,2.265-.955,3.641a4.1,4.1,0,0,0-3.5-1.134c.161.245.391.588.612.937.8,1.252,1.836,1.922,3.389,1.361C102.974,372.532,102.9,372.321,102.825,372.109Z" transform="translate(-92.029 -322.654)"/>
  <path id="路径_52361" data-name="路径 52361" class="cls-7" d="M135.609,144.1c.65-1.485.48-3.265-.211-3.955-.262.475-.527.972-.805,1.459a2.435,2.435,0,0,0-.178,2.742,3.239,3.239,0,0,0,1.154.936,1.86,1.86,0,0,0,1.88-.158c.747-.476,1.48-.971,2.277-1.5C138.346,143.286,137.01,143,135.609,144.1Z" transform="translate(-122.198 -126.851)"/>
  <path id="路径_52362" data-name="路径 52362" class="cls-7" d="M119.605,160.48c-.206.452-.42.873-.59,1.308a2.932,2.932,0,0,0-.246,2.335c.2.464.464.9.7,1.363a2.655,2.655,0,0,1,.9.017,1.782,1.782,0,0,0,1.832-.4c.665-.532,1.3-1.1,2.074-1.775-1.525-.14-2.864-.2-4.024.955A3.633,3.633,0,0,0,119.605,160.48Z" transform="translate(-108.849 -144.335)"/>
  <path id="路径_52363" data-name="路径 52363" class="cls-7" d="M129.768,409.05c-1.891-.6-3.181-.553-3.768.05.366.238.738.486,1.12.727.783.5,1.528,1.111,2.577.773.408-.132.826-.228,1.195-.329.094-.272.21-.56.289-.854.092-.352.31-.769.2-1.059-.387-1.025-.888-2.008-1.346-3.008A3.685,3.685,0,0,0,129.768,409.05Z" transform="translate(-115.259 -354.819)"/>
  <path id="路径_52364" data-name="路径 52364" class="cls-7" d="M80.745,286.046c1.681-1.765,1.681-1.765,2.611-4.356a4.165,4.165,0,0,0-2.734,2.831c-.447-1.45-1.719-2.618-2.712-2.616.12.549.2,1.114.37,1.647a2.689,2.689,0,0,0,1.35,1.934C80.005,285.655,80.361,285.853,80.745,286.046Z" transform="translate(-73.85 -248.525)"/>
  <path id="路径_52365" data-name="路径 52365" class="cls-7" d="M85.268,328.739c-1.111-1.534-2.35-2.254-3.268-1.972.16.343.307.7.487,1.038.447.86.814,1.8,1.976,1.98.4.064.8.179,1.186.269a4.965,4.965,0,0,1,.714-.74,1.831,1.831,0,0,0,.805-1.464c.039-.856.01-1.714.01-2.661C85.934,326.113,85.081,327.134,85.268,328.739Z" transform="translate(-77.367 -285.916)"/>
  <path id="路径_52366" data-name="路径 52366" class="cls-7" d="M80.308,307.168c-.934-1.489-2.305-2.417-3.2-2.286.182.352.385.7.56,1.071.218.482.394.98.618,1.464a1.975,1.975,0,0,0,2.153,1.027,1.945,1.945,0,0,0,1.752-1.391c.22-.922.293-1.878.43-2.819l-.193-.084A3.934,3.934,0,0,0,80.308,307.168Z" transform="translate(-73.162 -267.832)"/>
  <path id="路径_52367" data-name="路径 52367" class="cls-7" d="M147.086,425.923c-1.471-.777-2.766-.31-4.016.255.548.27,1.063.514,1.569.777a2.578,2.578,0,0,0,2.538.329c.359-.183.741-.325,1.049-.458a4.206,4.206,0,0,1,.171-.919,1.616,1.616,0,0,0-.154-1.65c-.5-.731-1.022-1.452-1.534-2.178A3.674,3.674,0,0,0,147.086,425.923Z" transform="translate(-129.951 -369.199)"/>
  <path id="路径_52368" data-name="路径 52368" class="cls-7" d="M92.3,352.091c.15-.244.24-.548.445-.693a1.975,1.975,0,0,0,.817-2.013c-.094-.751-.255-1.493-.4-2.305-1.043,1.074-1.783,2.17-1.354,3.747-1.137-1.352-2.626-2-3.576-1.681.3.45.605.92.919,1.387a2.341,2.341,0,0,0,2.179,1.356A3.981,3.981,0,0,1,92.3,352.091Z" transform="translate(-82.724 -304.732)"/>
  <path id="路径_52369" data-name="路径 52369" class="cls-7" d="M109.9,389.925c.486.448.86.814,1.261,1.154.818.7,1.661,1.367,2.833.734.169-.091.254-.329.42-.42.926-.518,1.221-1.022.936-1.987-.258-.87-.644-1.7-1.01-2.646a3.925,3.925,0,0,0-.506,4C112.6,389.536,111.277,389.759,109.9,389.925Z" transform="translate(-101.359 -338.839)"/>
  <path id="路径_52370" data-name="路径 52370" class="cls-7" d="M107.226,185.422c.231-1.587-.374-3.354-1.272-3.782a5.01,5.01,0,0,1-.049.786c-.06.268-.227.514-.28.783a4.081,4.081,0,0,0-.182,1.429,3.87,3.87,0,0,0,.66,1.329c.2.3.634.371.936.535a1.612,1.612,0,0,0,1.857-.227c.713-.661,1.353-1.4,2.024-2.1l-.122-.165C109.474,184.088,108.155,184.172,107.226,185.422Z" transform="translate(-97.509 -162.524)"/>
  <path id="路径_52371" data-name="路径 52371" class="cls-7" d="M169.631,440.572a2.474,2.474,0,0,1,.008-.626,2.143,2.143,0,0,0-.493-2.073c-.534-.606-1.094-1.191-1.714-1.863a4.408,4.408,0,0,0,.84,3.8,4.006,4.006,0,0,0-3.733.856c.4.133.826.269,1.249.42.909.331,1.808.738,2.766.14C168.885,441.02,169.226,440.82,169.631,440.572Z" transform="translate(-148.429 -381.148)"/>
  <path id="路径_52372" data-name="路径 52372" class="cls-7" d="M96.982,208.67a4.139,4.139,0,0,0-1.585-3.56c-.105.724-.206,1.35-.289,1.979a2.259,2.259,0,0,0,1.1,2.5c.056.032.113.06.168.09l.433-.472-.048.571a2.107,2.107,0,0,0,2.417-.8c.48-.637.882-1.329,1.335-2.021A4.094,4.094,0,0,0,96.982,208.67Z" transform="translate(-88.608 -182.698)"/>
  <path id="路径_52373" data-name="路径 52373" class="cls-7" d="M87.288,230a7.881,7.881,0,0,1-.008,1.209,2.757,2.757,0,0,0,1.632,3.307c.073-.235.14-.473.219-.712l.083.02-.038.651a2.281,2.281,0,0,0,2.543-1.366c.319-.6.541-1.249.821-1.913a4.213,4.213,0,0,0-3.252,2.122A4.278,4.278,0,0,0,87.288,230Z" transform="translate(-81.854 -204.094)"/>
  <path id="路径_52374" data-name="路径 52374" class="cls-7" d="M101.418,260.48c-1.871.42-3.361,1.716-2.8,3.536a2.358,2.358,0,0,0,2.332-1.982C101.089,261.5,101.268,260.973,101.418,260.48Z" transform="translate(-91.553 -230.295)"/>
  <path id="路径_52375" data-name="路径 52375" class="cls-7" d="M81.37,256.85c.186,1.664-.125,3.5,2.094,4.077A3.177,3.177,0,0,0,81.37,256.85Z" transform="translate(-76.825 -227.174)"/>
  <path id="路径_52376" data-name="路径 52376" class="cls-7" d="M156.547,134c-.7.42-1.429.812-2.109,1.273a2.379,2.379,0,0,0-.818,2.207A3.137,3.137,0,0,0,156.547,134Z" transform="translate(-139.028 -121.575)"/>
  <g id="组_66079" data-name="组 66079" class="cls-8" transform="translate(3.668 12.423)">
    <path id="路径_52377" data-name="路径 52377" class="cls-9" d="M100.825,371.129l.433.573c1.885-1.457.758-3.073.249-4.752-.84,1.146-1.427,2.265-.955,3.642a4.1,4.1,0,0,0-3.5-1.135c.161.245.391.588.612.937.8,1.254,1.836,1.922,3.389,1.361C100.974,371.552,100.9,371.341,100.825,371.129Z" transform="translate(-93.977 -334.183)"/>
    <path id="路径_52378" data-name="路径 52378" class="cls-10" d="M133.609,143.115c.65-1.485.48-3.265-.211-3.955-.262.475-.527.972-.805,1.461a2.432,2.432,0,0,0-.178,2.741,3.24,3.24,0,0,0,1.154.936,1.86,1.86,0,0,0,1.88-.158c.747-.476,1.48-.971,2.277-1.5C136.346,142.306,135.01,142.023,133.609,143.115Z" transform="translate(-124.085 -138.297)"/>
    <path id="路径_52379" data-name="路径 52379" class="cls-11" d="M117.605,159.5c-.206.452-.42.873-.59,1.308a2.933,2.933,0,0,0-.246,2.335c.2.464.464.9.7,1.363a2.654,2.654,0,0,1,.9.017,1.779,1.779,0,0,0,1.832-.4c.665-.531,1.3-1.1,2.074-1.775-1.525-.147-2.864-.2-4.024.955A3.634,3.634,0,0,0,117.605,159.5Z" transform="translate(-110.797 -155.788)"/>
    <path id="路径_52380" data-name="路径 52380" class="cls-12" d="M127.768,408.079c-1.891-.6-3.181-.56-3.768.052.366.237.738.485,1.12.726.783.5,1.528,1.111,2.577.773.408-.132.826-.228,1.195-.329.094-.272.21-.56.289-.854.092-.352.31-.769.2-1.059-.387-1.025-.888-2.008-1.346-3.007A3.682,3.682,0,0,0,127.768,408.079Z" transform="translate(-117.152 -366.371)"/>
    <path id="路径_52381" data-name="路径 52381" class="cls-13" d="M78.745,285.074c1.681-1.763,1.681-1.763,2.611-4.354a4.161,4.161,0,0,0-2.734,2.829c-.447-1.45-1.719-2.618-2.712-2.616.12.549.2,1.113.37,1.647a2.687,2.687,0,0,0,1.35,1.934C78.005,284.681,78.361,284.881,78.745,285.074Z" transform="translate(-75.798 -260.03)"/>
    <path id="路径_52382" data-name="路径 52382" class="cls-14" d="M83.268,327.742c-1.111-1.534-2.35-2.254-3.268-1.972.16.343.307.7.487,1.038.447.857.814,1.8,1.976,1.978.4.064.8.179,1.186.269a4.96,4.96,0,0,1,.714-.738,1.836,1.836,0,0,0,.805-1.465c.039-.856.01-1.713.01-2.661C83.934,325.116,83.081,326.137,83.268,327.742Z" transform="translate(-79.315 -297.412)"/>
    <path id="路径_52383" data-name="路径 52383" class="cls-15" d="M78.308,306.188c-.934-1.489-2.305-2.417-3.2-2.286.182.352.385.7.56,1.073.218.48.394.98.618,1.462a1.966,1.966,0,0,0,2.153,1.027,1.945,1.945,0,0,0,1.752-1.391c.22-.922.293-1.878.43-2.819l-.193-.084A3.934,3.934,0,0,0,78.308,306.188Z" transform="translate(-75.11 -279.336)"/>
    <path id="路径_52384" data-name="路径 52384" class="cls-16" d="M145.086,424.943c-1.471-.777-2.766-.31-4.016.255.548.27,1.063.514,1.569.777a2.578,2.578,0,0,0,2.538.329c.359-.183.741-.325,1.049-.458a4.206,4.206,0,0,1,.171-.919,1.616,1.616,0,0,0-.154-1.65c-.5-.731-1.022-1.452-1.534-2.178A3.674,3.674,0,0,0,145.086,424.943Z" transform="translate(-131.832 -380.749)"/>
    <path id="路径_52385" data-name="路径 52385" class="cls-17" d="M90.3,351.111c.15-.242.24-.548.445-.693a1.975,1.975,0,0,0,.817-2.013c-.094-.751-.255-1.493-.4-2.305-1.043,1.074-1.783,2.171-1.354,3.747-1.137-1.352-2.626-2-3.576-1.681.3.45.605.92.919,1.387a2.341,2.341,0,0,0,2.179,1.356A3.976,3.976,0,0,1,90.3,351.111Z" transform="translate(-84.673 -316.253)"/>
    <path id="路径_52386" data-name="路径 52386" class="cls-18" d="M107.9,388.945c.486.448.86.814,1.261,1.154.818.7,1.661,1.367,2.833.734.169-.091.254-.329.42-.42.926-.518,1.221-1.022.936-1.987-.258-.87-.644-1.7-1.01-2.646a3.925,3.925,0,0,0-.506,4C110.6,388.556,109.277,388.779,107.9,388.945Z" transform="translate(-103.307 -350.376)"/>
    <path id="路径_52387" data-name="路径 52387" class="cls-19" d="M105.226,184.442c.231-1.587-.374-3.354-1.272-3.782a5.007,5.007,0,0,1-.049.786c-.06.268-.227.514-.28.783a4.081,4.081,0,0,0-.182,1.429,3.871,3.871,0,0,0,.66,1.329c.2.3.634.371.936.535a1.611,1.611,0,0,0,1.857-.227c.713-.661,1.353-1.4,2.024-2.1l-.122-.165C107.474,183.108,106.155,183.192,105.226,184.442Z" transform="translate(-99.457 -173.985)"/>
    <path id="路径_52388" data-name="路径 52388" class="cls-20" d="M167.631,439.592a2.474,2.474,0,0,1,.008-.626,2.143,2.143,0,0,0-.493-2.073c-.534-.607-1.094-1.191-1.714-1.863a4.407,4.407,0,0,0,.84,3.8,4.006,4.006,0,0,0-3.733.856c.4.14.826.269,1.249.42.909.331,1.808.738,2.766.14C166.885,440.041,167.226,439.84,167.631,439.592Z" transform="translate(-150.295 -392.728)"/>
    <path id="路径_52389" data-name="路径 52389" class="cls-21" d="M94.982,207.69a4.14,4.14,0,0,0-1.585-3.56c-.105.724-.206,1.35-.289,1.979a2.258,2.258,0,0,0,1.1,2.5c.056.032.113.06.168.09l.433-.472-.048.573A2.108,2.108,0,0,0,97.18,208c.48-.636.882-1.329,1.335-2.02A4.089,4.089,0,0,0,94.982,207.69Z" transform="translate(-90.556 -194.168)"/>
    <path id="路径_52390" data-name="路径 52390" class="cls-22" d="M85.273,229a7.879,7.879,0,0,1-.008,1.209,2.755,2.755,0,0,0,1.632,3.314c.073-.235.14-.473.218-.712l.083.02-.038.651a2.279,2.279,0,0,0,2.544-1.366c.319-.6.541-1.249.821-1.913a4.213,4.213,0,0,0-3.252,2.122A4.3,4.3,0,0,0,85.273,229Z" transform="translate(-83.787 -215.554)"/>
    <path id="路径_52391" data-name="路径 52391" class="cls-23" d="M99.418,259.5c-1.871.42-3.361,1.716-2.8,3.536a2.358,2.358,0,0,0,2.332-1.982C99.089,260.515,99.268,259.99,99.418,259.5Z" transform="translate(-93.502 -241.782)"/>
    <path id="路径_52392" data-name="路径 52392" class="cls-24" d="M79.37,255.87c.186,1.664-.125,3.5,2.094,4.077A3.178,3.178,0,0,0,79.37,255.87Z" transform="translate(-78.773 -238.661)"/>
    <path id="路径_52393" data-name="路径 52393" class="cls-25" d="M154.547,133c-.7.42-1.429.814-2.109,1.273a2.379,2.379,0,0,0-.818,2.207A3.134,3.134,0,0,0,154.547,133Z" transform="translate(-140.904 -133)"/>
  </g>
  <g id="组_66080" data-name="组 66080" class="cls-26" transform="translate(48.048 12.553)">
    <path id="路径_52394" data-name="路径 52394" class="cls-27" d="M460.586,371.941c-.076.226-.153.45-.21.62a2.279,2.279,0,0,0,2.532-.361c.585-.6,1.135-1.242,1.737-1.906-.155-.013-.287-.025-.42-.034a4.278,4.278,0,0,0-3.465,1.21c.689-1.434-.056-2.539-.885-3.751-.272.94-.517,1.77-.752,2.6-.28,1.015.618,1.541.98,2.256Z" transform="translate(-450.005 -334.976)"/>
    <path id="路径_52395" data-name="路径 52395" class="cls-28" d="M421,142.993a10.616,10.616,0,0,1,1.314.772c.923.744,1.839,1.415,3.116.789.1-.049.245,0,.339-.06a1.527,1.527,0,0,0,.482-.368c.1-.14.071-.359.161-.507a2.143,2.143,0,0,0-.01-2.241c-.331-.643-.689-1.272-1.09-2.007-.473,1.3-.98,2.55-.248,3.944C423.755,142.341,422.423,142.642,421,142.993Z" transform="translate(-417.267 -138.608)"/>
    <path id="路径_52396" data-name="路径 52396" class="cls-29" d="M444.762,164.747a2.59,2.59,0,0,1,.307-.88,1.731,1.731,0,0,0,.364-1.807c-.263-.79-.56-1.569-.882-2.451-.709,1.245-1.373,2.416-.618,3.965a4.806,4.806,0,0,0-3.563-1.164,9.585,9.585,0,0,0,.752,1.275c.774.787,1.64,1.487,2.915,1.071A2.57,2.57,0,0,1,444.762,164.747Z" transform="translate(-433.924 -156.013)"/>
    <path id="路径_52397" data-name="路径 52397" class="cls-30" d="M432.824,405.35c-.36.571-.7,1.036-.959,1.541a2.633,2.633,0,0,0-.388,2.423c.154.338.248.7.361,1.025a2.624,2.624,0,0,1,.866.133,1.928,1.928,0,0,0,2.063-.127c.662-.408,1.338-.84,2.081-1.307a4.294,4.294,0,0,0-3.93.112A4.154,4.154,0,0,0,432.824,405.35Z" transform="translate(-426.13 -367.335)"/>
    <path id="路径_52398" data-name="路径 52398" class="cls-31" d="M484.857,281.954a4.107,4.107,0,0,0-2.826,2.712,4.083,4.083,0,0,0-2.681-2.776,13.668,13.668,0,0,1,.317,1.471,2.563,2.563,0,0,0,1.553,2.349,4.016,4.016,0,0,1,.752.546,3.437,3.437,0,0,1,.8-.5,1.891,1.891,0,0,0,1.321-1.244C484.371,283.726,484.579,282.905,484.857,281.954Z" transform="translate(-467.445 -261.167)"/>
    <path id="路径_52399" data-name="路径 52399" class="cls-32" d="M481.744,327.051a3.8,3.8,0,0,0-3.361,2.23,3.726,3.726,0,0,0-1.828-3.63,5.126,5.126,0,0,1-.013,1.12,2.769,2.769,0,0,0,1.027,3.188,2.693,2.693,0,0,1,.458.578,2.212,2.212,0,0,1,.755-.289,2.15,2.15,0,0,0,2.01-1.293C481.12,328.374,481.387,327.766,481.744,327.051Z" transform="translate(-464.922 -298.798)"/>
    <path id="路径_52400" data-name="路径 52400" class="cls-31" d="M479.68,303.48c.06.529.111.861.133,1.2.024.367-.017.741.038,1.1a2.693,2.693,0,0,0,1.922,2.154,2.5,2.5,0,0,0,2.388-1.4c.375-.737.653-1.522,1.011-2.381-1.315.482-2.563.936-3.174,2.333C481.851,305.05,480.872,304.312,479.68,303.48Z" transform="translate(-467.728 -279.733)"/>
    <path id="路径_52401" data-name="路径 52401" class="cls-33" d="M414,427.347a5.086,5.086,0,0,1,.866.335,2.073,2.073,0,0,0,2.09.129c.761-.35,1.506-.731,2.293-1.12-1.3-.536-2.6-1.039-4.062-.228.906-1.394,1.018-2.93.374-3.782-.268.34-.56.686-.822,1.05-.643.888-1.392,1.748-.745,2.964C414.084,426.88,414,427.144,414,427.347Z" transform="translate(-411.03 -382.238)"/>
    <path id="路径_52402" data-name="路径 52402" class="cls-34" d="M471.244,351.773a3.433,3.433,0,0,0-1.4-3.573c-.108.438-.258.9-.328,1.363a2.889,2.889,0,0,0,.3,2.4c.3.388.65.742.936,1.064a9.667,9.667,0,0,0,1.148-.2,2.8,2.8,0,0,0,1.227-.506,28.133,28.133,0,0,0,1.789-2.293C473.405,350.133,472.034,350.347,471.244,351.773Z" transform="translate(-458.888 -318.189)"/>
    <path id="路径_52403" data-name="路径 52403" class="cls-35" d="M452.2,391.008c-.665-.6-2.7-.331-3.709.542.377-1.734.154-2.975-.634-3.72a14.5,14.5,0,0,0-.741,1.669,3.435,3.435,0,0,0-.248,1.8,2.7,2.7,0,0,0,1.175,1.391,1.8,1.8,0,0,0,2.182-.066C450.889,392.082,451.55,391.543,452.2,391.008Z" transform="translate(-439.471 -352.269)"/>
    <path id="路径_52404" data-name="路径 52404" class="cls-36" d="M451.83,183.216c1.108,1.193,1.766,3.114,4.025,2.392-.01-.123-.02-.252-.021-.256a2,2,0,0,0,.616-.192,1.684,1.684,0,0,0,.775-1.671c-.167-.923-.382-1.836-.606-2.889-.817,1.252-1.657,2.361-1.17,3.9C454.515,183.3,453.2,183.194,451.83,183.216Z" transform="translate(-443.779 -174.063)"/>
    <path id="路径_52405" data-name="路径 52405" class="cls-37" d="M396.644,436.37c-.43.43-.77.762-1.1,1.1-.762.784-1.445,1.6-1.111,2.8a2.748,2.748,0,0,1,0,.679,2.565,2.565,0,0,1,.748.346,2.3,2.3,0,0,0,2.573.3c.618-.211,1.233-.43,1.961-.686a12.126,12.126,0,0,0-1.867-.779,11.192,11.192,0,0,0-1.94-.157A4.261,4.261,0,0,0,396.644,436.37Z" transform="translate(-394.347 -394.01)"/>
    <path id="路径_52406" data-name="路径 52406" class="cls-38" d="M462.16,206.958c.3.492.583.957.872,1.417.649,1.035,1.45,1.783,2.86,1.4-.013-.158-.025-.331-.046-.622.192.249.3.394.406.528a2.1,2.1,0,0,0,1.311-2.071c-.06-.81-.186-1.615-.3-2.521a4.243,4.243,0,0,0-1.616,3.579A4,4,0,0,0,462.16,206.958Z" transform="translate(-452.662 -195.123)"/>
    <path id="路径_52407" data-name="路径 52407" class="cls-39" d="M474.075,234.458c.13-.158.181-.28.272-.322,1.473-.692,1.458-1.943,1.314-3.262a7.106,7.106,0,0,1,.055-1.1,4.344,4.344,0,0,0-2.046,3.346,4.235,4.235,0,0,0-3.3-2.1c.2.409.412.763.552,1.143.539,1.462,1.224,2.3,2.866,2.158l-.038-.693.08-.008Z" transform="translate(-459.722 -216.347)"/>
    <path id="路径_52408" data-name="路径 52408" class="cls-40" d="M476.4,260.37c.167.524.337,1.034.492,1.549a2.5,2.5,0,0,0,1.9,2c.52.115.549-.074.56-.465C479.4,261.859,478.375,260.944,476.4,260.37Z" transform="translate(-464.908 -242.661)"/>
    <path id="路径_52409" data-name="路径 52409" class="cls-41" d="M500.683,256.73c-1.971.86-2.661,2.262-2.109,4.144.881-.352,1.665-.788,1.812-1.821C500.493,258.308,500.577,257.558,500.683,256.73Z" transform="translate(-483.818 -239.531)"/>
    <path id="路径_52410" data-name="路径 52410" class="cls-42" d="M421.073,133.93c-.2,1.636,1.226,3.609,2.93,3.472.171-1.5-.653-2.343-1.961-2.891A7.868,7.868,0,0,1,421.073,133.93Z" transform="translate(-417.313 -133.93)"/>
  </g>
  <path id="路径_52411" data-name="路径 52411" class="cls-43" d="M183.527,122.016l-1.217-1.86.657-.434a.969.969,0,0,1,.543-.192.445.445,0,0,1,.374.213.462.462,0,0,1,.071.332.63.63,0,0,1-.154.326h0a.619.619,0,0,1,.409-.06.49.49,0,0,1,.317.224.6.6,0,0,1,.083.521.89.89,0,0,1-.382.471ZM182.9,120.2l.3.461.189-.123a.387.387,0,0,0,.172-.2.268.268,0,0,0-.041-.233c-.094-.14-.244-.14-.452-.01Zm.5.761.333.511.235-.154a.434.434,0,0,0,.19-.223.289.289,0,0,0-.042-.249.263.263,0,0,0-.2-.129.462.462,0,0,0-.28.092Z" transform="translate(-163.719 -109.163)"/>
  <path id="路径_52412" data-name="路径 52412" class="cls-43" d="M197.194,112.861a1.2,1.2,0,0,1-.14-.894,1.049,1.049,0,0,1,.56-.674.989.989,0,0,1,.825-.087,1.159,1.159,0,0,1,.646.578,1.192,1.192,0,0,1,.14.885,1.088,1.088,0,0,1-2.031.19Zm.42-.26a.841.841,0,0,0,.391.392.514.514,0,0,0,.475-.024.521.521,0,0,0,.287-.381.84.84,0,0,0-.116-.541.9.9,0,0,0-.395-.41.5.5,0,0,0-.471.025.524.524,0,0,0-.28.391.849.849,0,0,0,.115.548Z" transform="translate(-176.38 -101.96)"/>
  <path id="路径_52413" data-name="路径 52413" class="cls-43" d="M216.927,105.832l-.473.209-.357-.4-.741.325.056.534-.471.206-.151-2.364.511-.224Zm-1.081-.48-.542-.605a.809.809,0,0,1-.109-.162h-.013a.8.8,0,0,1,.041.188l.08.814Z" transform="translate(-191.672 -95.911)"/>
  <path id="路径_52414" data-name="路径 52414" class="cls-43" d="M228.884,100.24l-.514.179-.521-.431a.9.9,0,0,0-.242-.16.247.247,0,0,0-.155,0l-.14.046.28.814-.448.157-.733-2.1.745-.251q.748-.262.948.308a.6.6,0,0,1,0,.41.7.7,0,0,1-.27.336h0a.8.8,0,0,1,.438.206Zm-1.9-1.311.211.605.22-.077a.365.365,0,0,0,.22-.181.316.316,0,0,0,.017-.262c-.067-.189-.213-.245-.44-.165Z" transform="translate(-201.673 -91.002)"/>
  <path id="路径_52415" data-name="路径 52415" class="cls-43" d="M241.87,96.33l-.56-2.153.744-.193q1.147-.3,1.42.751a1.083,1.083,0,0,1-.112.884,1.192,1.192,0,0,1-.749.518Zm0-1.9.366,1.4.249-.066a.692.692,0,0,0,.462-.328.754.754,0,0,0,.049-.576.669.669,0,0,0-.329-.448.735.735,0,0,0-.553-.048Z" transform="translate(-214.495 -87.138)"/>
  <path id="路径_52416" data-name="路径 52416" class="cls-43" d="M265.013,90.3a1.2,1.2,0,0,1,.188-.884,1.045,1.045,0,0,1,.755-.434.987.987,0,0,1,.8.21,1.158,1.158,0,0,1,.4.769,1.188,1.188,0,0,1-.186.877,1.035,1.035,0,0,1-.741.429,1.022,1.022,0,0,1-.812-.206A1.12,1.12,0,0,1,265.013,90.3Zm.49-.092a.853.853,0,0,0,.227.5.508.508,0,0,0,.454.14.522.522,0,0,0,.4-.254.84.84,0,0,0,.081-.548.9.9,0,0,0-.224-.524.5.5,0,0,0-.448-.14.522.522,0,0,0-.406.263A.848.848,0,0,0,265.5,90.21Z" transform="translate(-234.879 -82.882)"/>
  <path id="路径_52417" data-name="路径 52417" class="cls-43" d="M284.286,87.927l-.793.05.035.57.73-.045.024.387-.73.045.055.875-.466.036L283,87.618l1.26-.078Z" transform="translate(-250.373 -81.653)"/>
  <path id="路径_52418" data-name="路径 52418" class="cls-43" d="M301.54,89.583l.092-2.223.768.032c.788.032,1.169.409,1.139,1.132a1.084,1.084,0,0,1-.366.814,1.2,1.2,0,0,1-.867.28Zm.55-1.821-.066,1.452.258.011a.7.7,0,0,0,.538-.179.752.752,0,0,0,.216-.535.676.676,0,0,0-.171-.527.745.745,0,0,0-.514-.207Z" transform="translate(-266.33 -81.499)"/>
  <path id="路径_52419" data-name="路径 52419" class="cls-43" d="M318.586,88.4l-.224,2.213-.472-.048.224-2.213Z" transform="translate(-280.398 -82.35)"/>
  <path id="路径_52420" data-name="路径 52420" class="cls-43" d="M326.482,91.633l-.538-.084-.256-.627a.84.84,0,0,0-.14-.255.235.235,0,0,0-.14-.074l-.14-.022-.14.85-.468-.073.347-2.2.77.122q.786.125.691.72a.6.6,0,0,1-.192.363.7.7,0,0,1-.387.175h0a.786.786,0,0,1,.28.388Zm-1.053-2.053-.1.633.23.036a.375.375,0,0,0,.28-.055.325.325,0,0,0,.14-.223c.031-.2-.071-.317-.31-.354Z" transform="translate(-286.227 -83.038)"/>
  <path id="路径_52421" data-name="路径 52421" class="cls-43" d="M340.2,94.224l-1.284-.294.5-2.17,1.233.28-.087.378-.77-.176-.118.511.717.164-.087.377-.717-.164-.12.524.822.189Z" transform="translate(-298.499 -85.282)"/>
  <path id="路径_52422" data-name="路径 52422" class="cls-43" d="M352.6,98.506a1.458,1.458,0,0,1-.641-.069,1.067,1.067,0,0,1-.676-.518,1.1,1.1,0,0,1-.05-.854,1.176,1.176,0,0,1,.56-.73,1.136,1.136,0,0,1,.912-.076,1.522,1.522,0,0,1,.5.24l-.132.438a1,1,0,0,0-.451-.28.682.682,0,0,0-.56.049.762.762,0,0,0-.343.465.742.742,0,0,0,.025.56.65.65,0,0,0,.42.336,1.046,1.046,0,0,0,.56.018Z" transform="translate(-309.042 -89.099)"/>
  <path id="路径_52423" data-name="路径 52423" class="cls-43" d="M368.161,99.712l-.592-.225-.653,1.717-.445-.169.654-1.717-.592-.226.14-.361,1.63.619Z" transform="translate(-322.21 -91.276)"/>
  <path id="路径_52424" data-name="路径 52424" class="cls-43" d="M376.455,106.611a1.2,1.2,0,0,1,.636-.641,1.05,1.05,0,0,1,.87.045.99.99,0,0,1,.56.612,1.159,1.159,0,0,1-.083.861,1.186,1.186,0,0,1-.632.637,1.03,1.03,0,0,1-.854-.042,1.018,1.018,0,0,1-.57-.613A1.12,1.12,0,0,1,376.455,106.611Zm.462.188a.849.849,0,0,0-.083.548.508.508,0,0,0,.3.368.52.52,0,0,0,.476,0,.831.831,0,0,0,.366-.42.905.905,0,0,0,.1-.56.5.5,0,0,0-.3-.363.527.527,0,0,0-.486,0,.852.852,0,0,0-.371.422Z" transform="translate(-330.696 -97.439)"/>
  <path id="路径_52425" data-name="路径 52425" class="cls-43" d="M391.658,114.772l-.473-.27-.017-.675a.875.875,0,0,0-.038-.289.235.235,0,0,0-.1-.118l-.125-.071-.431.748-.412-.235,1.112-1.931.678.387q.689.395.389.919a.6.6,0,0,1-.308.272.7.7,0,0,1-.43.017h0a.8.8,0,0,1,.127.462Zm-.258-2.293-.316.56.2.115a.373.373,0,0,0,.28.049.324.324,0,0,0,.209-.16q.148-.262-.164-.441Z" transform="translate(-342.513 -102.627)"/>
  <path id="路径_52426" data-name="路径 52426" class="cls-43" d="M402.523,122.236a.922.922,0,0,0,.384.524.5.5,0,0,0,.28.106.2.2,0,0,0,.176-.088.246.246,0,0,0,.031-.185,1.463,1.463,0,0,0-.218-.409.708.708,0,0,1-.077-.825.56.56,0,0,1,.465-.269,1.042,1.042,0,0,1,.615.2,1.532,1.532,0,0,1,.408.375l-.246.37a.906.906,0,0,0-.352-.42.533.533,0,0,0-.269-.1.193.193,0,0,0-.182.085.214.214,0,0,0-.028.171,1.3,1.3,0,0,0,.186.361,1.157,1.157,0,0,1,.211.5.6.6,0,0,1-.1.381.57.57,0,0,1-.461.28,1.056,1.056,0,0,1-.629-.218,1.369,1.369,0,0,1-.452-.451Z" transform="translate(-353.013 -110.504)"/>
  <path id="路径_52427" data-name="路径 52427" class="cls-4" d="M211.258,474.887l-.805-.371.105-.908-1.261-.581-.622.676-.8-.375,2.866-2.878.867.4Zm-.609-1.936.16-1.381a1.455,1.455,0,0,1,.085-.328l-.02-.008a1.41,1.41,0,0,1-.2.265l-.954,1.027Z" transform="translate(-185.727 -410.764)"/>
  <path id="路径_52428" data-name="路径 52428" class="cls-4" d="M240.988,483.519a2.452,2.452,0,0,1-1.1-.083,1.83,1.83,0,0,1-1.189-.85,1.88,1.88,0,0,1-.14-1.459,2.019,2.019,0,0,1,.927-1.283,1.961,1.961,0,0,1,1.557-.179,2.62,2.62,0,0,1,.866.382l-.2.759a1.7,1.7,0,0,0-.789-.445,1.164,1.164,0,0,0-.955.115,1.31,1.31,0,0,0-.56.815,1.26,1.26,0,0,0,.074.954,1.12,1.12,0,0,0,.741.553,1.8,1.8,0,0,0,.961,0Z" transform="translate(-212.054 -418.614)"/>
  <path id="路径_52429" data-name="路径 52429" class="cls-4" d="M273.708,486.943a1.593,1.593,0,0,0,1.022.443.893.893,0,0,0,.506-.085.347.347,0,0,0,.183-.28.42.42,0,0,0-.116-.3,2.726,2.726,0,0,0-.678-.42,1.209,1.209,0,0,1-.828-1.153.957.957,0,0,1,.452-.8,1.771,1.771,0,0,1,1.087-.231,2.646,2.646,0,0,1,.929.2l-.045.762a1.552,1.552,0,0,0-.882-.312.91.91,0,0,0-.486.081.332.332,0,0,0-.2.28.381.381,0,0,0,.108.28,2.255,2.255,0,0,0,.587.371,1.974,1.974,0,0,1,.751.56,1.014,1.014,0,0,1,.175.657.981.981,0,0,1-.437.812,1.84,1.84,0,0,1-1.12.224,2.382,2.382,0,0,1-1.059-.28Z" transform="translate(-242.338 -422.506)"/>
  <path id="路径_52430" data-name="路径 52430" class="cls-4" d="M298.773,482.09l-.641,3.894-.9.088-.887-2.412a1.965,1.965,0,0,1-.1-.413h-.01a2.74,2.74,0,0,1-.028.42l-.42,2.539-.934.091-1.381-3.7.887-.085.814,2.521a2.727,2.727,0,0,1,.094.42h.017a2.223,2.223,0,0,1,.034-.445l.455-2.63.86-.084.9,2.531a2.565,2.565,0,0,1,.1.395h.013a2.357,2.357,0,0,1,.016-.42l.3-2.632Z" transform="translate(-259.393 -420.774)"/>
  <path id="路径_52431" data-name="路径 52431" class="cls-4" d="M338.869,481.534l-.863.206-.479-.784-1.349.319-.071.916-.857.2.476-4.032.93-.221Zm-1.674-1.146-.728-1.186a1.413,1.413,0,0,1-.133-.31h-.022a1.366,1.366,0,0,1,.01.329l-.116,1.4Z" transform="translate(-295.346 -417.377)"/>
  <path id="路径_52432" data-name="路径 52432" class="cls-4" d="M358.623,473.721l.42,1.261-.77.26-1.213-3.614,1.242-.42q1.349-.454,1.734.689a1.154,1.154,0,0,1-.106,1.027,1.573,1.573,0,0,1-.91.664Zm-.591-1.756.394,1.165.333-.112q.679-.23.48-.819t-.867-.349Z" transform="translate(-314.115 -411.305)"/>
  <path id="路径_52433" data-name="路径 52433" class="cls-44" d="M183.527,121.016l-1.217-1.86.657-.434a.969.969,0,0,1,.543-.192.445.445,0,0,1,.374.213.462.462,0,0,1,.071.332.63.63,0,0,1-.154.326h0a.619.619,0,0,1,.409-.06.49.49,0,0,1,.317.224.6.6,0,0,1,.083.521.89.89,0,0,1-.382.471ZM182.9,119.2l.3.461.189-.123a.387.387,0,0,0,.172-.2.268.268,0,0,0-.041-.232c-.094-.14-.244-.14-.452-.01Zm.5.761.333.511.235-.154a.434.434,0,0,0,.19-.223.289.289,0,0,0-.042-.249.263.263,0,0,0-.2-.129.462.462,0,0,0-.28.092Z" transform="translate(-163.719 -108.303)"/>
  <path id="路径_52434" data-name="路径 52434" class="cls-44" d="M197.194,111.861a1.2,1.2,0,0,1-.14-.894,1.049,1.049,0,0,1,.56-.674.989.989,0,0,1,.825-.087,1.16,1.16,0,0,1,.646.578,1.192,1.192,0,0,1,.14.885,1.088,1.088,0,0,1-2.031.19Zm.42-.261a.84.84,0,0,0,.391.392.514.514,0,0,0,.475-.024.521.521,0,0,0,.287-.381.84.84,0,0,0-.116-.541.9.9,0,0,0-.395-.41.5.5,0,0,0-.471.025.524.524,0,0,0-.28.391.849.849,0,0,0,.115.548Z" transform="translate(-176.38 -101.1)"/>
  <path id="路径_52435" data-name="路径 52435" class="cls-44" d="M216.927,104.832l-.473.209-.357-.4-.741.325.056.534-.471.206-.151-2.364.511-.224Zm-1.081-.48-.542-.605a.808.808,0,0,1-.109-.162h-.013a.8.8,0,0,1,.041.188l.08.814Z" transform="translate(-191.672 -95.051)"/>
  <path id="路径_52436" data-name="路径 52436" class="cls-44" d="M228.884,99.24l-.514.179-.521-.431a.9.9,0,0,0-.242-.16.246.246,0,0,0-.155,0l-.14.046.28.814-.448.157-.733-2.1.745-.251q.748-.262.948.308a.6.6,0,0,1,0,.41.7.7,0,0,1-.27.336h0a.8.8,0,0,1,.438.206Zm-1.9-1.311.211.605.22-.077a.365.365,0,0,0,.22-.181.317.317,0,0,0,.017-.262c-.067-.189-.213-.245-.44-.165Z" transform="translate(-201.673 -90.142)"/>
  <path id="路径_52437" data-name="路径 52437" class="cls-44" d="M241.87,95.33l-.56-2.153.744-.193q1.147-.3,1.42.751a1.083,1.083,0,0,1-.112.884,1.192,1.192,0,0,1-.749.518Zm0-1.9.366,1.4.249-.066a.692.692,0,0,0,.462-.328.754.754,0,0,0,.049-.576.67.67,0,0,0-.329-.448.735.735,0,0,0-.553-.048Z" transform="translate(-214.495 -86.278)"/>
  <path id="路径_52438" data-name="路径 52438" class="cls-44" d="M265.013,89.3a1.2,1.2,0,0,1,.188-.884,1.045,1.045,0,0,1,.755-.434.987.987,0,0,1,.8.21,1.158,1.158,0,0,1,.4.769,1.188,1.188,0,0,1-.186.877,1.035,1.035,0,0,1-.741.429,1.022,1.022,0,0,1-.812-.206A1.12,1.12,0,0,1,265.013,89.3Zm.49-.092a.853.853,0,0,0,.227.5.508.508,0,0,0,.454.14.523.523,0,0,0,.4-.254.84.84,0,0,0,.081-.548.9.9,0,0,0-.224-.524.5.5,0,0,0-.448-.14.522.522,0,0,0-.406.263A.848.848,0,0,0,265.5,89.21Z" transform="translate(-234.879 -82.022)"/>
  <path id="路径_52439" data-name="路径 52439" class="cls-44" d="M284.286,86.927l-.793.05.035.57.73-.045.024.387-.73.045.055.875-.466.036L283,86.618l1.26-.078Z" transform="translate(-250.373 -80.793)"/>
  <path id="路径_52440" data-name="路径 52440" class="cls-44" d="M301.54,88.583l.092-2.223.768.032c.788.032,1.169.409,1.139,1.132a1.084,1.084,0,0,1-.366.814,1.2,1.2,0,0,1-.867.28Zm.55-1.821-.066,1.452.258.011a.7.7,0,0,0,.538-.179.752.752,0,0,0,.216-.535.677.677,0,0,0-.171-.527.745.745,0,0,0-.514-.207Z" transform="translate(-266.33 -80.639)"/>
  <path id="路径_52441" data-name="路径 52441" class="cls-44" d="M318.586,87.4l-.224,2.213-.472-.048.224-2.213Z" transform="translate(-280.398 -81.49)"/>
  <path id="路径_52442" data-name="路径 52442" class="cls-44" d="M326.482,90.65l-.538-.084-.256-.627a.842.842,0,0,0-.14-.252.235.235,0,0,0-.14-.074l-.14-.022-.14.85-.468-.073.347-2.2.77.122q.786.125.691.72a.6.6,0,0,1-.192.363.7.7,0,0,1-.387.172h0a.786.786,0,0,1,.28.388ZM325.429,88.6l-.1.633.23.036a.375.375,0,0,0,.28-.055.325.325,0,0,0,.14-.223c.031-.2-.071-.317-.31-.354Z" transform="translate(-286.227 -82.195)"/>
  <path id="路径_52443" data-name="路径 52443" class="cls-44" d="M340.2,93.224l-1.284-.294.5-2.17,1.233.28-.087.378-.77-.176-.118.511.717.161-.087.377-.717-.164-.12.524.822.189Z" transform="translate(-298.499 -84.422)"/>
  <path id="路径_52444" data-name="路径 52444" class="cls-44" d="M352.6,97.506a1.458,1.458,0,0,1-.641-.069,1.067,1.067,0,0,1-.676-.518,1.1,1.1,0,0,1-.05-.854,1.176,1.176,0,0,1,.56-.73,1.136,1.136,0,0,1,.912-.076,1.522,1.522,0,0,1,.5.24l-.132.438a1,1,0,0,0-.451-.28.682.682,0,0,0-.56.049.762.762,0,0,0-.343.465.742.742,0,0,0,.025.56.65.65,0,0,0,.42.336,1.046,1.046,0,0,0,.56.018Z" transform="translate(-309.042 -88.239)"/>
  <path id="路径_52445" data-name="路径 52445" class="cls-44" d="M368.161,98.712l-.592-.226-.653,1.717-.445-.169.654-1.717-.592-.225.14-.361,1.63.619Z" transform="translate(-322.21 -90.416)"/>
  <path id="路径_52446" data-name="路径 52446" class="cls-44" d="M376.455,105.611a1.2,1.2,0,0,1,.636-.641,1.05,1.05,0,0,1,.87.045.99.99,0,0,1,.56.612,1.159,1.159,0,0,1-.083.861,1.186,1.186,0,0,1-.632.637,1.029,1.029,0,0,1-.854-.042,1.018,1.018,0,0,1-.57-.613A1.12,1.12,0,0,1,376.455,105.611Zm.462.188a.849.849,0,0,0-.083.548.508.508,0,0,0,.3.368.52.52,0,0,0,.476,0,.831.831,0,0,0,.366-.42.905.905,0,0,0,.1-.56.5.5,0,0,0-.3-.363.527.527,0,0,0-.486,0,.852.852,0,0,0-.371.422Z" transform="translate(-330.696 -96.579)"/>
  <path id="路径_52447" data-name="路径 52447" class="cls-44" d="M391.658,113.772l-.473-.27-.017-.675a.875.875,0,0,0-.038-.289.235.235,0,0,0-.1-.118l-.125-.071-.431.748-.412-.235,1.112-1.931.678.387q.689.395.389.919a.6.6,0,0,1-.308.272.7.7,0,0,1-.43.017h0a.8.8,0,0,1,.127.462Zm-.258-2.293-.316.56.2.115a.373.373,0,0,0,.28.049.324.324,0,0,0,.209-.16q.148-.262-.164-.441Z" transform="translate(-342.513 -101.767)"/>
  <path id="路径_52448" data-name="路径 52448" class="cls-44" d="M402.523,121.236a.922.922,0,0,0,.384.524.5.5,0,0,0,.28.106.2.2,0,0,0,.176-.088.246.246,0,0,0,.031-.185,1.463,1.463,0,0,0-.218-.409.708.708,0,0,1-.077-.825.56.56,0,0,1,.465-.269,1.042,1.042,0,0,1,.615.2,1.533,1.533,0,0,1,.408.375l-.246.37a.906.906,0,0,0-.352-.42.533.533,0,0,0-.269-.1.193.193,0,0,0-.182.085.214.214,0,0,0-.028.171,1.3,1.3,0,0,0,.186.361,1.158,1.158,0,0,1,.211.5.6.6,0,0,1-.105.381.57.57,0,0,1-.461.28,1.056,1.056,0,0,1-.629-.218,1.369,1.369,0,0,1-.452-.451Z" transform="translate(-353.013 -109.644)"/>
  <path id="路径_52449" data-name="路径 52449" class="cls-45" d="M209.258,473.887l-.805-.371.105-.908-1.261-.581-.622.676-.8-.375,2.866-2.878.867.4Zm-.609-1.936.16-1.381a1.457,1.457,0,0,1,.085-.328l-.02-.008a1.409,1.409,0,0,1-.2.265l-.954,1.027Z" transform="translate(-184.006 -409.904)"/>
  <path id="路径_52450" data-name="路径 52450" class="cls-45" d="M238.987,482.518a2.45,2.45,0,0,1-1.1-.083,1.83,1.83,0,0,1-1.189-.85,1.879,1.879,0,0,1-.14-1.459,2.02,2.02,0,0,1,.927-1.283,1.961,1.961,0,0,1,1.557-.179,2.621,2.621,0,0,1,.866.382l-.2.759a1.7,1.7,0,0,0-.789-.445,1.164,1.164,0,0,0-.955.115,1.31,1.31,0,0,0-.56.815,1.261,1.261,0,0,0,.074.954,1.12,1.12,0,0,0,.741.553,1.8,1.8,0,0,0,.961,0Z" transform="translate(-210.333 -417.754)"/>
  <path id="路径_52451" data-name="路径 52451" class="cls-45" d="M271.708,485.943a1.593,1.593,0,0,0,1.022.443.893.893,0,0,0,.506-.085.347.347,0,0,0,.184-.28.42.42,0,0,0-.116-.3,2.731,2.731,0,0,0-.678-.42,1.209,1.209,0,0,1-.828-1.153.957.957,0,0,1,.452-.8,1.771,1.771,0,0,1,1.087-.231,2.646,2.646,0,0,1,.929.2l-.045.762a1.552,1.552,0,0,0-.882-.312.911.911,0,0,0-.486.081.332.332,0,0,0-.2.28.381.381,0,0,0,.108.28,2.257,2.257,0,0,0,.587.371,1.976,1.976,0,0,1,.751.56,1.014,1.014,0,0,1,.175.657.98.98,0,0,1-.437.812,1.84,1.84,0,0,1-1.121.224,2.381,2.381,0,0,1-1.059-.28Z" transform="translate(-240.616 -421.646)"/>
  <path id="路径_52452" data-name="路径 52452" class="cls-45" d="M296.773,481.09l-.641,3.894-.9.088-.887-2.412a1.958,1.958,0,0,1-.1-.413h-.01a2.735,2.735,0,0,1-.028.42l-.42,2.539-.934.091-1.381-3.7.887-.085.814,2.521a2.716,2.716,0,0,1,.094.42h.017a2.228,2.228,0,0,1,.034-.445l.455-2.63.86-.084.9,2.531a2.568,2.568,0,0,1,.1.395h.013a2.353,2.353,0,0,1,.015-.42l.3-2.632Z" transform="translate(-257.672 -419.914)"/>
  <path id="路径_52453" data-name="路径 52453" class="cls-45" d="M336.869,480.534l-.863.206-.479-.784-1.349.319-.071.916-.857.2.476-4.032.93-.221Zm-1.674-1.146-.728-1.186a1.411,1.411,0,0,1-.133-.31h-.022a1.365,1.365,0,0,1,.01.329l-.116,1.4Z" transform="translate(-293.625 -416.517)"/>
  <path id="路径_52454" data-name="路径 52454" class="cls-45" d="M356.623,472.721l.42,1.261-.77.26-1.213-3.614,1.242-.42q1.349-.454,1.734.689a1.154,1.154,0,0,1-.106,1.027,1.573,1.573,0,0,1-.91.664Zm-.591-1.756.393,1.165.333-.112q.679-.23.48-.819t-.867-.349Z" transform="translate(-312.394 -410.445)"/>
  <path id="路径_52455" data-name="路径 52455" class="cls-46" d="M210.258,473.887l-.805-.371.105-.908-1.261-.581-.622.676-.8-.375,2.866-2.878.867.4Zm-.609-1.936.16-1.381a1.459,1.459,0,0,1,.085-.328l-.02-.008a1.408,1.408,0,0,1-.2.265l-.954,1.027Z" transform="translate(-184.867 -409.904)"/>
  <path id="路径_52456" data-name="路径 52456" class="cls-47" d="M239.988,482.518a2.45,2.45,0,0,1-1.1-.083,1.83,1.83,0,0,1-1.189-.85,1.88,1.88,0,0,1-.14-1.459,2.02,2.02,0,0,1,.927-1.283,1.961,1.961,0,0,1,1.557-.179,2.621,2.621,0,0,1,.866.382l-.2.759a1.7,1.7,0,0,0-.789-.445,1.164,1.164,0,0,0-.955.115,1.31,1.31,0,0,0-.56.815,1.261,1.261,0,0,0,.074.954,1.12,1.12,0,0,0,.741.553,1.8,1.8,0,0,0,.961,0Z" transform="translate(-211.194 -417.754)"/>
  <path id="路径_52457" data-name="路径 52457" class="cls-48" d="M272.708,485.943a1.593,1.593,0,0,0,1.022.443.893.893,0,0,0,.506-.085.347.347,0,0,0,.183-.28.42.42,0,0,0-.116-.3,2.729,2.729,0,0,0-.678-.42,1.209,1.209,0,0,1-.828-1.153.957.957,0,0,1,.452-.8,1.771,1.771,0,0,1,1.087-.231,2.646,2.646,0,0,1,.929.2l-.045.762a1.552,1.552,0,0,0-.882-.312.911.911,0,0,0-.486.081.332.332,0,0,0-.2.28.381.381,0,0,0,.108.28,2.256,2.256,0,0,0,.587.371,1.976,1.976,0,0,1,.751.56,1.014,1.014,0,0,1,.175.657.98.98,0,0,1-.437.812,1.84,1.84,0,0,1-1.12.224,2.381,2.381,0,0,1-1.059-.28Z" transform="translate(-241.477 -421.646)"/>
  <path id="路径_52458" data-name="路径 52458" class="cls-49" d="M297.773,481.09l-.641,3.894-.9.088-.887-2.412a1.961,1.961,0,0,1-.1-.413h-.01a2.723,2.723,0,0,1-.028.42l-.42,2.539-.934.091-1.381-3.7.887-.085.814,2.521a2.72,2.72,0,0,1,.094.42h.017a2.219,2.219,0,0,1,.034-.445l.455-2.63.86-.084.895,2.531a2.572,2.572,0,0,1,.1.395h.013a2.353,2.353,0,0,1,.015-.42l.3-2.632Z" transform="translate(-258.533 -419.914)"/>
  <path id="路径_52459" data-name="路径 52459" class="cls-24" d="M337.869,480.534l-.863.206-.479-.784-1.349.319-.071.916-.857.2.476-4.032.93-.221Zm-1.674-1.146-.728-1.186a1.413,1.413,0,0,1-.133-.31h-.022a1.365,1.365,0,0,1,.01.329l-.116,1.4Z" transform="translate(-294.486 -416.517)"/>
  <path id="路径_52460" data-name="路径 52460" class="cls-50" d="M357.623,472.721l.42,1.261-.77.26-1.213-3.614,1.242-.42q1.349-.454,1.734.689a1.154,1.154,0,0,1-.106,1.027,1.573,1.573,0,0,1-.91.664Zm-.591-1.756.394,1.165.333-.112q.679-.23.48-.819t-.867-.349Z" transform="translate(-313.255 -410.445)"/>
  <ellipse id="椭圆_547" data-name="椭圆 547" class="cls-51" cx="24.554" cy="24.805" rx="24.554" ry="24.805" transform="translate(10.046 10.131)"/>
  <g id="组_66081" data-name="组 66081" class="cls-52" transform="translate(10.18 10.222)">
    <path id="路径_52461" data-name="路径 52461" class="cls-53" d="M360.765,220.9c-.279-.319-.538-.611-.847-.961-.119.222-.2.382-.291.542l-.155.031c-.078-.4-.158-.811-.247-1.272l-.492.326c-.158-.354-.3-.686-.454-1.015a.636.636,0,0,0-1.076-.246c-.644.5-1.487.843-1.509,1.892-.007.329-.288.651-.443.977l-.187-.022c-.324-.821-.665-1.636-.963-2.465a2.478,2.478,0,0,0-1.7-1.095,6.363,6.363,0,0,1-1.267-.18,2.127,2.127,0,0,1-1.712-.946c-.173.641.453.878.521,1.157a8.529,8.529,0,0,1,1.32.128c.432.114.419.467.155.734a4.6,4.6,0,0,1-1.046.843,12.488,12.488,0,0,1-1.585.663c-.5.193-.6-.15-.782-.53-.383-.814-.85-1.589-1.294-2.374-.038-.066-.17-.079-.258-.117l-.148.1c.654,1.145,1.308,2.291,2,3.5l1.537-.422a2.938,2.938,0,0,1-1.171,2.087c-.24.2-.461.431-.7.634a1.382,1.382,0,0,0-.412,1.737c.335.89.179,1.19-.6,1.738-.15.1-.348.3-.341.443a3.113,3.113,0,0,1-1.281,2.389,2.464,2.464,0,0,1-1.938.551.306.306,0,0,1-.233-.141c-.218-.544-.419-1.1-.625-1.643a10.989,10.989,0,0,0-.468-1.15c-.3-.576-.52-1.124,0-1.7a.424.424,0,0,0,.036-.365c-.237-.537-.514-1.054-.746-1.592a1.284,1.284,0,0,1-.092-.61,5.368,5.368,0,0,1,.219-.822,4.814,4.814,0,0,1-.507.076c-.148,0-.394.028-.432-.044-.33-.632-.764-.354-1.217-.2a2.865,2.865,0,0,1-.725.063c-.1,0-.231-.055-.279-.008-.629.533-.946-.042-1.322-.372-.293-.257-.574-.528-.848-.805a.892.892,0,0,1-.151-1.093,1.171,1.171,0,0,0,.14-.663,1.87,1.87,0,0,1,.8-1.8c.2-.191.316-.462.5-.666.231-.253.46-.611.749-.683.953-.235,1.93-.374,2.9-.521.541-.082.68.141.446.745.419.17.826.368,1.258.5a.776.776,0,0,0,.613-.051,1.455,1.455,0,0,1,1.292-.148c.271.049.535.141.806.169.94.089.942.08,1.161-.937-.76-.119-1.867.509-2.018-.957l-.154-.03a3.836,3.836,0,0,1-.161.441c-.089.177-.2.343-.3.513a2.532,2.532,0,0,1-.419-.3c-.426-.453-.829-.926-1.257-1.377-.075-.08-.225-.09-.409-.011L343,214.3c-.06.16-.117.316-.183.495a.967.967,0,0,1-.14-.07c-.446-.323-.89-.651-1.34-.97-.056-.041-.169-.074-.215-.045-.6.378-1.438.336-1.816,1.154a.953.953,0,0,1-1.169.339c-.243-.07-.476-.177-.743-.281.015-.169.025-.322.042-.475.085-.811.152-.87.96-.736.3.051.6.159.721-.26s-.218-.447-.457-.562c-.052-.025-.106-.048-.268-.122l1.367-.337c-.5-.176-1.07.2-1.48-.41l.4-.385-.1-.148c-.351.281-.7.562-1.081.857-.372-.691-.3-.808.53-1.1l-.113-.368c.812-.315.849-.281,1.235.395a3.984,3.984,0,0,0,.6.639c.3.327.523.008.785-.079a2.484,2.484,0,0,1,.623-.038c-.194-.409-.235-.772.4-.843.031.174.061.356.112.638.542-.056,1.067-.1,1.587-.174.106-.015.194-.152.291-.233.172-.141.345-.29.588-.5-.084-.167-.362-.472-.344-.76s.342-.526.5-.742a.417.417,0,0,0-.293.025c-.359.263-.686.571-1.045.878l.324.184a1.322,1.322,0,0,1-1.389,1.006l-.231-.578a2.036,2.036,0,0,0-.366.124c-.386.222-.574.027-.741-.3-.19-.375-.032-.573.279-.766.552-.336,1.068-.735,1.628-1.055a3.854,3.854,0,0,1,2.609-.538c1.056.188,2.1.5,3.044.734.116-.121.229-.3.39-.372.078-.032.247.156.4.261l4.2-.342c-.007-.031-.129-.281-.074-.333a1.86,1.86,0,0,1,.78-.461c.168-.034.39.211.619.35l.147-.259.264.382c.6-.873.97.014,1.57.051l-.62-.422a14.1,14.1,0,0,1,6.751-.71v.7c.749-.086,1.474-.164,2.2-.253.39-.046.759-.06.953.379.025.055.035.127.076.16a2.56,2.56,0,0,0,2.085-.541l-.629-.228.011-.094h1.547l.029.125-.559.291c1.047.176,2.015.342,2.983.5.838.141,1.66.3,2.5.367.479.039.978-.115,1.459-.119.219,0,.559.094.633.247.1.219,0,.53-.011.8v.648c-.854.1-1.725.2-2.6.29-.4.039-.669.152-.7.63a.988.988,0,0,1-.331.562c-.353.343-.74.649-1.118.968-.031-.457-.208-.967-.049-1.327s.652-.555,1.027-.843l-.279-.347a3.107,3.107,0,0,0-.462.281,1.5,1.5,0,0,1-1.414.381,2.871,2.871,0,0,0-2.761.87l1.481.243v1.594c-.365-.209-.365-.209-.393-.953a12.106,12.106,0,0,1-1.042,1.134,2.382,2.382,0,0,1-.921.422.859.859,0,0,0-.629.984.5.5,0,0,1,.022.236,1.851,1.851,0,0,1-.25.5c-.043.053-.3.018-.306,0a4.011,4.011,0,0,1-.014-.506l-.511-.453.059-.132H363.5c-.017.093-.035.185-.052.281l.935.313-.611.385c.317.413.8.9.377,1.383-.489.562-.96,1.241-1.816,1.32l-.321.034c-.225.221.156.947-.636.673.066-.239.122-.44.177-.645-.613.1-.686.264-.335.735C362.049,220.143,362.049,220.143,360.765,220.9Zm-15.014-7.87a6.883,6.883,0,0,0-.5.675,1.541,1.541,0,0,0-.1.458c.161.021.341.1.476.051a1.469,1.469,0,0,1,1.41.03.478.478,0,0,0,.344.034,2.048,2.048,0,0,0,.4-.188,1.357,1.357,0,0,0-.246-.349c-.26-.181-.546-.325-.817-.481l-.443.34Zm4.548,2.093.173-.141-.872-1.608.826-.073c-.348-.641-.763-.044-1.129-.129-.117-.028-.37.076-.387.157a.618.618,0,0,0,.116.483,5.686,5.686,0,0,0,.71.576l-.555.266C349.442,215.21,349.887,215.113,350.3,215.123Zm3.817-6.136,1.366-.444-1.214-.115c-.057.208-.123.433-.158.559Z" transform="translate(-305.951 -194.454)"/>
    <path id="路径_52462" data-name="路径 52462" class="cls-53" d="M125.213,206.276l1.723-.475-1.007-.07a1.032,1.032,0,0,1,1.213-.422c.363.055.708.25,1.072.291a5.277,5.277,0,0,0,1.06-.076c.038.228.07.422.131.777.168-.81.671-1.044,1.292-.756a.281.281,0,0,1,.14.212.26.26,0,0,1-.2.164,5.819,5.819,0,0,1-.662-.141l-.5.743,1.007.316-.978.422h1.239c-.108-.469-.108-.469-.9-1.131a8.948,8.948,0,0,1,1.023.014c.088.011.2.171.228.281.089.325.147.659.225,1.029a1.854,1.854,0,0,0,.112-1.744,8.136,8.136,0,0,1,.679.516c.022.02-.117.222-.193.357.626.659,1.06.8,1.537.375a3.076,3.076,0,0,1-.534-.1,4.093,4.093,0,0,1-.511-.281c.068-.124.14-.351.2-.351a3.173,3.173,0,0,1,.7.141c.029.007.049.056.11.131l.14-.336c-.768-.229-1.5-.441-2.226-.669a.513.513,0,0,1-.3-.335,2.047,2.047,0,0,1,.549.105,4.382,4.382,0,0,0,2.515.481c.082-.01.182.118.225.239a11.351,11.351,0,0,1,4.179,1.741l-1,.222.307.422-.059.177-3.026-.523,1.128-.58-.052-.132-.613.281c-.028-.188-.052-.344-.078-.514h-.795c-.008.17-.015.316-.022.479l-.771.063-.024.087.978.389-.046.166a2.682,2.682,0,0,0-2.4.254.929.929,0,0,0-.359.482c-.015.1.236.3.4.354.449.141.937.178,1.368.36a9.383,9.383,0,0,1,1.264.784l-.05-.711c.02,0,.1.008.18.011s.184,0,.391,0c-.14-.281-.242-.474-.328-.675-.2-.462-.015-.79.475-.717.534.08,1.15.053,1.482.665.035.065.372.062.467-.024.27-.243.44-.214.692.037.458.453.961.86,1.481,1.32l-.186.444.746.479-.061.141h-1.269l.356-.717a4.731,4.731,0,0,1-.756.291,3.415,3.415,0,0,1-.622-.018c-.243,0-.488.024-.741.038l1.885.857c-.683.1-1.084.718-1.726.215-.242-.191-.577.17-.711.752-.654-.025-.942.33-1.04.974-.028.184-.362.326-.559.478s-.387.271-.6.422c.133.379.263.745.391,1.112l-.2.124a2.435,2.435,0,0,1-.4-.394,1.055,1.055,0,0,0-1.4-.5,13.2,13.2,0,0,0-1.418.374c-.57.257-.182.793-.148,1.169a1.05,1.05,0,0,0,.6.7c.341.121.7-.048.7-.55h.838l-.335,1.077c.14.051.2.091.253.086.605-.066,1.016-.008.76.805-.113.36.131.462.551.516a2.434,2.434,0,0,0,1.693-.62,1.733,1.733,0,0,1,.217-.089c-.027.194-.048.351-.049.358.279,0,.517-.013.756,0,.461.029.922.073,1.4.112a1.4,1.4,0,0,0,1.3,1.006c.542.021.655.45.9.757.036.045-.1.229-.117.266.9.344,1.869.658,2.794,1.088.6.281.682.683.19,1.174a3.082,3.082,0,0,0-.754,1.734.936.936,0,0,1-.81.877,1,1,0,0,0-.989.908c-.046.346-.45.666-.74.947a7.6,7.6,0,0,1-.929.659c.088.392-.151.677-.746.766a1.185,1.185,0,0,0-.65.454l-.668.939.388.17c-.32.386-.685.642-.724.94-.024.191.432.445.65.649-.742.233-1.361.183-1.643-.245a1.773,1.773,0,0,1-.184-1.984,3.061,3.061,0,0,0,.108-1.093c.021-.212.066-.422.1-.635.189-1.063.39-2.124.559-3.19a.507.507,0,0,0-.19-.438c-.859-.34-1.136-1.14-1.57-1.844a1.994,1.994,0,0,1-.345-1.508,1.523,1.523,0,0,1,.419-.676.766.766,0,0,0,.112-1.068c-.061-.089-.27-.19-.32-.155-.559.392-.838-.094-1.1-.389a4.3,4.3,0,0,0-2.291-1.165,2.515,2.515,0,0,1-1.928-1.265,6.042,6.042,0,0,0-1.667-1.8l1.172,1.574c-.708.183-.687-.884-1.241-.745a3.274,3.274,0,0,0-1-1.581,4.089,4.089,0,0,1-.727-.772,2.233,2.233,0,0,1-.271-1.095,1.182,1.182,0,0,0-.546-1.265c-.292-.176-.462-.562-.734-.905l-.06.624c-1.1-1.686-2.484-2.36-4.323-1.658.075.457-.089.654-.654.583a2.935,2.935,0,0,0-1.023.232l-.7.184-.07-.2,1.3-.531c-.349-.141-.63-.27-.921-.374s-.559-.169-.968-.291l.517-.462-.7-.438.032-.15h1.264l.02-.067-1.058-.361a1.674,1.674,0,0,1,.374-.226,5.78,5.78,0,0,1,2.55-.3c1,.2,2.03.25,3.047.364a.494.494,0,0,0,.176,0,8.11,8.11,0,0,1,4.007.008c-.17-.377-.323-.572-.777-.4a2.575,2.575,0,0,1-1-.042ZM133,212.646l.611-.9.651.451.33-.632a7.71,7.71,0,0,0-1.432.229c-.112.041-.091.474-.154.847Z" transform="translate(-117.333 -192.98)"/>
    <path id="路径_52463" data-name="路径 52463" class="cls-53" d="M256.18,191.115a14.908,14.908,0,0,1,2.045-1.355,4.6,4.6,0,0,1,1.522-.2,9.1,9.1,0,0,1,1.754-.811,3.769,3.769,0,0,1,2.667.042c.247.129.616.02.992.02.073.186.17.422.253.655.163.481.455.572.859.281a.657.657,0,0,1,.992.042c-.372.266-.732.489-1.046.764a.55.55,0,0,0-.126.475c.193.587-.01.954-.665,1.075v.569l-.7-.422.337.548c-.9.243-1.765.445-2.607.725a1.163,1.163,0,0,0-.592.59c-.249.554-.613.6-1.093.378a2.294,2.294,0,0,1-1.238-1.418c-.124-.368-.238-.741-.38-1.1-.253-.632-.83-.59-1.355-.61C257.227,191.34,256.623,191.495,256.18,191.115Z" transform="translate(-237.377 -178.676)"/>
    <path id="路径_52464" data-name="路径 52464" class="cls-53" d="M530.377,339.213l-.335.239c-.042-.029-.091-.044-.1-.072a.87.87,0,0,0-1.2-.562c-.69.178-1.346.486-2.033.683a3.293,3.293,0,0,1-.872,0l.17-.211c-.043-.3-.08-.606-.131-.906a1.639,1.639,0,0,0-.107-.281c-.429-1.179-.279-1.442.915-1.786a2.641,2.641,0,0,0,.771-.545c.246-.2.5-.437.787-.686l.443.222a1.221,1.221,0,0,1,1.7-.545c-.14.436-.14.8.353.918.156.039.407.105.468.034a.958.958,0,0,0,.14-.534,5.6,5.6,0,0,0-.022-.649l.186-.051c.272.495.542.992.822,1.483a1.074,1.074,0,0,0,.279.354,2.4,2.4,0,0,1,.419,3.584,1.285,1.285,0,0,1-2.066-.177A3.513,3.513,0,0,0,530.377,339.213Z" transform="translate(-469.113 -304.125)"/>
    <path id="路径_52465" data-name="路径 52465" class="cls-53" d="M551.63,319.94c.576.051,1.141.067,1.7.155a2.741,2.741,0,0,1,2.061,2.076l-.935-.808-.687.548c-.2-.353-.559-.453-.742-.87-.116-.274-.733-.334-1.065-.465Z" transform="translate(-491.547 -291.628)"/>
    <path id="路径_52466" data-name="路径 52466" class="cls-53" d="M519.32,310.494l1.693-1.124c.625.679.029,1.351-.222,2.042C519.72,311.6,519.544,311.488,519.32,310.494Z" transform="translate(-463.751 -282.544)"/>
    <path id="路径_52467" data-name="路径 52467" class="cls-53" d="M425.775,337.09a4.725,4.725,0,0,1-.664,2.608c-.046.105-.306.181-.448.159-.1-.015-.224-.223-.232-.353-.029-.454-.018-.912-.013-1.369a.308.308,0,0,1,.092-.2c.3-.281.609-.55.928-.807C425.5,337.077,425.621,337.107,425.775,337.09Z" transform="translate(-382.103 -306.368)"/>
    <path id="路径_52468" data-name="路径 52468" class="cls-53" d="M552.931,254.254l-.986.2a1.234,1.234,0,0,0,.013.214c.106.829.022,1-.724,1.335-.443.2-.894.381-1.353.541-.092.032-.31-.051-.33-.119a.477.477,0,0,1,.071-.415,1.531,1.531,0,0,1,.638-.263c.965-.141,1.083-.238,1.284-1.141C551.74,253.727,552.123,253.611,552.931,254.254Z" transform="translate(-489.744 -234.823)"/>
    <path id="路径_52469" data-name="路径 52469" class="cls-53" d="M500.082,310.65l2.134,1.686-.176.675,1.816.385c-1.548.375-2.066-.111-3.089-1.6-.242-.351-.53-.67-.8-1Z" transform="translate(-447.104 -283.644)"/>
    <path id="路径_52470" data-name="路径 52470" class="cls-53" d="M436.536,208.629l-1.126-.309c1.065-1.109,2.325-1.074,3.554-1.14l.07.156a3.042,3.042,0,0,1-.618.257,4.468,4.468,0,0,1-.766.02C436.866,207.626,436.655,207.8,436.536,208.629Z" transform="translate(-391.565 -194.716)"/>
    <path id="路径_52471" data-name="路径 52471" class="cls-53" d="M602.48,379.214c.482-.365.905-.7,1.357-1,.07-.046.279.114.43.186C603.317,379.623,603.074,379.679,602.48,379.214Z" transform="translate(-535.292 -341.702)"/>
    <path id="路径_52472" data-name="路径 52472" class="cls-53" d="M504.209,307.513c-.95-.239-.8-1.234-1.459-1.71C503.4,305.737,503.942,306.42,504.209,307.513Z" transform="translate(-449.496 -279.475)"/>
    <path id="路径_52473" data-name="路径 52473" class="cls-53" d="M326.862,223.42c-.877.734-1.653.669-1.9,0Z" transform="translate(-296.547 -208.673)"/>
    <path id="路径_52474" data-name="路径 52474" class="cls-53" d="M534.944,291.64l.316.281c-.127.209-.252.412-.419.679l.63.049-.749.555c-.034-.315-.068-.635-.1-.956h-.14Z" transform="translate(-476.793 -267.306)"/>
    <path id="路径_52475" data-name="路径 52475" class="cls-53" d="M613.79,370.13l.889.673-.366.562C613.452,371.2,614.1,370.48,613.79,370.13Z" transform="translate(-545.022 -334.765)"/>
    <path id="路径_52476" data-name="路径 52476" class="cls-53" d="M535,321.422l-1.073-.617c.015-.068.053-.242.09-.4h.988l-.388.256Z" transform="translate(-476.32 -292.024)"/>
    <path id="路径_52477" data-name="路径 52477" class="cls-53" d="M537.43,306.191a8.126,8.126,0,0,1,.929-.141.51.51,0,0,1,.14.374.492.492,0,0,1-.4.215,2.921,2.921,0,0,1-.655-.294Z" transform="translate(-479.331 -279.691)"/>
    <path id="路径_52478" data-name="路径 52478" class="cls-53" d="M207.08,203.723a.885.885,0,0,1,1.41.141Z" transform="translate(-195.137 -191.497)"/>
    <path id="路径_52479" data-name="路径 52479" class="cls-53" d="M252.94,290.14c.741-.492.887-.478,1.176.122Z" transform="translate(-234.589 -265.716)"/>
    <path id="路径_52480" data-name="路径 52480" class="cls-53" d="M241.178,286.162l-1.548-.52A1.35,1.35,0,0,1,241.178,286.162Z" transform="translate(-223.139 -262.076)"/>
    <path id="路径_52481" data-name="路径 52481" class="cls-54" d="M359.765,219.9c-.279-.319-.538-.611-.847-.961-.119.222-.2.382-.291.542l-.155.031c-.078-.4-.158-.811-.247-1.272l-.492.326c-.158-.354-.3-.686-.454-1.015a.636.636,0,0,0-1.076-.246c-.644.5-1.487.843-1.509,1.892-.007.329-.288.651-.443.977l-.187-.022c-.324-.821-.665-1.636-.963-2.465a2.477,2.477,0,0,0-1.7-1.095,6.359,6.359,0,0,1-1.267-.18,2.126,2.126,0,0,1-1.712-.946c-.173.641.453.878.521,1.157a8.517,8.517,0,0,1,1.32.128c.432.114.419.467.155.734a4.593,4.593,0,0,1-1.046.843,12.476,12.476,0,0,1-1.584.663c-.5.193-.6-.15-.782-.53-.383-.814-.849-1.589-1.294-2.374-.038-.066-.17-.079-.258-.117l-.148.1c.654,1.145,1.308,2.291,2,3.5l1.537-.422a2.937,2.937,0,0,1-1.171,2.087c-.24.2-.461.431-.7.634a1.382,1.382,0,0,0-.412,1.737c.335.89.179,1.19-.6,1.738-.15.1-.348.3-.341.443a3.113,3.113,0,0,1-1.281,2.389,2.464,2.464,0,0,1-1.938.551.306.306,0,0,1-.233-.141c-.218-.544-.419-1.1-.625-1.643a11,11,0,0,0-.468-1.15c-.3-.576-.52-1.124,0-1.7a.424.424,0,0,0,.036-.365c-.237-.537-.514-1.054-.746-1.592a1.284,1.284,0,0,1-.092-.61,5.37,5.37,0,0,1,.219-.822,4.817,4.817,0,0,1-.507.076c-.148,0-.394.028-.432-.044-.33-.632-.764-.354-1.217-.2a2.864,2.864,0,0,1-.725.063c-.1,0-.231-.055-.279-.008-.629.533-.946-.042-1.322-.372-.293-.257-.574-.528-.848-.805a.891.891,0,0,1-.151-1.093,1.17,1.17,0,0,0,.14-.663,1.87,1.87,0,0,1,.8-1.8c.2-.191.316-.462.5-.666.231-.253.46-.611.749-.683.953-.235,1.93-.374,2.9-.521.541-.081.68.141.446.745.419.17.826.368,1.258.5a.776.776,0,0,0,.613-.051,1.455,1.455,0,0,1,1.292-.148c.271.049.535.141.806.169.94.089.942.08,1.161-.937-.76-.119-1.867.509-2.018-.957l-.154-.03a3.852,3.852,0,0,1-.161.441c-.089.177-.2.343-.3.513a2.528,2.528,0,0,1-.419-.3c-.426-.453-.829-.926-1.257-1.377-.075-.08-.225-.09-.409-.011L342,213.3c-.06.16-.117.316-.183.495a.962.962,0,0,1-.14-.07c-.446-.323-.89-.651-1.34-.97-.056-.041-.169-.074-.215-.045-.605.378-1.438.336-1.816,1.154a.952.952,0,0,1-1.169.339c-.243-.07-.476-.177-.743-.281.015-.169.025-.322.042-.475.085-.811.152-.87.96-.736.3.051.6.159.721-.26s-.218-.447-.457-.562c-.052-.025-.106-.048-.268-.122l1.366-.337c-.5-.176-1.07.2-1.48-.41l.4-.385-.1-.148c-.351.281-.7.562-1.081.857-.372-.691-.3-.808.53-1.1l-.113-.368c.812-.315.849-.281,1.235.395a3.988,3.988,0,0,0,.605.639c.3.327.522.008.785-.079a2.485,2.485,0,0,1,.623-.038c-.194-.409-.235-.772.4-.843.031.174.061.355.112.638.542-.056,1.067-.1,1.587-.174.106-.015.194-.152.291-.233.172-.141.345-.289.588-.5-.084-.167-.362-.472-.344-.76s.342-.526.5-.742a.417.417,0,0,0-.293.025c-.359.263-.686.571-1.045.878l.324.184a1.322,1.322,0,0,1-1.389,1.006l-.231-.578a2.039,2.039,0,0,0-.366.124c-.386.222-.574.027-.741-.3-.19-.375-.032-.573.279-.766.552-.336,1.067-.735,1.628-1.055a3.854,3.854,0,0,1,2.609-.538c1.056.188,2.1.5,3.044.734.116-.121.229-.3.39-.372.078-.032.247.156.4.261l4.2-.342c-.007-.031-.128-.281-.074-.333a1.859,1.859,0,0,1,.78-.461c.168-.034.39.211.619.35l.147-.259.264.382c.6-.873.97.014,1.57.051l-.62-.422a14.1,14.1,0,0,1,6.751-.71v.7c.749-.086,1.474-.164,2.2-.253.39-.046.759-.06.953.379.025.055.035.126.075.16a2.56,2.56,0,0,0,2.085-.541l-.629-.228.011-.094h1.547l.029.125-.559.291c1.046.176,2.015.342,2.983.5.838.141,1.66.3,2.5.367.479.039.978-.115,1.459-.119.219,0,.559.094.633.247.1.219,0,.53-.011.8v.648c-.854.1-1.726.2-2.6.29-.4.039-.669.152-.7.63a.987.987,0,0,1-.331.562c-.353.343-.74.649-1.118.968-.031-.457-.208-.967-.049-1.327s.652-.555,1.027-.843l-.279-.347a3.112,3.112,0,0,0-.463.281,1.5,1.5,0,0,1-1.414.381,2.871,2.871,0,0,0-2.761.87l1.481.243v1.594c-.365-.209-.365-.209-.393-.953a12.122,12.122,0,0,1-1.042,1.134,2.382,2.382,0,0,1-.921.422.859.859,0,0,0-.629.984.5.5,0,0,1,.022.236,1.855,1.855,0,0,1-.25.5c-.043.053-.3.018-.306,0a4,4,0,0,1-.014-.506l-.511-.453.059-.132H362.5c-.017.093-.035.186-.052.281l.935.313-.611.385c.317.413.8.9.377,1.383-.489.562-.96,1.241-1.816,1.32l-.321.034c-.225.221.156.947-.636.673.066-.239.122-.44.177-.645-.613.1-.686.264-.335.735C361.049,219.143,361.049,219.143,359.765,219.9Zm-15.014-7.87a6.873,6.873,0,0,0-.5.675,1.541,1.541,0,0,0-.1.458c.161.021.341.1.476.051a1.469,1.469,0,0,1,1.41.03.478.478,0,0,0,.344.034,2.045,2.045,0,0,0,.4-.188,1.357,1.357,0,0,0-.246-.348c-.26-.181-.546-.325-.817-.481l-.443.34Zm4.548,2.093.173-.141-.872-1.608.826-.073c-.348-.641-.763-.044-1.129-.129-.117-.028-.37.076-.387.157a.618.618,0,0,0,.116.483,5.706,5.706,0,0,0,.71.576l-.555.266C348.442,214.21,348.888,214.113,349.3,214.123Zm3.817-6.136,1.366-.444-1.214-.115c-.057.208-.123.433-.158.559Z" transform="translate(-305.091 -193.594)"/>
    <path id="路径_52482" data-name="路径 52482" class="cls-54" d="M124.213,205.276l1.723-.475-1.007-.07a1.032,1.032,0,0,1,1.213-.422c.363.055.708.25,1.072.291a5.273,5.273,0,0,0,1.06-.076c.038.228.07.422.131.777.168-.81.671-1.044,1.292-.756a.281.281,0,0,1,.14.212.26.26,0,0,1-.2.164,5.825,5.825,0,0,1-.662-.141l-.5.743,1.007.316-.978.422h1.239c-.108-.469-.108-.469-.9-1.131a8.941,8.941,0,0,1,1.023.014c.088.011.2.171.228.281.089.325.147.659.225,1.029a1.854,1.854,0,0,0,.112-1.744,8.159,8.159,0,0,1,.679.516c.022.02-.117.222-.193.357.626.659,1.06.8,1.537.375a3.073,3.073,0,0,1-.534-.1,4.1,4.1,0,0,1-.511-.281c.068-.124.14-.351.2-.351a3.174,3.174,0,0,1,.7.141c.029.007.049.056.11.131l.14-.336c-.768-.229-1.5-.441-2.226-.669a.513.513,0,0,1-.3-.335,2.048,2.048,0,0,1,.549.105,4.382,4.382,0,0,0,2.515.481c.082-.01.182.118.225.239a11.352,11.352,0,0,1,4.179,1.741l-1,.222.307.422-.059.177-3.026-.523,1.128-.58-.052-.132-.613.281c-.028-.188-.052-.344-.078-.514h-.795c-.008.17-.015.316-.022.479l-.771.063-.024.087.978.389-.046.166a2.681,2.681,0,0,0-2.4.254.929.929,0,0,0-.359.482c-.015.1.236.3.4.354.449.141.938.178,1.368.36a9.383,9.383,0,0,1,1.264.784l-.05-.711c.02,0,.1.008.18.011s.184,0,.391,0c-.14-.281-.242-.474-.328-.675-.2-.462-.015-.79.475-.717.534.08,1.15.053,1.482.665.035.065.372.062.467-.024.27-.243.44-.214.692.037.458.453.961.86,1.481,1.32l-.186.444.746.479-.061.141h-1.269l.356-.717a4.733,4.733,0,0,1-.756.291,3.424,3.424,0,0,1-.622-.018c-.243,0-.488.024-.741.038l1.885.857c-.683.1-1.084.718-1.726.215-.242-.191-.577.17-.711.752-.654-.025-.942.33-1.04.974-.028.184-.362.326-.559.478s-.387.271-.6.422c.133.38.263.745.391,1.112l-.2.124a2.438,2.438,0,0,1-.4-.394,1.055,1.055,0,0,0-1.4-.5,13.2,13.2,0,0,0-1.418.374c-.57.257-.182.793-.148,1.169a1.05,1.05,0,0,0,.6.7c.341.121.7-.048.7-.549h.838l-.335,1.076c.14.051.2.091.253.086.6-.066,1.016-.008.76.805-.113.36.131.462.551.516a2.434,2.434,0,0,0,1.693-.62,1.749,1.749,0,0,1,.217-.089c-.027.194-.048.351-.049.358.279,0,.517-.013.756,0,.461.03.922.073,1.4.112a1.4,1.4,0,0,0,1.3,1.006c.542.021.655.45.9.758.036.045-.1.229-.117.266.9.344,1.869.658,2.794,1.088.6.281.682.683.19,1.174a3.082,3.082,0,0,0-.754,1.734.936.936,0,0,1-.81.877,1,1,0,0,0-.989.908c-.046.346-.45.666-.741.947a7.6,7.6,0,0,1-.929.659c.088.392-.151.677-.746.766a1.185,1.185,0,0,0-.65.454l-.668.939.388.17c-.32.386-.685.642-.724.94-.024.191.432.446.65.649-.742.233-1.361.183-1.643-.245a1.773,1.773,0,0,1-.184-1.984,3.06,3.06,0,0,0,.108-1.093c.021-.212.066-.422.1-.635.189-1.062.39-2.124.559-3.19a.507.507,0,0,0-.19-.438c-.859-.34-1.136-1.14-1.57-1.844a1.994,1.994,0,0,1-.345-1.508,1.523,1.523,0,0,1,.419-.676.766.766,0,0,0,.112-1.068c-.062-.089-.27-.19-.32-.155-.559.392-.838-.094-1.1-.389a4.3,4.3,0,0,0-2.291-1.165,2.515,2.515,0,0,1-1.928-1.265,6.041,6.041,0,0,0-1.667-1.8l1.172,1.574c-.708.183-.687-.884-1.241-.745a3.275,3.275,0,0,0-1-1.581,4.089,4.089,0,0,1-.727-.772,2.234,2.234,0,0,1-.271-1.095,1.182,1.182,0,0,0-.546-1.265c-.292-.176-.462-.562-.734-.905l-.06.624c-1.1-1.686-2.484-2.36-4.323-1.658.075.457-.089.654-.654.583a2.936,2.936,0,0,0-1.023.232l-.7.184-.07-.2,1.3-.531c-.349-.141-.63-.27-.921-.374s-.559-.169-.968-.291l.517-.462-.7-.438.032-.15h1.264l.02-.068-1.058-.361a1.677,1.677,0,0,1,.374-.226,5.78,5.78,0,0,1,2.55-.3c1,.2,2.03.25,3.047.364a.494.494,0,0,0,.176,0,8.11,8.11,0,0,1,4.007.008c-.17-.377-.323-.572-.777-.4a2.575,2.575,0,0,1-1-.042ZM132,211.646l.611-.9.651.451.33-.632a7.707,7.707,0,0,0-1.432.229c-.112.041-.091.474-.154.847Z" transform="translate(-116.473 -192.12)"/>
    <path id="路径_52483" data-name="路径 52483" class="cls-54" d="M255.18,190.115a14.909,14.909,0,0,1,2.045-1.355,4.6,4.6,0,0,1,1.522-.2,9.105,9.105,0,0,1,1.753-.811,3.77,3.77,0,0,1,2.667.042c.247.129.616.02.992.02.073.186.17.422.253.655.164.481.456.572.859.281a.657.657,0,0,1,.992.042c-.372.266-.732.489-1.047.764a.551.551,0,0,0-.126.475c.193.587-.01.954-.665,1.075v.569l-.7-.422.337.548c-.9.243-1.765.445-2.607.725a1.163,1.163,0,0,0-.592.59c-.249.554-.613.6-1.093.378a2.294,2.294,0,0,1-1.238-1.418c-.124-.368-.237-.741-.38-1.1-.253-.632-.83-.59-1.355-.61C256.227,190.34,255.623,190.495,255.18,190.115Z" transform="translate(-236.516 -177.817)"/>
    <path id="路径_52484" data-name="路径 52484" class="cls-54" d="M529.377,338.213l-.335.239c-.042-.03-.091-.044-.1-.072a.87.87,0,0,0-1.2-.562c-.69.178-1.346.486-2.033.683a3.291,3.291,0,0,1-.872,0l.17-.211c-.043-.3-.08-.606-.131-.907a1.641,1.641,0,0,0-.108-.281c-.429-1.179-.279-1.442.915-1.786a2.64,2.64,0,0,0,.771-.545c.246-.2.5-.437.787-.686l.443.222a1.221,1.221,0,0,1,1.7-.545c-.14.436-.14.8.353.918.157.039.407.105.468.034a.958.958,0,0,0,.14-.534,5.609,5.609,0,0,0-.022-.649l.186-.051c.272.495.542.992.821,1.483a1.073,1.073,0,0,0,.28.354,2.4,2.4,0,0,1,.419,3.584,1.285,1.285,0,0,1-2.067-.177A3.506,3.506,0,0,0,529.377,338.213Z" transform="translate(-468.253 -303.266)"/>
    <path id="路径_52485" data-name="路径 52485" class="cls-54" d="M550.63,318.94c.576.051,1.142.068,1.7.155a2.74,2.74,0,0,1,2.061,2.076l-.935-.808-.687.548c-.2-.353-.559-.453-.742-.87-.116-.274-.733-.334-1.065-.465Z" transform="translate(-490.686 -290.769)"/>
    <path id="路径_52486" data-name="路径 52486" class="cls-54" d="M518.32,309.494l1.693-1.124c.625.679.029,1.35-.222,2.042C518.72,310.6,518.544,310.488,518.32,309.494Z" transform="translate(-462.891 -281.685)"/>
    <path id="路径_52487" data-name="路径 52487" class="cls-54" d="M424.775,336.09a4.725,4.725,0,0,1-.664,2.608c-.046.105-.306.181-.449.159-.1-.016-.224-.223-.232-.353-.029-.454-.018-.912-.013-1.369a.309.309,0,0,1,.092-.2c.3-.281.609-.549.928-.807C424.5,336.077,424.621,336.107,424.775,336.09Z" transform="translate(-381.242 -305.509)"/>
    <path id="路径_52488" data-name="路径 52488" class="cls-54" d="M551.931,253.254l-.986.2a1.228,1.228,0,0,0,.013.214c.106.829.022,1-.724,1.335-.443.2-.894.381-1.352.541-.092.032-.31-.051-.33-.12a.476.476,0,0,1,.071-.415,1.531,1.531,0,0,1,.638-.263c.965-.141,1.083-.238,1.284-1.141C550.74,252.727,551.123,252.611,551.931,253.254Z" transform="translate(-488.884 -233.963)"/>
    <path id="路径_52489" data-name="路径 52489" class="cls-54" d="M499.082,309.65l2.134,1.686-.176.675,1.816.385c-1.548.375-2.066-.111-3.089-1.6-.242-.351-.53-.67-.8-1Z" transform="translate(-446.244 -282.785)"/>
    <path id="路径_52490" data-name="路径 52490" class="cls-54" d="M435.536,207.629l-1.126-.309c1.065-1.109,2.325-1.074,3.554-1.14l.07.156a3.045,3.045,0,0,1-.618.257,4.474,4.474,0,0,1-.766.02C435.866,206.625,435.655,206.8,435.536,207.629Z" transform="translate(-390.704 -193.856)"/>
    <path id="路径_52491" data-name="路径 52491" class="cls-54" d="M601.48,378.214c.482-.365.905-.7,1.357-1,.07-.046.279.114.43.186C602.317,378.623,602.074,378.679,601.48,378.214Z" transform="translate(-534.432 -340.842)"/>
    <path id="路径_52492" data-name="路径 52492" class="cls-54" d="M503.209,306.513c-.95-.239-.8-1.234-1.459-1.71C502.4,304.737,502.942,305.42,503.209,306.513Z" transform="translate(-448.636 -278.615)"/>
    <path id="路径_52493" data-name="路径 52493" class="cls-54" d="M325.862,222.42c-.877.734-1.653.669-1.9,0Z" transform="translate(-295.686 -207.814)"/>
    <path id="路径_52494" data-name="路径 52494" class="cls-54" d="M533.944,290.64l.316.281c-.127.209-.251.412-.419.679l.63.049-.749.555c-.034-.315-.068-.635-.1-.956h-.14Z" transform="translate(-475.933 -266.446)"/>
    <path id="路径_52495" data-name="路径 52495" class="cls-54" d="M612.79,369.13l.889.673-.366.562C612.452,370.2,613.1,369.48,612.79,369.13Z" transform="translate(-544.161 -333.906)"/>
    <path id="路径_52496" data-name="路径 52496" class="cls-54" d="M534,320.422l-1.073-.617c.015-.067.053-.242.089-.4h.988l-.389.256Z" transform="translate(-475.459 -291.164)"/>
    <path id="路径_52497" data-name="路径 52497" class="cls-54" d="M536.43,305.19a8.15,8.15,0,0,1,.929-.14.51.51,0,0,1,.14.374.492.492,0,0,1-.4.215,2.919,2.919,0,0,1-.655-.294Z" transform="translate(-478.47 -278.831)"/>
    <path id="路径_52498" data-name="路径 52498" class="cls-54" d="M206.08,202.723a.885.885,0,0,1,1.41.141Z" transform="translate(-194.277 -190.637)"/>
    <path id="路径_52499" data-name="路径 52499" class="cls-54" d="M251.94,289.14c.741-.492.887-.478,1.176.122Z" transform="translate(-233.729 -264.856)"/>
    <path id="路径_52500" data-name="路径 52500" class="cls-54" d="M240.178,285.162l-1.548-.52A1.35,1.35,0,0,1,240.178,285.162Z" transform="translate(-222.279 -261.217)"/>
    <path id="路径_52501" data-name="路径 52501" class="cls-55" d="M360.765,220.9c-.279-.319-.538-.611-.847-.961-.119.222-.2.382-.291.542l-.155.031c-.078-.4-.158-.811-.247-1.272l-.492.326c-.158-.354-.3-.686-.454-1.015a.636.636,0,0,0-1.076-.246c-.644.5-1.487.843-1.509,1.892-.007.329-.288.651-.443.977l-.187-.022c-.324-.821-.665-1.636-.963-2.465a2.478,2.478,0,0,0-1.7-1.095,6.363,6.363,0,0,1-1.267-.18,2.127,2.127,0,0,1-1.712-.946c-.173.641.453.878.521,1.157a8.529,8.529,0,0,1,1.32.128c.432.114.419.467.155.734a4.6,4.6,0,0,1-1.046.843,12.488,12.488,0,0,1-1.585.663c-.5.193-.6-.15-.782-.53-.383-.814-.85-1.589-1.294-2.374-.038-.066-.17-.079-.258-.117l-.148.1c.654,1.145,1.308,2.291,2,3.5l1.537-.422a2.938,2.938,0,0,1-1.171,2.087c-.24.2-.461.431-.7.634a1.382,1.382,0,0,0-.412,1.737c.335.89.179,1.19-.6,1.738-.15.1-.348.3-.341.443a3.113,3.113,0,0,1-1.281,2.389,2.464,2.464,0,0,1-1.938.551.306.306,0,0,1-.233-.141c-.218-.544-.419-1.1-.625-1.643a10.989,10.989,0,0,0-.468-1.15c-.3-.576-.52-1.124,0-1.7a.424.424,0,0,0,.036-.365c-.237-.537-.514-1.054-.746-1.592a1.284,1.284,0,0,1-.092-.61,5.368,5.368,0,0,1,.219-.822,4.814,4.814,0,0,1-.507.076c-.148,0-.394.028-.432-.044-.33-.632-.764-.354-1.217-.2a2.865,2.865,0,0,1-.725.063c-.1,0-.231-.055-.279-.008-.629.533-.946-.042-1.322-.372-.293-.257-.574-.528-.848-.805a.892.892,0,0,1-.151-1.093,1.171,1.171,0,0,0,.14-.663,1.87,1.87,0,0,1,.8-1.8c.2-.191.316-.462.5-.666.231-.253.46-.611.749-.683.953-.235,1.93-.374,2.9-.521.541-.082.68.141.446.745.419.17.826.368,1.258.5a.776.776,0,0,0,.613-.051,1.455,1.455,0,0,1,1.292-.148c.271.049.535.141.806.169.94.089.942.08,1.161-.937-.76-.119-1.867.509-2.018-.957l-.154-.03a3.836,3.836,0,0,1-.161.441c-.089.177-.2.343-.3.513a2.532,2.532,0,0,1-.419-.3c-.426-.453-.829-.926-1.257-1.377-.075-.08-.225-.09-.409-.011L343,214.3c-.06.16-.117.316-.183.495a.967.967,0,0,1-.14-.07c-.446-.323-.89-.651-1.34-.97-.056-.041-.169-.074-.215-.045-.6.378-1.438.336-1.816,1.154a.953.953,0,0,1-1.169.339c-.243-.07-.476-.177-.743-.281.015-.169.025-.322.042-.475.085-.811.152-.87.96-.736.3.051.6.159.721-.26s-.218-.447-.457-.562c-.052-.025-.106-.048-.268-.122l1.367-.337c-.5-.176-1.07.2-1.48-.41l.4-.385-.1-.148c-.351.281-.7.562-1.081.857-.372-.691-.3-.808.53-1.1l-.113-.368c.812-.315.849-.281,1.235.395a3.984,3.984,0,0,0,.6.639c.3.327.523.008.785-.079a2.484,2.484,0,0,1,.623-.038c-.194-.409-.235-.772.4-.843.031.174.061.356.112.638.542-.056,1.067-.1,1.587-.174.106-.015.194-.152.291-.233.172-.141.345-.29.588-.5-.084-.167-.362-.472-.344-.76s.342-.526.5-.742a.417.417,0,0,0-.293.025c-.359.263-.686.571-1.045.878l.324.184a1.322,1.322,0,0,1-1.389,1.006l-.231-.578a2.036,2.036,0,0,0-.366.124c-.386.222-.574.027-.741-.3-.19-.375-.032-.573.279-.766.552-.336,1.068-.735,1.628-1.055a3.854,3.854,0,0,1,2.609-.538c1.056.188,2.1.5,3.044.734.116-.121.229-.3.39-.372.078-.032.247.156.4.261l4.2-.342c-.007-.031-.129-.281-.074-.333a1.86,1.86,0,0,1,.78-.461c.168-.034.39.211.619.35l.147-.259.264.382c.6-.873.97.014,1.57.051l-.62-.422a14.1,14.1,0,0,1,6.751-.71v.7c.749-.086,1.474-.164,2.2-.253.39-.046.759-.06.953.379.025.055.035.127.076.16a2.56,2.56,0,0,0,2.085-.541l-.629-.228.011-.094h1.547l.029.125-.559.291c1.047.176,2.015.342,2.983.5.838.141,1.66.3,2.5.367.479.039.978-.115,1.459-.119.219,0,.559.094.633.247.1.219,0,.53-.011.8v.648c-.854.1-1.725.2-2.6.29-.4.039-.669.152-.7.63a.988.988,0,0,1-.331.562c-.353.343-.74.649-1.118.968-.031-.457-.208-.967-.049-1.327s.652-.555,1.027-.843l-.279-.347a3.107,3.107,0,0,0-.462.281,1.5,1.5,0,0,1-1.414.381,2.871,2.871,0,0,0-2.761.87l1.481.243v1.594c-.365-.209-.365-.209-.393-.953a12.106,12.106,0,0,1-1.042,1.134,2.382,2.382,0,0,1-.921.422.859.859,0,0,0-.629.984.5.5,0,0,1,.022.236,1.851,1.851,0,0,1-.25.5c-.043.053-.3.018-.306,0a4.011,4.011,0,0,1-.014-.506l-.511-.453.059-.132H363.5c-.017.093-.035.185-.052.281l.935.313-.611.385c.317.413.8.9.377,1.383-.489.562-.96,1.241-1.816,1.32l-.321.034c-.225.221.156.947-.636.673.066-.239.122-.44.177-.645-.613.1-.686.264-.335.735C362.049,220.143,362.049,220.143,360.765,220.9Zm-15.014-7.87a6.883,6.883,0,0,0-.5.675,1.541,1.541,0,0,0-.1.458c.161.021.341.1.476.051a1.469,1.469,0,0,1,1.41.03.478.478,0,0,0,.344.034,2.048,2.048,0,0,0,.4-.188,1.357,1.357,0,0,0-.246-.349c-.26-.181-.546-.325-.817-.481l-.443.34Zm4.548,2.093.173-.141-.872-1.608.826-.073c-.348-.641-.763-.044-1.129-.129-.117-.028-.37.076-.387.157a.618.618,0,0,0,.116.483,5.686,5.686,0,0,0,.71.576l-.555.266C349.442,215.21,349.887,215.113,350.3,215.123Zm3.817-6.136,1.366-.444-1.214-.115c-.057.208-.123.433-.158.559Z" transform="translate(-305.951 -194.454)"/>
    <path id="路径_52502" data-name="路径 52502" class="cls-56" d="M125.213,206.276l1.723-.475-1.007-.07a1.032,1.032,0,0,1,1.213-.422c.363.055.708.25,1.072.291a5.277,5.277,0,0,0,1.06-.076c.038.228.07.422.131.777.168-.81.671-1.044,1.292-.756a.281.281,0,0,1,.14.212.26.26,0,0,1-.2.164,5.819,5.819,0,0,1-.662-.141l-.5.743,1.007.316-.978.422h1.239c-.108-.469-.108-.469-.9-1.131a8.948,8.948,0,0,1,1.023.014c.088.011.2.171.228.281.089.325.147.659.225,1.029a1.854,1.854,0,0,0,.112-1.744,8.136,8.136,0,0,1,.679.516c.022.02-.117.222-.193.357.626.659,1.06.8,1.537.375a3.076,3.076,0,0,1-.534-.1,4.093,4.093,0,0,1-.511-.281c.068-.124.14-.351.2-.351a3.173,3.173,0,0,1,.7.141c.029.007.049.056.11.131l.14-.336c-.768-.229-1.5-.441-2.226-.669a.513.513,0,0,1-.3-.335,2.047,2.047,0,0,1,.549.105,4.382,4.382,0,0,0,2.515.481c.082-.01.182.118.225.239a11.351,11.351,0,0,1,4.179,1.741l-1,.222.307.422-.059.177-3.026-.523,1.128-.58-.052-.132-.613.281c-.028-.188-.052-.344-.078-.514h-.795c-.008.17-.015.316-.022.479l-.771.063-.024.087.978.389-.046.166a2.682,2.682,0,0,0-2.4.254.929.929,0,0,0-.359.482c-.015.1.236.3.4.354.449.141.937.178,1.368.36a9.383,9.383,0,0,1,1.264.784l-.05-.711c.02,0,.1.008.18.011s.184,0,.391,0c-.14-.281-.242-.474-.328-.675-.2-.462-.015-.79.475-.717.534.08,1.15.053,1.482.665.035.065.372.062.467-.024.27-.243.44-.214.692.037.458.453.961.86,1.481,1.32l-.186.444.746.479-.061.141h-1.269l.356-.717a4.731,4.731,0,0,1-.756.291,3.415,3.415,0,0,1-.622-.018c-.243,0-.488.024-.741.038l1.885.857c-.683.1-1.084.718-1.726.215-.242-.191-.577.17-.711.752-.654-.025-.942.33-1.04.974-.028.184-.362.326-.559.478s-.387.271-.6.422c.133.379.263.745.391,1.112l-.2.124a2.435,2.435,0,0,1-.4-.394,1.055,1.055,0,0,0-1.4-.5,13.2,13.2,0,0,0-1.418.374c-.57.257-.182.793-.148,1.169a1.05,1.05,0,0,0,.6.7c.341.121.7-.048.7-.55h.838l-.335,1.077c.14.051.2.091.253.086.605-.066,1.016-.008.76.805-.113.36.131.462.551.516a2.434,2.434,0,0,0,1.693-.62,1.733,1.733,0,0,1,.217-.089c-.027.194-.048.351-.049.358.279,0,.517-.013.756,0,.461.029.922.073,1.4.112a1.4,1.4,0,0,0,1.3,1.006c.542.021.655.45.9.757.036.045-.1.229-.117.266.9.344,1.869.658,2.794,1.088.6.281.682.683.19,1.174a3.082,3.082,0,0,0-.754,1.734.936.936,0,0,1-.81.877,1,1,0,0,0-.989.908c-.046.346-.45.666-.74.947a7.6,7.6,0,0,1-.929.659c.088.392-.151.677-.746.766a1.185,1.185,0,0,0-.65.454l-.668.939.388.17c-.32.386-.685.642-.724.94-.024.191.432.445.65.649-.742.233-1.361.183-1.643-.245a1.773,1.773,0,0,1-.184-1.984,3.061,3.061,0,0,0,.108-1.093c.021-.212.066-.422.1-.635.189-1.063.39-2.124.559-3.19a.507.507,0,0,0-.19-.438c-.859-.34-1.136-1.14-1.57-1.844a1.994,1.994,0,0,1-.345-1.508,1.523,1.523,0,0,1,.419-.676.766.766,0,0,0,.112-1.068c-.061-.089-.27-.19-.32-.155-.559.392-.838-.094-1.1-.389a4.3,4.3,0,0,0-2.291-1.165,2.515,2.515,0,0,1-1.928-1.265,6.042,6.042,0,0,0-1.667-1.8l1.172,1.574c-.708.183-.687-.884-1.241-.745a3.274,3.274,0,0,0-1-1.581,4.089,4.089,0,0,1-.727-.772,2.233,2.233,0,0,1-.271-1.095,1.182,1.182,0,0,0-.546-1.265c-.292-.176-.462-.562-.734-.905l-.06.624c-1.1-1.686-2.484-2.36-4.323-1.658.075.457-.089.654-.654.583a2.935,2.935,0,0,0-1.023.232l-.7.184-.07-.2,1.3-.531c-.349-.141-.63-.27-.921-.374s-.559-.169-.968-.291l.517-.462-.7-.438.032-.15h1.264l.02-.067-1.058-.361a1.674,1.674,0,0,1,.374-.226,5.78,5.78,0,0,1,2.55-.3c1,.2,2.03.25,3.047.364a.494.494,0,0,0,.176,0,8.11,8.11,0,0,1,4.007.008c-.17-.377-.323-.572-.777-.4a2.575,2.575,0,0,1-1-.042ZM133,212.646l.611-.9.651.451.33-.632a7.71,7.71,0,0,0-1.432.229c-.112.041-.091.474-.154.847Z" transform="translate(-117.333 -192.98)"/>
    <path id="路径_52503" data-name="路径 52503" class="cls-56" d="M256.18,191.115a14.908,14.908,0,0,1,2.045-1.355,4.6,4.6,0,0,1,1.522-.2,9.1,9.1,0,0,1,1.754-.811,3.769,3.769,0,0,1,2.667.042c.247.129.616.02.992.02.073.186.17.422.253.655.163.481.455.572.859.281a.657.657,0,0,1,.992.042c-.372.266-.732.489-1.046.764a.55.55,0,0,0-.126.475c.193.587-.01.954-.665,1.075v.569l-.7-.422.337.548c-.9.243-1.765.445-2.607.725a1.163,1.163,0,0,0-.592.59c-.249.554-.613.6-1.093.378a2.294,2.294,0,0,1-1.238-1.418c-.124-.368-.238-.741-.38-1.1-.253-.632-.83-.59-1.355-.61C257.227,191.34,256.623,191.495,256.18,191.115Z" transform="translate(-237.377 -178.676)"/>
    <path id="路径_52504" data-name="路径 52504" class="cls-57" d="M530.377,339.213l-.335.239c-.042-.029-.091-.044-.1-.072a.87.87,0,0,0-1.2-.562c-.69.178-1.346.486-2.033.683a3.293,3.293,0,0,1-.872,0l.17-.211c-.043-.3-.08-.606-.131-.906a1.639,1.639,0,0,0-.107-.281c-.429-1.179-.279-1.442.915-1.786a2.641,2.641,0,0,0,.771-.545c.246-.2.5-.437.787-.686l.443.222a1.221,1.221,0,0,1,1.7-.545c-.14.436-.14.8.353.918.156.039.407.105.468.034a.958.958,0,0,0,.14-.534,5.6,5.6,0,0,0-.022-.649l.186-.051c.272.495.542.992.822,1.483a1.074,1.074,0,0,0,.279.354,2.4,2.4,0,0,1,.419,3.584,1.285,1.285,0,0,1-2.066-.177A3.513,3.513,0,0,0,530.377,339.213Z" transform="translate(-469.113 -304.125)"/>
    <path id="路径_52505" data-name="路径 52505" class="cls-57" d="M551.63,319.94c.576.051,1.141.067,1.7.155a2.741,2.741,0,0,1,2.061,2.076l-.935-.808-.687.548c-.2-.353-.559-.453-.742-.87-.116-.274-.733-.334-1.065-.465Z" transform="translate(-491.547 -291.628)"/>
    <path id="路径_52506" data-name="路径 52506" class="cls-57" d="M519.32,310.494l1.693-1.124c.625.679.029,1.351-.222,2.042C519.72,311.6,519.544,311.488,519.32,310.494Z" transform="translate(-463.751 -282.544)"/>
    <path id="路径_52507" data-name="路径 52507" class="cls-57" d="M425.775,337.09a4.725,4.725,0,0,1-.664,2.608c-.046.105-.306.181-.448.159-.1-.015-.224-.223-.232-.353-.029-.454-.018-.912-.013-1.369a.308.308,0,0,1,.092-.2c.3-.281.609-.55.928-.807C425.5,337.077,425.621,337.107,425.775,337.09Z" transform="translate(-382.103 -306.368)"/>
    <path id="路径_52508" data-name="路径 52508" class="cls-57" d="M552.931,254.254l-.986.2a1.234,1.234,0,0,0,.013.214c.106.829.022,1-.724,1.335-.443.2-.894.381-1.353.541-.092.032-.31-.051-.33-.119a.477.477,0,0,1,.071-.415,1.531,1.531,0,0,1,.638-.263c.965-.141,1.083-.238,1.284-1.141C551.74,253.727,552.123,253.611,552.931,254.254Z" transform="translate(-489.744 -234.823)"/>
    <path id="路径_52509" data-name="路径 52509" class="cls-57" d="M500.082,310.65l2.134,1.686-.176.675,1.816.385c-1.548.375-2.066-.111-3.089-1.6-.242-.351-.53-.67-.8-1Z" transform="translate(-447.104 -283.644)"/>
    <path id="路径_52510" data-name="路径 52510" class="cls-57" d="M436.536,208.629l-1.126-.309c1.065-1.109,2.325-1.074,3.554-1.14l.07.156a3.042,3.042,0,0,1-.618.257,4.468,4.468,0,0,1-.766.02C436.866,207.626,436.655,207.8,436.536,208.629Z" transform="translate(-391.565 -194.716)"/>
    <path id="路径_52511" data-name="路径 52511" class="cls-57" d="M602.48,379.214c.482-.365.905-.7,1.357-1,.07-.046.279.114.43.186C603.317,379.623,603.074,379.679,602.48,379.214Z" transform="translate(-535.292 -341.702)"/>
    <path id="路径_52512" data-name="路径 52512" class="cls-57" d="M504.209,307.513c-.95-.239-.8-1.234-1.459-1.71C503.4,305.737,503.942,306.42,504.209,307.513Z" transform="translate(-449.496 -279.475)"/>
    <path id="路径_52513" data-name="路径 52513" class="cls-56" d="M326.862,223.42c-.877.734-1.653.669-1.9,0Z" transform="translate(-296.547 -208.673)"/>
    <path id="路径_52514" data-name="路径 52514" class="cls-57" d="M534.944,291.64l.316.281c-.127.209-.252.412-.419.679l.63.049-.749.555c-.034-.315-.068-.635-.1-.956h-.14Z" transform="translate(-476.793 -267.306)"/>
    <path id="路径_52515" data-name="路径 52515" class="cls-57" d="M613.79,370.13l.889.673-.366.562C613.452,371.2,614.1,370.48,613.79,370.13Z" transform="translate(-545.022 -334.765)"/>
    <path id="路径_52516" data-name="路径 52516" class="cls-57" d="M535,321.422l-1.073-.617c.015-.068.053-.242.09-.4h.988l-.388.256Z" transform="translate(-476.32 -292.024)"/>
    <path id="路径_52517" data-name="路径 52517" class="cls-57" d="M537.43,306.191a8.126,8.126,0,0,1,.929-.141.51.51,0,0,1,.14.374.492.492,0,0,1-.4.215,2.921,2.921,0,0,1-.655-.294Z" transform="translate(-479.331 -279.691)"/>
    <path id="路径_52518" data-name="路径 52518" class="cls-57" d="M207.08,203.723a.885.885,0,0,1,1.41.141Z" transform="translate(-195.137 -191.497)"/>
    <path id="路径_52519" data-name="路径 52519" class="cls-56" d="M252.94,290.14c.741-.492.887-.478,1.176.122Z" transform="translate(-234.589 -265.716)"/>
    <path id="路径_52520" data-name="路径 52520" class="cls-56" d="M241.178,286.162l-1.548-.52A1.35,1.35,0,0,1,241.178,286.162Z" transform="translate(-223.139 -262.076)"/>
  </g>
  <path id="路径_52521" data-name="路径 52521" class="cls-45" d="M174.267,291.47a24.606,24.606,0,0,1-48.607,5.438,24.547,24.547,0,0,0,48.607-5.438Z" transform="translate(-114.912 -256.852)"/>
  <path id="路径_52522" data-name="路径 52522" class="cls-53" d="M122.276,138.556a24.651,24.651,0,0,1,40.673-13.1,24.725,24.725,0,1,0-28.3,39.945A24.66,24.66,0,0,1,122.276,138.556Z" transform="translate(-111.103 -108.443)"/>
  <g id="组_66101" data-name="组 66101" transform="translate(17.966 17.572)">
    <path id="路径_51722" data-name="路径 51722" class="cls-58" d="M146.127,219.292l-.8-.394,12.729-29.992,7.652-.589.8.589,11.63,30.386h-7.957l-.8-.4-1.8-7.44-7.119.086-.742-.4,2.368-5.094,3.669-.111-3.552-10.008-8.055,23.365Z" transform="translate(-145.32 -188.122)"/>
    <path id="路径_51722-2" data-name="路径 51722" class="cls-45" d="M144.23,215.206l11.6-30.386,8.785.168,11.294,30.218-7.621.336-2.935-8.168-6.783.422,1.289-5.829,3.669-.111-3.552-10-8.052,23.356-7.638.336Z" transform="translate(-144.203 -184.82)"/>
    <path id="路径_51722-3" data-name="路径 51722" class="cls-59" d="M144.07,217.556,156,187.17h8.448l11.63,30.386h-7.959l-2.6-7.838-7.119.084,1.62-5.492,3.669-.111-3.545-10-8.058,23.365Z" transform="translate(-144.07 -186.775)"/>
  </g>
</svg>
