<svg xmlns="http://www.w3.org/2000/svg" width="38" height="38" viewBox="0 0 38 38"><defs><style>.a{fill:#2a424c;}.b{fill:#e8e9e9;}</style></defs><g transform="translate(-181 -634)"><g transform="translate(0 -20)"><g transform="translate(0 118)"><g transform="translate(0 72)"><g transform="translate(-118 274)"><rect class="a" width="38" height="38" rx="10" transform="translate(299 190)"/></g></g></g></g><g transform="translate(165.024 643)"><path class="b" d="M44.109,11.7a.963.963,0,0,0-1.149.695c-.939,3.67-4,6.567-5.937,6.625H37c-.287-.019-1.149-.019-1.532-1.738-1.149-5.176-4.194-4.848-6.186-4.635-.824.077-1.571.173-1.915-.135-.192-.174-.517-.715-.517-2.318A8.18,8.18,0,0,1,42.9,7.88a.952.952,0,0,0,1.168.637A.963.963,0,0,0,44.7,7.339a10.05,10.05,0,0,0-19.727,2.82c0,1.816.345,3.013,1.13,3.728.957.869,2.241.734,3.371.618,1.954-.212,3.351-.367,4.136,3.148.441,1.989,1.667,3.187,3.333,3.206h.076c3.026,0,6.627-3.708,7.757-8a.945.945,0,0,0-.671-1.158Z" transform="translate(0)"/><path class="b" d="M264.108,334.938l1.322,2.473h.938v-4.636h-.862v1.854c0,.521.076,1.14.115,1.622h-.038l-.46-1-1.341-2.472h-.939v4.635h.862v-1.854c0-.541-.076-1.12-.114-1.622h.038Zm6.224-1.39v-.773H267.5v4.635h.919v-1.873h1.647v-.773h-1.646v-1.216h1.915Zm2.643,3.863v-3.863h1.3v-.773h-3.525v.773h1.3v3.863h.919Z" transform="translate(-233.022 -325.996)"/></g></g></svg>