<svg xmlns="http://www.w3.org/2000/svg" xmlns:xlink="http://www.w3.org/1999/xlink" width="249" height="115.792" viewBox="0 0 249 115.792"><defs><style>.a{opacity:0.801;}.b{fill:url(#a);}.c{fill:url(#b);}.d{fill:url(#c);}.e{fill:url(#d);}.f{opacity:0.825;}.g{fill:url(#e);}.h{opacity:0.928;fill:url(#f);}.i{fill:#ecf6f7;opacity:0.151;}.j{fill:url(#g);}.k{fill:url(#h);}.l{fill:url(#i);}.m{fill:url(#j);}.n{opacity:0.996;}.o{fill:none;stroke:#6dc5d9;stroke-width:3px;}.p{opacity:0.4;fill:url(#k);}.q{fill:url(#l);}.r{fill:url(#m);}.s{fill:url(#n);}</style><linearGradient id="a" x1="-0.47" y1="-1.86" x2="0.689" y2="1" gradientUnits="objectBoundingBox"><stop offset="0" stop-color="#a3dff7"/><stop offset="1" stop-color="#000303"/></linearGradient><linearGradient id="b" x1="1.19" y1="-1.109" x2="0.545" y2="0.556" xlink:href="#a"/><linearGradient id="c" x1="0.5" y1="-2.212" x2="0.5" y2="1" gradientUnits="objectBoundingBox"><stop offset="0" stop-color="#a3dff7"/><stop offset="1"/></linearGradient><linearGradient id="d" x1="1.001" y1="-0.978" x2="0.388" y2="1.047" xlink:href="#a"/><linearGradient id="e" x1="0.192" y1="0.091" x2="0.897" y2="0.957" gradientUnits="objectBoundingBox"><stop offset="0" stop-color="#e8f1f2"/><stop offset="1" stop-color="#9be4ea"/></linearGradient><linearGradient id="f" x1="0.5" x2="0.5" y2="1" gradientUnits="objectBoundingBox"><stop offset="0" stop-color="#1a4757"/><stop offset="1" stop-color="#172731"/></linearGradient><linearGradient id="g" x1="0.088" y1="0.5" x2="0.923" y2="0.5" gradientUnits="objectBoundingBox"><stop offset="0" stop-color="#33afe2"/><stop offset="1" stop-color="#ebf5c7"/></linearGradient><linearGradient id="h" x1="0" y1="0.5" x2="0.939" y2="0.5" xlink:href="#g"/><linearGradient id="i" x1="0.077" y1="0.5" x2="0.92" y2="0.5" xlink:href="#g"/><linearGradient id="j" x1="0" y1="0.5" x2="1" y2="0.5" xlink:href="#g"/><linearGradient id="k" y1="0.5" x2="1" y2="0.5" gradientUnits="objectBoundingBox"><stop offset="0" stop-color="#dff6f4"/><stop offset="1" stop-color="#1bd1d2"/></linearGradient><linearGradient id="l" x1="0.5" y1="0" x2="0.5" y2="1" xlink:href="#k"/><linearGradient id="m" x1="0.512" y1="-0.409" x2="0.497" y2="0.688" xlink:href="#k"/><linearGradient id="n" x1="0.5" y1="0" x2="0.5" y2="1" xlink:href="#g"/></defs><g class="a" transform="translate(-3 -35.168)"><g transform="translate(3 35.168)"><g transform="translate(0 0)"><path class="b" d="M68.51,139.064c-5.318-2.407-11.084-8.861-9.45-14.935a1.975,1.975,0,0,1,2.141.83s9.226,14.411,6.637,1.153c-1.22-6.231-3.319-12.254-3.485-18.693-.274-11.7,10.462-14.942,13.548-2.016.406,1.709,1.966,15.606,5.517,14.013a2.49,2.49,0,0,0,1.062-1.079c1.8-2.954,2.34-7.293,5.642-8.3,2.9-.913,5.749,1.6,7.309,4.2,3.161,5.277,7.392,18.394.921,22.841s-22.8,5.152-29.785,2.041Z" transform="translate(-19.277 -50.02)"/><path class="c" d="M272.466,165.383c-2.339-5.351-2.281-14,3.028-17.423a1.966,1.966,0,0,1,1,2.083s-2.829,16.883,4.148,5.31c3.318-5.451,5.808-11.316,9.956-16.2,7.625-8.91,17.788-4.074,11.408,7.583-.829,1.543-9.01,12.893-5.31,14.1a2.548,2.548,0,0,0,1.51-.091c3.318-.979,6.637-3.833,9.773-2.39,2.755,1.269,3.186,5.036,2.605,8.015-1.195,6.032-7.051,12.777-14.834,11.732-7.948-1.079-20.2-5.667-23.265-12.66Z" transform="translate(-81.176 -62.418)"/><path class="d" d="M249,182.352c-31.287-21.463-75.5-34.846-124.5-34.846S31.287,160.889,0,182.352Z" transform="translate(0 -66.561)"/><path class="e" d="M282.255,103.062c-1.983,2.489-3.252,6.015-2.066,9.168.821,2.173,3.294,2.19,3.12,5.21a9.851,9.851,0,0,1-1.51,4.231,32.187,32.187,0,0,1-5.111,6.712,5.9,5.9,0,0,1,2.215,5.459,9.8,9.8,0,0,1-2.8,5.451,3.957,3.957,0,0,1-1.659,1.195,4.237,4.237,0,0,1-1.909,0,33.184,33.184,0,0,1-8.9-2.845c-1.759-.838-3.551-1.983-4.148-3.808-.685-2.095.4-2.761,1.591-3.417l.306-.169a4.012,4.012,0,0,0,1.578-1.308c.872-1.427.9-3.335,1.2-4.928.448-2.348-.216-6.63,2.721-7.55,1.136-.357,2.373-.273,3.509-.639,2.469-.786,3.491-3.108,4.481-5.457l.18-.427a13.973,13.973,0,0,1,2.034-3.7C278.339,104.788,281.426,104.074,282.255,103.062Zm-7.169,13.93s-8.935,10.421-8.645,20.053h2.888S270.374,125.43,275.086,116.992Z" transform="translate(-85.035 -51.985)"/><g class="f" transform="translate(97.76 0)"><rect class="g" width="66.987" height="87.397" rx="16.26" transform="translate(0 11.195)"/><rect class="h" width="58.964" height="77.441" rx="10.83" transform="translate(4.007 16.173)"/><path class="i" d="M56.487,11.054H48.713a7.575,7.575,0,1,0-14.3-3.518,7.467,7.467,0,0,0,.83,3.493H27.457a1.552,1.552,0,0,0-1.543,1.552v5.078A1.543,1.543,0,0,0,27.457,19.2h29a1.551,1.551,0,0,0,1.551-1.543V12.606A1.552,1.552,0,0,0,56.487,11.054Z" transform="translate(-8.466 0)"/><path class="j" d="M26.467,59.138H17.622a1.659,1.659,0,0,1,0-3.319h8.861a1.659,1.659,0,0,1,0,3.319Z" transform="translate(-5.235 -18.307)"/><path class="k" d="M40.2,72.422H16.746a1.659,1.659,0,1,1,0-3.319H40.2a1.659,1.659,0,0,1,0,3.319Z" transform="translate(-4.948 -22.664)"/><path class="l" d="M40.2,86.138H16.746a1.659,1.659,0,1,1,0-3.319H40.2a1.659,1.659,0,0,1,0,3.319Z" transform="translate(-4.948 -27.162)"/><circle class="m" cx="4.397" cy="4.397" r="4.397" transform="translate(29.096 3.015)"/></g><g class="n" transform="translate(129.669 56.669)"><ellipse class="o" cx="17.365" cy="17.68" rx="17.365" ry="17.68" transform="translate(0 0)"/><circle class="p" cx="15.714" cy="15.714" r="15.714" transform="translate(1.651 1.966)"/><path class="q" d="M10.773,22.2h0A3.169,3.169,0,0,1,7.6,19.048a12.85,12.85,0,0,1,3.415-8.542A11.3,11.3,0,0,1,19.229,7.42a3.185,3.185,0,0,1-.042,6.37c-2.9,0-3.91,1.3-4.44,2.286a7.359,7.359,0,0,0-.778,2.973A3.2,3.2,0,0,1,10.773,22.2Z" transform="translate(-2.494 -2.433)"/><path class="r" d="M0,0H8.181V16.792H0Z" transform="matrix(0.684, -0.73, 0.73, 0.684, 30.602, 37.825)"/><path class="s" d="M0,0H3.435V4.762H0Z" transform="matrix(0.684, -0.73, 0.73, 0.684, 28.791, 32.873)"/></g></g></g></g></svg>