<svg xmlns="http://www.w3.org/2000/svg" xmlns:xlink="http://www.w3.org/1999/xlink" width="81.046" height="69.79" viewBox="0 0 81.046 69.79">
  <defs>
    <style>
      .cls-1 {
        fill: #37bfda;
      }

      .cls-2, .cls-5 {
        fill: none;
      }

      .cls-2, .cls-4, .cls-5 {
        stroke: #37bfda;
        stroke-width: 1.6px;
      }

      .cls-2, .cls-3, .cls-5 {
        fill-rule: evenodd;
      }

      .cls-3 {
        fill: url(#linear-gradient);
      }

      .cls-4 {
        fill: url(#linear-gradient-7);
      }

      .cls-5 {
        stroke-linecap: round;
      }
    </style>
    <linearGradient id="linear-gradient" x1="1.184" y1="1.827" x2="0" y2="1.963" gradientUnits="objectBoundingBox">
      <stop offset="0" stop-color="#5ee5da"/>
      <stop offset="1" stop-color="#129cd9"/>
    </linearGradient>
    <linearGradient id="linear-gradient-7" x1="0.5" x2="0.5" y2="1" gradientUnits="objectBoundingBox">
      <stop offset="0" stop-color="#e8f1f2"/>
      <stop offset="1" stop-color="#9be4ea"/>
    </linearGradient>
  </defs>
  <g id="编辑规则" transform="translate(-220 -192)">
    <g id="空白页" transform="translate(220 192)">
      <g id="浏览器打开" transform="translate(0 0)">
        <g id="分组-11" transform="translate(0 0)">
          <g id="背景_线" data-name="背景/线">
            <g id="_-" data-name="-">
              <g id="编组">
                <path id="Path-2" class="cls-1" d="M.693,63.3a.693.693,0,1,1,0-1.385H61.307a.693.693,0,1,1,0,1.385Zm64.075,0a.693.693,0,1,1,0-1.385h2.165a.693.693,0,1,1,0,1.385Zm7.793,0a.693.693,0,0,1,0-1.385h7.793a.693.693,0,0,1,0,1.385ZM20.608,69.79a.693.693,0,1,1,0-1.385h6.061a.693.693,0,1,1,0,1.385Zm9.958,0a.693.693,0,1,1,0-1.385H56.975a.693.693,0,1,1,0,1.385ZM74.01,42.757a.693.693,0,1,1,1.385,0v2.6a.693.693,0,0,1-.693.693H72.1a.693.693,0,0,1,0-1.385H74.01Zm1.385,5.2a.693.693,0,0,1-1.385,0v-2.6a.693.693,0,0,1,.693-.693h2.6a.693.693,0,0,1,0,1.385H75.4ZM3.46,24.94a.693.693,0,1,1,1.385,0v2.6a.693.693,0,0,1-.693.693H1.558a.693.693,0,0,1,0-1.385h1.9ZM67.625,3.031h2.338a.693.693,0,0,1,0,1.385H67.625V6.754a.693.693,0,0,1-1.385,0V4.416H63.9a.693.693,0,0,1,0-1.385H66.24V.693a.693.693,0,1,1,1.385,0ZM4.849,30.133a.693.693,0,0,1-1.385,0v-2.6a.693.693,0,0,1,.693-.693h2.6a.693.693,0,1,1,0,1.385H4.849Z" transform="translate(0 0)"/>
                <path id="Path复制" class="cls-1" d="M13.792,54.106a.433.433,0,1,1,.612.612l-.919.919a.433.433,0,0,1-.612,0l-.919-.919a.433.433,0,1,1,.612-.612l.612.612Zm-1.225,2.449a.433.433,0,1,1-.612-.612l.919-.919a.433.433,0,0,1,.612,0l.919.919a.433.433,0,0,1-.612.612l-.612-.612ZM21.436,8.783a.433.433,0,1,1,.612.612l-.919.921a.433.433,0,0,1-.612,0L19.6,9.395a.433.433,0,0,1,.612-.612l.612.612Zm-1.224,2.448a.433.433,0,1,1-.612-.612l.919-.919a.433.433,0,0,1,.612,0l.919.919a.433.433,0,0,1-.612.612l-.612-.612Z" transform="translate(-1.589 -1.163)"/>
              </g>
            </g>
          </g>
        </g>
      </g>
    </g>
    <g id="Group-6" transform="translate(244.483 209.138)">
      <g id="分组" transform="translate(0)">
        <path id="矩形" class="cls-2" d="M2.6,0h27.7a2.6,2.6,0,0,1,2.6,2.6V36.351a2.6,2.6,0,0,1-2.6,2.6H2.6a2.6,2.6,0,0,1-2.6-2.6V2.6A2.6,2.6,0,0,1,2.6,0Z" transform="translate(0)"/>
        <path id="路径复制-7" class="cls-3" d="M9,16.731v-.866c0-.478.182-.866.406-.866H11.79c.224,0,.406.388.406.866v.866c0,.478-.182.866-.406.866H9.406C9.182,17.6,9,17.21,9,16.731Z" transform="translate(-5.409 -8.05)"/>
        <path id="路径复制-7-2" data-name="路径复制-7" class="cls-3" d="M9,16.731v-.866c0-.478.182-.866.406-.866H11.79c.224,0,.406.388.406.866v.866c0,.478-.182.866-.406.866H9.406C9.182,17.6,9,17.21,9,16.731Z" transform="translate(-5.409 -0.215)"/>
        <path id="路径复制-7-3" data-name="路径复制-7" class="cls-3" d="M9,16.731v-.866c0-.478.182-.866.406-.866H11.79c.224,0,.406.388.406.866v.866c0,.478-.182.866-.406.866H9.406C9.182,17.6,9,17.21,9,16.731Z" transform="translate(-5.409 7.619)"/>
        <path id="路径复制-7-4" data-name="路径复制-7" class="cls-3" d="M17,16.731v-.866c0-.478.182-.866.406-.866H37.418c.224,0,.406.388.406.866v.866c0,.478-.182.866-.406.866H17.406C17.182,17.6,17,17.21,17,16.731Z" transform="translate(-8.186 -8.05)"/>
        <path id="路径复制-7-5" data-name="路径复制-7" class="cls-3" d="M17,16.731v-.866c0-.478.182-.866.406-.866H37.418c.224,0,.406.388.406.866v.866c0,.478-.182.866-.406.866H17.406C17.182,17.6,17,17.21,17,16.731Z" transform="translate(-8.186 -0.215)"/>
        <path id="路径复制-7-6" data-name="路径复制-7" class="cls-3" d="M17,16.731v-.866c0-.478.182-.866.406-.866H30.889c.224,0,.406.388.406.866v.866c0,.478-.182.866-.406.866H17.406C17.182,17.6,17,17.21,17,16.731Z" transform="translate(-8.186 7.619)"/>
      </g>
    </g>
    <g id="组_7182" data-name="组 7182" transform="translate(270.314 224.138)">
      <path id="Path-10" class="cls-4" d="M28.859,38.046l-1.912.552a1.18,1.18,0,0,1-1.506-1.064l-.105-1.78a1.18,1.18,0,0,1,.185-.708l9.774-15.2a1.18,1.18,0,0,1,1.632-.355l1.985,1.276a1.18,1.18,0,0,1,.355,1.632L29.525,37.55a1.179,1.179,0,0,1-.665.5Z" transform="translate(-25.335 -19.3)"/>
      <path id="Path-11" class="cls-5" d="M33,22l2.95,1.77" transform="translate(-23.955 -18.814)"/>
    </g>
  </g>
</svg>
