<svg xmlns="http://www.w3.org/2000/svg" width="14.074" height="14.074" viewBox="0 0 14.074 14.074"><defs><style>.a{fill:#f06f64;}</style></defs><g transform="translate(-56.889 -56.889)"><path class="a" d="M63.926,56.889a7.037,7.037,0,1,0,7.037,7.037,7.058,7.058,0,0,0-7.037-7.037m0,13.194a6.157,6.157,0,1,1,6.157-6.157,6.119,6.119,0,0,1-6.157,6.157" transform="translate(0 0)"/><path class="a" d="M456.052,234.3a.9.9,0,0,0-.659.253.757.757,0,0,0,0,1.18.985.985,0,0,0,1.318,0,.757.757,0,0,0,0-1.18A.9.9,0,0,0,456.052,234.3Zm-.847-6.742.282,6.068h1.035l.376-6.068Z" transform="translate(-392.126 -167.843)"/></g></svg>