<svg xmlns="http://www.w3.org/2000/svg" width="17.969" height="17.969" viewBox="0 0 17.969 17.969">
  <defs>
    <style>
      .cls-1 {
        fill: #f06f64;
      }
    </style>
  </defs>
  <g id="组_65981" data-name="组 65981" transform="translate(-56.889 -56.889)">
    <path id="路径_33134" data-name="路径 33134" class="cls-1" d="M65.874,56.889a8.985,8.985,0,1,0,8.985,8.985,9.011,9.011,0,0,0-8.985-8.985m0,16.846a7.862,7.862,0,1,1,7.862-7.862,7.813,7.813,0,0,1-7.862,7.862" transform="translate(0)"/>
    <path id="路径_33135" data-name="路径 33135" class="cls-1" d="M456.234,236.54a1.152,1.152,0,1,0,.786.337,1.02,1.02,0,0,0-.786-.337Zm-1.011-8.985.337,8.086H456.8l.449-8.086Z" transform="translate(-390.361 -167.297)"/>
  </g>
</svg>
