<svg width="64" height="64" viewBox="0 0 64 64" fill="none" xmlns="http://www.w3.org/2000/svg">
<circle cx="32" cy="32" r="31.75" fill="url(#paint0_radial)" fill-opacity="0.05" stroke="url(#paint1_linear)" stroke-width="0.5"/>
<path d="M29.9377 41.2516C28.564 41.4912 27.3923 41.2915 26.2879 40.7591C23.8232 39.5611 22.4225 37.498 21.7491 34.9556C20.0656 28.7395 23.6616 21.1923 29.5472 18.4636C34.9344 15.9745 41.3182 17.6782 44.8873 22.7763C48.5506 27.9941 49.0085 33.6112 46.1129 39.255C43.2307 44.8588 38.4091 47.7073 32.0387 48.0002C31.931 48.0002 31.729 48.0002 31.6078 48.0002C31.7829 47.9602 31.9445 47.8937 32.0387 47.8804C37.3721 46.5094 40.6718 43.0352 42.5304 38.057C43.8502 34.543 44.1735 30.9358 42.7189 27.3419C41.7627 24.9858 40.2408 23.0824 37.857 21.9776C34.665 20.5001 31.0286 21.3786 28.4832 24.2005C24.4428 28.6862 24.7525 36.3932 29.1566 40.5328C29.3721 40.7591 29.601 40.9588 29.9377 41.2516Z" fill="#EB522D"/>
<path d="M32.2875 16C29.4483 16.7315 26.9724 18.035 25.0482 20.1764C20.8903 24.845 19.2622 30.1786 21.146 36.2969C21.5497 37.6004 22.2763 38.7575 23.1778 39.7817C26.9455 44.0778 33.0948 43.5591 36.3377 38.7309C39.6882 33.7299 38.7059 26.4278 34.2117 22.9297C34.1848 22.9031 34.1713 22.8632 34.1175 22.7701C34.9787 22.544 35.8129 22.6371 36.6337 22.8765C39.1769 23.608 40.7647 25.3637 41.7604 27.6913C43.1598 30.9899 42.81 34.3018 41.5855 37.5339C39.9977 41.7103 37.1989 44.7828 32.7988 46.1394C27.7259 47.6956 22.2359 45.7404 19.0603 41.1517C15.4407 35.9245 14.9966 30.3116 17.9166 24.6721C20.8096 19.1124 25.6268 16.2793 31.9511 16C32.0587 16 32.1798 16 32.2875 16Z" fill="#EB522D"/>
<defs>
<radialGradient id="paint0_radial" cx="0" cy="0" r="1" gradientUnits="userSpaceOnUse" gradientTransform="translate(32 32) rotate(90) scale(32)">
<stop stop-opacity="0"/>
<stop offset="1" stop-color="white"/>
</radialGradient>
<linearGradient id="paint1_linear" x1="32" y1="0" x2="32" y2="64" gradientUnits="userSpaceOnUse">
<stop stop-color="#4B4C4D"/>
<stop offset="1" stop-opacity="0"/>
</linearGradient>
</defs>
</svg>
