<svg xmlns="http://www.w3.org/2000/svg" width="30" height="30" viewBox="0 0 30 30">
  <defs>
    <style>
      .cls-1 {
        fill: #88bdf3;
      }

      .cls-1, .cls-2, .cls-3, .cls-4 {
        opacity: 0.85;
      }

      .cls-2 {
        fill: #3075ee;
      }

      .cls-3 {
        fill: #5895f0;
      }

      .cls-4 {
        fill: #205fec;
      }

      .cls-5 {
        fill: none;
      }
    </style>
  </defs>
  <g id="组_65966" data-name="组 65966" transform="translate(-132 -316)">
    <g id="组_65958" data-name="组 65958" transform="translate(138 322)">
      <path id="路径_51793" data-name="路径 51793" class="cls-1" d="M365.993,176.066m-4.134,0a4.134,4.134,0,1,0,4.134-4.134A4.134,4.134,0,0,0,361.859,176.066Z" transform="translate(-356.842 -171.933)"/>
      <path id="路径_51794" data-name="路径 51794" class="cls-2" d="M365.993,555.918m-4.134,0a4.134,4.134,0,1,0,4.134-4.134A4.134,4.134,0,0,0,361.859,555.918Z" transform="translate(-356.842 -541.752)"/>
      <path id="路径_51795" data-name="路径 51795" class="cls-3" d="M555.919,365.992m-4.134,0a4.134,4.134,0,1,0,4.134-4.134A4.134,4.134,0,0,0,551.785,365.992Z" transform="translate(-541.752 -356.842)"/>
      <path id="路径_51796" data-name="路径 51796" class="cls-4" d="M176.067,365.992m-4.134,0a4.134,4.134,0,1,0,4.134-4.134A4.134,4.134,0,0,0,171.933,365.992Z" transform="translate(-171.933 -356.842)"/>
    </g>
    <circle id="椭圆_459" data-name="椭圆 459" class="cls-5" cx="15" cy="15" r="15" transform="translate(132 316)"/>
  </g>
</svg>
