<svg width="64" height="64" viewBox="0 0 64 64" fill="none" xmlns="http://www.w3.org/2000/svg">
<circle cx="32" cy="32" r="31.75" fill="url(#paint0_radial_14585_74975)" fill-opacity="0.05" stroke="url(#paint1_linear_14585_74975)" stroke-width="0.5"/>
<g clip-path="url(#clip0_14585_74975)">
<path d="M41.9224 22.0776C48.8541 29.0093 50.0309 39.0709 44.5509 44.5509C39.0709 50.0309 29.0093 48.8541 22.0776 41.9224C15.1459 34.9907 13.9691 24.9291 19.4491 19.4491C24.9291 13.9691 34.9907 15.1459 41.9224 22.0776Z" fill="#97C15D"/>
<path d="M28.5426 19.7931C30.1356 21.3861 29.4508 24.6536 27.013 27.0914C24.5753 29.5292 21.3077 30.214 19.7147 28.621C18.1217 27.028 18.8065 23.7604 21.2443 21.3227C23.6821 18.8849 26.9496 18.2001 28.5426 19.7931Z" fill="#618B3E"/>
<path d="M40.0941 24.182C39.8783 23.9634 39.5261 23.9612 39.3075 24.1771C39.0889 24.3929 39.0867 24.7451 39.3025 24.9637C40.0799 25.7509 41.2785 27.2417 42.2984 29.1157C43.3193 30.9913 44.1399 33.2118 44.2104 35.4679C44.22 35.7749 44.4766 36.0161 44.7837 36.0065C45.0907 35.9969 45.3319 35.7402 45.3223 35.4331C45.2445 32.9426 44.3448 30.5484 43.2756 28.5838C42.2055 26.6177 40.9443 25.0429 40.0941 24.182Z" fill="#835E2C"/>
<path fill-rule="evenodd" clip-rule="evenodd" d="M28.5426 19.7931C30.1356 21.3861 29.4508 24.6536 27.013 27.0914C24.5753 29.5292 21.3077 30.214 19.7147 28.621C18.1217 27.028 18.8065 23.7604 21.2443 21.3227C23.6821 18.8849 26.9496 18.2001 28.5426 19.7931ZM27.756 20.5797C28.2002 21.0239 28.4294 21.8054 28.2005 22.8972C27.9741 23.9775 27.3148 25.2164 26.2264 26.3048C25.138 27.3931 23.8992 28.0525 22.8189 28.2789C21.727 28.5077 20.9456 28.2786 20.5013 27.8343C20.0571 27.3901 19.8279 26.6087 20.0568 25.5168C20.2832 24.4365 20.9426 23.1977 22.0309 22.1093C23.1193 21.0209 24.3582 20.3616 25.4385 20.1352C26.5303 19.9063 27.3117 20.1355 27.756 20.5797Z" fill="#835E2C"/>
<path fill-rule="evenodd" clip-rule="evenodd" d="M41.9224 22.0776C48.8541 29.0093 50.0309 39.0709 44.5509 44.5509C39.0709 50.0309 29.0093 48.8541 22.0776 41.9224C15.1459 34.9907 13.9691 24.9291 19.4491 19.4491C24.9291 13.9691 34.9907 15.1459 41.9224 22.0776ZM41.1358 22.8642C47.8153 29.5438 48.6475 38.881 43.7642 43.7643C38.881 48.6475 29.5438 47.8153 22.8642 41.1358C16.1847 34.4562 15.3525 25.119 20.2358 20.2357C25.119 15.3525 34.4562 16.1847 41.1358 22.8642Z" fill="#835E2C"/>
</g>
<defs>
<radialGradient id="paint0_radial_14585_74975" cx="0" cy="0" r="1" gradientUnits="userSpaceOnUse" gradientTransform="translate(32 32) rotate(90) scale(32)">
<stop stop-opacity="0"/>
<stop offset="1" stop-color="white"/>
</radialGradient>
<linearGradient id="paint1_linear_14585_74975" x1="32" y1="0" x2="32" y2="64" gradientUnits="userSpaceOnUse">
<stop stop-color="#4B4C4D"/>
<stop offset="1" stop-opacity="0"/>
</linearGradient>
<clipPath id="clip0_14585_74975">
<rect width="32" height="32" fill="white" transform="translate(16 16)"/>
</clipPath>
</defs>
</svg>
