<svg width="64" height="64" viewBox="0 0 64 64" fill="none" xmlns="http://www.w3.org/2000/svg">
<circle cx="32" cy="32" r="31.75" fill="url(#paint0_radial)" fill-opacity="0.05" stroke="url(#paint1_linear)" stroke-width="0.5"/>
<path d="M45.768 37.4375C45.768 42.0312 39.6166 45.7813 32.0456 45.7813C24.4747 45.7813 18.3232 42.0312 18.3232 37.4375V35.2812H45.8627V37.4375H45.768Z" fill="#FEDC90"/>
<path fill-rule="evenodd" clip-rule="evenodd" d="M23.6229 21.5C23.2444 19.8125 24.5693 18.2188 26.2728 18.2188C27.787 18.2188 29.0172 19.4375 29.0172 20.9375V27.125C29.9636 27.0313 30.91 26.9375 31.951 26.9375C32.8974 26.9375 33.8437 27.0313 34.7901 27.125V20.9375C34.7901 19.4375 36.0204 18.2188 37.5346 18.2188C39.2381 18.2188 40.563 19.8125 40.2791 21.5L39.0488 28.25C43.0236 29.75 45.768 32.375 45.768 35.375C45.768 39.9688 39.6166 43.7188 32.0456 43.7188C24.4747 43.7188 18.3232 39.9688 18.3232 35.375C18.3232 32.375 20.9731 29.75 24.9478 28.25L23.6229 21.5Z" fill="#D1884F"/>
<path fill-rule="evenodd" clip-rule="evenodd" d="M22.3924 21.6875C21.9192 19.25 23.8119 17 26.2725 17C28.4492 17 30.2473 18.7812 30.2473 20.9375V25.8125C30.5312 25.8125 30.8151 25.7891 31.099 25.7656C31.3829 25.7422 31.6668 25.7188 31.9507 25.7188C32.5186 25.7188 32.9917 25.7188 33.5596 25.8125V20.9375C33.5596 18.7812 35.3577 17 37.5343 17C39.9949 17 41.8876 19.25 41.5091 21.6875L40.4681 27.4062C44.1589 29 46.998 31.8125 46.998 35.2812V37.4375C46.998 40.3438 45.1053 42.7812 42.3608 44.375C39.6163 46.0625 36.0201 47 31.9507 47C27.8813 47 24.2851 46.0625 21.5406 44.375C18.8908 42.7812 16.998 40.3438 16.998 37.4375V35.2812C16.998 31.8125 19.7425 29 23.4334 27.4062L22.3924 21.6875ZM39.0485 28.1562L40.2788 21.4062C40.5627 19.7187 39.3324 18.125 37.5343 18.125C36.0201 18.125 34.7898 19.3438 34.7898 20.8438V27.0312C34.4113 26.9375 33.9381 26.9375 33.5596 26.9375C33.2756 26.9375 33.0154 26.9141 32.7551 26.8906C32.4949 26.8672 32.2346 26.8438 31.9507 26.8438C31.3829 26.8438 30.8151 26.8438 30.2473 26.9375C30.058 26.9375 29.845 26.9609 29.6321 26.9844C29.4192 27.0078 29.2062 27.0312 29.017 27.0312V20.9375C29.017 19.4375 27.7867 18.2188 26.2725 18.2188C24.569 18.2188 23.2441 19.8125 23.6227 21.5L24.8529 28.25C20.8782 29.75 18.2283 32.375 18.2283 35.375V37.5312C18.2283 42.125 24.3798 45.875 31.9507 45.875C39.5217 45.875 45.6731 42.125 45.6731 37.5312V35.375C45.7678 32.2812 43.1179 29.6562 39.0485 28.1562ZM28.1652 34.7188C28.1652 35.9375 27.5027 36.9687 26.651 36.9687C25.7992 36.9687 25.1368 35.9375 25.1368 34.7188C25.1368 33.5 25.7992 32.4688 26.651 32.4688C27.5027 32.4688 28.1652 33.5 28.1652 34.7188ZM37.1557 36.9687C38.0075 36.9687 38.6699 35.9375 38.6699 34.7188C38.6699 33.5 38.0075 32.4688 37.1557 32.4688C36.304 32.4688 35.6415 33.5 35.6415 34.7188C35.6415 35.9375 36.304 36.9687 37.1557 36.9687Z" fill="#633001"/>
<defs>
<radialGradient id="paint0_radial" cx="0" cy="0" r="1" gradientUnits="userSpaceOnUse" gradientTransform="translate(32 32) rotate(90) scale(32)">
<stop stop-opacity="0"/>
<stop offset="1" stop-color="white"/>
</radialGradient>
<linearGradient id="paint1_linear" x1="32" y1="0" x2="32" y2="64" gradientUnits="userSpaceOnUse">
<stop stop-color="#4B4C4D"/>
<stop offset="1" stop-opacity="0"/>
</linearGradient>
</defs>
</svg>
