<svg xmlns="http://www.w3.org/2000/svg" width="20" height="20" viewBox="0 0 20 20"><defs><style>.a{fill:#fff;}.b,.e{fill:#633001;}.b,.d{fill-rule:evenodd;}.c{fill:#fedc90;}.d{fill:#d1884f;}</style></defs><g transform="translate(0 -0.499)"><g transform="translate(0 0.5)"><g transform="translate(0 0)"><rect class="a" width="20" height="20" rx="10" transform="translate(0 -0.001)"/></g></g><g transform="translate(3 3.498)"><path class="b" d="M2.419,2.743a1.8,1.8,0,1,1,3.569-.327v2.2q.373-.026.757-.026.369,0,.728.024V2.416a1.8,1.8,0,1,1,3.569.327l-.487,2.582c1.672.722,2.936,1.977,2.936,3.554v.954a3.781,3.781,0,0,1-2.078,3.115,9.148,9.148,0,0,1-4.667,1.178,9.148,9.148,0,0,1-4.667-1.178A3.782,3.782,0,0,1,0,9.833V8.879C0,7.311,1.251,6.061,2.908,5.337ZM9.931,5.664l.57-3.021a1.248,1.248,0,1,0-2.477-.227v2.8q-.271-.034-.551-.054-.358-.025-.728-.026t-.757.028q-.279.021-.551.056v-2.8a1.248,1.248,0,1,0-2.477.227l.572,3.031C1.745,6.332.551,7.521.551,8.879v.954c0,2.07,2.773,3.747,6.195,3.747S12.94,11.9,12.94,9.833V8.879C12.94,7.514,11.734,6.32,9.931,5.664Z" transform="translate(0 -0.635)"/><path class="c" d="M13.517,16.6c0,1.846-2.8,3.342-6.259,3.342S1,18.445,1,16.6v-.851H13.517Z" transform="translate(-0.513 -6.936)"/><path class="d" d="M3.434,3.126a1.262,1.262,0,1,1,2.5-.231V5.747a10.283,10.283,0,0,1,2.613,0V2.894a1.262,1.262,0,1,1,2.5.231L10.477,6.2c1.822.668,3.04,1.885,3.04,3.277,0,2.11-2.8,3.82-6.259,3.82S1,11.591,1,9.482C1,8.1,2.205,6.885,4.012,6.215Z" transform="translate(-0.513 -1.148)"/><path class="e" d="M7.835,14.287c0,.5-.272.912-.608.912s-.608-.408-.608-.912.272-.912.608-.912S7.835,13.783,7.835,14.287Z" transform="translate(-2.923 -6.291)"/><path class="e" d="M16.454,14.287c0,.5-.272.912-.608.912s-.608-.408-.608-.912.272-.912.608-.912S16.454,13.783,16.454,14.287Z" transform="translate(-6.729 -6.291)"/></g></g></svg>