<svg width="64" height="64" viewBox="0 0 64 64" fill="none" xmlns="http://www.w3.org/2000/svg">
<circle cx="32" cy="32" r="31.75" fill="url(#paint0_radial_14585_74972)" fill-opacity="0.05" stroke="url(#paint1_linear_14585_74972)" stroke-width="0.5"/>
<path d="M22.3983 39.452C22.4727 39.5854 22.5187 39.6831 22.5384 39.7265C23.0036 40.6203 23.5739 41.5217 24.3544 42.0337L24.431 42.0814C25.3133 42.6227 26.894 43.0913 28.5196 43.3506C28.6279 42.1075 29.38 40.9804 30.1254 40.1506C29.1511 40.4415 28.1392 40.5898 27.1217 40.591C25.4777 40.5929 23.8575 40.2022 22.3983 39.452Z" fill="#FF6B00"/>
<path d="M34.8412 34.7215L34.8408 34.7214L34.8412 34.7204V34.7215Z" fill="#FF6B00"/>
<path d="M34.8408 34.7214C34.6183 35.2495 34.3812 35.7715 34.1297 36.2868C32.4045 39.3956 27.8704 39.8252 27.8704 39.8252C27.2158 40.0052 27.1031 39.6256 27.1031 39.6256L26.9257 39.2633C26.9248 39.2614 26.9237 39.2597 26.9225 39.2581C26.9219 39.2573 26.9213 39.2564 26.9206 39.2556C26.9192 39.2537 26.9177 39.2518 26.9166 39.2498C26.9159 39.2486 26.9153 39.2473 26.9148 39.2459L26.7506 38.9086C24.7813 34.8484 24.789 34.8408 25.0845 34.6173C25.2476 34.4959 25.5323 34.3646 25.9668 34.4373C26.5382 34.5349 27.2268 34.9645 27.8759 35.598C27.9056 35.5511 27.938 35.4956 27.9745 35.4331C28.2787 34.9124 28.8614 33.9148 30.4155 33.5467C31.964 33.1796 33.1243 33.825 33.9987 34.3113C34.3153 34.4874 34.5943 34.6426 34.8408 34.7214Z" fill="#FF6B00"/>
<path d="M16.9108 29.2945C16.925 29.0342 16.9075 28.4539 16.5309 28.1556C16.2281 29.2585 16.054 30.3922 16.0121 31.5345C16.3688 31.5707 16.707 31.7095 16.9852 31.9337C16.9788 31.8932 16.9719 31.8506 16.9647 31.8059L16.9646 31.8053C16.876 31.2574 16.7368 30.3973 16.9119 29.2945H16.9108Z" fill="#FF6B00"/>
<path d="M33.9852 42.9123C33.2452 42.1183 33.1193 40.6333 33.6141 38.4779C33.6535 38.3087 33.6962 38.1406 33.7389 37.9746C33.3517 38.3857 32.8224 38.7916 32.3044 39.1888C31.8808 39.5137 31.4647 39.8327 31.1402 40.1441C30.3422 40.9099 29.3373 42.1357 29.2409 43.4515C30.0915 43.5534 30.9278 43.6022 31.6568 43.5491C32.8744 43.4605 33.5431 43.1294 33.8634 42.9709C33.9117 42.947 33.952 42.927 33.9852 42.9123Z" fill="#FF6B00"/>
<path d="M42.5289 24.2028C42.8807 24.6348 43.175 25.1098 43.4046 25.6162C43.9104 26.5599 45.56 29.2446 47.7373 28.7305C47.6138 27.9566 47.442 27.1912 47.2228 26.4384L47.2227 26.4382L47.2227 26.438C47.2074 26.3926 47.1921 26.3471 47.1746 26.3007L47.1823 26.2985C46.9634 25.5739 46.6897 24.8449 46.3536 24.1236C45.1036 24.6421 43.6334 24.4751 42.5289 24.2028Z" fill="#FF6B00"/>
<path d="M40.2597 18.6554C40.3147 18.7054 40.3529 18.7709 40.3692 18.843C40.3854 18.9152 40.3789 18.9906 40.3506 19.059C39.8109 20.3498 38.5827 21.4128 37.5318 22.1331C38.4951 22.119 39.7693 22.3067 41.2613 23.0248C41.7375 23.2244 44.2234 24.1963 46.034 23.476C46.0285 23.4662 46.0209 23.4543 46.0165 23.4435C45.9934 23.3992 45.9691 23.3553 45.9448 23.3116L45.9446 23.3114L45.9446 23.3113C45.9308 23.2866 45.9172 23.262 45.9037 23.2374C44.6427 21.0277 42.8558 19.1569 40.6987 17.7876C39.1166 16.8364 37.3495 16.2272 35.5133 16C35.6893 16.8952 35.5917 17.822 35.2331 18.6619C38.0113 17.4535 39.4913 17.959 40.2597 18.6554Z" fill="#FF6B00"/>
<path d="M34.7054 42.5869C35.8456 42.0695 36.9625 41.5031 38.0529 40.8893C37.9796 40.86 37.9117 40.8286 37.8493 40.7949C36.4996 40.0638 35.7443 37.5472 35.4038 35.3485C35.3559 35.473 35.3048 35.5964 35.2506 35.7184C34.8725 36.6716 34.5633 37.6504 34.3256 38.6471C33.7367 41.2104 34.1789 42.2094 34.7054 42.5858V42.5869Z" fill="#FF6B00"/>
<path d="M43.4364 29.9128L43.4353 29.9134L43.4353 29.9128H43.4364Z" fill="#FF6B00"/>
<path d="M43.4353 29.9134C41.739 30.847 40.0678 31.3165 38.4393 31.3165C37.5238 31.3163 36.6146 31.166 35.7486 30.8718C35.9193 31.5508 35.9225 32.233 35.9256 32.8954C35.9279 33.4012 35.9302 33.8954 36.007 34.3679L36.0277 34.375L36.0279 34.3751L36.0281 34.3751C36.1035 34.401 36.1807 34.4276 36.2588 34.4514C38.76 35.2639 40.703 35.4049 41.8776 34.8592C42.199 34.714 42.4814 34.4959 42.7019 34.2225C43.5227 33.1976 43.4736 31.058 43.4353 29.9134Z" fill="#FF6B00"/>
<path d="M39.5044 39.9835L39.5066 39.9868C41.2504 38.9671 42.2979 36.6122 42.6657 35.2411C42.518 35.343 42.3592 35.4342 42.1874 35.5144C41.5864 35.7932 40.8771 35.9082 40.1185 35.9082C38.8268 35.9082 37.3928 35.5763 36.1142 35.1673C36.4405 37.2858 37.1542 39.5941 38.2007 40.1614C38.5914 40.373 39.0184 40.3155 39.5044 39.9835Z" fill="#FF6B00"/>
<path d="M35.5614 30.0332C35.8591 30.1522 36.1636 30.2537 36.4733 30.337C38.6746 30.9206 41.0052 30.5051 43.4024 29.1004C43.3784 27.7878 43.12 26.7476 42.7435 25.9232C42.6599 25.7646 42.608 25.6544 42.5879 25.6116C42.5835 25.6023 42.5806 25.5961 42.5793 25.5934H42.5804C42.1676 24.8066 41.5681 24.1309 40.8333 23.6246C39.2066 22.8675 37.8745 22.8002 37.0031 22.8968C39.4945 23.8676 39.9193 25.2658 39.939 25.3331L39.9565 25.3917C39.9747 25.4557 39.9698 25.524 39.9427 25.5848C39.9155 25.6456 39.8677 25.6951 39.8076 25.7247L39.7529 25.7518C37.3578 26.9537 35.0918 26.2822 33.8538 25.7062C34.0788 26.2332 34.3493 26.8696 34.5676 27.3835L34.568 27.3843L34.5682 27.3849C34.7033 27.7029 34.8185 27.9738 34.8904 28.1426L34.8948 28.1404C34.9725 28.3161 35.0481 28.4994 35.1225 28.6893L35.1269 28.7001C35.2878 29.1188 35.4367 29.5636 35.5604 30.0332H35.5614Z" fill="#FF6B00"/>
<path d="M43.6805 40.4717C43.0401 39.5562 42.8299 38.223 42.7993 36.9973C42.5771 37.5169 42.3461 37.98 42.1239 38.3781L42.125 38.3792C42.0921 38.4552 42.0516 38.5289 42.0057 38.6048C41.6335 39.3295 40.4316 41.8677 40.9898 43.4981C41.1518 43.9732 41.4496 44.3225 41.894 44.5601C42.3461 44.2292 43.6608 43.1933 44.9415 41.4577C44.4265 41.2701 43.9849 40.9252 43.6805 40.4728V40.4717Z" fill="#FF6B00"/>
<path d="M19.2336 36.9061C18.406 35.8323 17.8084 34.9081 17.5073 33.934C17.342 33.3981 16.7838 32.3893 16 32.2656C16.0109 33.8472 16.2572 35.3745 16.7061 36.815C17.688 36.6501 18.5265 36.7131 19.2336 36.9061Z" fill="#FF6B00"/>
<path d="M40.5826 40.0877C40.1995 41.2169 39.9182 42.6129 40.298 43.7281C40.473 44.2664 40.8263 44.7305 41.3007 45.0449C39.9044 46.037 38.3556 46.7993 36.7141 47.3023C34.8346 43.778 38.7732 41.3091 38.9439 41.2039L38.9417 41.2006C39.2316 41.0251 39.5171 40.8425 39.7977 40.6528L39.916 40.5791L39.9138 40.5758C40.1419 40.4202 40.365 40.2574 40.5826 40.0877Z" fill="#FF6B00"/>
<path d="M47.179 29.5202C47.3979 29.5202 47.618 29.4952 47.838 29.4486C47.9584 30.4194 48.0011 31.3338 48 32.1507C48.0001 32.8044 47.9595 33.4576 47.8785 34.1064C47.8719 34.1466 47.8642 34.1856 47.8566 34.2192C46.9995 34.2648 46.2781 34.037 45.7078 33.5369C44.5376 32.513 44.2355 30.6038 44.1588 29.7436C44.1523 29.5928 44.1435 29.441 44.1326 29.2891C44.1326 28.7771 44.0975 28.2847 44.0308 27.816C44.034 27.819 44.037 27.8222 44.0395 27.8258C45.0269 28.9463 46.0975 29.5202 47.179 29.5202Z" fill="#FF6B00"/>
<path d="M45.224 34.0761C44.692 33.6096 44.3154 33.0076 44.0494 32.3871C43.9761 32.9702 43.8724 33.5492 43.7385 34.1216C43.6433 34.6781 43.0806 38.3499 44.2793 40.0616C44.5661 40.4728 44.9262 40.7255 45.3761 40.8362C45.9317 40.0055 46.4032 39.1226 46.7838 38.2002L46.7882 38.2024C47.2217 37.1665 47.549 36.0763 47.7526 34.9449C46.762 34.9699 45.9136 34.6792 45.224 34.0761Z" fill="#FF6B00"/>
<path d="M22.6369 41.3069C22.2824 40.7874 21.9688 40.2416 21.6988 39.6744C21.2423 38.8836 19.8598 37.0765 16.9425 37.5082C17.5304 39.1222 18.3784 40.6311 19.4536 41.9762C20.3239 41.0672 21.5499 41.0303 22.6369 41.3069Z" fill="#FF6B00"/>
<path d="M31.8637 44.265L31.8625 44.2651L31.8626 44.265H31.8637Z" fill="#FF6B00"/>
<path d="M31.8625 44.2651C31.7224 44.3942 31.578 44.533 31.4357 44.6848C30.4472 45.7218 29.9503 46.8185 29.9798 47.8804C27.5887 47.5799 25.2979 46.7446 23.2805 45.4376C25.0013 43.8778 27.461 43.9678 28.3433 44.06C29.5514 44.2628 30.7988 44.3528 31.8625 44.2651Z" fill="#FF6B00"/>
<path d="M24.0052 42.6694C23.6035 42.4307 21.227 41.1128 19.944 42.5099C20.2987 42.9427 21.2171 43.971 22.6697 45.0167C23.6144 44.1023 24.7529 43.6521 25.7928 43.4471C25.1639 43.2699 24.5624 43.0082 24.0052 42.6694Z" fill="#FF6B00"/>
<path d="M36.5138 42.5218C36.337 42.6099 36.1013 42.712 35.8261 42.8312C34.7042 43.3172 32.9269 44.0871 31.8167 45.3432C31.1971 46.044 30.6541 46.9411 30.7111 47.9325C31.1993 47.9857 32.3169 48.0648 33.7761 47.9065L33.9906 47.8826L34.0782 47.8718C34.7306 47.7882 35.3721 47.6657 35.9993 47.5051C34.9802 45.4701 35.6173 43.7422 36.5138 42.5218Z" fill="#FF6B00"/>
<path d="M22.3271 34.382C22.372 34.4167 22.4497 34.4666 22.7015 34.4666C23.0036 34.4666 23.5575 34.3939 24.6106 34.1292C25.5191 33.9014 26.8874 33.4946 28.4145 32.8275C28.5841 32.7494 29.0165 32.5412 29.5157 32.296C29.6821 32.4804 29.8266 32.6974 29.9207 32.9534C32.1186 32.4776 33.2648 33.0989 34.2213 33.6174C34.5035 33.7703 34.7691 33.9143 35.0404 34.0186C35.2845 32.8666 35.2451 31.3577 34.9485 30.5604C32.1834 29.3368 30.4221 26.9624 29.7718 25.9568C29.7149 26.0007 29.6555 26.0459 29.5941 26.0926C28.9546 26.5788 28.1002 27.2285 27.5628 28.3053C26.3653 30.7047 25.1021 32.8622 22.8449 33.55C22.4585 33.6682 22.2067 33.7626 22.1739 34.0403C22.1678 34.1055 22.1787 34.1711 22.2055 34.2309C22.2324 34.2907 22.2742 34.3427 22.3271 34.382Z" fill="#FF6B00"/>
<path fill-rule="evenodd" clip-rule="evenodd" d="M24.4885 29.1054C24.3993 29.169 24.3152 29.2289 24.2383 29.2837C23.679 29.6829 22.7047 29.5505 22.5077 29.3509C22.4059 29.2512 22.2964 29.0093 22.5405 28.647C22.6808 28.4372 22.8045 28.2171 22.9105 27.9885C23.0463 27.6707 23.1722 27.3323 23.2882 26.971L23.332 26.8181L23.3342 26.8203C23.6658 25.7344 23.9089 24.4566 24.0632 22.9705C24.4978 18.7921 27.4369 17.1618 28.5491 16.6899L28.7352 18.5155C28.7365 18.5282 28.7415 18.5403 28.7494 18.5503C28.7574 18.5603 28.7682 18.5679 28.7803 18.5721C28.7925 18.5763 28.8056 18.577 28.8182 18.5741C28.8307 18.5712 28.8422 18.5648 28.8512 18.5556L29.2956 18.0946C31.5233 15.7874 34.0421 15.9609 34.7853 16.0748C35.1783 17.9026 34.0891 19.2152 34.041 19.2716L32.92 20.5765C32.8938 20.608 32.9299 20.6524 32.966 20.634L34.4909 19.8226C35.8285 19.1132 38.2017 18.1044 39.5613 19.0264C38.5279 21.056 35.4881 22.4922 35.4564 22.5063L34.6978 22.8599C34.643 22.8859 34.6507 22.9651 34.7087 22.9792L35.522 23.1842C37.904 23.7841 38.795 24.782 39.0972 25.2593C36.1175 26.522 33.3393 24.5987 33.3119 24.5792L32.3486 23.8925C32.3158 23.8698 32.2742 23.9023 32.2895 23.9381L32.7646 25.0153C32.7993 25.0914 32.8921 25.307 33.0194 25.6028C33.077 25.7366 33.1417 25.8868 33.2112 26.0479L34.2292 28.4278L34.226 28.4289C34.4044 28.8346 34.5576 29.2338 34.6857 29.6265C34.6857 29.6265 31.7072 28.2228 30.0761 25.0066C30.0678 24.9897 30.0558 24.9749 30.0409 24.9633C30.026 24.9516 30.0087 24.9434 29.9903 24.9393C29.9718 24.9351 29.9526 24.9351 29.9341 24.9392C29.9157 24.9434 29.8983 24.9516 29.8835 24.9632L29.8085 25.0219C29.1814 25.513 27.2298 27.0416 26.5043 27.6327C26.1368 27.9317 25.1651 28.6236 24.4885 29.1054ZM28.2393 23.1397C28.5557 22.6494 28.0313 22.1288 27.5376 22.4433C27.5048 22.465 27.4763 22.4932 27.4544 22.5258C27.1381 23.015 27.6624 23.5357 28.1572 23.2211C28.19 23.2005 28.2185 23.1723 28.2393 23.1397ZM25.6351 23.1397C25.9515 22.6494 25.4282 22.1288 24.9335 22.4433C24.9006 22.465 24.8732 22.4932 24.8514 22.5258C24.5339 23.015 25.0582 23.5357 25.553 23.2211C25.5859 23.2005 25.6143 23.1723 25.6351 23.1397Z" fill="#FF6B00"/>
<defs>
<radialGradient id="paint0_radial_14585_74972" cx="0" cy="0" r="1" gradientUnits="userSpaceOnUse" gradientTransform="translate(32 32) rotate(90) scale(32)">
<stop stop-opacity="0"/>
<stop offset="1" stop-color="white"/>
</radialGradient>
<linearGradient id="paint1_linear_14585_74972" x1="32" y1="0" x2="32" y2="64" gradientUnits="userSpaceOnUse">
<stop stop-color="#4B4C4D"/>
<stop offset="1" stop-opacity="0"/>
</linearGradient>
</defs>
</svg>
