<svg width="64" height="64" viewBox="0 0 64 64" fill="none" xmlns="http://www.w3.org/2000/svg">
<circle cx="32" cy="32" r="31.75" fill="url(#paint0_radial_16380_207439)" fill-opacity="0.05" stroke="url(#paint1_linear_16380_207439)" stroke-width="0.5"/>
<g clip-path="url(#clip0_16380_207439)">
<path fill-rule="evenodd" clip-rule="evenodd" d="M49.8306 43.7174C49.5491 42.9003 49.1351 42.1854 48.5555 41.5385C48.5345 41.515 48.5131 41.4922 48.4919 41.4696L48.4919 41.4696C48.3294 41.2963 48.1828 41.1399 48.3733 40.8236C48.7211 40.2448 48.5389 39.7001 48.2077 39.1554C47.6337 38.2249 47.0596 37.2925 46.4856 36.3601C45.3373 34.4952 44.1891 32.6302 43.0409 30.7803C42.3454 29.6568 41.153 29.6568 40.4409 30.7803C39.9607 31.5293 39.497 32.2953 39.0167 33.0954C38.5658 32.7901 38.2609 32.3872 37.9614 31.9914L37.9614 31.9914C37.81 31.7913 37.66 31.593 37.4932 31.4101C36.7645 30.576 35.9531 29.8781 34.8104 29.7419C34.7971 29.4957 34.9229 29.3044 35.0415 29.1239C35.0705 29.0798 35.0991 29.0364 35.1251 28.9929C35.3112 28.6909 35.4944 28.3874 35.6777 28.0837L35.6777 28.0836L35.6777 28.0836L35.6778 28.0835C36.1143 27.3603 36.5514 26.6362 37.0295 25.9289C38.0397 24.4479 38.2881 22.984 37.2117 21.435C36.7645 20.7114 36.3131 19.9836 35.8618 19.2557L35.8617 19.2555L35.8611 19.2546C35.4102 18.5274 34.9592 17.8002 34.5123 17.0772C34.2938 16.638 34.0215 16.2356 33.7493 15.8332L33.7493 15.8332L33.7492 15.8332C33.5677 15.5649 33.3862 15.2966 33.2206 15.0175C32.4589 13.6897 31.4487 13.6557 30.6538 14.9494C29.2627 17.1793 27.8717 19.4263 26.4806 21.6733C25.6774 22.984 24.8743 24.3032 24.0711 25.6225C23.2679 26.9417 22.4647 28.261 21.6616 29.5717C20.9495 30.7122 20.2333 31.8526 19.5171 32.9931L19.517 32.9933C18.8007 34.1338 18.0845 35.2743 17.3725 36.4148C17.2829 36.5582 17.193 36.7016 17.103 36.8452L17.103 36.8452C16.6268 37.6047 16.1482 38.368 15.7164 39.1554C15.2196 40.0406 15.6171 41.13 16.5113 41.6066C17.3703 42.0619 17.5766 41.4885 17.765 40.9647C17.8091 40.8423 17.8522 40.7225 17.9024 40.6193C19.5419 37.2999 21.5456 34.2869 24.3112 31.8357C25.7685 30.542 27.3583 29.6228 29.2959 29.3845C30.3226 29.3674 31.3162 29.5206 32.3098 29.776C32.8177 29.9008 33.3255 30.0559 33.8334 30.211C34.0873 30.2885 34.3412 30.3661 34.5951 30.4399C35.9069 30.9422 36.7492 31.9783 37.6108 33.038C37.8587 33.3429 38.1082 33.6498 38.3709 33.9465C38.2483 33.9645 38.1303 33.9801 38.016 33.9953H38.016C37.6981 34.0374 37.409 34.0756 37.1289 34.1508L37.0286 34.1762C35.5217 34.5585 34.0192 34.9396 33.4359 36.7382C33.3862 36.8786 33.2527 36.9903 33.1192 37.102C33.0747 37.1393 33.0302 37.1765 32.9888 37.2148C31.6143 38.5596 31.8296 40.8747 33.469 41.8449C34.1977 42.2875 34.7773 42.8833 35.3072 43.5302C36.1684 44.5515 37.1454 45.4878 38.1059 46.407C39.7288 47.956 41.5836 48.7391 43.8358 48.4497C45.6574 48.2114 47.4294 47.8198 48.9032 46.6112C49.93 45.8282 50.2281 44.8579 49.8306 43.7174ZM38.4703 34.3721C38.8677 34.3721 38.9836 34.6274 39.1161 34.9508C38.9108 35.1174 38.6703 35.1608 38.4314 35.204C38.304 35.2269 38.1771 35.2498 38.0562 35.2913C37.3938 35.5296 36.7645 35.87 36.4168 36.4999C35.8871 37.4608 35.0495 37.5026 34.1662 37.5467C34.1106 37.5495 34.0549 37.5522 33.999 37.5553C34.6448 35.6487 36.5327 34.338 38.4703 34.3721ZM48.0918 46.1346C46.5351 47.2241 44.7466 47.5134 42.9084 47.6326C41.2855 47.7007 40.0435 46.9176 38.8677 45.8793C37.9052 45.0395 37.0486 44.0986 36.1956 43.1617C35.7865 42.7123 35.3782 42.2639 34.9595 41.8279C34.6945 41.5556 34.413 41.3683 34.0983 41.1811C33.4856 40.8406 32.906 40.415 33.0716 39.615C33.2372 38.8149 33.8499 38.1681 34.5951 38.117C35.7212 38.0489 36.3837 37.4702 37.0129 36.602C37.4584 35.9964 38.1409 35.8137 38.8222 35.6314C38.926 35.6036 39.0298 35.5759 39.1327 35.5466C39.4639 35.4615 39.6129 35.6487 39.6626 35.9211C39.9601 37.4958 41.1124 38.1917 42.2799 38.8968L42.2801 38.8969C42.4125 38.9768 42.545 39.0569 42.6766 39.1384C43.8192 39.8363 45.0116 40.415 46.2205 40.9598C47.3962 41.5045 48.2905 42.3386 48.8204 43.5642C49.3007 44.7217 49.1516 45.4026 48.0918 46.1346ZM30.7364 33.4699L25.3874 32.8911C25.1721 32.8741 24.9569 32.9251 24.7912 33.0784C24.6256 33.2145 24.5263 33.4188 24.4932 33.6401L24.2282 36.3807C24.1951 36.6701 24.3276 36.9595 24.5428 37.1297L27.0766 39.0873C27.2256 39.2065 27.3912 39.2575 27.5568 39.2575C27.739 39.2575 27.9046 39.2065 28.0536 39.0873L31.051 36.6361C31.2332 36.4829 31.3491 36.2616 31.3657 36.0403L31.465 34.355C31.4816 33.8954 31.167 33.5209 30.7364 33.4699ZM30.8523 36.0062C30.8523 36.0913 30.8026 36.1764 30.7364 36.2445L27.739 38.6788C27.6231 38.7639 27.474 38.7639 27.3581 38.6788L24.8244 36.7212C24.7416 36.6531 24.6919 36.5509 24.7084 36.4318L24.9734 33.6912C24.99 33.606 25.0231 33.538 25.0893 33.4699C25.139 33.4188 25.2053 33.4018 25.2881 33.4018H25.3212L30.6701 33.9805C30.8358 33.9976 30.9517 34.1508 30.9517 34.321L30.8523 36.0062ZM26.5612 35.7505L26.431 35.7168C27.6068 34.4742 28.9482 34.6955 29.7928 35.5636C28.7944 36.3292 27.5382 36.0037 26.5612 35.7505ZM43.0575 45.7091C43.0666 46.0826 43.285 46.0412 43.6169 45.9783C43.8882 45.9268 44.2353 45.8611 44.6061 45.9955C44.6114 45.9981 44.6142 45.9991 44.6142 45.9984L44.6061 45.9955C44.5941 45.9895 44.5689 45.9755 44.5333 45.9555C44.212 45.7757 43.0432 45.1217 43.0575 45.7091ZM46.9158 45.0452C46.9158 45.0452 47.0483 44.4153 47.5119 43.9898C47.9922 43.5812 48.3896 44.0238 47.8431 44.2621C47.2967 44.5005 46.9158 45.0452 46.9158 45.0452Z" fill="url(#paint2_linear_16380_207439)"/>
</g>
<defs>
<radialGradient id="paint0_radial_16380_207439" cx="0" cy="0" r="1" gradientUnits="userSpaceOnUse" gradientTransform="translate(32 32) rotate(90) scale(32)">
<stop stop-opacity="0"/>
<stop offset="1" stop-color="white"/>
</radialGradient>
<linearGradient id="paint1_linear_16380_207439" x1="32" y1="0" x2="32" y2="64" gradientUnits="userSpaceOnUse">
<stop stop-color="#4B4C4D"/>
<stop offset="1" stop-opacity="0"/>
</linearGradient>
<linearGradient id="paint2_linear_16380_207439" x1="15.5" y1="40.25" x2="50" y2="40.25" gradientUnits="userSpaceOnUse">
<stop stop-color="#54B746"/>
<stop offset="0.489583" stop-color="#4CAAB8"/>
<stop offset="1" stop-color="#38E4F0"/>
</linearGradient>
<clipPath id="clip0_16380_207439">
<rect width="36" height="36" fill="white" transform="translate(14 14)"/>
</clipPath>
</defs>
</svg>
