<svg xmlns="http://www.w3.org/2000/svg" xmlns:xlink="http://www.w3.org/1999/xlink" width="30" height="30" viewBox="0 0 30 30">
  <defs>
    <style>
      .cls-1 {
        fill: #fff;
      }

      .cls-2 {
        clip-path: url(#clip-path);
      }

      .cls-3 {
        fill: #8247e5;
      }

      .cls-4 {
        fill: none;
      }
    </style>
    <clipPath id="clip-path">
      <rect id="矩形_21646" data-name="矩形 21646" class="cls-1" width="18" height="16" transform="translate(0 -1)"/>
    </clipPath>
  </defs>
  <g id="组_66409" data-name="组 66409" transform="translate(-132 -357)">
    <g id="polygon-logo" class="cls-2" transform="translate(138 365)">
      <path id="路径_51949" data-name="路径 51949" class="cls-3" d="M13.441,4.864a1.153,1.153,0,0,0-1.117,0L9.761,6.339,8.019,7.3,5.455,8.776a1.154,1.154,0,0,1-1.117,0L2.3,7.622a1.1,1.1,0,0,1-.559-.93V4.416a1.035,1.035,0,0,1,.559-.93l2-1.122a1.153,1.153,0,0,1,1.117,0l2,1.122a1.1,1.1,0,0,1,.559.93V5.89L9.728,4.9V3.422a1.035,1.035,0,0,0-.559-.93L5.455.376a1.153,1.153,0,0,0-1.117,0L.559,2.492A1.035,1.035,0,0,0,0,3.422V7.686a1.036,1.036,0,0,0,.559.93l3.779,2.116a1.154,1.154,0,0,0,1.117,0L8.019,9.289l1.742-.994,2.563-1.443a1.153,1.153,0,0,1,1.117,0l2,1.122A1.1,1.1,0,0,1,16,8.9V11.18a1.035,1.035,0,0,1-.559.93l-2,1.154a1.153,1.153,0,0,1-1.117,0l-2-1.122a1.1,1.1,0,0,1-.559-.93V9.738l-1.742.994v1.475a1.036,1.036,0,0,0,.559.93l3.779,2.116a1.153,1.153,0,0,0,1.117,0l3.779-2.116a1.1,1.1,0,0,0,.559-.93V7.942a1.035,1.035,0,0,0-.559-.93Z" transform="translate(0.046 -0.39)"/>
    </g>
    <circle id="椭圆_460" data-name="椭圆 460" class="cls-4" cx="15" cy="15" r="15" transform="translate(132 357)"/>
  </g>
</svg>
