<svg width="64" height="64" viewBox="0 0 64 64" fill="none" xmlns="http://www.w3.org/2000/svg">
<circle cx="32" cy="32" r="31.75" fill="url(#paint0_radial_16369_164180)" fill-opacity="0.05" stroke="url(#paint1_linear_16369_164180)" stroke-width="0.5"/>
<circle cx="32" cy="32" r="18" fill="#FAF9FA"/>
<path d="M28.063 37.756L23.1496 35.004L25.9843 39.228L29.3228 39.996L28.063 37.756Z" fill="black"/>
<path d="M37.936 39.2745L37.9528 39.228L40.8504 35.004L35.811 37.756L34.7402 39.996L37.936 39.2745Z" fill="black"/>
<path d="M20 21.5L26.2362 28.732M20 21.5L21.0079 28.732M20 21.5L28.315 26.94M26.2362 28.732H21.0079M26.2362 28.732L28.315 26.94M26.2362 28.732L28.063 37.756M21.0079 28.732L23.1496 35.004M21.0079 28.732V33.98M28.315 26.94H35.685M28.315 26.94L31.9685 35.324M35.685 26.94L31.9685 35.324M35.685 26.94L37.7638 28.732M35.685 26.94L44 21.5M31.9685 35.324L28.063 37.756M31.9685 35.324L30.1417 42.364M31.9685 35.324L33.7953 42.364M31.9685 35.324L35.811 37.756M28.063 37.756L23.1496 35.004M28.063 37.756L29.3228 39.996M23.1496 35.004C22.948 35.004 21.6378 34.3213 21.0079 33.98M23.1496 35.004L25.9843 39.228M21.0079 33.98L23.6535 39.228M23.6535 39.228H25.9843M23.6535 39.228L27.2441 42.364M23.6535 39.228C25.2283 41.0413 28.4283 44.668 28.6299 44.668M25.9843 39.228L27.2441 42.364M25.9843 39.228L29.3228 39.996M27.2441 42.364H30.1417M27.2441 42.364L28.6299 44.668M29.3228 39.996L30.1417 42.364M30.1417 42.364L28.6299 44.668M30.1417 42.364L31.9685 44.156M30.1417 42.364H33.7953M28.6299 44.668L31.0866 45.5M31.0866 45.5L31.9685 44.156M31.0866 45.5H32.9764M31.9685 44.156L32.9764 45.5M31.9685 44.156L33.7953 42.364M32.9764 45.5L35.4961 44.668M33.7953 42.364C33.8961 42.4664 34.9711 43.9427 35.4961 44.668M33.7953 42.364H36.8189M33.7953 42.364L34.7402 39.996M35.4961 44.668L36.8189 42.364M35.4961 44.668L40.4094 39.228M36.8189 42.364L40.4094 39.228M36.8189 42.364L37.936 39.2745M40.4094 39.228H38.1417M40.4094 39.228L42.8661 33.98M37.9528 39.228H38.1417M37.9528 39.228L40.8504 35.004M37.9528 39.228L37.936 39.2745M38.1417 39.228L37.936 39.2745M34.7402 39.996L35.811 37.756M34.7402 39.996L37.936 39.2745M35.811 37.756L37.7638 28.732M35.811 37.756L40.8504 35.004M37.7638 28.732H43.0551M37.7638 28.732L44 21.5M43.0551 28.732L40.8504 35.004M43.0551 28.732L42.8661 33.98M43.0551 28.732L44 21.5M40.8504 35.004L42.8661 33.98" stroke="#030303" stroke-width="0.3"/>
<defs>
<radialGradient id="paint0_radial_16369_164180" cx="0" cy="0" r="1" gradientUnits="userSpaceOnUse" gradientTransform="translate(32 32) rotate(90) scale(32)">
<stop stop-opacity="0"/>
<stop offset="1" stop-color="white"/>
</radialGradient>
<linearGradient id="paint1_linear_16369_164180" x1="32" y1="0" x2="32" y2="64" gradientUnits="userSpaceOnUse">
<stop stop-color="#4B4C4D"/>
<stop offset="1" stop-opacity="0"/>
</linearGradient>
</defs>
</svg>
