<svg width="64" height="64" viewBox="0 0 64 64" fill="none" xmlns="http://www.w3.org/2000/svg">
<circle cx="32" cy="32" r="31.75" fill="url(#paint0_radial)" fill-opacity="0.05" stroke="url(#paint1_linear)" stroke-width="0.5"/>
<path d="M32 48C40.8366 48 48 40.8366 48 32C48 23.1634 40.8366 16 32 16C23.1634 16 16 23.1634 16 32C16 40.8366 23.1634 48 32 48Z" fill="#36C3EA"/>
<path d="M31.7361 23.3503C31.7361 23.3503 32.1675 21.8175 33.3543 21.0862L34.1566 21.1363C34.1566 21.1363 33.204 22.3841 33.6071 23.4672" fill="white"/>
<path d="M31.7361 23.3503C31.7361 23.3503 32.1675 21.8175 33.3543 21.0862L34.1566 21.1363C34.1566 21.1363 33.204 22.3841 33.6071 23.4672" stroke="#0C2866" stroke-width="0.254212" stroke-miterlimit="10"/>
<path d="M37.3085 23.5638L27.8859 22.9748C26.9802 22.9182 26.1077 23.3252 25.5692 24.0556L20.6944 30.667C20.0717 31.5115 20.0011 32.6422 20.5137 33.5576L24.5274 40.7245C24.9708 41.5163 25.7858 42.0288 26.6915 42.0854L36.1141 42.6743C37.0198 42.7309 37.8923 42.3239 38.4308 41.5935L43.3056 34.9821C43.9282 34.1377 43.9989 33.007 43.4863 32.0915L39.4726 24.9246C39.0292 24.1329 38.2142 23.6204 37.3085 23.5638Z" fill="white" stroke="#0C2866" stroke-width="0.254212" stroke-miterlimit="10"/>
<path opacity="0.3" d="M36.1935 25.509L28.7501 25.0438C28.0346 24.9991 27.3454 25.3206 26.92 25.8976L23.0692 31.1202C22.5773 31.7873 22.5215 32.6805 22.9265 33.4036L26.097 39.0651C26.4473 39.6906 27.0911 40.0954 27.8065 40.1401L35.25 40.6053C35.9654 40.65 36.6546 40.3285 37.08 39.7516L40.9308 34.5289C41.4227 33.8619 41.4785 32.9686 41.0736 32.2455L37.903 26.584C37.5528 25.9586 36.909 25.5537 36.1935 25.509Z" fill="#36C3EA"/>
<path d="M36.218 26.885L28.5545 26.406C27.9037 26.3653 27.2734 26.6425 26.8636 27.1498L23.1156 31.7899C22.5783 32.455 22.52 33.3871 22.9703 34.114L26.1114 39.1846C26.4548 39.7389 27.0456 40.0926 27.6965 40.1332L35.36 40.6122C36.0108 40.6529 36.6411 40.3756 37.0509 39.8683L40.7989 35.2283C41.3362 34.5631 41.3945 33.6311 40.9442 32.9042L37.8031 27.8336C37.4597 27.2792 36.8689 26.9256 36.218 26.885Z" fill="white"/>
<path d="M36.9112 34.0939C36.9784 33.0189 36.3852 32.107 35.5863 32.057C34.7874 32.0071 34.0852 32.838 34.018 33.913C33.9508 34.988 34.544 35.8999 35.3429 35.9499C36.1418 35.9998 36.844 35.1689 36.9112 34.0939Z" fill="#0C2866"/>
<path d="M34.1867 21.526C34.668 21.526 35.0581 21.1359 35.0581 20.6546C35.0581 20.1733 34.668 19.7832 34.1867 19.7832C33.7054 19.7832 33.3153 20.1733 33.3153 20.6546C33.3153 21.1359 33.7054 21.526 34.1867 21.526Z" fill="#36C3EA" stroke="#0C2866" stroke-width="0.275521" stroke-miterlimit="10"/>
<path d="M21.4075 29.7001L21.0023 29.3655C20.6665 29.0882 20.6367 28.584 20.9376 28.2691L24.0454 25.0169C24.1982 24.8571 24.4137 24.7728 24.6344 24.7866L25.013 24.8102L21.4075 29.7001Z" fill="#36C3EA" stroke="#0C2866" stroke-width="0.275521" stroke-miterlimit="10"/>
<path d="M42.9392 31.0458L43.3829 30.7643C43.7507 30.531 43.843 30.0344 43.5836 29.6845L40.905 26.0706C40.7733 25.893 40.57 25.7825 40.3493 25.7687L39.9707 25.7451L42.9392 31.0458Z" fill="#36C3EA" stroke="#0C2866" stroke-width="0.275521" stroke-miterlimit="10"/>
<path d="M36.1935 25.509L28.7501 25.0438C28.0346 24.9991 27.3454 25.3206 26.92 25.8976L23.0692 31.1202C22.5773 31.7873 22.5215 32.6805 22.9265 33.4036L26.097 39.0651C26.4473 39.6906 27.0911 40.0954 27.8065 40.1401L35.25 40.6053C35.9654 40.65 36.6546 40.3285 37.08 39.7516L40.9308 34.5289C41.4227 33.8619 41.4785 32.9686 41.0736 32.2455L37.903 26.584C37.5528 25.9586 36.909 25.5537 36.1935 25.509Z" stroke="#0C2866" stroke-width="0.275521" stroke-miterlimit="10"/>
<path d="M26.9377 33.4711C26.9377 33.4711 28.6996 32.5296 29.9788 34.004C29.9788 34.004 30.0277 33.2913 29.8397 33.0179" stroke="#0C2866" stroke-width="0.275521" stroke-miterlimit="10" stroke-linecap="round" stroke-linejoin="round"/>
<defs>
<radialGradient id="paint0_radial" cx="0" cy="0" r="1" gradientUnits="userSpaceOnUse" gradientTransform="translate(32 32) rotate(90) scale(32)">
<stop stop-opacity="0"/>
<stop offset="1" stop-color="white"/>
</radialGradient>
<linearGradient id="paint1_linear" x1="32" y1="0" x2="32" y2="64" gradientUnits="userSpaceOnUse">
<stop stop-color="#4B4C4D"/>
<stop offset="1" stop-opacity="0"/>
</linearGradient>
</defs>
</svg>
