<svg xmlns="http://www.w3.org/2000/svg" xmlns:xlink="http://www.w3.org/1999/xlink" width="90" height="90" viewBox="0 0 90 90">
  <defs>
    <style>
      .cls-1 {
        opacity: 0.849;
      }

      .cls-2 {
        fill: rgba(255,255,255,0);
      }

      .cls-3 {
        opacity: 0.331;
        fill: url(#linear-gradient);
      }

      .cls-4 {
        opacity: 0.779;
      }

      .cls-12, .cls-16, .cls-5 {
        fill: #9da0a6;
      }

      .cls-5 {
        opacity: 0.599;
      }

      .cls-13, .cls-17, .cls-6 {
        opacity: 0.576;
      }

      .cls-6 {
        fill: url(#linear-gradient-2);
      }

      .cls-7 {
        fill: url(#linear-gradient-3);
      }

      .cls-8 {
        opacity: 0.7;
        fill: url(#linear-gradient-4);
      }

      .cls-9 {
        fill: url(#linear-gradient-5);
      }

      .cls-10 {
        fill: url(#linear-gradient-6);
      }

      .cls-11 {
        fill: url(#linear-gradient-7);
      }

      .cls-12 {
        opacity: 0.67;
      }

      .cls-13 {
        fill: url(#linear-gradient-8);
      }

      .cls-14 {
        fill: url(#linear-gradient-9);
      }

      .cls-15 {
        opacity: 0.897;
      }

      .cls-16 {
        opacity: 0.597;
      }

      .cls-17 {
        fill: url(#linear-gradient-10);
      }

      .cls-18 {
        fill: url(#linear-gradient-11);
      }

      .cls-19 {
        fill: url(#linear-gradient-12);
      }

      .cls-20 {
        fill: url(#linear-gradient-13);
      }

      .cls-21 {
        fill: #c3c4c8;
        opacity: 0.398;
      }

      .cls-22 {
        fill: url(#linear-gradient-14);
      }

      .cls-23 {
        fill: url(#linear-gradient-15);
      }

      .cls-24 {
        fill: url(#linear-gradient-16);
      }

      .cls-25 {
        fill: url(#linear-gradient-17);
      }

      .cls-26 {
        fill: url(#linear-gradient-18);
      }

      .cls-27 {
        fill: url(#linear-gradient-19);
      }

      .cls-28 {
        fill: url(#linear-gradient-20);
      }

      .cls-29 {
        fill: url(#linear-gradient-21);
      }

      .cls-30 {
        fill: url(#linear-gradient-22);
      }

      .cls-31 {
        fill: url(#linear-gradient-23);
      }

      .cls-32 {
        fill: url(#linear-gradient-24);
      }
    </style>
    <linearGradient id="linear-gradient" x1="1.209" y1="0.495" x2="-0.25" y2="0.495" gradientUnits="objectBoundingBox">
      <stop offset="0" stop-color="#c8cacd" stop-opacity="0"/>
      <stop offset="1" stop-color="#b2b4b8"/>
    </linearGradient>
    <linearGradient id="linear-gradient-2" x1="0.517" y1="0.097" x2="0.477" y2="1.001" gradientUnits="objectBoundingBox">
      <stop offset="0" stop-color="#f4f5f5"/>
      <stop offset="1" stop-color="#b3b5b9"/>
    </linearGradient>
    <linearGradient id="linear-gradient-3" x1="0.493" y1="0.075" x2="0.517" y2="0.999" gradientUnits="objectBoundingBox">
      <stop offset="0" stop-color="#f3f4f4"/>
      <stop offset="1" stop-color="#b3b5b9"/>
    </linearGradient>
    <linearGradient id="linear-gradient-4" x1="0.499" y1="1" x2="0.499" y2="-0.441" gradientUnits="objectBoundingBox">
      <stop offset="0" stop-color="#f8f8f9"/>
      <stop offset="1" stop-color="#e2e3e4"/>
    </linearGradient>
    <linearGradient id="linear-gradient-5" x1="0.5" y1="0.996" x2="0.5" y2="0.029" gradientUnits="objectBoundingBox">
      <stop offset="0" stop-color="#f4f5f5" stop-opacity="0"/>
      <stop offset="1" stop-color="#eeeff0"/>
    </linearGradient>
    <linearGradient id="linear-gradient-6" x1="0.5" y1="0.997" x2="0.5" y2="0.029" xlink:href="#linear-gradient-5"/>
    <linearGradient id="linear-gradient-7" x1="0.5" y1="1" x2="0.5" y2="0.001" gradientUnits="objectBoundingBox">
      <stop offset="0.003" stop-color="#f4f5f5" stop-opacity="0"/>
      <stop offset="0.98" stop-color="#f0f1f2"/>
    </linearGradient>
    <linearGradient id="linear-gradient-8" x1="0.523" y1="0.094" x2="0.47" y2="1" xlink:href="#linear-gradient-2"/>
    <linearGradient id="linear-gradient-9" x1="0.489" y1="0.075" x2="0.525" y2="0.997" xlink:href="#linear-gradient-3"/>
    <linearGradient id="linear-gradient-10" x1="0.522" y1="0.098" x2="0.469" y2="1.003" xlink:href="#linear-gradient-2"/>
    <linearGradient id="linear-gradient-11" x1="0.488" y1="0.075" x2="0.525" y2="0.997" xlink:href="#linear-gradient-3"/>
    <linearGradient id="linear-gradient-12" x1="0.5" x2="0.5" y2="1.001" gradientUnits="objectBoundingBox">
      <stop offset="0" stop-color="#f2f3f3"/>
      <stop offset="1" stop-color="#edeeef"/>
    </linearGradient>
    <linearGradient id="linear-gradient-13" x1="0.5" x2="0.5" y2="1.001" gradientUnits="objectBoundingBox">
      <stop offset="0" stop-color="#d7d8da"/>
      <stop offset="1" stop-color="#edeeef"/>
    </linearGradient>
    <linearGradient id="linear-gradient-14" x1="0.499" y1="0" x2="0.499" y2="1.001" xlink:href="#linear-gradient-12"/>
    <linearGradient id="linear-gradient-15" x1="0.499" y1="0" x2="0.499" y2="1.001" xlink:href="#linear-gradient-13"/>
    <linearGradient id="linear-gradient-16" x1="0.5" x2="0.5" y2="1" gradientUnits="objectBoundingBox">
      <stop offset="0" stop-color="#f2f3f3"/>
      <stop offset="1" stop-color="#d2d4d6"/>
    </linearGradient>
    <linearGradient id="linear-gradient-17" x1="0.5" y1="0" x2="0.5" y2="1" xlink:href="#linear-gradient-13"/>
    <linearGradient id="linear-gradient-18" x1="0.5" y1="0.005" x2="0.5" y2="0.985" gradientUnits="objectBoundingBox">
      <stop offset="0" stop-color="#fff"/>
      <stop offset="1" stop-color="#d3d4d7"/>
    </linearGradient>
    <linearGradient id="linear-gradient-19" x1="0.5" y1="0.005" x2="0.5" y2="0.985" gradientUnits="objectBoundingBox">
      <stop offset="0" stop-color="#fff"/>
      <stop offset="1" stop-color="#f8f8f9"/>
    </linearGradient>
    <linearGradient id="linear-gradient-20" x1="0.5" x2="0.5" y2="1" gradientUnits="objectBoundingBox">
      <stop offset="0" stop-color="#b0b2b7"/>
      <stop offset="1" stop-color="#ecedee"/>
    </linearGradient>
    <linearGradient id="linear-gradient-21" x1="0.5" x2="0.5" y2="1" gradientUnits="objectBoundingBox">
      <stop offset="0" stop-color="#c3c4c8"/>
      <stop offset="1" stop-color="#ecedee"/>
    </linearGradient>
    <linearGradient id="linear-gradient-22" x1="0.499" y1="0.999" x2="0.499" y2="-0.001" gradientUnits="objectBoundingBox">
      <stop offset="0" stop-color="#eff0f1"/>
      <stop offset="1" stop-color="#bbbdc1"/>
    </linearGradient>
    <linearGradient id="linear-gradient-23" x1="0.941" y1="0.185" x2="1.882" y2="0.82" gradientUnits="objectBoundingBox">
      <stop offset="0" stop-color="#eeeff0"/>
      <stop offset="1" stop-color="#c4c5c9"/>
    </linearGradient>
    <linearGradient id="linear-gradient-24" x1="0.148" y1="0.851" x2="0.852" y2="0.147" gradientUnits="objectBoundingBox">
      <stop offset="0" stop-color="#fff" stop-opacity="0.635"/>
      <stop offset="1" stop-color="#fff" stop-opacity="0.098"/>
    </linearGradient>
  </defs>
  <g id="基础组件" class="cls-1" transform="translate(0 0.495)">
    <g id="Empty-state_top-up" transform="translate(0 -0.495)">
      <g id="暂无充值记录">
        <g id="编组-14">
          <rect id="矩形" class="cls-2" width="90" height="90"/>
          <ellipse id="椭圆形" class="cls-3" cx="12.319" cy="1.244" rx="12.319" ry="1.244" transform="translate(32.477 72.306)"/>
          <g id="编组备份-2" class="cls-4" transform="translate(13.877 49.015)">
            <ellipse id="椭圆形_1_" class="cls-5" cx="1.443" cy="0.448" rx="1.443" ry="0.448" transform="translate(2.499 6.368)"/>
            <path id="椭圆形_2_" class="cls-6" d="M30.238,19.073c.4.174,2.339-2.862,2.613-3.658a1.573,1.573,0,0,0-.672-1.966,1.3,1.3,0,0,0-1.667.971C30.238,15.24,29.815,18.9,30.238,19.073Z" transform="translate(-27.565 -12.257)"/>
            <path id="椭圆形_3_" class="cls-7" d="M2.747,6.816c.5-.149.423-4.455.174-5.425A1.6,1.6,0,0,0,1.055.047a1.753,1.753,0,0,0-1,2.165C.284,3.183,2.25,6.965,2.747,6.816Z" transform="translate(0 0)"/>
          </g>
          <path id="形状结合" class="cls-8" d="M169.131,182.207a1.211,1.211,0,0,1-.3-.025,1.882,1.882,0,0,1-.373.025,3.472,3.472,0,0,1,0-6.943,5.252,5.252,0,0,1,.647.05,4.715,4.715,0,0,1,8.884,2.19h2.787a2.352,2.352,0,1,1,0,4.7Z" transform="translate(-151.312 -158.057)"/>
          <g id="编组-2" transform="translate(8.959 55.059)">
            <path id="路径" class="cls-9" d="M0,45.761c3.882-5.7,7.615-8.561,11.149-8.561s7.59,2.862,12.145,8.561Z" transform="translate(0 -34.114)"/>
            <path id="路径-2" class="cls-10" d="M166.2,11.647Q172.359,0,179.39,0t25.533,11.647Z" transform="translate(-152.413 0)"/>
            <path id="路径-3" class="cls-11" d="M527.261,39.708c-4.28-6.072-8.337-9.108-12.12-9.108s-9.9,3.036-18.341,9.108Z" transform="translate(-455.588 -28.062)"/>
          </g>
          <g id="编组-62" transform="translate(64.063 44.977)">
            <ellipse id="椭圆形_4_" class="cls-12" cx="1.12" cy="0.348" rx="1.12" ry="0.348" transform="translate(2.011 4.459)"/>
            <path id="椭圆形_5_" class="cls-13" d="M24.652,13c.324.124,1.792-2.041,2.016-2.613A1.078,1.078,0,0,0,26.17,9a1.049,1.049,0,0,0-1.294.7C24.652,10.24,24.354,12.878,24.652,13Z" transform="translate(-22.492 -8.195)"/>
            <path id="椭圆形_6_" class="cls-14" d="M2.11,4.807c.4-.1.324-3.136.149-3.808A1.269,1.269,0,0,0,.816.029,1.217,1.217,0,0,0,.045,1.547C.219,2.219,1.737,4.907,2.11,4.807Z" transform="translate(0 0)"/>
          </g>
          <g id="编组" class="cls-15" transform="translate(66.083 65.805)">
            <ellipse id="椭圆形_7_" class="cls-16" cx="1.468" cy="0.448" rx="1.468" ry="0.448" transform="translate(3.201 7.621)"/>
            <path id="椭圆形_8_" class="cls-17" d="M41.19,22c.523.2,3.036-3.459,3.409-4.43a1.8,1.8,0,0,0-.871-2.364,1.758,1.758,0,0,0-2.19,1.17C41.165,17.349,40.668,21.8,41.19,22Z" transform="translate(-37.566 -13.86)"/>
            <path id="椭圆形_9_" class="cls-18" d="M3.624,8.168c.672-.174.572-5.326.249-6.47A2.168,2.168,0,0,0,1.384.055,2.046,2.046,0,0,0,.09,2.668C.414,3.838,2.952,8.343,3.624,8.168Z" transform="translate(0 0)"/>
          </g>
        </g>
        <g id="编组-17" transform="translate(16.471 30.422)">
          <g id="编组-9" transform="translate(10.521)">
            <g id="矩形_1_" transform="translate(8.241 1.686)">
              <g id="蒙版备份-2" transform="translate(0 0.004)">
                <g id="蒙版">
                  <path id="path-17" class="cls-19" d="M3.982,0h9.78a3.994,3.994,0,0,1,3.982,3.982V9.955a3.994,3.994,0,0,1-3.982,3.982H3.982A3.978,3.978,0,0,1,0,9.955V3.982A3.994,3.994,0,0,1,3.982,0Z"/>
                </g>
                <g id="path-20-link" transform="translate(0 0.672)">
                  <path id="path-20" class="cls-20" d="M3.982,0h9.78a3.994,3.994,0,0,1,3.982,3.982V9.955a3.994,3.994,0,0,1-3.982,3.982H3.982A3.978,3.978,0,0,1,0,9.955V3.982A3.994,3.994,0,0,1,3.982,0Z"/>
                </g>
              </g>
              <path id="路径_1_" class="cls-21" d="M17.1,0h7.391a1.8,1.8,0,0,1,1.692,1.195l2.09,5.948h0l-8.561,2.29Z" transform="translate(-15.681)"/>
            </g>
            <g id="矩形备份-12">
              <g id="蒙版_1_">
                <path id="path-23" class="cls-22" d="M3.584,0H13.936a1.792,1.792,0,0,1,1.717,1.269l2.464,8.038a3.578,3.578,0,0,1-2.389,4.48,3.789,3.789,0,0,1-1.045.149H3.584A3.569,3.569,0,0,1,0,10.353V3.584A3.569,3.569,0,0,1,3.584,0Z"/>
              </g>
              <g id="Clipped" transform="translate(0.05 0.672)">
                <path id="路径_2_" class="cls-23" d="M3.584,0h10.5A1.815,1.815,0,0,1,15.8,1.269l2.489,8.038a3.584,3.584,0,0,1-2.364,4.48,3.833,3.833,0,0,1-1.07.149H3.584A3.569,3.569,0,0,1,0,10.353V3.584A3.569,3.569,0,0,1,3.584,0Z"/>
              </g>
            </g>
            <g id="矩形备份-11" transform="translate(0 4.226)">
              <g id="蒙版_2_">
                <path id="path-27" class="cls-24" d="M3.982,0H31.506a3.994,3.994,0,0,1,3.982,3.982V23.493a3.994,3.994,0,0,1-3.982,3.982H3.982A3.994,3.994,0,0,1,0,23.493V3.982A3.994,3.994,0,0,1,3.982,0Z"/>
              </g>
              <g id="Clipped_1_" transform="translate(0 0.672)">
                <path id="矩形_2_" class="cls-25" d="M3.982,0H31.506a3.994,3.994,0,0,1,3.982,3.982V22a3.994,3.994,0,0,1-3.982,3.982H3.982A3.994,3.994,0,0,1,0,22V3.982A3.994,3.994,0,0,1,3.982,0Z" transform="translate(0 0)"/>
              </g>
            </g>
            <g id="蒙版备份-3" transform="translate(21.13 12.429)">
              <g id="蒙版_3_" transform="translate(0 0.672)">
                <path id="path-31" class="cls-26" d="M3.808,0H14.384V7.615H3.808A3.808,3.808,0,0,1,3.808,0Z"/>
              </g>
              <g id="path-34-link">
                <path id="path-34" class="cls-27" d="M3.808,0H14.384V7.615H3.808A3.808,3.808,0,0,1,3.808,0Z"/>
              </g>
            </g>
            <g id="椭圆形备份-5" transform="translate(23.542 14.216)">
              <g id="蒙版_4_" transform="translate(0 0)">
                <circle id="path-37" class="cls-28" cx="2.016" cy="2.016" r="2.016"/>
              </g>
              <g id="Clipped_2_" transform="translate(0 0.448)">
                <circle id="椭圆形_10_" class="cls-29" cx="2.016" cy="2.016" r="2.016" transform="translate(0 0)"/>
              </g>
            </g>
          </g>
          <g id="编组-6" transform="translate(24.647 34.597) rotate(180)">
            <path id="形状结合_1_" class="cls-30" d="M2.548,14.842a8.7,8.7,0,1,0,0-12.294A8.7,8.7,0,0,0,2.548,14.842ZM3.792,13.6a6.96,6.96,0,1,1,9.855,0A6.954,6.954,0,0,1,3.792,13.6Z" transform="translate(0 7.264)"/>
            <path id="形状结合_2_" class="cls-31" d="M1.219,10.707,2.762,9.164l.149.149a.647.647,0,0,0,.946,0L10.5,2.669a.661.661,0,0,0,.025-.921L10.5,1.723h0L8.984.205a.647.647,0,0,0-.946,0L1.394,6.85a.661.661,0,0,0-.025.921l.025.025h0l.149.149L0,9.488Z" transform="translate(13.946 0)"/>
            <circle id="椭圆形_11_" class="cls-32" cx="6.968" cy="6.968" r="6.968" transform="translate(1.751 8.965)"/>
          </g>
        </g>
      </g>
    </g>
  </g>
</svg>
