<svg width="64" height="64" viewBox="0 0 64 64" fill="none" xmlns="http://www.w3.org/2000/svg">
<circle cx="32" cy="32" r="31.75" fill="url(#paint0_radial_16369_119968)" fill-opacity="0.05" stroke="url(#paint1_linear_16369_119968)" stroke-width="0.5"/>
<circle cx="32" cy="32" r="18" fill="url(#paint2_linear_16369_119968)"/>
<path d="M32.1448 18.5C36.3619 18.5 39.7805 21.9757 39.7805 26.2632V30.7272C39.7805 35.0146 36.3619 38.4903 32.1448 38.4903C31.4823 38.4903 30.8397 38.4046 30.2268 38.2434V38.7703C30.2268 41.9069 27.7139 44.4554 24.5948 44.5061L24.5 44.5068V27.4277L24.5088 27.4275L24.509 26.2632C24.509 21.9757 27.9277 18.5 32.1448 18.5ZM32.1448 24.3224C31.0905 24.3224 30.2358 25.1913 30.2358 26.2632V30.7272C30.2358 31.799 31.0905 32.6679 32.1448 32.6679C33.199 32.6679 34.0537 31.799 34.0537 30.7272V26.2632C34.0537 25.1913 33.199 24.3224 32.1448 24.3224Z" fill="white"/>
<defs>
<radialGradient id="paint0_radial_16369_119968" cx="0" cy="0" r="1" gradientUnits="userSpaceOnUse" gradientTransform="translate(32 32) rotate(90) scale(32)">
<stop stop-opacity="0"/>
<stop offset="1" stop-color="white"/>
</radialGradient>
<linearGradient id="paint1_linear_16369_119968" x1="32" y1="0" x2="32" y2="64" gradientUnits="userSpaceOnUse">
<stop stop-color="#4B4C4D"/>
<stop offset="1" stop-opacity="0"/>
</linearGradient>
<linearGradient id="paint2_linear_16369_119968" x1="32" y1="14" x2="32" y2="50" gradientUnits="userSpaceOnUse">
<stop stop-color="#732CE6"/>
<stop offset="1" stop-color="#290D56"/>
</linearGradient>
</defs>
</svg>
