<svg id="组_56882" data-name="组 56882" xmlns="http://www.w3.org/2000/svg" width="15" height="15" viewBox="0 0 15 15">
  <defs>
    <style>
      .cls-1 {
        fill: #939ca5;
      }
    </style>
  </defs>
  <g id="组_56854" data-name="组 56854">
    <path id="路径_32810" data-name="路径 32810" class="cls-1" d="M354.9,357.8a2.9,2.9,0,1,1,2.9-2.9A2.906,2.906,0,0,1,354.9,357.8Zm0-4.644a1.741,1.741,0,1,0,1.741,1.741A1.744,1.744,0,0,0,354.9,353.161Z" transform="translate(-347.402 -347.402)"/>
    <path id="路径_32811" data-name="路径 32811" class="cls-1" d="M37.364,66.4a1.438,1.438,0,0,1-.747-.208l-1.731-1.042a1.6,1.6,0,0,1-.548-2.137l.553-1a5.435,5.435,0,0,1-.284-.51H33.5A1.535,1.535,0,0,1,32,59.939V57.856a1.535,1.535,0,0,1,1.5-1.563h1.1c.086-.173.18-.342.284-.51l-.553-1a1.6,1.6,0,0,1-.148-1.186,1.548,1.548,0,0,1,.7-.949l1.731-1.042a1.469,1.469,0,0,1,2.048.572l.552.995a4.707,4.707,0,0,1,.567,0l.552-.995a1.467,1.467,0,0,1,2.048-.572l1.731,1.042a1.548,1.548,0,0,1,.7.949,1.6,1.6,0,0,1-.148,1.186l-.553,1a5.434,5.434,0,0,1,.284.51h1.1A1.535,1.535,0,0,1,47,57.856v2.084A1.535,1.535,0,0,1,45.5,61.5H44.4c-.086.173-.18.342-.284.51l.553,1a1.6,1.6,0,0,1-.548,2.135l-1.731,1.042a1.468,1.468,0,0,1-2.048-.573l-.552-.995a4.714,4.714,0,0,1-.567,0l-.552.995a1.5,1.5,0,0,1-1.3.782ZM33.5,57.335a.512.512,0,0,0-.5.521v2.084a.512.512,0,0,0,.5.521h1.419a.5.5,0,0,1,.458.313,4.725,4.725,0,0,0,.5.9.543.543,0,0,1,.031.57L35.2,63.533a.527.527,0,0,0-.048.4.52.52,0,0,0,.231.318l1.731,1.042A.489.489,0,0,0,37.8,65.1l.709-1.282A.494.494,0,0,1,39,63.559a4.521,4.521,0,0,0,1.006,0,.493.493,0,0,1,.487.257L41.2,65.1a.489.489,0,0,0,.683.191l1.731-1.042a.511.511,0,0,0,.231-.318.543.543,0,0,0-.048-.4l-.711-1.285a.537.537,0,0,1,.031-.57,4.726,4.726,0,0,0,.5-.9.5.5,0,0,1,.458-.313H45.5a.512.512,0,0,0,.5-.521V57.856a.512.512,0,0,0-.5-.521H44.081a.5.5,0,0,1-.458-.313,4.725,4.725,0,0,0-.5-.9.543.543,0,0,1-.031-.57l.711-1.285a.527.527,0,0,0,.048-.4.52.52,0,0,0-.231-.318l-1.731-1.042a.488.488,0,0,0-.683.191l-.709,1.282a.494.494,0,0,1-.487.257,4.519,4.519,0,0,0-1.006,0,.493.493,0,0,1-.487-.257L37.8,52.7a.489.489,0,0,0-.683-.191l-1.731,1.042a.511.511,0,0,0-.231.318.538.538,0,0,0,.048.394l.711,1.285a.537.537,0,0,1-.031.57,4.726,4.726,0,0,0-.5.9.5.5,0,0,1-.458.313H33.5Z" transform="translate(-32 -51.398)"/>
  </g>
</svg>
