<svg width="64" height="64" viewBox="0 0 64 64" fill="none" xmlns="http://www.w3.org/2000/svg">
<circle cx="32" cy="32" r="31.75" fill="url(#paint0_radial)" fill-opacity="0.05" stroke="url(#paint1_linear)" stroke-width="0.5"/>
<circle cx="32" cy="32" r="16" fill="white"/>
<path d="M40.0005 36.5711C40.0005 38.0949 39.3285 39.4968 37.9845 40.7768C36.6618 42.0365 35.2005 42.6663 33.6005 42.6663H30.4005C28.8005 42.6663 27.3285 42.0365 25.9845 40.7768C24.6618 39.4968 24.0005 38.0949 24.0005 36.5711C24.0005 34.8441 24.8112 33.3203 26.4325 31.9997C24.8112 30.679 24.0005 29.1552 24.0005 27.4282C24.0005 25.9044 24.6618 24.5127 25.9845 23.253C27.3285 21.973 28.8005 21.333 30.4005 21.333H33.6005C35.2005 21.333 36.6618 21.973 37.9845 23.253C39.3285 24.5127 40.0005 25.9044 40.0005 27.4282C40.0005 29.1552 39.1898 30.679 37.5685 31.9997C39.1898 33.3203 40.0005 34.8441 40.0005 36.5711ZM36.8005 27.4282C36.8005 26.6562 36.4698 25.9552 35.8085 25.3254C35.1472 24.6955 34.4112 24.3806 33.6005 24.3806H30.4005C29.5898 24.3806 28.8538 24.6955 28.1925 25.3254C27.5312 25.9552 27.2005 26.6562 27.2005 27.4282C27.2005 28.2003 27.5312 28.9013 28.1925 29.5311C28.8538 30.1609 29.5898 30.4759 30.4005 30.4759H33.6005C34.4112 30.4759 35.1472 30.1609 35.8085 29.5311C36.4698 28.9013 36.8005 28.2003 36.8005 27.4282ZM36.8005 36.5711C36.8005 35.799 36.4698 35.0981 35.8085 34.4682C35.1472 33.8384 34.4112 33.5235 33.6005 33.5235H30.4005C29.5898 33.5235 28.8538 33.8384 28.1925 34.4682C27.5312 35.0981 27.2005 35.799 27.2005 36.5711C27.2005 37.3432 27.5312 38.0441 28.1925 38.674C28.8538 39.3038 29.5898 39.6187 30.4005 39.6187H33.6005C34.4112 39.6187 35.1472 39.3038 35.8085 38.674C36.4698 38.0441 36.8005 37.3432 36.8005 36.5711Z" fill="black"/>
<defs>
<radialGradient id="paint0_radial" cx="0" cy="0" r="1" gradientUnits="userSpaceOnUse" gradientTransform="translate(32 32) rotate(90) scale(32)">
<stop stop-opacity="0"/>
<stop offset="1" stop-color="white"/>
</radialGradient>
<linearGradient id="paint1_linear" x1="32" y1="0" x2="32" y2="64" gradientUnits="userSpaceOnUse">
<stop stop-color="#4B4C4D"/>
<stop offset="1" stop-opacity="0"/>
</linearGradient>
</defs>
</svg>
