<svg width="64" height="64" viewBox="0 0 64 64" fill="none" xmlns="http://www.w3.org/2000/svg">
<circle cx="32" cy="32" r="31.75" fill="url(#paint0_radial_15817_143429)" fill-opacity="0.05" stroke="url(#paint1_linear_15817_143429)" stroke-width="0.5"/>
<path fill-rule="evenodd" clip-rule="evenodd" d="M44.9853 38.5422C44.4798 37.6674 43.8687 36.8796 43.2135 36.1281C42.3742 35.1677 41.4675 34.2825 40.5288 33.4311C40.4324 33.3434 40.3328 33.2594 40.2333 33.1753C40.1442 33.1001 40.055 33.0248 39.9681 32.947C39.9226 32.9064 39.8792 32.8636 39.8356 32.8207L39.8355 32.8206L39.8353 32.8203C39.7814 32.7672 39.7276 32.7141 39.6699 32.6654C39.5377 32.5531 39.4062 32.4399 39.2748 32.3267L39.2717 32.324C38.8785 31.9855 38.4857 31.6473 38.0736 31.3337C37.9867 31.2675 37.9039 31.1946 37.8211 31.1216C37.7531 31.0618 37.685 31.0019 37.6147 30.9457C37.1818 30.5988 36.7473 30.2545 36.3125 29.91L36.3094 29.9076L36.0134 29.673C35.9652 29.6348 35.9414 29.6159 35.9333 29.5912C35.9254 29.5671 35.9326 29.5375 35.9469 29.479L35.947 29.4787L35.9472 29.4778C35.9988 29.2675 36.0221 29.0534 36.0012 28.8353C35.9706 28.3084 35.7497 27.8866 35.3657 27.5569C35.0049 27.2467 34.5902 27.1468 34.135 27.2208C33.8528 27.2662 33.6061 27.3973 33.3926 27.5958C33.3436 27.6413 33.3092 27.6478 33.2565 27.6062C33.1944 27.5566 33.1295 27.5106 33.0645 27.4645L33.0636 27.4638C33.0337 27.4426 33.0038 27.4214 32.9742 27.3999C32.5517 27.0948 32.1274 26.7925 31.7029 26.4902L31.7022 26.4896L31.6999 26.488L31.699 26.4873L31.6986 26.4871L31.696 26.485C30.884 25.9066 30.0719 25.3282 29.2724 24.7301C28.5914 24.2214 27.919 23.6996 27.2687 23.148C26.4417 22.4472 25.6442 21.7125 24.9239 20.8871C24.5436 20.451 24.1902 19.9929 23.8908 19.4893C23.6479 19.0817 23.4466 18.6535 23.335 18.1823C23.162 17.449 23.2724 16.7767 23.7252 16.1797C23.8896 15.9629 24.0834 15.7773 24.2957 15.6125C24.6331 15.349 25.0012 15.144 25.3853 14.9714C25.8749 14.7507 26.3779 14.5729 26.8945 14.4431C26.8993 14.4413 26.9041 14.4393 26.9089 14.4373C26.9131 14.4356 26.9172 14.4338 26.9214 14.432C26.9602 14.4153 27.0004 14.398 27.0552 14.4107C27.0238 14.4468 26.9869 14.4565 26.9517 14.4657C26.9401 14.4687 26.9287 14.4717 26.9178 14.4756C26.8834 14.4899 26.8503 14.5041 26.816 14.5184C26.4712 14.6573 26.1399 14.8247 25.8479 15.0674C25.5006 15.3568 25.2503 15.7138 25.1558 16.181C25.0982 16.4691 25.1043 16.7559 25.1607 17.0428C25.1779 17.1297 25.1742 17.1959 25.1055 17.2608C24.9914 17.3672 24.8994 17.4944 24.8172 17.6294C24.7288 17.7761 24.6515 17.9292 24.6393 18.107C24.6209 18.39 24.735 18.5133 24.9399 18.5665C25.0982 18.608 25.2491 18.573 25.3951 18.5107C25.7951 18.342 26.0982 18.046 26.3485 17.6839C26.4601 17.523 26.5497 17.3478 26.5976 17.1531C26.6245 17.0441 26.6442 16.9351 26.6209 16.8208C26.5853 16.6495 26.4969 16.5678 26.3337 16.56C26.2037 16.5535 26.0822 16.5872 25.9644 16.6378C25.9146 16.6591 25.8652 16.6822 25.8154 16.7056L25.815 16.7058C25.7828 16.7208 25.7505 16.736 25.7178 16.7508C25.7148 16.7453 25.7118 16.7407 25.7091 16.7365C25.704 16.7285 25.6998 16.722 25.6982 16.7144L25.6961 16.7059C25.6845 16.6582 25.6732 16.6115 25.6663 16.5626C25.5828 16.011 25.7043 15.5256 26.0896 15.1271C26.2761 14.935 26.4908 14.7858 26.7239 14.6677C27.3448 14.3497 28.0098 14.1978 28.6896 14.107C28.7203 14.0889 28.7532 14.0921 28.7911 14.0957L28.8 14.0966C28.7784 14.1293 28.7524 14.1327 28.7272 14.136L28.7271 14.136C28.7223 14.1367 28.7176 14.1373 28.7129 14.1381C28.4489 14.2159 28.1917 14.3151 27.9347 14.4141L27.934 14.4144L27.9337 14.4145C27.8266 14.4557 27.7197 14.4969 27.6123 14.5366C27.454 14.595 27.3018 14.669 27.1534 14.752C27.0699 14.7987 26.989 14.8494 26.9178 14.9156C26.9126 14.9204 26.9068 14.9252 26.9008 14.9301C26.8731 14.9531 26.8423 14.9786 26.8564 15.0181C26.8736 15.0693 26.92 15.0607 26.9593 15.0534C26.9649 15.0523 26.9703 15.0513 26.9755 15.0505C27.0859 15.035 27.1902 14.9986 27.2932 14.9571C27.6753 14.8007 28.0458 14.617 28.4164 14.4332L28.4166 14.433C28.5564 14.3637 28.6963 14.2943 28.8368 14.2264C28.8515 14.2199 28.865 14.2095 28.8773 14.1991C28.888 14.189 28.8778 14.1822 28.8679 14.1755C28.8562 14.1676 28.8448 14.1599 28.8687 14.1472C28.8933 14.1342 28.9227 14.129 28.9509 14.1213C29.1472 14.0654 29.3472 14.0278 29.5497 14.0006C29.3145 13.9957 29.0816 14.024 28.8497 14.0522L28.8049 14.0577C28.2368 14.129 27.6736 14.2303 27.1141 14.3588C26.3742 14.5288 25.6503 14.7546 24.9509 15.0635C24.4356 15.2906 23.946 15.5658 23.5153 15.9487C23.2086 16.2225 22.9534 16.5392 22.7914 16.9325C22.5742 17.4594 22.5792 17.9993 22.7203 18.5444C22.8454 19.0246 23.0577 19.462 23.3104 19.8773C23.7288 20.5652 24.2356 21.1804 24.7791 21.7632C25.1215 22.1292 25.4748 22.4822 25.8393 22.8235C26.7865 23.7126 27.7828 24.5393 28.8 25.3362C29.5755 25.9449 30.3595 26.5381 31.1522 27.1208C31.3411 27.2597 31.5301 27.3984 31.7192 27.5371C31.9197 27.684 32.1202 27.8309 32.3206 27.9777C32.4789 28.0936 32.637 28.2094 32.7951 28.3252C32.8399 28.3584 32.8623 28.3749 32.8701 28.3972C32.8779 28.4194 32.8712 28.4473 32.8577 28.5031C32.8319 28.6121 32.8074 28.7211 32.8086 28.834C32.7939 28.9638 32.8012 29.0923 32.8184 29.2221C32.919 30.0294 33.4834 30.6355 34.2454 30.7406C34.6466 30.7964 35.0184 30.7198 35.3411 30.4434C35.3536 30.4326 35.3643 30.4232 35.3735 30.415C35.405 30.387 35.4201 30.3736 35.4351 30.3738C35.4488 30.3739 35.4625 30.3854 35.4886 30.4074C35.5003 30.4173 35.5146 30.4293 35.5325 30.4434C35.5943 30.492 35.6561 30.5405 35.7179 30.5891L35.8137 30.6644L35.8159 30.6662C36.3388 31.0771 36.8618 31.4882 37.3804 31.9048C37.8196 32.2578 38.2577 32.6134 38.681 32.9872C38.8451 33.1327 39.0125 33.2738 39.1801 33.4149L39.1803 33.415C39.3146 33.5282 39.4489 33.6414 39.5816 33.7569C40.0368 34.1527 40.4822 34.559 40.919 34.9769C41.9951 36.0035 43.0282 37.073 43.9141 38.293C44.3828 38.9393 44.8 39.6207 45.1043 40.3735C45.3215 40.9095 45.4699 41.465 45.508 42.0477C45.562 42.9017 45.3656 43.6934 44.9644 44.4306C44.6847 44.9433 44.3337 45.3976 43.9411 45.8181L43.9406 45.8186C43.9166 45.8446 43.8927 45.8706 43.8687 45.8968C43.8462 45.9214 43.8237 45.9462 43.8012 45.9712C43.9693 45.8414 44.1301 45.7026 44.2797 45.552C44.8663 44.9563 45.3521 44.284 45.6699 43.4845C45.7325 43.3261 45.7742 43.1626 45.8135 42.9965C45.8269 42.9406 45.8422 42.8851 45.8574 42.8295C45.8839 42.7328 45.9105 42.636 45.9276 42.537C46.0405 41.8842 45.9963 41.2379 45.843 40.5967C45.6638 39.8621 45.3583 39.1859 44.9853 38.5422ZM25.7718 17.0817C25.8245 17.0558 25.8798 17.0402 25.9362 17.035C26.0503 17.0259 26.1215 17.0999 26.1215 17.2206C26.1215 17.2829 26.1055 17.34 26.081 17.3958C25.9693 17.6476 25.7939 17.8332 25.5534 17.95C25.4933 17.9786 25.4307 17.9967 25.3779 17.9941C25.2294 17.9915 25.1693 17.9214 25.1791 17.78C25.1853 17.6956 25.2184 17.6216 25.2601 17.5515C25.3877 17.3413 25.5607 17.1881 25.7718 17.0817ZM27.4049 14.7715C27.4162 14.7051 27.4543 14.6843 27.4888 14.6656C27.4915 14.6641 27.4943 14.6626 27.497 14.6611C27.5008 14.659 27.5044 14.6569 27.508 14.6547C27.7018 14.5431 27.9092 14.4639 28.1215 14.4003C28.13 14.3978 28.1384 14.3951 28.1469 14.3923L28.1606 14.3878C28.217 14.3692 28.2736 14.3505 28.3374 14.3653C28.0417 14.5288 27.746 14.6871 27.4049 14.7715ZM28.9338 14.081C28.908 14.0953 28.8822 14.1031 28.8479 14.081C28.881 14.0616 28.9067 14.0603 28.9338 14.081ZM35.1337 29.1961C35.0528 29.6426 34.5975 29.9255 34.1976 29.7633C33.9423 29.6595 33.8012 29.4414 33.7301 29.1689C33.7018 29.0585 33.7031 28.9469 33.7068 28.834L33.7089 28.8269L33.7102 28.8224C33.7129 28.8131 33.7155 28.8038 33.7181 28.7944L33.7206 28.7853L33.721 28.7839L33.7214 28.7824C33.7314 28.7465 33.7413 28.7108 33.7546 28.6757C33.8466 28.4239 34.0012 28.2422 34.2589 28.1812C34.4871 28.1267 34.6847 28.2019 34.8577 28.3577C34.9976 28.4836 35.0785 28.6523 35.1325 28.8353C35.1485 28.956 35.1558 29.0741 35.1337 29.1961Z" fill="url(#paint2_linear_15817_143429)"/>
<path fill-rule="evenodd" clip-rule="evenodd" d="M49.9767 32.2552C49.962 31.8308 49.8761 31.4181 49.7742 31.0093C49.6945 30.6861 49.5902 30.3707 49.4626 30.0644C49.4635 30.0338 49.4517 30.0081 49.44 29.9827L49.4363 29.9745L49.4335 29.9682C49.4317 29.964 49.4299 29.9597 49.4282 29.9554C49.2736 29.5686 49.0908 29.1974 48.8871 28.8366C48.3755 27.9294 47.7522 27.1143 47.0675 26.3499C46.0761 25.2428 44.9791 24.2603 43.838 23.331C42.9423 22.6016 42.0172 21.9137 41.0785 21.2492C39.6074 20.207 38.1018 19.2258 36.5755 18.2758C36.1779 18.0279 35.7779 17.7826 35.3779 17.5399C35.3215 17.5061 35.2896 17.4724 35.3092 17.3971C35.3264 17.3309 35.319 17.2595 35.3117 17.1907C35.2589 16.7365 35.0319 16.4003 34.6638 16.1771C34.3374 15.9798 33.9166 15.972 33.6074 16.2563C33.2773 16.56 33.1509 16.948 33.2601 17.3997C33.3779 17.889 33.8258 18.2316 34.335 18.2394C34.5792 18.2433 34.8049 18.1797 34.9976 18.0136C35.0429 17.9747 35.081 17.9656 35.1264 18.0058C35.137 18.0144 35.1487 18.0219 35.1604 18.0294C35.1646 18.0321 35.1687 18.0347 35.1728 18.0374L35.1779 18.0409L35.388 18.1804C37.1855 19.3746 38.9828 20.5686 40.7448 21.8203C41.6638 22.4731 42.5693 23.1467 43.4552 23.8502C43.8245 24.1435 44.189 24.4433 44.5472 24.7522C45.5423 25.6062 46.4908 26.5121 47.3374 27.5335C47.8908 28.202 48.3914 28.9119 48.8049 29.6867C48.8933 29.8516 48.9779 30.019 49.0638 30.1851C49.078 30.2195 49.0923 30.2538 49.1067 30.2882L49.1459 30.3817C49.1958 30.5006 49.2458 30.6197 49.2933 30.7393C49.7337 31.8568 49.9313 33.021 49.8859 34.2319C49.9313 33.9918 49.9656 33.7504 49.9767 33.5051C49.977 33.499 49.9766 33.4926 49.9762 33.486C49.9748 33.4631 49.9733 33.439 50 33.4259V32.3097C49.9766 32.2998 49.9766 32.2781 49.9767 32.258V32.2552ZM34.416 17.6048C34.2049 17.6515 34.0282 17.5775 33.892 17.4036C33.7595 17.2349 33.7337 17.0467 33.8221 16.8468C33.9215 16.6236 34.1387 16.521 34.3632 16.5885C34.5914 16.6573 34.762 16.8974 34.7632 17.1505C34.7632 17.3776 34.6307 17.558 34.416 17.6048Z" fill="url(#paint3_linear_15817_143429)"/>
<path fill-rule="evenodd" clip-rule="evenodd" d="M30.2724 45.9206C29.8675 45.6831 29.4515 45.6727 29.0564 45.9608C29.0495 45.9659 29.0432 45.9706 29.0374 45.9749C29.0049 45.999 28.9882 46.0115 28.9709 46.0122C28.9525 46.013 28.9335 46.0003 28.8943 45.974L28.8785 45.9634C27.6491 45.1484 26.4209 44.332 25.2025 43.5001C23.6908 42.4682 22.1939 41.4144 20.7509 40.2774C20.6694 40.2134 20.5875 40.1497 20.5056 40.086C20.2871 39.9158 20.0686 39.7457 19.8552 39.5701C19.7258 39.4633 19.6008 39.35 19.4758 39.2367L19.4748 39.2357C19.401 39.1689 19.3273 39.102 19.2528 39.0366C18.6822 38.537 18.1301 38.0165 17.6 37.4701C17.3012 37.162 17.0183 36.8371 16.7358 36.5126C16.6946 36.4653 16.6535 36.418 16.6123 36.3708C16.5255 36.2718 16.4472 36.1638 16.3689 36.0559L16.3688 36.0558C16.3527 36.0337 16.3367 36.0116 16.3206 35.9895C16.303 35.9655 16.2853 35.9416 16.2675 35.9178C15.6798 35.1365 15.1706 34.3046 14.7951 33.3857C14.4393 32.5135 14.2221 31.605 14.162 30.6549C14.1531 30.5104 14.1508 30.3659 14.1484 30.2212V30.2173C14.1462 30.0813 14.144 29.9452 14.1362 29.8087C14.1141 29.974 14.0953 30.1392 14.0765 30.3045L14.0691 30.3694C14.0621 30.4304 14.0551 30.4914 14.0478 30.5524C14.0473 30.5566 14.047 30.5608 14.0468 30.5651L14.0466 30.5682L14.0465 30.5711L14.0464 30.5761L14.0463 30.5809L14.0462 30.5902C14.046 30.6316 14.0458 30.6744 14 30.6991V31.5038C14.0431 31.5443 14.0436 31.5982 14.0441 31.6502C14.0442 31.6648 14.0443 31.6793 14.0454 31.6932C14.0736 32.0605 14.1313 32.4214 14.2123 32.7796C14.4331 33.7478 14.8282 34.6355 15.335 35.4701C15.8663 36.3474 16.4982 37.1379 17.1853 37.8789C18.0552 38.816 18.9914 39.6752 19.9742 40.4786C20.627 41.0133 21.292 41.5312 21.9693 42.0309C23.5153 43.1717 25.108 44.2347 26.7264 45.2574C27.272 45.6024 27.8222 45.9407 28.3723 46.2788L28.3768 46.2815L28.3778 46.2821C28.4654 46.3359 28.5529 46.3898 28.6405 46.4436C28.7055 46.4839 28.7362 46.5215 28.7252 46.6046C28.7129 46.7032 28.7178 46.8032 28.7362 46.9018C28.8172 47.3184 29.0405 47.6299 29.389 47.8259C29.8172 48.066 30.2736 47.9712 30.5644 47.5975C30.9632 47.0861 30.9055 46.2918 30.2724 45.9206ZM30.2442 47.0562C30.1865 47.2717 30.0135 47.4196 29.8061 47.4196C29.519 47.4196 29.2589 47.1315 29.2699 46.8278C29.2773 46.615 29.4098 46.4436 29.611 46.3917C29.9841 46.2957 30.3436 46.6799 30.2442 47.0562Z" fill="url(#paint4_linear_15817_143429)"/>
<path d="M49.9875 29.3815C49.9892 29.3469 49.9909 29.3126 49.9755 29.2805C49.9841 29.287 49.9914 29.2844 49.9988 29.274V29.4817C49.9842 29.4495 49.9859 29.4154 49.9875 29.3815Z" fill="url(#paint5_linear_15817_143429)"/>
<path d="M49.9755 29.2805C49.9751 29.2801 49.9749 29.2798 49.9747 29.2794L49.9742 29.2785L49.974 29.278L49.9737 29.2775C49.9735 29.2772 49.9733 29.2769 49.973 29.2766C49.973 29.274 49.9718 29.2714 49.9718 29.2688V29.2779C49.973 29.2792 49.9742 29.2805 49.9755 29.2805Z" fill="url(#paint6_linear_15817_143429)"/>
<path fill-rule="evenodd" clip-rule="evenodd" d="M40.8626 47.6948C41.2417 47.2353 41.438 46.7071 41.4147 46.0919C41.4081 45.9234 41.3715 45.7623 41.3347 45.6C41.3307 45.5823 41.3267 45.5646 41.3227 45.5468C41.2135 45.051 41.016 44.602 40.762 44.1737C40.638 43.9647 40.5043 43.7622 40.3644 43.5662C39.8233 42.8122 39.1988 42.1412 38.5423 41.5C37.5043 40.4877 36.3939 39.5675 35.2613 38.6758L35.2138 38.6385L35.2112 38.6367C34.7739 38.2927 34.3361 37.9484 33.8834 37.6258C33.7727 37.547 33.665 37.4629 33.5573 37.3788L33.5571 37.3787C33.4859 37.323 33.4146 37.2674 33.3423 37.2131C32.824 36.8262 32.302 36.4439 31.7797 36.0615L31.776 36.0586L31.7748 36.0577L31.7476 36.0378C31.608 35.9356 31.4684 35.8333 31.3288 35.7309C31.3192 35.7239 31.3091 35.717 31.2989 35.7103L31.2854 35.7016L31.2789 35.6975L31.2788 35.6974C31.2347 35.6692 31.19 35.6406 31.1644 35.5986C31.1368 35.5526 31.1571 35.503 31.1774 35.4531C31.187 35.4297 31.1965 35.4063 31.2012 35.3831C31.3853 34.437 30.8282 33.4051 29.838 33.2546C29.411 33.1897 29.0147 33.2585 28.6748 33.5635C28.6061 33.6245 28.6037 33.6232 28.5202 33.557C27.2417 32.5693 25.9816 31.5583 24.7583 30.4966C24.7 30.4459 24.6418 30.3953 24.5836 30.3448L24.3947 30.181C24.3012 30.0998 24.2076 30.0186 24.1141 29.9372C24.0352 29.8642 23.9567 29.7908 23.8783 29.7173C23.7335 29.5818 23.5889 29.4464 23.4417 29.3142C23.2798 29.1683 23.122 29.0174 22.9641 28.8665L22.9621 28.8648L22.9613 28.864C22.8293 28.738 22.6974 28.6119 22.5632 28.4888C22.4283 28.3651 22.3026 28.2293 22.1767 28.0933C22.1138 28.0252 22.0507 27.9571 21.9865 27.8905C21.2343 27.1065 20.519 26.2876 19.9006 25.3791C19.4957 24.7846 19.1386 24.1616 18.8785 23.479C18.6687 22.93 18.535 22.3615 18.5202 21.7671C18.5018 21.0571 18.6613 20.3887 18.9693 19.7579C19.2478 19.1882 19.6172 18.6898 20.038 18.2316C20.0587 18.2092 20.0794 18.1869 20.1 18.1648C20.1258 18.137 20.1514 18.1092 20.1767 18.0811C20.0331 18.1706 19.9129 18.2862 19.7951 18.403C19.238 18.9559 18.7742 19.5827 18.4478 20.316C18.1055 21.0857 17.9816 21.8956 18.0785 22.7405C18.1497 23.3596 18.3276 23.9462 18.5742 24.5095C18.9681 25.4115 19.5006 26.2175 20.0945 26.9806C20.8307 27.9281 21.6491 28.7925 22.5031 29.6192C22.5399 29.6547 22.5763 29.6905 22.6127 29.7263C22.7257 29.8374 22.8386 29.9484 22.962 30.0475C22.9654 30.0512 22.9684 30.0552 22.9715 30.0593L22.9716 30.0594C22.9761 30.0654 22.9806 30.0714 22.9865 30.0761C23.784 30.8276 24.6098 31.5414 25.4442 32.2448C25.8363 32.5752 26.2365 32.8961 26.6363 33.2167C26.7282 33.2903 26.82 33.3639 26.9117 33.4376C27.2851 33.738 27.6621 34.0333 28.0392 34.3286L28.0417 34.3305C28.0932 34.3708 28.1166 34.4032 28.0945 34.4785C28.027 34.7082 28.0123 34.9444 28.0331 35.1845C28.0871 35.814 28.384 36.2942 28.8969 36.5914C29.4687 36.9224 30.1141 36.8549 30.6184 36.4136C30.708 36.3345 30.708 36.3345 30.8024 36.4019C31.0413 36.573 31.2802 36.7439 31.519 36.9148C32.1573 37.3716 32.7956 37.8284 33.4331 38.2865C34.1472 38.7991 34.8552 39.3183 35.5509 39.8595C36.5534 40.6382 37.5264 41.4559 38.4258 42.367C38.973 42.9212 39.4883 43.5065 39.9276 44.1607C40.2258 44.6045 40.4785 45.0757 40.638 45.5961C40.7632 46.005 40.8172 46.419 40.7399 46.8447C40.6589 47.2912 40.4503 47.6675 40.1534 47.9907C39.8601 48.3113 39.5153 48.5553 39.1448 48.7642C38.5055 49.1238 37.8233 49.3561 37.1276 49.5547L37.127 49.5548C37.1088 49.56 37.0869 49.5662 37.0675 49.5482C37.0861 49.5128 37.1194 49.5042 37.1516 49.4959C37.1576 49.4944 37.1636 49.4928 37.1695 49.4911C37.1736 49.4899 37.1777 49.4886 37.1816 49.4872C37.5362 49.3496 37.8749 49.1796 38.1755 48.9343C38.4294 48.7279 38.6356 48.4813 38.7693 48.1711C38.9423 47.7688 38.9521 47.3509 38.8736 46.9265C38.8577 46.8421 38.8748 46.7915 38.9301 46.7344C39.0859 46.5734 39.2184 46.393 39.3141 46.1841C39.362 46.0776 39.3988 45.9686 39.4012 45.8492C39.4074 45.6039 39.2969 45.4586 39.0687 45.4144C39.0405 45.4092 39.0123 45.4079 38.9828 45.4079C38.7926 45.4014 38.6209 45.4702 38.4589 45.5663C38.0785 45.7908 37.7828 46.1075 37.5656 46.5059C37.5141 46.5994 37.4748 46.6993 37.4442 46.8032C37.4098 46.9161 37.3975 47.0316 37.4098 47.1484C37.427 47.321 37.5276 47.4235 37.6908 47.4326C37.7558 47.4365 37.8209 47.4313 37.8859 47.4158C38.0184 47.3833 38.1423 47.3301 38.2626 47.2626C38.3092 47.2366 38.3337 47.2366 38.346 47.3015C38.3902 47.5235 38.4098 47.7454 38.3804 47.9712C38.3252 48.3969 38.1153 48.7266 37.8061 48.9927C37.5877 49.1796 37.3436 49.3171 37.0859 49.4301C36.5656 49.6572 36.0196 49.7818 35.465 49.8687C35.4624 49.8691 35.4598 49.8696 35.4572 49.8701C35.4531 49.871 35.4491 49.8719 35.445 49.873C35.4397 49.8744 35.4343 49.876 35.4289 49.8775L35.4283 49.8777C35.395 49.8875 35.3603 49.8976 35.3264 49.8739C35.3344 49.8441 35.3549 49.8396 35.3741 49.8354C35.3766 49.8349 35.3791 49.8343 35.3815 49.8337L35.3835 49.8332L35.3865 49.8324C35.5964 49.7744 35.8002 49.6951 36.0041 49.6157L36.0045 49.6155C36.1151 49.5725 36.2257 49.5294 36.3374 49.4898C36.5509 49.4145 36.7571 49.3184 36.9521 49.2003C37.0233 49.1575 37.092 49.1108 37.1509 49.0498C37.1537 49.0469 37.1566 49.0439 37.1596 49.041C37.1802 49.0203 37.2024 48.998 37.1853 48.9628C37.1693 48.9304 37.1374 48.933 37.1092 48.9356C37.0724 48.9382 37.0356 48.9421 37 48.9498C36.908 48.9706 36.8184 49.0018 36.7313 49.0368L36.6172 49.0835C36.6031 49.0893 36.5889 49.0953 36.5749 49.1013C36.5619 49.107 36.5489 49.1127 36.536 49.1185C36.5254 49.1232 36.5148 49.128 36.5043 49.1328C36.4779 49.1438 36.4523 49.1555 36.4262 49.1674L36.4025 49.1783C36.3644 49.1951 36.3276 49.2133 36.2908 49.2315C36.2723 49.2406 36.2534 49.2498 36.2346 49.2589L36.2092 49.2713C36.1991 49.2762 36.1891 49.2811 36.1791 49.286L36.1769 49.2871C36.1408 49.3049 36.1047 49.3227 36.0675 49.3405C36.0492 49.3496 36.0305 49.3586 36.0119 49.3677C35.9931 49.3768 35.9743 49.3859 35.9558 49.395C35.9392 49.4029 35.9222 49.411 35.9052 49.4192C35.8885 49.4272 35.8717 49.4353 35.8552 49.443C35.8184 49.4612 35.7816 49.4794 35.7436 49.4976C35.7228 49.5078 35.7017 49.518 35.6806 49.5283L35.6559 49.5403L35.6319 49.5521C35.5951 49.5702 35.5583 49.5884 35.5202 49.6066C35.4834 49.6247 35.4454 49.6429 35.4086 49.6611C35.392 49.6695 35.3754 49.6777 35.3588 49.6858L35.3377 49.6961C35.3282 49.7008 35.3187 49.7056 35.3092 49.7104C35.2978 49.716 35.2865 49.7224 35.2753 49.7288C35.25 49.743 35.2247 49.7573 35.1975 49.7636C35.164 49.7717 35.165 49.7942 35.1659 49.8142C35.1665 49.8264 35.1669 49.8377 35.1595 49.8441C35.1399 49.8623 35.1068 49.8636 35.0785 49.8713C34.865 49.9297 34.6503 49.9726 34.4184 49.9907C34.5043 50.0037 34.5779 50.0011 34.6503 49.9946C35.0945 49.9531 35.5362 49.9012 35.9755 49.8233C36.5877 49.7156 37.1951 49.5871 37.7914 49.4041C38.4638 49.199 39.1215 48.9537 39.7386 48.5994C40.1571 48.3632 40.546 48.079 40.8626 47.6948ZM30.1325 35.5882C29.8503 35.9256 29.4442 35.8789 29.1791 35.6388C29.0532 35.5253 28.9838 35.3743 28.915 35.2247L28.9043 35.2014C28.8877 35.1656 28.889 35.1203 28.8905 35.0687C28.8907 35.0625 28.8909 35.0563 28.891 35.0499C28.8912 35.0436 28.8913 35.0373 28.8914 35.0309C28.8915 35.0175 28.8914 35.0038 28.8908 34.9899C28.8773 34.5784 29.1288 34.2514 29.5215 34.1917C29.6503 34.1722 29.7755 34.1943 29.8908 34.2553C30.3472 34.4967 30.4699 35.1845 30.1325 35.5882ZM38.2503 46.9148C38.2049 46.9368 38.1583 46.9485 38.108 46.9524C37.9669 46.9628 37.8994 46.8901 37.9153 46.7435C37.9202 46.6967 37.9301 46.65 37.9497 46.6059C38.0638 46.3502 38.2417 46.1607 38.4859 46.0439C38.5423 46.0166 38.6025 46.0037 38.6638 46.0024C38.8049 46.0024 38.8748 46.0906 38.8491 46.2373C38.838 46.3009 38.8147 46.3619 38.7828 46.4177C38.6564 46.6422 38.4761 46.8057 38.2503 46.9148ZM36.6172 49.2471C36.5227 49.382 35.9251 49.6312 35.6908 49.6351C35.8896 49.4859 36.465 49.2458 36.6172 49.2471ZM35.0798 49.9142C35.1096 49.9152 35.1378 49.906 35.1669 49.8966C35.2097 49.8827 35.2545 49.8681 35.3092 49.8843L35.2996 49.8876C35.2182 49.916 35.1518 49.9392 35.0798 49.9142Z" fill="url(#paint7_linear_15817_143429)"/>
<path fill-rule="evenodd" clip-rule="evenodd" d="M31.416 40.2683C31.8233 39.9517 32.2748 39.8478 32.7607 40.0023C33.2614 40.1619 33.5534 40.5396 33.6503 41.0743C33.7951 41.8868 33.2773 42.7343 32.519 42.9316C31.6834 43.1496 30.9877 42.5409 30.8564 41.7972C30.816 41.5688 30.8245 41.3417 30.881 41.1171C30.8945 41.062 30.9012 41.0344 30.8931 41.0132C30.885 40.9919 30.862 40.977 30.816 40.9471C29.9301 40.3735 29.0528 39.7881 28.1853 39.1846C26.562 38.0567 24.9742 36.8757 23.4479 35.6038C22.9472 35.1858 22.454 34.7575 21.9706 34.3176C20.9975 33.4311 20.0638 32.4992 19.2037 31.4895C18.4822 30.6433 17.8233 29.749 17.2712 28.7678C17.2503 28.7315 17.2331 28.6912 17.2147 28.6536C17.1504 28.5683 17.1041 28.4727 17.0577 28.3767C17.0447 28.35 17.0318 28.3232 17.0184 28.2967C16.6564 27.5777 16.3706 26.8275 16.2196 26.0254C15.9411 24.5445 16.173 23.1662 16.9607 21.8994C17.0309 21.787 17.1033 21.6756 17.1786 21.5597L17.1787 21.5595C17.2259 21.4868 17.2743 21.4124 17.3239 21.3349C17.3249 21.3841 17.3083 21.4113 17.2935 21.4357C17.29 21.4415 17.2865 21.4472 17.2834 21.453C16.9558 22.0682 16.7215 22.7184 16.6123 23.4167C16.5288 23.954 16.5239 24.4913 16.5902 25.0312C16.6552 25.5647 16.7914 26.0799 16.9742 26.5809C17.2147 27.2389 17.5387 27.8515 17.9043 28.4395C17.9318 28.4835 17.958 28.5282 17.9843 28.5732C17.9944 28.5904 18.0045 28.6078 18.0147 28.6251C18.2822 29.0183 18.5558 29.4064 18.8491 29.7789C19.5522 30.6718 20.3239 31.4934 21.1325 32.2773C22.5141 33.6167 23.9853 34.8406 25.4884 36.0243C27.2037 37.3754 28.9607 38.6629 30.7264 39.9374C30.8847 40.0516 31.043 40.1658 31.2025 40.28C31.3057 40.3549 31.3068 40.3541 31.409 40.2738L31.416 40.2683ZM32.3644 42.197C32.6442 42.1373 32.8699 41.8842 32.9252 41.5649C32.9865 41.2132 32.7841 40.8783 32.4589 40.7953C32.0233 40.6824 31.5939 41.0458 31.5926 41.5273C31.5914 41.975 31.9497 42.2852 32.3644 42.197Z" fill="url(#paint8_linear_15817_143429)"/>
<path fill-rule="evenodd" clip-rule="evenodd" d="M41.8613 40.0152C42.3399 40.6188 42.784 41.2482 43.1374 41.9452C43.3816 42.4267 43.5742 42.929 43.6712 43.4702C43.8454 44.4202 43.6577 45.2885 43.1399 46.0802C42.8282 46.5579 42.4368 46.955 42.0037 47.308C41.5362 47.6896 41.0393 48.0193 40.5067 48.2905C40.5035 48.2921 40.5003 48.2939 40.4972 48.2958C40.4947 48.2973 40.4923 48.2989 40.4898 48.3005L40.4894 48.3008C40.471 48.3128 40.4511 48.3257 40.4184 48.3139C40.4447 48.2978 40.4701 48.2825 40.4948 48.2675C40.5381 48.2413 40.5795 48.2162 40.6208 48.1906C41.108 47.8947 41.573 47.5663 41.9877 47.164C42.2417 46.9174 42.4687 46.6461 42.6589 46.3411C43.1239 45.5948 43.2564 44.7824 43.0896 43.9115C42.9718 43.2937 42.7276 42.7304 42.4245 42.1931C42.0307 41.4961 41.5497 40.8692 41.0307 40.2735C40.9813 40.216 40.9302 40.1598 40.8792 40.1036C40.8614 40.084 40.8436 40.0644 40.8259 40.0448C40.8073 40.0242 40.7889 40.0036 40.7705 39.9828C40.7374 39.9452 40.7153 39.9439 40.6712 39.9789C40.4675 40.1437 40.2491 40.2839 39.9828 40.3047C39.8957 40.3332 39.8086 40.3319 39.7215 40.3047C39.4429 40.2826 39.2331 40.1359 39.0687 39.9062C38.881 39.6428 38.8172 39.3365 38.8245 39.0172C38.8393 38.3747 39.0945 37.8517 39.5632 37.4454C39.7558 37.278 39.9779 37.1651 40.2282 37.1378C40.8159 37.0743 41.2245 37.3987 41.3828 37.9841C41.4834 38.3566 41.427 38.7213 41.3031 39.0769C41.2871 39.121 41.2699 39.1651 41.2503 39.208C41.2356 39.2391 41.2368 39.2638 41.2601 39.2897C41.2656 39.2958 41.2709 39.3021 41.2759 39.3087C41.2863 39.3223 41.2958 39.3367 41.3052 39.351C41.3219 39.3763 41.3383 39.4012 41.3583 39.4195C41.4004 39.4565 41.4329 39.5018 41.4652 39.5468L41.4653 39.547C41.4942 39.5872 41.523 39.6273 41.5583 39.6609C41.6529 39.7501 41.7336 39.8529 41.8144 39.9557L41.842 39.9908C41.8484 39.999 41.8549 40.0071 41.8613 40.0152ZM40.292 39.4325C40.5239 39.2936 40.6675 39.0795 40.735 38.8095C40.7791 38.633 40.7742 38.4578 40.7006 38.2904C40.5963 38.0554 40.3791 37.949 40.1423 38.0126C39.8049 38.1035 39.5264 38.5058 39.5251 38.9367C39.53 39.095 39.5853 39.2651 39.7215 39.4013C39.7509 39.4312 39.7816 39.452 39.8184 39.4701C39.9828 39.5506 40.1423 39.5221 40.292 39.4325Z" fill="url(#paint9_linear_15817_143429)"/>
<path fill-rule="evenodd" clip-rule="evenodd" d="M21.2969 22.7496C21.7153 23.418 22.1988 24.0332 22.7092 24.625C22.7791 24.7068 22.7951 24.7678 22.7521 24.8716C22.6074 25.2194 22.557 25.588 22.6405 25.9605C22.7975 26.6601 23.3288 26.9806 23.9509 26.8288C24.1988 26.7678 24.4061 26.6211 24.5939 26.4407C24.9227 26.1266 25.0896 25.7178 25.1828 25.2752C25.2589 24.9157 25.2123 24.5601 25.0478 24.2304C24.8466 23.8281 24.4613 23.6256 24.0356 23.6879C23.7902 23.7243 23.5742 23.8294 23.3791 23.9851C23.2994 24.0487 23.2981 24.0487 23.2307 23.9761C22.6883 23.3803 22.1828 22.7521 21.7583 22.0552C21.4172 21.4971 21.1362 20.9092 20.9816 20.2602C20.8356 19.6437 20.8294 19.0285 21.0196 18.4198C21.1669 17.9487 21.4135 17.5386 21.7264 17.1713C22.1043 16.7274 22.5472 16.3666 23.0233 16.0512C23.1627 15.9582 23.305 15.8697 23.4474 15.7811L23.4476 15.781L23.4479 15.7808C23.4921 15.7533 23.5362 15.7258 23.5804 15.6982C23.5791 15.6943 23.5767 15.6904 23.5754 15.6878C23.5571 15.6956 23.5386 15.7021 23.5215 15.7112C22.9742 15.9902 22.465 16.3328 21.9865 16.7287C21.5435 17.096 21.146 17.5113 20.8356 18.0136C20.5485 18.4769 20.3656 18.9818 20.3166 19.5347C20.2736 20.0227 20.3337 20.5003 20.4675 20.9689C20.6503 21.61 20.9485 22.1928 21.2969 22.7496ZM23.7264 24.5705C24.0699 24.3459 24.4564 24.5588 24.5018 24.9845C24.5031 24.9983 24.504 25.0121 24.5047 25.0269L24.5054 25.0421L24.5059 25.0561C24.5064 25.0668 24.5068 25.0783 24.5074 25.0908C24.5079 25.1013 24.5085 25.1126 24.5092 25.1247C24.4859 25.4336 24.3534 25.7022 24.0883 25.8917C23.9988 25.9553 23.8982 25.9917 23.7902 25.9981C23.5239 26.0137 23.2981 25.7944 23.2785 25.4842C23.2528 25.0883 23.4086 24.7781 23.7264 24.5705Z" fill="url(#paint10_linear_15817_143429)"/>
<path fill-rule="evenodd" clip-rule="evenodd" d="M46.0859 34.1333C46.6344 34.934 47.1117 35.7777 47.4565 36.7005C47.6859 37.3144 47.8479 37.9464 47.9043 38.6057C48.0123 39.8309 47.7522 40.9653 47.1276 42.0049L47.0958 42.0579C46.9777 42.2546 46.8594 42.4517 46.7153 42.6292C46.718 42.5863 46.7386 42.5518 46.759 42.5175L46.763 42.5109L46.7665 42.5049L46.7701 42.4987C46.7737 42.4925 46.7771 42.4862 46.7804 42.4799C47.0773 41.9076 47.2957 41.3053 47.4061 40.6616C47.5104 40.0607 47.5153 39.4585 47.4294 38.8549C47.3068 37.9983 47.0196 37.204 46.6344 36.4448C46.1485 35.4869 45.5337 34.6265 44.8589 33.8127C43.9988 32.7757 43.0528 31.8334 42.0699 30.9314C42.0009 30.8686 41.9324 30.8052 41.8641 30.7419C41.8279 30.7085 41.7919 30.6752 41.7558 30.642C41.6534 30.5531 41.5509 30.4638 41.4485 30.3746C41.346 30.2854 41.2436 30.1961 41.1411 30.1072C39.9203 29.0482 38.6601 28.0436 37.3804 27.0676C36.3337 26.2694 35.2773 25.4855 34.2135 24.7132C33.7497 24.3771 33.2859 24.0409 32.8209 23.7061C32.7272 23.6379 32.7264 23.6386 32.6392 23.7081L32.6368 23.71C32.2282 24.0345 31.7755 24.1487 31.2834 23.9942C30.746 23.8255 30.4515 23.418 30.373 22.8417C30.2687 22.0837 30.7607 21.2868 31.4589 21.0792C32.3828 20.8053 33.1239 21.5257 33.1926 22.32C33.2098 22.512 33.1951 22.6989 33.1509 22.8845C33.1264 22.9871 33.1264 22.9884 33.2159 23.0468C33.3376 23.1267 33.4593 23.2065 33.5811 23.2863C33.9455 23.5251 34.31 23.764 34.6724 24.0072C35.5423 24.5899 36.4037 25.187 37.2528 25.8048C38.7227 26.8742 40.1607 27.9917 41.5338 29.1987C41.9963 29.605 42.4503 30.0216 42.8945 30.4499C42.9046 30.4599 42.9138 30.4706 42.9229 30.4814L42.9392 30.5011C42.9435 30.5061 42.9477 30.5111 42.9521 30.5161C43.1902 30.7329 43.4156 30.9655 43.641 31.1981L43.6415 31.1985L43.6932 31.252C44.5607 32.1475 45.3742 33.0937 46.0859 34.1333ZM31.8687 23.2077C32.1926 23.135 32.4307 22.8508 32.4429 22.4939C32.4577 22.0461 32.1288 21.7489 31.7583 21.7813C31.3865 21.8138 31.0982 22.1564 31.0994 22.551C31.0994 22.9871 31.4638 23.2986 31.8687 23.2077Z" fill="url(#paint11_linear_15817_143429)"/>
<path fill-rule="evenodd" clip-rule="evenodd" d="M49.0773 34.2747C49.0555 34.209 49.0411 34.1407 49.0268 34.0724C49.0145 34.0138 49.0023 33.9552 48.9853 33.8983C48.8994 33.6141 48.7963 33.3377 48.6822 33.0651C48.3202 32.2033 47.8442 31.4142 47.3043 30.6666C47.0086 30.2578 46.6994 29.8606 46.3656 29.4868C46.352 29.4539 46.3291 29.4299 46.3062 29.4059L46.3057 29.4054L46.3054 29.4052C46.2997 29.3991 46.2939 29.3931 46.2883 29.3869C46.2688 29.3652 46.2494 29.3434 46.23 29.3216L46.1339 29.2135L46.1328 29.2124C45.8967 28.9464 45.6609 28.6809 45.4012 28.4382C45.308 28.3514 45.2211 28.257 45.1343 28.1628L45.1342 28.1626L45.1341 28.1625C45.0678 28.0906 45.0015 28.0187 44.9325 27.9502C44.438 27.4583 43.9264 26.9871 43.4024 26.5303C43.3542 26.4882 43.3067 26.4451 43.2593 26.402L43.2591 26.4019C43.1209 26.2763 42.9828 26.1509 42.8258 26.0514C42.7963 26.0322 42.7696 26.0081 42.7428 25.9839C42.7345 25.9764 42.7262 25.9688 42.7178 25.9615C42.7093 25.954 42.7008 25.9467 42.692 25.9397C42.6515 25.906 42.627 25.8671 42.6307 25.8074C42.6417 25.6036 42.6245 25.405 42.573 25.2077C42.4981 24.9274 42.4122 24.6522 42.2429 24.4173C42 24.0786 41.7116 23.8086 41.3055 23.71C40.8981 23.61 40.5325 23.7606 40.3043 24.1292C40.227 24.2525 40.1705 24.3862 40.1349 24.5302C39.973 25.2012 40.1153 25.8061 40.5006 26.3538C40.6797 26.6094 40.9092 26.8041 41.1939 26.9119C41.6196 27.0741 42.0074 27.0248 42.3239 26.6523C42.3713 26.5965 42.3979 26.6206 42.4285 26.6484C42.4308 26.6505 42.4331 26.6526 42.4355 26.6547L42.4383 26.6572L42.4417 26.6601C43.1742 27.2843 43.8834 27.9359 44.5705 28.616C44.8957 28.9378 45.2147 29.2675 45.5239 29.6075C45.5435 29.6296 45.5669 29.6465 45.5877 29.666C45.6208 29.7049 45.6515 29.7438 45.6859 29.7815C46.2969 30.4629 46.8724 31.1754 47.384 31.945C47.9239 32.7562 48.3828 33.6128 48.6896 34.5551C48.9337 35.3052 49.0613 36.0749 49.0405 36.8692C49.027 37.3806 48.9534 37.8841 48.8319 38.3786C48.8231 38.414 48.8156 38.4493 48.8079 38.4852C48.8049 38.4993 48.8019 38.5135 48.7988 38.5279C48.8208 38.5214 48.8307 38.5123 48.8343 38.5006C48.848 38.4636 48.8618 38.4266 48.8756 38.3896C48.9546 38.1775 49.0337 37.9652 49.0932 37.7453C49.3448 36.816 49.3804 35.8737 49.2282 34.9211C49.1914 34.7017 49.1472 34.485 49.0773 34.2747ZM41.8687 25.8684C41.7435 26.0604 41.5693 26.1331 41.3583 26.0734C41.254 26.0436 41.1607 25.993 41.0822 25.9125C40.8576 25.6828 40.7472 25.4076 40.7693 25.0741C40.7767 24.9624 40.7914 24.8612 40.8576 24.7626C41.0061 24.5406 41.2184 24.4628 41.4564 24.5679C41.5877 24.625 41.6932 24.7184 41.7755 24.8417C41.9006 25.0286 41.9742 25.2337 41.9791 25.453C41.9754 25.6114 41.9472 25.7464 41.8687 25.8684Z" fill="url(#paint12_linear_15817_143429)"/>
<path fill-rule="evenodd" clip-rule="evenodd" d="M17.6221 39.6882C17.8405 39.914 18.0123 40.1762 18.1595 40.4578C18.362 40.8459 18.5104 41.256 18.5779 41.696C18.6049 41.8764 18.6147 42.0581 18.5693 42.2372C18.5104 42.4682 18.3718 42.5422 18.1595 42.4579C18.0393 42.4098 17.935 42.3372 17.8405 42.245C17.4393 41.8569 17.1681 41.3793 16.9693 40.8511C16.9571 40.8186 16.9423 40.7875 16.9362 40.7537C16.9006 40.5591 16.7877 40.4176 16.6626 40.2761C16.1374 39.6817 15.6417 39.0613 15.2245 38.3747C14.7129 37.5337 14.3423 36.6317 14.1644 35.6466C14.1239 35.4259 14.0982 35.2027 14.0798 34.9795C14.0637 34.9104 14.058 34.8407 14.0523 34.7708C14.0502 34.7448 14.0481 34.7187 14.0454 34.6926C14.0449 34.6883 14.0448 34.6837 14.0449 34.679C14.045 34.6751 14.0451 34.6712 14.0453 34.6672C14.0464 34.6357 14.0477 34.6014 14 34.5953V34.5434C14.0442 34.6005 14.0626 34.6693 14.0736 34.7407C14.0828 34.8001 14.0941 34.8594 14.1054 34.9188L14.11 34.9434C14.1122 34.955 14.1144 34.9666 14.1166 34.9782C14.2061 35.3818 14.3043 35.7829 14.4429 36.1722C14.6883 36.8601 15.0331 37.4909 15.4368 38.0866C15.8307 38.6668 16.2687 39.2093 16.7276 39.7336C16.7323 39.7386 16.7372 39.7436 16.7426 39.749C16.7526 39.759 16.7644 39.7703 16.7804 39.7855L16.7832 39.7746L16.7888 39.7524C16.7997 39.7093 16.8093 39.6713 16.8221 39.635C16.8957 39.4182 17.0577 39.3391 17.2613 39.4234C17.4012 39.4818 17.5166 39.5792 17.6221 39.6882ZM17.8552 41.6869C17.9706 41.744 18.0454 41.7051 18.0748 41.5753C18.0834 41.5378 18.0871 41.499 18.0907 41.4602L18.0908 41.4598C18.0405 41.0211 17.8761 40.6408 17.5656 40.3371C17.5362 40.3073 17.4994 40.2852 17.4626 40.2683C17.3472 40.2138 17.2613 40.2618 17.2368 40.3929C17.227 40.4474 17.2245 40.5045 17.2319 40.5604C17.2859 40.9744 17.4565 41.3235 17.7436 41.609C17.7755 41.6402 17.8147 41.6674 17.8552 41.6869Z" fill="url(#paint13_linear_15817_143429)"/>
<path fill-rule="evenodd" clip-rule="evenodd" d="M49.2086 26.3408C48.9595 25.8255 48.6528 25.3492 48.3227 24.8898C47.9902 24.4277 47.6233 23.9981 47.2491 23.575C47.2 23.5205 47.1669 23.4608 47.146 23.3881C47.0687 23.1143 46.9595 22.8534 46.8258 22.6042C46.6454 22.2667 46.4295 21.9591 46.1485 21.7074C46.0601 21.6282 45.9632 21.5607 45.8515 21.5283C45.6491 21.4711 45.5387 21.5244 45.4724 21.7372C45.467 21.7551 45.4636 21.7737 45.4603 21.792C45.4591 21.7989 45.4578 21.8057 45.4564 21.8125C45.4172 22.0033 45.438 22.1915 45.4724 22.3784C45.5791 22.9598 45.8074 23.4868 46.1362 23.9657C46.2393 24.1162 46.3571 24.2551 46.4896 24.3784C46.573 24.455 46.6638 24.5225 46.7669 24.5666C46.9816 24.6561 47.1472 24.5718 47.2184 24.3408C47.2191 24.3386 47.2197 24.3364 47.2202 24.3343L47.2208 24.3323C47.2219 24.328 47.2228 24.3236 47.2237 24.3192C47.2247 24.3139 47.2257 24.3086 47.2266 24.3032C47.2318 24.2741 47.237 24.2449 47.2601 24.2214C47.3068 24.2447 47.3337 24.2901 47.3656 24.3265C47.654 24.6613 47.9325 25.0066 48.2012 25.3596C48.5742 25.8476 48.9092 26.3616 49.1951 26.9106C49.4785 27.4544 49.6871 28.0306 49.8282 28.6328C49.8773 28.8444 49.9239 29.056 49.9705 29.2675C49.9705 28.9365 49.919 28.6108 49.8601 28.2876C49.7374 27.6049 49.508 26.9599 49.2086 26.3408ZM46.7865 23.6399C46.7497 23.7385 46.6871 23.771 46.5926 23.7372C46.5497 23.7217 46.5117 23.697 46.4761 23.6672C46.2074 23.4504 45.9497 22.8988 45.9472 22.5082C45.9485 22.4939 45.9485 22.4497 45.9583 22.4082C45.9853 22.294 46.0589 22.2551 46.162 22.2966C46.2123 22.3161 46.2577 22.3472 46.2957 22.3862C46.5779 22.6691 46.7436 23.0182 46.8037 23.4219C46.8147 23.4958 46.8135 23.5698 46.7865 23.6399Z" fill="url(#paint14_linear_15817_143429)"/>
<path fill-rule="evenodd" clip-rule="evenodd" d="M15.0822 30.2085C15.1644 30.4603 15.2601 30.7069 15.3632 30.9509C15.7546 31.8762 16.2761 32.7173 16.8663 33.5116C17.892 34.8925 19.1018 36.0801 20.3534 37.2235C20.6355 37.4815 20.9279 37.7264 21.2202 37.9712L21.2206 37.9716L21.2216 37.9723L21.3006 38.0386C21.3791 38.1035 21.4111 38.1671 21.4074 38.2748C21.3951 38.7823 21.5411 39.2378 21.8356 39.6363C22.0724 39.9568 22.3607 40.2021 22.7497 40.2904C23.1387 40.3774 23.4883 40.2359 23.7141 39.8907C23.7914 39.7725 23.8515 39.6441 23.8871 39.5065C24.0712 38.7887 23.9178 38.1463 23.4822 37.5752C23.2884 37.3208 23.0417 37.1352 22.7411 37.0483C22.3473 36.9328 21.9963 37.0055 21.7129 37.3377C21.7043 37.3468 21.6969 37.3572 21.6884 37.3676C21.665 37.3922 21.6528 37.3909 21.6209 37.3676C21.5524 37.3158 21.4885 37.2586 21.4248 37.2016L21.4246 37.2014L21.4245 37.2013C21.3604 37.1439 21.2965 37.0867 21.2282 37.0353C21.1546 36.98 21.0898 36.9145 21.0252 36.849C20.982 36.8054 20.9389 36.7617 20.8933 36.7212C19.9288 35.862 19.0012 34.9613 18.146 33.9814C17.1374 32.8263 16.2344 31.592 15.6061 30.154C15.5963 30.1254 15.5877 30.0969 15.5755 30.0696C15.4429 29.7438 15.3264 29.4129 15.2344 29.0715C14.9706 28.0994 14.9215 27.1169 15.0957 26.1227C15.1316 25.9201 15.1776 25.7206 15.2237 25.5205L15.2238 25.5202L15.2248 25.5158C15.2383 25.4573 15.2518 25.3988 15.265 25.3401C15.1882 25.5048 15.1294 25.6766 15.0706 25.8482L15.0706 25.8483L15.0705 25.8485C15.0589 25.8824 15.0473 25.9163 15.0356 25.9501C14.7448 26.8015 14.6626 27.6815 14.7411 28.5796C14.7914 29.1377 14.9117 29.6789 15.0822 30.2085ZM22.0736 38.341C22.1252 38.0931 22.2859 37.9244 22.4994 37.9023C22.6577 37.8867 22.8 37.9438 22.919 38.0503C23.146 38.254 23.2613 38.5188 23.2724 38.8186C23.2687 38.964 23.2454 39.0912 23.184 39.2067C23.0712 39.4234 22.8687 39.513 22.6442 39.4481C22.5718 39.4273 22.5068 39.3923 22.4466 39.3468C22.1595 39.1353 21.9988 38.7018 22.0736 38.341Z" fill="url(#paint15_linear_15817_143429)"/>
<path d="M48.9288 24.8898C48.4896 24.0552 48.1018 23.1947 47.7975 22.294C47.7697 22.2128 47.753 22.1284 47.7364 22.0447L47.7313 22.0189L47.7297 22.0122C47.7225 21.9828 47.7147 21.9504 47.7386 21.9202C47.772 21.9191 47.787 21.9428 47.8016 21.9656C47.8047 21.9705 47.8078 21.9753 47.811 21.9799C47.8859 22.0876 47.9485 22.2044 48.0098 22.3213C48.1423 22.5743 48.2601 22.8352 48.3755 23.0974C48.379 23.1056 48.3827 23.1138 48.3864 23.122C48.4042 23.1616 48.4221 23.2015 48.4282 23.2466C48.396 23.187 48.367 23.1254 48.338 23.0636L48.3379 23.0634L48.3378 23.0633C48.2828 22.9463 48.2275 22.8288 48.1497 22.7236C48.1202 22.7524 48.1306 22.7812 48.1391 22.8049L48.1411 22.8106C48.2859 23.2609 48.465 23.697 48.6883 24.111C48.6894 24.113 48.6904 24.115 48.6915 24.117C48.7001 24.1337 48.7092 24.1515 48.7399 24.1539C48.7469 24.091 48.7267 24.0346 48.7066 23.9788C48.6919 23.9377 48.6773 23.8969 48.6736 23.8541C48.6859 23.8566 48.6932 23.8657 48.6969 23.8774C48.7316 23.9747 48.7692 24.071 48.8068 24.1673L48.8069 24.1675C48.8931 24.3883 48.9794 24.6094 49.0307 24.8443C49.033 24.8556 49.0359 24.867 49.0388 24.8786C49.0513 24.9279 49.0644 24.9794 49.0356 25.0351C48.9868 24.9999 48.961 24.9509 48.9366 24.9045L48.9338 24.8992L48.9288 24.8898Z" fill="url(#paint16_linear_15817_143429)"/>
<path d="M48.6736 23.8541L48.6712 23.8541V23.8502C48.6712 23.8514 48.6712 23.8515 48.6721 23.8525C48.6726 23.8519 48.6731 23.8515 48.6736 23.8515L48.6736 23.8541Z" fill="url(#paint17_linear_15817_143429)"/>
<path d="M48.429 23.2564L48.4283 23.2557C48.4278 23.2553 48.4274 23.2549 48.427 23.2544V23.2479C48.427 23.2485 48.4272 23.2494 48.4276 23.2503L48.428 23.2511L48.4285 23.2519L48.4289 23.2524L48.4294 23.2518C48.4307 23.2544 48.4307 23.2557 48.4319 23.2583C48.4307 23.2577 48.4298 23.2571 48.429 23.2564Z" fill="url(#paint18_linear_15817_143429)"/>
<path fill-rule="evenodd" clip-rule="evenodd" d="M15.6258 40.1684C15.4663 39.8141 15.3031 39.461 15.1153 39.1223C15.1113 39.115 15.1073 39.1076 15.1033 39.1002L15.1029 39.0995C15.0756 39.049 15.0477 38.9972 14.9902 38.9679C15.0072 39.255 15.1083 39.5148 15.2093 39.7743L15.2101 39.7762L15.2103 39.7768L15.2336 39.8368C15.2408 39.8556 15.2481 39.8744 15.2552 39.8932C15.2577 39.9062 15.2589 39.9192 15.2626 39.9309C15.3963 40.2826 15.5436 40.6265 15.692 40.9718L15.6935 40.9755C15.699 40.9899 15.7046 41.0044 15.7227 41.0068C15.7502 41.1131 15.7982 41.21 15.8463 41.3073C15.8558 41.3265 15.8653 41.3458 15.8747 41.3652L15.8823 41.3809L15.8883 41.3936C15.9841 41.5987 16.0859 41.8011 16.2086 41.9893C16.2124 41.995 16.216 42.001 16.2197 42.0071C16.2389 42.0388 16.2597 42.073 16.308 42.0763C16.318 41.9333 16.2752 41.8064 16.2332 41.682L16.2209 41.6454C16.054 41.1379 15.8429 40.6512 15.6258 40.1684ZM15.281 39.8283C15.2896 39.8089 15.3043 39.8115 15.319 39.8309C15.3043 39.8128 15.2896 39.8102 15.281 39.8283ZM15.7276 41.0003L15.7165 40.9757C15.5791 40.6711 15.4414 40.3661 15.3399 40.0451C15.3239 39.9958 15.3104 39.9465 15.2982 39.8971C15.292 39.8725 15.2871 39.8452 15.319 39.8335C15.5669 40.2904 15.7681 40.7667 15.9092 41.2729C15.8474 41.2243 15.8129 41.1576 15.7785 41.0914C15.7672 41.0694 15.7558 41.0475 15.7435 41.0263L15.7398 41.0201C15.7384 41.0176 15.7369 41.0151 15.7353 41.0126C15.7328 41.0085 15.7302 41.0044 15.7276 41.0003Z" fill="url(#paint19_linear_15817_143429)"/>
<path d="M48.6245 23.7269L48.625 23.7289C48.6347 23.7711 48.6446 23.8144 48.6712 23.8489C48.6712 23.8021 48.6613 23.7593 48.6245 23.7269Z" fill="url(#paint20_linear_15817_143429)"/>
<path d="M48.6233 23.723C48.6245 23.7243 48.6245 23.7256 48.6245 23.7269L48.6221 23.7243L48.6233 23.723Z" fill="url(#paint21_linear_15817_143429)"/>
<path d="M48.6233 23.723C48.6227 23.723 48.6224 23.7233 48.6221 23.7236C48.6218 23.7239 48.6215 23.7243 48.6208 23.7243V23.7178C48.6221 23.7204 48.6221 23.7217 48.6233 23.723Z" fill="url(#paint22_linear_15817_143429)"/>
<path d="M46.6785 42.6876C46.7006 42.6746 46.7141 42.6564 46.7153 42.6305C46.6847 42.6344 46.6896 42.6668 46.6785 42.6876Z" fill="url(#paint23_linear_15817_143429)"/>
<path d="M48.6221 23.7178C48.6196 23.684 48.6123 23.6503 48.5693 23.6062C48.58 23.6293 48.5888 23.648 48.5964 23.6641L48.6118 23.6962C48.6154 23.7037 48.6188 23.7108 48.6221 23.7178Z" fill="url(#paint24_linear_15817_143429)"/>
<path d="M48.4319 23.257L48.4429 23.2687C48.4442 23.27 48.4417 23.2752 48.4405 23.2778C48.439 23.2731 48.4371 23.2689 48.4353 23.2649C48.4341 23.2622 48.4329 23.2596 48.4319 23.257Z" fill="url(#paint25_linear_15817_143429)"/>
<defs>
<radialGradient id="paint0_radial_15817_143429" cx="0" cy="0" r="1" gradientUnits="userSpaceOnUse" gradientTransform="translate(32 32) rotate(90) scale(32)">
<stop stop-opacity="0"/>
<stop offset="1" stop-color="white"/>
</radialGradient>
<linearGradient id="paint1_linear_15817_143429" x1="32" y1="0" x2="32" y2="64" gradientUnits="userSpaceOnUse">
<stop stop-color="#4B4C4D"/>
<stop offset="1" stop-opacity="0"/>
</linearGradient>
<linearGradient id="paint2_linear_15817_143429" x1="32" y1="14" x2="32" y2="50" gradientUnits="userSpaceOnUse">
<stop stop-color="#0DD8FF"/>
<stop offset="1" stop-color="#0E2BA9"/>
</linearGradient>
<linearGradient id="paint3_linear_15817_143429" x1="32" y1="14" x2="32" y2="50" gradientUnits="userSpaceOnUse">
<stop stop-color="#0DD8FF"/>
<stop offset="1" stop-color="#0E2BA9"/>
</linearGradient>
<linearGradient id="paint4_linear_15817_143429" x1="32" y1="14" x2="32" y2="50" gradientUnits="userSpaceOnUse">
<stop stop-color="#0DD8FF"/>
<stop offset="1" stop-color="#0E2BA9"/>
</linearGradient>
<linearGradient id="paint5_linear_15817_143429" x1="32" y1="14" x2="32" y2="50" gradientUnits="userSpaceOnUse">
<stop stop-color="#0DD8FF"/>
<stop offset="1" stop-color="#0E2BA9"/>
</linearGradient>
<linearGradient id="paint6_linear_15817_143429" x1="32" y1="14" x2="32" y2="50" gradientUnits="userSpaceOnUse">
<stop stop-color="#0DD8FF"/>
<stop offset="1" stop-color="#0E2BA9"/>
</linearGradient>
<linearGradient id="paint7_linear_15817_143429" x1="32" y1="14" x2="32" y2="50" gradientUnits="userSpaceOnUse">
<stop stop-color="#0DD8FF"/>
<stop offset="1" stop-color="#0E2BA9"/>
</linearGradient>
<linearGradient id="paint8_linear_15817_143429" x1="32" y1="14" x2="32" y2="50" gradientUnits="userSpaceOnUse">
<stop stop-color="#0DD8FF"/>
<stop offset="1" stop-color="#0E2BA9"/>
</linearGradient>
<linearGradient id="paint9_linear_15817_143429" x1="32" y1="14" x2="32" y2="50" gradientUnits="userSpaceOnUse">
<stop stop-color="#0DD8FF"/>
<stop offset="1" stop-color="#0E2BA9"/>
</linearGradient>
<linearGradient id="paint10_linear_15817_143429" x1="32" y1="14" x2="32" y2="50" gradientUnits="userSpaceOnUse">
<stop stop-color="#0DD8FF"/>
<stop offset="1" stop-color="#0E2BA9"/>
</linearGradient>
<linearGradient id="paint11_linear_15817_143429" x1="32" y1="14" x2="32" y2="50" gradientUnits="userSpaceOnUse">
<stop stop-color="#0DD8FF"/>
<stop offset="1" stop-color="#0E2BA9"/>
</linearGradient>
<linearGradient id="paint12_linear_15817_143429" x1="32" y1="14" x2="32" y2="50" gradientUnits="userSpaceOnUse">
<stop stop-color="#0DD8FF"/>
<stop offset="1" stop-color="#0E2BA9"/>
</linearGradient>
<linearGradient id="paint13_linear_15817_143429" x1="32" y1="14" x2="32" y2="50" gradientUnits="userSpaceOnUse">
<stop stop-color="#0DD8FF"/>
<stop offset="1" stop-color="#0E2BA9"/>
</linearGradient>
<linearGradient id="paint14_linear_15817_143429" x1="32" y1="14" x2="32" y2="50" gradientUnits="userSpaceOnUse">
<stop stop-color="#0DD8FF"/>
<stop offset="1" stop-color="#0E2BA9"/>
</linearGradient>
<linearGradient id="paint15_linear_15817_143429" x1="32" y1="14" x2="32" y2="50" gradientUnits="userSpaceOnUse">
<stop stop-color="#0DD8FF"/>
<stop offset="1" stop-color="#0E2BA9"/>
</linearGradient>
<linearGradient id="paint16_linear_15817_143429" x1="32" y1="14" x2="32" y2="50" gradientUnits="userSpaceOnUse">
<stop stop-color="#0DD8FF"/>
<stop offset="1" stop-color="#0E2BA9"/>
</linearGradient>
<linearGradient id="paint17_linear_15817_143429" x1="32" y1="14" x2="32" y2="50" gradientUnits="userSpaceOnUse">
<stop stop-color="#0DD8FF"/>
<stop offset="1" stop-color="#0E2BA9"/>
</linearGradient>
<linearGradient id="paint18_linear_15817_143429" x1="32" y1="14" x2="32" y2="50" gradientUnits="userSpaceOnUse">
<stop stop-color="#0DD8FF"/>
<stop offset="1" stop-color="#0E2BA9"/>
</linearGradient>
<linearGradient id="paint19_linear_15817_143429" x1="32" y1="14" x2="32" y2="50" gradientUnits="userSpaceOnUse">
<stop stop-color="#0DD8FF"/>
<stop offset="1" stop-color="#0E2BA9"/>
</linearGradient>
<linearGradient id="paint20_linear_15817_143429" x1="32" y1="14" x2="32" y2="50" gradientUnits="userSpaceOnUse">
<stop stop-color="#0DD8FF"/>
<stop offset="1" stop-color="#0E2BA9"/>
</linearGradient>
<linearGradient id="paint21_linear_15817_143429" x1="32" y1="14" x2="32" y2="50" gradientUnits="userSpaceOnUse">
<stop stop-color="#0DD8FF"/>
<stop offset="1" stop-color="#0E2BA9"/>
</linearGradient>
<linearGradient id="paint22_linear_15817_143429" x1="32" y1="14" x2="32" y2="50" gradientUnits="userSpaceOnUse">
<stop stop-color="#0DD8FF"/>
<stop offset="1" stop-color="#0E2BA9"/>
</linearGradient>
<linearGradient id="paint23_linear_15817_143429" x1="32" y1="14" x2="32" y2="50" gradientUnits="userSpaceOnUse">
<stop stop-color="#0DD8FF"/>
<stop offset="1" stop-color="#0E2BA9"/>
</linearGradient>
<linearGradient id="paint24_linear_15817_143429" x1="32" y1="14" x2="32" y2="50" gradientUnits="userSpaceOnUse">
<stop stop-color="#0DD8FF"/>
<stop offset="1" stop-color="#0E2BA9"/>
</linearGradient>
<linearGradient id="paint25_linear_15817_143429" x1="32" y1="14" x2="32" y2="50" gradientUnits="userSpaceOnUse">
<stop stop-color="#0DD8FF"/>
<stop offset="1" stop-color="#0E2BA9"/>
</linearGradient>
</defs>
</svg>
