<svg width="64" height="64" viewBox="0 0 64 64" fill="none" xmlns="http://www.w3.org/2000/svg">
<g filter="url(#filter0_bii)">
<circle cx="32" cy="32" r="32" fill="black" fill-opacity="0.05"/>
</g>
<path d="M32.002 48C40.8385 48 48.002 40.8366 48.002 32C48.002 23.1634 40.8385 16 32.002 16C23.1654 16 16.002 23.1634 16.002 32C16.002 40.8366 23.1654 48 32.002 48Z" fill="white"/>
<circle cx="32.002" cy="32.125" r="13.375" fill="#558CC6"/>
<circle cx="32.002" cy="32.125" r="11.875" fill="url(#paint0_linear)"/>
<path fill-rule="evenodd" clip-rule="evenodd" d="M18.6289 32.3372C21.4543 39.9566 28.5235 40.2374 32.0023 37.5C35.0523 35.1 33.4814 32.5833 32.3148 31.625L41.3773 34.625V41.6644C38.9637 44.0367 35.6539 45.5 32.0023 45.5C24.6863 45.5 18.7423 39.6261 18.6289 32.3372Z" fill="#172040"/>
<path fill-rule="evenodd" clip-rule="evenodd" d="M25.1681 43.6248C34.9145 46.4405 38.8407 37.3888 37.0645 35C36.8645 36 35.6478 36.9167 35.0645 37.25C36.3145 33.8125 32.5645 30.9375 28.627 31C25.477 31.05 25.7728 32.3125 26.3145 32.9375C23.9145 32.8375 22.9395 31.4375 22.752 30.75C24.6061 29.625 28.377 27.375 28.627 27.375C28.877 27.375 34.9811 27.9167 38.002 28.1875L44.127 36.5625L43.7125 38.5918C41.433 42.711 37.0432 45.5 32.002 45.5C29.5051 45.5 27.1681 44.8158 25.1681 43.6248Z" fill="#26316D"/>
<path d="M32.1895 26.1875C37.4395 23.7875 38.3353 19.2292 38.127 17.25L37.1895 19.25L34.502 22.375L31.3145 23.3125C31.1145 24.6125 30.4395 25.5625 28.252 26L32.1895 26.1875Z" fill="#172040"/>
<path d="M34.002 26.875C39.502 27.025 43.1686 28.2708 44.3145 28.875L42.877 27.625L40.377 26L36.377 24.5625L34.002 26.875Z" fill="#172040"/>
<path d="M32.9395 30.875C28.8395 28.975 24.5645 30.2083 22.9395 31.0625C24.4811 29.7917 28.1145 27.5 30.3145 28.5C32.5145 29.5 32.9811 30.5 32.9395 30.875Z" fill="#172040"/>
<path d="M40.877 41.375C42.677 33.375 36.377 28.5 31.5645 28.6875L29.6895 27.375H32.752L37.8145 28.1875L42.0645 31.75L42.877 38.375L40.877 41.375Z" fill="#172040"/>
<path fill-rule="evenodd" clip-rule="evenodd" d="M22.2522 31.7503C23.3147 30.917 26.0147 29.2503 28.3147 29.2503C30.6147 29.2503 32.3564 29.6253 32.9397 29.8128C32.7939 29.3753 32.1522 28.3628 30.7522 27.8128C37.0647 27.25 44.6897 34.5622 39.6897 43.5625L43.1897 42.625L45.0647 36.1875C44.6147 29.0875 39.0022 26.4375 36.2522 26C38.2522 26.1 40.3355 26.9167 41.1272 27.3125L40.7522 26.5C41.6522 26.85 43.5022 28.2292 44.3147 28.875C40.8772 25 36.8355 23.9167 35.1272 24.0625C33.8272 25.1125 32.5438 25.5833 32.0647 25.6875C32.9647 25.0375 33.148 24.1667 33.1272 23.8125C35.4772 22.9625 36.6897 21.375 37.0022 20.6875L36.1897 20.875C37.3897 19.675 37.9813 17.875 38.1272 17.125C37.2272 19.575 34.5438 21.6458 33.3147 22.375C33.4147 21.425 32.9813 20.9792 32.7522 20.875C32.2022 21.975 30.9813 22.6667 30.4397 22.875C28.1272 23.75 27.2522 24.375 27.1272 25.1875C27.0272 25.8375 27.7522 26.3333 28.1272 26.5C27.6772 26.55 27.273 26.3958 27.1272 26.3125C26.9441 26.3125 26.6736 26.5313 26.3475 26.795C25.8943 27.1615 25.3338 27.6148 24.7522 27.6875C23.9522 27.7875 24.0439 26.8125 24.1897 26.3125C21.6897 27.7125 21.8564 30.5211 22.2522 31.7503ZM28.6898 25.8125C28.6064 25.5417 28.7648 24.9 30.0648 24.5C31.3648 24.1 31.8564 23.6667 31.9398 23.5C31.8356 24.1458 31.2898 25.5125 29.9398 25.8125C29.5231 25.9046 28.6898 26.0336 28.6898 25.8125Z" fill="white"/>
<defs>
<filter id="filter0_bii" x="-20" y="-20" width="104" height="104" filterUnits="userSpaceOnUse" color-interpolation-filters="sRGB">
<feFlood flood-opacity="0" result="BackgroundImageFix"/>
<feGaussianBlur in="BackgroundImage" stdDeviation="10"/>
<feComposite in2="SourceAlpha" operator="in" result="effect1_backgroundBlur"/>
<feBlend mode="normal" in="SourceGraphic" in2="effect1_backgroundBlur" result="shape"/>
<feColorMatrix in="SourceAlpha" type="matrix" values="0 0 0 0 0 0 0 0 0 0 0 0 0 0 0 0 0 0 127 0" result="hardAlpha"/>
<feOffset/>
<feGaussianBlur stdDeviation="10"/>
<feComposite in2="hardAlpha" operator="arithmetic" k2="-1" k3="1"/>
<feColorMatrix type="matrix" values="0 0 0 0 0.850284 0 0 0 0 0.850284 0 0 0 0 0.850284 0 0 0 0.1 0"/>
<feBlend mode="normal" in2="shape" result="effect2_innerShadow"/>
<feColorMatrix in="SourceAlpha" type="matrix" values="0 0 0 0 0 0 0 0 0 0 0 0 0 0 0 0 0 0 127 0" result="hardAlpha"/>
<feOffset dy="0.333333"/>
<feGaussianBlur stdDeviation="0.166667"/>
<feComposite in2="hardAlpha" operator="arithmetic" k2="-1" k3="1"/>
<feColorMatrix type="matrix" values="0 0 0 0 0.829451 0 0 0 0 0.829451 0 0 0 0 0.829451 0 0 0 0.3 0"/>
<feBlend mode="normal" in2="effect2_innerShadow" result="effect3_innerShadow"/>
</filter>
<linearGradient id="paint0_linear" x1="25.752" y1="23" x2="32.002" y2="28.875" gradientUnits="userSpaceOnUse">
<stop stop-color="white" stop-opacity="0.3"/>
<stop offset="1" stop-color="white" stop-opacity="0"/>
</linearGradient>
</defs>
</svg>
