<svg width="64" height="64" viewBox="0 0 64 64" fill="none" xmlns="http://www.w3.org/2000/svg">
<circle cx="32" cy="32" r="31.75" fill="url(#paint0_radial_17220_193552)" fill-opacity="0.05" stroke="url(#paint1_linear_17220_193552)" stroke-width="0.5"/>
<path fill-rule="evenodd" clip-rule="evenodd" d="M46.7273 32C46.7273 40.1336 40.1336 46.7273 32 46.7273C28.0714 46.7273 24.5021 45.189 21.8615 42.682H25.8464V35.8391H28.4892L33.0705 42.682H39.5118L34.4714 35.2942C34.6756 35.223 34.8744 35.1448 35.068 35.0597C36.2557 34.54 37.1768 33.7707 37.8314 32.7517C38.4928 31.7327 38.8234 30.4809 38.8234 28.9962C38.8234 27.5251 38.5029 26.2631 37.8618 25.2104C37.2207 24.1576 36.3232 23.3512 35.1692 22.7911C34.0152 22.231 32.6689 21.9509 31.1303 21.9509H21.2339C23.9219 19.0723 27.7508 17.2727 32 17.2727C40.1336 17.2727 46.7273 23.8664 46.7273 32ZM20.2183 23.1621C18.3687 25.6238 17.2727 28.6839 17.2727 32C17.2727 35.3161 18.3687 38.3762 20.2183 40.8379V23.1621ZM25.8464 31.4661H29.7941C30.4554 31.4661 31.0189 31.3852 31.4846 31.2232C31.9569 31.0545 32.318 30.7879 32.5677 30.4235C32.8241 30.0591 32.9523 29.5833 32.9523 28.9962C32.9523 28.4024 32.8241 27.9198 32.5677 27.5487C32.318 27.1708 31.9569 26.8941 31.4846 26.7186C31.0189 26.5364 30.4554 26.4453 29.7941 26.4453H25.8464V31.4661ZM50 32C50 41.9411 41.9411 50 32 50C22.0589 50 14 41.9411 14 32C14 22.0589 22.0589 14 32 14C41.9411 14 50 22.0589 50 32Z" fill="#C2281B"/>
<defs>
<radialGradient id="paint0_radial_17220_193552" cx="0" cy="0" r="1" gradientUnits="userSpaceOnUse" gradientTransform="translate(32 32) rotate(90) scale(32)">
<stop stop-opacity="0"/>
<stop offset="1" stop-color="white"/>
</radialGradient>
<linearGradient id="paint1_linear_17220_193552" x1="32" y1="0" x2="32" y2="64" gradientUnits="userSpaceOnUse">
<stop stop-color="#4B4C4D"/>
<stop offset="1" stop-opacity="0"/>
</linearGradient>
</defs>
</svg>
