<svg id="组_57137" data-name="组 57137" xmlns="http://www.w3.org/2000/svg" width="16" height="6.098" viewBox="0 0 16 6.098">
  <defs>
    <style>
      .cls-1 {
        fill: #5a636c;
      }
    </style>
  </defs>
  <g id="组_57132" data-name="组 57132" transform="translate(9)">
    <path id="路径_32858" data-name="路径 32858" class="cls-1" d="M63.67,509.243H57.108c-.121,0-.219-.147-.219-.328s.1-.328.219-.328H63.67c.121,0,.219.147.219.328s-.1.328-.219.328Z" transform="translate(-56.889 -505.9)"/>
    <path id="路径_32859" data-name="路径 32859" class="cls-1" d="M691.3,287.459a.327.327,0,0,1-.233-.1l-2.555-2.585a.328.328,0,0,1,.466-.462l2.555,2.585a.328.328,0,0,1-.233.559Z" transform="translate(-684.629 -284.219)"/>
    <path id="路径_32860" data-name="路径 32860" class="cls-1" d="M686.182,512.236a.328.328,0,0,1-.231-.561l2.585-2.555a.328.328,0,1,1,.462.466l-2.585,2.555A.328.328,0,0,1,686.182,512.236Z" transform="translate(-682.099 -506.236)"/>
  </g>
  <g id="组_57133" data-name="组 57133" transform="translate(7 6.098) rotate(180)">
    <path id="路径_32858-2" data-name="路径 32858" class="cls-1" d="M6.781.656H.219C.1.656,0,.51,0,.328S.1,0,.219,0H6.781C6.9,0,7,.147,7,.328s-.1.328-.219.328Z" transform="translate(0 2.687)"/>
    <path id="路径_32859-2" data-name="路径 32859" class="cls-1" d="M2.882,3.24a.327.327,0,0,1-.233-.1L.094.558A.328.328,0,0,1,.56.1L3.115,2.681a.328.328,0,0,1-.233.559Z" transform="translate(3.785)"/>
    <path id="路径_32860-2" data-name="路径 32860" class="cls-1" d="M.327,3.211A.328.328,0,0,1,.1,2.649L2.681.094A.328.328,0,1,1,3.143.56L.558,3.115A.328.328,0,0,1,.327,3.211Z" transform="translate(3.756 2.789)"/>
  </g>
</svg>
