<svg xmlns="http://www.w3.org/2000/svg" width="5.908" height="5.82" viewBox="0 0 5.908 5.82"><defs><style>.a{fill:#939ca5;}</style></defs><path class="a" d="M215.04,221.5l2.879,2.879a.106.106,0,0,0,.15,0l.3-.3a.106.106,0,0,0,0-.15l-2.113-2.113h3.106a.106.106,0,0,0,.106-.106v-.423a.106.106,0,0,0-.106-.106h-3.106l2.113-2.113a.106.106,0,0,0,0-.15l-.3-.3a.106.106,0,0,0-.15,0Zm5.061-.212a.106.106,0,0,1,.106-.106h.635a.106.106,0,0,1,.106.106v.423a.106.106,0,0,1-.106.106h-.635a.106.106,0,0,1-.106-.106Z" transform="translate(220.948 224.415) rotate(180)"/></svg>