<svg xmlns="http://www.w3.org/2000/svg" width="12.196" height="12.015" viewBox="0 0 12.196 12.015"><defs><style>.a{fill:#939ca5;}</style></defs><path class="a" d="M0,6.008l5.943,5.944a.218.218,0,0,0,.309,0l.618-.618a.218.218,0,0,0,0-.309L2.508,6.663H8.919a.218.218,0,0,0,.218-.218V5.571a.218.218,0,0,0-.218-.218H2.508L6.87.991a.218.218,0,0,0,0-.309L6.252.064a.218.218,0,0,0-.309,0Zm10.448-.437a.218.218,0,0,1,.218-.218h1.31a.218.218,0,0,1,.218.218v.874a.218.218,0,0,1-.218.218h-1.31a.218.218,0,0,1-.218-.218Z" transform="translate(12.196 12.015) rotate(180)"/></svg>