<svg width="64" height="64" viewBox="0 0 64 64" fill="none" xmlns="http://www.w3.org/2000/svg">
<circle cx="32" cy="32" r="31.75" fill="url(#paint0_radial)" fill-opacity="0.05" stroke="url(#paint1_linear)" stroke-width="0.5"/>
<path d="M32 48C40.8366 48 48 40.8366 48 32C48 23.1634 40.8366 16 32 16C23.1634 16 16 23.1634 16 32C16 40.8366 23.1634 48 32 48Z" fill="#FFFFE9"/>
<path d="M38.6594 25.541C38.6594 25.541 39.5553 23.3165 39.4394 22.8068C39.3313 22.3125 39.3236 22.158 38.5126 21.5556C38.1882 21.7023 37.609 21.9109 37.1378 21.8182C36.4427 21.6869 36.0874 21.4474 35.7553 21.1539C35.4232 20.8604 35.2455 20.4279 35.2146 20.1731C35.2069 20.1113 35.2764 20.0649 35.3305 20.1035C35.6162 20.3121 35.848 20.6905 36.6589 20.9609C37.1224 21.1153 37.5008 21.069 37.7325 20.9918C36.7053 20.2812 35.2146 19.308 34.3264 19.0145C33.191 18.6438 32.6813 19.3698 32.6813 19.3698L31.6154 21.0535C31.6154 21.0535 33.4073 21.3161 35.2378 22.3434C37.0606 23.3629 38.6594 25.541 38.6594 25.541Z" fill="#3800D6"/>
<path d="M41.517 28.0666C41.293 28.0975 40.9531 28.0975 40.4975 27.9816C38.7133 27.4796 37.6166 24.537 34.5271 22.6833C29.5917 20.1345 26.9425 22.4361 26.9425 22.4361C26.6027 22.6678 26.9503 22.8146 26.9503 22.8146L28.5722 23.6333L29.3369 24.0349C29.3369 24.0349 28.8503 24.6605 27.8616 24.1816C27.5373 24.0426 26.8885 24.004 26.3864 24.452C25.8381 24.7532 26.0775 25.626 25.6759 26.1821C25.282 26.7382 24.4941 26.6455 24.4092 27.4487C24.3397 28.2675 24.9885 28.4219 25.0039 29.0321C25.0194 29.6422 24.7954 29.9898 24.7336 30.152C24.7104 30.2215 24.695 30.3064 24.695 30.3914C24.7027 30.5073 24.7568 30.6231 24.834 30.7158C24.8958 30.7853 24.9499 30.8317 25.0116 30.8703C25.2742 31.0479 25.4982 31.2796 25.645 31.5577C25.6681 31.604 25.6913 31.6504 25.7222 31.6967C25.7454 31.7354 25.7686 31.7817 25.7995 31.8357C25.9694 32.137 26.0389 32.4922 25.9771 32.8398C25.9616 32.9325 25.9694 33.0406 26.0002 33.1411C26.0621 33.3264 26.2242 33.4654 26.4173 33.5195C26.7031 33.589 26.9503 33.7589 27.1202 33.9983C27.1356 34.0138 27.1433 34.037 27.1588 34.0524C27.3905 34.3768 27.3442 34.8865 27.4368 35.2573C27.5295 35.628 27.8384 35.7439 28.2864 35.9988C28.7344 36.2536 28.8271 36.6552 28.6417 36.8484C28.4564 37.0415 27.3596 36.5703 26.9193 37.0955C26.595 37.3967 26.734 37.5898 26.5718 38.1613C26.4096 38.7406 25.9153 38.3158 25.6527 38.7174C25.3901 39.1191 25.3515 39.5516 25.4828 40.409C25.6141 41.2662 26.4482 42.448 26.4482 42.448C26.4482 42.448 26.0002 40.8878 26.9734 39.5516C27.7999 38.5784 28.4332 38.4472 29.3677 38.4317C30.31 38.4085 31.7003 39.2581 31.986 40.9264C32.1328 42.0309 31.5304 42.6719 31.484 42.7338C31.3759 42.8573 30.4877 43.8382 29.306 43.1817C28.9816 42.9577 28.6958 42.726 28.5027 42.2781C28.3637 41.8687 28.325 41.3203 28.5568 40.9496C28.7499 40.6406 29.0588 40.548 29.1515 40.5402C29.2905 40.5248 29.5917 40.5325 29.7848 40.6792C29.9779 40.826 30.1864 41.0422 30.1478 41.413C30.1092 41.7837 29.7231 41.8918 29.5763 41.861C29.4527 41.8378 29.5376 41.8532 29.5686 41.861C29.3291 41.8455 29.221 41.6602 29.1746 41.5288C29.167 41.498 29.1206 41.5057 29.1129 41.5366C29.0434 42.0463 29.4296 42.3708 29.6612 42.4248C29.9161 42.4788 30.2946 42.4712 30.6035 42.1545C30.8738 41.8842 31.0206 41.6524 31.0206 41.0577C31.0206 40.5711 30.8198 40.2313 30.4877 39.9378C30.0552 39.5362 29.4836 39.3817 29.0897 39.4126C28.719 39.4435 28.0702 39.598 27.6454 40.2699C27.2515 40.8878 27.0816 41.7374 27.4137 42.6874L27.4291 42.7183C28.186 44.487 29.9547 44.935 31.1751 44.935C31.4223 44.935 31.6462 44.9195 31.8316 44.8886C31.8702 44.8809 32.743 44.7496 33.5926 44.2244C34.643 43.5293 35.2686 42.5252 35.2686 40.9727C35.2686 38.9105 34.3649 37.5357 32.5113 35.3886C32.156 34.9484 30.7117 33.1642 30.4491 32.8166C29.1592 31.1484 27.7149 29.1866 28.4332 27.6959C28.4564 27.6495 28.4795 27.6109 28.5027 27.5646C29.5763 25.5951 32.604 26.0817 31.9397 26.2052C30.7889 26.3983 30.1015 26.9081 29.893 27.132C29.6844 27.356 29.5686 27.5491 29.4296 27.9121C29.1901 28.5069 29.3832 29.426 29.893 30.2292C32.1096 33.3727 35.3844 37.2886 35.786 38.2309C36.3035 39.4203 36.3808 40.3626 36.373 40.9419C36.3654 41.5212 36.2263 42.448 36.2263 42.448C36.2263 42.448 36.991 41.8378 37.354 41.0963C37.717 40.3549 37.7787 39.9996 37.6706 39.7215C37.5547 39.4435 37.269 39.4358 37.1531 38.9801C37.0373 38.5244 37.3616 38.1228 37.0218 37.3967C36.8751 37.0801 36.095 36.6166 35.6934 36.1069C35.2918 35.5971 34.558 34.6858 34.0096 33.952C33.021 32.639 32.6966 32.191 32.1251 31.4495C32.743 31.6349 33.5153 31.8898 35.2918 31.0634C36.9369 31.9053 38.0645 31.8589 38.4584 31.8357C38.8523 31.8125 39.2231 31.6349 39.5088 31.4109C39.6942 31.2642 39.8332 30.9707 39.9182 30.7776C39.9491 30.7081 39.8796 30.6463 39.81 30.6694C38.4275 31.241 37.1531 30.7776 35.5853 29.9048L35.3072 29.7503L35.0292 29.8971C33.384 30.7776 31.6539 30.0902 31.4994 30.0284C31.4377 29.9975 30.9665 29.7503 30.758 29.3333C30.5495 28.9162 30.5031 28.476 30.6576 28.1052C30.7812 27.804 31.0747 27.6032 31.5535 27.5028C31.9474 27.4564 32.4572 27.6032 32.8665 27.7654C32.9592 27.804 33.0442 27.7114 33.0056 27.6264C32.9592 27.5028 32.9283 27.3715 32.9283 27.2324C32.9283 27.0008 33.0056 26.7922 33.1291 26.6223L33.6775 26.8772C33.5848 26.9699 33.5307 27.1089 33.5462 27.2634C33.5694 27.4642 33.7393 27.6341 33.9401 27.6573C34.2104 27.6959 34.4344 27.495 34.4576 27.2402L34.9751 27.4796C34.8824 27.8581 34.5889 28.1516 34.2104 28.2443C34.1332 28.2597 34.1255 28.3601 34.2027 28.3833C34.9056 28.7154 36.96 29.6732 36.96 29.6732C36.96 29.6732 38.1495 30.3373 39.1922 30.2061C40.1962 30.152 40.6442 29.3565 40.0495 29.4337C39.4548 29.5109 38.0491 28.9007 38.0491 28.9007L37.1068 28.4605L37.5007 27.8504C37.5007 27.8504 38.8446 28.615 40.034 28.8776C40.8219 29.0475 41.3548 28.5996 41.6251 28.2751C41.7101 28.1902 41.6328 28.0512 41.517 28.0666ZM30.5186 25.3865C30.0166 25.4483 29.2519 25.68 28.8194 25.8886C28.6572 25.9658 28.5181 26.043 28.4023 26.1126C28.0239 26.3597 27.684 26.7304 27.4137 27.2402C26.3556 29.2947 28.2942 31.8125 29.8543 33.8362C30.1169 34.176 30.3563 34.4927 30.5727 34.7862C30.9048 35.2419 31.2678 35.6898 31.623 36.1146C32.5344 37.2346 33.5385 38.424 33.971 39.7447C34.0869 40.2081 34.1023 40.6406 34.0482 40.9882C33.8629 42.0695 32.9206 42.4403 32.9206 42.4403C33.0596 41.9923 33.1369 41.413 33.0519 40.7488V40.7333C32.7661 39.1809 31.5072 37.8061 31.5072 37.8061C31.2059 37.4045 30.8816 36.9874 30.619 36.6476C27.9698 33.2414 27.7072 32.8552 27.0816 31.7199L27.0738 31.7044C27.0584 31.6735 27.0352 31.6349 27.012 31.5963C26.649 30.9861 25.6759 29.3565 26.1007 27.6495C26.2011 27.2556 26.3787 26.9004 26.6336 26.5914C28.186 24.5756 31.1596 25.263 30.5186 25.3865Z" fill="#3800D6"/>
<defs>
<radialGradient id="paint0_radial" cx="0" cy="0" r="1" gradientUnits="userSpaceOnUse" gradientTransform="translate(32 32) rotate(90) scale(32)">
<stop stop-opacity="0"/>
<stop offset="1" stop-color="white"/>
</radialGradient>
<linearGradient id="paint1_linear" x1="32" y1="0" x2="32" y2="64" gradientUnits="userSpaceOnUse">
<stop stop-color="#4B4C4D"/>
<stop offset="1" stop-opacity="0"/>
</linearGradient>
</defs>
</svg>
