<svg width="64" height="64" viewBox="0 0 64 64" fill="none" xmlns="http://www.w3.org/2000/svg">
<circle cx="32" cy="32" r="31.75" fill="url(#paint0_radial)" fill-opacity="0.05" stroke="url(#paint1_linear)" stroke-width="0.5"/>
<path d="M19.3879 43.5086C20.3581 37.7074 22.1044 32.2806 24.6267 27.0409C25.2088 25.9181 25.2088 24.7953 24.8208 23.6725L22.6864 17.6842C22.4924 16.9357 22.8805 16.1871 23.4626 16C23.6566 16 23.6566 16 23.8506 16H33.3581C34.1342 16 34.7163 16.5614 34.7163 17.3099C34.7163 17.4971 34.7163 17.6842 34.7163 17.6842L32.582 23.6725C32.1939 24.7953 32.1939 26.1052 32.776 27.0409C35.2984 32.2806 37.2387 37.8946 38.0148 43.5086C38.4029 45.567 36.8506 47.4384 34.7163 47.8126C34.5223 47.8126 34.3282 47.8126 34.1342 47.8126H22.8805C20.7461 47.8126 19.3879 45.567 19.3879 43.5086C19.776 43.3214 19.3879 43.6957 19.3879 43.5086Z" fill="white"/>
<path d="M38.4033 43.5086C37.4332 37.7074 35.6869 32.2806 33.1645 27.0409C32.5824 25.9181 32.5824 24.7953 32.9705 23.6725L35.1048 17.6842C35.2989 16.9357 34.9108 16.1871 34.3287 16C34.1347 16 34.1347 16 33.9407 16H29.2839V47.8145H34.7365C36.8709 47.8145 38.7914 46.3156 38.7914 44.2571C38.5974 43.8828 38.4033 43.6957 38.4033 43.5086Z" fill="#D0D1D3"/>
<path d="M40.3425 48H36.6559C35.2977 48 34.1335 46.69 33.5514 44.8187L31.8052 39.0176H44.9992L43.2529 44.8187C42.6708 46.69 41.5067 48 40.3425 48Z" fill="#D72449"/>
<path d="M38.4028 39.0175V48H40.1491C41.5073 48 42.6715 46.69 43.2536 44.8187L44.9998 39.0176L38.4028 39.0175Z" fill="#A11D38"/>
<defs>
<radialGradient id="paint0_radial" cx="0" cy="0" r="1" gradientUnits="userSpaceOnUse" gradientTransform="translate(32 32) rotate(90) scale(32)">
<stop stop-opacity="0"/>
<stop offset="1" stop-color="white"/>
</radialGradient>
<linearGradient id="paint1_linear" x1="32" y1="0" x2="32" y2="64" gradientUnits="userSpaceOnUse">
<stop stop-color="#4B4C4D"/>
<stop offset="1" stop-opacity="0"/>
</linearGradient>
</defs>
</svg>
