<svg width="64" height="64" viewBox="0 0 64 64" fill="none" xmlns="http://www.w3.org/2000/svg">
<circle cx="32" cy="32" r="31.75" fill="url(#paint0_radial_15817_143438)" fill-opacity="0.05" stroke="url(#paint1_linear_15817_143438)" stroke-width="0.5"/>
<path d="M50 32.0049C50 36.6694 48.2263 40.9196 45.3173 44.117C44.8933 43.8879 44.4256 43.7368 43.9821 43.5808C42.8565 43.1812 41.7309 42.762 40.5809 42.4208C40.3665 42.3574 40.3763 42.3136 40.4396 42.0991C40.6102 41.5288 40.9464 41.0366 41.1121 40.4663C41.2729 39.9009 41.5068 39.3501 41.765 38.8237C42.3059 37.7368 42.7347 36.5914 43.0758 35.4411C43.3438 34.5345 43.758 33.6523 43.7336 32.6385C43.719 31.9756 43.909 31.2981 43.9139 30.6158C43.9139 30.3233 43.7531 30.0845 43.7677 29.7872C43.8067 29.0463 43.6654 28.3201 43.451 27.6133C43.1538 26.619 42.8809 25.6198 42.4765 24.6499C42.1256 23.8115 41.6871 23.0219 41.1949 22.2908C40.6833 21.5353 40.1619 20.7555 39.47 20.1267C38.9437 19.6442 38.4808 19.069 37.8912 18.6889C36.9995 18.1137 36.1077 17.5093 35.104 17.0999C34.4315 16.827 33.7201 16.6807 33.0379 16.6125C32.0975 16.5248 31.1326 16.5199 30.163 16.6905C29.2761 16.8416 28.477 17.173 27.6876 17.5337C26.2891 18.1722 25.1684 19.1909 24.1792 20.3509C23.7017 20.9115 23.2777 21.511 22.8636 22.1251C22.3324 22.905 21.8646 23.7287 21.47 24.5719C20.9534 25.6832 20.5636 26.8481 20.3443 28.0666C20.2128 28.8026 20.091 29.5386 20.0763 30.2794C20.052 31.3274 20.0763 32.3656 20.2713 33.4037C20.3882 34.013 20.5051 34.6223 20.6465 35.2266C20.895 36.2843 21.3043 37.2884 21.738 38.2827C21.9329 38.7311 22.0206 39.2088 22.2301 39.6426C22.6248 40.4468 22.9172 41.29 23.2534 42.1186C23.3167 42.2746 23.3021 42.3867 23.0877 42.4208C22.4591 42.5232 21.9231 42.8838 21.3092 43.0349C20.5051 43.2299 19.7596 43.5857 18.9848 43.8733C18.8533 43.922 18.7266 43.9708 18.595 44.0146C15.7347 40.8318 14 36.6206 14 32.0049C14 22.0617 22.0596 14 32 14C41.9404 14 50 22.0617 50 32.0049Z" fill="#7EC9CD"/>
<path d="M43.9821 43.5858C42.8565 43.1861 41.7309 42.7669 40.581 42.4257C40.3666 42.3624 40.3763 42.3185 40.4396 42.1041C40.6102 41.5338 40.9464 41.0415 41.1121 40.4712C41.2729 39.9058 41.5068 39.3551 41.765 38.8287C42.3059 37.7417 42.7347 36.5963 43.0758 35.4461C43.3438 34.5395 43.758 33.6573 43.7336 32.6435C43.719 31.9806 43.9091 31.3031 43.9139 30.6207C43.9139 30.3283 43.7531 30.0894 43.7677 29.7921C43.8067 29.0513 43.6654 28.325 43.451 27.6183C43.1538 26.624 42.8809 25.6248 42.4765 24.6548C42.1256 23.8165 41.6871 23.0269 41.1949 22.2958C40.6833 21.5403 40.1619 20.7604 39.47 20.1317C38.9437 19.6491 38.4808 19.074 37.8912 18.6938C36.9995 18.1138 36.1078 17.5094 35.104 17.1C34.4315 16.827 33.7201 16.6808 33.0379 16.6126C32.0975 16.5249 31.1327 16.52 30.163 16.6906C29.2761 16.8417 28.477 17.1731 27.6876 17.5338C26.2891 18.1723 25.1684 19.191 24.1792 20.351C23.7017 20.9115 23.2778 21.511 22.8636 22.1252C22.3324 22.905 21.8647 23.7288 21.47 24.572C20.9535 25.6833 20.5636 26.8482 20.3444 28.0667C20.2128 28.8027 20.091 29.5387 20.0764 30.2795C20.052 31.3275 20.0764 32.3656 20.2713 33.4038C20.3882 34.0131 20.5052 34.6223 20.6465 35.2267C20.895 36.2844 21.3043 37.2885 21.738 38.2828C21.9329 38.7312 22.0206 39.2088 22.2301 39.6426C22.6248 40.4469 22.9172 41.2901 23.2534 42.1187C23.3167 42.2746 23.3021 42.3868 23.0877 42.4209C22.4591 42.5232 21.9231 42.8839 21.3092 43.035C20.5052 43.23 19.7596 43.5858 18.9849 43.8733C18.8533 43.9221 18.7266 43.966 18.595 44.0098C21.889 47.6898 26.6741 50.0001 32 50.0001C37.2772 50.0001 42.0233 47.7288 45.3173 44.1073C44.8934 43.888 44.4256 43.7369 43.9821 43.5858ZM38.1592 36.0602C37.4283 38.6922 36.5024 41.2608 35.2794 43.7028C34.68 44.8969 34.0612 46.0862 33.2085 47.1292C33.0038 47.3827 32.7797 47.6166 32.4922 47.7775C32.0585 48.0163 31.7418 48.0163 31.3471 47.6946C31.0742 47.4753 30.8208 47.2267 30.6161 46.9343C29.0228 44.6435 27.8825 42.1284 26.947 39.5062C26.4012 37.9806 26.0504 36.3868 25.4315 34.8904C24.9589 33.745 24.1402 32.9067 23.0195 32.3851C22.3568 32.0781 21.7331 31.7466 21.4651 31.0009C21.3969 30.8157 21.3725 30.6353 21.3774 30.4452C21.5869 28.7247 22.5225 27.3405 24.2816 27.0578C25.0856 26.9262 25.412 26.5703 25.4315 25.7612C25.4705 23.8896 25.987 22.1642 27.0834 20.6337C28.1603 19.1374 29.5441 18.0699 31.3812 17.6654C31.6979 17.5972 32.0098 17.5874 32.3314 17.7141C33.3303 18.1138 34.3828 18.3673 35.3037 18.9814C36.6535 19.8782 37.7353 20.9993 38.398 22.4859C38.9145 23.641 39.1971 24.8595 39.2312 26.1366C39.2409 26.6045 39.4748 26.8433 39.967 26.9749C40.5956 27.1406 41.2047 27.3356 41.6822 27.8279C42.1743 28.3299 42.3936 28.944 42.4716 29.6069C42.5203 30.0163 42.6032 30.4257 42.5398 30.8547C42.4131 31.6881 41.8381 32.1463 41.1657 32.4339C39.5187 33.1357 38.627 34.3738 38.1592 36.0602Z" fill="#F5B7D2"/>
<path d="M42.4667 29.6073C42.3887 28.9395 42.1694 28.3302 41.6773 27.8282C41.1998 27.3408 40.5907 27.141 39.9621 26.9752C39.4699 26.8485 39.236 26.6048 39.2263 26.1369C39.1971 24.8648 38.9096 23.6414 38.393 22.4862C37.7304 21.0045 36.6486 19.8786 35.2988 18.9817C34.3779 18.3725 33.3254 18.1142 32.3265 17.7145C32.0048 17.5878 31.693 17.5926 31.3763 17.6657C29.5392 18.0703 28.1554 19.1377 27.0785 20.6341C25.9821 22.1596 25.4656 23.8851 25.4266 25.7616C25.4071 26.5756 25.0806 26.9314 24.2766 27.0581C22.5127 27.3408 21.582 28.725 21.3725 30.4456C21.3676 30.6357 21.3968 30.816 21.4602 31.0012C21.7282 31.7518 22.3519 32.0784 23.0146 32.3855C24.1402 32.907 24.954 33.7453 25.4266 34.8908C26.0455 36.392 26.4012 37.9809 26.942 39.5065C27.8776 42.1288 29.013 44.6438 30.6112 46.9346C30.811 47.2271 31.0693 47.4708 31.3422 47.695C31.732 48.0167 32.0487 48.0167 32.4873 47.7778C32.7796 47.617 32.9989 47.383 33.2035 47.1296C34.0563 46.0865 34.6751 44.8973 35.2745 43.7031C36.5024 41.2563 37.4234 38.6877 38.1543 36.0605C38.6221 34.379 39.5138 33.1361 41.1559 32.4342C41.8283 32.1466 42.4033 31.6836 42.53 30.855C42.5982 30.4212 42.5105 30.0167 42.4667 29.6073ZM27.3611 30.3091C26.7959 30.7575 26.1527 30.9476 25.4412 30.9428C24.5057 30.9428 24.033 30.4797 24.0281 29.6121C24.0281 29.154 24.2718 28.9151 24.6616 28.7835C25.1099 28.6324 25.5728 28.5252 26.0113 28.3546C27.2929 27.8575 28.3893 27.1312 28.9642 25.8103C29.0909 25.513 29.1835 25.2011 29.2956 24.894C29.4369 24.509 29.7682 24.3042 30.1483 24.3774C30.5528 24.4553 30.6307 24.7478 30.6259 25.1036C30.6161 25.9322 30.2848 26.6487 29.8998 27.3505C29.2664 28.5155 28.4039 29.4903 27.3611 30.3091ZM30.1581 32.3904C30.1386 32.3221 30.1288 32.249 30.1337 32.1613C30.1435 32.054 30.1629 31.9517 30.1922 31.8542C30.3189 31.435 30.6161 31.0987 30.8841 30.7575C31.1667 30.3969 31.4688 30.0508 31.7953 29.7242C31.9512 29.5683 32.0584 29.539 32.2144 29.734C32.6822 30.314 33.1646 30.8745 33.6421 31.4399C33.9296 31.786 33.9004 32.1759 33.7298 32.5463C33.5836 32.868 33.2913 32.8241 33.033 32.7023C32.6724 32.5268 32.3947 32.2441 32.1705 31.9224C32.0292 31.7226 31.9512 31.6592 31.771 31.9029C31.5273 32.2295 31.2008 32.483 30.8061 32.6146C30.4699 32.7315 30.2312 32.6389 30.1581 32.3904ZM33.7737 38.5366C33.7054 39.37 33.6177 40.2035 33.5593 41.037C33.4862 42.0995 33.3644 43.1572 33.2084 44.21C33.1207 44.7949 32.7065 45.1458 32.1705 45.3554C32.0584 45.3993 31.961 45.3798 31.8635 45.3116C31.4347 44.9899 31.0839 44.6487 31.0059 44.054C30.7769 42.2311 30.6746 40.4034 30.5284 38.5756C30.4602 37.7665 30.3579 36.9671 30.314 36.158C30.275 35.5098 30.353 34.881 30.9328 34.4423C31.2544 34.1986 31.6296 34.1743 32.0146 34.1791C32.229 34.1986 32.4483 34.1938 32.6578 34.2425C33.5398 34.4521 33.9734 34.998 33.954 35.9874C33.9393 36.8404 33.8419 37.6885 33.7737 38.5366ZM38.8852 30.7673C38.0276 30.9427 37.209 30.8209 36.4975 30.2896C34.8457 29.0565 33.6616 27.487 33.1158 25.474C33.0769 25.3327 33.0671 25.1816 33.0574 25.1328C33.0622 24.6259 33.2864 24.2945 33.6129 24.236C33.9296 24.1726 34.3438 24.4456 34.4607 24.855C34.6313 25.4594 34.8749 26.0297 35.2501 26.5317C35.869 27.37 36.7314 27.8623 37.6767 28.2279C38.1056 28.3936 38.5538 28.5057 38.9924 28.6471C39.5187 28.8176 39.7184 29.1003 39.7038 29.6365C39.6892 30.1775 39.353 30.6698 38.8852 30.7673Z" fill="#E8E7E7"/>
<path d="M32.0146 34.1834C32.229 34.2029 32.4483 34.198 32.6578 34.2467C33.5398 34.4563 33.9734 35.0022 33.9588 35.9965C33.9442 36.8446 33.8468 37.6927 33.7785 38.5359C33.7103 39.3694 33.6226 40.198 33.5641 41.0315C33.491 42.094 33.3692 43.1517 33.2133 44.2045C33.1256 44.7894 32.7114 45.1403 32.1754 45.3499C32.0633 45.3938 31.9659 45.3743 31.8684 45.306C31.4396 44.9843 31.0888 44.6432 31.0108 44.0534C30.7818 42.2305 30.6795 40.4027 30.5333 38.5749C30.4651 37.7707 30.3627 36.9665 30.3189 36.1574C30.2799 35.5091 30.3579 34.8804 30.9377 34.4466C31.2544 34.198 31.6296 34.1736 32.0146 34.1834Z" fill="#F5B7D2"/>
<path d="M33.0623 25.1325C33.0671 24.6256 33.2913 24.2942 33.6129 24.2357C33.9345 24.1723 34.3438 24.4453 34.4607 24.8498C34.6313 25.4542 34.8749 26.0245 35.2501 26.5265C35.869 27.3649 36.7314 27.8571 37.6768 28.2227C38.1056 28.3884 38.5539 28.4956 38.9924 28.6419C39.5187 28.8125 39.7185 29.0952 39.7038 29.6313C39.6892 30.1723 39.3579 30.6695 38.8901 30.767C38.0325 30.9424 37.2139 30.8206 36.5024 30.2893C34.8506 29.0562 33.6665 27.4867 33.1207 25.4688C33.0817 25.3324 33.0671 25.1813 33.0623 25.1325Z" fill="#F5B7D2"/>
<path d="M25.4412 30.9426C24.5057 30.9426 24.033 30.4796 24.0281 29.612C24.0281 29.1538 24.2718 28.915 24.6616 28.7834C25.1099 28.6323 25.5728 28.5251 26.0114 28.3496C27.2929 27.8524 28.3893 27.1262 28.9643 25.8053C29.0909 25.508 29.1835 25.1961 29.2907 24.889C29.432 24.5039 29.7634 24.2992 30.1435 24.3675C30.5479 24.4455 30.6259 24.7379 30.621 25.0937C30.6112 25.9174 30.2799 26.6388 29.8949 27.3407C29.2566 28.5056 28.3941 29.4755 27.3562 30.2992C26.7959 30.7574 26.1527 30.9475 25.4412 30.9426Z" fill="#F5B7D2"/>
<path d="M30.1386 32.1599C30.1922 31.5849 30.5576 31.1804 30.889 30.7565C31.1716 30.3959 31.4737 30.0499 31.8002 29.7235C31.9561 29.5675 32.0633 29.5383 32.2193 29.7332C32.687 30.3082 33.1694 30.8734 33.647 31.4436C33.9345 31.7895 33.9052 32.1793 33.7347 32.5497C33.5885 32.8713 33.2961 32.8274 33.0379 32.7056C32.6773 32.5351 32.3995 32.2524 32.1754 31.926C32.0341 31.7262 31.9561 31.6628 31.7758 31.9065C31.5322 32.2329 31.2057 32.4863 30.811 32.6179C30.3773 32.7592 30.1142 32.5692 30.1386 32.1599Z" fill="#F5B7D2"/>
<defs>
<radialGradient id="paint0_radial_15817_143438" cx="0" cy="0" r="1" gradientUnits="userSpaceOnUse" gradientTransform="translate(32 32) rotate(90) scale(32)">
<stop stop-opacity="0"/>
<stop offset="1" stop-color="white"/>
</radialGradient>
<linearGradient id="paint1_linear_15817_143438" x1="32" y1="0" x2="32" y2="64" gradientUnits="userSpaceOnUse">
<stop stop-color="#4B4C4D"/>
<stop offset="1" stop-opacity="0"/>
</linearGradient>
</defs>
</svg>
