<svg xmlns="http://www.w3.org/2000/svg" width="28" height="26.766" viewBox="0 0 28 26.766"><defs><style>.a{fill:#e8e9e9;}</style></defs><path class="a" d="M316.839,320.878a6.839,6.839,0,1,1,6.839-6.839A6.846,6.846,0,0,1,316.839,320.878Zm0-11.686a4.847,4.847,0,1,0,4.847,4.847A4.853,4.853,0,0,0,316.839,309.192Z" transform="translate(-302.836 -300.656)"/><path class="a" d="M111.995,136.841a2.041,2.041,0,0,1-1.291-.458,4.458,4.458,0,0,0-5.481-.106,2.054,2.054,0,0,1-1.972.279,13.967,13.967,0,0,1-4.422-2.7,2.083,2.083,0,0,1-.647-1.916,4.522,4.522,0,0,0,.076-.823,4.455,4.455,0,0,0-2.7-4.1,2.07,2.07,0,0,1-1.222-1.607,14.114,14.114,0,0,1,0-3.911,2.065,2.065,0,0,1,1.222-1.607,4.455,4.455,0,0,0,2.7-4.1,4.549,4.549,0,0,0-.076-.823,2.075,2.075,0,0,1,.647-1.916,13.906,13.906,0,0,1,4.422-2.7,2.068,2.068,0,0,1,1.975.279,4.458,4.458,0,0,0,5.481-.106,2.056,2.056,0,0,1,1.962-.349,13.83,13.83,0,0,1,4.884,2.852,2.071,2.071,0,0,1,.651,1.926,4.385,4.385,0,0,0-.08.837,4.45,4.45,0,0,0,2.716,4.1,2.064,2.064,0,0,1,1.228,1.613,14.071,14.071,0,0,1,.133,1.942,14.62,14.62,0,0,1-.133,1.945,2.076,2.076,0,0,1-1.228,1.613,4.45,4.45,0,0,0-2.716,4.1,4.375,4.375,0,0,0,.08.833,2.087,2.087,0,0,1-.651,1.926,13.974,13.974,0,0,1-4.887,2.852A2.117,2.117,0,0,1,111.995,136.841Zm-4.1-3.111a6.122,6.122,0,0,1,3.854,1.368.408.408,0,0,0,.385.063,12.272,12.272,0,0,0,4.306-2.513.414.414,0,0,0,.129-.382,6.282,6.282,0,0,1-.106-1.145,6.106,6.106,0,0,1,3.725-5.631.4.4,0,0,0,.236-.312,12.36,12.36,0,0,0,0-3.429.4.4,0,0,0-.236-.312,6.109,6.109,0,0,1-3.725-5.631,6.282,6.282,0,0,1,.106-1.145.414.414,0,0,0-.129-.382,12.288,12.288,0,0,0-4.3-2.513.406.406,0,0,0-.385.063,6.117,6.117,0,0,1-7.523.146.414.414,0,0,0-.392-.056,12.307,12.307,0,0,0-3.9,2.38.412.412,0,0,0-.126.378,6.133,6.133,0,0,1-3.6,6.749.4.4,0,0,0-.232.312,12.5,12.5,0,0,0,0,3.449.4.4,0,0,0,.232.312,6.109,6.109,0,0,1,3.7,5.621,6.364,6.364,0,0,1-.1,1.125.412.412,0,0,0,.126.378,12.307,12.307,0,0,0,3.9,2.38.405.405,0,0,0,.392-.056,6.064,6.064,0,0,1,3.665-1.218Z" transform="translate(-94.2 -110.075)"/></svg>