<svg xmlns="http://www.w3.org/2000/svg" width="38" height="38" viewBox="0 0 38 38">
  <defs>
    <style>
      .cls-1 {
        fill: #2a424c;
      }

      .cls-2 {
        fill: #e8e9e9;
      }
    </style>
  </defs>
  <g id="组_56882" data-name="组 56882" transform="translate(-299 -190)">
    <rect id="矩形_21457" data-name="矩形 21457" class="cls-1" width="38" height="38" rx="10" transform="translate(299 190)"/>
    <g id="组_56854" data-name="组 56854" transform="translate(-2)">
      <path id="路径_32810" data-name="路径 32810" class="cls-2" d="M355.738,359.476a3.738,3.738,0,1,1,3.738-3.738A3.743,3.743,0,0,1,355.738,359.476Zm0-5.981a2.243,2.243,0,1,0,2.243,2.243A2.246,2.246,0,0,0,355.738,353.5Z" transform="translate(-35.524 -146.978)"/>
      <path id="路径_32811" data-name="路径 32811" class="cls-2" d="M40.02,72.916a2.22,2.22,0,0,1-1.117-.3l-2.588-1.5a2.247,2.247,0,0,1-.82-3.065l.827-1.432a7.709,7.709,0,0,1-.425-.731H34.243A2.246,2.246,0,0,1,32,63.651V60.663a2.246,2.246,0,0,1,2.243-2.243h1.649c.128-.248.269-.491.425-.731l-.827-1.432a2.246,2.246,0,0,1,.822-3.063L38.9,51.7a2.246,2.246,0,0,1,3.063.82l.825,1.427a7.335,7.335,0,0,1,.848,0l.825-1.427a2.242,2.242,0,0,1,3.063-.82l2.588,1.5a2.246,2.246,0,0,1,.822,3.063l-.827,1.432a7.711,7.711,0,0,1,.425.731h1.652a2.246,2.246,0,0,1,2.243,2.243v2.99A2.246,2.246,0,0,1,52.184,65.9H50.535c-.128.248-.269.491-.425.731l.827,1.432a2.244,2.244,0,0,1-.82,3.063l-2.588,1.5a2.244,2.244,0,0,1-3.063-.822l-.825-1.427a7.34,7.34,0,0,1-.848,0l-.825,1.427a2.25,2.25,0,0,1-1.948,1.121Zm-5.777-13a.75.75,0,0,0-.748.748v2.99a.75.75,0,0,0,.748.748h2.121a.746.746,0,0,1,.684.449,6.706,6.706,0,0,0,.755,1.3.753.753,0,0,1,.047.818l-1.063,1.843a.729.729,0,0,0-.072.568.749.749,0,0,0,.346.456l2.588,1.5a.748.748,0,0,0,1.021-.273l1.061-1.839a.748.748,0,0,1,.729-.369,7.042,7.042,0,0,0,1.5,0,.746.746,0,0,1,.729.369l1.061,1.839a.748.748,0,0,0,1.021.273l2.588-1.5a.736.736,0,0,0,.346-.456.751.751,0,0,0-.072-.568l-1.063-1.843a.744.744,0,0,1,.047-.818,6.706,6.706,0,0,0,.755-1.3.746.746,0,0,1,.684-.449h2.126a.75.75,0,0,0,.748-.748v-2.99a.75.75,0,0,0-.748-.748H50.063a.746.746,0,0,1-.684-.449,6.705,6.705,0,0,0-.755-1.3.753.753,0,0,1-.047-.818L49.64,55.51a.729.729,0,0,0,.072-.568.748.748,0,0,0-.346-.456l-2.588-1.5a.746.746,0,0,0-1.021.273L44.7,55.1a.748.748,0,0,1-.729.369,7.041,7.041,0,0,0-1.5,0,.746.746,0,0,1-.729-.369l-1.061-1.839a.748.748,0,0,0-1.021-.273l-2.588,1.5a.736.736,0,0,0-.346.456.744.744,0,0,0,.072.565l1.063,1.843a.744.744,0,0,1-.047.818,6.706,6.706,0,0,0-.755,1.3.746.746,0,0,1-.684.449H34.243Z" transform="translate(277 146.602)"/>
    </g>
  </g>
</svg>
