<svg xmlns="http://www.w3.org/2000/svg" width="46.617" height="44.562" viewBox="0 0 46.617 44.562"><defs><style>.a{fill:#e8e9e9;}</style></defs><g transform="translate(-94.2 -110.075)"><path class="a" d="M321.386,329.972a11.386,11.386,0,1,1,11.386-11.386A11.4,11.4,0,0,1,321.386,329.972Zm0-19.456a8.07,8.07,0,1,0,8.07,8.07A8.079,8.079,0,0,0,321.386,310.516Z" transform="translate(-203.872 -186.23)"/><path class="a" d="M123.826,154.637a3.4,3.4,0,0,1-2.15-.763,7.423,7.423,0,0,0-9.125-.177,3.419,3.419,0,0,1-3.283.464,23.252,23.252,0,0,1-7.362-4.494,3.468,3.468,0,0,1-1.078-3.189,7.528,7.528,0,0,0,.127-1.371,7.417,7.417,0,0,0-4.494-6.821,3.446,3.446,0,0,1-2.034-2.675,23.5,23.5,0,0,1,0-6.511,3.438,3.438,0,0,1,2.034-2.675,7.417,7.417,0,0,0,4.494-6.821,7.574,7.574,0,0,0-.127-1.371,3.454,3.454,0,0,1,1.078-3.189,23.152,23.152,0,0,1,7.362-4.494,3.442,3.442,0,0,1,3.289.464,7.423,7.423,0,0,0,9.125-.177,3.423,3.423,0,0,1,3.267-.58,23.026,23.026,0,0,1,8.131,4.748,3.447,3.447,0,0,1,1.083,3.206,7.3,7.3,0,0,0-.133,1.393,7.408,7.408,0,0,0,4.521,6.832,3.436,3.436,0,0,1,2.045,2.686,23.427,23.427,0,0,1,.221,3.233,24.342,24.342,0,0,1-.221,3.239,3.456,3.456,0,0,1-2.045,2.686,7.408,7.408,0,0,0-4.521,6.832,7.284,7.284,0,0,0,.133,1.387,3.474,3.474,0,0,1-1.083,3.206,23.265,23.265,0,0,1-8.136,4.748A3.525,3.525,0,0,1,123.826,154.637Zm-6.821-5.179a10.192,10.192,0,0,1,6.417,2.277.679.679,0,0,0,.641.1,20.432,20.432,0,0,0,7.169-4.184.69.69,0,0,0,.216-.636,10.46,10.46,0,0,1-.177-1.907,10.166,10.166,0,0,1,6.2-9.374.663.663,0,0,0,.392-.52,20.578,20.578,0,0,0,0-5.71.663.663,0,0,0-.392-.52,10.171,10.171,0,0,1-6.2-9.374,10.46,10.46,0,0,1,.177-1.907.69.69,0,0,0-.216-.636,20.458,20.458,0,0,0-7.163-4.184.676.676,0,0,0-.641.105,10.183,10.183,0,0,1-12.525.243.689.689,0,0,0-.652-.094,20.489,20.489,0,0,0-6.489,3.963.685.685,0,0,0-.21.63,10.211,10.211,0,0,1-5.992,11.237.668.668,0,0,0-.387.52,20.818,20.818,0,0,0,0,5.743.668.668,0,0,0,.387.52,10.171,10.171,0,0,1,6.163,9.358,10.594,10.594,0,0,1-.171,1.874.685.685,0,0,0,.21.63,20.489,20.489,0,0,0,6.489,3.963.675.675,0,0,0,.652-.094,10.1,10.1,0,0,1,6.1-2.029Z" transform="translate(0 0)"/></g></svg>