<svg width="64" height="64" viewBox="0 0 64 64" fill="none" xmlns="http://www.w3.org/2000/svg">
<circle cx="32" cy="32" r="31.75" fill="url(#paint0_radial)" fill-opacity="0.05" stroke="url(#paint1_linear)" stroke-width="0.5"/>
<path d="M34.8215 32.3861C36.3292 35.3775 37.3367 38.4918 35.858 41.7434C33.4805 46.9531 26.3553 47.4734 22.6586 42.7911C19.2373 38.4557 19.1069 31.9887 22.3324 26.5116C22.8543 25.63 23.3037 24.7052 23.8618 23.8453C24.3402 23.0938 25.1883 23.0432 25.442 23.8236C26.8192 28.029 29.7041 31.4034 31.6177 35.298C33.1616 38.4557 32.2193 41.3387 29.6026 41.6567C27.3991 41.9312 25.616 40.515 24.6592 37.6825C24.217 36.3819 23.9778 35.0451 24.101 33.6578C24.1518 33.0292 24.4562 32.6607 25.1158 32.7401C25.7247 32.8124 25.9204 33.2243 25.9059 33.8095C25.8552 35.616 26.2248 37.3357 27.2976 38.8242C27.8775 39.6407 28.6893 40.1754 29.7258 39.7274C30.7986 39.2577 30.6536 38.2823 30.4217 37.4152C29.6533 34.5321 27.5948 32.35 26.2248 29.7921C25.7319 28.8816 25.2825 27.9495 24.8041 27.0318C24.7172 26.8584 24.5939 26.6995 24.4852 26.5333C24.3765 26.685 24.246 26.8367 24.159 27.0029C22.057 30.8398 20.9914 34.8139 22.6223 39.1277C24.0938 43.0079 27.8847 45.0889 31.1828 43.8244C34.4881 42.5527 35.5898 39.0482 33.9662 34.9223C32.6615 31.6057 30.2767 28.8961 28.7473 25.7023C26.7467 21.5403 27.6238 17.2555 31.1103 14.3868C31.7336 13.8738 32.27 13.8377 32.8137 14.4808C37.0758 19.4593 41.1276 24.604 43.1789 30.9265C44.8026 35.9267 44.1285 40.58 40.1636 44.4169C39.7722 44.7926 39.3373 45.06 38.7791 44.7926C38.3297 44.5758 38.2428 44.1423 38.3515 43.7232C39.9027 37.5958 37.7644 32.3138 34.6185 27.2486C33.7052 25.7818 32.8427 24.2716 31.9801 22.7759C31.6757 22.2484 31.6394 21.6704 32.27 21.3597C32.8427 21.0779 33.2703 21.3452 33.5893 21.9016C35.8798 25.9913 38.6777 29.8065 39.9824 34.3948C40.5478 36.3747 40.7507 38.3834 40.6782 40.4283C40.671 40.5439 40.7072 40.6595 40.7217 40.7751C40.787 40.6812 40.8739 40.6017 40.9247 40.5005C43.2442 35.9122 41.954 31.6346 39.7577 27.4581C37.6846 23.4985 35.0679 19.8928 32.1468 16.4968C31.8424 16.1427 31.6829 16.2944 31.4727 16.5546C28.8343 19.77 28.8415 22.5736 31.5162 26.9885C32.6035 28.7949 33.7125 30.5869 34.8215 32.3861Z" fill="url(#paint2_radial)"/>
<defs>
<radialGradient id="paint0_radial" cx="0" cy="0" r="1" gradientUnits="userSpaceOnUse" gradientTransform="translate(32 32) rotate(90) scale(32)">
<stop stop-opacity="0"/>
<stop offset="1" stop-color="white"/>
</radialGradient>
<linearGradient id="paint1_linear" x1="32" y1="0" x2="32" y2="64" gradientUnits="userSpaceOnUse">
<stop stop-color="#4B4C4D"/>
<stop offset="1" stop-opacity="0"/>
</linearGradient>
<radialGradient id="paint2_radial" cx="0" cy="0" r="1" gradientUnits="userSpaceOnUse" gradientTransform="translate(27.3333 18) rotate(75.4655) scale(37.1902 27.8927)">
<stop stop-color="#E9ACEF"/>
<stop offset="0.708333" stop-color="#3FBBFF"/>
<stop offset="1" stop-color="#59FFE8"/>
</radialGradient>
</defs>
</svg>
