<svg width="64" height="64" viewBox="0 0 64 64" fill="none" xmlns="http://www.w3.org/2000/svg">
<circle cx="32" cy="32" r="31.75" fill="url(#paint0_radial)" fill-opacity="0.05" stroke="url(#paint1_linear)" stroke-width="0.5"/>
<path d="M18.6023 33.3436L18.2677 37.1917L27.5702 40.6718L46.2421 38.7979L46.6771 36.2548L46.2421 32.8751L44.6693 29.0604L45.7736 24.2753L46.5098 19.691L46.2421 17.4491L45.7736 16.5121L45.1378 16.2444L44.0336 16.5121L42.2601 17.4491L39.9512 19.3564L37.8096 21.7657L36.9061 21.5314L33.6268 21.063H30.6487L27.269 21.7657L24.9601 19.3564L22.9524 17.4491L20.6435 16.2444H19.6731L18.9369 17.081L18.6023 18.9548L18.9369 22.8699L19.6731 26.8519L20.242 29.0604L18.6023 33.3436Z" fill="#FDA207"/>
<path d="M25.6629 22.5688C23.722 23.6061 21.3128 27.0192 21.3128 27.0192C21.3128 27.0192 18.6358 18.821 20.4762 18.7541C22.3166 18.6872 25.6629 22.5688 25.6629 22.5688Z" fill="#FD9200"/>
<path fill-rule="evenodd" clip-rule="evenodd" d="M24.449 23.4441C22.8444 24.8494 21.3128 27.0192 21.3128 27.0192C21.3128 27.0192 19.6963 22.0688 19.8392 19.8302C19.8612 19.8275 19.8839 19.8257 19.9073 19.8249C21.7935 19.7563 24.1083 22.9575 24.449 23.4441Z" fill="#FD8300"/>
<path d="M39.1481 22.5688C41.0889 23.6061 43.4981 27.0192 43.4981 27.0192C43.4981 27.0192 46.1751 18.821 44.3347 18.7541C42.4943 18.6872 39.1481 22.5688 39.1481 22.5688Z" fill="#FD9200"/>
<path fill-rule="evenodd" clip-rule="evenodd" d="M43.4982 27.0192C43.5031 27.0041 45.1144 22.0653 44.9718 19.8302C44.9498 19.8275 44.927 19.8257 44.9036 19.8249C43.0174 19.7563 40.7026 22.9575 40.3619 23.4441C41.9651 24.8481 43.4954 27.0152 43.4982 27.0192C43.4982 27.0192 43.4982 27.0192 43.4982 27.0192Z" fill="#FD8300"/>
<path d="M26.3655 39.2998C22.1158 35.184 18.2008 37.0913 18.2008 37.0913L18.6358 38.8983L19.74 40.8726L21.7812 43.0141L25.6963 45.7915L29.7118 47.3977L32.7568 47.8327L35.7684 47.3977L40.1185 45.7915L43.5651 43.0141L45.9074 40.1029L46.7105 37.0913C42.1597 35.5521 38.4788 39.2998 38.4788 39.2998C38.4788 39.2998 37.2407 34.4478 32.556 34.4478C27.8713 34.4478 26.3655 39.2998 26.3655 39.2998Z" fill="white"/>
<path d="M24.4917 29.1608C24.4917 30.0442 25.6071 30.2428 26.1648 30.2316C26.7782 30.187 28.0052 29.9104 28.0052 29.1608C28.0052 28.2239 26.9679 27.5546 26.1648 27.5546C25.6963 27.5546 24.4917 28.0566 24.4917 29.1608Z" fill="white"/>
<path d="M24.8597 31.0681C23.9496 30.7737 23.8336 31.7039 23.8893 32.2059C23.8992 32.507 23.9897 32.8082 24.4247 33.1763C24.8597 33.5443 29.444 35.3848 29.444 34.2805C29.444 33.1763 25.9974 31.4362 24.8597 31.0681Z" fill="black"/>
<path d="M40.3527 29.1608C40.3527 30.0442 39.2373 30.2428 38.6796 30.2316C38.0661 30.187 36.8392 29.9104 36.8392 29.1608C36.8392 28.2239 37.8765 27.5546 38.6796 27.5546C39.1481 27.5546 40.3527 28.0566 40.3527 29.1608Z" fill="white"/>
<path d="M40.3193 31.0681C41.2294 30.7737 41.3454 31.7039 41.2897 32.2059C41.2798 32.507 41.1893 32.8082 40.7543 33.1763C40.3193 33.5443 35.7349 35.3848 35.7349 34.2805C35.7349 33.1763 39.1815 31.4362 40.3193 31.0681Z" fill="black"/>
<path d="M32.7234 40.2033V41.0064L32.1545 41.6087H30.816L30.2806 41.4079H29.2098L29.6783 42.5122H29.9795L30.4814 43.7168L30.6487 43.4157V42.0103C30.9499 42.0549 31.8132 42.1441 32.8572 42.1441C33.9012 42.1441 34.8761 42.0103 35.233 41.9433V43.3488L35.4673 43.7168L35.9357 42.5122H36.2034L36.5381 41.4079H35.3669L35.233 41.6087H33.9615L33.2922 41.1068V40.471C33.2922 39.9356 33.493 39.9356 34.2292 39.5341C34.9653 39.1325 34.8984 38.296 34.8984 37.4259C34.8984 36.7299 34.363 36.5782 34.0953 36.5894H31.753C30.9499 36.5894 30.7826 37.0579 30.7826 37.2586C30.7826 37.4594 30.6153 38.9987 31.5522 39.4002C32.3017 39.7215 32.6453 40.0695 32.7234 40.2033Z" fill="black"/>
<path d="M34.0953 42.5122L31.4853 42.4453L31.8199 42.9137L32.2214 42.7464L32.8572 43.2818L33.4261 42.7464L33.7607 42.9137L34.0953 42.5122Z" fill="black"/>
<path fill-rule="evenodd" clip-rule="evenodd" d="M37.6757 21.5314C37.6757 21.5314 32.7903 19.6241 27.3359 21.5314C27.3359 21.5314 22.2162 15.085 19.5058 16.1106C16.7954 17.1361 20.0412 28.8931 20.0412 28.8931C19.9055 29.2642 19.7476 29.6489 19.5809 30.0552L19.5807 30.0557C18.8705 31.7866 18 33.9081 18 37.0244C18 40.8726 25.094 48 32.4557 48C39.8173 48 46.9448 41.776 46.9448 37.0244C46.9448 32.2728 44.8701 28.8931 44.8701 28.8931C44.8701 28.8931 48.4506 16.8133 45.439 16.1106C42.4274 15.4079 37.6757 21.5314 37.6757 21.5314ZM20.4812 29.054L20.5327 28.9131L20.4928 28.7684L20.4047 28.7928C20.4928 28.7684 20.4928 28.7684 20.4928 28.7684L20.4907 28.7608L20.484 28.7364C20.4781 28.7147 20.4693 28.6823 20.4579 28.6397C20.4352 28.5546 20.402 28.4292 20.3606 28.2689C20.2779 27.9483 20.1626 27.4884 20.0325 26.9332C19.7721 25.8217 19.4539 24.3327 19.2201 22.8151C18.9853 21.2913 18.8398 19.765 18.9136 18.5693C18.9505 17.9699 19.0411 17.4835 19.1846 17.1307C19.3276 16.779 19.4993 16.6139 19.6716 16.5487C20.1521 16.3669 20.8214 16.4943 21.6519 16.9381C22.4628 17.3714 23.3235 18.0511 24.1208 18.7818C24.9144 19.5091 25.6275 20.2703 26.1433 20.8512C26.4008 21.1413 26.6082 21.3853 26.7508 21.5564C26.8221 21.642 26.8772 21.7092 26.9142 21.7547C26.9327 21.7775 26.9467 21.7948 26.9559 21.8063L26.9661 21.8191L26.9685 21.8221L26.969 21.8227L26.9691 21.8228L27.1762 22.0836L27.4906 21.9737C30.1309 21.0504 32.6391 21.0488 34.493 21.281C35.4189 21.397 36.1779 21.5709 36.7032 21.715C36.9658 21.787 37.1695 21.8515 37.3061 21.8973C37.3743 21.9202 37.4258 21.9385 37.4594 21.9507C37.4762 21.9568 37.4885 21.9614 37.4962 21.9643L37.5043 21.9674L37.5054 21.9678L37.5056 21.9679L37.5058 21.968L37.8313 22.0951L38.0459 21.8186L38.0463 21.818L38.0485 21.8153L38.0579 21.8032C38.0647 21.7946 38.0743 21.7824 38.0866 21.7669L38.0965 21.7545C38.1308 21.7113 38.182 21.6476 38.2484 21.5663C38.3814 21.4036 38.5755 21.1712 38.8179 20.894C39.3034 20.3389 39.9796 19.6085 40.7456 18.9018C41.5146 18.1925 42.3588 17.5214 43.1802 17.0721C44.014 16.6161 44.7481 16.4304 45.3325 16.5668C45.5308 16.613 45.7076 16.7525 45.8566 17.0638C46.0106 17.3854 46.1113 17.8482 46.1533 18.4376C46.2371 19.6123 46.0795 21.1441 45.8218 22.6882C45.5653 24.225 45.2151 25.7435 44.9283 26.88C44.785 27.4477 44.6579 27.9187 44.5667 28.2474C44.5211 28.4118 44.4845 28.5405 44.4593 28.6278C44.4468 28.6715 44.4371 28.7048 44.4306 28.7271L44.4215 28.7582L44.4211 28.7596L44.421 28.76L44.3616 28.9602L44.4707 29.1379L44.4707 29.138L44.4709 29.1382L44.4712 29.1387L44.4744 29.1441L44.4811 29.1553C44.4835 29.1593 44.4862 29.1639 44.4893 29.1692C44.5028 29.1923 44.5235 29.228 44.5501 29.2758C44.6035 29.3715 44.6811 29.5155 44.7748 29.704C44.9624 30.0812 45.2143 30.6355 45.4667 31.3358C45.972 32.7376 46.4763 34.7158 46.4763 37.0244C46.4763 39.1902 44.8257 41.8137 42.1692 43.9275C39.5324 46.0254 36.0101 47.5315 32.4557 47.5315C28.919 47.5315 25.4081 45.814 22.7685 43.5966C21.4523 42.4909 20.3684 41.2735 19.6171 40.1088C18.8592 38.9338 18.4685 37.8573 18.4685 37.0244C18.4685 34.0087 19.2984 31.9829 20.0057 30.2563C20.1757 29.8415 20.3386 29.4439 20.4812 29.054Z" fill="black"/>
<defs>
<radialGradient id="paint0_radial" cx="0" cy="0" r="1" gradientUnits="userSpaceOnUse" gradientTransform="translate(32 32) rotate(90) scale(32)">
<stop stop-opacity="0"/>
<stop offset="1" stop-color="white"/>
</radialGradient>
<linearGradient id="paint1_linear" x1="32" y1="0" x2="32" y2="64" gradientUnits="userSpaceOnUse">
<stop stop-color="#4B4C4D"/>
<stop offset="1" stop-opacity="0"/>
</linearGradient>
</defs>
</svg>
