<svg xmlns="http://www.w3.org/2000/svg" width="10.514" height="10.513" viewBox="0 0 10.514 10.513"><defs><style>.a{fill:#939ca5;}</style></defs><path class="a" d="M104.553,49.391a1.2,1.2,0,0,1,1.088,0l4.168,2.144a.956.956,0,0,1,.544.839v4.287a.956.956,0,0,1-.544.839l-4.168,2.144a1.2,1.2,0,0,1-1.088,0L100.384,57.5a.956.956,0,0,1-.544-.839V52.374a.956.956,0,0,1,.544-.839Zm.544.839-4.168,2.144v4.287L105.1,58.8l4.168-2.144V52.374Zm0,2.349a1.952,1.952,0,1,1-2.177,1.939A2.068,2.068,0,0,1,105.1,52.579Zm0,.969a.976.976,0,1,0,1.088.969A1.034,1.034,0,0,0,105.1,53.548Z" transform="translate(-99.84 -49.261)"/></svg>