<svg xmlns="http://www.w3.org/2000/svg" width="21.703" height="21.703" viewBox="0 0 21.703 21.703"><defs><style>.a{fill:#939ca5;}</style></defs><path class="a" d="M109.568,49.529a2.487,2.487,0,0,1,2.247,0l8.6,4.425a1.973,1.973,0,0,1,1.123,1.733v8.85a1.973,1.973,0,0,1-1.123,1.733l-8.6,4.426a2.487,2.487,0,0,1-2.247,0l-8.6-4.426a1.973,1.973,0,0,1-1.123-1.733v-8.85a1.973,1.973,0,0,1,1.123-1.733Zm1.123,1.733-8.6,4.425v8.85l8.6,4.425,8.6-4.425v-8.85Zm0,4.848a4.029,4.029,0,1,1-4.493,4A4.269,4.269,0,0,1,110.692,56.11Zm0,2a2.015,2.015,0,1,0,2.247,2A2.135,2.135,0,0,0,110.692,58.111Z" transform="translate(-99.84 -49.261)"/></svg>