<svg width="64" height="64" viewBox="0 0 64 64" fill="none" xmlns="http://www.w3.org/2000/svg">
<circle cx="32" cy="32" r="31.75" fill="url(#paint0_radial)" fill-opacity="0.05" stroke="url(#paint1_linear)" stroke-width="0.5"/>
<path d="M23.333 27.7998H40.333L38.9997 46.9997H24.9997L23.333 27.7998Z" fill="#F2B3C0"/>
<path fill-rule="evenodd" clip-rule="evenodd" d="M31.666 47.0002V27.8003H40.3329L38.9996 47.0001L31.666 47.0002Z" fill="#F3A1AD"/>
<path fill-rule="evenodd" clip-rule="evenodd" d="M24.3328 39.3205L23.7495 32.6006H39.9995L39.5328 39.3205H24.3328Z" fill="#3B72C4"/>
<path d="M25.5277 15.065C25.0126 14.8736 24.4335 15.1193 24.2341 15.6137C24.0347 16.1081 24.2906 16.6641 24.8057 16.8555L29.3333 18.538V24.6002H21.6667C21.2985 24.6002 21 24.8867 21 25.2402V27.1602C21 27.5136 21.2985 27.8002 21.6667 27.8002H42.3333C42.7015 27.8002 43 27.5136 43 27.1602V25.2402C43 24.8867 42.7015 24.6002 42.3333 24.6002H31.3333V17.8802C31.3333 17.4838 31.0795 17.1281 30.6943 16.985L25.5277 15.065Z" fill="#3B72C4"/>
<path fill-rule="evenodd" clip-rule="evenodd" d="M31.666 39.32V32.6001H39.9994L39.5327 39.32H31.666Z" fill="#225596"/>
<path d="M31.6665 24.6006H41.3999C42.2835 24.6006 42.9998 25.3169 42.9998 26.2006C42.9998 27.0842 42.2835 27.8006 41.3998 27.8006H31.6665V24.6006Z" fill="#225596"/>
<ellipse cx="31.6663" cy="36.1204" rx="2.33333" ry="2.23998" fill="#CF3E2E"/>
<defs>
<radialGradient id="paint0_radial" cx="0" cy="0" r="1" gradientUnits="userSpaceOnUse" gradientTransform="translate(32 32) rotate(90) scale(32)">
<stop stop-opacity="0"/>
<stop offset="1" stop-color="white"/>
</radialGradient>
<linearGradient id="paint1_linear" x1="32" y1="0" x2="32" y2="64" gradientUnits="userSpaceOnUse">
<stop stop-color="#4B4C4D"/>
<stop offset="1" stop-opacity="0"/>
</linearGradient>
</defs>
</svg>
