<svg width="64" height="64" viewBox="0 0 64 64" fill="none" xmlns="http://www.w3.org/2000/svg">
<circle cx="32" cy="32" r="31.75" fill="url(#paint0_radial)" fill-opacity="0.05" stroke="url(#paint1_linear)" stroke-width="0.5"/>
<path d="M28.7334 49.998C28.8505 49.9743 28.9654 49.9504 29.0824 49.9286C28.9236 43.6685 28.3112 37.3885 29.9937 31.2891C29.7032 31.0491 29.5694 30.8784 29.3918 30.801C28.4763 30.4002 27.563 29.9935 26.6224 29.6463C24.9713 29.0371 24.3338 27.9894 24.6307 26.1105C24.9943 26.2771 25.3203 26.4398 25.6589 26.5787C26.773 27.037 27.8681 27.553 29.0134 27.9221C30.5329 28.4121 30.8297 28.7851 30.5936 30.3228C30.4326 31.3685 30.2277 32.4122 30.1442 33.4658C30.0669 34.4282 31.0262 35.7437 31.7975 35.9004C32.4662 36.0373 33.4987 35.2178 33.8248 34.1722C33.9565 33.7515 33.8979 33.2614 33.8499 32.8091C33.7412 31.7574 33.5656 30.7138 33.4569 29.6621C33.3628 28.7634 33.8624 28.291 34.7423 27.9954C35.9838 27.5807 37.1857 27.0569 38.4021 26.5767C38.7344 26.4457 39.0625 26.299 39.4346 26.1402C39.606 28.2613 39.0375 29.061 37.1396 29.7276C36.1135 30.0887 35.1353 30.5709 34.0024 31.057C35.6933 37.3985 35.0517 43.6943 35.1498 50C35.641 49.4702 35.9838 48.9127 36.2868 48.3373C36.5503 47.8352 36.7614 47.3095 37.0059 46.7976C38.1679 44.3609 39.3781 41.9442 40.4691 39.4799C40.8077 38.712 40.954 37.8171 40.9645 36.9778C41.0125 32.8448 41.0084 28.7117 40.9727 24.5787C40.9645 23.5925 40.9393 22.5567 40.6238 21.6361C40.0594 19.9892 39.5537 18.2174 38.5106 16.8503C36.6338 14.3899 33.7662 13.7172 30.6751 14.1002C28.2066 14.4058 26.0246 15.4673 24.9044 17.5963C23.7277 19.8325 22.9815 22.2691 23.0003 24.8465C23.0296 28.9141 22.994 32.9797 23.0254 37.0473C23.0296 37.6961 23.1048 38.3965 23.3724 38.9798C24.9211 42.3709 26.5304 45.736 28.1335 49.1052C28.284 49.4226 28.5307 49.7024 28.7334 49.998Z" fill="#A80005"/>
<defs>
<radialGradient id="paint0_radial" cx="0" cy="0" r="1" gradientUnits="userSpaceOnUse" gradientTransform="translate(32 32) rotate(90) scale(32)">
<stop stop-opacity="0"/>
<stop offset="1" stop-color="white"/>
</radialGradient>
<linearGradient id="paint1_linear" x1="32" y1="0" x2="32" y2="64" gradientUnits="userSpaceOnUse">
<stop stop-color="#4B4C4D"/>
<stop offset="1" stop-opacity="0"/>
</linearGradient>
</defs>
</svg>
