<svg width="64" height="64" viewBox="0 0 64 64" fill="none" xmlns="http://www.w3.org/2000/svg">
<circle cx="32" cy="32" r="31.75" fill="url(#paint0_radial_15817_143430)" fill-opacity="0.05" stroke="url(#paint1_linear_15817_143430)" stroke-width="0.5"/>
<path d="M15.5339 30.7005C15.4743 27.2233 15.2785 23.721 17.3215 20.6015C20.5732 15.6435 25.2381 13.439 31.1968 14.1211C36.9257 14.7783 40.6542 18.0143 42.6461 23.2219C43.3526 25.0687 43.259 27.0236 43.2505 28.9619C43.2334 32.3477 44.3145 33.8451 47.5663 35.018C48.0685 35.201 48.409 35.5421 48.4771 36.0662C48.6133 37.1144 48.1281 37.9046 47.3705 38.5868C46.4937 39.3854 45.3616 39.2773 44.3145 39.5019C42.5269 39.8928 41.5054 41.1656 41.5054 42.9542C41.4969 44.8925 40.2541 46.2401 38.2622 46.3566C36.466 46.4647 35.1721 47.1385 34.4145 48.8356C33.708 50.4328 32.1162 49.9503 30.8733 49.8671C21.8671 49.2848 15.5339 42.5881 15.5339 33.7785C15.5339 32.7553 15.5339 31.7238 15.5339 30.7005ZM28.4898 15.3357C23.8761 15.344 18.8112 19.1041 17.4662 23.4299C16.3 27.1817 16.649 31.025 16.8618 34.8184C17.33 43.0124 24.3698 49.0519 32.7205 48.6775C32.9674 48.6692 33.0951 48.5943 33.1036 48.3531C33.9208 46.3982 35.2998 45.2502 37.5471 45.1587C38.9687 45.1004 39.854 44.3351 40.0923 42.8959C40.5776 39.8845 42.0417 38.254 44.306 38.1542C45.634 38.279 47.047 37.3639 47.0981 36.3074C45.9319 36.0745 44.8934 35.5421 44.0166 34.7518C42.5865 33.4624 41.8544 31.8569 41.897 29.9518C41.9651 26.8905 41.8714 23.8791 40.1094 21.1755C37.9046 17.798 34.8061 15.8182 30.6861 15.4272C29.9455 15.4022 29.2134 15.3689 28.4898 15.3357Z" fill="#303133"/>
<path d="M44.2974 38.1545C42.0416 38.2626 40.5775 39.8848 40.0838 42.8962C39.8539 44.3354 38.9601 45.1007 37.5385 45.1589C35.2827 45.2504 33.9037 46.3984 33.095 48.3534C32.4225 48.1537 31.7245 48.004 31.0776 47.7544C26.3191 45.9076 22.1054 43.4702 20.6838 38.1711C19.7815 34.802 20.2071 31.3497 20.1731 27.9306C20.1731 27.914 20.2071 27.889 20.2241 27.8724C21.8585 29.6027 24.242 29.9105 26.1403 28.6461C27.8854 27.4814 28.5493 25.1605 27.6726 23.3386C26.6426 21.2007 24.4634 20.3189 22.0033 21.051C22.5481 19.903 23.4163 18.9879 24.2591 18.0645C25.4253 16.8001 26.915 16.0014 28.4898 15.3359C29.2218 15.3692 29.9454 15.4025 30.6775 15.4358C31.8352 16.0347 33.095 16.459 34.108 17.3075C35.4104 18.3973 36.4489 19.6617 36.9086 21.3172C34.6102 20.1775 32.082 20.8929 30.8562 23.0309C29.7241 25.0024 30.4306 27.5896 32.4225 28.7792C34.5592 30.0519 37.1214 29.4197 38.5941 27.2485C38.6877 28.7293 38.8494 30.2183 38.858 31.6991C38.875 33.862 39.5134 35.6838 41.5224 36.8152C42.4247 37.2976 43.3781 37.7053 44.2974 38.1545Z" fill="#BFD2D3"/>
<path d="M28.4897 15.3359C26.9149 16.0014 25.4252 16.8001 24.2675 18.0645C23.4248 18.9879 22.548 19.903 22.0117 21.051C19.0834 22.4901 18.3343 25.3435 20.2241 27.8724C20.2071 27.889 20.173 27.914 20.173 27.9306C20.2071 31.3497 19.7814 34.7937 20.6838 38.1711C22.1053 43.4619 26.319 45.8993 31.0775 47.7544C31.7329 48.004 32.4225 48.1537 33.0949 48.3534C33.0864 48.5946 32.9587 48.6695 32.7119 48.6778C24.3611 49.0521 17.3213 43.0127 16.8531 34.8186C16.6403 31.0252 16.2828 27.1903 17.4575 23.4302C18.8025 19.096 23.8759 15.3359 28.4897 15.3359Z" fill="#A6B6B7"/>
<path d="M36.9088 21.317C36.4491 19.6615 35.4021 18.397 34.1082 17.3073C33.0952 16.4588 31.8354 16.0345 30.6777 15.4355C34.7977 15.8265 37.8963 17.8064 40.101 21.1839C41.8631 23.8875 41.9652 26.8989 41.8886 29.9602C41.846 31.8569 42.5781 33.4708 44.0082 34.7602C44.8935 35.5505 45.9235 36.0829 47.0897 36.3158C47.0386 37.3723 45.6256 38.2791 44.2976 38.1626C43.3698 37.7134 42.4164 37.3141 41.5311 36.8066C39.5221 35.6753 38.8752 33.8618 38.8667 31.6905C38.8582 30.2098 38.6964 28.7207 38.6028 27.24C39.7605 24.9772 39.088 22.5981 36.9088 21.317Z" fill="#768182"/>
<path d="M36.9088 21.3165C39.088 22.606 39.7605 24.9768 38.5943 27.2396C37.1216 29.4108 34.5594 30.043 32.4228 28.7702C30.4308 27.5806 29.7243 24.9935 30.8565 23.0219C32.0823 20.884 34.6105 20.1685 36.9088 21.3165ZM34.6105 22.8056C33.1889 23.0385 32.3632 23.7789 32.4057 25.1765C32.4483 26.4909 33.274 27.1647 34.6105 27.356C34.6105 25.8337 34.6105 24.3612 34.6105 22.8056Z" fill="#2F3555"/>
<path d="M20.2245 27.8639C18.3348 25.335 19.0839 22.4816 22.0122 21.0425C24.4723 20.3104 26.6429 21.1922 27.6815 23.3301C28.5582 25.152 27.8858 27.4729 26.1492 28.6375C24.2424 29.9103 21.8589 29.5942 20.2245 27.8639ZM23.6806 22.856C22.3527 22.8976 21.2716 23.9956 21.3397 25.1603C21.4163 26.4081 22.5059 27.4396 23.6806 27.3232C23.6806 25.8507 23.6806 24.37 23.6806 22.856Z" fill="#2F3555"/>
<path d="M34.6102 22.8057C34.6102 24.353 34.6102 25.8337 34.6102 27.3477C33.2738 27.1564 32.4481 26.4826 32.4055 25.1682C32.363 23.779 33.1887 23.0386 34.6102 22.8057Z" fill="#60D5DC"/>
<path d="M23.6803 22.8555C23.6803 24.3612 23.6803 25.8502 23.6803 27.331C22.5141 27.4391 21.416 26.4076 21.3394 25.1681C21.2713 23.9951 22.3523 22.8971 23.6803 22.8555Z" fill="#52D784"/>
<defs>
<radialGradient id="paint0_radial_15817_143430" cx="0" cy="0" r="1" gradientUnits="userSpaceOnUse" gradientTransform="translate(32 32) rotate(90) scale(32)">
<stop stop-opacity="0"/>
<stop offset="1" stop-color="white"/>
</radialGradient>
<linearGradient id="paint1_linear_15817_143430" x1="32" y1="0" x2="32" y2="64" gradientUnits="userSpaceOnUse">
<stop stop-color="#4B4C4D"/>
<stop offset="1" stop-opacity="0"/>
</linearGradient>
</defs>
</svg>
