<svg width="64" height="64" viewBox="0 0 64 64" fill="none" xmlns="http://www.w3.org/2000/svg">
<circle cx="32" cy="32" r="31.75" fill="url(#paint0_radial_15817_143440)" fill-opacity="0.05" stroke="url(#paint1_linear_15817_143440)" stroke-width="0.5"/>
<g clip-path="url(#clip0_15817_143440)">
<path d="M14 32C14 36.7739 15.8964 41.3523 19.2721 44.7279C22.6477 48.1036 27.2261 50 32 50C36.7739 50 41.3523 48.1036 44.7279 44.7279C48.1036 41.3523 50 36.7739 50 32C50 27.2261 48.1036 22.6477 44.7279 19.2721C41.3523 15.8964 36.7739 14 32 14C27.2261 14 22.6477 15.8964 19.2721 19.2721C15.8964 22.6477 14 27.2261 14 32H14Z" fill="#121122"/>
<path fill-rule="evenodd" clip-rule="evenodd" d="M19.431 27.4395C19.211 28.8554 19.4703 30.3122 19.7392 31.7123C19.8427 31.9362 20.07 32.0864 20.3501 32.1831C19.7656 33.4063 19.4616 34.7446 19.4602 36.1004C19.4602 41.9594 25.1319 46.713 32.1277 46.713C39.1241 46.713 44.8003 41.9706 44.8003 36.1004C44.7988 34.7308 44.4887 33.3792 43.893 32.146C44.127 32.0492 44.3137 31.9092 44.4048 31.7123C44.6743 30.3122 44.9319 28.8548 44.712 27.4395C44.5061 25.5394 43.8541 24.9589 41.8961 25.446C40.9005 25.6778 39.587 26.2656 38.5773 26.9569C36.6879 26.0192 34.4823 25.4815 32.1283 25.4815C29.7461 25.4815 27.518 26.0327 25.6145 26.9907C24.5992 26.2847 23.2593 25.6812 22.248 25.446C20.2888 24.9595 19.638 25.5394 19.431 27.4395V27.4395ZM26.807 35.8163C25.322 35.1615 22.784 35.3269 22.784 35.3269C22.784 35.3269 22.9033 37.7164 24.3601 38.5275C26.0881 39.4883 29.3011 39.0124 29.3011 39.0124C29.3011 39.0124 29.0278 36.7905 26.807 35.8118V35.8163V35.8163ZM35.0578 39.0164C35.0578 39.0164 38.2708 39.4922 39.9988 38.5315C41.4556 37.7204 41.5749 35.3309 41.5749 35.3309C41.5749 35.3309 39.0369 35.1655 37.5519 35.8202C35.3311 36.7905 35.0578 39.0074 35.0578 39.0074V39.0164V39.0164ZM31.4938 40.7005C31.4938 40.8765 31.8211 41.0194 32.2239 41.0194C32.6272 41.0194 32.954 40.8765 32.954 40.7005C32.954 40.5244 32.6272 40.3821 32.2239 40.3821C31.8211 40.3821 31.4938 40.5194 31.4938 40.7005Z" fill="#F2F4F8"/>
<path fill-rule="evenodd" clip-rule="evenodd" d="M46.5648 39.2297C45.3792 38.7718 44.1199 38.5345 42.8489 38.5294H42.8512C42.5289 38.5294 42.5289 38.0293 42.8512 38.0293C44.1672 38.0337 45.4714 38.278 46.6998 38.7504C46.762 38.7694 46.8145 38.8114 46.8467 38.8679C46.8789 38.9244 46.8884 38.991 46.873 39.0542C46.8552 39.1181 46.8127 39.1725 46.755 39.2053C46.6973 39.2382 46.6289 39.247 46.5648 39.2297V39.2297ZM17.6394 38.7617C18.8683 38.2893 20.1731 38.045 21.4897 38.0405V38.0434C21.8114 38.0434 21.8103 38.5434 21.4897 38.5434C20.2184 38.5479 18.9584 38.7853 17.7727 39.2432C17.7088 39.2602 17.6409 39.2514 17.5834 39.2188C17.526 39.1862 17.4837 39.1323 17.4655 39.0688C17.4494 39.0049 17.4586 38.9373 17.491 38.88C17.5235 38.8227 17.5768 38.7801 17.6399 38.7611L17.6394 38.7617ZM20.1886 40.1944C20.8033 39.9987 21.4427 39.8913 22.0876 39.8754C22.4082 39.8771 22.4071 40.3755 22.0859 40.3755C21.4977 40.3908 20.9145 40.4887 20.3534 40.6663C19.8309 40.8193 19.234 41.0353 18.8527 41.3885C18.6164 41.6079 18.2632 41.2547 18.5 41.0353C18.9629 40.6078 19.5997 40.3716 20.1875 40.1944H20.1886ZM22.6585 41.1242C22.1574 41.3391 21.6747 41.5967 21.2174 41.8931C20.7554 42.178 20.3489 42.5443 20.0176 42.9742C19.9843 43.0314 19.975 43.0995 19.9916 43.1635C20.0083 43.2276 20.0495 43.2825 20.1065 43.3162C20.1642 43.3483 20.2319 43.3569 20.2958 43.3404C20.3597 43.3239 20.4147 43.2834 20.4496 43.2274C20.7309 42.8392 21.1336 42.5383 21.5324 42.2812C21.9704 42.0033 22.43 41.7609 22.9066 41.5562C22.9635 41.5224 23.0048 41.4676 23.0217 41.4036C23.0385 41.3396 23.0295 41.2716 22.9966 41.2142C22.9619 41.1583 22.9072 41.1178 22.8435 41.101C22.7799 41.0843 22.7123 41.0926 22.6546 41.1242H22.6585V41.1242ZM42.2504 40.3654C42.8388 40.38 43.4227 40.4779 43.9835 40.6556C44.2737 40.7377 44.5567 40.8424 44.8306 40.9684C45.0669 41.0719 45.2862 41.2102 45.4814 41.3784C45.7177 41.5967 46.072 41.2445 45.8358 41.024C45.3757 40.5971 44.7423 40.3603 44.1505 40.1831C43.5355 39.9874 42.8957 39.8804 42.2504 39.8653C41.9287 39.8653 41.9275 40.3659 42.2504 40.3659V40.3654ZM42.8022 42.2666C42.3698 41.9991 41.9175 41.7649 41.4494 41.5663V41.5612C41.3927 41.5273 41.3516 41.4725 41.3348 41.4086C41.318 41.3447 41.3268 41.2767 41.3594 41.2192C41.3946 41.1635 41.4496 41.1233 41.5134 41.1068C41.5771 41.0903 41.6448 41.0987 41.7025 41.1304C42.6768 41.5556 43.7017 42.1012 44.3384 42.9804C44.3714 43.0377 44.3806 43.1056 44.364 43.1696C44.3473 43.2336 44.3062 43.2885 44.2495 43.3224C44.1919 43.3543 44.1242 43.3628 44.0605 43.346C43.9968 43.3292 43.942 43.2886 43.9075 43.2324C43.6195 42.8353 43.2123 42.5276 42.8022 42.2666V42.2666Z" fill="#F2F4F8"/>
<path d="M15.7392 32.986C15.9698 32.626 18.0005 31.5426 20.512 30.8997C21.0541 29.3601 21.723 27.8681 22.5117 26.4391C22.5022 26.4391 24.521 22.8149 24.512 22.8132C23.9329 22.5495 23.3769 22.238 22.8498 21.8817C22.7607 21.8132 22.6799 21.7344 22.609 21.6471C22.5556 21.5588 22.5279 21.4573 22.5292 21.3541C22.5292 21.2697 22.6478 21.1201 22.7007 21.0537C22.8357 20.8951 22.9853 20.7483 23.1468 20.6161C23.5317 20.3008 23.9362 20.0101 24.3578 19.7459C24.5581 19.6137 24.7662 19.4849 24.971 19.3549C26.411 18.4381 27.2002 17.7479 28.5187 16.9902C29.7787 16.2679 30.3912 15.823 31.852 15.8978C33.688 15.8978 38.2522 21.7118 40.3098 24.7077C41.5439 26.5077 43.1999 29.7488 43.8097 30.9683C43.9559 31.0049 44.0881 31.0398 44.2102 31.0758C46.0822 31.6383 47.9182 32.4618 48.367 32.986C48.767 33.4518 47.0187 33.6599 45.2958 33.9597C43.5728 34.2601 37.7279 34.4091 32.1108 34.4468C26.4937 34.4851 19.9383 34.2966 18.5112 34.0722C17.0842 33.8472 15.4518 33.4349 15.7392 32.986V32.986Z" fill="#6665DD"/>
<path d="M42.2443 27.9641C42.2443 27.9641 38.5441 27.0371 32.0248 27.0371C25.025 27.0371 21.654 28.1171 21.654 28.1171C21.654 28.1171 21.254 28.877 21.0802 29.3169C20.9058 29.7568 20.5121 30.8998 20.5121 30.8998C20.5121 30.8998 25.605 29.9885 32.1232 29.9885C36.0478 30.0043 39.965 30.3356 43.8373 30.9785C43.8373 30.9785 43.2461 29.5948 42.8923 29.0053C42.6821 28.6547 42.4661 28.3075 42.2443 27.9641V27.9641Z" fill="#FF99A5"/>
<path d="M20.2229 20.1428C20.647 20.0809 21.223 21.3791 21.223 21.3791C21.223 21.3791 22.5567 21.0203 22.7649 21.3791C22.973 21.738 21.8272 22.5998 21.8272 22.5998C21.8272 22.5998 22.519 23.817 22.2997 24.0701C22.0809 24.3233 20.8467 23.5555 20.8467 23.5555C20.8467 23.5555 19.9057 24.6152 19.5991 24.4555C19.292 24.2951 19.6402 22.9142 19.6402 22.9142C19.6402 22.9142 18.3087 22.3483 18.3999 22.012C18.491 21.6761 19.8781 21.5743 19.8781 21.5743C19.8781 21.5743 19.7999 20.2052 20.2229 20.1433V20.1428Z" fill="#FFE600"/>
</g>
<defs>
<radialGradient id="paint0_radial_15817_143440" cx="0" cy="0" r="1" gradientUnits="userSpaceOnUse" gradientTransform="translate(32 32) rotate(90) scale(32)">
<stop stop-opacity="0"/>
<stop offset="1" stop-color="white"/>
</radialGradient>
<linearGradient id="paint1_linear_15817_143440" x1="32" y1="0" x2="32" y2="64" gradientUnits="userSpaceOnUse">
<stop stop-color="#4B4C4D"/>
<stop offset="1" stop-opacity="0"/>
</linearGradient>
<clipPath id="clip0_15817_143440">
<rect width="36" height="36" fill="white" transform="translate(14 14)"/>
</clipPath>
</defs>
</svg>
