<svg width="64" height="64" viewBox="0 0 64 64" fill="none" xmlns="http://www.w3.org/2000/svg">
<circle cx="32" cy="32" r="31.75" fill="url(#paint0_radial_15814_188534)" fill-opacity="0.05" stroke="url(#paint1_linear_15814_188534)" stroke-width="0.5"/>
<path d="M32.0439 32.864L25.4199 29.048L32.0439 25.376V32.864Z" fill="#7BC2F7"/>
<path d="M32.0439 35.096L24.4119 30.704L32.0439 44.96V35.096Z" fill="#7BC2F7"/>
<path d="M32.0439 19.04V25.376L25.4199 29.048L32.0439 19.04Z" fill="#47A2F8"/>
<path d="M32.0439 44.9601L24.4119 30.7041C23.4039 32.3121 21.7335 36.3345 23.6919 40.1361C25.6503 43.9377 29.9559 44.9601 32.0439 44.9601Z" fill="#47A2F8"/>
<path d="M32.0439 32.864L38.6679 29.048L32.0439 25.376V32.864Z" fill="#CAE4F7"/>
<path d="M32.0439 35.096L39.6759 30.704L32.0439 44.96V35.096Z" fill="#CAE4F7"/>
<path d="M32.0438 19.04V25.376L38.6678 29.048L32.0438 19.04Z" fill="#7BC2F7"/>
<path d="M32.0439 44.9601L39.6759 30.7041C40.6839 32.3121 42.3543 36.3345 40.3959 40.1361C38.4375 43.9377 34.1319 44.9601 32.0439 44.9601Z" fill="#7BC2F7"/>
<defs>
<radialGradient id="paint0_radial_15814_188534" cx="0" cy="0" r="1" gradientUnits="userSpaceOnUse" gradientTransform="translate(32 32) rotate(90) scale(32)">
<stop stop-opacity="0"/>
<stop offset="1" stop-color="white"/>
</radialGradient>
<linearGradient id="paint1_linear_15814_188534" x1="32" y1="0" x2="32" y2="64" gradientUnits="userSpaceOnUse">
<stop stop-color="#4B4C4D"/>
<stop offset="1" stop-opacity="0"/>
</linearGradient>
</defs>
</svg>
