<svg xmlns="http://www.w3.org/2000/svg" width="44.633" height="44.633" viewBox="0 0 44.633 44.633"><defs><style>.a{fill:#2c8389;}</style></defs><g transform="translate(-65.8 -64.4)"><path class="a" d="M108.683,78.03a22.412,22.412,0,1,0,1.749,8.686A22.214,22.214,0,0,0,108.683,78.03ZM88.121,105a18.285,18.285,0,1,1,18.285-18.285A18.306,18.306,0,0,1,88.121,105Z"/><path class="a" d="M318.74,360.412a2.012,2.012,0,0,0-2.841,0l-9.768,9.768-4.779-4.779a2.009,2.009,0,0,0-2.841,2.841l6.2,6.2a2.012,2.012,0,0,0,2.841,0l11.188-11.188A2.023,2.023,0,0,0,318.74,360.412Z" transform="translate(-220.557 -280.702)"/></g></svg>