<svg xmlns="http://www.w3.org/2000/svg" width="107.74" height="107.74" viewBox="0 0 107.74 107.74">
  <defs>
    <style>
      .cls-1 {
        fill: #0cc9b5;
      }
    </style>
  </defs>
  <path id="路径_31346" data-name="路径 31346" class="cls-1" d="M134.263,46.981A54.016,54.016,0,1,0,138.5,67.954,53.716,53.716,0,0,0,134.263,46.981ZM84.631,116.208a48.253,48.253,0,1,1,48.253-48.253A48.313,48.313,0,0,1,84.631,116.208Zm24.012-66.572h0a2.82,2.82,0,0,0-3.97.217L77.9,79.686,64.155,67.354a2.82,2.82,0,0,0-3.97.217h0a2.82,2.82,0,0,0,.217,3.97L76.181,85.685c.013.013.026.013.038.026l.026.026h0a2.82,2.82,0,0,0,3.97-.217L108.86,53.593a2.806,2.806,0,0,0-.217-3.957Z" transform="translate(-30.761 -14.084)"/>
</svg>
