<svg width="64" height="64" viewBox="0 0 64 64" fill="none" xmlns="http://www.w3.org/2000/svg">
<circle cx="32" cy="32" r="31.75" fill="url(#paint0_radial)" fill-opacity="0.05" stroke="url(#paint1_linear)" stroke-width="0.5"/>
<path d="M22.7277 18.729L47.413 36.0728L41.2627 45.2854L16.5773 27.9416L22.7277 18.729Z" fill="url(#paint2_linear)"/>
<path d="M47.4178 36.0656C45.3061 39.2287 38.0682 37.9104 31.2516 33.121C24.4349 28.3317 20.6208 21.8849 22.7325 18.7218C24.8442 15.5586 32.0821 16.8769 38.8988 21.6663C45.7154 26.4557 49.5296 32.9024 47.4178 36.0656Z" fill="url(#paint3_linear)"/>
<path d="M41.2675 45.2782C39.1557 48.4414 31.9179 47.123 25.1012 42.3337C18.2845 37.5443 14.4704 31.0976 16.5821 27.9344C18.6938 24.7713 25.9317 26.0896 32.7484 30.879C39.5651 35.6683 43.3792 42.1151 41.2675 45.2782Z" fill="url(#paint4_linear)"/>
<path d="M47.418 36.0655C47.4164 36.0679 47.4148 36.0703 47.4132 36.0727L41.2649 45.2823L41.2628 45.2854C39.1449 48.4393 31.9128 47.1194 25.1013 42.3337C23.7523 41.3858 22.5209 40.3731 21.4297 39.3337C22.3253 39.1507 23.6204 38.5893 24.8292 37.223C26.9258 34.8533 28.0567 34.4233 28.9934 34.4691C29.9301 34.5149 30.9977 35.4128 32.6747 37.7101C34.3517 40.0074 36.8165 40.6623 38.2442 39.4485C38.3684 39.343 38.4838 39.2468 38.5927 39.156C39.7368 38.2025 40.1678 37.8432 42.5087 33.4924C43.0701 32.4679 44.8721 30.6338 47.4947 31.5048C48.1699 33.3042 48.1924 34.9056 47.418 36.0655Z" fill="#0E0F23"/>
<path fill-rule="evenodd" clip-rule="evenodd" d="M46.4687 35.5142C44.6617 38.2209 38.0722 36.8146 31.7508 32.3732C25.4293 27.9318 21.7696 22.137 23.5766 19.4303C25.3836 16.7236 31.9731 18.1298 38.2945 22.5713C44.616 27.0127 48.2757 32.8074 46.4687 35.5142ZM40.7014 31.4516C39.8085 32.789 36.5506 32.0929 33.4247 29.8966C30.2988 27.7004 28.4886 24.8357 29.3815 23.4982C30.2744 22.1607 33.5323 22.8569 36.6582 25.0532C39.7841 27.2494 41.5943 30.1141 40.7014 31.4516Z" fill="white"/>
<path d="M22.1573 21.9704C22.1223 21.8306 21.9835 21.7464 21.8473 21.7822C21.711 21.818 21.6289 21.9604 21.6638 22.1002C21.7403 22.4062 21.8301 22.7147 21.9329 23.0252C21.9781 23.1618 22.1228 23.235 22.256 23.1886C22.3892 23.1422 22.4605 22.9938 22.4152 22.8571C22.3165 22.5587 22.2304 22.2629 22.1573 21.9704Z" fill="white"/>
<path d="M22.8629 24.0293C22.8059 23.8974 22.6555 23.8378 22.5269 23.8963C22.3983 23.9547 22.3402 24.1091 22.3972 24.241C23.8825 27.6803 26.8698 31.2663 30.9236 34.1144C31.0396 34.196 31.1982 34.1655 31.2777 34.0465C31.3571 33.9274 31.3275 33.7648 31.2114 33.6832C27.2194 30.8785 24.3027 27.3632 22.8629 24.0293Z" fill="white"/>
<path d="M38.9438 37.4734C38.8084 37.4344 38.6677 37.5153 38.6297 37.6542C38.5916 37.7932 38.6705 37.9375 38.8059 37.9765C39.269 38.1101 39.7278 38.2259 40.1809 38.3237C40.3185 38.3534 40.4536 38.263 40.4826 38.1218C40.5115 37.9806 40.4234 37.842 40.2857 37.8123C39.8442 37.717 39.3964 37.604 38.9438 37.4734Z" fill="white"/>
<path d="M41.3244 38.0057C41.1853 37.984 41.0554 38.0821 41.0343 38.2248C41.0131 38.3675 41.1087 38.5007 41.2478 38.5224C42.3698 38.6974 43.4485 38.7563 44.4594 38.6957C44.5998 38.6872 44.707 38.5636 44.6988 38.4195C44.6905 38.2755 44.57 38.1655 44.4296 38.1739C43.4585 38.2322 42.4157 38.176 41.3244 38.0057Z" fill="white"/>
<defs>
<radialGradient id="paint0_radial" cx="0" cy="0" r="1" gradientUnits="userSpaceOnUse" gradientTransform="translate(32 32) rotate(90) scale(32)">
<stop stop-opacity="0"/>
<stop offset="1" stop-color="white"/>
</radialGradient>
<linearGradient id="paint1_linear" x1="32" y1="0" x2="32" y2="64" gradientUnits="userSpaceOnUse">
<stop stop-color="#4B4C4D"/>
<stop offset="1" stop-opacity="0"/>
</linearGradient>
<linearGradient id="paint2_linear" x1="24.6789" y1="17.1582" x2="29.8047" y2="34.3686" gradientUnits="userSpaceOnUse">
<stop stop-color="#03B8FF"/>
<stop offset="1" stop-color="#FA52A0"/>
</linearGradient>
<linearGradient id="paint3_linear" x1="24.6789" y1="17.1582" x2="29.8047" y2="34.3686" gradientUnits="userSpaceOnUse">
<stop stop-color="#03B8FF"/>
<stop offset="1" stop-color="#FA52A0"/>
</linearGradient>
<linearGradient id="paint4_linear" x1="24.6789" y1="17.1582" x2="29.8047" y2="34.3686" gradientUnits="userSpaceOnUse">
<stop stop-color="#03B8FF"/>
<stop offset="1" stop-color="#FA52A0"/>
</linearGradient>
</defs>
</svg>
