<svg width="64" height="64" viewBox="0 0 64 64" fill="none" xmlns="http://www.w3.org/2000/svg">
<circle cx="32" cy="32" r="31.75" fill="url(#paint0_radial)" fill-opacity="0.05" stroke="url(#paint1_linear)" stroke-width="0.5"/>
<path fill-rule="evenodd" clip-rule="evenodd" d="M30.9888 16.0571C31.2994 16.0204 31.6077 16.0009 31.9128 16.0001H31.9493C32.8992 15.9953 33.8384 16.2004 34.7006 16.6011C35.1688 16.8196 35.599 17.1318 36.0215 17.437L36.0719 17.4736C36.3492 17.6742 36.3305 17.739 36.1069 18.0176C36.0544 18.0829 35.9987 18.1454 35.9399 18.205L35.5439 18.6038C34.7526 19.3999 33.9613 20.1975 33.1662 20.9913C32.9627 21.1942 32.7546 21.3948 32.548 21.5946C32.3345 21.8014 32.121 22.0083 31.9105 22.219C31.6411 22.4875 31.3763 22.7599 31.1107 23.0315C30.8987 23.2492 30.6875 23.4662 30.4739 23.6816C30.3186 23.8377 30.1618 23.9923 30.0049 24.146C29.803 24.3443 29.6019 24.5425 29.4054 24.7446C29.1368 25.0202 28.8704 25.2988 28.6056 25.5774C28.3028 25.8943 27.9999 26.212 27.6924 26.5249C27.4642 26.7566 27.2333 26.9856 26.9997 27.2118C26.7839 27.4225 26.5672 27.6348 26.3552 27.8502C26.099 28.1101 25.8474 28.3739 25.5965 28.6385C25.3752 28.8695 25.1547 29.1005 24.9311 29.3292C24.733 29.5321 24.5319 29.7335 24.3308 29.9333C24.0978 30.1651 23.8649 30.3977 23.6366 30.6334C23.3881 30.891 23.1435 31.1517 22.8989 31.4123C22.7141 31.6098 22.5293 31.8073 22.3429 32.0024C22.2404 32.1101 22.134 32.2139 22.0276 32.3185C21.9251 32.4184 21.8226 32.5191 21.724 32.6229C21.5221 32.8336 21.3225 33.0451 21.1222 33.2574C20.6578 33.753 20.1872 34.2426 19.7104 34.7263C19.5513 34.8894 19.3921 35.0517 19.2337 35.2156C18.9437 35.5146 18.6554 35.8151 18.3686 36.1171C18.3295 36.1598 18.2878 36.2 18.2436 36.2373C17.9547 36.4722 17.7978 36.4746 17.582 36.171L17.5299 36.0976C17.2325 35.6785 16.932 35.2547 16.7076 34.795C16.2626 33.8849 15.9575 32.9265 16.0048 32.1905C16.0204 30.2603 16.5197 28.811 17.5742 27.5669C17.7326 27.3796 17.9081 27.2063 18.0836 27.033C18.1752 26.9417 18.2677 26.8504 18.3577 26.7575C18.5154 26.5936 18.6722 26.4289 18.8291 26.2635C19.1148 25.9645 19.3998 25.6648 19.691 25.3706C20.028 25.0295 20.3697 24.6916 20.7106 24.3544C20.9544 24.1132 21.1983 23.8728 21.4406 23.6301C21.6199 23.4506 21.7978 23.2695 21.9748 23.0877C22.1674 22.8902 22.3607 22.6927 22.5564 22.4976C22.7956 22.2596 23.0371 22.0239 23.2786 21.7882C23.4463 21.625 23.6133 21.4627 23.7795 21.2988C24.4423 20.6476 25.0995 19.9907 25.7511 19.3281C26.2271 18.8465 26.7023 18.365 27.1838 17.8904C28.243 16.8477 29.5072 16.2342 30.9888 16.0571ZM36.8578 22.7809C37.4185 22.091 38.1655 21.8233 39.0274 21.7897L39.1695 21.7874C40.0843 21.7874 40.836 22.1331 41.489 22.8098C42.8226 24.1834 44.1712 25.542 45.5348 26.8855C46.4511 27.7948 46.6079 27.9922 46.9092 28.4598C47.723 29.7195 47.9032 30.8754 47.9451 31.1821C47.9692 31.3585 48.0492 31.9961 47.956 32.8274C47.8337 33.9282 47.4517 34.9838 46.8417 35.9064C46.6304 36.2201 46.3462 36.5464 45.7592 37.1786C45.2813 37.6872 44.7938 38.1865 44.297 38.6763C44.0322 38.9393 43.7627 39.1977 43.494 39.4568C43.2712 39.6714 43.0475 39.8861 42.827 40.103C42.528 40.3973 42.2329 40.6962 41.9371 40.9936L41.5279 41.4057L40.9299 42.0051L40.1099 42.8285L39.4491 43.495L38.6034 44.3458C38.4008 44.5487 38.1996 44.7563 38.0001 44.9624C37.5287 45.4494 37.0581 45.9356 36.5503 46.3805C35.5672 47.2437 34.4218 47.7885 33.1002 47.9415C32.7686 47.9789 32.4393 47.9992 32.1132 48H32.093C31.1317 47.9984 30.1975 47.8213 29.3037 47.4022C28.8634 47.1961 28.4588 46.9104 28.0582 46.6263L27.9277 46.5343C27.6699 46.3524 27.6676 46.2103 27.8858 45.9785C28.142 45.7054 28.4084 45.4416 28.6747 45.177C28.8561 44.9971 29.0365 44.8163 29.216 44.6345C29.3596 44.4886 29.5033 44.3426 29.6508 44.199C30.1189 43.7409 30.5882 43.2841 31.0587 42.8285C31.0765 42.8113 31.0959 42.7957 31.1154 42.7793C31.1386 42.759 31.1619 42.7395 31.1837 42.7169L31.6271 42.258C31.9144 41.9598 32.2017 41.6617 32.4929 41.3667C32.7422 41.1146 32.9953 40.8656 33.2477 40.6174C33.4123 40.455 33.577 40.2935 33.74 40.1311C33.9279 39.9438 34.1112 39.7526 34.2945 39.5614C34.3341 39.52 34.3721 39.4771 34.4109 39.4342C34.4568 39.3834 34.5018 39.3327 34.5507 39.2843L34.7992 39.0338C35.2752 38.553 35.752 38.0738 36.2319 37.5977C36.4633 37.3674 36.6978 37.1411 36.9308 36.9148C37.1381 36.7142 37.3455 36.5136 37.5505 36.3107C37.7058 36.1569 37.8626 36.0039 38.0195 35.8517C38.4846 35.4038 38.94 34.9458 39.3854 34.4781C39.8979 33.9317 40.1549 33.2449 40.2442 32.5113C40.3499 31.6418 40.0936 30.8488 39.6354 30.1152C39.3823 29.7109 39.0546 29.675 38.7036 30.016C38.1756 30.528 37.6475 31.0416 37.121 31.5552L36.3026 32.3528L35.7707 32.8695C35.0982 33.5251 34.4257 34.1807 33.7517 34.834C33.4993 35.0783 33.2462 35.321 32.9922 35.5637C32.6218 35.9196 32.2506 36.2755 31.8833 36.6361C31.4771 37.0361 31.0725 37.4378 30.6696 37.8412C30.3233 38.187 29.9762 38.5327 29.6283 38.8761C29.393 39.1079 29.1538 39.3343 28.9139 39.5606L28.4775 39.9743L27.3647 41.0459L26.8491 41.5423C26.5494 41.8318 26.1774 41.9926 25.7876 42.105C25.2557 42.2587 24.7113 42.2533 24.1716 42.1588C23.6047 42.0589 23.1287 41.7803 22.7234 41.3721C22.4469 41.0935 22.1689 40.8164 21.8917 40.5386C21.5073 40.1546 21.123 39.7698 20.7401 39.3834C20.4683 39.1079 20.4769 39.072 20.7378 38.8121C21.7566 37.7959 22.7739 36.779 23.7911 35.762L24.8588 34.6943L26.7287 32.8274C27.7056 31.8525 28.6822 30.8774 29.6586 29.9021C29.8752 29.689 30.0934 29.4791 30.3124 29.2691C30.5663 29.0248 30.8203 28.7813 31.0703 28.5331C31.3165 28.2888 31.558 28.0399 31.8003 27.7917C31.9952 27.5895 32.1908 27.3882 32.3896 27.1883C32.6397 26.9363 32.8936 26.6865 33.1468 26.436L33.6678 25.9208C33.8736 25.7164 34.0786 25.5103 34.2828 25.305C34.5903 24.9967 34.8971 24.6884 35.2069 24.3841C35.547 24.0485 35.8902 23.7175 36.2342 23.3866L36.7087 22.9285L36.7522 22.8879C36.7887 22.8535 36.826 22.8192 36.8578 22.7809Z" fill="#FF5934"/>
<defs>
<radialGradient id="paint0_radial" cx="0" cy="0" r="1" gradientUnits="userSpaceOnUse" gradientTransform="translate(32 32) rotate(90) scale(32)">
<stop stop-opacity="0"/>
<stop offset="1" stop-color="white"/>
</radialGradient>
<linearGradient id="paint1_linear" x1="32" y1="0" x2="32" y2="64" gradientUnits="userSpaceOnUse">
<stop stop-color="#4B4C4D"/>
<stop offset="1" stop-opacity="0"/>
</linearGradient>
</defs>
</svg>
