<svg width="64" height="64" viewBox="0 0 64 64" fill="none" xmlns="http://www.w3.org/2000/svg">
<circle cx="32" cy="32" r="31.75" fill="url(#paint0_radial)" fill-opacity="0.05" stroke="url(#paint1_linear)" stroke-width="0.5"/>
<path d="M38.2725 38.9543C38.3184 38.9648 38.3642 38.9859 38.5017 39.0384C38.3413 39.3014 38.1809 39.5538 37.9975 39.8589C37.9173 39.6695 37.8829 39.5749 37.8371 39.4381C35.568 41.6575 32.9552 43.2773 29.5745 43.7401C29.3453 44.0977 29.0817 44.5079 28.8067 44.9287C28.8525 44.9918 28.8984 45.0549 28.9557 45.1285C28.8296 45.5387 28.3139 45.8122 28.4514 46.3381C28.1191 46.6852 28.0389 47.1059 28.0962 47.5162C27.9128 47.6845 27.7638 47.8212 27.5919 47.9895C27.1565 47.7581 26.6981 47.6634 26.2626 48C25.85 47.7476 25.8271 47.3689 25.6896 47.0218C25.5521 46.7063 25.2541 46.4538 25.0135 46.1593C25.0135 46.1488 25.0135 46.1172 25.0135 46.0962C25.0135 45.6124 24.8989 45.097 25.0478 44.6657C25.1854 44.266 25.2656 43.8348 25.426 43.4561C25.6667 42.8671 25.5979 42.4779 25.0364 42.0993C24.7728 41.931 24.6353 41.5944 24.4749 41.3104C24.0967 40.6372 23.6841 39.9746 23.3976 39.2698C23.008 38.3232 22.8476 37.8604 23.1799 36.8507C23.2601 36.6087 23.2945 36.3353 23.3632 36.0723C23.5351 35.3255 23.9592 34.7365 24.5436 34.2316C25.2197 34.2316 25.3343 34.2842 25.9188 34.7996C25.9188 34.9679 25.9188 35.1362 25.9188 35.294C26.423 35.6831 27.3398 35.5043 27.5003 36.3563C27.42 36.5456 27.3284 36.777 27.2023 37.0821C27.4086 37.061 27.6149 37.04 27.9128 37.0084C27.9014 36.9979 27.9816 37.0715 28.0733 37.1452C27.7524 37.5449 28.0274 37.9866 27.8899 38.3968C28.7494 38.6072 29.437 38.2601 30.1017 38.0077C30.8465 37.7131 31.58 37.3766 32.2676 36.9348C33.1156 36.3878 33.574 35.5885 34.0782 34.7996C34.1585 34.6734 34.0897 34.463 34.0897 34.2947C33.8605 34.0949 33.6771 33.9055 33.299 33.8319C32.8291 33.7372 32.3936 33.4112 31.9696 33.1482C31.4998 32.8537 30.9611 32.6854 30.5028 32.3488C29.5974 31.6862 28.7265 31.013 28.2337 30.0033C27.7524 29.0251 27.443 27.9943 27.0189 26.9951C27.1106 26.3745 26.8585 25.7434 27.1679 25.1018C27.443 24.5233 27.7868 24.0815 28.3941 23.808C28.4744 23.7765 28.5317 23.6923 28.589 23.6292C29.288 22.8719 30.1933 22.4301 31.1903 22.1251C31.5341 22.0199 31.8321 21.7885 32.153 21.6307C32.577 21.4099 32.9781 21.1995 33.4594 21.0838C33.849 20.9891 34.1699 20.6946 34.3647 20.2844C34.7773 19.4535 35.2242 18.6225 35.7399 17.8442C36.2442 17.0763 36.8401 16.3716 38.009 16.014C38.2955 15.9824 38.7882 15.9719 39.2466 16.3506C39.155 16.4137 39.0862 16.5084 38.9945 16.5189C38.6278 16.5925 38.2611 16.6556 38.1007 17.0448C38.1007 17.0448 38.0892 17.0343 38.0777 17.0237C38.0319 17.0658 37.9746 17.1079 37.9288 17.1394C37.9517 17.1605 37.9631 17.171 37.9861 17.192C38.0319 17.15 38.0663 17.0974 38.1007 17.0448C38.2152 17.0343 38.3298 17.0343 38.4559 17.0343C38.3986 17.1184 38.3413 17.2131 38.2496 17.3709C38.8226 17.3077 39.2581 16.8449 39.8884 17.0869C39.8999 17.2972 39.9113 17.5707 39.9228 17.8231C40.0488 17.8652 40.152 17.8968 40.2666 17.9388C40.0832 18.7803 39.2237 19.3798 39.3842 20.337C38.9831 20.6946 38.5705 21.0522 38.6393 21.6518C39.1091 22.2303 39.6363 22.7772 40.0488 23.3873C40.427 23.9658 40.6906 24.6074 41 25.2175C40.851 25.6487 40.702 26.0694 40.5416 26.5217C40.5187 26.5007 40.4614 26.4586 40.3926 26.4165C39.9572 26.7426 39.5102 27.0792 39.0174 27.4473C38.857 27.3211 38.708 27.2054 38.5247 27.0687C38.3757 27.0687 38.2038 27.0687 38.0319 27.0687C37.4933 26.7531 37.4589 26.2167 37.287 25.6698C36.9317 25.7223 36.5765 25.7644 36.1639 25.8275C36.141 25.7749 36.0837 25.6592 35.992 25.5015C35.1211 25.9117 34.2043 26.2588 33.3906 26.7531C32.7718 27.1318 32.0613 27.4894 31.7863 28.2362C32.1415 27.9838 32.4853 27.7208 32.852 27.4789C32.9322 27.4263 33.0698 27.4368 33.1844 27.4158C32.7718 27.847 32.3478 28.2783 31.8894 28.7621C32.3593 29.0461 32.8176 29.3932 33.3333 29.6141C34.4335 30.1085 35.4649 30.708 36.2671 31.581C36.989 32.3804 37.6881 33.1903 38.1236 34.1685C38.3184 34.5997 38.4559 35.052 38.6393 35.4938C38.708 35.6621 38.8226 35.8199 38.9831 36.1039C38.9831 36.4615 38.9831 36.9664 38.9831 37.5133C38.7309 37.934 38.3757 38.3863 38.2725 38.9543C38.2725 38.9543 38.2611 38.9438 38.2496 38.9333C38.2038 38.9753 38.1465 39.0174 38.1007 39.049C38.1236 39.07 38.135 39.0805 38.1579 39.1016C38.1923 39.049 38.2382 39.0069 38.2725 38.9543ZM35.4993 24.5127C34.7314 24.8704 33.998 25.1228 33.3563 25.533C32.703 25.9432 31.8665 26.1851 31.5685 26.9951C32.1759 26.6164 32.7833 26.2798 33.4479 26.0063C34.2616 25.6698 35.0294 25.228 35.8201 24.8388C35.9691 24.7652 36.1181 24.681 36.416 24.5127C35.9462 24.5127 35.6826 24.5127 35.4993 24.5127ZM35.8545 39.8799C34.5366 40.5951 33.4021 41.2052 32.2676 41.8153C32.2561 41.8258 32.2676 41.8679 32.2676 41.973C33.0927 42.1308 33.6657 41.5418 34.3303 41.2999C34.9377 41.079 35.419 40.6267 35.8545 39.8799ZM34.2501 22.5038C33.9866 22.5038 33.7688 22.4196 33.4938 22.5563C32.5197 23.0717 31.4998 23.524 30.5142 24.0079C30.4111 24.0605 30.3423 24.1656 30.2621 24.2498C30.2048 24.3129 30.159 24.376 30.1131 24.4391C31.4998 23.7765 32.9781 23.3557 34.2501 22.5038ZM30.2965 39.7852C31.9238 39.5013 33.0698 38.9017 33.6657 38.0918C33.5396 38.0918 33.3677 38.0392 33.3104 38.1023C32.4624 38.807 31.3622 39.1016 30.2965 39.7852ZM31.0299 24.7547C32.0728 24.2708 33.1271 23.787 34.1699 23.2926C34.2043 23.2821 34.2043 23.219 34.2387 23.1559C34.0209 23.1559 33.8147 23.1559 33.6657 23.1559C32.7718 23.7239 31.729 24.0079 31.0299 24.7547ZM32.153 39.8063C32.3707 39.7221 32.5999 39.638 32.8062 39.5328C33.001 39.4276 33.1844 39.3014 33.3792 39.1752C33.6886 38.9753 33.7344 38.9227 33.8147 38.7229C33.1729 39.0069 32.5999 39.3014 32.153 39.8063Z" fill="white"/>
<defs>
<radialGradient id="paint0_radial" cx="0" cy="0" r="1" gradientUnits="userSpaceOnUse" gradientTransform="translate(32 32) rotate(90) scale(32)">
<stop stop-opacity="0"/>
<stop offset="1" stop-color="white"/>
</radialGradient>
<linearGradient id="paint1_linear" x1="32" y1="0" x2="32" y2="64" gradientUnits="userSpaceOnUse">
<stop stop-color="#4B4C4D"/>
<stop offset="1" stop-opacity="0"/>
</linearGradient>
</defs>
</svg>
