<svg width="64" height="64" viewBox="0 0 64 64" fill="none" xmlns="http://www.w3.org/2000/svg">
<circle cx="32" cy="32" r="31.75" fill="url(#paint0_radial_14585_74964)" fill-opacity="0.05" stroke="url(#paint1_linear_14585_74964)" stroke-width="0.5"/>
<path d="M33.522 41.9735H20.6296L23.3438 46.6668H31.0688L33.522 41.9735Z" fill="#FB6706"/>
<path d="M37.618 34.7226L36.0026 37.5522C35.7594 37.9782 35.3131 38.2402 34.8304 38.2402H20.2506C19.129 38.2402 18.093 37.6273 17.5346 36.6333L16.6929 35.1352C15.7691 33.491 15.769 31.4693 16.6926 29.825L22.2047 20.012C23.1353 18.3552 24.8621 17.3335 26.7316 17.3335H28.7722L21.779 30.2795C20.9342 31.8435 22.0414 33.7602 23.7897 33.7602H37.077C37.5604 33.7602 37.8616 34.296 37.618 34.7226Z" fill="#FB6706"/>
<path d="M43.3349 22.0268H30.4425L32.9479 17.3335H38.2379C39.7147 17.3335 41.0816 18.1305 41.8329 19.4296L43.3349 22.0268Z" fill="#FB6706"/>
<path d="M25.797 30.2402L28.459 25.7602H43.6612C44.8108 25.7602 45.8681 26.4038 46.4154 27.4369L47.4965 29.4779C48.1865 30.7803 48.1661 32.3551 47.4427 33.6384L41.3034 44.5297C40.5581 45.8519 39.1784 46.6668 37.685 46.6668H35.1923L42.2908 33.59C42.3251 33.5267 42.3432 33.4555 42.3432 33.3831V32.4802C42.3432 31.243 41.3617 30.2402 40.1509 30.2402H25.797Z" fill="#FB6706"/>
<defs>
<radialGradient id="paint0_radial_14585_74964" cx="0" cy="0" r="1" gradientUnits="userSpaceOnUse" gradientTransform="translate(32 32) rotate(90) scale(32)">
<stop stop-opacity="0"/>
<stop offset="1" stop-color="white"/>
</radialGradient>
<linearGradient id="paint1_linear_14585_74964" x1="32" y1="0" x2="32" y2="64" gradientUnits="userSpaceOnUse">
<stop stop-color="#4B4C4D"/>
<stop offset="1" stop-opacity="0"/>
</linearGradient>
</defs>
</svg>
