<svg width="64" height="64" viewBox="0 0 64 64" fill="none" xmlns="http://www.w3.org/2000/svg">
<circle cx="32" cy="32" r="31.75" fill="url(#paint0_radial)" fill-opacity="0.05" stroke="url(#paint1_linear)" stroke-width="0.5"/>
<path d="M23.662 26.0993C23.4366 25.8079 23.2113 25.7351 22.9108 25.7351H16.2254C16.1502 25.7351 16.1502 25.7351 16.0751 25.6623C16 25.5894 16 25.5894 16 25.5166V21.1457C16 21.0728 16 21.0728 16.0751 21C16.0751 21 16.1502 21 16.2254 21H23.2864C25.0892 21 26.5915 21.7285 27.8685 23.1126L29.5962 25.1523L26.2911 29.0861L23.662 26.0993ZM36.0563 23.1126C37.3333 21.7285 38.8357 21 40.6385 21H47.6995C47.7746 21 47.7747 21 47.8498 21.0728C47.8498 21.0728 47.9249 21.1457 47.9249 21.2185V25.5894C47.9249 25.6623 47.9249 25.6623 47.8498 25.7351C47.8498 25.7351 47.7746 25.8079 47.6995 25.8079H41.0141C40.7136 25.8079 40.4131 25.9536 40.1878 26.1722L35.3052 32L40.2629 37.8278C40.4883 38.0464 40.7887 38.1921 41.0892 38.1921H47.7746C47.8498 38.1921 47.8498 38.1921 47.9249 38.2649C47.9249 38.2649 48 38.3377 48 38.4106V42.7815C48 42.8543 48 42.8543 47.9249 42.9272C47.9249 42.9272 47.8498 43 47.7746 43H40.7136C38.9108 43 37.4085 42.2715 36.1315 40.8874L32.0751 36.0795L27.8685 40.6689C26.5915 42.053 25.0141 42.7815 23.2113 42.7815H16.2254C16.1502 42.7815 16.1502 42.7815 16.0751 42.7086C16.0751 42.7086 16 42.6358 16 42.5629V38.1921C16 38.1192 16 38.1192 16.0751 38.0464C16.0751 38.0464 16.1502 37.9735 16.2254 37.9735H22.9108C23.2113 37.9735 23.5117 37.8278 23.7371 37.6093L28.5446 31.9272L36.0563 23.1126Z" fill="#00DCFF"/>
<defs>
<radialGradient id="paint0_radial" cx="0" cy="0" r="1" gradientUnits="userSpaceOnUse" gradientTransform="translate(32 32) rotate(90) scale(32)">
<stop stop-opacity="0"/>
<stop offset="1" stop-color="white"/>
</radialGradient>
<linearGradient id="paint1_linear" x1="32" y1="0" x2="32" y2="64" gradientUnits="userSpaceOnUse">
<stop stop-color="#4B4C4D"/>
<stop offset="1" stop-opacity="0"/>
</linearGradient>
</defs>
</svg>
