<svg xmlns="http://www.w3.org/2000/svg" xmlns:xlink="http://www.w3.org/1999/xlink" width="40" height="40" viewBox="0 0 40 40"><defs><style>.a{fill:url(#a);}</style><linearGradient id="a" x1="0.5" x2="0.5" y2="1" gradientUnits="objectBoundingBox"><stop offset="0" stop-color="#a3dff7"/><stop offset="1" stop-color="#000303"/></linearGradient></defs><path class="a" d="M26.54,29.174l3.281-15.469c.29-1.361-.491-1.9-1.384-1.563L9.151,19.576c-1.317.513-1.294,1.25-.223,1.584l4.933,1.54,11.451-7.21c.536-.357,1.027-.156.626.2l-9.263,8.37-.357,5.09a1.254,1.254,0,0,0,1-.491l2.41-2.321,5,3.683c.916.513,1.563.246,1.809-.849ZM40,20A20,20,0,1,1,20,0,20,20,0,0,1,40,20Z"/></svg>