<svg xmlns="http://www.w3.org/2000/svg" width="40" height="40" viewBox="0 0 40 40">
  <defs>
    <style>
      .cls-1 {
        fill: #939ca5;
      }

      .cls-2 {
        fill: #e8e8e8;
      }
    </style>
  </defs>
  <g id="组_66059" data-name="组 66059" transform="translate(-181 -707)">
    <g id="组_57151" data-name="组 57151" transform="translate(181 707)">
      <g id="组_57147" data-name="组 57147">
        <g id="组_57143" data-name="组 57143" transform="translate(0 0)">
          <rect id="矩形_21457" data-name="矩形 21457" class="cls-1" width="40" height="40" rx="20" transform="translate(0 0)"/>
        </g>
      </g>
    </g>
    <path id="路径_32879" data-name="路径 32879" class="cls-2" d="M22.532,1.82,19.388,20.687a.782.782,0,0,1-.394.553.79.79,0,0,1-.381.1.825.825,0,0,1-.295-.062l-5.093-2.082a.689.689,0,0,0-.791.2L9.783,22.629a.725.725,0,0,1-.6.282.7.7,0,0,1-.273-.049.793.793,0,0,1-.518-.738V18.33a1.382,1.382,0,0,1,.31-.871L19,4.829,6.033,16.055a.345.345,0,0,1-.355.058L1.022,14.205a.714.714,0,0,1-.49-.677A.73.73,0,0,1,.925,12.8L21.364,1.009A.741.741,0,0,1,21.758.9a.768.768,0,0,1,.445.138.756.756,0,0,1,.329.783Z" transform="translate(189.47 715.101)"/>
  </g>
</svg>
