<svg width="64" height="64" viewBox="0 0 64 64" fill="none" xmlns="http://www.w3.org/2000/svg">
<circle cx="32" cy="32" r="31.75" fill="url(#paint0_radial_16380_207262)" fill-opacity="0.05" stroke="url(#paint1_linear_16380_207262)" stroke-width="0.5"/>
<g clip-path="url(#clip0_16380_207262)">
<path fill-rule="evenodd" clip-rule="evenodd" d="M47.873 41.7174C46.7036 43.3223 45.2303 44.7213 43.4699 45.8236C35.4701 50.8328 24.5719 47.8166 19.1282 39.0867C13.6844 30.3569 15.7565 19.2192 23.7563 14.2101C23.8713 14.1381 23.9869 14.0677 24.103 13.999C23.4294 14.3056 22.769 14.6597 22.126 15.0623C13.7516 20.3061 11.4792 31.7997 17.0505 40.734C22.6217 49.6683 33.9269 52.6602 42.3013 47.4165C44.6523 45.9444 46.5224 43.9797 47.873 41.7174ZM42.0904 44.4886C48.9478 40.1947 50.556 30.3781 45.6824 22.5626C40.8088 14.7471 31.299 11.8922 24.4415 16.1861C17.5841 20.4799 15.9759 30.2965 20.8495 38.112C25.7231 45.9275 35.233 48.7824 42.0904 44.4886ZM40.8618 41.8883C46.5497 38.3268 47.8689 30.1608 43.8083 23.649C39.7477 17.1373 31.8449 14.7456 26.157 18.3072C20.4691 21.8687 19.15 30.0347 23.2106 36.5465C27.2712 43.0583 35.1739 45.4499 40.8618 41.8883ZM41.6101 25.1122C44.8855 30.3648 43.8046 36.9622 39.196 39.8479C34.5873 42.7337 28.196 40.815 24.9206 35.5625C21.6453 30.3099 22.7261 23.7125 27.3347 20.8267C31.9434 17.941 38.3347 19.8596 41.6101 25.1122ZM39.3922 26.6875C42.0605 30.9665 41.2109 36.3218 37.4946 38.6488C33.7782 40.9758 28.6024 39.3934 25.9341 35.1144C23.2658 30.8353 24.1154 25.4801 27.8317 23.1531C31.5481 20.826 36.7239 22.4084 39.3922 26.6875Z" fill="#24FFCA"/>
</g>
<defs>
<radialGradient id="paint0_radial_16380_207262" cx="0" cy="0" r="1" gradientUnits="userSpaceOnUse" gradientTransform="translate(32 32) rotate(90) scale(32)">
<stop stop-opacity="0"/>
<stop offset="1" stop-color="white"/>
</radialGradient>
<linearGradient id="paint1_linear_16380_207262" x1="32" y1="0" x2="32" y2="64" gradientUnits="userSpaceOnUse">
<stop stop-color="#4B4C4D"/>
<stop offset="1" stop-opacity="0"/>
</linearGradient>
<clipPath id="clip0_16380_207262">
<rect width="36" height="36" fill="white" transform="translate(14 14)"/>
</clipPath>
</defs>
</svg>
