<svg xmlns="http://www.w3.org/2000/svg" width="166.5" height="57.102" viewBox="0 0 166.5 57.102"><defs><style>.a{fill:#0c252f;}.b{fill:#19d7c3;}.c{fill:#0f2b36;}</style></defs><g transform="translate(-0.5)"><path class="a" d="M787.679,0l94.567,0a28.53,28.53,0,1,1,0,57.061l-94.563,0c10.1-5.972,16.807-16.521,16.807-28.534S797.781,5.972,787.675,0Z" transform="translate(-743.777)"/><path class="b" d="M0,28.534A28.534,28.534,0,1,0,28.534,0,28.534,28.534,0,0,0,0,28.534Z" transform="translate(0.5 0.033)"/><path class="c" d="M183.06,208.571a25.511,25.511,0,1,1,25.511-25.511A25.511,25.511,0,0,1,183.06,208.571Zm2.553-25.511V170.305h-5.106v17.856h15.309v-5.1Z" transform="translate(-154.049 -154.515)"/></g></svg>