<svg xmlns="http://www.w3.org/2000/svg" width="29.762" height="29.762" viewBox="0 0 29.762 29.762"><defs><style>.a{fill:#939ca5;}</style></defs><g transform="translate(-62.33 -65.27)"><path class="a" d="M77.211,95.032A14.836,14.836,0,1,1,83,93.862,14.786,14.786,0,0,1,77.211,95.032Zm0-28.489A13.609,13.609,0,1,0,90.819,80.151,13.624,13.624,0,0,0,77.211,66.542Z" transform="translate(0 0)"/><path class="a" d="M387.638,324.106a1.779,1.779,0,0,0-1.4.518,2.615,2.615,0,0,0-.581,1.21.564.564,0,0,1-.555.451h-1.021a.568.568,0,0,1-.565-.622,3.816,3.816,0,0,1,1-2.509,4.292,4.292,0,0,1,3.114-1.1,4.68,4.68,0,0,1,3.144.994,3.349,3.349,0,0,1,1.164,2.685,2.965,2.965,0,0,1-.54,1.7,7.874,7.874,0,0,1-1.8,1.7,2.2,2.2,0,0,0-.684.836,2.679,2.679,0,0,0-.2.654.566.566,0,0,1-.559.472h-1.029a.568.568,0,0,1-.567-.595,3.344,3.344,0,0,1,.33-1.427,4.574,4.574,0,0,1,1.5-1.539,2.325,2.325,0,0,0,.722-.789,2.142,2.142,0,0,0,.213-1.011,1.574,1.574,0,0,0-.459-1.189A1.734,1.734,0,0,0,387.638,324.106Z" transform="translate(-310.522 -248.254)"/><path class="a" d="M469.557,631.43h1.415a.567.567,0,0,1,.567.567v1.3a.567.567,0,0,1-.567.567h-1.415a.567.567,0,0,1-.567-.567V632A.567.567,0,0,1,469.557,631.43Z" transform="translate(-393.158 -547.362)"/></g></svg>