<svg xmlns="http://www.w3.org/2000/svg" width="13.63" height="13.63" viewBox="0 0 13.63 13.63"><defs><style>.a{fill:#939ca5;}</style></defs><g transform="translate(-62.33 -65.27)"><path class="a" d="M69.145,78.9a6.795,6.795,0,1,1,2.653-.536A6.771,6.771,0,0,1,69.145,78.9Zm0-13.047a6.232,6.232,0,1,0,6.232,6.232A6.239,6.239,0,0,0,69.145,65.853Z" transform="translate(0)"/><path class="a" d="M385.4,322.992a.815.815,0,0,0-.64.237,1.2,1.2,0,0,0-.266.554.258.258,0,0,1-.254.207h-.467a.26.26,0,0,1-.259-.285,1.748,1.748,0,0,1,.46-1.149,1.966,1.966,0,0,1,1.426-.506,2.143,2.143,0,0,1,1.44.455,1.534,1.534,0,0,1,.533,1.23,1.358,1.358,0,0,1-.247.776,3.605,3.605,0,0,1-.823.781,1.007,1.007,0,0,0-.313.383,1.226,1.226,0,0,0-.092.3.259.259,0,0,1-.256.216h-.471a.26.26,0,0,1-.26-.272,1.531,1.531,0,0,1,.151-.654,2.1,2.1,0,0,1,.689-.7,1.065,1.065,0,0,0,.331-.361.981.981,0,0,0,.1-.463.721.721,0,0,0-.21-.545A.794.794,0,0,0,385.4,322.992Z" transform="translate(-316.303 -252.876)"/><path class="a" d="M469.25,631.43h.648a.26.26,0,0,1,.26.26v.593a.26.26,0,0,1-.26.26h-.648a.26.26,0,0,1-.26-.26v-.593A.26.26,0,0,1,469.25,631.43Z" transform="translate(-400.476 -557.551)"/></g></svg>