<svg xmlns="http://www.w3.org/2000/svg" width="15" height="15" viewBox="0 0 15 15">
  <defs>
    <style>
      .cls-1 {
        fill: #939ca5;
      }
    </style>
  </defs>
  <path id="路径_14613" data-name="路径 14613" class="cls-1" d="M130.339,138.9h9.231a1.628,1.628,0,0,0,1.648-1.666v-1.667a.55.55,0,1,1,1.1,0v1.667a2.736,2.736,0,0,1-2.748,2.778H129.9l2.033,2.056a.541.541,0,0,1,0,.778.527.527,0,0,1-.769,0l-2.693-2.722a.6.6,0,0,1-.164-.389.507.507,0,0,1,.164-.389l2.693-2.722a.527.527,0,0,1,.769,0,.541.541,0,0,1,0,.778Zm11.044-7.222h-10.6a1.628,1.628,0,0,0-1.649,1.666v1.667a.549.549,0,1,1-1.1,0v-1.667a2.734,2.734,0,0,1,2.747-2.777H141l-1.594-1.611a.541.541,0,0,1,0-.777.527.527,0,0,1,.77,0l2.692,2.778a.6.6,0,0,1,.165.389.507.507,0,0,1-.165.389l-2.691,2.721a.527.527,0,0,1-.769,0,.541.541,0,0,1,0-.778l1.978-2Z" transform="translate(-128.032 -128.016)"/>
</svg>
