<svg xmlns="http://www.w3.org/2000/svg" width="40" height="40" viewBox="0 0 40 40"><defs><style>.a{fill:#2c8389;}.b{fill:#e8e9e9;}</style></defs><g transform="translate(-644 -1103)"><g transform="translate(463 449)"><g transform="translate(181 654)"><g transform="translate(0 0)"><rect class="a" width="40" height="40" rx="12" transform="translate(0 0)"/></g></g></g><g transform="translate(652 1029.8)"><path class="b" d="M267.869,548.542a4.509,4.509,0,0,0-.879-2.784A4.645,4.645,0,0,0,263.326,544h-2.637a4.825,4.825,0,0,0-2.784.879,4.156,4.156,0,0,0-1.758,2.931c-.147,1.319,0,2.784-.147,4.249.147,0,.44.146.586.146a20.908,20.908,0,0,0,5.128.879,23.737,23.737,0,0,0,3.224-.147,17.712,17.712,0,0,0,2.637-.733c.147,0,.147-.146.147-.293A27.085,27.085,0,0,0,267.869,548.542Z" transform="translate(-250.139 -450.25)"/><path class="b" d="M8.205,393.624c.293-.147.44-.147.733-.293A3.9,3.9,0,0,1,7.619,390.4H4.542a5.267,5.267,0,0,0-1.612.293A4.428,4.428,0,0,0,0,394.649v3.663c0,.147,0,.147.147.293a30.012,30.012,0,0,0,3.517.733c.44,0,1.026.147,1.465.147v-.879a4.057,4.057,0,0,1,.147-1.319A5.356,5.356,0,0,1,8.205,393.624Z" transform="translate(0 -300.167)"/><path class="b" d="M655.045,394.942a4.511,4.511,0,0,0-.44-1.9,4.28,4.28,0,0,0-4.1-2.637h-2.784a3.689,3.689,0,0,1-1.319,2.93.512.512,0,0,1,.293.147,6.146,6.146,0,0,1,2.051,1.319,5.25,5.25,0,0,1,1.319,3.517v1.026c.733-.146,1.319-.146,2.051-.293a10.216,10.216,0,0,0,2.784-.879c.147,0,.147-.147.147-.293Z" transform="translate(-631.601 -300.167)"/><path class="b" d="M368.317,243.687a3.35,3.35,0,0,0,3.37-3.517,3.444,3.444,0,0,0-6.887,0A3.668,3.668,0,0,0,368.317,243.687Z" transform="translate(-356.448 -150.083)"/><path class="b" d="M616.451,89.794a4.335,4.335,0,0,0,1.465.293,3.35,3.35,0,0,0,3.37-3.517,3.444,3.444,0,0,0-6.887,0A3.885,3.885,0,0,1,616.451,89.794Z" transform="translate(-600.334)"/><path class="b" d="M105.917,96.34a3.481,3.481,0,0,0,1.758-.44,3.889,3.889,0,0,1,1.612-2.784V92.97a3.444,3.444,0,0,0-6.887,0A3.54,3.54,0,0,0,105.917,96.34Z" transform="translate(-100.056 -6.253)"/></g></g></svg>