<svg xmlns="http://www.w3.org/2000/svg" width="19" height="19" viewBox="0 0 19 19"><defs><style>.a{fill:#2c8389;}.b{fill:#e8e9e9;}</style></defs><g transform="translate(0 0)"><g transform="translate(0 0)"><rect class="a" width="19" height="19" rx="6" transform="translate(0 0)"/></g></g><g transform="translate(3.81 4.762)"><path class="b" d="M261.652,546.163a2.147,2.147,0,0,0-.419-1.326,2.212,2.212,0,0,0-1.744-.837h-1.256a2.3,2.3,0,0,0-1.326.419,1.979,1.979,0,0,0-.837,1.4c-.07.628,0,1.326-.07,2.024.07,0,.209.07.279.07a9.955,9.955,0,0,0,2.442.419,11.3,11.3,0,0,0,1.535-.07,8.436,8.436,0,0,0,1.256-.349c.07,0,.07-.07.07-.14A12.9,12.9,0,0,0,261.652,546.163Z" transform="translate(-253.209 -538.976)"/><path class="b" d="M3.907,391.935c.14-.07.209-.07.349-.14a1.86,1.86,0,0,1-.628-1.4H2.163a2.509,2.509,0,0,0-.768.14A2.109,2.109,0,0,0,0,392.423v1.744c0,.07,0,.07.07.14a14.3,14.3,0,0,0,1.675.349c.209,0,.488.07.7.07v-.419a1.932,1.932,0,0,1,.07-.628A2.55,2.55,0,0,1,3.907,391.935Z" transform="translate(0 -387.051)"/><path class="b" d="M650.517,392.563a2.149,2.149,0,0,0-.209-.907,2.038,2.038,0,0,0-1.954-1.256h-1.326a1.757,1.757,0,0,1-.628,1.4.244.244,0,0,1,.14.07,2.927,2.927,0,0,1,.977.628,2.5,2.5,0,0,1,.628,1.675v.488c.349-.07.628-.07.977-.14a4.866,4.866,0,0,0,1.326-.419c.07,0,.07-.07.07-.14Z" transform="translate(-639.353 -387.051)"/><path class="b" d="M366.475,240.079a1.6,1.6,0,0,0,1.6-1.675,1.64,1.64,0,0,0-3.279,0A1.747,1.747,0,0,0,366.475,240.079Z" transform="translate(-360.823 -235.125)"/><path class="b" d="M615.377,86.34a2.064,2.064,0,0,0,.7.14,1.6,1.6,0,0,0,1.6-1.675,1.64,1.64,0,0,0-3.279,0A1.85,1.85,0,0,1,615.377,86.34Z" transform="translate(-607.702 -83.2)"/><path class="b" d="M104.075,92.81a1.657,1.657,0,0,0,.837-.209,1.852,1.852,0,0,1,.768-1.326V91.2a1.64,1.64,0,0,0-3.279,0A1.686,1.686,0,0,0,104.075,92.81Z" transform="translate(-101.284 -89.53)"/></g></svg>