<svg xmlns="http://www.w3.org/2000/svg" width="38" height="38" viewBox="0 0 38 38">
  <defs>
    <style>
      .cls-1 {
        fill: #2a424c;
      }

      .cls-2 {
        fill: #e8e9e9;
      }
    </style>
  </defs>
  <g id="组_57555" data-name="组 57555" transform="translate(-181 -400)">
    <g id="组_57142" data-name="组 57142" transform="translate(2 12)">
      <path id="路径_32837" data-name="路径 32837" class="cls-1" d="M8.636,0H29.364C34.133,0,38,4.477,38,10V28c0,5.523-3.867,10-8.636,10H8.636C3.867,38,0,33.523,0,28V10C0,4.477,3.867,0,8.636,0Z" transform="translate(179 388)"/>
    </g>
    <path id="路径_32907" data-name="路径 32907" class="cls-2" d="M183.061,179.295l-1.335-1.456,7.58-6.948v19.526h-1.975V175.38l-4.27,3.914Zm16.44,2.494,1.335,1.456-7.58,6.948V170.667h1.975V185.7l4.27-3.914Z" transform="translate(8.274 238.333)"/>
  </g>
</svg>
