<svg xmlns="http://www.w3.org/2000/svg" xmlns:xlink="http://www.w3.org/1999/xlink" width="90" height="90" viewBox="0 0 90 90">
  <defs>
    <style>
      .cls-1 {
        opacity: 0.848;
      }

      .cls-2 {
        fill: rgba(255,255,255,0);
      }

      .cls-3 {
        opacity: 0.331;
        fill: url(#linear-gradient);
      }

      .cls-4 {
        opacity: 0.779;
      }

      .cls-12, .cls-16, .cls-5 {
        fill: #9da1a6;
      }

      .cls-5 {
        opacity: 0.599;
      }

      .cls-13, .cls-17, .cls-6 {
        opacity: 0.576;
      }

      .cls-6 {
        fill: url(#linear-gradient-2);
      }

      .cls-7 {
        fill: url(#linear-gradient-3);
      }

      .cls-8 {
        opacity: 0.7;
        fill: url(#linear-gradient-4);
      }

      .cls-9 {
        fill: url(#linear-gradient-5);
      }

      .cls-10 {
        fill: url(#linear-gradient-6);
      }

      .cls-11 {
        fill: url(#linear-gradient-7);
      }

      .cls-12 {
        opacity: 0.67;
      }

      .cls-13 {
        fill: url(#linear-gradient-8);
      }

      .cls-14 {
        fill: url(#linear-gradient-9);
      }

      .cls-15 {
        opacity: 0.897;
      }

      .cls-16 {
        opacity: 0.597;
      }

      .cls-17 {
        fill: url(#linear-gradient-10);
      }

      .cls-18 {
        fill: url(#linear-gradient-11);
      }

      .cls-19 {
        fill: #ccced1;
      }

      .cls-20 {
        opacity: 0.398;
      }

      .cls-21 {
        fill: rgba(204,206,209,0.61);
      }

      .cls-22 {
        fill: url(#linear-gradient-12);
      }

      .cls-23 {
        fill: #fff;
      }

      .cls-24 {
        opacity: 0.1;
      }

      .cls-25 {
        fill: #c3c5c8;
      }

      .cls-26 {
        fill: url(#linear-gradient-13);
      }

      .cls-27 {
        opacity: 0.651;
      }

      .cls-28 {
        fill: #c7c9cc;
      }

      .cls-29 {
        opacity: 0.597;
      }

      .cls-30 {
        fill: url(#linear-gradient-14);
      }

      .cls-31 {
        fill: url(#linear-gradient-15);
      }

      .cls-32 {
        fill: url(#linear-gradient-16);
      }

      .cls-33 {
        opacity: 0.357;
      }

      .cls-34 {
        fill: url(#linear-gradient-17);
      }

      .cls-35 {
        fill: url(#linear-gradient-18);
      }

      .cls-36 {
        fill: url(#linear-gradient-19);
      }

      .cls-37 {
        fill: url(#linear-gradient-20);
      }

      .cls-38 {
        fill: url(#linear-gradient-21);
      }
    </style>
    <linearGradient id="linear-gradient" x1="1.209" y1="0.496" x2="-0.25" y2="0.496" gradientUnits="objectBoundingBox">
      <stop offset="0" stop-color="#c8cacd" stop-opacity="0"/>
      <stop offset="1" stop-color="#b2b5b8"/>
    </linearGradient>
    <linearGradient id="linear-gradient-2" x1="0.517" y1="0.096" x2="0.478" y2="1.001" gradientUnits="objectBoundingBox">
      <stop offset="0" stop-color="#f4f5f5"/>
      <stop offset="1" stop-color="#b3b5b9"/>
    </linearGradient>
    <linearGradient id="linear-gradient-3" x1="0.492" y1="0.074" x2="0.517" y2="0.998" gradientUnits="objectBoundingBox">
      <stop offset="0" stop-color="#f3f4f4"/>
      <stop offset="1" stop-color="#b3b5b9"/>
    </linearGradient>
    <linearGradient id="linear-gradient-4" x1="0.5" y1="1.001" x2="0.5" y2="-0.436" gradientUnits="objectBoundingBox">
      <stop offset="0" stop-color="#f8f8f9"/>
      <stop offset="1" stop-color="#e2e3e4"/>
    </linearGradient>
    <linearGradient id="linear-gradient-5" x1="0.499" y1="0.998" x2="0.499" y2="0.03" gradientUnits="objectBoundingBox">
      <stop offset="0" stop-color="#f4f5f5" stop-opacity="0"/>
      <stop offset="1" stop-color="#eeeff0"/>
    </linearGradient>
    <linearGradient id="linear-gradient-6" x1="0.5" y1="0.997" x2="0.5" y2="0.028" xlink:href="#linear-gradient-5"/>
    <linearGradient id="linear-gradient-7" x1="0.5" y1="1" x2="0.5" gradientUnits="objectBoundingBox">
      <stop offset="0.003" stop-color="#f4f5f5" stop-opacity="0"/>
      <stop offset="0.98" stop-color="#f0f1f2"/>
    </linearGradient>
    <linearGradient id="linear-gradient-8" x1="0.522" y1="0.102" x2="0.469" y2="1.006" xlink:href="#linear-gradient-2"/>
    <linearGradient id="linear-gradient-9" x1="0.489" y1="0.075" x2="0.525" y2="0.996" xlink:href="#linear-gradient-3"/>
    <linearGradient id="linear-gradient-10" x1="0.522" y1="0.101" x2="0.469" y2="1.002" xlink:href="#linear-gradient-2"/>
    <linearGradient id="linear-gradient-11" x1="0.488" y1="0.075" x2="0.525" y2="0.997" xlink:href="#linear-gradient-3"/>
    <linearGradient id="linear-gradient-12" x1="0.5" x2="0.5" y2="1" gradientUnits="objectBoundingBox">
      <stop offset="0" stop-color="#eeeff0"/>
      <stop offset="1" stop-color="#d7d8da"/>
    </linearGradient>
    <linearGradient id="linear-gradient-13" x1="0.5" y1="0.004" x2="0.5" y2="0.985" gradientUnits="objectBoundingBox">
      <stop offset="0" stop-color="#fff"/>
      <stop offset="1" stop-color="#e9e9e9"/>
    </linearGradient>
    <linearGradient id="linear-gradient-14" x1="0.999" y1="0.504" x2="0.058" y2="0.497" gradientUnits="objectBoundingBox">
      <stop offset="0" stop-color="#eeeff0"/>
      <stop offset="1" stop-color="#c4c6c9"/>
    </linearGradient>
    <linearGradient id="linear-gradient-15" x1="0.999" y1="0.504" x2="0.058" y2="0.497" xlink:href="#linear-gradient-14"/>
    <linearGradient id="linear-gradient-16" x1="0.422" y1="0.416" x2="0.688" y2="0.696" gradientUnits="objectBoundingBox">
      <stop offset="0" stop-color="#ccced1"/>
      <stop offset="0.662" stop-color="#c6c8cb"/>
      <stop offset="1" stop-color="#e8e8ea"/>
    </linearGradient>
    <linearGradient id="linear-gradient-17" x1="0.5" y1="-0.001" x2="0.5" y2="0.999" xlink:href="#linear-gradient-12"/>
    <linearGradient id="linear-gradient-18" x1="0.496" y1="0.01" x2="0.496" y2="0.998" gradientUnits="objectBoundingBox">
      <stop offset="0" stop-color="#fff"/>
      <stop offset="1" stop-color="#fff" stop-opacity="0.478"/>
    </linearGradient>
    <linearGradient id="linear-gradient-19" x1="0.5" y1="0.999" x2="0.5" gradientUnits="objectBoundingBox">
      <stop offset="0" stop-color="#eff0f1"/>
      <stop offset="1" stop-color="#bbbdc1"/>
    </linearGradient>
    <linearGradient id="linear-gradient-20" x1="0.942" y1="0.185" x2="1.883" y2="0.818" xlink:href="#linear-gradient-14"/>
    <linearGradient id="linear-gradient-21" x1="0.499" y1="0.996" x2="1.203" y2="0.292" gradientUnits="objectBoundingBox">
      <stop offset="0" stop-color="#fff" stop-opacity="0.635"/>
      <stop offset="1" stop-color="#fff" stop-opacity="0.098"/>
    </linearGradient>
  </defs>
  <g id="基础组件" class="cls-1" transform="translate(0 0.036)">
    <g id="Empty-state_order" transform="translate(0 0.457)">
      <g id="暂无订单" transform="translate(0 0)">
        <g id="编组-14">
          <rect id="矩形" class="cls-2" width="90" height="90" transform="translate(0 -0.493)"/>
          <ellipse id="椭圆形" class="cls-3" cx="12.564" cy="1.249" rx="12.564" ry="1.249" transform="translate(32.396 72.172)"/>
          <g id="编组备份-2" class="cls-4" transform="translate(13.471 48.43)">
            <ellipse id="椭圆形_1_" class="cls-5" cx="1.474" cy="0.45" rx="1.474" ry="0.45" transform="translate(2.517 6.491)"/>
            <path id="椭圆形_2_" class="cls-6" d="M30.529,19.468c.425.175,2.373-2.9,2.673-3.722a1.6,1.6,0,0,0-.674-2,1.329,1.329,0,0,0-1.7.974C30.554,15.546,30.129,19.293,30.529,19.468Z" transform="translate(-27.837 -12.527)"/>
            <path id="椭圆形_3_" class="cls-7" d="M2.767,6.941c.5-.15.425-4.521.2-5.52A1.621,1.621,0,0,0,1.068.047a1.785,1.785,0,0,0-1,2.223C.319,3.269,2.267,7.091,2.767,6.941Z" transform="translate(0 0)"/>
          </g>
          <path id="形状结合" class="cls-8" d="M245.421,135.316a1.216,1.216,0,0,1-.3-.025,1.89,1.89,0,0,1-.375.025,3.547,3.547,0,1,1,0-7.094,5.274,5.274,0,0,1,.649.05,4.794,4.794,0,0,1,9.042,2.223h2.847a2.4,2.4,0,0,1,0,4.8H245.421Z" transform="translate(-221.118 -115.647)"/>
          <g id="编组-2" transform="translate(8.444 54.589)">
            <path id="路径" class="cls-9" d="M0,46.517C3.971,40.7,7.743,37.8,11.365,37.8s7.743,2.9,12.389,8.717Z" transform="translate(0 -34.653)"/>
            <path id="路径-2" class="cls-10" d="M168.9,11.864C173.071,3.946,177.567,0,182.338,0s13.438,3.946,26,11.864Z" transform="translate(-154.838)"/>
            <path id="路径-3" class="cls-11" d="M535.347,40.467q-6.557-9.254-12.364-9.267T504.3,40.467Z" transform="translate(-462.313 -28.602)"/>
          </g>
          <g id="编组-62" transform="translate(64.58 44.314)">
            <ellipse id="椭圆形_4_" class="cls-12" cx="1.124" cy="0.35" rx="1.124" ry="0.35" transform="translate(2.079 4.551)"/>
            <path id="椭圆形_5_" class="cls-13" d="M25.2,12.808c.325.125,1.823-2.073,2.048-2.673a1.122,1.122,0,0,0-.525-1.424,1.064,1.064,0,0,0-1.324.724C25.178,10.01,24.878,12.683,25.2,12.808Z" transform="translate(-22.974 -7.932)"/>
            <path id="椭圆形_6_" class="cls-14" d="M2.154,4.9c.4-.125.35-3.2.15-3.9A1.266,1.266,0,0,0,.831.03,1.2,1.2,0,0,0,.056,1.579C.256,2.278,1.78,5,2.154,4.9Z" transform="translate(0 0)"/>
          </g>
          <g id="编组" class="cls-15" transform="translate(66.627 65.538)">
            <ellipse id="椭圆形_7_" class="cls-16" cx="1.474" cy="0.45" rx="1.474" ry="0.45" transform="translate(3.31 7.774)"/>
            <path id="椭圆形_8_" class="cls-17" d="M42,22.048c.55.225,3.1-3.522,3.472-4.521A1.866,1.866,0,0,0,44.6,15.1a1.766,1.766,0,0,0-2.223,1.2C42,17.3,41.452,21.848,42,22.048Z" transform="translate(-38.292 -13.75)"/>
            <path id="椭圆形_9_" class="cls-18" d="M3.71,8.323c.674-.175.574-5.42.25-6.594A2.185,2.185,0,0,0,1.437.056,2.087,2.087,0,0,0,.088,2.7C.413,3.877,3.036,8.5,3.71,8.323Z" transform="translate(0 0)"/>
          </g>
        </g>
        <g id="编组-3" transform="translate(19.972 23.647)">
          <g id="EmptyPage_Order" transform="translate(3.469 0)">
            <g id="矩形_1_" transform="translate(0 2.049)">
              <g id="蒙版" transform="matrix(0.966, -0.259, 0.259, 0.966, 0, 6.911)">
                <path id="path-16" class="cls-19" d="M5,0h16.71a5.01,5.01,0,0,1,5,5V29a5.01,5.01,0,0,1-5,5H5a5.01,5.01,0,0,1-5-5V5A5.01,5.01,0,0,1,5,0Z" transform="translate(0 0)"/>
              </g>
              <g id="Clipped" class="cls-20" transform="translate(4.62 1.677)">
                <path id="路径_1_" class="cls-21" d="M0,1.848,10.416,0l3.847,21.98L3.847,23.829Z" transform="translate(0 0)"/>
              </g>
            </g>
            <g id="编组-10" transform="translate(5.748)">
              <g id="path-19-link" transform="translate(2.534 3.88)">
                <path id="path-19" class="cls-22" d="M5,0H24.228a5.01,5.01,0,0,1,5,5V32.421a5.01,5.01,0,0,1-5,5H5a5.01,5.01,0,0,1-5-5V5A5.01,5.01,0,0,1,5,0Z"/>
              </g>
              <g id="路径-4" transform="translate(4.138 5.934)">
                <g id="蒙版_1_" transform="translate(0.45)">
                  <path id="path-21" class="cls-23" d="M3,0H22.105a3.006,3.006,0,0,1,3,3V30.323a3.006,3.006,0,0,1-3,3H3a3.006,3.006,0,0,1-3-3V3A3.006,3.006,0,0,1,3,0Z"/>
                </g>
                <g id="Clipped_1_" class="cls-24" transform="translate(0 17.934)">
                  <path id="路径_2_" class="cls-25" d="M0,14.587H14.137a19.374,19.374,0,0,0,3-.475,12.458,12.458,0,0,0,7.293-6.419C26.151,3.772,26.6,1.2,25.777,0L0,.774Z"/>
                </g>
              </g>
              <g id="路径-7" transform="translate(0 5.934)">
                <g id="path-24-link">
                  <path id="path-24" class="cls-26" d="M7.393,0H26.951A2.74,2.74,0,0,1,29.7,2.748V17.859h0L28.225,22.63A11.414,11.414,0,0,1,17.284,30.7L2.273,30.672A2.287,2.287,0,0,1,0,28.374a1.917,1.917,0,0,1,.175-.849l4.5-10.94h0V2.748A2.734,2.734,0,0,1,7.393,0Z"/>
                </g>
                <g id="路径-6-Clipped" class="cls-27" transform="translate(10.041 15.394)">
                  <path id="路径-6" class="cls-28" d="M20.282.017c-.375.325-1.174,3.047-3.247,5.02-1.5,1.424-4.8,1.9-6.569,3.5-1.224,1.1-.949,2.523-2.772,4.046A40.2,40.2,0,0,1,0,16.977l17.284.4Q20.919-.532,20.282.017Z" transform="translate(0 0)"/>
                </g>
                <g id="形状-Clipped" class="cls-29" transform="translate(7.094 5.145)">
                  <path id="形状" class="cls-30" d="M12.289,5.02c.275,0,.5.3.5.674s-.225.674-.5.674H6.419c-.275,0-.5-.3-.5-.674s.225-.674.5-.674Zm6.844-2.5c.275,0,.5.3.5.674s-.225.674-.5.674H6.419c-.275,0-.5-.3-.5-.674s.225-.674.5-.674ZM0,.1H4.8V6.494H0ZM19.133,0c.275,0,.5.3.5.674s-.225.674-.5.674H6.419c-.275,0-.5-.3-.5-.674S6.144,0,6.419,0Z"/>
                </g>
                <g id="形状备份-Clipped" class="cls-29" transform="translate(7.094 15.411)">
                  <path id="形状备份" class="cls-31" d="M12.289,5.045c.275,0,.5.3.5.674s-.225.674-.5.674H6.419c-.275,0-.5-.3-.5-.674s.225-.674.5-.674Zm6.844-2.523c.275,0,.5.3.5.674s-.225.674-.5.674H6.419c-.275,0-.5-.3-.5-.674s.225-.674.5-.674ZM0,.1H4.8V6.494H0ZM19.133,0c.275,0,.5.3.5.674s-.225.674-.5.674H6.419c-.275,0-.5-.3-.5-.674S6.144,0,6.419,0Z"/>
                </g>
                <g id="Clipped_2_" transform="translate(13.034 15.411)">
                  <path id="路径_3_" class="cls-32" d="M17.888,0Q16.2,6.332,10.72,7.968C5.25,9.591,9.7,12.114,1.078,14.837q-5.02,1.911,13.313-.974Z" transform="translate(0)"/>
                </g>
                <g id="路径-5-Clipped" class="cls-33" transform="translate(14.154 21.096)">
                  <path id="路径-5" class="cls-23" d="M14.845.035A17.019,17.019,0,0,1,9.774,6.8,16.951,16.951,0,0,1,.657,9.926c-1.823,0,.15.649,5.87.325A15.685,15.685,0,0,0,10.3,9.227a28.045,28.045,0,0,0,3.6-4.621C15.694.834,14.845-.215,14.845.035Z" transform="translate(0 0)"/>
                </g>
              </g>
              <path id="形状结合_1_" class="cls-25" d="M112.842,2.7a3.379,3.379,0,0,1,3.372,3.4h4.621a.448.448,0,0,1,.45.45V9.519a.448.448,0,0,1-.45.45H104.85a.448.448,0,0,1-.45-.45V6.572a.448.448,0,0,1,.45-.45h4.621A3.4,3.4,0,0,1,112.842,2.7Z" transform="translate(-95.708 -2.475)"/>
              <g id="path-32-link" transform="translate(8.696)">
                <path id="path-32" class="cls-34" d="M.45,6.619A.448.448,0,0,1,0,6.169v-2.4a.448.448,0,0,1,.45-.45H5.07A3.332,3.332,0,0,1,8.442,0a3.327,3.327,0,0,1,3.372,3.3h4.621a.448.448,0,0,1,.45.45v2.4a.448.448,0,0,1-.45.45H.45Z" transform="translate(0 0)"/>
              </g>
              <circle id="椭圆形_10_" class="cls-35" cx="1.723" cy="1.723" r="1.723" transform="translate(15.311 1.349)"/>
            </g>
          </g>
          <g id="编组-6" transform="translate(26.277 46.091) rotate(180)">
            <g id="path-36-link" transform="translate(1.157 7.351)">
              <path id="path-36" class="cls-36" d="M2.6,15.143A8.866,8.866,0,1,0,2.6,2.6,8.849,8.849,0,0,0,2.6,15.143Zm1.249-1.249a7.1,7.1,0,1,1,10.041,0A7.1,7.1,0,0,1,3.853,13.894Z" transform="translate(0 0)"/>
            </g>
            <path id="形状结合_2_" class="cls-37" d="M1.249,10.9,2.822,9.323l.15.15a.679.679,0,0,0,.974,0L10.715,2.7a.664.664,0,0,0,.025-.924l-.025-.025h0L9.167.206a.679.679,0,0,0-.974,0L1.424,6.975A.664.664,0,0,0,1.4,7.9l.025.025h0l.15.15L0,9.648Z" transform="translate(15.361 0)"/>
            <g id="path-40-link" transform="translate(10.032 6.195) rotate(45)">
              <circle id="path-40" class="cls-38" cx="7.094" cy="7.094" r="7.094" transform="translate(0)"/>
            </g>
          </g>
        </g>
      </g>
    </g>
  </g>
</svg>
