<svg xmlns="http://www.w3.org/2000/svg" width="40" height="40" viewBox="0 0 40 40">
  <defs>
    <style>
      .cls-1 {
        fill: #93999e;
      }

      .cls-2 {
        fill: #e8e8e8;
      }
    </style>
  </defs>
  <g id="组_66057" data-name="组 66057" transform="translate(-181 -606)">
    <g id="组_57149" data-name="组 57149" transform="translate(181 606)">
      <g id="组_57147" data-name="组 57147" transform="translate(0 0)">
        <g id="组_57143" data-name="组 57143" transform="translate(0 0)">
          <rect id="矩形_21457" data-name="矩形 21457" class="cls-1" width="40" height="40" rx="20" transform="translate(0 0)"/>
        </g>
      </g>
    </g>
    <path id="路径_32877" data-name="路径 32877" class="cls-2" d="M119.357,176.071a10.357,10.357,0,0,1-2.768.681,4.482,4.482,0,0,0,2.114-2.424,10.044,10.044,0,0,1-3.05,1.062,5.014,5.014,0,0,0-3.513-1.39,4.41,4.41,0,0,0-4.688,5.408,14.119,14.119,0,0,1-9.912-4.6,4.086,4.086,0,0,0-.654,2.22,4.315,4.315,0,0,0,2.142,3.664,5.194,5.194,0,0,1-2.173-.56v.054a4.516,4.516,0,0,0,3.854,4.317,5.54,5.54,0,0,1-1.266.15,6.978,6.978,0,0,1-.908-.067,4.783,4.783,0,0,0,4.494,3.051,10.219,10.219,0,0,1-5.968,1.88,10.735,10.735,0,0,1-1.161-.054,14.55,14.55,0,0,0,7.383,1.973c8.841,0,13.678-6.7,13.678-12.514,0-.191,0-.382-.014-.572A9.919,9.919,0,0,0,119.357,176.071Z" transform="translate(93.1 442.972)"/>
  </g>
</svg>
