<svg xmlns="http://www.w3.org/2000/svg" xmlns:xlink="http://www.w3.org/1999/xlink" width="40" height="40" viewBox="0 0 40 40"><defs><style>.a{fill:url(#a);}</style><linearGradient id="a" x1="0.5" x2="0.5" y2="1" gradientUnits="objectBoundingBox"><stop offset="0" stop-color="#28ddc8"/><stop offset="1" stop-color="#24584b"/></linearGradient></defs><g transform="translate(0 0)"><path class="a" d="M20,40a20.149,20.149,0,0,1-4.031-.406,19.889,19.889,0,0,1-7.151-3.009,20.059,20.059,0,0,1-7.246-8.8A19.9,19.9,0,0,1,.406,24.031a20.195,20.195,0,0,1,0-8.061A19.888,19.888,0,0,1,3.416,8.818a20.059,20.059,0,0,1,8.8-7.246A19.9,19.9,0,0,1,15.969.406a20.2,20.2,0,0,1,8.061,0,19.89,19.89,0,0,1,7.152,3.009,20.059,20.059,0,0,1,7.246,8.8,19.9,19.9,0,0,1,1.165,3.754,20.195,20.195,0,0,1,0,8.061,19.89,19.89,0,0,1-3.009,7.151,20.058,20.058,0,0,1-8.8,7.246,19.9,19.9,0,0,1-3.754,1.165A20.148,20.148,0,0,1,20,40ZM18.542,22.461h0l1.019,1.365,1.389,1.86,2.039,2.73,2.415,3.22H29.1a29.592,29.592,0,0,0,3.667-.059.007.007,0,0,0,0-.007c-.015-.038-.833-1.144-2.084-2.817-.774-1.031-1.767-2.359-2.873-3.841-.207-.275-.589-.786-1.072-1.433l-.031-.041c-.546-.731-1.226-1.641-1.862-2.489-1.211-1.617-2.149-2.894-2.149-2.914,0-.037,6.336-6.913,8.37-9.083l.606-.647H30.554l-1.111.005-1.3,1.406c-1.072,1.164-2.617,2.838-3.887,4.2L21.675,16.71l-3.133-4.187L15.4,8.331l-3.693-.025c-.8-.007-1.622-.01-2.305-.01C8.54,8.3,8,8.3,7.993,8.31s.793,1.112,1.829,2.5l1.213,1.623.145.194,3.43,4.587,2.945,3.937-.189.214c-.061.067-.791.855-1.9,2.048l-.117.126-.208.225-2.589,2.8c-2.107,2.281-4.62,5-4.625,5.033a0,0,0,0,0,0,0,4.842,4.842,0,0,0,.875.039H9l1.085-.005.357-.392c.139-.15,1.959-2.116,4.1-4.431s3.8-4.112,3.871-4.192l.127-.148Zm9.349,7.544H26.205l-3.342-4.472C15.07,15.12,11.259,10.021,11.213,9.944a.008.008,0,0,1,0-.009,8.2,8.2,0,0,1,1.646-.052h1.686l2.2,2.939c.894,1.2,2.157,2.888,3.172,4.246l.077.1.258.346.634.848c.563.751,1.534,2.05,2.474,3.306l.049.065c.887,1.187,1.893,2.532,2.756,3.684,2.06,2.758,3.354,4.491,3.377,4.524a.008.008,0,0,1,0,.009A8.218,8.218,0,0,1,27.891,30.005Z" transform="translate(0 0)"/></g></svg>