<svg width="64" height="64" viewBox="0 0 64 64" fill="none" xmlns="http://www.w3.org/2000/svg">
<circle cx="32" cy="32" r="31.75" fill="url(#paint0_radial)" fill-opacity="0.05" stroke="url(#paint1_linear)" stroke-width="0.5"/>
<path d="M17.0639 13C18.9487 15.051 20.8335 17.1021 22.7183 19.1637C24.3476 20.9504 25.9768 22.7371 27.6061 24.5238C28.1279 25.1053 28.1385 25.8137 27.638 26.4163C27.1482 27.0083 26.4773 27.2515 25.7426 27.3784C24.4541 27.6004 24.305 27.833 24.1346 29.1228C24.0175 29.9686 23.73 30.7827 23.485 31.6073C23.3786 31.9562 23.1762 32.2839 23.0378 32.6223C22.6012 33.7323 22.8142 34.5887 23.73 35.3605C24.1346 35.6988 24.5925 35.9843 24.9865 36.3331C25.8704 37.0943 25.9236 38.2044 25.1036 39.0185C24.0281 40.0969 22.6332 40.4669 21.153 40.7841C20.6206 39.7374 20.0029 38.7331 19.5983 37.6653C19.0871 36.2909 19.3108 34.9587 20.3011 33.8064C20.546 33.5209 20.759 33.2143 20.9933 32.9394C22.1433 31.6179 22.7609 30.0955 22.9846 28.3616C23.0591 27.8013 23.4212 27.2621 23.73 26.7652C23.9536 26.3951 24.0707 26.1097 23.8365 25.7079C22.9846 24.1644 22.1327 22.6208 21.2808 21.0773C21.2275 20.9715 21.1636 20.8658 21.1956 20.7072C21.6535 21.4156 22.122 22.1239 22.5799 22.8217C23.1975 23.7521 23.7939 24.6824 24.4328 25.5916C24.9759 26.3846 25.8704 26.5114 26.6584 25.9511C27.063 25.6657 27.0949 25.3273 26.7222 24.8727C25.881 23.8261 25.0291 22.79 24.1772 21.7539C21.7813 18.8676 19.3853 15.9603 17 13.0529C17.0213 13.0317 17.0426 13.0211 17.0639 13ZM21.6322 36.6186C21.6535 36.0265 21.2595 35.6459 20.8655 35.7411C20.7483 35.7728 20.578 35.9208 20.578 36.0265C20.5567 36.2803 20.5993 36.534 20.6418 36.7878C20.6951 37.1366 20.972 37.2318 21.2275 37.0838C21.4299 36.9781 21.5576 36.7243 21.6322 36.6186Z" fill="#EA347A"/>
<path d="M34.6342 26.2894C36.1144 27.4207 37.8608 27.3995 39.522 27.7061C40.7465 27.9387 41.9286 28.2559 42.9828 28.9748C45.3787 30.603 45.3787 33.8064 44.3352 35.3922C44.0476 33.4575 42.5568 32.7703 41.066 32.0937C39.8201 31.5333 38.5423 31.047 37.3283 30.4232C36.6575 30.0849 36.0292 29.6197 35.4861 29.1017C34.7194 28.3722 34.5064 27.4101 34.6342 26.2894Z" fill="#EA347A"/>
<path d="M41.4388 24.6614C42.2374 25.5706 42.8657 26.6067 43.1 27.8965C42.1096 26.5115 40.6082 26.5961 39.1812 26.4693C38.5317 26.4164 37.8715 26.3741 37.2219 26.279C35.6033 26.0358 34.2935 25.264 33.2925 23.9848C32.7281 23.2658 32.1531 22.5469 31.5781 21.828C30.4706 20.4536 29.1608 19.3435 27.3506 18.9946C28.8414 18.9735 30.0873 19.5761 31.1734 20.5276C31.4503 20.7708 31.7591 21.0139 31.9614 21.31C32.3022 21.828 32.7494 21.8491 33.2925 21.7646C35.3903 21.4685 37.3816 21.8174 39.2558 22.8429C39.6924 23.0861 39.9692 23.3821 39.9267 23.8685C39.8734 24.4499 39.7456 25.0314 39.703 25.6235C39.6924 25.8666 39.7563 26.1944 39.916 26.3318C40.0331 26.427 40.491 26.3635 40.5869 26.2155C40.9063 25.7398 41.1406 25.2112 41.4388 24.6614Z" fill="#EA347A"/>
<path d="M40.9702 42.5074C41.8647 40.837 41.3855 39.4097 40.5016 38.0459C39.9585 37.2001 39.3942 36.3649 38.8617 35.5191C38.2973 34.6204 37.914 33.6689 38.0205 32.58C38.0418 32.3368 38.1163 32.1042 38.1802 31.7659C39.9905 32.95 42.1202 33.5421 43.3022 35.4345C44.7504 37.771 43.611 41.3867 40.9702 42.5074Z" fill="#EA347A"/>
<path d="M30.1937 40.9638C30.7901 40.3506 31.5355 40.3612 32.036 40.8686C32.5045 41.3444 32.43 42.3382 31.8869 42.8351C31.3225 43.3531 30.3748 43.3954 29.6613 42.9408C29.4696 42.814 29.278 42.6765 29.1289 42.5074C28.0853 41.3338 26.882 40.4563 25.1676 40.4246C25.2315 40.2977 25.2421 40.2237 25.2847 40.192C26.9246 38.8388 28.7242 37.9084 30.9285 37.9718C33.186 38.0458 34.5916 39.3039 34.9111 41.5241C34.9856 42.0845 35.0708 42.6448 35.2306 43.1734C35.6033 44.3575 36.3593 44.7804 37.6052 44.5584C37.8075 44.5267 38.0099 44.4738 38.2761 44.421C36.8811 45.4465 35.2838 45.0764 34.4426 43.5752C34.1444 43.036 33.9101 42.4651 33.6439 41.9047C33.2819 41.1541 32.824 40.5092 32.0466 40.1286C31.2373 39.7374 30.3002 39.8537 29.7784 40.414C29.4057 40.8264 29.3312 41.4396 29.5974 41.9365C29.853 42.4016 30.5984 42.7822 31.0776 42.6871C31.5355 42.5919 31.8549 42.3276 31.9614 41.873C32.0466 41.503 32.0253 41.133 31.6633 40.8792C31.248 40.5938 30.8753 40.5832 30.1937 40.9638Z" fill="#EA347A"/>
<path d="M30.2896 25.2744C29.9169 25.1687 29.5229 25.137 29.2141 24.9678C27.7872 24.2066 27.1589 22.8851 26.8501 21.3944C26.7436 20.8869 26.7542 20.3583 26.7116 19.7662C27.7233 19.9143 28.4793 20.2526 28.8733 21.1195C29.065 21.5318 29.1502 21.9864 29.2993 22.4199C29.6081 23.3186 29.9275 24.2172 30.2896 25.2744Z" fill="#EA347A"/>
<path d="M36.7 31.1739C37.9992 32.8549 37.3922 35.0963 35.4541 35.8998C34.8791 36.1429 34.2295 36.2592 33.6012 36.3332C32.3766 36.4813 31.1414 36.5658 29.8636 36.6187C30.5131 36.3967 31.1521 36.1429 31.8123 35.9738C32.5364 35.7941 33.2711 35.6989 34.0059 35.5615C36.2847 35.1174 37.2431 33.6479 36.7213 31.4065C36.7213 31.3642 36.7213 31.3114 36.7 31.1739Z" fill="#EA347A"/>
<path d="M28.639 29.9475C27.9895 29.9158 27.7339 29.7361 27.6806 29.2497C27.6061 28.5625 28.0214 27.833 28.6071 27.7273C28.9265 27.6745 29.2779 27.6956 29.5974 27.7802C30.0766 27.9071 30.4599 28.4568 30.4387 28.8797C30.4174 29.3978 30.0127 29.5775 29.6081 29.7255C29.3099 29.8312 28.9691 29.8735 28.639 29.9475ZM29.2034 27.7062C28.7668 27.833 28.3622 27.9071 28.3941 28.3088C28.4154 28.4991 28.7988 28.7423 29.0543 28.8057C29.4483 28.9009 29.9169 28.5414 29.7997 28.2982C29.6932 28.0551 29.4057 27.8965 29.2034 27.7062Z" fill="#EA347A"/>
<path d="M38.521 21.3522C38.8831 21.479 39.2558 21.5953 39.6072 21.7434C39.9799 21.9019 40.1716 21.8279 40.1822 21.3945C40.1929 20.9927 40.2567 20.6015 40.3845 20.1892C40.129 21.7116 41.0554 22.6631 42.067 23.5618C42.0351 23.5935 42.0031 23.6252 41.9712 23.6569C41.6624 23.4455 41.3536 23.2235 40.9063 22.9169C40.7998 23.731 40.7146 24.4182 40.6294 25.1054C40.5762 25.1159 40.5336 25.1265 40.4804 25.1371C40.7679 23.3821 40.3419 22.0182 38.4145 21.479C38.4358 21.4262 38.4784 21.3839 38.521 21.3522Z" fill="#EA347A"/>
<defs>
<radialGradient id="paint0_radial" cx="0" cy="0" r="1" gradientUnits="userSpaceOnUse" gradientTransform="translate(32 32) rotate(90) scale(32)">
<stop stop-opacity="0"/>
<stop offset="1" stop-color="white"/>
</radialGradient>
<linearGradient id="paint1_linear" x1="32" y1="0" x2="32" y2="64" gradientUnits="userSpaceOnUse">
<stop stop-color="#4B4C4D"/>
<stop offset="1" stop-opacity="0"/>
</linearGradient>
</defs>
</svg>
