<svg width="64" height="64" viewBox="0 0 64 64" fill="none" xmlns="http://www.w3.org/2000/svg">
<circle cx="32" cy="32" r="31.75" fill="url(#paint0_radial)" fill-opacity="0.05" stroke="url(#paint1_linear)" stroke-width="0.5"/>
<path d="M16 23.8157V33.6646C16 34.9029 16.5735 36.0714 17.5532 36.8289L29.5532 46.108C30.9941 47.2222 33.0059 47.2222 34.4468 46.108L46.4468 36.8289C47.4265 36.0714 48 34.9029 48 33.6646V23.8157C48 22.2027 46.1886 21.2532 44.8621 22.171L33.1379 30.2825C32.4533 30.7562 31.5467 30.7562 30.8621 30.2825L19.1379 22.171C17.8114 21.2532 16 22.2027 16 23.8157Z" fill="url(#paint2_linear)"/>
<defs>
<radialGradient id="paint0_radial" cx="0" cy="0" r="1" gradientUnits="userSpaceOnUse" gradientTransform="translate(32 32) rotate(90) scale(32)">
<stop stop-opacity="0"/>
<stop offset="1" stop-color="white"/>
</radialGradient>
<linearGradient id="paint1_linear" x1="32" y1="0" x2="32" y2="64" gradientUnits="userSpaceOnUse">
<stop stop-color="#4B4C4D"/>
<stop offset="1" stop-opacity="0"/>
</linearGradient>
<linearGradient id="paint2_linear" x1="32" y1="22.6047" x2="32" y2="46.0465" gradientUnits="userSpaceOnUse">
<stop stop-color="#2A6BEA"/>
<stop offset="1" stop-color="#6843E2"/>
</linearGradient>
</defs>
</svg>
