<svg width="64" height="64" viewBox="0 0 64 64" fill="none" xmlns="http://www.w3.org/2000/svg">
<circle cx="32" cy="32" r="31.75" fill="url(#paint0_radial_17394_248860)" fill-opacity="0.05" stroke="url(#paint1_linear_17394_248860)" stroke-width="0.5"/>
<path fill-rule="evenodd" clip-rule="evenodd" d="M46.9565 41.8491C46.9336 41.8669 46.9108 41.8859 46.8868 41.9026C46.864 41.9205 46.84 41.9372 46.8161 41.9551C46.7715 41.9875 46.7258 42.0187 46.679 42.0488C46.6735 42.0522 46.6681 42.0555 46.6626 42.06C46.6245 42.0846 46.5865 42.1091 46.5473 42.1325C46.4896 42.1682 46.433 42.2017 46.3742 42.2352C45.976 42.4629 45.557 42.6459 45.1293 42.8077C44.7256 42.9595 44.3164 43.0923 43.9039 43.2106C43.313 43.3802 42.7145 43.5208 42.1105 43.6436C41.524 43.7641 40.9352 43.8656 40.3443 43.9538C39.7534 44.042 39.1603 44.1156 38.5661 44.1792C38.3713 44.2004 38.1765 44.2194 37.9818 44.2384C37.5911 44.2752 37.2004 44.3064 36.8097 44.3332C36.6138 44.3466 36.418 44.3589 36.2232 44.3701C35.7846 44.3957 35.346 44.4147 34.9075 44.4292C34.828 44.4314 34.7486 44.4348 34.6681 44.437C34.5952 44.4392 34.5222 44.4415 34.4482 44.4437C34.6278 44.2161 34.8074 43.9895 34.9717 43.7496C34.9956 43.7194 35.0196 43.6893 35.0424 43.6581C35.4135 43.147 35.7683 42.6247 36.1078 42.0924C36.1426 42.0901 36.1775 42.089 36.2112 42.0868C36.4267 42.0745 36.6421 42.06 36.8576 42.0455C37.0208 42.0343 37.1841 42.0221 37.3473 42.0087C38.4889 41.9183 39.6261 41.7888 40.7578 41.6069C41.0876 41.5545 41.4151 41.4964 41.7416 41.4351C42.5056 41.29 43.263 41.1159 44.0095 40.8972C44.1738 40.8492 44.3371 40.799 44.5003 40.7465C44.5819 40.7197 44.6635 40.6929 44.7452 40.665C44.8681 40.6874 44.9802 40.7398 45.0956 40.7833C45.1968 40.8213 45.298 40.8614 45.3992 40.9027C45.6854 41.0188 45.9662 41.1471 46.2382 41.2956C46.346 41.3536 46.4515 41.415 46.556 41.4797C46.6942 41.5656 46.8291 41.656 46.9554 41.7598C46.9924 41.7899 47.0033 41.8022 46.9891 41.8201C46.9826 41.829 46.9717 41.8379 46.9543 41.8513L46.9565 41.8491Z" fill="#F1ECE2"/>
<path fill-rule="evenodd" clip-rule="evenodd" d="M44.7482 40.6637C44.6666 40.6916 44.586 40.7184 44.5033 40.7452C44.3401 40.7976 44.1769 40.8479 44.0125 40.8959C43.2649 41.1146 42.5086 41.2887 41.7447 41.4337C41.4182 41.4962 41.0895 41.5532 40.7609 41.6056C39.6291 41.7875 38.4919 41.917 37.3503 42.0074C37.1871 42.0207 37.0239 42.033 36.8606 42.0442C36.6452 42.0587 36.4297 42.0732 36.2142 42.0855C36.1794 42.0877 36.1457 42.0888 36.1108 42.0911C36.3448 41.7239 36.5723 41.3523 36.7921 40.9751C37.1098 40.4305 37.4135 39.8781 37.7018 39.3179C38.2525 39.367 38.8021 39.4239 39.3516 39.4931C39.3919 39.4975 39.4321 39.5065 39.4735 39.5132C39.7194 39.531 39.9632 39.569 40.2059 39.6058C40.5182 39.6527 40.8305 39.704 41.1418 39.7576C41.5618 39.8301 41.9819 39.9105 42.3987 40.0031C42.6239 40.0533 42.8481 40.1046 43.0734 40.1548C43.1093 40.1749 43.1474 40.1827 43.1877 40.1872C43.6687 40.3133 44.1486 40.4461 44.6198 40.6057C44.6633 40.6202 44.7134 40.6247 44.7471 40.6626L44.7482 40.6637Z" fill="#FDBF41"/>
<path fill-rule="evenodd" clip-rule="evenodd" d="M22.4586 48.7106L22.457 48.709L22.4586 48.7106Z" fill="#404A5A"/>
<path fill-rule="evenodd" clip-rule="evenodd" d="M22.271 48.5918C22.2819 48.5997 22.295 48.6054 22.3069 48.6111C22.3156 48.6156 22.3243 48.6191 22.333 48.6236C22.3483 48.6315 22.3624 48.6418 22.3722 48.6565C22.3755 48.6611 22.3787 48.6679 22.382 48.6747C22.3309 48.6702 22.2862 48.6486 22.2471 48.6145L22.271 48.5918Z" fill="#404A5A"/>
<path fill-rule="evenodd" clip-rule="evenodd" d="M25.7609 46.9108C25.7184 46.9175 25.676 46.9242 25.6346 46.9309C25.4714 46.9532 25.3082 46.9666 25.1439 46.971C25.0894 46.9721 25.0339 46.9733 24.9795 46.9721C24.924 46.9721 24.8696 46.9699 24.8141 46.9677C24.7902 46.9666 24.7673 46.9632 24.7434 46.961C24.7205 46.9588 24.6966 46.9554 24.6726 46.9532C24.6422 46.9509 24.6193 46.9375 24.5965 46.9175C24.5312 46.8572 24.4691 46.7947 24.4082 46.73C24.8587 46.7969 25.3093 46.8572 25.7609 46.9119V46.9108Z" fill="#F1ECE2"/>
<path fill-rule="evenodd" clip-rule="evenodd" d="M32.8493 39.1094C32.525 39.1094 32.2007 39.1138 31.8764 39.1194C31.3367 39.9776 30.7545 40.8056 30.1189 41.5924C29.9851 41.7576 29.8501 41.9205 29.7119 42.0812C29.3637 42.4885 29.0002 42.8813 28.6193 43.2563C28.2853 43.5844 27.9403 43.898 27.5801 44.1926C27.2993 44.4236 27.0087 44.6435 26.7073 44.8477C26.1523 45.2249 25.5701 45.5496 24.9433 45.7862C24.6255 45.9056 24.3012 46.0027 23.966 46.0596C23.9475 46.063 23.9301 46.0708 23.9116 46.0764C23.9127 46.0819 23.9149 46.0886 23.916 46.0942C23.9171 46.0976 23.9182 46.1009 23.9203 46.1043C23.9443 46.1422 23.9682 46.179 23.9932 46.2147C24.0433 46.2884 24.0955 46.3598 24.1489 46.429C24.2294 46.5328 24.3154 46.6332 24.4057 46.7292C24.8562 46.7962 25.3067 46.8564 25.7584 46.9111C25.8792 46.8921 25.9989 46.8676 26.1175 46.8386C26.3928 46.7716 26.6605 46.6834 26.9228 46.5797C27.0534 46.5272 27.1829 46.4714 27.3102 46.4112C27.4375 46.3509 27.5638 46.2873 27.6889 46.2192C27.7433 46.1902 27.7966 46.1601 27.851 46.1299C28.2254 45.919 28.5845 45.6824 28.9284 45.428C29.2734 45.1724 29.6042 44.8979 29.9252 44.61C29.9709 44.5687 30.0166 44.5274 30.0623 44.485C30.0961 44.4537 30.1287 44.4225 30.1636 44.3901C30.3692 44.1971 30.5716 43.9984 30.7686 43.7953C30.8448 43.7161 30.9199 43.6369 30.995 43.5554C31.242 43.2898 31.4825 43.0186 31.7165 42.7407C31.8569 42.5745 31.994 42.4048 32.1289 42.2341C32.1452 42.214 32.1616 42.1928 32.1779 42.1716C32.2704 42.0533 32.3618 41.9339 32.4532 41.8134C32.7394 41.4339 33.0147 41.0467 33.2803 40.6516C33.4239 40.4374 33.5643 40.222 33.7025 40.0044C33.7798 39.8816 33.8559 39.7589 33.931 39.6361C34.0344 39.4676 34.1356 39.2969 34.2357 39.1261C33.7732 39.115 33.3118 39.1094 32.8493 39.1094Z" fill="#F1ECE2"/>
<path fill-rule="evenodd" clip-rule="evenodd" d="M30.1005 39.1772C29.8688 39.1883 29.637 39.2017 29.4063 39.2162C29.1527 39.5845 28.8904 39.9472 28.6162 40.3009C28.3474 40.6491 28.0721 40.9906 27.7826 41.3221C27.6183 41.5095 27.4529 41.6959 27.2831 41.8789C27.1634 42.0084 27.0415 42.1367 26.9164 42.2617C26.419 42.7605 25.8978 43.2315 25.3373 43.6567C25.2437 43.727 25.1502 43.7962 25.0544 43.8642C24.7399 44.0885 24.4145 44.2961 24.0761 44.4825C23.8312 44.6186 23.5787 44.7392 23.323 44.8496C23.3252 44.8619 23.323 44.8753 23.3284 44.8876C23.3644 44.9891 23.4024 45.0884 23.4438 45.1878C23.4841 45.2871 23.5276 45.3842 23.5733 45.4802C23.6647 45.6721 23.767 45.8596 23.878 46.0426L23.8802 46.0448C23.8878 46.056 23.9009 46.066 23.9106 46.0761C23.9291 46.0705 23.9466 46.0627 23.9651 46.0593C24.2991 46.0024 24.6234 45.9053 24.9423 45.7859C25.5691 45.5505 26.1513 45.2246 26.7063 44.8474C27.0078 44.6432 27.2983 44.4233 27.5791 44.1923C27.9393 43.8966 28.2843 43.583 28.6184 43.256C29.0003 42.8811 29.3627 42.4882 29.711 42.0809C29.8492 41.9202 29.9841 41.7573 30.118 41.5921C30.7535 40.8054 31.3357 39.9773 31.8755 39.1191C31.2835 39.1303 30.6904 39.1482 30.0995 39.1783L30.1005 39.1772Z" fill="#FDBF41"/>
<path fill-rule="evenodd" clip-rule="evenodd" d="M24.8565 41.5453C24.8805 41.5498 24.9033 41.5531 24.9262 41.5576C24.4724 42.0073 23.9957 42.4291 23.4875 42.8153C23.3025 42.9559 23.1175 43.0965 22.9173 43.2159C22.8803 43.0519 22.864 42.8845 22.8455 42.7171C22.7824 42.1836 22.7584 41.648 22.7573 41.1123C22.8836 41.1436 23.0098 41.1737 23.1371 41.2038C23.5082 41.2909 23.8804 41.3679 24.2537 41.4382C24.455 41.4761 24.6563 41.5118 24.8576 41.5464L24.8565 41.5453Z" fill="#F1ECE2"/>
<path fill-rule="evenodd" clip-rule="evenodd" d="M26.9351 39.434C26.8818 39.4407 26.8274 39.4452 26.773 39.4507C26.2376 40.1493 25.6663 40.8156 25.046 41.4394C25.0068 41.4796 24.9665 41.5186 24.9273 41.5577C24.9458 41.561 24.9643 41.5644 24.9818 41.5677C24.9633 41.5644 24.9458 41.561 24.9273 41.5588C24.4735 42.0085 23.9969 42.4304 23.4887 42.8165C23.3037 42.9571 23.1187 43.0977 22.9185 43.2171C22.9206 43.2394 22.9217 43.2629 22.9239 43.2852C22.9239 43.2919 22.9239 43.2975 22.9261 43.3042C22.9304 43.3298 22.9359 43.3555 22.9402 43.3812C22.9435 43.4024 22.9468 43.4225 22.9511 43.4437C22.9609 43.495 22.9707 43.5474 22.9805 43.5999C23.0382 43.8945 23.1067 44.1858 23.1927 44.4726C23.2319 44.6009 23.2634 44.7326 23.3265 44.8531C23.5823 44.7426 23.8348 44.6221 24.0796 44.486C24.418 44.2985 24.7434 44.0909 25.0579 43.8677C25.1537 43.8008 25.2473 43.7316 25.3409 43.6602C25.9013 43.2361 26.4226 42.764 26.9199 42.2652C27.0451 42.1402 27.1659 42.0119 27.2866 41.8824C27.4564 41.6994 27.6218 41.513 27.7861 41.3256C28.0745 40.9941 28.3509 40.6526 28.6197 40.3044C28.8929 39.9496 29.1562 39.588 29.4098 39.2197C28.5849 39.2711 27.7611 39.3425 26.9384 39.4362L26.9351 39.434Z" fill="#FF1100"/>
<path fill-rule="evenodd" clip-rule="evenodd" d="M24.2524 41.437C24.4538 41.475 24.6551 41.5107 24.8564 41.5453C24.6551 41.5107 24.4527 41.475 24.2524 41.437Z" fill="#FF1100"/>
<path fill-rule="evenodd" clip-rule="evenodd" d="M26.4192 39.502C26.5357 39.4764 26.6543 39.463 26.7729 39.4507C26.2375 40.1493 25.6662 40.8155 25.0459 41.4393C25.0067 41.4795 24.9664 41.5186 24.9273 41.5576L24.8576 41.5465C24.6563 41.5119 24.455 41.4762 24.2537 41.4382C23.8804 41.3679 23.5071 41.2909 23.1371 41.2039C23.0109 41.1737 22.8836 41.1436 22.7573 41.1124C22.7573 40.9104 22.7595 40.7073 22.7649 40.5042C22.7682 40.3836 22.7736 40.2642 22.7802 40.1448C23.21 40.0399 23.6432 39.9473 24.0774 39.8625C24.8195 39.7185 25.5661 39.6013 26.3148 39.5065C26.3267 39.5054 26.3387 39.5031 26.3507 39.502C26.3648 39.4998 26.379 39.4987 26.3931 39.4998C26.4018 39.4998 26.4105 39.502 26.4192 39.5043V39.502Z" fill="#FDBF41"/>
<path fill-rule="evenodd" clip-rule="evenodd" d="M39.6575 29.7485C40.0906 29.8032 40.5248 29.8568 40.9579 29.9115C40.9557 29.9159 40.9525 29.9204 40.9481 29.9249C40.6793 29.8914 40.4094 29.859 40.1406 29.8233C40.0623 29.8133 39.9839 29.8066 39.9056 29.7976C39.8272 29.7887 39.7489 29.7798 39.6716 29.7642C39.6673 29.7586 39.6629 29.7541 39.6575 29.7497V29.7485Z" fill="#007FFF"/>
<path fill-rule="evenodd" clip-rule="evenodd" d="M49.9848 40.0555V38.222C49.9467 38.0513 49.8945 37.885 49.802 37.7354C49.6529 37.4944 49.4755 37.279 49.2535 37.1027C49.0217 36.9185 48.7845 36.7456 48.5287 36.5983C48.1772 36.3963 47.8116 36.2255 47.4449 36.057C47.3796 36.0269 47.3121 36.0124 47.2468 35.9856C46.4176 35.653 45.5644 35.4031 44.7003 35.1877C44.1475 35.0493 43.5903 34.931 43.031 34.8239C42.4031 34.7033 41.7719 34.5996 41.1396 34.5103C40.7032 34.4489 40.2668 34.3931 39.8294 34.3429C39.6346 34.3206 39.4398 34.2994 39.245 34.2793C38.6943 34.2246 38.1426 34.1733 37.5909 34.1331C37.2655 34.1085 36.939 34.0873 36.6136 34.0684C36.3372 34.0527 36.0597 34.0382 35.7822 34.0248C35.3458 34.0048 34.9105 33.9891 34.4741 33.9791C34.4426 33.9791 34.411 33.9769 34.3795 33.9769C33.6906 33.9612 33.0007 33.9568 32.3118 33.9635H32.2781C31.5685 33.9702 30.859 33.9869 30.1506 34.017C30.1081 34.0181 30.0657 34.0215 30.0232 34.0226C29.1842 34.0594 28.3474 34.113 27.5105 34.1855C26.2819 34.2916 25.0576 34.4355 23.8399 34.6319C23.8105 34.6364 23.7822 34.642 23.7528 34.6464C23.706 34.8161 23.6636 34.9879 23.6048 35.1542C23.5635 35.3238 23.5221 35.4935 23.4797 35.662C23.3676 36.1117 23.2664 36.5637 23.1782 37.019C23.2403 37.0078 23.3023 36.9978 23.3643 36.9866C23.4459 36.9721 23.5275 36.9587 23.6081 36.9442L23.9705 36.8839C24.4068 36.8148 24.8454 36.7523 25.2829 36.6954C25.7214 36.6384 26.16 36.5882 26.5996 36.5436C26.8924 36.5134 27.1862 36.4856 27.48 36.4599C27.924 36.4219 28.3691 36.3896 28.8142 36.3606C29.2332 36.3338 29.6522 36.3126 30.0711 36.2947C30.1789 36.2903 30.2866 36.2847 30.3943 36.2802C30.5543 36.2735 30.7154 36.2691 30.8753 36.2635C30.9787 36.2601 31.0821 36.2579 31.1866 36.2557C31.5642 36.2456 31.9418 36.24 32.3194 36.2367C32.462 36.2367 32.6035 36.2345 32.746 36.2345C32.9898 36.2345 33.2335 36.2345 33.4762 36.2367C33.5644 36.2367 33.6525 36.2378 33.7407 36.24L34.0247 36.2434C34.2826 36.2478 34.5394 36.2545 34.7973 36.2624C35.0553 36.2702 35.3121 36.2802 35.57 36.2903C35.6124 36.2914 35.6549 36.2947 35.6973 36.2958C35.9737 36.3081 36.2501 36.3226 36.5255 36.3371C36.7377 36.3494 36.9499 36.3628 37.1621 36.3762C37.4799 36.3974 37.7987 36.4208 38.1165 36.4476C38.4092 36.4722 38.7019 36.5001 38.9958 36.5302C39.0056 36.5302 39.0164 36.5324 39.0262 36.5335C39.2363 36.5547 39.4463 36.5759 39.6563 36.5983C39.9926 36.6329 40.3289 36.6741 40.6651 36.7199C41.0003 36.7657 41.3355 36.8148 41.6707 36.8661C41.81 36.8873 41.9493 36.9096 42.0875 36.9319C42.5043 37.0011 42.92 37.077 43.3335 37.1607C43.5773 37.2098 43.8199 37.2611 44.0626 37.3147C44.3053 37.3683 44.5469 37.4263 44.7885 37.4866C45.1552 37.5792 45.5198 37.6785 45.88 37.7868C46.361 37.9318 46.8376 38.0948 47.3045 38.2856C47.422 38.3325 47.5374 38.3827 47.6538 38.4329C47.8301 38.511 48.0031 38.597 48.1751 38.684C48.2175 38.7052 48.2599 38.7264 48.3024 38.7487C48.335 38.7655 48.3688 38.7822 48.4014 38.7989C48.445 38.8213 48.4885 38.8436 48.5309 38.8681C48.5853 38.8983 48.6387 38.9306 48.6887 38.9663C48.8824 39.1036 49.0816 39.2331 49.2611 39.3893C49.3025 39.4261 49.3427 39.463 49.3819 39.502C49.4287 39.5422 49.4733 39.5857 49.5158 39.6292C49.5865 39.7018 49.6518 39.7799 49.7095 39.8614C49.7378 39.9015 49.7639 39.9428 49.7889 39.9852C49.8107 40.0221 49.8303 40.0589 49.8488 40.0968C49.8673 40.1348 49.8847 40.1738 49.8999 40.2151C49.9163 40.2553 49.9304 40.2966 49.9435 40.3379C49.9522 40.3669 49.962 40.397 49.9707 40.426C49.9794 40.455 49.9707 40.4283 49.9718 40.4294V40.426C49.9946 40.3022 49.9805 40.1772 49.9815 40.0522L49.9848 40.0555Z" fill="#F1ECE2"/>
<path fill-rule="evenodd" clip-rule="evenodd" d="M49.9913 37.9812C49.9924 37.5181 49.9924 37.0561 49.9913 36.5929C49.9913 36.3798 49.9891 36.1655 49.988 35.9524C49.9521 35.8319 49.9271 35.708 49.8738 35.593C49.7377 35.304 49.5342 35.0719 49.2992 34.8643C49.0424 34.6367 48.7583 34.4481 48.4601 34.2818C48.0281 34.0385 47.5798 33.8309 47.1173 33.6557C46.5818 33.4526 46.0388 33.2729 45.4882 33.1189C45.067 33.0018 44.6437 32.8935 44.2193 32.7942C43.735 32.6815 43.2486 32.5822 42.76 32.494C42.2528 32.4036 41.7435 32.3166 41.2332 32.244C40.9916 32.2094 40.7489 32.1771 40.5062 32.1458C39.9643 32.0744 39.4212 32.0119 38.8771 31.9628C38.7759 31.9528 38.6758 31.9382 38.5746 31.9304C38.1632 31.8981 37.7519 31.8668 37.3416 31.8367C37.2828 31.8322 37.2241 31.8278 37.1653 31.8233C36.8911 31.8032 36.6168 31.7831 36.3426 31.7686C35.9857 31.7508 35.6287 31.7374 35.2718 31.724H35.262C34.8887 31.7106 34.5165 31.6961 34.1433 31.6894C33.8146 31.6838 33.486 31.6805 33.1562 31.6793C33.0115 31.6793 32.8668 31.6782 32.721 31.6782C32.1442 31.6782 31.5685 31.6871 30.9928 31.7039H30.9678C30.292 31.724 29.6151 31.7519 28.9404 31.7965C28.4213 31.83 27.9022 31.8601 27.3842 31.9048C27.1742 31.9226 26.9653 31.9494 26.7563 31.9706C26.0261 32.0454 25.2981 32.1324 24.5722 32.2373C24.5635 32.2384 24.5559 32.2396 24.5472 32.2407C24.2566 33.0118 23.9955 33.793 23.7658 34.5864C23.7604 34.6065 23.755 34.6255 23.7495 34.6456C23.7778 34.6411 23.8072 34.6355 23.8366 34.6311C25.0543 34.4347 26.2786 34.2896 27.5072 34.1847C28.3441 34.1133 29.1809 34.0586 30.0199 34.0218C30.0624 34.0195 30.1048 34.0173 30.1473 34.0162C30.8557 33.986 31.5652 33.9693 32.2748 33.9626H32.3085C32.9985 33.957 33.6873 33.9615 34.3762 33.976C34.4077 33.976 34.4393 33.9782 34.4708 33.9782C34.9072 33.9883 35.3425 34.0039 35.7789 34.024C36.0564 34.0374 36.3328 34.0519 36.6103 34.0675C36.9357 34.0865 37.2622 34.1077 37.5876 34.1322C38.1393 34.1735 38.691 34.2237 39.2417 34.2784C39.4365 34.2985 39.6313 34.3197 39.8261 34.342C40.2635 34.3923 40.6999 34.4481 41.1363 34.5094C41.7686 34.5987 42.3997 34.7025 43.0277 34.823C43.587 34.9302 44.1442 35.0484 44.697 35.1868C45.5611 35.4022 46.4143 35.6522 47.2435 35.9847C47.3088 36.0115 47.3763 36.026 47.4416 36.0562C47.8083 36.2258 48.1739 36.3954 48.5254 36.5974C48.7812 36.7447 49.0184 36.9177 49.2502 37.1018C49.4722 37.2781 49.6496 37.4935 49.7987 37.7346C49.8912 37.8841 49.9423 38.0504 49.9815 38.2211C49.9967 38.1408 49.988 38.0593 49.988 37.979L49.9913 37.9812Z" fill="#FDBF41"/>
<path fill-rule="evenodd" clip-rule="evenodd" d="M37.1982 20.4851C37.4986 20.9661 37.7162 21.4861 37.8805 22.0307C37.9317 22.1993 37.9774 22.3689 38.0187 22.5396C38.0873 22.8242 38.1406 23.1132 38.1831 23.4034C38.195 23.4882 38.207 23.573 38.2179 23.6589C38.2386 23.8297 38.2571 24.0004 38.2723 24.1712C38.2788 24.2571 38.2853 24.3419 38.2919 24.4278C38.3223 24.8943 38.3354 25.3608 38.3234 25.8284C38.3104 26.3172 38.2821 26.806 38.2342 27.2936C38.1863 27.778 38.121 28.2601 38.0427 28.7388C37.9959 29.0267 37.9436 29.3135 37.8871 29.5981C37.4365 29.5613 36.986 29.53 36.5344 29.5077C36.3178 29.4977 36.1002 29.4854 35.8825 29.4742C36.0294 28.827 36.1535 28.1753 36.2503 27.5168C36.357 26.7881 36.4332 26.0572 36.4615 25.3217C36.4843 24.6968 36.4811 24.0707 36.4321 23.4458C36.3907 22.9246 36.3222 22.4091 36.2133 21.8979C36.0904 21.3232 35.9173 20.7652 35.6692 20.2329C35.5713 20.022 35.4559 19.82 35.3406 19.6191C35.4353 19.5879 35.5343 19.5845 35.6311 19.5745C35.6823 19.5689 35.7334 19.5645 35.7835 19.5611C35.827 19.5589 35.8705 19.5566 35.9141 19.5555C35.9848 19.5544 36.0555 19.5544 36.1263 19.5555C36.1753 19.5566 36.2253 19.5589 36.2743 19.5611C36.3124 19.5633 36.3505 19.5656 36.3886 19.5689C36.3951 19.5689 36.4016 19.57 36.4071 19.5711C36.419 19.5734 36.4299 19.5767 36.4408 19.5812C36.4517 19.5857 36.4615 19.5912 36.4713 19.5979C36.4854 19.6069 36.4996 19.6191 36.5126 19.6314C36.5463 19.6627 36.579 19.695 36.6106 19.7274C36.6748 19.7921 36.7368 19.8602 36.7956 19.9294C36.9446 20.1023 37.0785 20.2865 37.2015 20.4829L37.1982 20.4851Z" fill="#F1ECE2"/>
<path fill-rule="evenodd" clip-rule="evenodd" d="M36.2099 21.8977C36.3187 22.4077 36.3873 22.9244 36.4286 23.4456C36.4787 24.0705 36.4819 24.6966 36.458 25.3215C36.4308 26.0569 36.3546 26.7879 36.2469 27.5166C36.15 28.1751 36.026 28.8279 35.8791 29.474C35.7147 29.4662 35.5493 29.4573 35.385 29.4506C35.0085 29.4361 34.633 29.4272 34.2565 29.4194C34.1161 29.416 33.9757 29.4138 33.8364 29.4115C33.9735 28.8815 34.0943 28.3469 34.1977 27.809C34.2761 27.4062 34.3435 27.0011 34.4034 26.5948C34.4426 26.3225 34.4774 26.0503 34.5079 25.7768C34.5394 25.4912 34.5645 25.2043 34.5819 24.9164C34.6004 24.6095 34.6123 24.3015 34.6189 23.9946C34.6265 23.5828 34.6134 23.1722 34.584 22.7615C34.5645 22.4903 34.5394 22.2203 34.5057 21.9502C34.46 21.5808 34.3947 21.2159 34.3087 20.8543C34.2402 20.5653 34.1618 20.2774 34.0573 19.9984C34.1292 19.9515 34.2119 19.9281 34.2913 19.8979C34.4524 19.8365 34.6145 19.783 34.7799 19.7361C34.9453 19.6904 35.1118 19.6513 35.2816 19.6223C35.2936 19.62 35.3045 19.6167 35.3164 19.6167C35.324 19.6167 35.3306 19.6167 35.3371 19.6189C35.4525 19.8198 35.5678 20.0207 35.6658 20.2327C35.9139 20.765 36.0869 21.323 36.2099 21.8977Z" fill="#FDBF41"/>
<path fill-rule="evenodd" clip-rule="evenodd" d="M49.9826 42.63C49.9836 42.601 49.9858 42.5719 49.9858 42.5429C49.9858 42.0653 49.9869 41.5865 49.9869 41.1089C49.9869 40.9024 49.9836 40.696 49.9826 40.4895C49.9826 40.4773 49.988 40.4639 49.9869 40.4516C49.9836 40.4438 49.9793 40.4382 49.976 40.4315V40.4337C49.976 40.4326 49.976 40.4315 49.9749 40.4304C49.9662 40.4003 49.9564 40.3712 49.9477 40.3411C49.9347 40.2987 49.9194 40.2574 49.9042 40.2184C49.889 40.1782 49.8716 40.1391 49.8531 40.1001C49.8346 40.0621 49.8139 40.0242 49.7932 39.9885C49.7682 39.9461 49.7421 39.9048 49.7138 39.8646C49.6561 39.782 49.5919 39.705 49.5201 39.6325C49.4776 39.589 49.433 39.5465 49.3862 39.5053C49.347 39.4651 49.3068 39.4283 49.2654 39.3925C49.0858 39.2363 48.8867 39.1069 48.693 38.9696C48.6418 38.9339 48.5885 38.9015 48.5352 38.8714C48.4928 38.848 48.4492 38.8245 48.4057 38.8022C48.3731 38.7855 48.3393 38.7687 48.3067 38.752C48.2642 38.7297 48.2218 38.7085 48.1793 38.6873C48.0074 38.6002 47.8344 38.5143 47.6581 38.4362C47.5416 38.3859 47.4263 38.3357 47.3088 38.2889C46.8408 38.0991 46.3652 37.9351 45.8842 37.79C45.523 37.6807 45.1584 37.5813 44.7927 37.4898C44.5512 37.4296 44.3096 37.3715 44.0669 37.318C43.8242 37.2644 43.5815 37.2131 43.3378 37.164C42.9232 37.0803 42.5074 37.0033 42.0917 36.9352C41.9524 36.9129 41.8142 36.8905 41.6749 36.8693C41.3398 36.818 41.0057 36.7689 40.6694 36.7232C40.3342 36.6774 39.998 36.6361 39.6606 36.6015C39.4506 36.5803 39.2406 36.558 39.0305 36.5368C39.0207 36.5368 39.0098 36.5346 39.0001 36.5334C38.7073 36.5033 38.4146 36.4754 38.1208 36.4509C37.803 36.4241 37.4841 36.4018 37.1664 36.3794C36.9542 36.3649 36.742 36.3515 36.5298 36.3404C36.2533 36.3247 35.9769 36.3102 35.7016 36.2991C35.6592 36.2969 35.6167 36.2946 35.5743 36.2935C35.3164 36.2823 35.0595 36.2734 34.8016 36.2656C34.5437 36.2578 34.2869 36.2511 34.029 36.2466L33.7449 36.2433L33.4805 36.2399C33.2367 36.2377 32.993 36.2366 32.7503 36.2377C32.6077 36.2377 32.4652 36.2388 32.3237 36.2399C31.9461 36.2433 31.5685 36.2489 31.1909 36.2589C31.0875 36.2611 30.9841 36.2645 30.8796 36.2667C30.7196 36.2712 30.5586 36.2768 30.3986 36.2835C30.2909 36.2879 30.1831 36.2935 30.0754 36.298C29.6564 36.3158 29.2375 36.3381 28.8185 36.3638C28.3734 36.3928 27.9283 36.4241 27.4843 36.4631C27.1905 36.4888 26.8967 36.5167 26.6039 36.5468C26.1643 36.5915 25.7257 36.6417 25.2872 36.6986C24.8486 36.7555 24.4111 36.818 23.9747 36.8872C23.8539 36.9062 23.7332 36.9263 23.6124 36.9475C23.5307 36.9609 23.4502 36.9754 23.3686 36.9899C23.3066 37.001 23.2445 37.0111 23.1825 37.0222C23.2707 36.5669 23.3719 36.1149 23.4839 35.6652C23.5264 35.4956 23.5677 35.3271 23.6091 35.1574C23.6679 34.9912 23.7103 34.8193 23.7571 34.6497C23.7625 34.6296 23.768 34.6106 23.7734 34.5905C24.003 33.7971 24.2642 33.0148 24.5548 32.2448C24.7387 31.756 24.9346 31.2716 25.1424 30.7918C25.2817 30.4704 25.4265 30.1501 25.5755 29.8343C26.0685 28.7886 26.6159 27.772 27.2231 26.7888C27.7901 25.867 28.4071 24.9832 29.0829 24.1417C29.0971 24.125 29.108 24.1049 29.121 24.087C29.3245 23.8482 29.5248 23.6072 29.7326 23.3717C30.4095 22.6028 31.1386 21.8908 31.9461 21.267C32.1452 21.113 32.3509 20.9679 32.5544 20.8195C32.5729 20.8061 32.5958 20.8039 32.6175 20.8028C32.6273 20.7726 32.6545 20.7592 32.6774 20.7447C33.0942 20.4713 33.5273 20.228 33.9833 20.0316C33.9996 20.0249 34.0148 20.016 34.0322 20.0104C34.0366 20.0093 34.042 20.0082 34.0475 20.0071C34.0529 20.0071 34.0584 20.0048 34.0638 20.0048C34.1356 19.958 34.2183 19.9345 34.2978 19.9044C34.4588 19.843 34.621 19.7895 34.7864 19.7426C34.9518 19.6968 35.1183 19.6578 35.2881 19.6288C35.3 19.6265 35.3109 19.6232 35.3229 19.6232C35.3305 19.6232 35.337 19.6232 35.3436 19.6254C35.4382 19.5942 35.5373 19.5908 35.6341 19.5808C35.6853 19.5752 35.7364 19.5707 35.7865 19.5674C35.83 19.5651 35.8735 19.5629 35.9171 19.5618C35.9878 19.5607 36.0585 19.5607 36.1293 19.5618C36.1782 19.5629 36.2283 19.5651 36.2773 19.5674C36.3154 19.5696 36.3535 19.5718 36.3915 19.5752C36.3981 19.5752 36.4046 19.5763 36.41 19.5774C36.422 19.5797 36.4329 19.583 36.4438 19.5875C36.4547 19.5919 36.4645 19.5975 36.4743 19.6042C36.4884 19.6131 36.5025 19.6254 36.5156 19.6377C36.5493 19.6689 36.582 19.7013 36.6135 19.7337C36.6778 19.7984 36.7398 19.8665 36.7985 19.9356C36.9476 20.1086 37.0815 20.2928 37.2045 20.4892C37.5048 20.9701 37.7225 21.4902 37.8868 22.0348C37.9379 22.2033 37.9836 22.3729 38.025 22.5437C38.0935 22.8282 38.1469 23.1173 38.1893 23.4074C38.2013 23.4922 38.2133 23.577 38.2241 23.663C38.2448 23.8337 38.2633 24.0045 38.2786 24.1752C38.2851 24.2611 38.2916 24.346 38.2981 24.4319C38.3286 24.8984 38.3417 25.3648 38.3297 25.8324C38.3166 26.3212 38.2883 26.81 38.2405 27.2977C38.1926 27.782 38.1273 28.2641 38.0489 28.7429C38.0021 29.0308 37.9499 29.3176 37.8933 29.6022C37.9662 29.6077 38.0391 29.6133 38.112 29.62C38.6355 29.6647 39.1578 29.7182 39.6802 29.7673C39.6758 29.7617 39.6715 29.7573 39.6661 29.7528C40.0992 29.8075 40.5334 29.8611 40.9665 29.9157C40.9643 29.9202 40.9611 29.9247 40.9567 29.9291C40.9828 29.9325 41.0089 29.937 41.0351 29.9403C41.1221 29.5006 41.2005 29.0609 41.2669 28.6179C41.3256 28.2206 41.3779 27.8222 41.4181 27.4227C41.4562 27.0488 41.4899 26.675 41.5074 26.2989C41.5161 26.1181 41.5259 25.9362 41.5367 25.7554C41.5378 25.732 41.5259 25.7007 41.5618 25.6907C41.5618 25.3537 41.5596 25.0155 41.5585 24.6785C41.5411 24.6707 41.54 24.6551 41.5378 24.6383C41.5335 24.5703 41.5259 24.5033 41.5237 24.4352C41.5106 23.9453 41.4671 23.4588 41.4029 22.9744C41.3321 22.4376 41.2277 21.9087 41.0829 21.3875C41.047 21.257 41.0166 21.1253 40.96 21.0014L40.948 20.9568C40.948 20.9568 40.9436 20.9534 40.9436 20.9512V20.9467C40.9404 20.9311 40.9382 20.9155 40.9328 20.8998C40.7227 20.2782 40.4485 19.689 40.0709 19.1534C39.7074 18.6367 39.2688 18.2048 38.728 17.8834C38.5256 17.7629 38.3058 17.678 38.0979 17.5698C38.0794 17.5598 38.0555 17.562 38.0337 17.5575C38.0152 17.533 37.9858 17.5263 37.9608 17.514C37.47 17.2908 36.9803 17.0676 36.4884 16.8466C36.4253 16.8176 36.3676 16.7752 36.2969 16.7663C36.2849 16.7618 36.2729 16.7585 36.261 16.754C36.1772 16.7261 36.0912 16.706 36.0107 16.667C36.003 16.6647 35.9965 16.6625 35.9889 16.6592C35.9856 16.6581 35.9813 16.6569 35.978 16.6558H35.9758C35.9671 16.6614 35.9617 16.6569 35.9562 16.6491C35.7985 16.6078 35.6407 16.5766 35.4807 16.5543C35.3653 16.5375 35.25 16.5252 35.1335 16.5186C35.0944 16.5163 35.0563 16.5152 35.0171 16.5141C34.9007 16.5107 34.7853 16.5119 34.67 16.5174C34.5165 16.5241 34.3642 16.5386 34.2118 16.5598C33.9463 16.5978 33.6829 16.6547 33.4217 16.7284C33.3847 16.7395 33.3467 16.7496 33.3097 16.7618C32.8189 16.9114 32.3509 17.1134 31.8993 17.3522C31.7491 17.4314 31.6 17.5151 31.452 17.6033C31.3171 17.6825 31.1843 17.764 31.0526 17.8499C31.0091 17.8778 30.9656 17.9068 30.9221 17.9358C30.8785 17.9648 30.835 17.9939 30.7926 18.024C30.7066 18.0831 30.6217 18.1434 30.5379 18.2059C30.4966 18.2371 30.4541 18.2684 30.4128 18.2996V18.3086C30.4128 18.3108 30.4106 18.313 30.4095 18.3153C30.4062 18.3186 30.4019 18.3197 30.3954 18.3197H30.3943V18.3253C30.3943 18.3298 30.3921 18.332 30.3899 18.3331C30.3877 18.3342 30.3856 18.3342 30.3812 18.3331C30.3801 18.3331 30.3779 18.3331 30.3769 18.3309C30.1918 18.4637 30.0123 18.6021 29.8371 18.746C29.7587 18.8096 29.6815 18.8755 29.6053 18.9413C29.5933 18.9514 29.5813 18.9625 29.5694 18.9726C29.491 19.0406 29.4127 19.1098 29.3354 19.1801V19.1857C29.3354 19.1913 29.3332 19.1946 29.33 19.198C29.33 19.198 29.3278 19.1991 29.3267 19.2002C29.3245 19.2013 29.3213 19.2025 29.318 19.2025C29.3158 19.2069 29.3126 19.2114 29.3093 19.2147C29.3049 19.2192 29.3017 19.2237 29.2962 19.227C29.2897 19.2315 29.2821 19.2359 29.2734 19.2371C29.2734 19.2471 29.2712 19.2527 29.2668 19.2549C29.2603 19.2594 29.2483 19.256 29.2396 19.2571C29.2103 19.2884 29.1798 19.3196 29.1504 19.3498C29.1482 19.352 29.1471 19.3542 29.145 19.3553V19.3598C29.145 19.3643 29.1428 19.3665 29.1406 19.3699H29.1395C29.1395 19.3699 29.133 19.3732 29.1265 19.3732C29.1003 19.3955 29.0721 19.4156 29.047 19.439C29.0448 19.4413 29.0427 19.4424 29.0405 19.4446C28.9447 19.5372 28.8479 19.6299 28.7532 19.7247C28.7467 19.7314 28.7401 19.737 28.7347 19.7426C28.7053 19.7727 28.6748 19.8006 28.6444 19.8296C28.5682 19.9022 28.4898 19.9725 28.4169 20.0484C28.3778 20.0897 28.3375 20.1309 28.2983 20.1711C28.072 20.4066 27.8478 20.6443 27.6312 20.8898C27.3548 21.2034 27.086 21.5226 26.8248 21.8484C26.7878 21.8953 26.7498 21.941 26.7128 21.9879C26.7073 21.9946 26.7008 22.0024 26.6964 22.0102C26.6888 22.0214 26.6812 22.0326 26.6736 22.0448C26.6638 22.0604 26.654 22.0761 26.6442 22.0906C26.6366 22.1017 26.629 22.1118 26.6202 22.1229C26.617 22.1263 26.6148 22.1296 26.6126 22.1319C26.6007 22.1453 26.5887 22.1575 26.5745 22.1676C26.5745 22.1709 26.5735 22.172 26.5724 22.1743C26.5724 22.1765 26.5724 22.1787 26.5702 22.181C26.5702 22.1821 26.568 22.1832 26.5669 22.1843C26.5647 22.1854 26.5615 22.1866 26.5593 22.1877C26.5528 22.2189 26.5278 22.2345 26.5071 22.2546C26.506 22.2546 26.5049 22.2569 26.5038 22.258C26.4973 22.2636 26.4929 22.2703 26.4886 22.2769C26.4864 22.2803 26.4842 22.2836 26.4831 22.2881C26.482 22.2926 26.4799 22.2959 26.4788 22.3004V22.306C26.4788 22.3115 26.4766 22.3149 26.4722 22.3182C26.4722 22.3182 26.4701 22.3182 26.4701 22.3194H26.4657H26.4614C26.4135 22.3807 26.3645 22.4421 26.3166 22.5035C26.3145 22.5068 26.3112 22.5102 26.309 22.5135C26.3101 22.5213 26.3101 22.528 26.309 22.5347C26.309 22.5403 26.3057 22.5437 26.3036 22.5481C26.3036 22.5492 26.3014 22.5515 26.3014 22.5526C26.2981 22.5559 26.2938 22.5604 26.2894 22.5626C26.284 22.566 26.2775 22.5682 26.2709 22.5704C26.2633 22.5794 26.2557 22.5872 26.2481 22.5961C26.2448 22.5995 26.2426 22.6028 26.2405 22.605C26.2339 22.6117 26.2285 22.6195 26.223 22.6262C26.1001 22.7959 25.9771 22.9666 25.8541 23.1362C25.8541 23.1418 25.852 23.1452 25.8487 23.1485C25.8487 23.1485 25.8476 23.1496 25.8465 23.1508C25.8443 23.153 25.8411 23.1541 25.8378 23.1541C25.7529 23.2769 25.6659 23.3985 25.5821 23.5224C25.5657 23.5469 25.5494 23.5715 25.5331 23.596C25.408 23.7846 25.2904 23.9788 25.1642 24.1663C25.1011 24.26 25.0412 24.356 24.9814 24.4509C24.9204 24.5457 24.8595 24.6406 24.7931 24.7332C24.6875 24.8816 24.5972 25.0434 24.5047 25.2008C24.4644 25.2689 24.4242 25.3369 24.385 25.405C23.9377 26.1661 23.5035 26.935 23.1335 27.7396C23.1118 27.7865 23.0867 27.83 23.0617 27.8746C23.0367 27.9182 23.0106 27.9628 22.9888 28.0074C22.8626 28.2675 22.7396 28.5286 22.6199 28.792C22.5753 28.8902 22.5317 28.9884 22.4871 29.0877C22.4294 29.216 22.3729 29.3455 22.3174 29.4749C22.2466 29.639 22.1759 29.8041 22.1062 29.9704C22.0769 30.0396 22.0486 30.1099 22.0203 30.1802C21.9844 30.2673 21.9484 30.3543 21.9136 30.4425C21.7896 30.7516 21.6699 31.0641 21.5534 31.3765C21.5197 31.4681 21.4859 31.5596 21.4533 31.6522C21.3739 31.8754 21.2966 32.0986 21.2193 32.3229C21.2008 32.3765 21.1823 32.43 21.1638 32.4836C21.1497 32.5249 21.1355 32.5673 21.1225 32.6097C21.0866 32.7157 21.0528 32.8228 21.0202 32.93C20.9799 33.0605 20.9407 33.1911 20.9016 33.3217C20.8733 33.4154 20.845 33.508 20.8156 33.6018C20.7492 33.8105 20.6719 34.0169 20.6458 34.2368C20.6447 34.2479 20.6317 34.258 20.6251 34.268C20.5925 34.3595 20.5729 34.4533 20.5511 34.547C20.5403 34.5917 20.5272 34.6363 20.5141 34.6809C20.5011 34.7256 20.488 34.7702 20.4761 34.8148C20.426 35.0068 20.377 35.1999 20.3313 35.3929C20.2889 35.567 20.2486 35.7433 20.2094 35.9185C20.1659 36.1161 20.1246 36.3136 20.0843 36.5111C20.0495 36.6841 20.0157 36.8582 19.9842 37.0323C19.9591 37.1707 19.9341 37.3079 19.9113 37.4463C19.8906 37.5679 19.8721 37.6896 19.8525 37.8112C19.8286 37.9663 19.8057 38.1203 19.785 38.2755C19.7665 38.415 19.7491 38.5533 19.7317 38.6928C19.686 39.0756 19.649 39.4584 19.6196 39.8434C19.612 39.9539 19.6044 40.0632 19.5989 40.1737C19.5924 40.2842 19.587 40.3936 19.5826 40.504C19.5739 40.7239 19.5674 40.9449 19.5608 41.1647C19.5598 41.2149 19.5598 41.2651 19.5587 41.3154V41.3611C19.5576 41.6435 19.5685 41.9247 19.5772 42.2048C19.5772 42.2171 19.5793 42.2304 19.5793 42.2427C19.5815 42.2929 19.5837 42.3432 19.587 42.3934C19.5968 42.5965 19.6131 42.7996 19.6338 43.0027C19.6479 43.14 19.6631 43.2783 19.6806 43.4156C19.6827 43.4357 19.686 43.4547 19.6882 43.4748C19.7252 43.7537 19.7676 44.0316 19.8209 44.3073C19.92 44.8228 20.0516 45.3295 20.2323 45.8216C20.2356 45.8294 20.2388 45.8384 20.2421 45.8473C20.377 46.2111 20.5337 46.5649 20.7263 46.9019C21.043 47.4565 21.4294 47.9476 21.9223 48.3393C21.9811 48.3861 22.0409 48.4308 22.1019 48.4754C22.1606 48.5167 22.2238 48.5546 22.2847 48.5926C22.2956 48.6004 22.3086 48.606 22.3206 48.6116C22.3293 48.616 22.338 48.6194 22.3467 48.6238C22.362 48.6316 22.3761 48.6417 22.3859 48.6562C22.3892 48.6607 22.3924 48.6674 22.3957 48.674V48.6718C22.412 48.6696 22.4262 48.6729 22.4338 48.6908H22.4349C22.4501 48.6908 22.4643 48.6953 22.4719 48.7098C22.4762 48.7098 22.4795 48.7098 22.4828 48.7109H22.4839C22.4936 48.7131 22.5024 48.7176 22.5089 48.7276V48.7287H22.5121H22.5187C22.5209 48.7287 22.5219 48.7298 22.5252 48.7298C22.5263 48.7298 22.5285 48.7298 22.5296 48.731C22.5317 48.731 22.5339 48.7332 22.5361 48.7343C22.5361 48.7343 22.5383 48.7343 22.5394 48.7354C22.5415 48.7377 22.5437 48.7399 22.5459 48.7421H22.547C22.5676 48.7644 22.5959 48.77 22.6221 48.7823C23.1651 49.0289 23.7092 49.2756 24.2522 49.5222C24.521 49.6438 24.7877 49.7722 25.0717 49.8525C25.3557 49.9329 25.6441 49.9875 25.939 49.9998H26.0859H26.5267C26.6692 49.9954 26.8107 49.9764 26.9511 49.9541C27.5224 49.8659 28.0709 49.6929 28.6008 49.4597C29.5716 49.0323 30.4476 48.4486 31.2692 47.7735C31.4499 47.625 31.6261 47.4722 31.8014 47.317C32.4119 47.3282 33.0213 47.3315 33.6318 47.3248C34.2129 47.3181 34.7951 47.3081 35.3762 47.2847C35.4045 47.2679 35.435 47.2679 35.4655 47.2802H35.4916C35.5264 47.2635 35.5623 47.2646 35.5982 47.2757H35.6243C35.645 47.2623 35.6668 47.2601 35.6885 47.2646H35.6907H35.6918C35.6994 47.2668 35.706 47.269 35.7125 47.2713H35.7386C35.7527 47.2624 35.7669 47.259 35.781 47.2579C35.7963 47.2579 35.8115 47.2612 35.8278 47.2657H35.854C35.8637 47.2601 35.8735 47.2568 35.8833 47.2545C35.9029 47.2501 35.9236 47.2523 35.9443 47.2601H35.9693C35.9693 47.2601 35.9715 47.2601 35.9726 47.259C36.0009 47.2445 36.0303 47.2445 36.0585 47.2557H36.0836C36.113 47.2367 36.1423 47.2389 36.1739 47.2501H36.1989C36.2283 47.2322 36.2588 47.2344 36.2892 47.2445H36.3143C36.3208 47.24 36.3263 47.2378 36.3317 47.2356C36.3415 47.2322 36.3502 47.2322 36.36 47.2322C36.3687 47.2322 36.3785 47.2344 36.3872 47.2389C36.52 47.2322 36.6516 47.2278 36.7844 47.2199C37.8008 47.1586 38.814 47.076 39.826 46.961C41.3626 46.7858 42.8894 46.5504 44.3977 46.1977C45.425 45.9578 46.4382 45.6699 47.4176 45.2648C47.9432 45.0472 48.4536 44.7983 48.9259 44.4724C49.2099 44.276 49.4733 44.0551 49.6844 43.7727C49.8171 43.593 49.9249 43.4 49.9662 43.1746C49.9826 43.1567 49.9891 43.1355 49.9902 43.1132C50 42.9514 50.0054 42.7907 49.9913 42.6289L49.9826 42.63ZM36.3415 39.2162C36.0585 39.1984 35.7767 39.1827 35.4937 39.1705C35.7767 39.1839 36.0585 39.1995 36.3415 39.2162ZM30.0656 44.4847C30.0199 44.526 29.9742 44.5684 29.9285 44.6097C29.6075 44.8987 29.2766 45.1721 28.9317 45.4277C28.5867 45.6821 28.2287 45.9187 27.8543 46.1296C27.801 46.1598 27.7466 46.1899 27.6922 46.2189C27.567 46.2859 27.4408 46.3495 27.3135 46.4109C27.1861 46.4711 27.0566 46.5269 26.926 46.5794C26.6649 46.6843 26.3972 46.7713 26.1207 46.8383C26.001 46.8673 25.8813 46.8918 25.7616 46.9108C25.7192 46.9175 25.6767 46.9242 25.6354 46.9309C25.4722 46.9532 25.3089 46.9666 25.1446 46.9711C25.0902 46.9722 25.0347 46.9733 24.9803 46.9722C24.9248 46.9722 24.8704 46.97 24.8149 46.9677C24.7909 46.9666 24.7681 46.9633 24.7441 46.961C24.7213 46.9588 24.6973 46.9555 24.6734 46.9532C24.6429 46.951 24.6201 46.9376 24.5972 46.9175C24.5319 46.8573 24.4699 46.7948 24.4089 46.73C24.3186 46.6341 24.2327 46.5336 24.1521 46.4298C24.0988 46.3606 24.0466 46.2892 23.9965 46.2156C23.9715 46.1787 23.9475 46.1419 23.9236 46.1051C23.9214 46.1017 23.9203 46.0984 23.9192 46.095C23.9182 46.0895 23.916 46.0828 23.9149 46.0772C23.9051 46.0671 23.892 46.0571 23.8844 46.0459L23.8822 46.0437C23.7702 45.8618 23.6689 45.6743 23.5775 45.4813C23.5318 45.3842 23.4883 45.2882 23.448 45.1889C23.4067 45.0907 23.3686 44.9902 23.3327 44.8887C23.3283 44.8764 23.3294 44.8641 23.3272 44.8507C23.2641 44.7302 23.2326 44.5985 23.1934 44.4702C23.1063 44.1834 23.0378 43.8921 22.9812 43.5975C22.9714 43.5451 22.9616 43.4937 22.9518 43.4413C22.9474 43.4201 22.9453 43.4 22.9409 43.3788C22.9366 43.3531 22.9311 43.3274 22.9268 43.3018C22.9268 43.2951 22.9268 43.2895 22.9246 43.2828C22.9224 43.2605 22.9213 43.2371 22.9192 43.2147C22.8822 43.0507 22.8658 42.8833 22.8473 42.7159C22.7842 42.1825 22.7603 41.6468 22.7592 41.1111C22.7592 40.9091 22.7614 40.706 22.7668 40.5029C22.7701 40.3824 22.7755 40.263 22.782 40.1436C23.2119 40.0387 23.645 39.9461 24.0792 39.8613C24.8214 39.7173 25.5679 39.6001 26.3166 39.5053C26.3286 39.5041 26.3406 39.5019 26.3525 39.5008C26.3667 39.4986 26.3808 39.4974 26.395 39.4986C26.4037 39.4986 26.4124 39.5008 26.4211 39.503C26.5375 39.4774 26.6562 39.464 26.7748 39.4517C26.8292 39.4461 26.8836 39.4405 26.9369 39.435C27.7596 39.3412 28.5834 39.2698 29.4083 39.2185C29.6401 39.2039 29.8719 39.1906 30.1026 39.1794C30.6946 39.1504 31.2866 39.1314 31.8786 39.1202C32.2029 39.1136 32.5272 39.1102 32.8515 39.1102C33.314 39.1102 33.7765 39.1158 34.2379 39.1269C34.1378 39.2977 34.0366 39.4684 33.9332 39.6369C33.8581 39.7608 33.7819 39.8836 33.7047 40.0052C33.5665 40.2228 33.4261 40.4382 33.2824 40.6525C33.0169 41.0475 32.7416 41.4348 32.4554 41.8142C32.3651 41.9347 32.2736 42.0541 32.1801 42.1724C32.1637 42.1936 32.1474 42.2148 32.1311 42.2349C31.9961 42.4068 31.859 42.5753 31.7186 42.7416C31.4847 43.0194 31.2442 43.2906 30.9971 43.5562C30.9221 43.6366 30.847 43.7169 30.7708 43.7962C30.5749 43.9993 30.3725 44.1979 30.1657 44.391C30.2288 44.3943 30.292 44.3965 30.3551 44.3999C30.292 44.3965 30.2288 44.3943 30.1657 44.391C30.132 44.4222 30.0983 44.4546 30.0645 44.4858L30.0656 44.4847ZM31.1669 44.4311C31.4063 44.439 31.6468 44.4456 31.8862 44.4501C31.6457 44.4456 31.4063 44.439 31.1669 44.4311ZM46.9921 41.8175C46.9855 41.8265 46.9747 41.8354 46.9573 41.8488C46.9344 41.8666 46.9115 41.8856 46.8876 41.9024C46.8648 41.9202 46.8408 41.937 46.8169 41.9548C46.7723 41.9872 46.7265 42.0184 46.6798 42.0485C46.6743 42.0519 46.6689 42.0552 46.6634 42.0597C46.6253 42.0843 46.5873 42.1088 46.5481 42.1322C46.4904 42.168 46.4338 42.2014 46.375 42.2349C45.9767 42.4626 45.5578 42.6456 45.1301 42.8074C44.7264 42.9592 44.3172 43.092 43.9047 43.2103C43.3138 43.3799 42.7153 43.5205 42.1113 43.6433C41.5248 43.7638 40.936 43.8653 40.3451 43.9535C39.7542 44.0417 39.1611 44.1153 38.5669 44.1789C38.3721 44.2001 38.1773 44.2191 37.9825 44.2381C37.5919 44.2749 37.2012 44.3062 36.8105 44.3329C36.6146 44.3463 36.4188 44.3586 36.224 44.3698C35.7854 44.3954 35.3468 44.4144 34.9083 44.4289C34.8288 44.4311 34.7494 44.4345 34.6689 44.4367C34.596 44.4389 34.523 44.4412 34.449 44.4434C34.6286 44.2158 34.8082 43.9892 34.9725 43.7493C34.9964 43.7192 35.0204 43.689 35.0432 43.6578C35.3947 43.1723 35.7321 42.678 36.0564 42.1747C36.0738 42.1468 36.1641 42.0061 36.1913 41.9626C36.397 41.6379 36.5961 41.3098 36.7909 40.9772C37.1087 40.4326 37.4123 39.8802 37.7007 39.32C38.2513 39.3691 38.8009 39.426 39.3505 39.4952C39.3907 39.4997 39.431 39.5086 39.4723 39.5153C39.7183 39.5332 39.9621 39.5711 40.2047 39.6079C40.5171 39.6548 40.8294 39.7061 41.1406 39.7597C41.5607 39.8322 41.9807 39.9126 42.3975 40.0052C42.6228 40.0554 42.847 40.1068 43.0722 40.157C43.0744 40.157 43.0777 40.157 43.0799 40.1581C43.082 40.1581 43.0842 40.1581 43.0875 40.1592C43.1016 40.1614 43.1179 40.1614 43.1332 40.1637C43.1528 40.1659 43.1724 40.1715 43.1876 40.1882C43.6686 40.3143 44.1485 40.4471 44.6197 40.6067C44.6632 40.6212 44.7133 40.6257 44.747 40.6636C44.87 40.686 44.9821 40.7384 45.0975 40.7819C45.1987 40.8199 45.2999 40.86 45.4 40.9013C45.6862 41.0174 45.967 41.1457 46.239 41.2942C46.3468 41.3522 46.4523 41.4136 46.5568 41.4783C46.695 41.5642 46.8299 41.6546 46.9562 41.7584C46.9932 41.7885 47.004 41.8008 46.9899 41.8187L46.9921 41.8175Z" fill="#007FFF"/>
<path fill-rule="evenodd" clip-rule="evenodd" d="M49.9925 33.7738C49.9794 33.507 49.8804 33.2716 49.7291 33.0573C49.5158 32.7527 49.2405 32.515 48.9423 32.3051C48.4341 31.948 47.878 31.6858 47.3089 31.4514C46.9922 31.3209 46.6712 31.2048 46.3469 31.0977C45.8528 30.9347 45.3511 30.7952 44.8473 30.668C44.2172 30.5096 43.5838 30.3723 42.9461 30.2529C42.5576 30.1803 42.1681 30.11 41.7774 30.052C41.7654 30.052 41.7534 30.0509 41.7415 30.0498C41.7349 30.0498 41.7273 30.0487 41.7208 30.0475C41.7066 30.0464 41.6914 30.0442 41.6773 30.0431C41.6446 30.0386 41.6109 30.0319 41.5793 30.0241C41.4629 30.0051 41.3475 29.9862 41.2311 29.9661C41.1636 29.956 41.0961 29.946 41.0287 29.9371C41.0026 29.9326 40.9764 29.9293 40.9503 29.9259C40.6815 29.8924 40.4116 29.8601 40.1428 29.8244C40.0645 29.8143 39.9861 29.8076 39.9078 29.7987C39.8294 29.7909 39.7511 29.7808 39.6738 29.7652C39.1515 29.715 38.6291 29.6614 38.1057 29.6179C38.0327 29.6123 37.9598 29.6056 37.8869 29.6C37.4364 29.5632 36.9859 29.532 36.5342 29.5097C36.3177 29.4996 36.1 29.4873 35.8824 29.4762C35.7181 29.4684 35.5527 29.4594 35.3883 29.4527C35.0118 29.4382 34.6364 29.4293 34.2598 29.4215C34.1194 29.4181 33.9791 29.4159 33.8398 29.4137C33.6036 29.4092 33.8398 29.4137 33.8398 29.4137C33.8398 29.4137 34.0977 28.349 34.2011 27.8111C34.2794 27.4083 34.3469 27.0032 34.4067 26.597C34.4459 26.3247 34.4807 26.0524 34.5112 25.779C34.5428 25.4933 34.5678 25.2065 34.5852 24.9186C34.6037 24.6117 34.6157 24.3037 34.6222 23.9968C34.6298 23.585 34.6168 23.1743 34.5874 22.7636C34.5678 22.4924 34.5428 22.2224 34.509 21.9523C34.4633 21.5829 34.398 21.218 34.3121 20.8564C34.2435 20.5674 34.1651 20.2795 34.0607 20.0005C34.0552 20.0005 34.0498 20.0005 34.0444 20.0027C34.0389 20.0027 34.0335 20.005 34.0291 20.0061C34.0117 20.0116 33.9965 20.0206 33.9801 20.0273C33.5231 20.2237 33.0911 20.4681 32.6743 20.7404C32.6503 20.756 32.6242 20.7683 32.6144 20.7984C32.7145 21.4468 32.7613 22.0985 32.7668 22.7547C32.7755 23.6932 32.708 24.6262 32.5828 25.5558C32.4882 26.2555 32.363 26.9496 32.2107 27.6393C32.079 28.2374 31.9266 28.83 31.7569 29.417C31.3466 29.4215 30.9353 29.4349 30.525 29.4483C29.9787 29.4672 29.4324 29.4929 28.8872 29.5286C28.4062 29.5599 27.9241 29.5922 27.4431 29.6346C26.8184 29.6904 26.1949 29.7529 25.5735 29.831C25.4244 30.148 25.2797 30.4671 25.1404 30.7885C24.9325 31.2684 24.7366 31.7527 24.5527 32.2415C24.5614 32.2404 24.5691 32.2393 24.5778 32.2382C25.3036 32.1333 26.0327 32.0462 26.7619 31.9715C26.9708 31.9503 27.1797 31.9246 27.3898 31.9056C27.9078 31.861 28.4269 31.8309 28.946 31.7974C29.6207 31.7527 30.2965 31.7248 30.9733 31.7048H30.9984C31.5741 31.688 32.1497 31.6802 32.7265 31.6791C32.8712 31.6791 33.016 31.6791 33.1618 31.6802C33.4904 31.6813 33.8202 31.6847 34.1488 31.6903C34.5221 31.6969 34.8943 31.7115 35.2675 31.7248H35.2773C35.6343 31.7382 35.9912 31.7516 36.3482 31.7695C36.6224 31.7829 36.8966 31.803 37.1709 31.8242C37.2296 31.8286 37.2884 31.8331 37.3472 31.8376C37.7585 31.8677 38.1688 31.8989 38.5801 31.9313C38.6813 31.9391 38.7815 31.9536 38.8827 31.9637C39.4268 32.0128 39.9698 32.0753 40.5118 32.1467C40.7544 32.1779 40.996 32.2114 41.2387 32.2449C41.7491 32.3174 42.2584 32.4045 42.7655 32.4949C43.2541 32.583 43.7416 32.6823 44.2248 32.7951C44.6503 32.8944 45.0736 33.0026 45.4937 33.1198C46.0454 33.2738 46.5874 33.4535 47.1228 33.6566C47.5853 33.8329 48.0326 34.0405 48.4657 34.2826C48.7639 34.45 49.0468 34.6375 49.3047 34.8652C49.5387 35.0716 49.7433 35.3038 49.8793 35.5939C49.9337 35.7088 49.9588 35.8327 49.9936 35.9532C49.9947 35.7133 49.9968 35.4734 49.9979 35.2334V34.1644C49.9979 34.0349 50.0023 33.9043 49.9958 33.776L49.9925 33.7738Z" fill="#FF1100"/>
<path fill-rule="evenodd" clip-rule="evenodd" d="M36.2547 16.7509C36.1709 16.723 36.0849 16.7029 36.0044 16.6639C36.0044 16.6527 36.0055 16.6415 36.0066 16.6304C36.1067 16.6616 36.2014 16.7051 36.2895 16.7632C36.2775 16.7587 36.2656 16.7554 36.2536 16.7509H36.2547Z" fill="#404A5A"/>
<path fill-rule="evenodd" clip-rule="evenodd" d="M36.0004 16.6236C35.4628 16.3781 34.9241 16.1337 34.3865 15.8871C34.3648 15.877 34.343 15.8848 34.3234 15.8726C34.3049 15.877 34.2853 15.8815 34.2777 15.8569C34.2559 15.867 34.2353 15.8569 34.2146 15.8491C33.7434 15.704 33.2613 15.6594 32.7705 15.6851C32.1208 15.7197 31.4983 15.8826 30.8933 16.1225C30.7028 16.1973 30.5157 16.2799 30.3328 16.368C30.2871 16.3904 30.2414 16.4127 30.1957 16.4361C30.1424 16.4629 30.0891 16.4897 30.0368 16.5187C29.9661 16.5555 29.8964 16.5935 29.8257 16.6325C29.459 16.8379 29.1031 17.0666 28.7581 17.3122C28.6863 17.3635 28.6145 17.4148 28.5438 17.4673L28.5013 17.4985C28.3316 17.6257 28.1651 17.7552 28.0018 17.8891C27.5926 18.2228 27.1998 18.5777 26.82 18.9493C25.7655 19.9816 24.8285 21.121 23.971 22.3284C23.9492 22.3597 23.9275 22.392 23.9057 22.4233C23.8839 22.4545 23.9035 22.4311 23.9013 22.4333C23.8992 22.4356 23.8959 22.4367 23.8915 22.4378C23.8143 22.5505 23.7381 22.6621 23.6608 22.7748C23.5324 22.9623 23.4062 23.1498 23.2821 23.3406C23.1646 23.5214 23.0482 23.7044 22.9339 23.8874C22.8425 24.0325 22.7532 24.1787 22.6651 24.326C22.5867 24.4577 22.5084 24.5883 22.4311 24.72C22.3223 24.9063 22.2146 25.0938 22.1079 25.2835C22.0546 25.3784 22.0024 25.4721 21.9501 25.5681C21.9447 25.5792 21.9371 25.5893 21.9305 25.6004C21.9305 25.6127 21.9262 25.6228 21.9218 25.6328C21.9175 25.6395 21.9131 25.6473 21.9099 25.654C21.8609 25.7433 21.813 25.8337 21.7651 25.9241C21.5845 26.2622 21.4082 26.6037 21.2384 26.9474C21.1666 27.0925 21.0959 27.2387 21.0262 27.3849C20.6497 28.175 20.3004 28.9774 19.9793 29.7909C19.8085 30.2228 19.6463 30.658 19.4918 31.0955C19.4102 31.3276 19.3296 31.5608 19.2524 31.7952C19.1098 32.2282 18.9792 32.6645 18.8519 33.102C18.7997 33.2817 18.7485 33.4624 18.6996 33.6432C18.6985 33.6477 18.6974 33.6522 18.6963 33.6566C18.619 33.9401 18.5472 34.2246 18.4797 34.5103C18.4177 34.767 18.3579 35.0248 18.3024 35.2837C18.2545 35.5047 18.2109 35.7267 18.1674 35.9488C18.1576 36.0013 18.1478 36.0537 18.138 36.1073C18.1337 36.1285 18.1304 36.1497 18.1261 36.1709C18.125 36.1787 18.1228 36.1865 18.1217 36.1954C18.1141 36.2379 18.1054 36.2791 18.0978 36.3216C18.0357 36.6686 17.9802 37.0168 17.9324 37.3672C17.8856 37.7054 17.8442 38.0424 17.8094 38.3816C17.8018 38.4575 17.7952 38.5334 17.7876 38.6093C17.7876 38.6149 17.7865 38.6204 17.7865 38.626C17.7811 38.6841 17.7778 38.7253 17.7735 38.7666C17.7582 38.9552 17.7452 39.145 17.7343 39.3335C17.7234 39.5233 17.7147 39.713 17.7093 39.9027C17.7093 39.9272 17.7093 39.9518 17.7071 39.9763C17.6962 40.3413 17.694 40.7051 17.7049 41.0689C17.7158 41.4126 17.7343 41.7552 17.7659 42.0978C17.7963 42.4393 17.8388 42.7797 17.8964 43.12C17.9247 43.2863 17.9552 43.4515 17.99 43.6155C18.1054 44.169 18.261 44.7114 18.4743 45.2359C18.4895 45.2727 18.5037 45.3084 18.52 45.3453C18.5352 45.381 18.5516 45.4178 18.5668 45.4535C18.6038 45.5383 18.643 45.622 18.6832 45.7046C18.7507 45.843 18.8225 45.978 18.8987 46.1097C19.1076 46.4713 19.3536 46.8072 19.6452 47.1107C19.7214 47.1911 19.8009 47.267 19.8825 47.3395C20.0359 47.4768 20.1992 47.6029 20.3733 47.7156C20.4059 47.7368 20.444 47.7491 20.4679 47.7814C20.4712 47.7859 20.4745 47.7915 20.4767 47.797C20.493 47.7937 20.5049 47.797 20.5093 47.8149C20.5768 47.8316 20.6312 47.8785 20.6932 47.9064C21.024 48.0571 21.3538 48.2077 21.6846 48.3584C21.8729 48.4443 22.0622 48.528 22.2516 48.6128L22.2755 48.5905C22.2146 48.5514 22.1515 48.5146 22.0927 48.4733C22.0307 48.4298 21.9719 48.384 21.9131 48.3372C21.4202 47.9444 21.0338 47.4544 20.7172 46.8998C20.5245 46.5628 20.3678 46.209 20.2329 45.8452C20.2296 45.8363 20.2264 45.8285 20.2231 45.8196C20.0424 45.3274 19.9108 44.8208 19.8117 44.3052C19.7584 44.0295 19.716 43.7517 19.679 43.4727C19.6768 43.4526 19.6735 43.4336 19.6714 43.4135C19.6539 43.2763 19.6387 43.1379 19.6246 43.0006C19.6039 42.7975 19.5886 42.5955 19.5778 42.3913C19.5756 42.3411 19.5723 42.2909 19.5701 42.2406C19.5701 42.2284 19.5691 42.215 19.568 42.2027C19.5582 41.9215 19.5484 41.6403 19.5495 41.359V41.3133C19.5495 41.2631 19.5495 41.2128 19.5516 41.1626C19.5582 40.9417 19.5647 40.7218 19.5734 40.502C19.5778 40.3915 19.5832 40.2821 19.5897 40.1716C19.5963 40.0612 19.6028 39.9518 19.6104 39.8413C19.6387 39.4563 19.6768 39.0735 19.7225 38.6908C19.7388 38.5513 19.7562 38.4129 19.7758 38.2734C19.7965 38.1183 19.8194 37.9631 19.8433 37.8091C19.8618 37.6875 19.8814 37.5659 19.9021 37.4442C19.9249 37.3058 19.9499 37.1686 19.975 37.0302C20.0065 36.8561 20.0403 36.6831 20.0751 36.509C20.1154 36.3115 20.1567 36.1129 20.2002 35.9165C20.2394 35.7412 20.2797 35.566 20.3221 35.3908C20.3689 35.1978 20.4168 35.0047 20.4669 34.8128C20.4788 34.7681 20.4919 34.7235 20.5049 34.6788C20.518 34.6342 20.5311 34.5896 20.5419 34.5449C20.5648 34.4512 20.5833 34.3574 20.6159 34.2659C20.6236 34.2559 20.6355 34.2459 20.6366 34.2347C20.6627 34.0137 20.74 33.8073 20.8064 33.5997C20.8358 33.5071 20.8641 33.4133 20.8924 33.3196C20.9315 33.189 20.9707 33.0585 21.011 32.9279C21.0436 32.8208 21.0774 32.7136 21.1133 32.6076C21.1274 32.5663 21.1405 32.5239 21.1546 32.4815C21.1731 32.4279 21.1916 32.3744 21.2101 32.3208C21.2885 32.0976 21.3647 31.8733 21.4441 31.6501C21.4767 31.5586 21.5105 31.466 21.5442 31.3745C21.6607 31.0609 21.7804 30.7495 21.9044 30.4404C21.9392 30.3522 21.9752 30.2652 22.0111 30.1781C22.0405 30.1078 22.0687 30.0387 22.097 29.9683C22.1667 29.8032 22.2374 29.638 22.3082 29.4729C22.3637 29.3434 22.4202 29.2151 22.4779 29.0856C22.5215 28.9863 22.5661 28.8892 22.6107 28.7899C22.7304 28.5265 22.8523 28.2654 22.9796 28.0054C23.0014 27.9596 23.0275 27.9161 23.0525 27.8726C23.0775 27.829 23.1026 27.7844 23.1243 27.7375C23.4943 26.9329 23.9285 26.164 24.3758 25.4029C24.4161 25.3348 24.4553 25.2668 24.4955 25.1987C24.5891 25.0402 24.6783 24.8795 24.7839 24.7311C24.8503 24.6385 24.9112 24.5447 24.9722 24.4488C25.0331 24.3539 25.093 24.2579 25.155 24.1642C25.2812 23.9767 25.3988 23.7825 25.5239 23.5939C25.5402 23.5694 25.5566 23.5448 25.5729 23.5203C25.6567 23.3964 25.7437 23.2748 25.8286 23.152V23.1487V23.1453C25.8286 23.1453 25.8351 23.1386 25.8384 23.1364C25.8406 23.1364 25.8428 23.1342 25.8449 23.1342C25.9679 22.9645 26.0909 22.7938 26.2138 22.6242C26.2193 22.6164 26.2258 22.6097 26.2313 22.603C26.2345 22.5996 26.2367 22.5963 26.2389 22.594C26.2465 22.5851 26.2541 22.5773 26.2617 22.5684V22.5572C26.2617 22.5539 26.2617 22.5505 26.2628 22.5483C26.265 22.5416 26.2672 22.5371 26.2704 22.5327C26.2737 22.5282 26.2791 22.5248 26.2835 22.5204C26.2889 22.517 26.2944 22.5137 26.2998 22.5103C26.3031 22.507 26.3053 22.5036 26.3074 22.5003C26.3553 22.4389 26.4043 22.3775 26.4522 22.3162C26.4576 22.3095 26.4631 22.3016 26.4685 22.295C26.4685 22.2905 26.4707 22.2871 26.4728 22.2827C26.4739 22.2793 26.4761 22.2749 26.4783 22.2715C26.4826 22.2648 26.4881 22.2581 26.4935 22.2525C26.4935 22.2514 26.4957 22.2503 26.4968 22.2492C26.5175 22.2291 26.5436 22.2124 26.549 22.1822V22.1767C26.549 22.1711 26.5534 22.1666 26.5577 22.1644C26.5599 22.1644 26.5621 22.1633 26.5643 22.1622C26.5784 22.151 26.5915 22.1398 26.6023 22.1264C26.6056 22.1231 26.6078 22.1197 26.61 22.1175C26.6187 22.1075 26.6263 22.0963 26.6339 22.0852C26.6437 22.0706 26.6535 22.055 26.6633 22.0394C26.6709 22.0282 26.6785 22.016 26.6861 22.0048C26.6916 21.997 26.697 21.9892 26.7025 21.9825C26.7395 21.9356 26.7776 21.8887 26.8146 21.843C27.0757 21.516 27.3445 21.1968 27.6209 20.8844C27.8375 20.6389 28.0617 20.4012 28.288 20.1657C28.3272 20.1244 28.3675 20.0831 28.4066 20.0429C28.4806 19.967 28.5579 19.8967 28.6341 19.8242C28.6646 19.7952 28.695 19.7673 28.7244 19.7372C28.7309 19.7316 28.7364 19.7249 28.7429 19.7193C28.8376 19.6256 28.9344 19.5318 29.0302 19.4392C29.0324 19.437 29.0346 19.4358 29.0367 19.4336C29.0618 19.4102 29.0901 19.389 29.1162 19.3678C29.1227 19.3622 29.1281 19.3566 29.1347 19.3499C29.1369 19.3477 29.1379 19.3466 29.1401 19.3443C29.1695 19.3131 29.2 19.283 29.2294 19.2517C29.2337 19.245 29.2381 19.2406 29.2435 19.2372C29.2489 19.2339 29.2555 19.2316 29.2631 19.2316C29.2718 19.2305 29.2794 19.226 29.2859 19.2216C29.2903 19.2182 29.2947 19.2138 29.299 19.2093C29.3023 19.206 29.3044 19.2015 29.3077 19.197C29.3132 19.1903 29.3197 19.1825 29.3251 19.1758C29.4024 19.1055 29.4797 19.0363 29.5591 18.9683C29.5711 18.9582 29.583 18.9482 29.595 18.937C29.6712 18.8712 29.7484 18.8064 29.8268 18.7417C30.002 18.5978 30.1827 18.4583 30.3666 18.3266C30.3731 18.3232 30.3785 18.3199 30.3851 18.3165H30.3862C30.3916 18.3087 30.3981 18.302 30.4047 18.2964C30.446 18.2652 30.4884 18.2328 30.5298 18.2027C30.6136 18.1402 30.6996 18.0799 30.7844 18.0208C30.8269 17.9918 30.8704 17.9617 30.9139 17.9338C30.9575 17.9047 31.001 17.8757 31.0445 17.8478C31.1762 17.763 31.309 17.6804 31.4439 17.6012C31.5908 17.5141 31.741 17.4305 31.8912 17.3501C32.3439 17.1113 32.8118 16.9093 33.3015 16.7598C33.3385 16.7486 33.3766 16.7374 33.4136 16.7263C33.6748 16.6515 33.9371 16.5946 34.2037 16.5578C34.355 16.5366 34.5084 16.5221 34.6618 16.5154C34.7772 16.5098 34.8925 16.5087 35.009 16.512C35.0482 16.5131 35.0863 16.5142 35.1254 16.5165C35.2419 16.5232 35.3572 16.5354 35.4726 16.5522C35.6326 16.5745 35.7903 16.6058 35.9481 16.647C35.9525 16.6459 35.9558 16.6448 35.9601 16.647C35.9645 16.647 35.9677 16.6504 35.9699 16.6537C35.9732 16.6549 35.9775 16.656 35.9808 16.6571C35.9884 16.6593 35.9949 16.6615 36.0026 16.6649C36.0026 16.6537 36.0036 16.6426 36.0047 16.6314C36.0026 16.6292 36.0004 16.627 35.9971 16.6258L36.0004 16.6236Z" fill="#F1ECE2"/>
<path fill-rule="evenodd" clip-rule="evenodd" d="M34.2782 15.8557C34.2706 15.8211 34.238 15.8178 34.214 15.8066C33.7504 15.5957 33.2868 15.3837 32.8211 15.175C32.697 15.1192 32.5773 15.0544 32.4489 15.0098C32.4347 15.0187 32.4195 15.0176 32.4043 15.012C32.0854 14.9049 31.7546 14.8513 31.4216 14.8301C31.1158 14.8112 30.8089 14.8301 30.5053 14.8714C30.255 14.906 30.0091 14.9596 29.7653 15.0265C29.2919 15.1571 28.837 15.3346 28.3985 15.5566C28.2298 15.6426 28.0666 15.7396 27.9001 15.83C27.8446 15.8602 27.7869 15.887 27.7336 15.9193C27.2569 16.2106 26.7944 16.5242 26.3558 16.8735C26.2459 16.9605 26.1338 17.0453 26.0316 17.1402C25.9652 17.2016 25.901 17.2641 25.8291 17.3176C25.8161 17.3277 25.8019 17.3377 25.7856 17.3478C25.7736 17.3589 25.7617 17.369 25.7497 17.379V17.3812C25.7443 17.3957 25.7388 17.4091 25.7301 17.4169C25.7247 17.4214 25.7192 17.4236 25.7127 17.4248H25.7018H25.6996C25.6996 17.4248 25.6931 17.4225 25.6888 17.4214C25.6855 17.4236 25.6822 17.4259 25.6801 17.4281C25.642 17.456 25.6213 17.504 25.5865 17.5319C25.581 17.5364 25.5756 17.5397 25.5701 17.5431C25.4787 17.5922 25.4232 17.6803 25.3416 17.7406C25.2633 17.7986 25.198 17.8756 25.1261 17.9437C24.7703 18.2796 24.434 18.6356 24.101 18.9949C23.9987 19.1054 23.9073 19.2237 23.8094 19.3386C23.7528 19.4045 23.6897 19.4625 23.6342 19.5272C23.4829 19.7047 23.336 19.8866 23.1869 20.0651C23.0759 20.1979 22.9714 20.3352 22.8724 20.4769C22.794 20.5896 22.7005 20.6901 22.6167 20.7983C22.3631 21.132 22.1226 21.4757 21.8821 21.8183C21.6449 22.1565 21.4272 22.508 21.202 22.8551C20.9995 23.1664 20.8134 23.4889 20.6208 23.8081C20.5501 23.9264 20.487 24.0491 20.4152 24.1674C20.2922 24.3705 20.1779 24.5792 20.0702 24.7913C20.0027 24.8738 19.9624 24.9743 19.9113 25.0669C19.8047 25.2611 19.7024 25.4575 19.6099 25.6595C19.5805 25.7242 19.538 25.7789 19.5076 25.8436C19.4216 26.0233 19.3345 26.203 19.2442 26.3815C19.0189 26.8301 18.8209 27.291 18.6152 27.7497C18.3921 28.2452 18.1941 28.7529 17.9982 29.2607C17.8654 29.6055 17.7316 29.9504 17.626 30.3053C17.6086 30.3633 17.5759 30.4157 17.5564 30.4726C17.4541 30.7784 17.3518 31.0831 17.2549 31.39C17.1646 31.6723 17.0797 31.9569 16.9981 32.2415C16.9197 32.516 16.8446 32.7905 16.7728 33.0662C16.6324 33.6007 16.504 34.1386 16.3941 34.6798C16.3658 34.8238 16.3375 34.9678 16.3103 35.1117C16.2167 35.6016 16.134 36.0949 16.0666 36.5904C16.0034 37.0613 15.9512 37.5334 15.9098 38.0065C15.9066 38.0501 15.9033 38.0936 15.9001 38.1371V38.2576V38.1371C15.8805 38.396 15.8652 38.656 15.8554 38.9172C15.8435 39.2151 15.8413 39.5131 15.8391 39.8111C15.8391 39.9528 15.8533 40.0956 15.8522 40.2385C15.85 40.4561 15.8685 40.6726 15.8805 40.8891C15.8848 40.9683 15.8881 41.0487 15.8957 41.129C15.8968 41.1424 15.899 41.1569 15.9001 41.1703C15.9251 41.379 15.9414 41.5888 15.9697 41.7964C15.9969 41.9984 16.0241 42.2004 16.06 42.4001C16.1123 42.6791 16.1612 42.9581 16.245 43.2293C16.2711 43.3141 16.2853 43.4034 16.3092 43.4904C16.3593 43.6801 16.4191 43.8676 16.4844 44.0517C16.5791 44.3162 16.6879 44.5751 16.8055 44.8296C16.9872 45.2202 17.2125 45.584 17.4769 45.921C17.7272 46.2413 18.0134 46.5236 18.341 46.7602C18.354 46.7702 18.3682 46.7792 18.3823 46.7881C18.4063 46.8037 18.4302 46.8193 18.4541 46.835C18.4672 46.8439 18.4814 46.8528 18.4955 46.8618C18.5412 46.8908 18.5858 46.9209 18.6294 46.9533C18.6294 46.9533 18.6304 46.9533 18.6315 46.9544C18.6446 46.9644 18.6576 46.9745 18.6707 46.9856C18.6707 46.9879 18.6729 46.9901 18.674 46.9923C18.6816 47.0035 18.6968 47.0046 18.7088 47.0102C19.2747 47.2668 19.8395 47.5235 20.4054 47.7802C20.4282 47.7902 20.45 47.8059 20.4772 47.7992C20.4739 47.7936 20.4717 47.7891 20.4685 47.7835C20.4445 47.7512 20.4064 47.7389 20.3738 47.7177C20.2008 47.605 20.0364 47.4789 19.883 47.3416C19.8014 47.2691 19.7219 47.1921 19.6458 47.1128C19.3541 46.8093 19.1082 46.4723 18.8992 46.1118C18.8231 45.9801 18.7512 45.8451 18.6838 45.7067C18.6435 45.6241 18.6043 45.5404 18.5673 45.4556C18.551 45.4188 18.5358 45.3831 18.5205 45.3463C18.5053 45.3094 18.4901 45.2737 18.4748 45.2369C18.2615 44.7124 18.107 44.17 17.9906 43.6165C17.9557 43.4525 17.9253 43.2873 17.897 43.121C17.8404 42.7818 17.7979 42.4414 17.7664 42.0988C17.7348 41.7573 17.7163 41.4136 17.7054 41.0699C17.6946 40.7061 17.6967 40.3412 17.7076 39.9773C17.7087 39.9528 17.7087 39.9282 17.7098 39.9037C17.7163 39.714 17.725 39.5243 17.7348 39.3345C17.7457 39.146 17.7588 38.9562 17.774 38.7676C17.7773 38.7263 17.7816 38.6851 17.7871 38.627C17.7871 38.6214 17.7881 38.6159 17.7881 38.6103C17.7947 38.5344 17.8012 38.4585 17.8099 38.3826C17.8436 38.0434 17.8861 37.7052 17.9329 37.3682C17.9819 37.0178 18.0374 36.6696 18.0983 36.3226C18.1059 36.2801 18.1146 36.2389 18.1222 36.1964C18.1233 36.1886 18.1255 36.1808 18.1266 36.1719C18.1309 36.1507 18.1342 36.1295 18.1386 36.1083C18.1484 36.0547 18.1581 36.0023 18.1679 35.9498C18.2104 35.7277 18.255 35.5057 18.3029 35.2847C18.3584 35.0258 18.4182 34.768 18.4803 34.5113C18.5488 34.2256 18.6206 33.9411 18.6968 33.6576C18.6968 33.6532 18.699 33.6487 18.7001 33.6442C18.7491 33.4634 18.8002 33.2827 18.8524 33.103C18.9798 32.6655 19.1114 32.2292 19.2529 31.7962C19.3302 31.5618 19.4107 31.3286 19.4923 31.0965C19.6469 30.6579 19.809 30.2227 19.9799 29.7919C20.3009 28.9784 20.6491 28.176 21.0267 27.3859C21.0964 27.2397 21.1671 27.0935 21.239 26.9484C21.4087 26.6047 21.585 26.2632 21.7657 25.9251C21.8135 25.8347 21.8625 25.7443 21.9104 25.655C21.9147 25.6483 21.9191 25.6405 21.9224 25.6338C21.9278 25.6238 21.9322 25.6137 21.9311 25.6015C21.9376 25.5903 21.9452 25.5791 21.9507 25.5691C22.0029 25.4742 22.0551 25.3794 22.1085 25.2845C22.2151 25.0959 22.3217 24.9084 22.4317 24.721C22.5089 24.5893 22.5873 24.4576 22.6656 24.327C22.7538 24.1797 22.843 24.0335 22.9344 23.8884C23.0487 23.7054 23.1651 23.5224 23.2827 23.3416C23.4067 23.1508 23.533 22.9633 23.6614 22.7758C23.7375 22.6631 23.8148 22.5515 23.8921 22.4388V22.4321C23.8921 22.431 23.8932 22.4288 23.8943 22.4276C23.8964 22.4243 23.9008 22.4232 23.9051 22.4232C23.9269 22.3919 23.9476 22.3596 23.9704 22.3283C24.828 21.1208 25.7649 19.9826 26.8194 18.9492C27.1992 18.5776 27.591 18.2227 28.0013 17.889C28.1645 17.7551 28.331 17.6256 28.5008 17.4984L28.5432 17.4672C28.6139 17.4147 28.6858 17.3634 28.7576 17.312C29.1037 17.0665 29.4584 16.8378 29.8252 16.6324C29.8948 16.5934 29.9655 16.5554 30.0363 16.5186C30.0896 16.4907 30.1418 16.4628 30.1952 16.436C30.2409 16.4126 30.2866 16.3903 30.3323 16.3679C30.5162 16.2798 30.7023 16.1972 30.8927 16.1224C31.4978 15.8836 32.1203 15.7207 32.7699 15.685C33.2596 15.6582 33.7417 15.7028 34.214 15.849C34.2347 15.8557 34.2554 15.8658 34.2771 15.8568C34.2989 15.8479 34.2771 15.8557 34.2771 15.8568L34.2782 15.8557ZM15.8913 40.5186V40.5498V40.5186Z" fill="#FDBF41"/>
<path fill-rule="evenodd" clip-rule="evenodd" d="M32.3467 14.9642C31.9256 14.7711 31.5033 14.5837 31.0843 14.3884C30.6044 14.164 30.106 14.0257 29.5782 14C29.4455 14 29.3116 14 29.1788 14.0011H29.0232C28.7577 14.0156 28.4954 14.0558 28.2353 14.1127C27.4681 14.2801 26.7542 14.5881 26.0697 14.9742C25.3809 15.3626 24.741 15.8268 24.1327 16.3357C24.0554 16.4004 23.9716 16.4596 23.9041 16.5377C23.8987 16.5399 23.8933 16.5444 23.89 16.55V16.5567H23.8867H23.8835C23.8661 16.5712 23.8486 16.5846 23.8312 16.5991C23.1576 17.1906 22.5319 17.8322 21.9399 18.5096C21.2369 19.3154 20.5883 20.1657 19.9821 21.0496C19.0789 22.3664 18.279 23.748 17.5662 25.182C17.0852 26.1484 16.6478 27.1361 16.2538 28.1438C15.8436 29.195 15.467 30.2596 15.1645 31.35C15.1308 31.4705 15.0894 31.5899 15.0557 31.7104C14.8076 32.6088 14.5932 33.5149 14.4245 34.4323C14.2809 35.2101 14.1666 35.9913 14.0915 36.7791C14.036 37.3505 13.9979 37.923 14.0001 38.4977C14.0001 38.7589 14.0012 39.02 14.0023 39.2811C14.0055 39.3168 14.0066 39.3526 14.0077 39.3883C14.0088 39.4441 14.0077 39.4987 14.0055 39.5545C14.0077 39.8726 14.0338 40.1884 14.0632 40.5054C14.1122 41.022 14.1884 41.5332 14.3004 42.0387C14.4397 42.6726 14.6302 43.2875 14.9012 43.8756C15.1917 44.505 15.5606 45.0775 16.059 45.5562C16.3496 45.8352 16.6695 46.0707 17.0297 46.2437C17.3497 46.3977 17.674 46.5416 17.9983 46.6878C18.2203 46.7882 18.4401 46.8965 18.6665 46.9858C18.6534 46.9757 18.6403 46.9646 18.6273 46.9545C18.6273 46.9545 18.6262 46.9545 18.6251 46.9534C18.5816 46.921 18.537 46.8909 18.4912 46.8619C18.4771 46.853 18.464 46.844 18.4499 46.8351C18.426 46.8195 18.402 46.805 18.3781 46.7882C18.3639 46.7793 18.3509 46.7693 18.3367 46.7603C18.0092 46.5226 17.724 46.2414 17.4727 45.9211C17.2082 45.5841 16.983 45.2203 16.8012 44.8297C16.6826 44.5753 16.5738 44.3164 16.4802 44.0519C16.4552 44.0285 16.4312 44.0039 16.4073 43.9794C16.4312 44.0039 16.4552 44.0285 16.4802 44.0519C16.4149 43.8678 16.355 43.6803 16.305 43.4906C16.2821 43.4046 16.2669 43.3154 16.2408 43.2294C16.157 42.9582 16.1069 42.6793 16.0558 42.4003C16.0188 42.2005 15.9927 41.9985 15.9654 41.7965C15.9372 41.589 15.9197 41.3792 15.8958 41.1705C15.8947 41.1571 15.8925 41.1426 15.8914 41.1292V41.9293V41.1292C15.8838 41.0499 15.8806 40.9696 15.8762 40.8892C15.8653 40.6727 15.8468 40.4562 15.8479 40.2386C15.8479 40.0969 15.8338 39.9541 15.8349 39.8112C15.837 39.5133 15.8403 39.2153 15.8512 38.9173C15.861 38.6573 15.8762 38.3973 15.8958 38.1373C15.8991 38.0937 15.9023 38.0502 15.9056 38.0067C15.9469 37.5335 15.9992 37.0615 16.0623 36.5905C16.1298 36.095 16.2125 35.6018 16.3061 35.1119C16.3333 34.9679 16.3616 34.824 16.3899 34.68C16.4987 34.1376 16.6282 33.6009 16.7686 33.0663C16.8404 32.7907 16.9155 32.515 16.9938 32.2416C17.0755 31.9559 17.1603 31.6725 17.2507 31.3901C17.3486 31.0832 17.4509 30.7775 17.5521 30.4728C17.5706 30.4148 17.6043 30.3623 17.6217 30.3054C17.7284 29.9505 17.8612 29.6057 17.9939 29.2609C18.1898 28.7531 18.3879 28.2464 18.611 27.7498C18.8166 27.2923 19.0147 26.8303 19.24 26.3817C19.3292 26.2031 19.4173 26.0234 19.5033 25.8438C19.5338 25.7802 19.5773 25.7244 19.6056 25.6596C19.6981 25.4576 19.8004 25.2612 19.907 25.0671C19.9582 24.9744 19.9985 24.874 20.0659 24.7914C20.1737 24.5794 20.2879 24.3707 20.4109 24.1676C20.4827 24.0504 20.5458 23.9265 20.6166 23.8082C20.8081 23.4891 20.9942 23.1677 21.1977 22.8552C21.423 22.5081 21.6406 22.1566 21.8778 21.8185C22.1183 21.4759 22.3588 21.1321 22.6124 20.7985C22.6951 20.6891 22.7887 20.5898 22.8681 20.4771C22.9672 20.3353 23.0716 20.1981 23.1826 20.0653C23.3317 19.8856 23.4786 19.7037 23.6299 19.5274C23.6854 19.4627 23.7485 19.4046 23.8051 19.3388C23.9031 19.225 23.9945 19.1056 24.0968 18.9951C24.4298 18.6357 24.766 18.2797 25.1219 17.9438C25.1937 17.8758 25.259 17.7988 25.3374 17.7407C25.419 17.6805 25.4734 17.5923 25.5659 17.5432C25.5713 17.5398 25.5779 17.5365 25.5822 17.532C25.617 17.5041 25.6377 17.4562 25.6758 17.4283C25.6791 17.426 25.6823 17.4238 25.6845 17.4216C25.6867 17.4082 25.691 17.397 25.6976 17.3903C25.7041 17.3825 25.7117 17.378 25.7226 17.3769C25.7291 17.3769 25.7378 17.3769 25.7465 17.3792C25.7585 17.3691 25.7705 17.3579 25.7824 17.3479C25.7988 17.3367 25.8118 17.3278 25.826 17.3178C25.8978 17.2642 25.962 17.2028 26.0284 17.1403C26.1307 17.0444 26.2439 16.9607 26.3527 16.8736C26.7912 16.5243 27.2537 16.2107 27.7304 15.9195C27.7848 15.8871 27.8414 15.8603 27.8969 15.8302C28.0634 15.7387 28.2266 15.6416 28.3953 15.5568C28.8339 15.3347 29.2898 15.1573 29.7621 15.0267C30.0059 14.9597 30.2518 14.9073 30.5021 14.8716C30.8058 14.8292 31.1126 14.8113 31.4184 14.8303C31.7525 14.8515 32.0823 14.905 32.4011 15.0122C32.4174 15.0178 32.4316 15.0189 32.4457 15.01C32.4185 14.9798 32.3772 14.9798 32.3434 14.9642H32.3467Z" fill="#FF1100"/>
<path opacity="0.48" fill-rule="evenodd" clip-rule="evenodd" d="M46.9758 41.8321C47.0302 41.7886 47.0302 41.7841 46.9758 41.7406C46.8496 41.6368 46.7146 41.5464 46.5764 41.4605C46.115 41.1737 45.622 40.955 45.1171 40.7653C45.0017 40.7217 44.8896 40.6693 44.7667 40.647C44.7329 40.6079 44.6829 40.6046 44.6393 40.5901C44.1681 40.4294 43.6882 40.2977 43.2072 40.1716C43.167 40.1682 43.1278 40.1593 43.093 40.1392C42.8677 40.089 42.6424 40.0376 42.4182 39.9874C42.0015 39.8948 41.5825 39.8145 41.1624 39.7419C40.8512 39.6883 40.5389 39.6381 40.2265 39.5901C39.9828 39.5533 39.739 39.5154 39.4931 39.4975C39.4528 39.4908 39.4125 39.483 39.3712 39.4774C38.5104 39.3692 37.6485 39.2877 36.7833 39.2263C36.2186 39.1873 35.6538 39.156 35.0879 39.1337C34.349 39.1047 33.609 39.0913 32.869 39.0913C31.9516 39.0913 31.0353 39.1147 30.1201 39.1605C29.0623 39.2129 28.0067 39.2955 26.9544 39.4161C26.7824 39.4361 26.6083 39.4473 26.4385 39.4852C26.4037 39.4752 26.37 39.4852 26.3352 39.4886C25.5854 39.5834 24.8388 39.7006 24.0967 39.8446C23.6581 39.9294 23.2217 40.0231 22.7886 40.1292L22.7799 40.1437C22.7799 40.1437 22.6678 41.7975 22.9159 43.4123C23.3436 43.5161 23.7735 43.6087 24.2044 43.6913C24.5896 43.765 24.976 43.8353 25.3645 43.8922C25.9086 43.9725 26.4538 44.054 27.0012 44.112C27.5333 44.169 28.0644 44.2281 28.5976 44.2683C28.9132 44.2917 29.2277 44.3196 29.5433 44.3386C30.0101 44.3665 30.4781 44.3899 30.9449 44.4067C31.3715 44.4223 31.7981 44.4346 32.2247 44.4401C32.907 44.4491 33.5905 44.4457 34.2728 44.4312C34.9301 44.4167 35.5874 44.391 36.2436 44.3531C37.026 44.3085 37.8074 44.2448 38.5876 44.1623C39.7771 44.0362 40.96 43.8665 42.132 43.6266C43.1561 43.4168 44.1681 43.1601 45.1497 42.7896C45.5774 42.6289 45.9964 42.4448 46.3947 42.2171C46.5971 42.1022 46.793 41.9772 46.9758 41.831V41.8321Z" fill="url(#paint2_linear_17394_248860)"/>
<defs>
<radialGradient id="paint0_radial_17394_248860" cx="0" cy="0" r="1" gradientUnits="userSpaceOnUse" gradientTransform="translate(32 32) rotate(90) scale(32)">
<stop stop-opacity="0"/>
<stop offset="1" stop-color="white"/>
</radialGradient>
<linearGradient id="paint1_linear_17394_248860" x1="32" y1="0" x2="32" y2="64" gradientUnits="userSpaceOnUse">
<stop stop-color="#4B4C4D"/>
<stop offset="1" stop-opacity="0"/>
</linearGradient>
<linearGradient id="paint2_linear_17394_248860" x1="34.9402" y1="39.7073" x2="34.9329" y2="43.7117" gradientUnits="userSpaceOnUse">
<stop offset="0.16" stop-color="#191919"/>
<stop offset="0.97" stop-color="#191919" stop-opacity="0"/>
</linearGradient>
</defs>
</svg>
