<svg width="64" height="64" viewBox="0 0 64 64" fill="none" xmlns="http://www.w3.org/2000/svg">
<circle cx="32" cy="32" r="31.75" fill="url(#paint0_radial)" fill-opacity="0.05" stroke="url(#paint1_linear)" stroke-width="0.5"/>
<path d="M42.7046 32.8811H21.2949C20.9519 32.8821 20.6232 33.0195 20.3806 33.2633C20.1379 33.5071 20.0011 33.8375 20 34.1823C20.0009 34.5273 20.1376 34.8579 20.3802 35.1019C20.6229 35.3459 20.9517 35.4834 21.2949 35.4844H26.6739L30.3189 45.1602C30.4167 45.4174 30.5929 45.637 30.8223 45.7876C31.0517 45.9381 31.3225 46.0119 31.5962 45.9984C31.8698 46.0119 32.1407 45.9381 32.3701 45.7876C32.5995 45.637 32.7757 45.4174 32.8735 45.1602L36.5184 35.484H42.7051C43.0482 35.483 43.377 35.3455 43.6196 35.1016C43.8622 34.8577 43.999 34.5272 44 34.1823C43.999 33.8374 43.8622 33.5069 43.6196 33.263C43.377 33.0191 43.0482 32.8816 42.7051 32.8806L42.7046 32.8811ZM31.5957 41.1991L29.4426 35.4835H33.7488L31.5957 41.1987V41.1991ZM21.2949 30.4513H42.7051C43.0483 30.4502 43.3771 30.3127 43.6198 30.0687C43.8624 29.8247 43.9991 29.4941 44 29.1491C43.999 28.8042 43.8622 28.4737 43.6196 28.2298C43.377 27.9859 43.0482 27.8485 42.7051 27.8474H39.3953L42.0643 20.7616C42.1849 20.4387 42.1735 20.0809 42.0325 19.7664C41.8915 19.452 41.6325 19.2063 41.3119 19.0832C40.9906 18.962 40.6347 18.9736 40.3218 19.1154C40.0089 19.2572 39.7646 19.5177 39.6423 19.84L36.6252 27.8474H26.5657L23.5491 19.84C23.4266 19.5178 23.1823 19.2573 22.8695 19.1156C22.5567 18.9738 22.2008 18.9622 21.8795 19.0832C21.5589 19.2063 21.2999 19.452 21.1589 19.7664C21.0179 20.0809 21.0065 20.4387 21.1271 20.7616L23.7966 27.8474H21.2949C20.9518 27.8485 20.623 27.9859 20.3804 28.2298C20.1378 28.4737 20.001 28.8042 20 29.1491C20.001 29.494 20.1378 29.8245 20.3804 30.0684C20.623 30.3123 20.9518 30.4498 21.2949 30.4508V30.4513Z" fill="url(#paint2_linear)"/>
<defs>
<radialGradient id="paint0_radial" cx="0" cy="0" r="1" gradientUnits="userSpaceOnUse" gradientTransform="translate(32 32) rotate(90) scale(32)">
<stop stop-opacity="0"/>
<stop offset="1" stop-color="white"/>
</radialGradient>
<linearGradient id="paint1_linear" x1="32" y1="0" x2="32" y2="64" gradientUnits="userSpaceOnUse">
<stop stop-color="#4B4C4D"/>
<stop offset="1" stop-opacity="0"/>
</linearGradient>
<linearGradient id="paint2_linear" x1="22.5249" y1="40.9897" x2="42.8694" y2="26.5866" gradientUnits="userSpaceOnUse">
<stop stop-color="#F8B342"/>
<stop offset="1" stop-color="#F2C35E"/>
</linearGradient>
</defs>
</svg>
