<svg width="64" height="64" viewBox="0 0 64 64" fill="none" xmlns="http://www.w3.org/2000/svg">
<circle cx="32" cy="32" r="31.75" fill="url(#paint0_radial)" fill-opacity="0.05" stroke="url(#paint1_linear)" stroke-width="0.5"/>
<path d="M47.4801 36.9916C46.5863 40.8714 43.4578 44.1229 39.1908 45.8577V31.009C39.1908 22.7186 43.0556 16 48 16L47.713 34.9808C47.706 35.6589 47.6283 36.3345 47.4801 36.9916Z" fill="#424486"/>
<path d="M16.5222 36.9916C17.4161 40.8714 20.5445 44.1229 24.8115 45.8577V31.009C24.8115 22.7186 20.9468 16 16 16L16.2893 34.9808C16.2987 35.6589 16.3764 36.3345 16.5222 36.9916Z" fill="#424486"/>
<path d="M32.0848 27.0504C32.0848 27.0504 36.8363 33.769 36.8363 40.2668C36.8363 46.0181 32.0848 48 32.0848 48H32.0777C32.0777 48 27.3262 46.0181 27.3262 40.2668C27.3262 33.7664 32.0777 27.0504 32.0777 27.0504" fill="#424486"/>
<defs>
<radialGradient id="paint0_radial" cx="0" cy="0" r="1" gradientUnits="userSpaceOnUse" gradientTransform="translate(32 32) rotate(90) scale(32)">
<stop stop-opacity="0"/>
<stop offset="1" stop-color="white"/>
</radialGradient>
<linearGradient id="paint1_linear" x1="32" y1="0" x2="32" y2="64" gradientUnits="userSpaceOnUse">
<stop stop-color="#4B4C4D"/>
<stop offset="1" stop-opacity="0"/>
</linearGradient>
</defs>
</svg>
