<svg width="64" height="64" viewBox="0 0 64 64" fill="none" xmlns="http://www.w3.org/2000/svg">
<circle cx="32" cy="32" r="31.75" fill="url(#paint0_radial)" fill-opacity="0.05" stroke="url(#paint1_linear)" stroke-width="0.5"/>
<path d="M20.4265 16.0011H16L28.1729 47.8873L32.415 37.1835L29.1873 28.8457L28.4496 30.5358C27.8655 28.9584 26.3101 24.8121 24.7608 20.846C23.2115 16.8799 21.2257 15.9635 20.4265 16.0011Z" fill="#1D191A"/>
<path d="M37.2104 47.9996L25.4063 16.0007H29.1873C31.7695 16.0007 33.1527 18.5546 33.5216 19.8315L37.3948 30.6481C37.7022 29.8218 38.649 27.1778 39.9769 23.2117C41.3049 19.2456 43.7272 18.3292 44.7723 18.3668H48L37.2104 47.9996Z" fill="url(#paint2_radial)"/>
<defs>
<radialGradient id="paint0_radial" cx="0" cy="0" r="1" gradientUnits="userSpaceOnUse" gradientTransform="translate(32 32) rotate(90) scale(32)">
<stop stop-opacity="0"/>
<stop offset="1" stop-color="white"/>
</radialGradient>
<linearGradient id="paint1_linear" x1="32" y1="0" x2="32" y2="64" gradientUnits="userSpaceOnUse">
<stop stop-color="#4B4C4D"/>
<stop offset="1" stop-opacity="0"/>
</linearGradient>
<radialGradient id="paint2_radial" cx="0" cy="0" r="1" gradientUnits="userSpaceOnUse" gradientTransform="translate(48 32.0001) rotate(-67.4933) scale(19.5138 14.7731)">
<stop offset="0.387304" stop-color="#6AD4CD"/>
<stop offset="1" stop-color="#1D191A"/>
</radialGradient>
</defs>
</svg>
