<svg xmlns="http://www.w3.org/2000/svg" width="40" height="40" viewBox="0 0 40 40">
  <defs>
    <style>
      .cls-1 {
        fill: #939ca5;
      }
    </style>
  </defs>
  <g id="组_66058" data-name="组 66058" transform="translate(-181 -654)">
    <g id="组_57150" data-name="组 57150" transform="translate(181 654)">
      <g id="组_57147" data-name="组 57147">
        <g id="组_57143" data-name="组 57143" transform="translate(0 0)">
          <rect id="矩形_21457" data-name="矩形 21457" class="cls-1" width="40" height="40" rx="20" transform="translate(0 0)"/>
        </g>
      </g>
    </g>
    <path id="路径_32878" data-name="路径 32878" d="M22.8,92.493a7.813,7.813,0,0,1,.8.044c-.716-3.046-4.278-5.31-8.345-5.31-4.547,0-8.271,2.833-8.271,6.43,0,2.077,1.239,3.782,3.31,5.1l-.827,2.274,2.891-1.325a15.413,15.413,0,0,0,2.9.38c.26,0,.517-.012.772-.03a5.185,5.185,0,0,1-.255-1.584C15.765,95.173,18.868,92.493,22.8,92.493Zm-4.505-2.2a1.174,1.174,0,1,1-1.279,1.169A1.228,1.228,0,0,1,18.291,90.29ZM12.5,92.651a1.174,1.174,0,1,1,1.279-1.169A1.228,1.228,0,0,1,12.5,92.651ZM30.287,98.41c0-3.023-3.309-5.487-7.025-5.487-3.935,0-7.035,2.464-7.035,5.487s3.1,5.487,7.035,5.487a11.279,11.279,0,0,0,2.482-.38l2.269,1.136-.622-1.89C29.051,101.626,30.287,100.116,30.287,98.41ZM21.1,97.563a.836.836,0,1,1,.911-.832A.874.874,0,0,1,21.1,97.563Zm4.547.047a.836.836,0,1,1,.911-.832A.874.874,0,0,1,25.648,97.61Z" transform="translate(182.023 577.745)"/>
  </g>
</svg>
