<svg width="64" height="64" viewBox="0 0 64 64" fill="none" xmlns="http://www.w3.org/2000/svg">
<circle cx="32" cy="32" r="31.75" fill="url(#paint0_radial_16826_159171)" fill-opacity="0.05" stroke="url(#paint1_linear_16826_159171)" stroke-width="0.5"/>
<circle cx="34.25" cy="32.75" r="14.25" fill="white"/>
<path d="M35 21.5C28.3731 21.5 23 26.8731 23 33.5C23 40.1269 28.3731 45.5 35 45.5C41.6269 45.5 47 40.1269 47 33.5C47 26.8731 41.591 21.5 35 21.5ZM35 43.7448C29.3761 43.7448 24.791 39.1597 24.791 33.5358C24.791 27.9119 29.3761 23.3269 35 23.3269C40.6239 23.3269 45.209 27.8761 45.209 33.5C45.209 39.1239 40.6239 43.7448 35 43.7448Z" fill="black"/>
<path d="M34.2501 16.25C30.5001 14 23.0001 14 18.5001 19.25C12.5001 26.45 15.5001 34.25 17.7501 37.25L24.5001 43.25C22.0001 40.5 18.3501 33.05 23.7501 25.25C29.1501 17.45 37.5001 19 41.0001 20.75C40.0001 20 37.2501 18.05 34.2501 16.25Z" fill="#DA367D"/>
<path d="M44.6473 22.0787L44.6147 22.046C44.0598 21.5555 43.4397 21.1303 42.7869 20.7379L36.7489 16.4213C35.476 15.5057 34.1052 14.8517 32.7017 14.492C31.2656 14.1322 29.7643 13.9687 28.2629 14.0341C20.495 14.3611 14.2285 20.7052 14 28.5209C14 28.7171 14 28.946 14 29.1422C14.0326 33.3934 16.0562 37.4483 19.5159 40.1953L24.8685 44.4464C25.456 45.0024 26.1088 45.5256 26.7942 45.9834L26.8268 46.0161C29.1768 47.5858 32.0163 48.5014 35.0517 48.5014C43.2765 48.5014 50 41.7976 50 33.5242C50 28.946 47.9112 24.8256 44.6473 22.0787ZM28.3282 15.6365C29.6664 15.6038 31.0045 15.7346 32.2774 16.0616C33.485 16.3886 34.66 16.9446 35.8024 17.7621L37.1732 18.7431C36.4878 18.645 35.8024 18.5796 35.0843 18.5796C28.1976 18.5796 22.388 23.2559 20.6582 29.6327L15.893 26.2972C17.1006 20.4436 22.1922 15.9308 28.3282 15.6365ZM15.6319 29.1095C15.6319 28.9133 15.6319 28.7498 15.6319 28.5536C15.6319 28.4228 15.6319 28.2592 15.6646 28.1284L20.2992 31.3659C20.2013 32.0853 20.136 32.8047 20.136 33.5569C20.136 33.6877 20.136 33.7858 20.136 33.9166L15.7298 30.5483C15.6646 30.0905 15.6319 29.6 15.6319 29.1095ZM16.35 33.0664L20.3645 36.1076C20.5929 37.3502 20.9519 38.5275 21.4415 39.6393L20.5277 38.9199C18.5694 37.3502 17.1333 35.2901 16.35 33.0664ZM35.0843 46.8664C32.3753 46.8664 29.8622 46.0488 27.7733 44.6754L25.9456 43.2038C23.3998 40.7839 21.8005 37.3502 21.8005 33.5569C21.7679 26.1991 27.7407 20.2147 35.0843 20.2147C37.5648 20.2147 39.9148 20.9014 41.9057 22.1114L43.6029 23.3213C46.5077 25.7739 48.3681 29.4365 48.3681 33.5242C48.3681 40.882 42.3953 46.8664 35.0843 46.8664Z" fill="black"/>
<path d="M23.75 42.5C20.5 42.5 14 43.85 14 46.25C14 50.75 26 50 32.75 50C38.15 50 39.75 48 39.5 47H31.25C28.85 47 25.25 44 23.75 42.5Z" fill="black"/>
<path d="M26 32H27.1792L27.6042 34.514L28.2239 32H29.4004L30.0229 34.514L30.4479 32H31.6216L30.7358 36.5H29.5183L28.8135 33.6668L28.1115 36.5H26.894L26 32Z" fill="black"/>
<path d="M32.0274 32H35.3565V32.9608H33.2724V33.676H35.2057V34.5938H33.2724V35.4809H35.4168V36.5H32.0274V32Z" fill="black"/>
<path d="M35.8062 32H39.5823V33.1112H38.3154V36.5H37.0731V33.1112H35.8062V32Z" fill="black"/>
<path d="M40.1527 32H41.3949V33.5747H42.7523V32H44V36.5H42.7523V34.6797H41.3949V36.5H40.1527V32Z" fill="black"/>
<defs>
<radialGradient id="paint0_radial_16826_159171" cx="0" cy="0" r="1" gradientUnits="userSpaceOnUse" gradientTransform="translate(32 32) rotate(90) scale(32)">
<stop stop-opacity="0"/>
<stop offset="1" stop-color="white"/>
</radialGradient>
<linearGradient id="paint1_linear_16826_159171" x1="32" y1="0" x2="32" y2="64" gradientUnits="userSpaceOnUse">
<stop stop-color="#4B4C4D"/>
<stop offset="1" stop-opacity="0"/>
</linearGradient>
</defs>
</svg>
