<svg width="64" height="64" viewBox="0 0 64 64" fill="none" xmlns="http://www.w3.org/2000/svg">
<circle cx="32" cy="32" r="31.75" fill="url(#paint0_radial_17869_167846)" fill-opacity="0.05" stroke="url(#paint1_linear_17869_167846)" stroke-width="0.5"/>
<path d="M18.9058 44.2077L30.8818 14.8798L14 31.89C14 37.8143 17.2705 42.5703 18.9058 44.2077Z" fill="#4F473B"/>
<path d="M21.1423 41.9348L32.5411 14L43.9399 18.7658L21.1423 41.9348Z" fill="#4F473B"/>
<path d="M32.9739 31.8167L45.2385 19.499C46.8257 20.8432 50 25.1886 50 31.8167C50 38.4448 46.7776 42.8391 45.1663 44.2077L32.9739 31.8167Z" fill="#4F473B"/>
<path d="M44.012 44.8676L31.9639 32.8432L19.988 44.8676L31.9639 50L44.012 44.8676Z" fill="#4F473B"/>
<defs>
<radialGradient id="paint0_radial_17869_167846" cx="0" cy="0" r="1" gradientUnits="userSpaceOnUse" gradientTransform="translate(32 32) rotate(90) scale(32)">
<stop stop-opacity="0"/>
<stop offset="1" stop-color="white"/>
</radialGradient>
<linearGradient id="paint1_linear_17869_167846" x1="32" y1="0" x2="32" y2="64" gradientUnits="userSpaceOnUse">
<stop stop-color="#4B4C4D"/>
<stop offset="1" stop-opacity="0"/>
</linearGradient>
</defs>
</svg>
