<svg width="64" height="64" viewBox="0 0 64 64" fill="none" xmlns="http://www.w3.org/2000/svg">
<circle cx="32" cy="32" r="31.75" fill="url(#paint0_radial_16654_126956)" fill-opacity="0.05" stroke="url(#paint1_linear_16654_126956)" stroke-width="0.5"/>
<path d="M49.2501 22.4165H43.2599C42.38 25.2822 41.5189 28.0748 40.583 31.0318H46.4983C47.4156 28.1661 48.3141 25.3552 49.2501 22.4165Z" fill="white"/>
<path d="M25.7994 34.8253C25.4799 35.543 25.2241 36.1178 25.1206 36.3433C25.027 36.3433 21.2831 24.6981 20.5905 22.4348H14.75C14.8436 22.8546 19.5235 38.0955 21.227 43.4436C21.7137 44.9768 22.3127 45.4148 23.9413 45.4148C24.1909 45.4148 24.4405 45.4128 24.6901 45.4108C25.1893 45.4067 25.6884 45.4027 26.1876 45.4148C27.4793 45.4513 28.3029 44.8855 28.7709 43.7173C29.6507 41.5088 31.7473 36.5623 31.972 36.1242C32.1966 36.6353 34.3119 41.5818 35.1917 43.7539C35.6597 44.8855 36.4459 45.4513 37.7001 45.4148C38.1993 45.4027 38.6985 45.4067 39.1977 45.4108C39.4473 45.4128 39.6969 45.4148 39.9465 45.4148C41.5189 45.3966 42.1367 44.9768 42.6046 43.5166C43.5219 40.5779 45.4687 34.0799 45.5249 33.6966H39.8342C39.4972 34.591 39.179 35.4671 38.7859 36.5988C38.5418 36.0313 36.8388 32.0717 36.0903 30.3929C35.304 28.6772 33.9375 27.6915 32.0094 27.6733C30.0438 27.655 28.6399 28.6224 27.8162 30.3564C27.3993 31.231 26.4624 33.3359 25.7994 34.8253Z" fill="white"/>
<defs>
<radialGradient id="paint0_radial_16654_126956" cx="0" cy="0" r="1" gradientUnits="userSpaceOnUse" gradientTransform="translate(32 32) rotate(90) scale(32)">
<stop stop-opacity="0"/>
<stop offset="1" stop-color="white"/>
</radialGradient>
<linearGradient id="paint1_linear_16654_126956" x1="32" y1="0" x2="32" y2="64" gradientUnits="userSpaceOnUse">
<stop stop-color="#4B4C4D"/>
<stop offset="1" stop-opacity="0"/>
</linearGradient>
</defs>
</svg>
