<svg width="64" height="64" viewBox="0 0 64 64" fill="none" xmlns="http://www.w3.org/2000/svg">
<circle cx="32" cy="32" r="31.75" fill="url(#paint0_radial)" fill-opacity="0.05" stroke="url(#paint1_linear)" stroke-width="0.5"/>
<path d="M17.0311 20C16.1028 20 15.6474 21.0529 16.3165 21.652L27.8742 32L16.3165 42.348C15.6474 42.9471 16.1028 44 17.0311 44H22.304C22.5705 44 22.8265 43.904 23.0186 43.732L31.998 35.6923L40.9775 43.732C41.1696 43.904 41.4256 44 41.6921 44H46.965C47.8933 44 48.3487 42.9471 47.6796 42.348L36.1219 32L47.6796 21.652C48.3487 21.0529 47.8933 20 46.965 20H41.6921C41.5977 20 41.5049 20.012 41.4155 20.0352C41.2524 20.0775 41.1016 20.1569 40.9775 20.268L31.998 28.3077L23.0186 20.268C22.8265 20.096 22.5705 20 22.304 20H17.0311Z" fill="url(#paint2_linear)"/>
<defs>
<radialGradient id="paint0_radial" cx="0" cy="0" r="1" gradientUnits="userSpaceOnUse" gradientTransform="translate(32 32) rotate(90) scale(32)">
<stop stop-opacity="0"/>
<stop offset="1" stop-color="white"/>
</radialGradient>
<linearGradient id="paint1_linear" x1="32" y1="0" x2="32" y2="64" gradientUnits="userSpaceOnUse">
<stop stop-color="#4B4C4D"/>
<stop offset="1" stop-opacity="0"/>
</linearGradient>
<linearGradient id="paint2_linear" x1="15.998" y1="32" x2="47.998" y2="32" gradientUnits="userSpaceOnUse">
<stop stop-color="#FA64A1"/>
<stop offset="1" stop-color="#CE80EE"/>
</linearGradient>
</defs>
</svg>
