<svg width="64" height="64" viewBox="0 0 64 64" fill="none" xmlns="http://www.w3.org/2000/svg">
<circle cx="32" cy="32" r="31.75" fill="url(#paint0_radial)" fill-opacity="0.05" stroke="url(#paint1_linear)" stroke-width="0.5"/>
<path d="M35.9213 20.0438C33.6066 17.9181 29.8539 17.9181 27.5392 20.0438C25.2246 22.1694 25.2246 25.6158 27.5392 27.7415C28.2323 28.3779 29.0496 28.9535 29.952 29.5154V32.4326C28.4446 31.5697 26.9018 30.6203 25.6532 29.4735C22.2969 26.3913 22.2969 21.394 25.6532 18.3117C29.0094 15.2294 34.451 15.2294 37.8073 18.3117C40.2249 20.5319 40.901 23.7457 39.8358 26.5217L42.2424 25.867L43 28.2156L36.0579 30.1043L33.5092 23.958L36.0018 23.0863L37.2037 25.9846C38.0976 24.0099 37.6701 21.6498 35.9213 20.0438Z" fill="url(#paint2_linear)"/>
<path d="M37.8073 34.5265C36.5586 33.3797 35.0158 32.4302 33.5084 31.5673V34.4845C34.4108 35.0465 35.2282 35.6221 35.9213 36.2585C38.2359 38.3842 38.2359 41.8306 35.9213 43.9562C33.6066 46.0819 29.8539 46.0819 27.5392 43.9562C26.096 42.6308 25.5526 40.7919 25.9092 39.0799L26.1791 40.5771L28.8106 40.177L27.6899 33.9611L21 35.0979L21.4853 37.5065L23.774 37.1176C22.5038 39.972 23.1301 43.3713 25.6532 45.6883C29.0094 48.7706 34.451 48.7706 37.8073 45.6883C41.1636 42.606 41.1636 37.6087 37.8073 34.5265Z" fill="url(#paint3_linear)"/>
<path d="M33.064 22.411V41.8589H30.3967V22.411H33.064Z" fill="url(#paint4_linear)"/>
<defs>
<radialGradient id="paint0_radial" cx="0" cy="0" r="1" gradientUnits="userSpaceOnUse" gradientTransform="translate(32 32) rotate(90) scale(32)">
<stop stop-opacity="0"/>
<stop offset="1" stop-color="white"/>
</radialGradient>
<linearGradient id="paint1_linear" x1="32" y1="0" x2="32" y2="64" gradientUnits="userSpaceOnUse">
<stop stop-color="#4B4C4D"/>
<stop offset="1" stop-opacity="0"/>
</linearGradient>
<linearGradient id="paint2_linear" x1="21" y1="32" x2="43" y2="32" gradientUnits="userSpaceOnUse">
<stop stop-color="#3074EF"/>
<stop offset="1" stop-color="#2860B5"/>
</linearGradient>
<linearGradient id="paint3_linear" x1="21" y1="32" x2="43" y2="32" gradientUnits="userSpaceOnUse">
<stop stop-color="#3074EF"/>
<stop offset="1" stop-color="#2860B5"/>
</linearGradient>
<linearGradient id="paint4_linear" x1="21" y1="32" x2="43" y2="32" gradientUnits="userSpaceOnUse">
<stop stop-color="#3074EF"/>
<stop offset="1" stop-color="#2860B5"/>
</linearGradient>
</defs>
</svg>
